G04 #@! TF.GenerationSoftware,KiCad,Pcbnew,(5.1.9)-1*
G04 #@! TF.CreationDate,2021-05-06T17:03:27+01:00*
G04 #@! TF.ProjectId,Little Logic Computer - Power+Timing,4c697474-6c65-4204-9c6f-67696320436f,2.0*
G04 #@! TF.SameCoordinates,Original*
G04 #@! TF.FileFunction,Soldermask,Bot*
G04 #@! TF.FilePolarity,Negative*
%FSLAX46Y46*%
G04 Gerber Fmt 4.6, Leading zero omitted, Abs format (unit mm)*
G04 Created by KiCad (PCBNEW (5.1.9)-1) date 2021-05-06 17:03:27*
%MOMM*%
%LPD*%
G01*
G04 APERTURE LIST*
%ADD10C,0.902000*%
%ADD11C,6.502000*%
%ADD12C,1.002000*%
%ADD13C,1.362000*%
%ADD14O,1.802000X1.802000*%
G04 APERTURE END LIST*
D10*
X148297056Y-80302944D03*
X146600000Y-79600000D03*
X144902944Y-80302944D03*
X144200000Y-82000000D03*
X144902944Y-83697056D03*
X146600000Y-84400000D03*
X148297056Y-83697056D03*
X149000000Y-82000000D03*
D11*
X146600000Y-82000000D03*
D10*
X148297056Y-120302944D03*
X146600000Y-119600000D03*
X144902944Y-120302944D03*
X144200000Y-122000000D03*
X144902944Y-123697056D03*
X146600000Y-124400000D03*
X148297056Y-123697056D03*
X149000000Y-122000000D03*
D11*
X146600000Y-122000000D03*
D10*
X108297056Y-120302944D03*
X106600000Y-119600000D03*
X104902944Y-120302944D03*
X104200000Y-122000000D03*
X104902944Y-123697056D03*
X106600000Y-124400000D03*
X108297056Y-123697056D03*
X109000000Y-122000000D03*
D11*
X106600000Y-122000000D03*
D12*
X129964400Y-124743200D03*
X123164400Y-124743200D03*
D13*
X112746800Y-122406400D03*
X115286800Y-119866400D03*
X117826800Y-122406400D03*
D12*
X118166800Y-81664800D03*
X122566800Y-81664800D03*
D14*
X146579600Y-98174800D03*
X146579600Y-100714800D03*
X146579600Y-103254800D03*
G36*
G01*
X147480600Y-104944800D02*
X147480600Y-106644800D01*
G75*
G02*
X147429600Y-106695800I-51000J0D01*
G01*
X145729600Y-106695800D01*
G75*
G02*
X145678600Y-106644800I0J51000D01*
G01*
X145678600Y-104944800D01*
G75*
G02*
X145729600Y-104893800I51000J0D01*
G01*
X147429600Y-104893800D01*
G75*
G02*
X147480600Y-104944800I0J-51000D01*
G01*
G37*
X106701600Y-100714800D03*
G36*
G01*
X107602600Y-102404800D02*
X107602600Y-104104800D01*
G75*
G02*
X107551600Y-104155800I-51000J0D01*
G01*
X105851600Y-104155800D01*
G75*
G02*
X105800600Y-104104800I0J51000D01*
G01*
X105800600Y-102404800D01*
G75*
G02*
X105851600Y-102353800I51000J0D01*
G01*
X107551600Y-102353800D01*
G75*
G02*
X107602600Y-102404800I0J-51000D01*
G01*
G37*
D10*
X108297056Y-80302944D03*
X106600000Y-79600000D03*
X104902944Y-80302944D03*
X104200000Y-82000000D03*
X104902944Y-83697056D03*
X106600000Y-84400000D03*
X108297056Y-83697056D03*
X109000000Y-82000000D03*
D11*
X106600000Y-82000000D03*
D14*
X130780800Y-82122000D03*
G36*
G01*
X132470800Y-81221000D02*
X134170800Y-81221000D01*
G75*
G02*
X134221800Y-81272000I0J-51000D01*
G01*
X134221800Y-82972000D01*
G75*
G02*
X134170800Y-83023000I-51000J0D01*
G01*
X132470800Y-83023000D01*
G75*
G02*
X132419800Y-82972000I0J51000D01*
G01*
X132419800Y-81272000D01*
G75*
G02*
X132470800Y-81221000I51000J0D01*
G01*
G37*
M02*
