M48
; DRILL file {KiCad (5.1.9)-1} date 05/06/21 17:03:24
; FORMAT={-:-/ absolute / inch / decimal}
; #@! TF.CreationDate,2021-05-06T17:03:24+01:00
; #@! TF.GenerationSoftware,Kicad,Pcbnew,(5.1.9)-1
FMAT,2
INCH
T1C0.0157
T2C0.0197
T3C0.0276
T4C0.0394
T5C0.1260
T6C0.0354
%
G90
G05
T1
X4.2789Y-4.3531
X4.3069Y-4.1931
X4.3229Y-4.6231
X4.3749Y-4.0471
X4.4209Y-4.4111
X4.4209Y-4.5591
X4.4529Y-4.1731
X4.4529Y-4.5111
X4.4889Y-3.3171
X4.4909Y-3.1011
X4.5089Y-3.9291
X4.5909Y-4.6231
X4.6389Y-4.3271
X4.6769Y-3.4211
X4.6789Y-4.0851
X4.7269Y-4.3271
X4.7269Y-4.6611
X4.7589Y-4.2811
X4.7662Y-3.9318
X4.7969Y-4.2151
X4.8009Y-4.3557
X4.8309Y-4.3271
X4.8649Y-3.7871
X4.8649Y-3.8851
X4.8669Y-4.0851
X4.8849Y-4.7291
X4.891Y-4.6903
X4.9049Y-4.2811
X4.9349Y-4.4611
X4.9409Y-3.7871
X4.9409Y-3.8871
X4.9569Y-4.6617
X4.9769Y-4.0191
X4.9829Y-4.8771
X5.0009Y-3.4211
X5.0009Y-3.7431
X5.0109Y-3.8971
X5.0129Y-4.4611
X5.0129Y-4.7291
X5.0489Y-4.0851
X5.0789Y-4.6611
X5.0809Y-4.3271
X5.0809Y-4.7091
X5.0869Y-4.2191
X5.1629Y-4.4651
X5.2529Y-3.3391
X5.3229Y-4.9471
X5.3269Y-4.3531
X5.4149Y-4.6611
X5.4489Y-3.4611
X5.4569Y-4.2531
X5.5169Y-4.9471
X5.5389Y-4.5751
X5.5409Y-4.1011
X5.6289Y-3.9491
X5.6289Y-4.3391
X5.6429Y-4.6231
X5.6869Y-4.6211
X5.7409Y-4.6231
T2
X4.1024Y-3.2283
X4.1024Y-4.8031
X4.13Y-3.1615
X4.13Y-3.2952
X4.13Y-4.7363
X4.13Y-4.87
X4.1969Y-3.1339
X4.1969Y-3.3228
X4.1969Y-4.7087
X4.1969Y-4.8976
X4.2637Y-3.1615
X4.2637Y-3.2952
X4.2637Y-4.7363
X4.2637Y-4.87
X4.2913Y-3.2283
X4.2913Y-4.8031
X5.6772Y-3.2283
X5.6772Y-4.8031
X5.7048Y-3.1615
X5.7048Y-3.2952
X5.7048Y-4.7363
X5.7048Y-4.87
X5.7717Y-3.1339
X5.7717Y-3.3228
X5.7717Y-4.7087
X5.7717Y-4.8976
X5.8385Y-3.1615
X5.8385Y-3.2952
X5.8385Y-4.7363
X5.8385Y-4.87
X5.8661Y-3.2283
X5.8661Y-4.8031
T3
X4.4389Y-4.8191
X4.5389Y-4.7191
X4.6389Y-4.8191
T4
X4.2009Y-3.9651
X4.2009Y-4.0651
X5.1489Y-3.2331
X5.2489Y-3.2331
X5.7709Y-3.8651
X5.7709Y-3.9651
X5.7709Y-4.0651
X5.7709Y-4.1651
T5
X4.1969Y-3.2283
X4.1969Y-4.8031
X5.7717Y-3.2283
X5.7717Y-4.8031
T6
X4.6522Y-3.2151
X4.8255Y-3.2151
X4.849Y-4.9111
X5.1167Y-4.9111
T0
M30
