G04 #@! TF.GenerationSoftware,KiCad,Pcbnew,(5.1.9)-1*
G04 #@! TF.CreationDate,2021-05-06T17:03:27+01:00*
G04 #@! TF.ProjectId,Little Logic Computer - Power+Timing,4c697474-6c65-4204-9c6f-67696320436f,2.0*
G04 #@! TF.SameCoordinates,Original*
G04 #@! TF.FileFunction,Copper,L2,Bot*
G04 #@! TF.FilePolarity,Positive*
%FSLAX46Y46*%
G04 Gerber Fmt 4.6, Leading zero omitted, Abs format (unit mm)*
G04 Created by KiCad (PCBNEW (5.1.9)-1) date 2021-05-06 17:03:27*
%MOMM*%
%LPD*%
G01*
G04 APERTURE LIST*
G04 #@! TA.AperFunction,ComponentPad*
%ADD10C,0.800000*%
G04 #@! TD*
G04 #@! TA.AperFunction,ComponentPad*
%ADD11C,6.400000*%
G04 #@! TD*
G04 #@! TA.AperFunction,ComponentPad*
%ADD12C,1.260000*%
G04 #@! TD*
G04 #@! TA.AperFunction,ComponentPad*
%ADD13O,1.700000X1.700000*%
G04 #@! TD*
G04 #@! TA.AperFunction,ComponentPad*
%ADD14R,1.700000X1.700000*%
G04 #@! TD*
G04 #@! TA.AperFunction,ViaPad*
%ADD15C,0.800000*%
G04 #@! TD*
G04 #@! TA.AperFunction,Conductor*
%ADD16C,0.250000*%
G04 #@! TD*
G04 #@! TA.AperFunction,Conductor*
%ADD17C,0.254000*%
G04 #@! TD*
G04 #@! TA.AperFunction,Conductor*
%ADD18C,0.100000*%
G04 #@! TD*
G04 APERTURE END LIST*
D10*
X148297056Y-80302944D03*
X146600000Y-79600000D03*
X144902944Y-80302944D03*
X144200000Y-82000000D03*
X144902944Y-83697056D03*
X146600000Y-84400000D03*
X148297056Y-83697056D03*
X149000000Y-82000000D03*
D11*
X146600000Y-82000000D03*
D10*
X148297056Y-120302944D03*
X146600000Y-119600000D03*
X144902944Y-120302944D03*
X144200000Y-122000000D03*
X144902944Y-123697056D03*
X146600000Y-124400000D03*
X148297056Y-123697056D03*
X149000000Y-122000000D03*
D11*
X146600000Y-122000000D03*
D10*
X108297056Y-120302944D03*
X106600000Y-119600000D03*
X104902944Y-120302944D03*
X104200000Y-122000000D03*
X104902944Y-123697056D03*
X106600000Y-124400000D03*
X108297056Y-123697056D03*
X109000000Y-122000000D03*
D11*
X106600000Y-122000000D03*
D12*
X112746800Y-122406400D03*
X115286800Y-119866400D03*
X117826800Y-122406400D03*
D13*
X146579600Y-98174800D03*
X146579600Y-100714800D03*
X146579600Y-103254800D03*
D14*
X146579600Y-105794800D03*
D13*
X106701600Y-100714800D03*
D14*
X106701600Y-103254800D03*
D10*
X108297056Y-80302944D03*
X106600000Y-79600000D03*
X104902944Y-80302944D03*
X104200000Y-82000000D03*
X104902944Y-83697056D03*
X106600000Y-84400000D03*
X108297056Y-83697056D03*
X109000000Y-82000000D03*
D11*
X106600000Y-82000000D03*
D13*
X130780800Y-82122000D03*
D14*
X133320800Y-82122000D03*
D15*
X109800400Y-117428000D03*
X116607600Y-117428000D03*
X108682800Y-110570000D03*
X109394000Y-106506000D03*
X111121200Y-102797600D03*
X121941600Y-110634600D03*
X126564400Y-123879600D03*
X135200400Y-125657600D03*
X140128000Y-125657600D03*
X131136400Y-113414800D03*
X121840000Y-107064800D03*
X114016800Y-84255600D03*
X114067600Y-78769200D03*
X118792000Y-86897200D03*
X135302000Y-110570000D03*
X144446000Y-117377200D03*
X140686800Y-116208800D03*
X140737600Y-104169200D03*
X138604000Y-108030000D03*
X129206000Y-107166400D03*
X126412000Y-102086400D03*
X138400800Y-87913200D03*
X133422400Y-84814400D03*
X127275600Y-98987600D03*
X112289600Y-112043200D03*
X112289600Y-115802400D03*
X117826800Y-109909600D03*
X122703600Y-109909600D03*
X125904000Y-118407635D03*
X129002800Y-118393200D03*
X120062000Y-109909600D03*
X120062000Y-118393200D03*
X129053600Y-109909600D03*
X137537200Y-118393200D03*
X123618000Y-103762800D03*
X118842800Y-103762800D03*
X128240800Y-103762800D03*
X123567200Y-98682800D03*
X123567200Y-96193600D03*
X127021600Y-95076000D03*
X127021600Y-86897200D03*
X145817600Y-117428000D03*
X114524800Y-99800400D03*
X121060400Y-99868800D03*
X142972800Y-100308400D03*
X142972800Y-110214400D03*
X143328400Y-117428000D03*
X113102400Y-114583200D03*
X113102400Y-105998000D03*
X124583200Y-108741200D03*
X120874800Y-108741200D03*
X124075200Y-120120400D03*
X127326400Y-120120400D03*
X125345200Y-113313200D03*
X127326400Y-113313200D03*
X129053600Y-119612400D03*
X124231162Y-119132635D03*
X125497600Y-96193600D03*
X125497600Y-98733600D03*
D16*
X112289600Y-112043200D02*
X112289600Y-115802400D01*
X128988365Y-118407635D02*
X129002800Y-118393200D01*
X125904000Y-118407635D02*
X128988365Y-118407635D01*
X117826800Y-109909600D02*
X120062000Y-109909600D01*
X120062000Y-109909600D02*
X122703600Y-109909600D01*
X125889565Y-118393200D02*
X125904000Y-118407635D01*
X120062000Y-118393200D02*
X125889565Y-118393200D01*
X129053600Y-109909600D02*
X122703600Y-109909600D01*
X129002800Y-118393200D02*
X137537200Y-118393200D01*
X123618000Y-103762800D02*
X118842800Y-103762800D01*
X123618000Y-103762800D02*
X128240800Y-103762800D01*
X123567200Y-98682800D02*
X123567200Y-96193600D01*
X127021600Y-95076000D02*
X127021600Y-86897200D01*
X144852400Y-118393200D02*
X145817600Y-117428000D01*
X137537200Y-118393200D02*
X144852400Y-118393200D01*
X120992000Y-99800400D02*
X121060400Y-99868800D01*
X114524800Y-99800400D02*
X120992000Y-99800400D01*
X142972800Y-110214400D02*
X142972800Y-100308400D01*
X113102400Y-114583200D02*
X113102400Y-105998000D01*
X124583200Y-108741200D02*
X120874800Y-108741200D01*
X124075200Y-120120400D02*
X127326400Y-120120400D01*
X125345200Y-113313200D02*
X127326400Y-113313200D01*
X128573835Y-119132635D02*
X124231162Y-119132635D01*
X129053600Y-119612400D02*
X128573835Y-119132635D01*
X125497600Y-96193600D02*
X125497600Y-98733600D01*
D17*
X147368083Y-77731173D02*
X148111891Y-77934656D01*
X148807905Y-78266638D01*
X149434130Y-78716626D01*
X149970777Y-79270403D01*
X150400871Y-79910451D01*
X150710829Y-80616553D01*
X150892065Y-81371457D01*
X150940001Y-82024220D01*
X150940000Y-121970608D01*
X150868827Y-122768083D01*
X150665344Y-123511890D01*
X150333363Y-124207904D01*
X149883374Y-124834130D01*
X149329597Y-125370777D01*
X148689549Y-125800871D01*
X147983447Y-126110829D01*
X147228543Y-126292065D01*
X146575793Y-126340000D01*
X106629392Y-126340000D01*
X105831917Y-126268827D01*
X105088110Y-126065344D01*
X104392096Y-125733363D01*
X103765870Y-125283374D01*
X103229223Y-124729597D01*
X102799129Y-124089549D01*
X102489171Y-123383447D01*
X102307935Y-122628543D01*
X102260000Y-121975793D01*
X102260000Y-121622285D01*
X102765000Y-121622285D01*
X102765000Y-122377715D01*
X102912377Y-123118628D01*
X103201467Y-123816554D01*
X103621161Y-124444670D01*
X104155330Y-124978839D01*
X104783446Y-125398533D01*
X105481372Y-125687623D01*
X106222285Y-125835000D01*
X106977715Y-125835000D01*
X107718628Y-125687623D01*
X108416554Y-125398533D01*
X109044670Y-124978839D01*
X109387172Y-124636337D01*
X122079400Y-124636337D01*
X122079400Y-124850063D01*
X122121096Y-125059683D01*
X122202885Y-125257140D01*
X122321625Y-125434847D01*
X122472753Y-125585975D01*
X122650460Y-125704715D01*
X122847917Y-125786504D01*
X123057537Y-125828200D01*
X123271263Y-125828200D01*
X123480883Y-125786504D01*
X123678340Y-125704715D01*
X123856047Y-125585975D01*
X124007175Y-125434847D01*
X124125915Y-125257140D01*
X124207704Y-125059683D01*
X124249400Y-124850063D01*
X124249400Y-124636337D01*
X128879400Y-124636337D01*
X128879400Y-124850063D01*
X128921096Y-125059683D01*
X129002885Y-125257140D01*
X129121625Y-125434847D01*
X129272753Y-125585975D01*
X129450460Y-125704715D01*
X129647917Y-125786504D01*
X129857537Y-125828200D01*
X130071263Y-125828200D01*
X130280883Y-125786504D01*
X130478340Y-125704715D01*
X130656047Y-125585975D01*
X130807175Y-125434847D01*
X130925915Y-125257140D01*
X131007704Y-125059683D01*
X131049400Y-124850063D01*
X131049400Y-124636337D01*
X131007704Y-124426717D01*
X130925915Y-124229260D01*
X130807175Y-124051553D01*
X130656047Y-123900425D01*
X130478340Y-123781685D01*
X130280883Y-123699896D01*
X130071263Y-123658200D01*
X129857537Y-123658200D01*
X129647917Y-123699896D01*
X129450460Y-123781685D01*
X129272753Y-123900425D01*
X129121625Y-124051553D01*
X129002885Y-124229260D01*
X128921096Y-124426717D01*
X128879400Y-124636337D01*
X124249400Y-124636337D01*
X124207704Y-124426717D01*
X124125915Y-124229260D01*
X124007175Y-124051553D01*
X123856047Y-123900425D01*
X123678340Y-123781685D01*
X123480883Y-123699896D01*
X123271263Y-123658200D01*
X123057537Y-123658200D01*
X122847917Y-123699896D01*
X122650460Y-123781685D01*
X122472753Y-123900425D01*
X122321625Y-124051553D01*
X122202885Y-124229260D01*
X122121096Y-124426717D01*
X122079400Y-124636337D01*
X109387172Y-124636337D01*
X109578839Y-124444670D01*
X109998533Y-123816554D01*
X110287623Y-123118628D01*
X110435000Y-122377715D01*
X110435000Y-122281808D01*
X111481800Y-122281808D01*
X111481800Y-122530992D01*
X111530413Y-122775387D01*
X111625771Y-123005602D01*
X111764210Y-123212791D01*
X111940409Y-123388990D01*
X112147598Y-123527429D01*
X112377813Y-123622787D01*
X112622208Y-123671400D01*
X112871392Y-123671400D01*
X113115787Y-123622787D01*
X113346002Y-123527429D01*
X113553191Y-123388990D01*
X113729390Y-123212791D01*
X113867829Y-123005602D01*
X113963187Y-122775387D01*
X114011800Y-122530992D01*
X114011800Y-122281808D01*
X116561800Y-122281808D01*
X116561800Y-122530992D01*
X116610413Y-122775387D01*
X116705771Y-123005602D01*
X116844210Y-123212791D01*
X117020409Y-123388990D01*
X117227598Y-123527429D01*
X117457813Y-123622787D01*
X117702208Y-123671400D01*
X117951392Y-123671400D01*
X118195787Y-123622787D01*
X118426002Y-123527429D01*
X118633191Y-123388990D01*
X118809390Y-123212791D01*
X118947829Y-123005602D01*
X119043187Y-122775387D01*
X119091800Y-122530992D01*
X119091800Y-122281808D01*
X119043187Y-122037413D01*
X118947829Y-121807198D01*
X118809390Y-121600009D01*
X118633191Y-121423810D01*
X118426002Y-121285371D01*
X118195787Y-121190013D01*
X117951392Y-121141400D01*
X117702208Y-121141400D01*
X117457813Y-121190013D01*
X117227598Y-121285371D01*
X117020409Y-121423810D01*
X116844210Y-121600009D01*
X116705771Y-121807198D01*
X116610413Y-122037413D01*
X116561800Y-122281808D01*
X114011800Y-122281808D01*
X113963187Y-122037413D01*
X113867829Y-121807198D01*
X113729390Y-121600009D01*
X113553191Y-121423810D01*
X113346002Y-121285371D01*
X113115787Y-121190013D01*
X112871392Y-121141400D01*
X112622208Y-121141400D01*
X112377813Y-121190013D01*
X112147598Y-121285371D01*
X111940409Y-121423810D01*
X111764210Y-121600009D01*
X111625771Y-121807198D01*
X111530413Y-122037413D01*
X111481800Y-122281808D01*
X110435000Y-122281808D01*
X110435000Y-121622285D01*
X110287623Y-120881372D01*
X109998533Y-120183446D01*
X109703440Y-119741808D01*
X114021800Y-119741808D01*
X114021800Y-119990992D01*
X114070413Y-120235387D01*
X114165771Y-120465602D01*
X114304210Y-120672791D01*
X114480409Y-120848990D01*
X114687598Y-120987429D01*
X114917813Y-121082787D01*
X115162208Y-121131400D01*
X115411392Y-121131400D01*
X115655787Y-121082787D01*
X115886002Y-120987429D01*
X116093191Y-120848990D01*
X116269390Y-120672791D01*
X116407829Y-120465602D01*
X116503187Y-120235387D01*
X116551800Y-119990992D01*
X116551800Y-119741808D01*
X116503187Y-119497413D01*
X116407829Y-119267198D01*
X116269390Y-119060009D01*
X116093191Y-118883810D01*
X115886002Y-118745371D01*
X115655787Y-118650013D01*
X115411392Y-118601400D01*
X115162208Y-118601400D01*
X114917813Y-118650013D01*
X114687598Y-118745371D01*
X114480409Y-118883810D01*
X114304210Y-119060009D01*
X114165771Y-119267198D01*
X114070413Y-119497413D01*
X114021800Y-119741808D01*
X109703440Y-119741808D01*
X109578839Y-119555330D01*
X109044670Y-119021161D01*
X108416554Y-118601467D01*
X107718628Y-118312377D01*
X107612471Y-118291261D01*
X119027000Y-118291261D01*
X119027000Y-118495139D01*
X119066774Y-118695098D01*
X119144795Y-118883456D01*
X119258063Y-119052974D01*
X119402226Y-119197137D01*
X119571744Y-119310405D01*
X119760102Y-119388426D01*
X119960061Y-119428200D01*
X120163939Y-119428200D01*
X120363898Y-119388426D01*
X120552256Y-119310405D01*
X120721774Y-119197137D01*
X120765711Y-119153200D01*
X123196162Y-119153200D01*
X123196162Y-119234574D01*
X123235936Y-119434533D01*
X123256127Y-119483278D01*
X123157995Y-119630144D01*
X123079974Y-119818502D01*
X123040200Y-120018461D01*
X123040200Y-120222339D01*
X123079974Y-120422298D01*
X123157995Y-120610656D01*
X123271263Y-120780174D01*
X123415426Y-120924337D01*
X123584944Y-121037605D01*
X123773302Y-121115626D01*
X123973261Y-121155400D01*
X124177139Y-121155400D01*
X124377098Y-121115626D01*
X124565456Y-121037605D01*
X124734974Y-120924337D01*
X124778911Y-120880400D01*
X126622689Y-120880400D01*
X126666626Y-120924337D01*
X126836144Y-121037605D01*
X127024502Y-121115626D01*
X127224461Y-121155400D01*
X127428339Y-121155400D01*
X127628298Y-121115626D01*
X127816656Y-121037605D01*
X127986174Y-120924337D01*
X128130337Y-120780174D01*
X128243605Y-120610656D01*
X128321626Y-120422298D01*
X128334594Y-120357105D01*
X128393826Y-120416337D01*
X128563344Y-120529605D01*
X128751702Y-120607626D01*
X128951661Y-120647400D01*
X129155539Y-120647400D01*
X129355498Y-120607626D01*
X129543856Y-120529605D01*
X129713374Y-120416337D01*
X129857537Y-120272174D01*
X129970805Y-120102656D01*
X130048826Y-119914298D01*
X130088600Y-119714339D01*
X130088600Y-119510461D01*
X130048826Y-119310502D01*
X129983669Y-119153200D01*
X136833489Y-119153200D01*
X136877426Y-119197137D01*
X137046944Y-119310405D01*
X137235302Y-119388426D01*
X137435261Y-119428200D01*
X137639139Y-119428200D01*
X137839098Y-119388426D01*
X138027456Y-119310405D01*
X138196974Y-119197137D01*
X138240911Y-119153200D01*
X144023291Y-119153200D01*
X143621161Y-119555330D01*
X143201467Y-120183446D01*
X142912377Y-120881372D01*
X142765000Y-121622285D01*
X142765000Y-122377715D01*
X142912377Y-123118628D01*
X143201467Y-123816554D01*
X143621161Y-124444670D01*
X144155330Y-124978839D01*
X144783446Y-125398533D01*
X145481372Y-125687623D01*
X146222285Y-125835000D01*
X146977715Y-125835000D01*
X147718628Y-125687623D01*
X148416554Y-125398533D01*
X149044670Y-124978839D01*
X149578839Y-124444670D01*
X149998533Y-123816554D01*
X150287623Y-123118628D01*
X150435000Y-122377715D01*
X150435000Y-121622285D01*
X150287623Y-120881372D01*
X149998533Y-120183446D01*
X149578839Y-119555330D01*
X149044670Y-119021161D01*
X148416554Y-118601467D01*
X147718628Y-118312377D01*
X146977715Y-118165000D01*
X146544311Y-118165000D01*
X146621537Y-118087774D01*
X146734805Y-117918256D01*
X146812826Y-117729898D01*
X146852600Y-117529939D01*
X146852600Y-117326061D01*
X146812826Y-117126102D01*
X146734805Y-116937744D01*
X146621537Y-116768226D01*
X146477374Y-116624063D01*
X146307856Y-116510795D01*
X146119498Y-116432774D01*
X145919539Y-116393000D01*
X145715661Y-116393000D01*
X145515702Y-116432774D01*
X145327344Y-116510795D01*
X145157826Y-116624063D01*
X145013663Y-116768226D01*
X144900395Y-116937744D01*
X144822374Y-117126102D01*
X144782600Y-117326061D01*
X144782600Y-117388199D01*
X144537599Y-117633200D01*
X144342860Y-117633200D01*
X144363400Y-117529939D01*
X144363400Y-117326061D01*
X144323626Y-117126102D01*
X144245605Y-116937744D01*
X144132337Y-116768226D01*
X143988174Y-116624063D01*
X143818656Y-116510795D01*
X143630298Y-116432774D01*
X143430339Y-116393000D01*
X143226461Y-116393000D01*
X143026502Y-116432774D01*
X142838144Y-116510795D01*
X142668626Y-116624063D01*
X142524463Y-116768226D01*
X142411195Y-116937744D01*
X142333174Y-117126102D01*
X142293400Y-117326061D01*
X142293400Y-117529939D01*
X142313940Y-117633200D01*
X138240911Y-117633200D01*
X138196974Y-117589263D01*
X138027456Y-117475995D01*
X137839098Y-117397974D01*
X137639139Y-117358200D01*
X137435261Y-117358200D01*
X137235302Y-117397974D01*
X137046944Y-117475995D01*
X136877426Y-117589263D01*
X136833489Y-117633200D01*
X129706511Y-117633200D01*
X129662574Y-117589263D01*
X129493056Y-117475995D01*
X129304698Y-117397974D01*
X129104739Y-117358200D01*
X128900861Y-117358200D01*
X128700902Y-117397974D01*
X128512544Y-117475995D01*
X128343026Y-117589263D01*
X128284654Y-117647635D01*
X126607711Y-117647635D01*
X126563774Y-117603698D01*
X126394256Y-117490430D01*
X126205898Y-117412409D01*
X126005939Y-117372635D01*
X125802061Y-117372635D01*
X125602102Y-117412409D01*
X125413744Y-117490430D01*
X125244226Y-117603698D01*
X125214724Y-117633200D01*
X120765711Y-117633200D01*
X120721774Y-117589263D01*
X120552256Y-117475995D01*
X120363898Y-117397974D01*
X120163939Y-117358200D01*
X119960061Y-117358200D01*
X119760102Y-117397974D01*
X119571744Y-117475995D01*
X119402226Y-117589263D01*
X119258063Y-117733426D01*
X119144795Y-117902944D01*
X119066774Y-118091302D01*
X119027000Y-118291261D01*
X107612471Y-118291261D01*
X106977715Y-118165000D01*
X106222285Y-118165000D01*
X105481372Y-118312377D01*
X104783446Y-118601467D01*
X104155330Y-119021161D01*
X103621161Y-119555330D01*
X103201467Y-120183446D01*
X102912377Y-120881372D01*
X102765000Y-121622285D01*
X102260000Y-121622285D01*
X102260000Y-111941261D01*
X111254600Y-111941261D01*
X111254600Y-112145139D01*
X111294374Y-112345098D01*
X111372395Y-112533456D01*
X111485663Y-112702974D01*
X111529600Y-112746911D01*
X111529601Y-115098688D01*
X111485663Y-115142626D01*
X111372395Y-115312144D01*
X111294374Y-115500502D01*
X111254600Y-115700461D01*
X111254600Y-115904339D01*
X111294374Y-116104298D01*
X111372395Y-116292656D01*
X111485663Y-116462174D01*
X111629826Y-116606337D01*
X111799344Y-116719605D01*
X111987702Y-116797626D01*
X112187661Y-116837400D01*
X112391539Y-116837400D01*
X112591498Y-116797626D01*
X112779856Y-116719605D01*
X112949374Y-116606337D01*
X113093537Y-116462174D01*
X113206805Y-116292656D01*
X113284826Y-116104298D01*
X113324600Y-115904339D01*
X113324600Y-115700461D01*
X113304283Y-115598320D01*
X113404298Y-115578426D01*
X113592656Y-115500405D01*
X113762174Y-115387137D01*
X113906337Y-115242974D01*
X114019605Y-115073456D01*
X114097626Y-114885098D01*
X114137400Y-114685139D01*
X114137400Y-114481261D01*
X114097626Y-114281302D01*
X114019605Y-114092944D01*
X113906337Y-113923426D01*
X113862400Y-113879489D01*
X113862400Y-113211261D01*
X124310200Y-113211261D01*
X124310200Y-113415139D01*
X124349974Y-113615098D01*
X124427995Y-113803456D01*
X124541263Y-113972974D01*
X124685426Y-114117137D01*
X124854944Y-114230405D01*
X125043302Y-114308426D01*
X125243261Y-114348200D01*
X125447139Y-114348200D01*
X125647098Y-114308426D01*
X125835456Y-114230405D01*
X126004974Y-114117137D01*
X126048911Y-114073200D01*
X126622689Y-114073200D01*
X126666626Y-114117137D01*
X126836144Y-114230405D01*
X127024502Y-114308426D01*
X127224461Y-114348200D01*
X127428339Y-114348200D01*
X127628298Y-114308426D01*
X127816656Y-114230405D01*
X127986174Y-114117137D01*
X128130337Y-113972974D01*
X128243605Y-113803456D01*
X128321626Y-113615098D01*
X128361400Y-113415139D01*
X128361400Y-113211261D01*
X128321626Y-113011302D01*
X128243605Y-112822944D01*
X128130337Y-112653426D01*
X127986174Y-112509263D01*
X127816656Y-112395995D01*
X127628298Y-112317974D01*
X127428339Y-112278200D01*
X127224461Y-112278200D01*
X127024502Y-112317974D01*
X126836144Y-112395995D01*
X126666626Y-112509263D01*
X126622689Y-112553200D01*
X126048911Y-112553200D01*
X126004974Y-112509263D01*
X125835456Y-112395995D01*
X125647098Y-112317974D01*
X125447139Y-112278200D01*
X125243261Y-112278200D01*
X125043302Y-112317974D01*
X124854944Y-112395995D01*
X124685426Y-112509263D01*
X124541263Y-112653426D01*
X124427995Y-112822944D01*
X124349974Y-113011302D01*
X124310200Y-113211261D01*
X113862400Y-113211261D01*
X113862400Y-109807661D01*
X116791800Y-109807661D01*
X116791800Y-110011539D01*
X116831574Y-110211498D01*
X116909595Y-110399856D01*
X117022863Y-110569374D01*
X117167026Y-110713537D01*
X117336544Y-110826805D01*
X117524902Y-110904826D01*
X117724861Y-110944600D01*
X117928739Y-110944600D01*
X118128698Y-110904826D01*
X118317056Y-110826805D01*
X118486574Y-110713537D01*
X118530511Y-110669600D01*
X119358289Y-110669600D01*
X119402226Y-110713537D01*
X119571744Y-110826805D01*
X119760102Y-110904826D01*
X119960061Y-110944600D01*
X120163939Y-110944600D01*
X120363898Y-110904826D01*
X120552256Y-110826805D01*
X120721774Y-110713537D01*
X120765711Y-110669600D01*
X121999889Y-110669600D01*
X122043826Y-110713537D01*
X122213344Y-110826805D01*
X122401702Y-110904826D01*
X122601661Y-110944600D01*
X122805539Y-110944600D01*
X123005498Y-110904826D01*
X123193856Y-110826805D01*
X123363374Y-110713537D01*
X123407311Y-110669600D01*
X128349889Y-110669600D01*
X128393826Y-110713537D01*
X128563344Y-110826805D01*
X128751702Y-110904826D01*
X128951661Y-110944600D01*
X129155539Y-110944600D01*
X129355498Y-110904826D01*
X129543856Y-110826805D01*
X129713374Y-110713537D01*
X129857537Y-110569374D01*
X129970805Y-110399856D01*
X130048826Y-110211498D01*
X130088600Y-110011539D01*
X130088600Y-109807661D01*
X130048826Y-109607702D01*
X129970805Y-109419344D01*
X129857537Y-109249826D01*
X129713374Y-109105663D01*
X129543856Y-108992395D01*
X129355498Y-108914374D01*
X129155539Y-108874600D01*
X128951661Y-108874600D01*
X128751702Y-108914374D01*
X128563344Y-108992395D01*
X128393826Y-109105663D01*
X128349889Y-109149600D01*
X125534311Y-109149600D01*
X125578426Y-109043098D01*
X125618200Y-108843139D01*
X125618200Y-108639261D01*
X125578426Y-108439302D01*
X125500405Y-108250944D01*
X125387137Y-108081426D01*
X125242974Y-107937263D01*
X125073456Y-107823995D01*
X124885098Y-107745974D01*
X124685139Y-107706200D01*
X124481261Y-107706200D01*
X124281302Y-107745974D01*
X124092944Y-107823995D01*
X123923426Y-107937263D01*
X123879489Y-107981200D01*
X121578511Y-107981200D01*
X121534574Y-107937263D01*
X121365056Y-107823995D01*
X121176698Y-107745974D01*
X120976739Y-107706200D01*
X120772861Y-107706200D01*
X120572902Y-107745974D01*
X120384544Y-107823995D01*
X120215026Y-107937263D01*
X120070863Y-108081426D01*
X119957595Y-108250944D01*
X119879574Y-108439302D01*
X119839800Y-108639261D01*
X119839800Y-108843139D01*
X119850397Y-108896413D01*
X119760102Y-108914374D01*
X119571744Y-108992395D01*
X119402226Y-109105663D01*
X119358289Y-109149600D01*
X118530511Y-109149600D01*
X118486574Y-109105663D01*
X118317056Y-108992395D01*
X118128698Y-108914374D01*
X117928739Y-108874600D01*
X117724861Y-108874600D01*
X117524902Y-108914374D01*
X117336544Y-108992395D01*
X117167026Y-109105663D01*
X117022863Y-109249826D01*
X116909595Y-109419344D01*
X116831574Y-109607702D01*
X116791800Y-109807661D01*
X113862400Y-109807661D01*
X113862400Y-106701711D01*
X113906337Y-106657774D01*
X114019605Y-106488256D01*
X114097626Y-106299898D01*
X114137400Y-106099939D01*
X114137400Y-105896061D01*
X114097626Y-105696102D01*
X114019605Y-105507744D01*
X113906337Y-105338226D01*
X113762174Y-105194063D01*
X113592656Y-105080795D01*
X113404298Y-105002774D01*
X113204339Y-104963000D01*
X113000461Y-104963000D01*
X112800502Y-105002774D01*
X112612144Y-105080795D01*
X112442626Y-105194063D01*
X112298463Y-105338226D01*
X112185195Y-105507744D01*
X112107174Y-105696102D01*
X112067400Y-105896061D01*
X112067400Y-106099939D01*
X112107174Y-106299898D01*
X112185195Y-106488256D01*
X112298463Y-106657774D01*
X112342401Y-106701712D01*
X112342400Y-111008200D01*
X112187661Y-111008200D01*
X111987702Y-111047974D01*
X111799344Y-111125995D01*
X111629826Y-111239263D01*
X111485663Y-111383426D01*
X111372395Y-111552944D01*
X111294374Y-111741302D01*
X111254600Y-111941261D01*
X102260000Y-111941261D01*
X102260000Y-104104800D01*
X105213528Y-104104800D01*
X105225788Y-104229282D01*
X105262098Y-104348980D01*
X105321063Y-104459294D01*
X105400415Y-104555985D01*
X105497106Y-104635337D01*
X105607420Y-104694302D01*
X105727118Y-104730612D01*
X105851600Y-104742872D01*
X106415850Y-104739800D01*
X106574600Y-104581050D01*
X106574600Y-103381800D01*
X106828600Y-103381800D01*
X106828600Y-104581050D01*
X106987350Y-104739800D01*
X107551600Y-104742872D01*
X107676082Y-104730612D01*
X107795780Y-104694302D01*
X107906094Y-104635337D01*
X108002785Y-104555985D01*
X108082137Y-104459294D01*
X108141102Y-104348980D01*
X108177412Y-104229282D01*
X108189672Y-104104800D01*
X108187256Y-103660861D01*
X117807800Y-103660861D01*
X117807800Y-103864739D01*
X117847574Y-104064698D01*
X117925595Y-104253056D01*
X118038863Y-104422574D01*
X118183026Y-104566737D01*
X118352544Y-104680005D01*
X118540902Y-104758026D01*
X118740861Y-104797800D01*
X118944739Y-104797800D01*
X119144698Y-104758026D01*
X119333056Y-104680005D01*
X119502574Y-104566737D01*
X119546511Y-104522800D01*
X122914289Y-104522800D01*
X122958226Y-104566737D01*
X123127744Y-104680005D01*
X123316102Y-104758026D01*
X123516061Y-104797800D01*
X123719939Y-104797800D01*
X123919898Y-104758026D01*
X124108256Y-104680005D01*
X124277774Y-104566737D01*
X124321711Y-104522800D01*
X127537089Y-104522800D01*
X127581026Y-104566737D01*
X127750544Y-104680005D01*
X127938902Y-104758026D01*
X128138861Y-104797800D01*
X128342739Y-104797800D01*
X128542698Y-104758026D01*
X128731056Y-104680005D01*
X128900574Y-104566737D01*
X129044737Y-104422574D01*
X129158005Y-104253056D01*
X129236026Y-104064698D01*
X129275800Y-103864739D01*
X129275800Y-103660861D01*
X129236026Y-103460902D01*
X129158005Y-103272544D01*
X129044737Y-103103026D01*
X128900574Y-102958863D01*
X128731056Y-102845595D01*
X128542698Y-102767574D01*
X128342739Y-102727800D01*
X128138861Y-102727800D01*
X127938902Y-102767574D01*
X127750544Y-102845595D01*
X127581026Y-102958863D01*
X127537089Y-103002800D01*
X124321711Y-103002800D01*
X124277774Y-102958863D01*
X124108256Y-102845595D01*
X123919898Y-102767574D01*
X123719939Y-102727800D01*
X123516061Y-102727800D01*
X123316102Y-102767574D01*
X123127744Y-102845595D01*
X122958226Y-102958863D01*
X122914289Y-103002800D01*
X119546511Y-103002800D01*
X119502574Y-102958863D01*
X119333056Y-102845595D01*
X119144698Y-102767574D01*
X118944739Y-102727800D01*
X118740861Y-102727800D01*
X118540902Y-102767574D01*
X118352544Y-102845595D01*
X118183026Y-102958863D01*
X118038863Y-103103026D01*
X117925595Y-103272544D01*
X117847574Y-103460902D01*
X117807800Y-103660861D01*
X108187256Y-103660861D01*
X108186600Y-103540550D01*
X108027850Y-103381800D01*
X106828600Y-103381800D01*
X106574600Y-103381800D01*
X105375350Y-103381800D01*
X105216600Y-103540550D01*
X105213528Y-104104800D01*
X102260000Y-104104800D01*
X102260000Y-102404800D01*
X105213528Y-102404800D01*
X105216600Y-102969050D01*
X105375350Y-103127800D01*
X106574600Y-103127800D01*
X106574600Y-103107800D01*
X106828600Y-103107800D01*
X106828600Y-103127800D01*
X108027850Y-103127800D01*
X108186600Y-102969050D01*
X108189672Y-102404800D01*
X108177412Y-102280318D01*
X108141102Y-102160620D01*
X108082137Y-102050306D01*
X108002785Y-101953615D01*
X107906094Y-101874263D01*
X107795780Y-101815298D01*
X107723220Y-101793287D01*
X107855075Y-101661432D01*
X108017590Y-101418211D01*
X108129532Y-101147958D01*
X108186600Y-100861060D01*
X108186600Y-100568540D01*
X108129532Y-100281642D01*
X108017590Y-100011389D01*
X107855075Y-99768168D01*
X107785368Y-99698461D01*
X113489800Y-99698461D01*
X113489800Y-99902339D01*
X113529574Y-100102298D01*
X113607595Y-100290656D01*
X113720863Y-100460174D01*
X113865026Y-100604337D01*
X114034544Y-100717605D01*
X114222902Y-100795626D01*
X114422861Y-100835400D01*
X114626739Y-100835400D01*
X114826698Y-100795626D01*
X115015056Y-100717605D01*
X115184574Y-100604337D01*
X115228511Y-100560400D01*
X120288289Y-100560400D01*
X120400626Y-100672737D01*
X120570144Y-100786005D01*
X120758502Y-100864026D01*
X120958461Y-100903800D01*
X121162339Y-100903800D01*
X121362298Y-100864026D01*
X121550656Y-100786005D01*
X121720174Y-100672737D01*
X121864337Y-100528574D01*
X121977605Y-100359056D01*
X122040812Y-100206461D01*
X141937800Y-100206461D01*
X141937800Y-100410339D01*
X141977574Y-100610298D01*
X142055595Y-100798656D01*
X142168863Y-100968174D01*
X142212801Y-101012112D01*
X142212800Y-109510689D01*
X142168863Y-109554626D01*
X142055595Y-109724144D01*
X141977574Y-109912502D01*
X141937800Y-110112461D01*
X141937800Y-110316339D01*
X141977574Y-110516298D01*
X142055595Y-110704656D01*
X142168863Y-110874174D01*
X142313026Y-111018337D01*
X142482544Y-111131605D01*
X142670902Y-111209626D01*
X142870861Y-111249400D01*
X143074739Y-111249400D01*
X143274698Y-111209626D01*
X143463056Y-111131605D01*
X143632574Y-111018337D01*
X143776737Y-110874174D01*
X143890005Y-110704656D01*
X143968026Y-110516298D01*
X144007800Y-110316339D01*
X144007800Y-110112461D01*
X143968026Y-109912502D01*
X143890005Y-109724144D01*
X143776737Y-109554626D01*
X143732800Y-109510689D01*
X143732800Y-106644800D01*
X145091528Y-106644800D01*
X145103788Y-106769282D01*
X145140098Y-106888980D01*
X145199063Y-106999294D01*
X145278415Y-107095985D01*
X145375106Y-107175337D01*
X145485420Y-107234302D01*
X145605118Y-107270612D01*
X145729600Y-107282872D01*
X146293850Y-107279800D01*
X146452600Y-107121050D01*
X146452600Y-105921800D01*
X146706600Y-105921800D01*
X146706600Y-107121050D01*
X146865350Y-107279800D01*
X147429600Y-107282872D01*
X147554082Y-107270612D01*
X147673780Y-107234302D01*
X147784094Y-107175337D01*
X147880785Y-107095985D01*
X147960137Y-106999294D01*
X148019102Y-106888980D01*
X148055412Y-106769282D01*
X148067672Y-106644800D01*
X148064600Y-106080550D01*
X147905850Y-105921800D01*
X146706600Y-105921800D01*
X146452600Y-105921800D01*
X145253350Y-105921800D01*
X145094600Y-106080550D01*
X145091528Y-106644800D01*
X143732800Y-106644800D01*
X143732800Y-104944800D01*
X145091528Y-104944800D01*
X145094600Y-105509050D01*
X145253350Y-105667800D01*
X146452600Y-105667800D01*
X146452600Y-105647800D01*
X146706600Y-105647800D01*
X146706600Y-105667800D01*
X147905850Y-105667800D01*
X148064600Y-105509050D01*
X148067672Y-104944800D01*
X148055412Y-104820318D01*
X148019102Y-104700620D01*
X147960137Y-104590306D01*
X147880785Y-104493615D01*
X147784094Y-104414263D01*
X147673780Y-104355298D01*
X147601220Y-104333287D01*
X147733075Y-104201432D01*
X147895590Y-103958211D01*
X148007532Y-103687958D01*
X148064600Y-103401060D01*
X148064600Y-103108540D01*
X148007532Y-102821642D01*
X147895590Y-102551389D01*
X147733075Y-102308168D01*
X147526232Y-102101325D01*
X147351840Y-101984800D01*
X147526232Y-101868275D01*
X147733075Y-101661432D01*
X147895590Y-101418211D01*
X148007532Y-101147958D01*
X148064600Y-100861060D01*
X148064600Y-100568540D01*
X148007532Y-100281642D01*
X147895590Y-100011389D01*
X147733075Y-99768168D01*
X147526232Y-99561325D01*
X147351840Y-99444800D01*
X147526232Y-99328275D01*
X147733075Y-99121432D01*
X147895590Y-98878211D01*
X148007532Y-98607958D01*
X148064600Y-98321060D01*
X148064600Y-98028540D01*
X148007532Y-97741642D01*
X147895590Y-97471389D01*
X147733075Y-97228168D01*
X147526232Y-97021325D01*
X147283011Y-96858810D01*
X147012758Y-96746868D01*
X146725860Y-96689800D01*
X146433340Y-96689800D01*
X146146442Y-96746868D01*
X145876189Y-96858810D01*
X145632968Y-97021325D01*
X145426125Y-97228168D01*
X145263610Y-97471389D01*
X145151668Y-97741642D01*
X145094600Y-98028540D01*
X145094600Y-98321060D01*
X145151668Y-98607958D01*
X145263610Y-98878211D01*
X145426125Y-99121432D01*
X145632968Y-99328275D01*
X145807360Y-99444800D01*
X145632968Y-99561325D01*
X145426125Y-99768168D01*
X145263610Y-100011389D01*
X145151668Y-100281642D01*
X145094600Y-100568540D01*
X145094600Y-100861060D01*
X145151668Y-101147958D01*
X145263610Y-101418211D01*
X145426125Y-101661432D01*
X145632968Y-101868275D01*
X145807360Y-101984800D01*
X145632968Y-102101325D01*
X145426125Y-102308168D01*
X145263610Y-102551389D01*
X145151668Y-102821642D01*
X145094600Y-103108540D01*
X145094600Y-103401060D01*
X145151668Y-103687958D01*
X145263610Y-103958211D01*
X145426125Y-104201432D01*
X145557980Y-104333287D01*
X145485420Y-104355298D01*
X145375106Y-104414263D01*
X145278415Y-104493615D01*
X145199063Y-104590306D01*
X145140098Y-104700620D01*
X145103788Y-104820318D01*
X145091528Y-104944800D01*
X143732800Y-104944800D01*
X143732800Y-101012111D01*
X143776737Y-100968174D01*
X143890005Y-100798656D01*
X143968026Y-100610298D01*
X144007800Y-100410339D01*
X144007800Y-100206461D01*
X143968026Y-100006502D01*
X143890005Y-99818144D01*
X143776737Y-99648626D01*
X143632574Y-99504463D01*
X143463056Y-99391195D01*
X143274698Y-99313174D01*
X143074739Y-99273400D01*
X142870861Y-99273400D01*
X142670902Y-99313174D01*
X142482544Y-99391195D01*
X142313026Y-99504463D01*
X142168863Y-99648626D01*
X142055595Y-99818144D01*
X141977574Y-100006502D01*
X141937800Y-100206461D01*
X122040812Y-100206461D01*
X122055626Y-100170698D01*
X122095400Y-99970739D01*
X122095400Y-99766861D01*
X122055626Y-99566902D01*
X121977605Y-99378544D01*
X121864337Y-99209026D01*
X121720174Y-99064863D01*
X121550656Y-98951595D01*
X121362298Y-98873574D01*
X121162339Y-98833800D01*
X120958461Y-98833800D01*
X120758502Y-98873574D01*
X120570144Y-98951595D01*
X120437238Y-99040400D01*
X115228511Y-99040400D01*
X115184574Y-98996463D01*
X115015056Y-98883195D01*
X114826698Y-98805174D01*
X114626739Y-98765400D01*
X114422861Y-98765400D01*
X114222902Y-98805174D01*
X114034544Y-98883195D01*
X113865026Y-98996463D01*
X113720863Y-99140626D01*
X113607595Y-99310144D01*
X113529574Y-99498502D01*
X113489800Y-99698461D01*
X107785368Y-99698461D01*
X107648232Y-99561325D01*
X107405011Y-99398810D01*
X107134758Y-99286868D01*
X106847860Y-99229800D01*
X106555340Y-99229800D01*
X106268442Y-99286868D01*
X105998189Y-99398810D01*
X105754968Y-99561325D01*
X105548125Y-99768168D01*
X105385610Y-100011389D01*
X105273668Y-100281642D01*
X105216600Y-100568540D01*
X105216600Y-100861060D01*
X105273668Y-101147958D01*
X105385610Y-101418211D01*
X105548125Y-101661432D01*
X105679980Y-101793287D01*
X105607420Y-101815298D01*
X105497106Y-101874263D01*
X105400415Y-101953615D01*
X105321063Y-102050306D01*
X105262098Y-102160620D01*
X105225788Y-102280318D01*
X105213528Y-102404800D01*
X102260000Y-102404800D01*
X102260000Y-96091661D01*
X122532200Y-96091661D01*
X122532200Y-96295539D01*
X122571974Y-96495498D01*
X122649995Y-96683856D01*
X122763263Y-96853374D01*
X122807201Y-96897312D01*
X122807200Y-97979089D01*
X122763263Y-98023026D01*
X122649995Y-98192544D01*
X122571974Y-98380902D01*
X122532200Y-98580861D01*
X122532200Y-98784739D01*
X122571974Y-98984698D01*
X122649995Y-99173056D01*
X122763263Y-99342574D01*
X122907426Y-99486737D01*
X123076944Y-99600005D01*
X123265302Y-99678026D01*
X123465261Y-99717800D01*
X123669139Y-99717800D01*
X123869098Y-99678026D01*
X124057456Y-99600005D01*
X124226974Y-99486737D01*
X124371137Y-99342574D01*
X124484405Y-99173056D01*
X124521879Y-99082587D01*
X124580395Y-99223856D01*
X124693663Y-99393374D01*
X124837826Y-99537537D01*
X125007344Y-99650805D01*
X125195702Y-99728826D01*
X125395661Y-99768600D01*
X125599539Y-99768600D01*
X125799498Y-99728826D01*
X125987856Y-99650805D01*
X126157374Y-99537537D01*
X126301537Y-99393374D01*
X126414805Y-99223856D01*
X126492826Y-99035498D01*
X126532600Y-98835539D01*
X126532600Y-98631661D01*
X126492826Y-98431702D01*
X126414805Y-98243344D01*
X126301537Y-98073826D01*
X126257600Y-98029889D01*
X126257600Y-96897311D01*
X126301537Y-96853374D01*
X126414805Y-96683856D01*
X126492826Y-96495498D01*
X126532600Y-96295539D01*
X126532600Y-96091661D01*
X126510207Y-95979082D01*
X126531344Y-95993205D01*
X126719702Y-96071226D01*
X126919661Y-96111000D01*
X127123539Y-96111000D01*
X127323498Y-96071226D01*
X127511856Y-95993205D01*
X127681374Y-95879937D01*
X127825537Y-95735774D01*
X127938805Y-95566256D01*
X128016826Y-95377898D01*
X128056600Y-95177939D01*
X128056600Y-94974061D01*
X128016826Y-94774102D01*
X127938805Y-94585744D01*
X127825537Y-94416226D01*
X127781600Y-94372289D01*
X127781600Y-87600911D01*
X127825537Y-87556974D01*
X127938805Y-87387456D01*
X128016826Y-87199098D01*
X128056600Y-86999139D01*
X128056600Y-86795261D01*
X128016826Y-86595302D01*
X127938805Y-86406944D01*
X127825537Y-86237426D01*
X127681374Y-86093263D01*
X127511856Y-85979995D01*
X127323498Y-85901974D01*
X127123539Y-85862200D01*
X126919661Y-85862200D01*
X126719702Y-85901974D01*
X126531344Y-85979995D01*
X126361826Y-86093263D01*
X126217663Y-86237426D01*
X126104395Y-86406944D01*
X126026374Y-86595302D01*
X125986600Y-86795261D01*
X125986600Y-86999139D01*
X126026374Y-87199098D01*
X126104395Y-87387456D01*
X126217663Y-87556974D01*
X126261601Y-87600912D01*
X126261600Y-94372289D01*
X126217663Y-94416226D01*
X126104395Y-94585744D01*
X126026374Y-94774102D01*
X125986600Y-94974061D01*
X125986600Y-95177939D01*
X126008993Y-95290518D01*
X125987856Y-95276395D01*
X125799498Y-95198374D01*
X125599539Y-95158600D01*
X125395661Y-95158600D01*
X125195702Y-95198374D01*
X125007344Y-95276395D01*
X124837826Y-95389663D01*
X124693663Y-95533826D01*
X124580395Y-95703344D01*
X124532400Y-95819213D01*
X124484405Y-95703344D01*
X124371137Y-95533826D01*
X124226974Y-95389663D01*
X124057456Y-95276395D01*
X123869098Y-95198374D01*
X123669139Y-95158600D01*
X123465261Y-95158600D01*
X123265302Y-95198374D01*
X123076944Y-95276395D01*
X122907426Y-95389663D01*
X122763263Y-95533826D01*
X122649995Y-95703344D01*
X122571974Y-95891702D01*
X122532200Y-96091661D01*
X102260000Y-96091661D01*
X102260000Y-82029392D01*
X102296333Y-81622285D01*
X102765000Y-81622285D01*
X102765000Y-82377715D01*
X102912377Y-83118628D01*
X103201467Y-83816554D01*
X103621161Y-84444670D01*
X104155330Y-84978839D01*
X104783446Y-85398533D01*
X105481372Y-85687623D01*
X106222285Y-85835000D01*
X106977715Y-85835000D01*
X107718628Y-85687623D01*
X108416554Y-85398533D01*
X109044670Y-84978839D01*
X109578839Y-84444670D01*
X109998533Y-83816554D01*
X110287623Y-83118628D01*
X110435000Y-82377715D01*
X110435000Y-81622285D01*
X110422201Y-81557937D01*
X117081800Y-81557937D01*
X117081800Y-81771663D01*
X117123496Y-81981283D01*
X117205285Y-82178740D01*
X117324025Y-82356447D01*
X117475153Y-82507575D01*
X117652860Y-82626315D01*
X117850317Y-82708104D01*
X118059937Y-82749800D01*
X118273663Y-82749800D01*
X118483283Y-82708104D01*
X118680740Y-82626315D01*
X118858447Y-82507575D01*
X119009575Y-82356447D01*
X119128315Y-82178740D01*
X119210104Y-81981283D01*
X119251800Y-81771663D01*
X119251800Y-81557937D01*
X121481800Y-81557937D01*
X121481800Y-81771663D01*
X121523496Y-81981283D01*
X121605285Y-82178740D01*
X121724025Y-82356447D01*
X121875153Y-82507575D01*
X122052860Y-82626315D01*
X122250317Y-82708104D01*
X122459937Y-82749800D01*
X122673663Y-82749800D01*
X122883283Y-82708104D01*
X123080740Y-82626315D01*
X123258447Y-82507575D01*
X123409575Y-82356447D01*
X123528315Y-82178740D01*
X123610104Y-81981283D01*
X123611206Y-81975740D01*
X129295800Y-81975740D01*
X129295800Y-82268260D01*
X129352868Y-82555158D01*
X129464810Y-82825411D01*
X129627325Y-83068632D01*
X129834168Y-83275475D01*
X130077389Y-83437990D01*
X130347642Y-83549932D01*
X130634540Y-83607000D01*
X130927060Y-83607000D01*
X131213958Y-83549932D01*
X131484211Y-83437990D01*
X131727432Y-83275475D01*
X131859287Y-83143620D01*
X131881298Y-83216180D01*
X131940263Y-83326494D01*
X132019615Y-83423185D01*
X132116306Y-83502537D01*
X132226620Y-83561502D01*
X132346318Y-83597812D01*
X132470800Y-83610072D01*
X133035050Y-83607000D01*
X133193800Y-83448250D01*
X133193800Y-82249000D01*
X133447800Y-82249000D01*
X133447800Y-83448250D01*
X133606550Y-83607000D01*
X134170800Y-83610072D01*
X134295282Y-83597812D01*
X134414980Y-83561502D01*
X134525294Y-83502537D01*
X134621985Y-83423185D01*
X134701337Y-83326494D01*
X134760302Y-83216180D01*
X134796612Y-83096482D01*
X134808872Y-82972000D01*
X134805800Y-82407750D01*
X134647050Y-82249000D01*
X133447800Y-82249000D01*
X133193800Y-82249000D01*
X133173800Y-82249000D01*
X133173800Y-81995000D01*
X133193800Y-81995000D01*
X133193800Y-80795750D01*
X133447800Y-80795750D01*
X133447800Y-81995000D01*
X134647050Y-81995000D01*
X134805800Y-81836250D01*
X134806964Y-81622285D01*
X142765000Y-81622285D01*
X142765000Y-82377715D01*
X142912377Y-83118628D01*
X143201467Y-83816554D01*
X143621161Y-84444670D01*
X144155330Y-84978839D01*
X144783446Y-85398533D01*
X145481372Y-85687623D01*
X146222285Y-85835000D01*
X146977715Y-85835000D01*
X147718628Y-85687623D01*
X148416554Y-85398533D01*
X149044670Y-84978839D01*
X149578839Y-84444670D01*
X149998533Y-83816554D01*
X150287623Y-83118628D01*
X150435000Y-82377715D01*
X150435000Y-81622285D01*
X150287623Y-80881372D01*
X149998533Y-80183446D01*
X149578839Y-79555330D01*
X149044670Y-79021161D01*
X148416554Y-78601467D01*
X147718628Y-78312377D01*
X146977715Y-78165000D01*
X146222285Y-78165000D01*
X145481372Y-78312377D01*
X144783446Y-78601467D01*
X144155330Y-79021161D01*
X143621161Y-79555330D01*
X143201467Y-80183446D01*
X142912377Y-80881372D01*
X142765000Y-81622285D01*
X134806964Y-81622285D01*
X134808872Y-81272000D01*
X134796612Y-81147518D01*
X134760302Y-81027820D01*
X134701337Y-80917506D01*
X134621985Y-80820815D01*
X134525294Y-80741463D01*
X134414980Y-80682498D01*
X134295282Y-80646188D01*
X134170800Y-80633928D01*
X133606550Y-80637000D01*
X133447800Y-80795750D01*
X133193800Y-80795750D01*
X133035050Y-80637000D01*
X132470800Y-80633928D01*
X132346318Y-80646188D01*
X132226620Y-80682498D01*
X132116306Y-80741463D01*
X132019615Y-80820815D01*
X131940263Y-80917506D01*
X131881298Y-81027820D01*
X131859287Y-81100380D01*
X131727432Y-80968525D01*
X131484211Y-80806010D01*
X131213958Y-80694068D01*
X130927060Y-80637000D01*
X130634540Y-80637000D01*
X130347642Y-80694068D01*
X130077389Y-80806010D01*
X129834168Y-80968525D01*
X129627325Y-81175368D01*
X129464810Y-81418589D01*
X129352868Y-81688842D01*
X129295800Y-81975740D01*
X123611206Y-81975740D01*
X123651800Y-81771663D01*
X123651800Y-81557937D01*
X123610104Y-81348317D01*
X123528315Y-81150860D01*
X123409575Y-80973153D01*
X123258447Y-80822025D01*
X123080740Y-80703285D01*
X122883283Y-80621496D01*
X122673663Y-80579800D01*
X122459937Y-80579800D01*
X122250317Y-80621496D01*
X122052860Y-80703285D01*
X121875153Y-80822025D01*
X121724025Y-80973153D01*
X121605285Y-81150860D01*
X121523496Y-81348317D01*
X121481800Y-81557937D01*
X119251800Y-81557937D01*
X119210104Y-81348317D01*
X119128315Y-81150860D01*
X119009575Y-80973153D01*
X118858447Y-80822025D01*
X118680740Y-80703285D01*
X118483283Y-80621496D01*
X118273663Y-80579800D01*
X118059937Y-80579800D01*
X117850317Y-80621496D01*
X117652860Y-80703285D01*
X117475153Y-80822025D01*
X117324025Y-80973153D01*
X117205285Y-81150860D01*
X117123496Y-81348317D01*
X117081800Y-81557937D01*
X110422201Y-81557937D01*
X110287623Y-80881372D01*
X109998533Y-80183446D01*
X109578839Y-79555330D01*
X109044670Y-79021161D01*
X108416554Y-78601467D01*
X107718628Y-78312377D01*
X106977715Y-78165000D01*
X106222285Y-78165000D01*
X105481372Y-78312377D01*
X104783446Y-78601467D01*
X104155330Y-79021161D01*
X103621161Y-79555330D01*
X103201467Y-80183446D01*
X102912377Y-80881372D01*
X102765000Y-81622285D01*
X102296333Y-81622285D01*
X102331173Y-81231917D01*
X102534656Y-80488109D01*
X102866638Y-79792095D01*
X103316626Y-79165870D01*
X103870403Y-78629223D01*
X104510451Y-78199129D01*
X105216553Y-77889171D01*
X105971457Y-77707935D01*
X106624207Y-77660000D01*
X146570608Y-77660000D01*
X147368083Y-77731173D01*
G04 #@! TA.AperFunction,Conductor*
D18*
G36*
X147368083Y-77731173D02*
G01*
X148111891Y-77934656D01*
X148807905Y-78266638D01*
X149434130Y-78716626D01*
X149970777Y-79270403D01*
X150400871Y-79910451D01*
X150710829Y-80616553D01*
X150892065Y-81371457D01*
X150940001Y-82024220D01*
X150940000Y-121970608D01*
X150868827Y-122768083D01*
X150665344Y-123511890D01*
X150333363Y-124207904D01*
X149883374Y-124834130D01*
X149329597Y-125370777D01*
X148689549Y-125800871D01*
X147983447Y-126110829D01*
X147228543Y-126292065D01*
X146575793Y-126340000D01*
X106629392Y-126340000D01*
X105831917Y-126268827D01*
X105088110Y-126065344D01*
X104392096Y-125733363D01*
X103765870Y-125283374D01*
X103229223Y-124729597D01*
X102799129Y-124089549D01*
X102489171Y-123383447D01*
X102307935Y-122628543D01*
X102260000Y-121975793D01*
X102260000Y-121622285D01*
X102765000Y-121622285D01*
X102765000Y-122377715D01*
X102912377Y-123118628D01*
X103201467Y-123816554D01*
X103621161Y-124444670D01*
X104155330Y-124978839D01*
X104783446Y-125398533D01*
X105481372Y-125687623D01*
X106222285Y-125835000D01*
X106977715Y-125835000D01*
X107718628Y-125687623D01*
X108416554Y-125398533D01*
X109044670Y-124978839D01*
X109387172Y-124636337D01*
X122079400Y-124636337D01*
X122079400Y-124850063D01*
X122121096Y-125059683D01*
X122202885Y-125257140D01*
X122321625Y-125434847D01*
X122472753Y-125585975D01*
X122650460Y-125704715D01*
X122847917Y-125786504D01*
X123057537Y-125828200D01*
X123271263Y-125828200D01*
X123480883Y-125786504D01*
X123678340Y-125704715D01*
X123856047Y-125585975D01*
X124007175Y-125434847D01*
X124125915Y-125257140D01*
X124207704Y-125059683D01*
X124249400Y-124850063D01*
X124249400Y-124636337D01*
X128879400Y-124636337D01*
X128879400Y-124850063D01*
X128921096Y-125059683D01*
X129002885Y-125257140D01*
X129121625Y-125434847D01*
X129272753Y-125585975D01*
X129450460Y-125704715D01*
X129647917Y-125786504D01*
X129857537Y-125828200D01*
X130071263Y-125828200D01*
X130280883Y-125786504D01*
X130478340Y-125704715D01*
X130656047Y-125585975D01*
X130807175Y-125434847D01*
X130925915Y-125257140D01*
X131007704Y-125059683D01*
X131049400Y-124850063D01*
X131049400Y-124636337D01*
X131007704Y-124426717D01*
X130925915Y-124229260D01*
X130807175Y-124051553D01*
X130656047Y-123900425D01*
X130478340Y-123781685D01*
X130280883Y-123699896D01*
X130071263Y-123658200D01*
X129857537Y-123658200D01*
X129647917Y-123699896D01*
X129450460Y-123781685D01*
X129272753Y-123900425D01*
X129121625Y-124051553D01*
X129002885Y-124229260D01*
X128921096Y-124426717D01*
X128879400Y-124636337D01*
X124249400Y-124636337D01*
X124207704Y-124426717D01*
X124125915Y-124229260D01*
X124007175Y-124051553D01*
X123856047Y-123900425D01*
X123678340Y-123781685D01*
X123480883Y-123699896D01*
X123271263Y-123658200D01*
X123057537Y-123658200D01*
X122847917Y-123699896D01*
X122650460Y-123781685D01*
X122472753Y-123900425D01*
X122321625Y-124051553D01*
X122202885Y-124229260D01*
X122121096Y-124426717D01*
X122079400Y-124636337D01*
X109387172Y-124636337D01*
X109578839Y-124444670D01*
X109998533Y-123816554D01*
X110287623Y-123118628D01*
X110435000Y-122377715D01*
X110435000Y-122281808D01*
X111481800Y-122281808D01*
X111481800Y-122530992D01*
X111530413Y-122775387D01*
X111625771Y-123005602D01*
X111764210Y-123212791D01*
X111940409Y-123388990D01*
X112147598Y-123527429D01*
X112377813Y-123622787D01*
X112622208Y-123671400D01*
X112871392Y-123671400D01*
X113115787Y-123622787D01*
X113346002Y-123527429D01*
X113553191Y-123388990D01*
X113729390Y-123212791D01*
X113867829Y-123005602D01*
X113963187Y-122775387D01*
X114011800Y-122530992D01*
X114011800Y-122281808D01*
X116561800Y-122281808D01*
X116561800Y-122530992D01*
X116610413Y-122775387D01*
X116705771Y-123005602D01*
X116844210Y-123212791D01*
X117020409Y-123388990D01*
X117227598Y-123527429D01*
X117457813Y-123622787D01*
X117702208Y-123671400D01*
X117951392Y-123671400D01*
X118195787Y-123622787D01*
X118426002Y-123527429D01*
X118633191Y-123388990D01*
X118809390Y-123212791D01*
X118947829Y-123005602D01*
X119043187Y-122775387D01*
X119091800Y-122530992D01*
X119091800Y-122281808D01*
X119043187Y-122037413D01*
X118947829Y-121807198D01*
X118809390Y-121600009D01*
X118633191Y-121423810D01*
X118426002Y-121285371D01*
X118195787Y-121190013D01*
X117951392Y-121141400D01*
X117702208Y-121141400D01*
X117457813Y-121190013D01*
X117227598Y-121285371D01*
X117020409Y-121423810D01*
X116844210Y-121600009D01*
X116705771Y-121807198D01*
X116610413Y-122037413D01*
X116561800Y-122281808D01*
X114011800Y-122281808D01*
X113963187Y-122037413D01*
X113867829Y-121807198D01*
X113729390Y-121600009D01*
X113553191Y-121423810D01*
X113346002Y-121285371D01*
X113115787Y-121190013D01*
X112871392Y-121141400D01*
X112622208Y-121141400D01*
X112377813Y-121190013D01*
X112147598Y-121285371D01*
X111940409Y-121423810D01*
X111764210Y-121600009D01*
X111625771Y-121807198D01*
X111530413Y-122037413D01*
X111481800Y-122281808D01*
X110435000Y-122281808D01*
X110435000Y-121622285D01*
X110287623Y-120881372D01*
X109998533Y-120183446D01*
X109703440Y-119741808D01*
X114021800Y-119741808D01*
X114021800Y-119990992D01*
X114070413Y-120235387D01*
X114165771Y-120465602D01*
X114304210Y-120672791D01*
X114480409Y-120848990D01*
X114687598Y-120987429D01*
X114917813Y-121082787D01*
X115162208Y-121131400D01*
X115411392Y-121131400D01*
X115655787Y-121082787D01*
X115886002Y-120987429D01*
X116093191Y-120848990D01*
X116269390Y-120672791D01*
X116407829Y-120465602D01*
X116503187Y-120235387D01*
X116551800Y-119990992D01*
X116551800Y-119741808D01*
X116503187Y-119497413D01*
X116407829Y-119267198D01*
X116269390Y-119060009D01*
X116093191Y-118883810D01*
X115886002Y-118745371D01*
X115655787Y-118650013D01*
X115411392Y-118601400D01*
X115162208Y-118601400D01*
X114917813Y-118650013D01*
X114687598Y-118745371D01*
X114480409Y-118883810D01*
X114304210Y-119060009D01*
X114165771Y-119267198D01*
X114070413Y-119497413D01*
X114021800Y-119741808D01*
X109703440Y-119741808D01*
X109578839Y-119555330D01*
X109044670Y-119021161D01*
X108416554Y-118601467D01*
X107718628Y-118312377D01*
X107612471Y-118291261D01*
X119027000Y-118291261D01*
X119027000Y-118495139D01*
X119066774Y-118695098D01*
X119144795Y-118883456D01*
X119258063Y-119052974D01*
X119402226Y-119197137D01*
X119571744Y-119310405D01*
X119760102Y-119388426D01*
X119960061Y-119428200D01*
X120163939Y-119428200D01*
X120363898Y-119388426D01*
X120552256Y-119310405D01*
X120721774Y-119197137D01*
X120765711Y-119153200D01*
X123196162Y-119153200D01*
X123196162Y-119234574D01*
X123235936Y-119434533D01*
X123256127Y-119483278D01*
X123157995Y-119630144D01*
X123079974Y-119818502D01*
X123040200Y-120018461D01*
X123040200Y-120222339D01*
X123079974Y-120422298D01*
X123157995Y-120610656D01*
X123271263Y-120780174D01*
X123415426Y-120924337D01*
X123584944Y-121037605D01*
X123773302Y-121115626D01*
X123973261Y-121155400D01*
X124177139Y-121155400D01*
X124377098Y-121115626D01*
X124565456Y-121037605D01*
X124734974Y-120924337D01*
X124778911Y-120880400D01*
X126622689Y-120880400D01*
X126666626Y-120924337D01*
X126836144Y-121037605D01*
X127024502Y-121115626D01*
X127224461Y-121155400D01*
X127428339Y-121155400D01*
X127628298Y-121115626D01*
X127816656Y-121037605D01*
X127986174Y-120924337D01*
X128130337Y-120780174D01*
X128243605Y-120610656D01*
X128321626Y-120422298D01*
X128334594Y-120357105D01*
X128393826Y-120416337D01*
X128563344Y-120529605D01*
X128751702Y-120607626D01*
X128951661Y-120647400D01*
X129155539Y-120647400D01*
X129355498Y-120607626D01*
X129543856Y-120529605D01*
X129713374Y-120416337D01*
X129857537Y-120272174D01*
X129970805Y-120102656D01*
X130048826Y-119914298D01*
X130088600Y-119714339D01*
X130088600Y-119510461D01*
X130048826Y-119310502D01*
X129983669Y-119153200D01*
X136833489Y-119153200D01*
X136877426Y-119197137D01*
X137046944Y-119310405D01*
X137235302Y-119388426D01*
X137435261Y-119428200D01*
X137639139Y-119428200D01*
X137839098Y-119388426D01*
X138027456Y-119310405D01*
X138196974Y-119197137D01*
X138240911Y-119153200D01*
X144023291Y-119153200D01*
X143621161Y-119555330D01*
X143201467Y-120183446D01*
X142912377Y-120881372D01*
X142765000Y-121622285D01*
X142765000Y-122377715D01*
X142912377Y-123118628D01*
X143201467Y-123816554D01*
X143621161Y-124444670D01*
X144155330Y-124978839D01*
X144783446Y-125398533D01*
X145481372Y-125687623D01*
X146222285Y-125835000D01*
X146977715Y-125835000D01*
X147718628Y-125687623D01*
X148416554Y-125398533D01*
X149044670Y-124978839D01*
X149578839Y-124444670D01*
X149998533Y-123816554D01*
X150287623Y-123118628D01*
X150435000Y-122377715D01*
X150435000Y-121622285D01*
X150287623Y-120881372D01*
X149998533Y-120183446D01*
X149578839Y-119555330D01*
X149044670Y-119021161D01*
X148416554Y-118601467D01*
X147718628Y-118312377D01*
X146977715Y-118165000D01*
X146544311Y-118165000D01*
X146621537Y-118087774D01*
X146734805Y-117918256D01*
X146812826Y-117729898D01*
X146852600Y-117529939D01*
X146852600Y-117326061D01*
X146812826Y-117126102D01*
X146734805Y-116937744D01*
X146621537Y-116768226D01*
X146477374Y-116624063D01*
X146307856Y-116510795D01*
X146119498Y-116432774D01*
X145919539Y-116393000D01*
X145715661Y-116393000D01*
X145515702Y-116432774D01*
X145327344Y-116510795D01*
X145157826Y-116624063D01*
X145013663Y-116768226D01*
X144900395Y-116937744D01*
X144822374Y-117126102D01*
X144782600Y-117326061D01*
X144782600Y-117388199D01*
X144537599Y-117633200D01*
X144342860Y-117633200D01*
X144363400Y-117529939D01*
X144363400Y-117326061D01*
X144323626Y-117126102D01*
X144245605Y-116937744D01*
X144132337Y-116768226D01*
X143988174Y-116624063D01*
X143818656Y-116510795D01*
X143630298Y-116432774D01*
X143430339Y-116393000D01*
X143226461Y-116393000D01*
X143026502Y-116432774D01*
X142838144Y-116510795D01*
X142668626Y-116624063D01*
X142524463Y-116768226D01*
X142411195Y-116937744D01*
X142333174Y-117126102D01*
X142293400Y-117326061D01*
X142293400Y-117529939D01*
X142313940Y-117633200D01*
X138240911Y-117633200D01*
X138196974Y-117589263D01*
X138027456Y-117475995D01*
X137839098Y-117397974D01*
X137639139Y-117358200D01*
X137435261Y-117358200D01*
X137235302Y-117397974D01*
X137046944Y-117475995D01*
X136877426Y-117589263D01*
X136833489Y-117633200D01*
X129706511Y-117633200D01*
X129662574Y-117589263D01*
X129493056Y-117475995D01*
X129304698Y-117397974D01*
X129104739Y-117358200D01*
X128900861Y-117358200D01*
X128700902Y-117397974D01*
X128512544Y-117475995D01*
X128343026Y-117589263D01*
X128284654Y-117647635D01*
X126607711Y-117647635D01*
X126563774Y-117603698D01*
X126394256Y-117490430D01*
X126205898Y-117412409D01*
X126005939Y-117372635D01*
X125802061Y-117372635D01*
X125602102Y-117412409D01*
X125413744Y-117490430D01*
X125244226Y-117603698D01*
X125214724Y-117633200D01*
X120765711Y-117633200D01*
X120721774Y-117589263D01*
X120552256Y-117475995D01*
X120363898Y-117397974D01*
X120163939Y-117358200D01*
X119960061Y-117358200D01*
X119760102Y-117397974D01*
X119571744Y-117475995D01*
X119402226Y-117589263D01*
X119258063Y-117733426D01*
X119144795Y-117902944D01*
X119066774Y-118091302D01*
X119027000Y-118291261D01*
X107612471Y-118291261D01*
X106977715Y-118165000D01*
X106222285Y-118165000D01*
X105481372Y-118312377D01*
X104783446Y-118601467D01*
X104155330Y-119021161D01*
X103621161Y-119555330D01*
X103201467Y-120183446D01*
X102912377Y-120881372D01*
X102765000Y-121622285D01*
X102260000Y-121622285D01*
X102260000Y-111941261D01*
X111254600Y-111941261D01*
X111254600Y-112145139D01*
X111294374Y-112345098D01*
X111372395Y-112533456D01*
X111485663Y-112702974D01*
X111529600Y-112746911D01*
X111529601Y-115098688D01*
X111485663Y-115142626D01*
X111372395Y-115312144D01*
X111294374Y-115500502D01*
X111254600Y-115700461D01*
X111254600Y-115904339D01*
X111294374Y-116104298D01*
X111372395Y-116292656D01*
X111485663Y-116462174D01*
X111629826Y-116606337D01*
X111799344Y-116719605D01*
X111987702Y-116797626D01*
X112187661Y-116837400D01*
X112391539Y-116837400D01*
X112591498Y-116797626D01*
X112779856Y-116719605D01*
X112949374Y-116606337D01*
X113093537Y-116462174D01*
X113206805Y-116292656D01*
X113284826Y-116104298D01*
X113324600Y-115904339D01*
X113324600Y-115700461D01*
X113304283Y-115598320D01*
X113404298Y-115578426D01*
X113592656Y-115500405D01*
X113762174Y-115387137D01*
X113906337Y-115242974D01*
X114019605Y-115073456D01*
X114097626Y-114885098D01*
X114137400Y-114685139D01*
X114137400Y-114481261D01*
X114097626Y-114281302D01*
X114019605Y-114092944D01*
X113906337Y-113923426D01*
X113862400Y-113879489D01*
X113862400Y-113211261D01*
X124310200Y-113211261D01*
X124310200Y-113415139D01*
X124349974Y-113615098D01*
X124427995Y-113803456D01*
X124541263Y-113972974D01*
X124685426Y-114117137D01*
X124854944Y-114230405D01*
X125043302Y-114308426D01*
X125243261Y-114348200D01*
X125447139Y-114348200D01*
X125647098Y-114308426D01*
X125835456Y-114230405D01*
X126004974Y-114117137D01*
X126048911Y-114073200D01*
X126622689Y-114073200D01*
X126666626Y-114117137D01*
X126836144Y-114230405D01*
X127024502Y-114308426D01*
X127224461Y-114348200D01*
X127428339Y-114348200D01*
X127628298Y-114308426D01*
X127816656Y-114230405D01*
X127986174Y-114117137D01*
X128130337Y-113972974D01*
X128243605Y-113803456D01*
X128321626Y-113615098D01*
X128361400Y-113415139D01*
X128361400Y-113211261D01*
X128321626Y-113011302D01*
X128243605Y-112822944D01*
X128130337Y-112653426D01*
X127986174Y-112509263D01*
X127816656Y-112395995D01*
X127628298Y-112317974D01*
X127428339Y-112278200D01*
X127224461Y-112278200D01*
X127024502Y-112317974D01*
X126836144Y-112395995D01*
X126666626Y-112509263D01*
X126622689Y-112553200D01*
X126048911Y-112553200D01*
X126004974Y-112509263D01*
X125835456Y-112395995D01*
X125647098Y-112317974D01*
X125447139Y-112278200D01*
X125243261Y-112278200D01*
X125043302Y-112317974D01*
X124854944Y-112395995D01*
X124685426Y-112509263D01*
X124541263Y-112653426D01*
X124427995Y-112822944D01*
X124349974Y-113011302D01*
X124310200Y-113211261D01*
X113862400Y-113211261D01*
X113862400Y-109807661D01*
X116791800Y-109807661D01*
X116791800Y-110011539D01*
X116831574Y-110211498D01*
X116909595Y-110399856D01*
X117022863Y-110569374D01*
X117167026Y-110713537D01*
X117336544Y-110826805D01*
X117524902Y-110904826D01*
X117724861Y-110944600D01*
X117928739Y-110944600D01*
X118128698Y-110904826D01*
X118317056Y-110826805D01*
X118486574Y-110713537D01*
X118530511Y-110669600D01*
X119358289Y-110669600D01*
X119402226Y-110713537D01*
X119571744Y-110826805D01*
X119760102Y-110904826D01*
X119960061Y-110944600D01*
X120163939Y-110944600D01*
X120363898Y-110904826D01*
X120552256Y-110826805D01*
X120721774Y-110713537D01*
X120765711Y-110669600D01*
X121999889Y-110669600D01*
X122043826Y-110713537D01*
X122213344Y-110826805D01*
X122401702Y-110904826D01*
X122601661Y-110944600D01*
X122805539Y-110944600D01*
X123005498Y-110904826D01*
X123193856Y-110826805D01*
X123363374Y-110713537D01*
X123407311Y-110669600D01*
X128349889Y-110669600D01*
X128393826Y-110713537D01*
X128563344Y-110826805D01*
X128751702Y-110904826D01*
X128951661Y-110944600D01*
X129155539Y-110944600D01*
X129355498Y-110904826D01*
X129543856Y-110826805D01*
X129713374Y-110713537D01*
X129857537Y-110569374D01*
X129970805Y-110399856D01*
X130048826Y-110211498D01*
X130088600Y-110011539D01*
X130088600Y-109807661D01*
X130048826Y-109607702D01*
X129970805Y-109419344D01*
X129857537Y-109249826D01*
X129713374Y-109105663D01*
X129543856Y-108992395D01*
X129355498Y-108914374D01*
X129155539Y-108874600D01*
X128951661Y-108874600D01*
X128751702Y-108914374D01*
X128563344Y-108992395D01*
X128393826Y-109105663D01*
X128349889Y-109149600D01*
X125534311Y-109149600D01*
X125578426Y-109043098D01*
X125618200Y-108843139D01*
X125618200Y-108639261D01*
X125578426Y-108439302D01*
X125500405Y-108250944D01*
X125387137Y-108081426D01*
X125242974Y-107937263D01*
X125073456Y-107823995D01*
X124885098Y-107745974D01*
X124685139Y-107706200D01*
X124481261Y-107706200D01*
X124281302Y-107745974D01*
X124092944Y-107823995D01*
X123923426Y-107937263D01*
X123879489Y-107981200D01*
X121578511Y-107981200D01*
X121534574Y-107937263D01*
X121365056Y-107823995D01*
X121176698Y-107745974D01*
X120976739Y-107706200D01*
X120772861Y-107706200D01*
X120572902Y-107745974D01*
X120384544Y-107823995D01*
X120215026Y-107937263D01*
X120070863Y-108081426D01*
X119957595Y-108250944D01*
X119879574Y-108439302D01*
X119839800Y-108639261D01*
X119839800Y-108843139D01*
X119850397Y-108896413D01*
X119760102Y-108914374D01*
X119571744Y-108992395D01*
X119402226Y-109105663D01*
X119358289Y-109149600D01*
X118530511Y-109149600D01*
X118486574Y-109105663D01*
X118317056Y-108992395D01*
X118128698Y-108914374D01*
X117928739Y-108874600D01*
X117724861Y-108874600D01*
X117524902Y-108914374D01*
X117336544Y-108992395D01*
X117167026Y-109105663D01*
X117022863Y-109249826D01*
X116909595Y-109419344D01*
X116831574Y-109607702D01*
X116791800Y-109807661D01*
X113862400Y-109807661D01*
X113862400Y-106701711D01*
X113906337Y-106657774D01*
X114019605Y-106488256D01*
X114097626Y-106299898D01*
X114137400Y-106099939D01*
X114137400Y-105896061D01*
X114097626Y-105696102D01*
X114019605Y-105507744D01*
X113906337Y-105338226D01*
X113762174Y-105194063D01*
X113592656Y-105080795D01*
X113404298Y-105002774D01*
X113204339Y-104963000D01*
X113000461Y-104963000D01*
X112800502Y-105002774D01*
X112612144Y-105080795D01*
X112442626Y-105194063D01*
X112298463Y-105338226D01*
X112185195Y-105507744D01*
X112107174Y-105696102D01*
X112067400Y-105896061D01*
X112067400Y-106099939D01*
X112107174Y-106299898D01*
X112185195Y-106488256D01*
X112298463Y-106657774D01*
X112342401Y-106701712D01*
X112342400Y-111008200D01*
X112187661Y-111008200D01*
X111987702Y-111047974D01*
X111799344Y-111125995D01*
X111629826Y-111239263D01*
X111485663Y-111383426D01*
X111372395Y-111552944D01*
X111294374Y-111741302D01*
X111254600Y-111941261D01*
X102260000Y-111941261D01*
X102260000Y-104104800D01*
X105213528Y-104104800D01*
X105225788Y-104229282D01*
X105262098Y-104348980D01*
X105321063Y-104459294D01*
X105400415Y-104555985D01*
X105497106Y-104635337D01*
X105607420Y-104694302D01*
X105727118Y-104730612D01*
X105851600Y-104742872D01*
X106415850Y-104739800D01*
X106574600Y-104581050D01*
X106574600Y-103381800D01*
X106828600Y-103381800D01*
X106828600Y-104581050D01*
X106987350Y-104739800D01*
X107551600Y-104742872D01*
X107676082Y-104730612D01*
X107795780Y-104694302D01*
X107906094Y-104635337D01*
X108002785Y-104555985D01*
X108082137Y-104459294D01*
X108141102Y-104348980D01*
X108177412Y-104229282D01*
X108189672Y-104104800D01*
X108187256Y-103660861D01*
X117807800Y-103660861D01*
X117807800Y-103864739D01*
X117847574Y-104064698D01*
X117925595Y-104253056D01*
X118038863Y-104422574D01*
X118183026Y-104566737D01*
X118352544Y-104680005D01*
X118540902Y-104758026D01*
X118740861Y-104797800D01*
X118944739Y-104797800D01*
X119144698Y-104758026D01*
X119333056Y-104680005D01*
X119502574Y-104566737D01*
X119546511Y-104522800D01*
X122914289Y-104522800D01*
X122958226Y-104566737D01*
X123127744Y-104680005D01*
X123316102Y-104758026D01*
X123516061Y-104797800D01*
X123719939Y-104797800D01*
X123919898Y-104758026D01*
X124108256Y-104680005D01*
X124277774Y-104566737D01*
X124321711Y-104522800D01*
X127537089Y-104522800D01*
X127581026Y-104566737D01*
X127750544Y-104680005D01*
X127938902Y-104758026D01*
X128138861Y-104797800D01*
X128342739Y-104797800D01*
X128542698Y-104758026D01*
X128731056Y-104680005D01*
X128900574Y-104566737D01*
X129044737Y-104422574D01*
X129158005Y-104253056D01*
X129236026Y-104064698D01*
X129275800Y-103864739D01*
X129275800Y-103660861D01*
X129236026Y-103460902D01*
X129158005Y-103272544D01*
X129044737Y-103103026D01*
X128900574Y-102958863D01*
X128731056Y-102845595D01*
X128542698Y-102767574D01*
X128342739Y-102727800D01*
X128138861Y-102727800D01*
X127938902Y-102767574D01*
X127750544Y-102845595D01*
X127581026Y-102958863D01*
X127537089Y-103002800D01*
X124321711Y-103002800D01*
X124277774Y-102958863D01*
X124108256Y-102845595D01*
X123919898Y-102767574D01*
X123719939Y-102727800D01*
X123516061Y-102727800D01*
X123316102Y-102767574D01*
X123127744Y-102845595D01*
X122958226Y-102958863D01*
X122914289Y-103002800D01*
X119546511Y-103002800D01*
X119502574Y-102958863D01*
X119333056Y-102845595D01*
X119144698Y-102767574D01*
X118944739Y-102727800D01*
X118740861Y-102727800D01*
X118540902Y-102767574D01*
X118352544Y-102845595D01*
X118183026Y-102958863D01*
X118038863Y-103103026D01*
X117925595Y-103272544D01*
X117847574Y-103460902D01*
X117807800Y-103660861D01*
X108187256Y-103660861D01*
X108186600Y-103540550D01*
X108027850Y-103381800D01*
X106828600Y-103381800D01*
X106574600Y-103381800D01*
X105375350Y-103381800D01*
X105216600Y-103540550D01*
X105213528Y-104104800D01*
X102260000Y-104104800D01*
X102260000Y-102404800D01*
X105213528Y-102404800D01*
X105216600Y-102969050D01*
X105375350Y-103127800D01*
X106574600Y-103127800D01*
X106574600Y-103107800D01*
X106828600Y-103107800D01*
X106828600Y-103127800D01*
X108027850Y-103127800D01*
X108186600Y-102969050D01*
X108189672Y-102404800D01*
X108177412Y-102280318D01*
X108141102Y-102160620D01*
X108082137Y-102050306D01*
X108002785Y-101953615D01*
X107906094Y-101874263D01*
X107795780Y-101815298D01*
X107723220Y-101793287D01*
X107855075Y-101661432D01*
X108017590Y-101418211D01*
X108129532Y-101147958D01*
X108186600Y-100861060D01*
X108186600Y-100568540D01*
X108129532Y-100281642D01*
X108017590Y-100011389D01*
X107855075Y-99768168D01*
X107785368Y-99698461D01*
X113489800Y-99698461D01*
X113489800Y-99902339D01*
X113529574Y-100102298D01*
X113607595Y-100290656D01*
X113720863Y-100460174D01*
X113865026Y-100604337D01*
X114034544Y-100717605D01*
X114222902Y-100795626D01*
X114422861Y-100835400D01*
X114626739Y-100835400D01*
X114826698Y-100795626D01*
X115015056Y-100717605D01*
X115184574Y-100604337D01*
X115228511Y-100560400D01*
X120288289Y-100560400D01*
X120400626Y-100672737D01*
X120570144Y-100786005D01*
X120758502Y-100864026D01*
X120958461Y-100903800D01*
X121162339Y-100903800D01*
X121362298Y-100864026D01*
X121550656Y-100786005D01*
X121720174Y-100672737D01*
X121864337Y-100528574D01*
X121977605Y-100359056D01*
X122040812Y-100206461D01*
X141937800Y-100206461D01*
X141937800Y-100410339D01*
X141977574Y-100610298D01*
X142055595Y-100798656D01*
X142168863Y-100968174D01*
X142212801Y-101012112D01*
X142212800Y-109510689D01*
X142168863Y-109554626D01*
X142055595Y-109724144D01*
X141977574Y-109912502D01*
X141937800Y-110112461D01*
X141937800Y-110316339D01*
X141977574Y-110516298D01*
X142055595Y-110704656D01*
X142168863Y-110874174D01*
X142313026Y-111018337D01*
X142482544Y-111131605D01*
X142670902Y-111209626D01*
X142870861Y-111249400D01*
X143074739Y-111249400D01*
X143274698Y-111209626D01*
X143463056Y-111131605D01*
X143632574Y-111018337D01*
X143776737Y-110874174D01*
X143890005Y-110704656D01*
X143968026Y-110516298D01*
X144007800Y-110316339D01*
X144007800Y-110112461D01*
X143968026Y-109912502D01*
X143890005Y-109724144D01*
X143776737Y-109554626D01*
X143732800Y-109510689D01*
X143732800Y-106644800D01*
X145091528Y-106644800D01*
X145103788Y-106769282D01*
X145140098Y-106888980D01*
X145199063Y-106999294D01*
X145278415Y-107095985D01*
X145375106Y-107175337D01*
X145485420Y-107234302D01*
X145605118Y-107270612D01*
X145729600Y-107282872D01*
X146293850Y-107279800D01*
X146452600Y-107121050D01*
X146452600Y-105921800D01*
X146706600Y-105921800D01*
X146706600Y-107121050D01*
X146865350Y-107279800D01*
X147429600Y-107282872D01*
X147554082Y-107270612D01*
X147673780Y-107234302D01*
X147784094Y-107175337D01*
X147880785Y-107095985D01*
X147960137Y-106999294D01*
X148019102Y-106888980D01*
X148055412Y-106769282D01*
X148067672Y-106644800D01*
X148064600Y-106080550D01*
X147905850Y-105921800D01*
X146706600Y-105921800D01*
X146452600Y-105921800D01*
X145253350Y-105921800D01*
X145094600Y-106080550D01*
X145091528Y-106644800D01*
X143732800Y-106644800D01*
X143732800Y-104944800D01*
X145091528Y-104944800D01*
X145094600Y-105509050D01*
X145253350Y-105667800D01*
X146452600Y-105667800D01*
X146452600Y-105647800D01*
X146706600Y-105647800D01*
X146706600Y-105667800D01*
X147905850Y-105667800D01*
X148064600Y-105509050D01*
X148067672Y-104944800D01*
X148055412Y-104820318D01*
X148019102Y-104700620D01*
X147960137Y-104590306D01*
X147880785Y-104493615D01*
X147784094Y-104414263D01*
X147673780Y-104355298D01*
X147601220Y-104333287D01*
X147733075Y-104201432D01*
X147895590Y-103958211D01*
X148007532Y-103687958D01*
X148064600Y-103401060D01*
X148064600Y-103108540D01*
X148007532Y-102821642D01*
X147895590Y-102551389D01*
X147733075Y-102308168D01*
X147526232Y-102101325D01*
X147351840Y-101984800D01*
X147526232Y-101868275D01*
X147733075Y-101661432D01*
X147895590Y-101418211D01*
X148007532Y-101147958D01*
X148064600Y-100861060D01*
X148064600Y-100568540D01*
X148007532Y-100281642D01*
X147895590Y-100011389D01*
X147733075Y-99768168D01*
X147526232Y-99561325D01*
X147351840Y-99444800D01*
X147526232Y-99328275D01*
X147733075Y-99121432D01*
X147895590Y-98878211D01*
X148007532Y-98607958D01*
X148064600Y-98321060D01*
X148064600Y-98028540D01*
X148007532Y-97741642D01*
X147895590Y-97471389D01*
X147733075Y-97228168D01*
X147526232Y-97021325D01*
X147283011Y-96858810D01*
X147012758Y-96746868D01*
X146725860Y-96689800D01*
X146433340Y-96689800D01*
X146146442Y-96746868D01*
X145876189Y-96858810D01*
X145632968Y-97021325D01*
X145426125Y-97228168D01*
X145263610Y-97471389D01*
X145151668Y-97741642D01*
X145094600Y-98028540D01*
X145094600Y-98321060D01*
X145151668Y-98607958D01*
X145263610Y-98878211D01*
X145426125Y-99121432D01*
X145632968Y-99328275D01*
X145807360Y-99444800D01*
X145632968Y-99561325D01*
X145426125Y-99768168D01*
X145263610Y-100011389D01*
X145151668Y-100281642D01*
X145094600Y-100568540D01*
X145094600Y-100861060D01*
X145151668Y-101147958D01*
X145263610Y-101418211D01*
X145426125Y-101661432D01*
X145632968Y-101868275D01*
X145807360Y-101984800D01*
X145632968Y-102101325D01*
X145426125Y-102308168D01*
X145263610Y-102551389D01*
X145151668Y-102821642D01*
X145094600Y-103108540D01*
X145094600Y-103401060D01*
X145151668Y-103687958D01*
X145263610Y-103958211D01*
X145426125Y-104201432D01*
X145557980Y-104333287D01*
X145485420Y-104355298D01*
X145375106Y-104414263D01*
X145278415Y-104493615D01*
X145199063Y-104590306D01*
X145140098Y-104700620D01*
X145103788Y-104820318D01*
X145091528Y-104944800D01*
X143732800Y-104944800D01*
X143732800Y-101012111D01*
X143776737Y-100968174D01*
X143890005Y-100798656D01*
X143968026Y-100610298D01*
X144007800Y-100410339D01*
X144007800Y-100206461D01*
X143968026Y-100006502D01*
X143890005Y-99818144D01*
X143776737Y-99648626D01*
X143632574Y-99504463D01*
X143463056Y-99391195D01*
X143274698Y-99313174D01*
X143074739Y-99273400D01*
X142870861Y-99273400D01*
X142670902Y-99313174D01*
X142482544Y-99391195D01*
X142313026Y-99504463D01*
X142168863Y-99648626D01*
X142055595Y-99818144D01*
X141977574Y-100006502D01*
X141937800Y-100206461D01*
X122040812Y-100206461D01*
X122055626Y-100170698D01*
X122095400Y-99970739D01*
X122095400Y-99766861D01*
X122055626Y-99566902D01*
X121977605Y-99378544D01*
X121864337Y-99209026D01*
X121720174Y-99064863D01*
X121550656Y-98951595D01*
X121362298Y-98873574D01*
X121162339Y-98833800D01*
X120958461Y-98833800D01*
X120758502Y-98873574D01*
X120570144Y-98951595D01*
X120437238Y-99040400D01*
X115228511Y-99040400D01*
X115184574Y-98996463D01*
X115015056Y-98883195D01*
X114826698Y-98805174D01*
X114626739Y-98765400D01*
X114422861Y-98765400D01*
X114222902Y-98805174D01*
X114034544Y-98883195D01*
X113865026Y-98996463D01*
X113720863Y-99140626D01*
X113607595Y-99310144D01*
X113529574Y-99498502D01*
X113489800Y-99698461D01*
X107785368Y-99698461D01*
X107648232Y-99561325D01*
X107405011Y-99398810D01*
X107134758Y-99286868D01*
X106847860Y-99229800D01*
X106555340Y-99229800D01*
X106268442Y-99286868D01*
X105998189Y-99398810D01*
X105754968Y-99561325D01*
X105548125Y-99768168D01*
X105385610Y-100011389D01*
X105273668Y-100281642D01*
X105216600Y-100568540D01*
X105216600Y-100861060D01*
X105273668Y-101147958D01*
X105385610Y-101418211D01*
X105548125Y-101661432D01*
X105679980Y-101793287D01*
X105607420Y-101815298D01*
X105497106Y-101874263D01*
X105400415Y-101953615D01*
X105321063Y-102050306D01*
X105262098Y-102160620D01*
X105225788Y-102280318D01*
X105213528Y-102404800D01*
X102260000Y-102404800D01*
X102260000Y-96091661D01*
X122532200Y-96091661D01*
X122532200Y-96295539D01*
X122571974Y-96495498D01*
X122649995Y-96683856D01*
X122763263Y-96853374D01*
X122807201Y-96897312D01*
X122807200Y-97979089D01*
X122763263Y-98023026D01*
X122649995Y-98192544D01*
X122571974Y-98380902D01*
X122532200Y-98580861D01*
X122532200Y-98784739D01*
X122571974Y-98984698D01*
X122649995Y-99173056D01*
X122763263Y-99342574D01*
X122907426Y-99486737D01*
X123076944Y-99600005D01*
X123265302Y-99678026D01*
X123465261Y-99717800D01*
X123669139Y-99717800D01*
X123869098Y-99678026D01*
X124057456Y-99600005D01*
X124226974Y-99486737D01*
X124371137Y-99342574D01*
X124484405Y-99173056D01*
X124521879Y-99082587D01*
X124580395Y-99223856D01*
X124693663Y-99393374D01*
X124837826Y-99537537D01*
X125007344Y-99650805D01*
X125195702Y-99728826D01*
X125395661Y-99768600D01*
X125599539Y-99768600D01*
X125799498Y-99728826D01*
X125987856Y-99650805D01*
X126157374Y-99537537D01*
X126301537Y-99393374D01*
X126414805Y-99223856D01*
X126492826Y-99035498D01*
X126532600Y-98835539D01*
X126532600Y-98631661D01*
X126492826Y-98431702D01*
X126414805Y-98243344D01*
X126301537Y-98073826D01*
X126257600Y-98029889D01*
X126257600Y-96897311D01*
X126301537Y-96853374D01*
X126414805Y-96683856D01*
X126492826Y-96495498D01*
X126532600Y-96295539D01*
X126532600Y-96091661D01*
X126510207Y-95979082D01*
X126531344Y-95993205D01*
X126719702Y-96071226D01*
X126919661Y-96111000D01*
X127123539Y-96111000D01*
X127323498Y-96071226D01*
X127511856Y-95993205D01*
X127681374Y-95879937D01*
X127825537Y-95735774D01*
X127938805Y-95566256D01*
X128016826Y-95377898D01*
X128056600Y-95177939D01*
X128056600Y-94974061D01*
X128016826Y-94774102D01*
X127938805Y-94585744D01*
X127825537Y-94416226D01*
X127781600Y-94372289D01*
X127781600Y-87600911D01*
X127825537Y-87556974D01*
X127938805Y-87387456D01*
X128016826Y-87199098D01*
X128056600Y-86999139D01*
X128056600Y-86795261D01*
X128016826Y-86595302D01*
X127938805Y-86406944D01*
X127825537Y-86237426D01*
X127681374Y-86093263D01*
X127511856Y-85979995D01*
X127323498Y-85901974D01*
X127123539Y-85862200D01*
X126919661Y-85862200D01*
X126719702Y-85901974D01*
X126531344Y-85979995D01*
X126361826Y-86093263D01*
X126217663Y-86237426D01*
X126104395Y-86406944D01*
X126026374Y-86595302D01*
X125986600Y-86795261D01*
X125986600Y-86999139D01*
X126026374Y-87199098D01*
X126104395Y-87387456D01*
X126217663Y-87556974D01*
X126261601Y-87600912D01*
X126261600Y-94372289D01*
X126217663Y-94416226D01*
X126104395Y-94585744D01*
X126026374Y-94774102D01*
X125986600Y-94974061D01*
X125986600Y-95177939D01*
X126008993Y-95290518D01*
X125987856Y-95276395D01*
X125799498Y-95198374D01*
X125599539Y-95158600D01*
X125395661Y-95158600D01*
X125195702Y-95198374D01*
X125007344Y-95276395D01*
X124837826Y-95389663D01*
X124693663Y-95533826D01*
X124580395Y-95703344D01*
X124532400Y-95819213D01*
X124484405Y-95703344D01*
X124371137Y-95533826D01*
X124226974Y-95389663D01*
X124057456Y-95276395D01*
X123869098Y-95198374D01*
X123669139Y-95158600D01*
X123465261Y-95158600D01*
X123265302Y-95198374D01*
X123076944Y-95276395D01*
X122907426Y-95389663D01*
X122763263Y-95533826D01*
X122649995Y-95703344D01*
X122571974Y-95891702D01*
X122532200Y-96091661D01*
X102260000Y-96091661D01*
X102260000Y-82029392D01*
X102296333Y-81622285D01*
X102765000Y-81622285D01*
X102765000Y-82377715D01*
X102912377Y-83118628D01*
X103201467Y-83816554D01*
X103621161Y-84444670D01*
X104155330Y-84978839D01*
X104783446Y-85398533D01*
X105481372Y-85687623D01*
X106222285Y-85835000D01*
X106977715Y-85835000D01*
X107718628Y-85687623D01*
X108416554Y-85398533D01*
X109044670Y-84978839D01*
X109578839Y-84444670D01*
X109998533Y-83816554D01*
X110287623Y-83118628D01*
X110435000Y-82377715D01*
X110435000Y-81622285D01*
X110422201Y-81557937D01*
X117081800Y-81557937D01*
X117081800Y-81771663D01*
X117123496Y-81981283D01*
X117205285Y-82178740D01*
X117324025Y-82356447D01*
X117475153Y-82507575D01*
X117652860Y-82626315D01*
X117850317Y-82708104D01*
X118059937Y-82749800D01*
X118273663Y-82749800D01*
X118483283Y-82708104D01*
X118680740Y-82626315D01*
X118858447Y-82507575D01*
X119009575Y-82356447D01*
X119128315Y-82178740D01*
X119210104Y-81981283D01*
X119251800Y-81771663D01*
X119251800Y-81557937D01*
X121481800Y-81557937D01*
X121481800Y-81771663D01*
X121523496Y-81981283D01*
X121605285Y-82178740D01*
X121724025Y-82356447D01*
X121875153Y-82507575D01*
X122052860Y-82626315D01*
X122250317Y-82708104D01*
X122459937Y-82749800D01*
X122673663Y-82749800D01*
X122883283Y-82708104D01*
X123080740Y-82626315D01*
X123258447Y-82507575D01*
X123409575Y-82356447D01*
X123528315Y-82178740D01*
X123610104Y-81981283D01*
X123611206Y-81975740D01*
X129295800Y-81975740D01*
X129295800Y-82268260D01*
X129352868Y-82555158D01*
X129464810Y-82825411D01*
X129627325Y-83068632D01*
X129834168Y-83275475D01*
X130077389Y-83437990D01*
X130347642Y-83549932D01*
X130634540Y-83607000D01*
X130927060Y-83607000D01*
X131213958Y-83549932D01*
X131484211Y-83437990D01*
X131727432Y-83275475D01*
X131859287Y-83143620D01*
X131881298Y-83216180D01*
X131940263Y-83326494D01*
X132019615Y-83423185D01*
X132116306Y-83502537D01*
X132226620Y-83561502D01*
X132346318Y-83597812D01*
X132470800Y-83610072D01*
X133035050Y-83607000D01*
X133193800Y-83448250D01*
X133193800Y-82249000D01*
X133447800Y-82249000D01*
X133447800Y-83448250D01*
X133606550Y-83607000D01*
X134170800Y-83610072D01*
X134295282Y-83597812D01*
X134414980Y-83561502D01*
X134525294Y-83502537D01*
X134621985Y-83423185D01*
X134701337Y-83326494D01*
X134760302Y-83216180D01*
X134796612Y-83096482D01*
X134808872Y-82972000D01*
X134805800Y-82407750D01*
X134647050Y-82249000D01*
X133447800Y-82249000D01*
X133193800Y-82249000D01*
X133173800Y-82249000D01*
X133173800Y-81995000D01*
X133193800Y-81995000D01*
X133193800Y-80795750D01*
X133447800Y-80795750D01*
X133447800Y-81995000D01*
X134647050Y-81995000D01*
X134805800Y-81836250D01*
X134806964Y-81622285D01*
X142765000Y-81622285D01*
X142765000Y-82377715D01*
X142912377Y-83118628D01*
X143201467Y-83816554D01*
X143621161Y-84444670D01*
X144155330Y-84978839D01*
X144783446Y-85398533D01*
X145481372Y-85687623D01*
X146222285Y-85835000D01*
X146977715Y-85835000D01*
X147718628Y-85687623D01*
X148416554Y-85398533D01*
X149044670Y-84978839D01*
X149578839Y-84444670D01*
X149998533Y-83816554D01*
X150287623Y-83118628D01*
X150435000Y-82377715D01*
X150435000Y-81622285D01*
X150287623Y-80881372D01*
X149998533Y-80183446D01*
X149578839Y-79555330D01*
X149044670Y-79021161D01*
X148416554Y-78601467D01*
X147718628Y-78312377D01*
X146977715Y-78165000D01*
X146222285Y-78165000D01*
X145481372Y-78312377D01*
X144783446Y-78601467D01*
X144155330Y-79021161D01*
X143621161Y-79555330D01*
X143201467Y-80183446D01*
X142912377Y-80881372D01*
X142765000Y-81622285D01*
X134806964Y-81622285D01*
X134808872Y-81272000D01*
X134796612Y-81147518D01*
X134760302Y-81027820D01*
X134701337Y-80917506D01*
X134621985Y-80820815D01*
X134525294Y-80741463D01*
X134414980Y-80682498D01*
X134295282Y-80646188D01*
X134170800Y-80633928D01*
X133606550Y-80637000D01*
X133447800Y-80795750D01*
X133193800Y-80795750D01*
X133035050Y-80637000D01*
X132470800Y-80633928D01*
X132346318Y-80646188D01*
X132226620Y-80682498D01*
X132116306Y-80741463D01*
X132019615Y-80820815D01*
X131940263Y-80917506D01*
X131881298Y-81027820D01*
X131859287Y-81100380D01*
X131727432Y-80968525D01*
X131484211Y-80806010D01*
X131213958Y-80694068D01*
X130927060Y-80637000D01*
X130634540Y-80637000D01*
X130347642Y-80694068D01*
X130077389Y-80806010D01*
X129834168Y-80968525D01*
X129627325Y-81175368D01*
X129464810Y-81418589D01*
X129352868Y-81688842D01*
X129295800Y-81975740D01*
X123611206Y-81975740D01*
X123651800Y-81771663D01*
X123651800Y-81557937D01*
X123610104Y-81348317D01*
X123528315Y-81150860D01*
X123409575Y-80973153D01*
X123258447Y-80822025D01*
X123080740Y-80703285D01*
X122883283Y-80621496D01*
X122673663Y-80579800D01*
X122459937Y-80579800D01*
X122250317Y-80621496D01*
X122052860Y-80703285D01*
X121875153Y-80822025D01*
X121724025Y-80973153D01*
X121605285Y-81150860D01*
X121523496Y-81348317D01*
X121481800Y-81557937D01*
X119251800Y-81557937D01*
X119210104Y-81348317D01*
X119128315Y-81150860D01*
X119009575Y-80973153D01*
X118858447Y-80822025D01*
X118680740Y-80703285D01*
X118483283Y-80621496D01*
X118273663Y-80579800D01*
X118059937Y-80579800D01*
X117850317Y-80621496D01*
X117652860Y-80703285D01*
X117475153Y-80822025D01*
X117324025Y-80973153D01*
X117205285Y-81150860D01*
X117123496Y-81348317D01*
X117081800Y-81557937D01*
X110422201Y-81557937D01*
X110287623Y-80881372D01*
X109998533Y-80183446D01*
X109578839Y-79555330D01*
X109044670Y-79021161D01*
X108416554Y-78601467D01*
X107718628Y-78312377D01*
X106977715Y-78165000D01*
X106222285Y-78165000D01*
X105481372Y-78312377D01*
X104783446Y-78601467D01*
X104155330Y-79021161D01*
X103621161Y-79555330D01*
X103201467Y-80183446D01*
X102912377Y-80881372D01*
X102765000Y-81622285D01*
X102296333Y-81622285D01*
X102331173Y-81231917D01*
X102534656Y-80488109D01*
X102866638Y-79792095D01*
X103316626Y-79165870D01*
X103870403Y-78629223D01*
X104510451Y-78199129D01*
X105216553Y-77889171D01*
X105971457Y-77707935D01*
X106624207Y-77660000D01*
X146570608Y-77660000D01*
X147368083Y-77731173D01*
G37*
G04 #@! TD.AperFunction*
M02*
