G04 #@! TF.GenerationSoftware,KiCad,Pcbnew,(5.1.9)-1*
G04 #@! TF.CreationDate,2021-05-06T17:03:27+01:00*
G04 #@! TF.ProjectId,Little Logic Computer - Power+Timing,4c697474-6c65-4204-9c6f-67696320436f,2.0*
G04 #@! TF.SameCoordinates,Original*
G04 #@! TF.FileFunction,Soldermask,Top*
G04 #@! TF.FilePolarity,Negative*
%FSLAX46Y46*%
G04 Gerber Fmt 4.6, Leading zero omitted, Abs format (unit mm)*
G04 Created by KiCad (PCBNEW (5.1.9)-1) date 2021-05-06 17:03:27*
%MOMM*%
%LPD*%
G01*
G04 APERTURE LIST*
%ADD10C,0.902000*%
%ADD11C,6.502000*%
%ADD12C,1.002000*%
%ADD13C,1.362000*%
%ADD14O,1.802000X1.802000*%
%ADD15C,0.100000*%
G04 APERTURE END LIST*
G36*
G01*
X109694500Y-104252400D02*
X109093500Y-104252400D01*
G75*
G02*
X108868000Y-104026900I0J225500D01*
G01*
X108868000Y-103575900D01*
G75*
G02*
X109093500Y-103350400I225500J0D01*
G01*
X109694500Y-103350400D01*
G75*
G02*
X109920000Y-103575900I0J-225500D01*
G01*
X109920000Y-104026900D01*
G75*
G02*
X109694500Y-104252400I-225500J0D01*
G01*
G37*
G36*
G01*
X109694500Y-105902400D02*
X109093500Y-105902400D01*
G75*
G02*
X108868000Y-105676900I0J225500D01*
G01*
X108868000Y-105225900D01*
G75*
G02*
X109093500Y-105000400I225500J0D01*
G01*
X109694500Y-105000400D01*
G75*
G02*
X109920000Y-105225900I0J-225500D01*
G01*
X109920000Y-105676900D01*
G75*
G02*
X109694500Y-105902400I-225500J0D01*
G01*
G37*
G36*
G01*
X138701300Y-85647400D02*
X138100300Y-85647400D01*
G75*
G02*
X137874800Y-85421900I0J225500D01*
G01*
X137874800Y-84970900D01*
G75*
G02*
X138100300Y-84745400I225500J0D01*
G01*
X138701300Y-84745400D01*
G75*
G02*
X138926800Y-84970900I0J-225500D01*
G01*
X138926800Y-85421900D01*
G75*
G02*
X138701300Y-85647400I-225500J0D01*
G01*
G37*
G36*
G01*
X138701300Y-87297400D02*
X138100300Y-87297400D01*
G75*
G02*
X137874800Y-87071900I0J225500D01*
G01*
X137874800Y-86620900D01*
G75*
G02*
X138100300Y-86395400I225500J0D01*
G01*
X138701300Y-86395400D01*
G75*
G02*
X138926800Y-86620900I0J-225500D01*
G01*
X138926800Y-87071900D01*
G75*
G02*
X138701300Y-87297400I-225500J0D01*
G01*
G37*
G36*
G01*
X109675750Y-101228600D02*
X109112250Y-101228600D01*
G75*
G02*
X108868000Y-100984350I0J244250D01*
G01*
X108868000Y-100495850D01*
G75*
G02*
X109112250Y-100251600I244250J0D01*
G01*
X109675750Y-100251600D01*
G75*
G02*
X109920000Y-100495850I0J-244250D01*
G01*
X109920000Y-100984350D01*
G75*
G02*
X109675750Y-101228600I-244250J0D01*
G01*
G37*
G36*
G01*
X109675750Y-102803600D02*
X109112250Y-102803600D01*
G75*
G02*
X108868000Y-102559350I0J244250D01*
G01*
X108868000Y-102070850D01*
G75*
G02*
X109112250Y-101826600I244250J0D01*
G01*
X109675750Y-101826600D01*
G75*
G02*
X109920000Y-102070850I0J-244250D01*
G01*
X109920000Y-102559350D01*
G75*
G02*
X109675750Y-102803600I-244250J0D01*
G01*
G37*
G36*
G01*
X138682550Y-82610500D02*
X138119050Y-82610500D01*
G75*
G02*
X137874800Y-82366250I0J244250D01*
G01*
X137874800Y-81877750D01*
G75*
G02*
X138119050Y-81633500I244250J0D01*
G01*
X138682550Y-81633500D01*
G75*
G02*
X138926800Y-81877750I0J-244250D01*
G01*
X138926800Y-82366250D01*
G75*
G02*
X138682550Y-82610500I-244250J0D01*
G01*
G37*
G36*
G01*
X138682550Y-84185500D02*
X138119050Y-84185500D01*
G75*
G02*
X137874800Y-83941250I0J244250D01*
G01*
X137874800Y-83452750D01*
G75*
G02*
X138119050Y-83208500I244250J0D01*
G01*
X138682550Y-83208500D01*
G75*
G02*
X138926800Y-83452750I0J-244250D01*
G01*
X138926800Y-83941250D01*
G75*
G02*
X138682550Y-84185500I-244250J0D01*
G01*
G37*
G36*
G01*
X131411900Y-115210600D02*
X130860900Y-115210600D01*
G75*
G02*
X130610400Y-114960100I0J250500D01*
G01*
X130610400Y-114459100D01*
G75*
G02*
X130860900Y-114208600I250500J0D01*
G01*
X131411900Y-114208600D01*
G75*
G02*
X131662400Y-114459100I0J-250500D01*
G01*
X131662400Y-114960100D01*
G75*
G02*
X131411900Y-115210600I-250500J0D01*
G01*
G37*
G36*
G01*
X131411900Y-116760600D02*
X130860900Y-116760600D01*
G75*
G02*
X130610400Y-116510100I0J250500D01*
G01*
X130610400Y-116009100D01*
G75*
G02*
X130860900Y-115758600I250500J0D01*
G01*
X131411900Y-115758600D01*
G75*
G02*
X131662400Y-116009100I0J-250500D01*
G01*
X131662400Y-116510100D01*
G75*
G02*
X131411900Y-116760600I-250500J0D01*
G01*
G37*
G36*
G01*
X141187800Y-117152500D02*
X141187800Y-117703500D01*
G75*
G02*
X140937300Y-117954000I-250500J0D01*
G01*
X140436300Y-117954000D01*
G75*
G02*
X140185800Y-117703500I0J250500D01*
G01*
X140185800Y-117152500D01*
G75*
G02*
X140436300Y-116902000I250500J0D01*
G01*
X140937300Y-116902000D01*
G75*
G02*
X141187800Y-117152500I0J-250500D01*
G01*
G37*
G36*
G01*
X142737800Y-117152500D02*
X142737800Y-117703500D01*
G75*
G02*
X142487300Y-117954000I-250500J0D01*
G01*
X141986300Y-117954000D01*
G75*
G02*
X141735800Y-117703500I0J250500D01*
G01*
X141735800Y-117152500D01*
G75*
G02*
X141986300Y-116902000I250500J0D01*
G01*
X142487300Y-116902000D01*
G75*
G02*
X142737800Y-117152500I0J-250500D01*
G01*
G37*
G36*
G01*
X115065800Y-117703500D02*
X115065800Y-117152500D01*
G75*
G02*
X115316300Y-116902000I250500J0D01*
G01*
X115817300Y-116902000D01*
G75*
G02*
X116067800Y-117152500I0J-250500D01*
G01*
X116067800Y-117703500D01*
G75*
G02*
X115817300Y-117954000I-250500J0D01*
G01*
X115316300Y-117954000D01*
G75*
G02*
X115065800Y-117703500I0J250500D01*
G01*
G37*
G36*
G01*
X113515800Y-117703500D02*
X113515800Y-117152500D01*
G75*
G02*
X113766300Y-116902000I250500J0D01*
G01*
X114267300Y-116902000D01*
G75*
G02*
X114517800Y-117152500I0J-250500D01*
G01*
X114517800Y-117703500D01*
G75*
G02*
X114267300Y-117954000I-250500J0D01*
G01*
X113766300Y-117954000D01*
G75*
G02*
X113515800Y-117703500I0J250500D01*
G01*
G37*
D10*
X148297056Y-80302944D03*
X146600000Y-79600000D03*
X144902944Y-80302944D03*
X144200000Y-82000000D03*
X144902944Y-83697056D03*
X146600000Y-84400000D03*
X148297056Y-83697056D03*
X149000000Y-82000000D03*
D11*
X146600000Y-82000000D03*
D10*
X148297056Y-120302944D03*
X146600000Y-119600000D03*
X144902944Y-120302944D03*
X144200000Y-122000000D03*
X144902944Y-123697056D03*
X146600000Y-124400000D03*
X148297056Y-123697056D03*
X149000000Y-122000000D03*
D11*
X146600000Y-122000000D03*
D10*
X108297056Y-120302944D03*
X106600000Y-119600000D03*
X104902944Y-120302944D03*
X104200000Y-122000000D03*
X104902944Y-123697056D03*
X106600000Y-124400000D03*
X108297056Y-123697056D03*
X109000000Y-122000000D03*
D11*
X106600000Y-122000000D03*
G36*
G01*
X142374200Y-101664601D02*
X142374200Y-101014599D01*
G75*
G02*
X142425199Y-100963600I50999J0D01*
G01*
X143485201Y-100963600D01*
G75*
G02*
X143536200Y-101014599I0J-50999D01*
G01*
X143536200Y-101664601D01*
G75*
G02*
X143485201Y-101715600I-50999J0D01*
G01*
X142425199Y-101715600D01*
G75*
G02*
X142374200Y-101664601I0J50999D01*
G01*
G37*
G36*
G01*
X142374200Y-103564601D02*
X142374200Y-102914599D01*
G75*
G02*
X142425199Y-102863600I50999J0D01*
G01*
X143485201Y-102863600D01*
G75*
G02*
X143536200Y-102914599I0J-50999D01*
G01*
X143536200Y-103564601D01*
G75*
G02*
X143485201Y-103615600I-50999J0D01*
G01*
X142425199Y-103615600D01*
G75*
G02*
X142374200Y-103564601I0J50999D01*
G01*
G37*
G36*
G01*
X140174200Y-103564601D02*
X140174200Y-102914599D01*
G75*
G02*
X140225199Y-102863600I50999J0D01*
G01*
X141285201Y-102863600D01*
G75*
G02*
X141336200Y-102914599I0J-50999D01*
G01*
X141336200Y-103564601D01*
G75*
G02*
X141285201Y-103615600I-50999J0D01*
G01*
X140225199Y-103615600D01*
G75*
G02*
X140174200Y-103564601I0J50999D01*
G01*
G37*
G36*
G01*
X140174200Y-102614601D02*
X140174200Y-101964599D01*
G75*
G02*
X140225199Y-101913600I50999J0D01*
G01*
X141285201Y-101913600D01*
G75*
G02*
X141336200Y-101964599I0J-50999D01*
G01*
X141336200Y-102614601D01*
G75*
G02*
X141285201Y-102665600I-50999J0D01*
G01*
X140225199Y-102665600D01*
G75*
G02*
X140174200Y-102614601I0J50999D01*
G01*
G37*
G36*
G01*
X140174200Y-101664601D02*
X140174200Y-101014599D01*
G75*
G02*
X140225199Y-100963600I50999J0D01*
G01*
X141285201Y-100963600D01*
G75*
G02*
X141336200Y-101014599I0J-50999D01*
G01*
X141336200Y-101664601D01*
G75*
G02*
X141285201Y-101715600I-50999J0D01*
G01*
X140225199Y-101715600D01*
G75*
G02*
X140174200Y-101664601I0J50999D01*
G01*
G37*
G36*
G01*
X128912200Y-96533801D02*
X128912200Y-95883799D01*
G75*
G02*
X128963199Y-95832800I50999J0D01*
G01*
X130023201Y-95832800D01*
G75*
G02*
X130074200Y-95883799I0J-50999D01*
G01*
X130074200Y-96533801D01*
G75*
G02*
X130023201Y-96584800I-50999J0D01*
G01*
X128963199Y-96584800D01*
G75*
G02*
X128912200Y-96533801I0J50999D01*
G01*
G37*
G36*
G01*
X128912200Y-98433801D02*
X128912200Y-97783799D01*
G75*
G02*
X128963199Y-97732800I50999J0D01*
G01*
X130023201Y-97732800D01*
G75*
G02*
X130074200Y-97783799I0J-50999D01*
G01*
X130074200Y-98433801D01*
G75*
G02*
X130023201Y-98484800I-50999J0D01*
G01*
X128963199Y-98484800D01*
G75*
G02*
X128912200Y-98433801I0J50999D01*
G01*
G37*
G36*
G01*
X126712200Y-98433801D02*
X126712200Y-97783799D01*
G75*
G02*
X126763199Y-97732800I50999J0D01*
G01*
X127823201Y-97732800D01*
G75*
G02*
X127874200Y-97783799I0J-50999D01*
G01*
X127874200Y-98433801D01*
G75*
G02*
X127823201Y-98484800I-50999J0D01*
G01*
X126763199Y-98484800D01*
G75*
G02*
X126712200Y-98433801I0J50999D01*
G01*
G37*
G36*
G01*
X126712200Y-97483801D02*
X126712200Y-96833799D01*
G75*
G02*
X126763199Y-96782800I50999J0D01*
G01*
X127823201Y-96782800D01*
G75*
G02*
X127874200Y-96833799I0J-50999D01*
G01*
X127874200Y-97483801D01*
G75*
G02*
X127823201Y-97534800I-50999J0D01*
G01*
X126763199Y-97534800D01*
G75*
G02*
X126712200Y-97483801I0J50999D01*
G01*
G37*
G36*
G01*
X126712200Y-96533801D02*
X126712200Y-95883799D01*
G75*
G02*
X126763199Y-95832800I50999J0D01*
G01*
X127823201Y-95832800D01*
G75*
G02*
X127874200Y-95883799I0J-50999D01*
G01*
X127874200Y-96533801D01*
G75*
G02*
X127823201Y-96584800I-50999J0D01*
G01*
X126763199Y-96584800D01*
G75*
G02*
X126712200Y-96533801I0J50999D01*
G01*
G37*
G36*
G01*
X123907401Y-100449800D02*
X123257399Y-100449800D01*
G75*
G02*
X123206400Y-100398801I0J50999D01*
G01*
X123206400Y-99338799D01*
G75*
G02*
X123257399Y-99287800I50999J0D01*
G01*
X123907401Y-99287800D01*
G75*
G02*
X123958400Y-99338799I0J-50999D01*
G01*
X123958400Y-100398801D01*
G75*
G02*
X123907401Y-100449800I-50999J0D01*
G01*
G37*
G36*
G01*
X125807401Y-100449800D02*
X125157399Y-100449800D01*
G75*
G02*
X125106400Y-100398801I0J50999D01*
G01*
X125106400Y-99338799D01*
G75*
G02*
X125157399Y-99287800I50999J0D01*
G01*
X125807401Y-99287800D01*
G75*
G02*
X125858400Y-99338799I0J-50999D01*
G01*
X125858400Y-100398801D01*
G75*
G02*
X125807401Y-100449800I-50999J0D01*
G01*
G37*
G36*
G01*
X125807401Y-102649800D02*
X125157399Y-102649800D01*
G75*
G02*
X125106400Y-102598801I0J50999D01*
G01*
X125106400Y-101538799D01*
G75*
G02*
X125157399Y-101487800I50999J0D01*
G01*
X125807401Y-101487800D01*
G75*
G02*
X125858400Y-101538799I0J-50999D01*
G01*
X125858400Y-102598801D01*
G75*
G02*
X125807401Y-102649800I-50999J0D01*
G01*
G37*
G36*
G01*
X124857401Y-102649800D02*
X124207399Y-102649800D01*
G75*
G02*
X124156400Y-102598801I0J50999D01*
G01*
X124156400Y-101538799D01*
G75*
G02*
X124207399Y-101487800I50999J0D01*
G01*
X124857401Y-101487800D01*
G75*
G02*
X124908400Y-101538799I0J-50999D01*
G01*
X124908400Y-102598801D01*
G75*
G02*
X124857401Y-102649800I-50999J0D01*
G01*
G37*
G36*
G01*
X123907401Y-102649800D02*
X123257399Y-102649800D01*
G75*
G02*
X123206400Y-102598801I0J50999D01*
G01*
X123206400Y-101538799D01*
G75*
G02*
X123257399Y-101487800I50999J0D01*
G01*
X123907401Y-101487800D01*
G75*
G02*
X123958400Y-101538799I0J-50999D01*
G01*
X123958400Y-102598801D01*
G75*
G02*
X123907401Y-102649800I-50999J0D01*
G01*
G37*
G36*
G01*
X127615801Y-104379000D02*
X126965799Y-104379000D01*
G75*
G02*
X126914800Y-104328001I0J50999D01*
G01*
X126914800Y-103267999D01*
G75*
G02*
X126965799Y-103217000I50999J0D01*
G01*
X127615801Y-103217000D01*
G75*
G02*
X127666800Y-103267999I0J-50999D01*
G01*
X127666800Y-104328001D01*
G75*
G02*
X127615801Y-104379000I-50999J0D01*
G01*
G37*
G36*
G01*
X129515801Y-104379000D02*
X128865799Y-104379000D01*
G75*
G02*
X128814800Y-104328001I0J50999D01*
G01*
X128814800Y-103267999D01*
G75*
G02*
X128865799Y-103217000I50999J0D01*
G01*
X129515801Y-103217000D01*
G75*
G02*
X129566800Y-103267999I0J-50999D01*
G01*
X129566800Y-104328001D01*
G75*
G02*
X129515801Y-104379000I-50999J0D01*
G01*
G37*
G36*
G01*
X129515801Y-106579000D02*
X128865799Y-106579000D01*
G75*
G02*
X128814800Y-106528001I0J50999D01*
G01*
X128814800Y-105467999D01*
G75*
G02*
X128865799Y-105417000I50999J0D01*
G01*
X129515801Y-105417000D01*
G75*
G02*
X129566800Y-105467999I0J-50999D01*
G01*
X129566800Y-106528001D01*
G75*
G02*
X129515801Y-106579000I-50999J0D01*
G01*
G37*
G36*
G01*
X128565801Y-106579000D02*
X127915799Y-106579000D01*
G75*
G02*
X127864800Y-106528001I0J50999D01*
G01*
X127864800Y-105467999D01*
G75*
G02*
X127915799Y-105417000I50999J0D01*
G01*
X128565801Y-105417000D01*
G75*
G02*
X128616800Y-105467999I0J-50999D01*
G01*
X128616800Y-106528001D01*
G75*
G02*
X128565801Y-106579000I-50999J0D01*
G01*
G37*
G36*
G01*
X127615801Y-106579000D02*
X126965799Y-106579000D01*
G75*
G02*
X126914800Y-106528001I0J50999D01*
G01*
X126914800Y-105467999D01*
G75*
G02*
X126965799Y-105417000I50999J0D01*
G01*
X127615801Y-105417000D01*
G75*
G02*
X127666800Y-105467999I0J-50999D01*
G01*
X127666800Y-106528001D01*
G75*
G02*
X127615801Y-106579000I-50999J0D01*
G01*
G37*
G36*
G01*
X120249801Y-104361400D02*
X119599799Y-104361400D01*
G75*
G02*
X119548800Y-104310401I0J50999D01*
G01*
X119548800Y-103250399D01*
G75*
G02*
X119599799Y-103199400I50999J0D01*
G01*
X120249801Y-103199400D01*
G75*
G02*
X120300800Y-103250399I0J-50999D01*
G01*
X120300800Y-104310401D01*
G75*
G02*
X120249801Y-104361400I-50999J0D01*
G01*
G37*
G36*
G01*
X122149801Y-104361400D02*
X121499799Y-104361400D01*
G75*
G02*
X121448800Y-104310401I0J50999D01*
G01*
X121448800Y-103250399D01*
G75*
G02*
X121499799Y-103199400I50999J0D01*
G01*
X122149801Y-103199400D01*
G75*
G02*
X122200800Y-103250399I0J-50999D01*
G01*
X122200800Y-104310401D01*
G75*
G02*
X122149801Y-104361400I-50999J0D01*
G01*
G37*
G36*
G01*
X122149801Y-106561400D02*
X121499799Y-106561400D01*
G75*
G02*
X121448800Y-106510401I0J50999D01*
G01*
X121448800Y-105450399D01*
G75*
G02*
X121499799Y-105399400I50999J0D01*
G01*
X122149801Y-105399400D01*
G75*
G02*
X122200800Y-105450399I0J-50999D01*
G01*
X122200800Y-106510401D01*
G75*
G02*
X122149801Y-106561400I-50999J0D01*
G01*
G37*
G36*
G01*
X121199801Y-106561400D02*
X120549799Y-106561400D01*
G75*
G02*
X120498800Y-106510401I0J50999D01*
G01*
X120498800Y-105450399D01*
G75*
G02*
X120549799Y-105399400I50999J0D01*
G01*
X121199801Y-105399400D01*
G75*
G02*
X121250800Y-105450399I0J-50999D01*
G01*
X121250800Y-106510401D01*
G75*
G02*
X121199801Y-106561400I-50999J0D01*
G01*
G37*
G36*
G01*
X120249801Y-106561400D02*
X119599799Y-106561400D01*
G75*
G02*
X119548800Y-106510401I0J50999D01*
G01*
X119548800Y-105450399D01*
G75*
G02*
X119599799Y-105399400I50999J0D01*
G01*
X120249801Y-105399400D01*
G75*
G02*
X120300800Y-105450399I0J-50999D01*
G01*
X120300800Y-106510401D01*
G75*
G02*
X120249801Y-106561400I-50999J0D01*
G01*
G37*
G36*
G01*
X112740200Y-100140601D02*
X112740200Y-99490599D01*
G75*
G02*
X112791199Y-99439600I50999J0D01*
G01*
X113851201Y-99439600D01*
G75*
G02*
X113902200Y-99490599I0J-50999D01*
G01*
X113902200Y-100140601D01*
G75*
G02*
X113851201Y-100191600I-50999J0D01*
G01*
X112791199Y-100191600D01*
G75*
G02*
X112740200Y-100140601I0J50999D01*
G01*
G37*
G36*
G01*
X112740200Y-102040601D02*
X112740200Y-101390599D01*
G75*
G02*
X112791199Y-101339600I50999J0D01*
G01*
X113851201Y-101339600D01*
G75*
G02*
X113902200Y-101390599I0J-50999D01*
G01*
X113902200Y-102040601D01*
G75*
G02*
X113851201Y-102091600I-50999J0D01*
G01*
X112791199Y-102091600D01*
G75*
G02*
X112740200Y-102040601I0J50999D01*
G01*
G37*
G36*
G01*
X110540200Y-102040601D02*
X110540200Y-101390599D01*
G75*
G02*
X110591199Y-101339600I50999J0D01*
G01*
X111651201Y-101339600D01*
G75*
G02*
X111702200Y-101390599I0J-50999D01*
G01*
X111702200Y-102040601D01*
G75*
G02*
X111651201Y-102091600I-50999J0D01*
G01*
X110591199Y-102091600D01*
G75*
G02*
X110540200Y-102040601I0J50999D01*
G01*
G37*
G36*
G01*
X110540200Y-101090601D02*
X110540200Y-100440599D01*
G75*
G02*
X110591199Y-100389600I50999J0D01*
G01*
X111651201Y-100389600D01*
G75*
G02*
X111702200Y-100440599I0J-50999D01*
G01*
X111702200Y-101090601D01*
G75*
G02*
X111651201Y-101141600I-50999J0D01*
G01*
X110591199Y-101141600D01*
G75*
G02*
X110540200Y-101090601I0J50999D01*
G01*
G37*
G36*
G01*
X110540200Y-100140601D02*
X110540200Y-99490599D01*
G75*
G02*
X110591199Y-99439600I50999J0D01*
G01*
X111651201Y-99439600D01*
G75*
G02*
X111702200Y-99490599I0J-50999D01*
G01*
X111702200Y-100140601D01*
G75*
G02*
X111651201Y-100191600I-50999J0D01*
G01*
X110591199Y-100191600D01*
G75*
G02*
X110540200Y-100140601I0J50999D01*
G01*
G37*
G36*
G01*
X123958201Y-108273000D02*
X123308199Y-108273000D01*
G75*
G02*
X123257200Y-108222001I0J50999D01*
G01*
X123257200Y-107161999D01*
G75*
G02*
X123308199Y-107111000I50999J0D01*
G01*
X123958201Y-107111000D01*
G75*
G02*
X124009200Y-107161999I0J-50999D01*
G01*
X124009200Y-108222001D01*
G75*
G02*
X123958201Y-108273000I-50999J0D01*
G01*
G37*
G36*
G01*
X125858201Y-108273000D02*
X125208199Y-108273000D01*
G75*
G02*
X125157200Y-108222001I0J50999D01*
G01*
X125157200Y-107161999D01*
G75*
G02*
X125208199Y-107111000I50999J0D01*
G01*
X125858201Y-107111000D01*
G75*
G02*
X125909200Y-107161999I0J-50999D01*
G01*
X125909200Y-108222001D01*
G75*
G02*
X125858201Y-108273000I-50999J0D01*
G01*
G37*
G36*
G01*
X125858201Y-110473000D02*
X125208199Y-110473000D01*
G75*
G02*
X125157200Y-110422001I0J50999D01*
G01*
X125157200Y-109361999D01*
G75*
G02*
X125208199Y-109311000I50999J0D01*
G01*
X125858201Y-109311000D01*
G75*
G02*
X125909200Y-109361999I0J-50999D01*
G01*
X125909200Y-110422001D01*
G75*
G02*
X125858201Y-110473000I-50999J0D01*
G01*
G37*
G36*
G01*
X124908201Y-110473000D02*
X124258199Y-110473000D01*
G75*
G02*
X124207200Y-110422001I0J50999D01*
G01*
X124207200Y-109361999D01*
G75*
G02*
X124258199Y-109311000I50999J0D01*
G01*
X124908201Y-109311000D01*
G75*
G02*
X124959200Y-109361999I0J-50999D01*
G01*
X124959200Y-110422001D01*
G75*
G02*
X124908201Y-110473000I-50999J0D01*
G01*
G37*
G36*
G01*
X123958201Y-110473000D02*
X123308199Y-110473000D01*
G75*
G02*
X123257200Y-110422001I0J50999D01*
G01*
X123257200Y-109361999D01*
G75*
G02*
X123308199Y-109311000I50999J0D01*
G01*
X123958201Y-109311000D01*
G75*
G02*
X124009200Y-109361999I0J-50999D01*
G01*
X124009200Y-110422001D01*
G75*
G02*
X123958201Y-110473000I-50999J0D01*
G01*
G37*
D12*
X129964400Y-124743200D03*
X123164400Y-124743200D03*
G36*
G01*
X128388400Y-123243200D02*
X128388400Y-120743200D01*
G75*
G02*
X128439400Y-120692200I51000J0D01*
G01*
X129689400Y-120692200D01*
G75*
G02*
X129740400Y-120743200I0J-51000D01*
G01*
X129740400Y-123243200D01*
G75*
G02*
X129689400Y-123294200I-51000J0D01*
G01*
X128439400Y-123294200D01*
G75*
G02*
X128388400Y-123243200I0J51000D01*
G01*
G37*
G36*
G01*
X125888400Y-123243200D02*
X125888400Y-120743200D01*
G75*
G02*
X125939400Y-120692200I51000J0D01*
G01*
X127189400Y-120692200D01*
G75*
G02*
X127240400Y-120743200I0J-51000D01*
G01*
X127240400Y-123243200D01*
G75*
G02*
X127189400Y-123294200I-51000J0D01*
G01*
X125939400Y-123294200D01*
G75*
G02*
X125888400Y-123243200I0J51000D01*
G01*
G37*
G36*
G01*
X123388400Y-123243200D02*
X123388400Y-120743200D01*
G75*
G02*
X123439400Y-120692200I51000J0D01*
G01*
X124689400Y-120692200D01*
G75*
G02*
X124740400Y-120743200I0J-51000D01*
G01*
X124740400Y-123243200D01*
G75*
G02*
X124689400Y-123294200I-51000J0D01*
G01*
X123439400Y-123294200D01*
G75*
G02*
X123388400Y-123243200I0J51000D01*
G01*
G37*
G36*
G01*
X134484800Y-120522400D02*
X134484800Y-121822400D01*
G75*
G02*
X134433800Y-121873400I-51000J0D01*
G01*
X132883800Y-121873400D01*
G75*
G02*
X132832800Y-121822400I0J51000D01*
G01*
X132832800Y-120522400D01*
G75*
G02*
X132883800Y-120471400I51000J0D01*
G01*
X134433800Y-120471400D01*
G75*
G02*
X134484800Y-120522400I0J-51000D01*
G01*
G37*
G36*
G01*
X134484800Y-125022400D02*
X134484800Y-126322400D01*
G75*
G02*
X134433800Y-126373400I-51000J0D01*
G01*
X132883800Y-126373400D01*
G75*
G02*
X132832800Y-126322400I0J51000D01*
G01*
X132832800Y-125022400D01*
G75*
G02*
X132883800Y-124971400I51000J0D01*
G01*
X134433800Y-124971400D01*
G75*
G02*
X134484800Y-125022400I0J-51000D01*
G01*
G37*
G36*
G01*
X142444800Y-125022400D02*
X142444800Y-126322400D01*
G75*
G02*
X142393800Y-126373400I-51000J0D01*
G01*
X140843800Y-126373400D01*
G75*
G02*
X140792800Y-126322400I0J51000D01*
G01*
X140792800Y-125022400D01*
G75*
G02*
X140843800Y-124971400I51000J0D01*
G01*
X142393800Y-124971400D01*
G75*
G02*
X142444800Y-125022400I0J-51000D01*
G01*
G37*
G36*
G01*
X142444800Y-120522400D02*
X142444800Y-121822400D01*
G75*
G02*
X142393800Y-121873400I-51000J0D01*
G01*
X140843800Y-121873400D01*
G75*
G02*
X140792800Y-121822400I0J51000D01*
G01*
X140792800Y-120522400D01*
G75*
G02*
X140843800Y-120471400I51000J0D01*
G01*
X142393800Y-120471400D01*
G75*
G02*
X142444800Y-120522400I0J-51000D01*
G01*
G37*
D13*
X112746800Y-122406400D03*
X115286800Y-119866400D03*
X117826800Y-122406400D03*
G36*
G01*
X122242100Y-112126400D02*
X121641100Y-112126400D01*
G75*
G02*
X121415600Y-111900900I0J225500D01*
G01*
X121415600Y-111449900D01*
G75*
G02*
X121641100Y-111224400I225500J0D01*
G01*
X122242100Y-111224400D01*
G75*
G02*
X122467600Y-111449900I0J-225500D01*
G01*
X122467600Y-111900900D01*
G75*
G02*
X122242100Y-112126400I-225500J0D01*
G01*
G37*
G36*
G01*
X122242100Y-113776400D02*
X121641100Y-113776400D01*
G75*
G02*
X121415600Y-113550900I0J225500D01*
G01*
X121415600Y-113099900D01*
G75*
G02*
X121641100Y-112874400I225500J0D01*
G01*
X122242100Y-112874400D01*
G75*
G02*
X122467600Y-113099900I0J-225500D01*
G01*
X122467600Y-113550900D01*
G75*
G02*
X122242100Y-113776400I-225500J0D01*
G01*
G37*
G36*
G01*
X138904500Y-105788600D02*
X138303500Y-105788600D01*
G75*
G02*
X138078000Y-105563100I0J225500D01*
G01*
X138078000Y-105112100D01*
G75*
G02*
X138303500Y-104886600I225500J0D01*
G01*
X138904500Y-104886600D01*
G75*
G02*
X139130000Y-105112100I0J-225500D01*
G01*
X139130000Y-105563100D01*
G75*
G02*
X138904500Y-105788600I-225500J0D01*
G01*
G37*
G36*
G01*
X138904500Y-107438600D02*
X138303500Y-107438600D01*
G75*
G02*
X138078000Y-107213100I0J225500D01*
G01*
X138078000Y-106762100D01*
G75*
G02*
X138303500Y-106536600I225500J0D01*
G01*
X138904500Y-106536600D01*
G75*
G02*
X139130000Y-106762100I0J-225500D01*
G01*
X139130000Y-107213100D01*
G75*
G02*
X138904500Y-107438600I-225500J0D01*
G01*
G37*
G36*
G01*
X124678600Y-117178300D02*
X124678600Y-117779300D01*
G75*
G02*
X124453100Y-118004800I-225500J0D01*
G01*
X124002100Y-118004800D01*
G75*
G02*
X123776600Y-117779300I0J225500D01*
G01*
X123776600Y-117178300D01*
G75*
G02*
X124002100Y-116952800I225500J0D01*
G01*
X124453100Y-116952800D01*
G75*
G02*
X124678600Y-117178300I0J-225500D01*
G01*
G37*
G36*
G01*
X126328600Y-117178300D02*
X126328600Y-117779300D01*
G75*
G02*
X126103100Y-118004800I-225500J0D01*
G01*
X125652100Y-118004800D01*
G75*
G02*
X125426600Y-117779300I0J225500D01*
G01*
X125426600Y-117178300D01*
G75*
G02*
X125652100Y-116952800I225500J0D01*
G01*
X126103100Y-116952800D01*
G75*
G02*
X126328600Y-117178300I0J-225500D01*
G01*
G37*
G36*
G01*
X127777400Y-117178300D02*
X127777400Y-117779300D01*
G75*
G02*
X127551900Y-118004800I-225500J0D01*
G01*
X127100900Y-118004800D01*
G75*
G02*
X126875400Y-117779300I0J225500D01*
G01*
X126875400Y-117178300D01*
G75*
G02*
X127100900Y-116952800I225500J0D01*
G01*
X127551900Y-116952800D01*
G75*
G02*
X127777400Y-117178300I0J-225500D01*
G01*
G37*
G36*
G01*
X129427400Y-117178300D02*
X129427400Y-117779300D01*
G75*
G02*
X129201900Y-118004800I-225500J0D01*
G01*
X128750900Y-118004800D01*
G75*
G02*
X128525400Y-117779300I0J225500D01*
G01*
X128525400Y-117178300D01*
G75*
G02*
X128750900Y-116952800I225500J0D01*
G01*
X129201900Y-116952800D01*
G75*
G02*
X129427400Y-117178300I0J-225500D01*
G01*
G37*
G36*
G01*
X144145500Y-112823600D02*
X144746500Y-112823600D01*
G75*
G02*
X144972000Y-113049100I0J-225500D01*
G01*
X144972000Y-113500100D01*
G75*
G02*
X144746500Y-113725600I-225500J0D01*
G01*
X144145500Y-113725600D01*
G75*
G02*
X143920000Y-113500100I0J225500D01*
G01*
X143920000Y-113049100D01*
G75*
G02*
X144145500Y-112823600I225500J0D01*
G01*
G37*
G36*
G01*
X144145500Y-111173600D02*
X144746500Y-111173600D01*
G75*
G02*
X144972000Y-111399100I0J-225500D01*
G01*
X144972000Y-111850100D01*
G75*
G02*
X144746500Y-112075600I-225500J0D01*
G01*
X144145500Y-112075600D01*
G75*
G02*
X143920000Y-111850100I0J225500D01*
G01*
X143920000Y-111399100D01*
G75*
G02*
X144145500Y-111173600I225500J0D01*
G01*
G37*
G36*
G01*
X135602500Y-112063400D02*
X135001500Y-112063400D01*
G75*
G02*
X134776000Y-111837900I0J225500D01*
G01*
X134776000Y-111386900D01*
G75*
G02*
X135001500Y-111161400I225500J0D01*
G01*
X135602500Y-111161400D01*
G75*
G02*
X135828000Y-111386900I0J-225500D01*
G01*
X135828000Y-111837900D01*
G75*
G02*
X135602500Y-112063400I-225500J0D01*
G01*
G37*
G36*
G01*
X135602500Y-113713400D02*
X135001500Y-113713400D01*
G75*
G02*
X134776000Y-113487900I0J225500D01*
G01*
X134776000Y-113036900D01*
G75*
G02*
X135001500Y-112811400I225500J0D01*
G01*
X135602500Y-112811400D01*
G75*
G02*
X135828000Y-113036900I0J-225500D01*
G01*
X135828000Y-113487900D01*
G75*
G02*
X135602500Y-113713400I-225500J0D01*
G01*
G37*
G36*
G01*
X138014600Y-117127500D02*
X138014600Y-117728500D01*
G75*
G02*
X137789100Y-117954000I-225500J0D01*
G01*
X137338100Y-117954000D01*
G75*
G02*
X137112600Y-117728500I0J225500D01*
G01*
X137112600Y-117127500D01*
G75*
G02*
X137338100Y-116902000I225500J0D01*
G01*
X137789100Y-116902000D01*
G75*
G02*
X138014600Y-117127500I0J-225500D01*
G01*
G37*
G36*
G01*
X139664600Y-117127500D02*
X139664600Y-117728500D01*
G75*
G02*
X139439100Y-117954000I-225500J0D01*
G01*
X138988100Y-117954000D01*
G75*
G02*
X138762600Y-117728500I0J225500D01*
G01*
X138762600Y-117127500D01*
G75*
G02*
X138988100Y-116902000I225500J0D01*
G01*
X139439100Y-116902000D01*
G75*
G02*
X139664600Y-117127500I0J-225500D01*
G01*
G37*
G36*
G01*
X118127300Y-115174400D02*
X117526300Y-115174400D01*
G75*
G02*
X117300800Y-114948900I0J225500D01*
G01*
X117300800Y-114497900D01*
G75*
G02*
X117526300Y-114272400I225500J0D01*
G01*
X118127300Y-114272400D01*
G75*
G02*
X118352800Y-114497900I0J-225500D01*
G01*
X118352800Y-114948900D01*
G75*
G02*
X118127300Y-115174400I-225500J0D01*
G01*
G37*
G36*
G01*
X118127300Y-116824400D02*
X117526300Y-116824400D01*
G75*
G02*
X117300800Y-116598900I0J225500D01*
G01*
X117300800Y-116147900D01*
G75*
G02*
X117526300Y-115922400I225500J0D01*
G01*
X118127300Y-115922400D01*
G75*
G02*
X118352800Y-116147900I0J-225500D01*
G01*
X118352800Y-116598900D01*
G75*
G02*
X118127300Y-116824400I-225500J0D01*
G01*
G37*
G36*
G01*
X108983300Y-112075600D02*
X108382300Y-112075600D01*
G75*
G02*
X108156800Y-111850100I0J225500D01*
G01*
X108156800Y-111399100D01*
G75*
G02*
X108382300Y-111173600I225500J0D01*
G01*
X108983300Y-111173600D01*
G75*
G02*
X109208800Y-111399100I0J-225500D01*
G01*
X109208800Y-111850100D01*
G75*
G02*
X108983300Y-112075600I-225500J0D01*
G01*
G37*
G36*
G01*
X108983300Y-113725600D02*
X108382300Y-113725600D01*
G75*
G02*
X108156800Y-113500100I0J225500D01*
G01*
X108156800Y-113049100D01*
G75*
G02*
X108382300Y-112823600I225500J0D01*
G01*
X108983300Y-112823600D01*
G75*
G02*
X109208800Y-113049100I0J-225500D01*
G01*
X109208800Y-113500100D01*
G75*
G02*
X108983300Y-113725600I-225500J0D01*
G01*
G37*
G36*
G01*
X117526300Y-112862200D02*
X118127300Y-112862200D01*
G75*
G02*
X118352800Y-113087700I0J-225500D01*
G01*
X118352800Y-113538700D01*
G75*
G02*
X118127300Y-113764200I-225500J0D01*
G01*
X117526300Y-113764200D01*
G75*
G02*
X117300800Y-113538700I0J225500D01*
G01*
X117300800Y-113087700D01*
G75*
G02*
X117526300Y-112862200I225500J0D01*
G01*
G37*
G36*
G01*
X117526300Y-111212200D02*
X118127300Y-111212200D01*
G75*
G02*
X118352800Y-111437700I0J-225500D01*
G01*
X118352800Y-111888700D01*
G75*
G02*
X118127300Y-112114200I-225500J0D01*
G01*
X117526300Y-112114200D01*
G75*
G02*
X117300800Y-111888700I0J225500D01*
G01*
X117300800Y-111437700D01*
G75*
G02*
X117526300Y-111212200I225500J0D01*
G01*
G37*
D12*
X118166800Y-81664800D03*
X122566800Y-81664800D03*
G36*
G01*
X119067800Y-83014800D02*
X119067800Y-85514800D01*
G75*
G02*
X119016800Y-85565800I-51000J0D01*
G01*
X118516800Y-85565800D01*
G75*
G02*
X118465800Y-85514800I0J51000D01*
G01*
X118465800Y-83014800D01*
G75*
G02*
X118516800Y-82963800I51000J0D01*
G01*
X119016800Y-82963800D01*
G75*
G02*
X119067800Y-83014800I0J-51000D01*
G01*
G37*
G36*
G01*
X119867800Y-83014800D02*
X119867800Y-85514800D01*
G75*
G02*
X119816800Y-85565800I-51000J0D01*
G01*
X119316800Y-85565800D01*
G75*
G02*
X119265800Y-85514800I0J51000D01*
G01*
X119265800Y-83014800D01*
G75*
G02*
X119316800Y-82963800I51000J0D01*
G01*
X119816800Y-82963800D01*
G75*
G02*
X119867800Y-83014800I0J-51000D01*
G01*
G37*
G36*
G01*
X120667800Y-83014800D02*
X120667800Y-85514800D01*
G75*
G02*
X120616800Y-85565800I-51000J0D01*
G01*
X120116800Y-85565800D01*
G75*
G02*
X120065800Y-85514800I0J51000D01*
G01*
X120065800Y-83014800D01*
G75*
G02*
X120116800Y-82963800I51000J0D01*
G01*
X120616800Y-82963800D01*
G75*
G02*
X120667800Y-83014800I0J-51000D01*
G01*
G37*
G36*
G01*
X121467800Y-83014800D02*
X121467800Y-85514800D01*
G75*
G02*
X121416800Y-85565800I-51000J0D01*
G01*
X120916800Y-85565800D01*
G75*
G02*
X120865800Y-85514800I0J51000D01*
G01*
X120865800Y-83014800D01*
G75*
G02*
X120916800Y-82963800I51000J0D01*
G01*
X121416800Y-82963800D01*
G75*
G02*
X121467800Y-83014800I0J-51000D01*
G01*
G37*
G36*
G01*
X122267800Y-83014800D02*
X122267800Y-85514800D01*
G75*
G02*
X122216800Y-85565800I-51000J0D01*
G01*
X121716800Y-85565800D01*
G75*
G02*
X121665800Y-85514800I0J51000D01*
G01*
X121665800Y-83014800D01*
G75*
G02*
X121716800Y-82963800I51000J0D01*
G01*
X122216800Y-82963800D01*
G75*
G02*
X122267800Y-83014800I0J-51000D01*
G01*
G37*
G36*
G01*
X117017800Y-83014800D02*
X117017800Y-85514800D01*
G75*
G02*
X116966800Y-85565800I-51000J0D01*
G01*
X114966800Y-85565800D01*
G75*
G02*
X114915800Y-85514800I0J51000D01*
G01*
X114915800Y-83014800D01*
G75*
G02*
X114966800Y-82963800I51000J0D01*
G01*
X116966800Y-82963800D01*
G75*
G02*
X117017800Y-83014800I0J-51000D01*
G01*
G37*
G36*
G01*
X125817800Y-83014800D02*
X125817800Y-85514800D01*
G75*
G02*
X125766800Y-85565800I-51000J0D01*
G01*
X123766800Y-85565800D01*
G75*
G02*
X123715800Y-85514800I0J51000D01*
G01*
X123715800Y-83014800D01*
G75*
G02*
X123766800Y-82963800I51000J0D01*
G01*
X125766800Y-82963800D01*
G75*
G02*
X125817800Y-83014800I0J-51000D01*
G01*
G37*
G36*
G01*
X117017800Y-77514800D02*
X117017800Y-80014800D01*
G75*
G02*
X116966800Y-80065800I-51000J0D01*
G01*
X114966800Y-80065800D01*
G75*
G02*
X114915800Y-80014800I0J51000D01*
G01*
X114915800Y-77514800D01*
G75*
G02*
X114966800Y-77463800I51000J0D01*
G01*
X116966800Y-77463800D01*
G75*
G02*
X117017800Y-77514800I0J-51000D01*
G01*
G37*
G36*
G01*
X125817800Y-77514800D02*
X125817800Y-80014800D01*
G75*
G02*
X125766800Y-80065800I-51000J0D01*
G01*
X123766800Y-80065800D01*
G75*
G02*
X123715800Y-80014800I0J51000D01*
G01*
X123715800Y-77514800D01*
G75*
G02*
X123766800Y-77463800I51000J0D01*
G01*
X125766800Y-77463800D01*
G75*
G02*
X125817800Y-77514800I0J-51000D01*
G01*
G37*
D14*
X146579600Y-98174800D03*
X146579600Y-100714800D03*
X146579600Y-103254800D03*
G36*
G01*
X147480600Y-104944800D02*
X147480600Y-106644800D01*
G75*
G02*
X147429600Y-106695800I-51000J0D01*
G01*
X145729600Y-106695800D01*
G75*
G02*
X145678600Y-106644800I0J51000D01*
G01*
X145678600Y-104944800D01*
G75*
G02*
X145729600Y-104893800I51000J0D01*
G01*
X147429600Y-104893800D01*
G75*
G02*
X147480600Y-104944800I0J-51000D01*
G01*
G37*
X106701600Y-100714800D03*
G36*
G01*
X107602600Y-102404800D02*
X107602600Y-104104800D01*
G75*
G02*
X107551600Y-104155800I-51000J0D01*
G01*
X105851600Y-104155800D01*
G75*
G02*
X105800600Y-104104800I0J51000D01*
G01*
X105800600Y-102404800D01*
G75*
G02*
X105851600Y-102353800I51000J0D01*
G01*
X107551600Y-102353800D01*
G75*
G02*
X107602600Y-102404800I0J-51000D01*
G01*
G37*
D10*
X108297056Y-80302944D03*
X106600000Y-79600000D03*
X104902944Y-80302944D03*
X104200000Y-82000000D03*
X104902944Y-83697056D03*
X106600000Y-84400000D03*
X108297056Y-83697056D03*
X109000000Y-82000000D03*
D11*
X106600000Y-82000000D03*
G36*
G01*
X138885750Y-102803400D02*
X138322250Y-102803400D01*
G75*
G02*
X138078000Y-102559150I0J244250D01*
G01*
X138078000Y-102070650D01*
G75*
G02*
X138322250Y-101826400I244250J0D01*
G01*
X138885750Y-101826400D01*
G75*
G02*
X139130000Y-102070650I0J-244250D01*
G01*
X139130000Y-102559150D01*
G75*
G02*
X138885750Y-102803400I-244250J0D01*
G01*
G37*
G36*
G01*
X138885750Y-104378400D02*
X138322250Y-104378400D01*
G75*
G02*
X138078000Y-104134150I0J244250D01*
G01*
X138078000Y-103645650D01*
G75*
G02*
X138322250Y-103401400I244250J0D01*
G01*
X138885750Y-103401400D01*
G75*
G02*
X139130000Y-103645650I0J-244250D01*
G01*
X139130000Y-104134150D01*
G75*
G02*
X138885750Y-104378400I-244250J0D01*
G01*
G37*
G36*
G01*
X121659850Y-115847400D02*
X122223350Y-115847400D01*
G75*
G02*
X122467600Y-116091650I0J-244250D01*
G01*
X122467600Y-116580150D01*
G75*
G02*
X122223350Y-116824400I-244250J0D01*
G01*
X121659850Y-116824400D01*
G75*
G02*
X121415600Y-116580150I0J244250D01*
G01*
X121415600Y-116091650D01*
G75*
G02*
X121659850Y-115847400I244250J0D01*
G01*
G37*
G36*
G01*
X121659850Y-114272400D02*
X122223350Y-114272400D01*
G75*
G02*
X122467600Y-114516650I0J-244250D01*
G01*
X122467600Y-115005150D01*
G75*
G02*
X122223350Y-115249400I-244250J0D01*
G01*
X121659850Y-115249400D01*
G75*
G02*
X121415600Y-115005150I0J244250D01*
G01*
X121415600Y-114516650D01*
G75*
G02*
X121659850Y-114272400I244250J0D01*
G01*
G37*
G36*
G01*
X135020250Y-115796600D02*
X135583750Y-115796600D01*
G75*
G02*
X135828000Y-116040850I0J-244250D01*
G01*
X135828000Y-116529350D01*
G75*
G02*
X135583750Y-116773600I-244250J0D01*
G01*
X135020250Y-116773600D01*
G75*
G02*
X134776000Y-116529350I0J244250D01*
G01*
X134776000Y-116040850D01*
G75*
G02*
X135020250Y-115796600I244250J0D01*
G01*
G37*
G36*
G01*
X135020250Y-114221600D02*
X135583750Y-114221600D01*
G75*
G02*
X135828000Y-114465850I0J-244250D01*
G01*
X135828000Y-114954350D01*
G75*
G02*
X135583750Y-115198600I-244250J0D01*
G01*
X135020250Y-115198600D01*
G75*
G02*
X134776000Y-114954350I0J244250D01*
G01*
X134776000Y-114465850D01*
G75*
G02*
X135020250Y-114221600I244250J0D01*
G01*
G37*
G36*
G01*
X108401050Y-115821900D02*
X108964550Y-115821900D01*
G75*
G02*
X109208800Y-116066150I0J-244250D01*
G01*
X109208800Y-116554650D01*
G75*
G02*
X108964550Y-116798900I-244250J0D01*
G01*
X108401050Y-116798900D01*
G75*
G02*
X108156800Y-116554650I0J244250D01*
G01*
X108156800Y-116066150D01*
G75*
G02*
X108401050Y-115821900I244250J0D01*
G01*
G37*
G36*
G01*
X108401050Y-114246900D02*
X108964550Y-114246900D01*
G75*
G02*
X109208800Y-114491150I0J-244250D01*
G01*
X109208800Y-114979650D01*
G75*
G02*
X108964550Y-115223900I-244250J0D01*
G01*
X108401050Y-115223900D01*
G75*
G02*
X108156800Y-114979650I0J244250D01*
G01*
X108156800Y-114491150D01*
G75*
G02*
X108401050Y-114246900I244250J0D01*
G01*
G37*
G36*
G01*
X144170500Y-115771600D02*
X144721500Y-115771600D01*
G75*
G02*
X144972000Y-116022100I0J-250500D01*
G01*
X144972000Y-116523100D01*
G75*
G02*
X144721500Y-116773600I-250500J0D01*
G01*
X144170500Y-116773600D01*
G75*
G02*
X143920000Y-116523100I0J250500D01*
G01*
X143920000Y-116022100D01*
G75*
G02*
X144170500Y-115771600I250500J0D01*
G01*
G37*
G36*
G01*
X144170500Y-114221600D02*
X144721500Y-114221600D01*
G75*
G02*
X144972000Y-114472100I0J-250500D01*
G01*
X144972000Y-114973100D01*
G75*
G02*
X144721500Y-115223600I-250500J0D01*
G01*
X144170500Y-115223600D01*
G75*
G02*
X143920000Y-114973100I0J250500D01*
G01*
X143920000Y-114472100D01*
G75*
G02*
X144170500Y-114221600I250500J0D01*
G01*
G37*
G36*
G01*
X111469800Y-117152500D02*
X111469800Y-117703500D01*
G75*
G02*
X111219300Y-117954000I-250500J0D01*
G01*
X110718300Y-117954000D01*
G75*
G02*
X110467800Y-117703500I0J250500D01*
G01*
X110467800Y-117152500D01*
G75*
G02*
X110718300Y-116902000I250500J0D01*
G01*
X111219300Y-116902000D01*
G75*
G02*
X111469800Y-117152500I0J-250500D01*
G01*
G37*
G36*
G01*
X113019800Y-117152500D02*
X113019800Y-117703500D01*
G75*
G02*
X112769300Y-117954000I-250500J0D01*
G01*
X112268300Y-117954000D01*
G75*
G02*
X112017800Y-117703500I0J250500D01*
G01*
X112017800Y-117152500D01*
G75*
G02*
X112268300Y-116902000I250500J0D01*
G01*
X112769300Y-116902000D01*
G75*
G02*
X113019800Y-117152500I0J-250500D01*
G01*
G37*
G36*
G01*
X120892600Y-86621700D02*
X120892600Y-87172700D01*
G75*
G02*
X120642100Y-87423200I-250500J0D01*
G01*
X120141100Y-87423200D01*
G75*
G02*
X119890600Y-87172700I0J250500D01*
G01*
X119890600Y-86621700D01*
G75*
G02*
X120141100Y-86371200I250500J0D01*
G01*
X120642100Y-86371200D01*
G75*
G02*
X120892600Y-86621700I0J-250500D01*
G01*
G37*
G36*
G01*
X122442600Y-86621700D02*
X122442600Y-87172700D01*
G75*
G02*
X122192100Y-87423200I-250500J0D01*
G01*
X121691100Y-87423200D01*
G75*
G02*
X121440600Y-87172700I0J250500D01*
G01*
X121440600Y-86621700D01*
G75*
G02*
X121691100Y-86371200I250500J0D01*
G01*
X122192100Y-86371200D01*
G75*
G02*
X122442600Y-86621700I0J-250500D01*
G01*
G37*
G36*
G01*
X131803800Y-85089900D02*
X131803800Y-84538900D01*
G75*
G02*
X132054300Y-84288400I250500J0D01*
G01*
X132555300Y-84288400D01*
G75*
G02*
X132805800Y-84538900I0J-250500D01*
G01*
X132805800Y-85089900D01*
G75*
G02*
X132555300Y-85340400I-250500J0D01*
G01*
X132054300Y-85340400D01*
G75*
G02*
X131803800Y-85089900I0J250500D01*
G01*
G37*
G36*
G01*
X130253800Y-85089900D02*
X130253800Y-84538900D01*
G75*
G02*
X130504300Y-84288400I250500J0D01*
G01*
X131005300Y-84288400D01*
G75*
G02*
X131255800Y-84538900I0J-250500D01*
G01*
X131255800Y-85089900D01*
G75*
G02*
X131005300Y-85340400I-250500J0D01*
G01*
X130504300Y-85340400D01*
G75*
G02*
X130253800Y-85089900I0J250500D01*
G01*
G37*
G36*
G01*
X141523000Y-112142500D02*
X141523000Y-111791500D01*
G75*
G02*
X141698500Y-111616000I175500J0D01*
G01*
X143199500Y-111616000D01*
G75*
G02*
X143375000Y-111791500I0J-175500D01*
G01*
X143375000Y-112142500D01*
G75*
G02*
X143199500Y-112318000I-175500J0D01*
G01*
X141698500Y-112318000D01*
G75*
G02*
X141523000Y-112142500I0J175500D01*
G01*
G37*
G36*
G01*
X141523000Y-113412500D02*
X141523000Y-113061500D01*
G75*
G02*
X141698500Y-112886000I175500J0D01*
G01*
X143199500Y-112886000D01*
G75*
G02*
X143375000Y-113061500I0J-175500D01*
G01*
X143375000Y-113412500D01*
G75*
G02*
X143199500Y-113588000I-175500J0D01*
G01*
X141698500Y-113588000D01*
G75*
G02*
X141523000Y-113412500I0J175500D01*
G01*
G37*
G36*
G01*
X141523000Y-114682500D02*
X141523000Y-114331500D01*
G75*
G02*
X141698500Y-114156000I175500J0D01*
G01*
X143199500Y-114156000D01*
G75*
G02*
X143375000Y-114331500I0J-175500D01*
G01*
X143375000Y-114682500D01*
G75*
G02*
X143199500Y-114858000I-175500J0D01*
G01*
X141698500Y-114858000D01*
G75*
G02*
X141523000Y-114682500I0J175500D01*
G01*
G37*
G36*
G01*
X141523000Y-115952500D02*
X141523000Y-115601500D01*
G75*
G02*
X141698500Y-115426000I175500J0D01*
G01*
X143199500Y-115426000D01*
G75*
G02*
X143375000Y-115601500I0J-175500D01*
G01*
X143375000Y-115952500D01*
G75*
G02*
X143199500Y-116128000I-175500J0D01*
G01*
X141698500Y-116128000D01*
G75*
G02*
X141523000Y-115952500I0J175500D01*
G01*
G37*
G36*
G01*
X136373000Y-115952500D02*
X136373000Y-115601500D01*
G75*
G02*
X136548500Y-115426000I175500J0D01*
G01*
X138049500Y-115426000D01*
G75*
G02*
X138225000Y-115601500I0J-175500D01*
G01*
X138225000Y-115952500D01*
G75*
G02*
X138049500Y-116128000I-175500J0D01*
G01*
X136548500Y-116128000D01*
G75*
G02*
X136373000Y-115952500I0J175500D01*
G01*
G37*
G36*
G01*
X136373000Y-114682500D02*
X136373000Y-114331500D01*
G75*
G02*
X136548500Y-114156000I175500J0D01*
G01*
X138049500Y-114156000D01*
G75*
G02*
X138225000Y-114331500I0J-175500D01*
G01*
X138225000Y-114682500D01*
G75*
G02*
X138049500Y-114858000I-175500J0D01*
G01*
X136548500Y-114858000D01*
G75*
G02*
X136373000Y-114682500I0J175500D01*
G01*
G37*
G36*
G01*
X136373000Y-113412500D02*
X136373000Y-113061500D01*
G75*
G02*
X136548500Y-112886000I175500J0D01*
G01*
X138049500Y-112886000D01*
G75*
G02*
X138225000Y-113061500I0J-175500D01*
G01*
X138225000Y-113412500D01*
G75*
G02*
X138049500Y-113588000I-175500J0D01*
G01*
X136548500Y-113588000D01*
G75*
G02*
X136373000Y-113412500I0J175500D01*
G01*
G37*
G36*
G01*
X136373000Y-112142500D02*
X136373000Y-111791500D01*
G75*
G02*
X136548500Y-111616000I175500J0D01*
G01*
X138049500Y-111616000D01*
G75*
G02*
X138225000Y-111791500I0J-175500D01*
G01*
X138225000Y-112142500D01*
G75*
G02*
X138049500Y-112318000I-175500J0D01*
G01*
X136548500Y-112318000D01*
G75*
G02*
X136373000Y-112142500I0J175500D01*
G01*
G37*
G36*
G01*
X128162600Y-112193300D02*
X128162600Y-111842300D01*
G75*
G02*
X128338100Y-111666800I175500J0D01*
G01*
X129839100Y-111666800D01*
G75*
G02*
X130014600Y-111842300I0J-175500D01*
G01*
X130014600Y-112193300D01*
G75*
G02*
X129839100Y-112368800I-175500J0D01*
G01*
X128338100Y-112368800D01*
G75*
G02*
X128162600Y-112193300I0J175500D01*
G01*
G37*
G36*
G01*
X128162600Y-113463300D02*
X128162600Y-113112300D01*
G75*
G02*
X128338100Y-112936800I175500J0D01*
G01*
X129839100Y-112936800D01*
G75*
G02*
X130014600Y-113112300I0J-175500D01*
G01*
X130014600Y-113463300D01*
G75*
G02*
X129839100Y-113638800I-175500J0D01*
G01*
X128338100Y-113638800D01*
G75*
G02*
X128162600Y-113463300I0J175500D01*
G01*
G37*
G36*
G01*
X128162600Y-114733300D02*
X128162600Y-114382300D01*
G75*
G02*
X128338100Y-114206800I175500J0D01*
G01*
X129839100Y-114206800D01*
G75*
G02*
X130014600Y-114382300I0J-175500D01*
G01*
X130014600Y-114733300D01*
G75*
G02*
X129839100Y-114908800I-175500J0D01*
G01*
X128338100Y-114908800D01*
G75*
G02*
X128162600Y-114733300I0J175500D01*
G01*
G37*
G36*
G01*
X128162600Y-116003300D02*
X128162600Y-115652300D01*
G75*
G02*
X128338100Y-115476800I175500J0D01*
G01*
X129839100Y-115476800D01*
G75*
G02*
X130014600Y-115652300I0J-175500D01*
G01*
X130014600Y-116003300D01*
G75*
G02*
X129839100Y-116178800I-175500J0D01*
G01*
X128338100Y-116178800D01*
G75*
G02*
X128162600Y-116003300I0J175500D01*
G01*
G37*
G36*
G01*
X123012600Y-116003300D02*
X123012600Y-115652300D01*
G75*
G02*
X123188100Y-115476800I175500J0D01*
G01*
X124689100Y-115476800D01*
G75*
G02*
X124864600Y-115652300I0J-175500D01*
G01*
X124864600Y-116003300D01*
G75*
G02*
X124689100Y-116178800I-175500J0D01*
G01*
X123188100Y-116178800D01*
G75*
G02*
X123012600Y-116003300I0J175500D01*
G01*
G37*
G36*
G01*
X123012600Y-114733300D02*
X123012600Y-114382300D01*
G75*
G02*
X123188100Y-114206800I175500J0D01*
G01*
X124689100Y-114206800D01*
G75*
G02*
X124864600Y-114382300I0J-175500D01*
G01*
X124864600Y-114733300D01*
G75*
G02*
X124689100Y-114908800I-175500J0D01*
G01*
X123188100Y-114908800D01*
G75*
G02*
X123012600Y-114733300I0J175500D01*
G01*
G37*
G36*
G01*
X123012600Y-113463300D02*
X123012600Y-113112300D01*
G75*
G02*
X123188100Y-112936800I175500J0D01*
G01*
X124689100Y-112936800D01*
G75*
G02*
X124864600Y-113112300I0J-175500D01*
G01*
X124864600Y-113463300D01*
G75*
G02*
X124689100Y-113638800I-175500J0D01*
G01*
X123188100Y-113638800D01*
G75*
G02*
X123012600Y-113463300I0J175500D01*
G01*
G37*
G36*
G01*
X123012600Y-112193300D02*
X123012600Y-111842300D01*
G75*
G02*
X123188100Y-111666800I175500J0D01*
G01*
X124689100Y-111666800D01*
G75*
G02*
X124864600Y-111842300I0J-175500D01*
G01*
X124864600Y-112193300D01*
G75*
G02*
X124689100Y-112368800I-175500J0D01*
G01*
X123188100Y-112368800D01*
G75*
G02*
X123012600Y-112193300I0J175500D01*
G01*
G37*
G36*
G01*
X114903800Y-112193300D02*
X114903800Y-111842300D01*
G75*
G02*
X115079300Y-111666800I175500J0D01*
G01*
X116580300Y-111666800D01*
G75*
G02*
X116755800Y-111842300I0J-175500D01*
G01*
X116755800Y-112193300D01*
G75*
G02*
X116580300Y-112368800I-175500J0D01*
G01*
X115079300Y-112368800D01*
G75*
G02*
X114903800Y-112193300I0J175500D01*
G01*
G37*
G36*
G01*
X114903800Y-113463300D02*
X114903800Y-113112300D01*
G75*
G02*
X115079300Y-112936800I175500J0D01*
G01*
X116580300Y-112936800D01*
G75*
G02*
X116755800Y-113112300I0J-175500D01*
G01*
X116755800Y-113463300D01*
G75*
G02*
X116580300Y-113638800I-175500J0D01*
G01*
X115079300Y-113638800D01*
G75*
G02*
X114903800Y-113463300I0J175500D01*
G01*
G37*
G36*
G01*
X114903800Y-114733300D02*
X114903800Y-114382300D01*
G75*
G02*
X115079300Y-114206800I175500J0D01*
G01*
X116580300Y-114206800D01*
G75*
G02*
X116755800Y-114382300I0J-175500D01*
G01*
X116755800Y-114733300D01*
G75*
G02*
X116580300Y-114908800I-175500J0D01*
G01*
X115079300Y-114908800D01*
G75*
G02*
X114903800Y-114733300I0J175500D01*
G01*
G37*
G36*
G01*
X114903800Y-116003300D02*
X114903800Y-115652300D01*
G75*
G02*
X115079300Y-115476800I175500J0D01*
G01*
X116580300Y-115476800D01*
G75*
G02*
X116755800Y-115652300I0J-175500D01*
G01*
X116755800Y-116003300D01*
G75*
G02*
X116580300Y-116178800I-175500J0D01*
G01*
X115079300Y-116178800D01*
G75*
G02*
X114903800Y-116003300I0J175500D01*
G01*
G37*
G36*
G01*
X109753800Y-116003300D02*
X109753800Y-115652300D01*
G75*
G02*
X109929300Y-115476800I175500J0D01*
G01*
X111430300Y-115476800D01*
G75*
G02*
X111605800Y-115652300I0J-175500D01*
G01*
X111605800Y-116003300D01*
G75*
G02*
X111430300Y-116178800I-175500J0D01*
G01*
X109929300Y-116178800D01*
G75*
G02*
X109753800Y-116003300I0J175500D01*
G01*
G37*
G36*
G01*
X109753800Y-114733300D02*
X109753800Y-114382300D01*
G75*
G02*
X109929300Y-114206800I175500J0D01*
G01*
X111430300Y-114206800D01*
G75*
G02*
X111605800Y-114382300I0J-175500D01*
G01*
X111605800Y-114733300D01*
G75*
G02*
X111430300Y-114908800I-175500J0D01*
G01*
X109929300Y-114908800D01*
G75*
G02*
X109753800Y-114733300I0J175500D01*
G01*
G37*
G36*
G01*
X109753800Y-113463300D02*
X109753800Y-113112300D01*
G75*
G02*
X109929300Y-112936800I175500J0D01*
G01*
X111430300Y-112936800D01*
G75*
G02*
X111605800Y-113112300I0J-175500D01*
G01*
X111605800Y-113463300D01*
G75*
G02*
X111430300Y-113638800I-175500J0D01*
G01*
X109929300Y-113638800D01*
G75*
G02*
X109753800Y-113463300I0J175500D01*
G01*
G37*
G36*
G01*
X109753800Y-112193300D02*
X109753800Y-111842300D01*
G75*
G02*
X109929300Y-111666800I175500J0D01*
G01*
X111430300Y-111666800D01*
G75*
G02*
X111605800Y-111842300I0J-175500D01*
G01*
X111605800Y-112193300D01*
G75*
G02*
X111430300Y-112368800I-175500J0D01*
G01*
X109929300Y-112368800D01*
G75*
G02*
X109753800Y-112193300I0J175500D01*
G01*
G37*
D14*
X130780800Y-82122000D03*
G36*
G01*
X132470800Y-81221000D02*
X134170800Y-81221000D01*
G75*
G02*
X134221800Y-81272000I0J-51000D01*
G01*
X134221800Y-82972000D01*
G75*
G02*
X134170800Y-83023000I-51000J0D01*
G01*
X132470800Y-83023000D01*
G75*
G02*
X132419800Y-82972000I0J51000D01*
G01*
X132419800Y-81272000D01*
G75*
G02*
X132470800Y-81221000I51000J0D01*
G01*
G37*
D15*
G36*
X125158932Y-109310000D02*
G01*
X125159200Y-109311000D01*
X125159200Y-110473000D01*
X125158200Y-110474732D01*
X125157200Y-110475000D01*
X124959200Y-110475000D01*
X124957468Y-110474000D01*
X124957200Y-110473000D01*
X124957200Y-109311000D01*
X124958200Y-109309268D01*
X124959200Y-109309000D01*
X125157200Y-109309000D01*
X125158932Y-109310000D01*
G37*
G36*
X124208932Y-109310000D02*
G01*
X124209200Y-109311000D01*
X124209200Y-110473000D01*
X124208200Y-110474732D01*
X124207200Y-110475000D01*
X124009200Y-110475000D01*
X124007468Y-110474000D01*
X124007200Y-110473000D01*
X124007200Y-109311000D01*
X124008200Y-109309268D01*
X124009200Y-109309000D01*
X124207200Y-109309000D01*
X124208932Y-109310000D01*
G37*
G36*
X127866532Y-105416000D02*
G01*
X127866800Y-105417000D01*
X127866800Y-106579000D01*
X127865800Y-106580732D01*
X127864800Y-106581000D01*
X127666800Y-106581000D01*
X127665068Y-106580000D01*
X127664800Y-106579000D01*
X127664800Y-105417000D01*
X127665800Y-105415268D01*
X127666800Y-105415000D01*
X127864800Y-105415000D01*
X127866532Y-105416000D01*
G37*
G36*
X128816532Y-105416000D02*
G01*
X128816800Y-105417000D01*
X128816800Y-106579000D01*
X128815800Y-106580732D01*
X128814800Y-106581000D01*
X128616800Y-106581000D01*
X128615068Y-106580000D01*
X128614800Y-106579000D01*
X128614800Y-105417000D01*
X128615800Y-105415268D01*
X128616800Y-105415000D01*
X128814800Y-105415000D01*
X128816532Y-105416000D01*
G37*
G36*
X121450532Y-105398400D02*
G01*
X121450800Y-105399400D01*
X121450800Y-106561400D01*
X121449800Y-106563132D01*
X121448800Y-106563400D01*
X121250800Y-106563400D01*
X121249068Y-106562400D01*
X121248800Y-106561400D01*
X121248800Y-105399400D01*
X121249800Y-105397668D01*
X121250800Y-105397400D01*
X121448800Y-105397400D01*
X121450532Y-105398400D01*
G37*
G36*
X120500532Y-105398400D02*
G01*
X120500800Y-105399400D01*
X120500800Y-106561400D01*
X120499800Y-106563132D01*
X120498800Y-106563400D01*
X120300800Y-106563400D01*
X120299068Y-106562400D01*
X120298800Y-106561400D01*
X120298800Y-105399400D01*
X120299800Y-105397668D01*
X120300800Y-105397400D01*
X120498800Y-105397400D01*
X120500532Y-105398400D01*
G37*
G36*
X141337932Y-102664600D02*
G01*
X141338200Y-102665600D01*
X141338200Y-102863600D01*
X141337200Y-102865332D01*
X141336200Y-102865600D01*
X140174200Y-102865600D01*
X140172468Y-102864600D01*
X140172200Y-102863600D01*
X140172200Y-102665600D01*
X140173200Y-102663868D01*
X140174200Y-102663600D01*
X141336200Y-102663600D01*
X141337932Y-102664600D01*
G37*
G36*
X125108132Y-101486800D02*
G01*
X125108400Y-101487800D01*
X125108400Y-102649800D01*
X125107400Y-102651532D01*
X125106400Y-102651800D01*
X124908400Y-102651800D01*
X124906668Y-102650800D01*
X124906400Y-102649800D01*
X124906400Y-101487800D01*
X124907400Y-101486068D01*
X124908400Y-101485800D01*
X125106400Y-101485800D01*
X125108132Y-101486800D01*
G37*
G36*
X124158132Y-101486800D02*
G01*
X124158400Y-101487800D01*
X124158400Y-102649800D01*
X124157400Y-102651532D01*
X124156400Y-102651800D01*
X123958400Y-102651800D01*
X123956668Y-102650800D01*
X123956400Y-102649800D01*
X123956400Y-101487800D01*
X123957400Y-101486068D01*
X123958400Y-101485800D01*
X124156400Y-101485800D01*
X124158132Y-101486800D01*
G37*
G36*
X141337932Y-101714600D02*
G01*
X141338200Y-101715600D01*
X141338200Y-101913600D01*
X141337200Y-101915332D01*
X141336200Y-101915600D01*
X140174200Y-101915600D01*
X140172468Y-101914600D01*
X140172200Y-101913600D01*
X140172200Y-101715600D01*
X140173200Y-101713868D01*
X140174200Y-101713600D01*
X141336200Y-101713600D01*
X141337932Y-101714600D01*
G37*
G36*
X111703932Y-101140600D02*
G01*
X111704200Y-101141600D01*
X111704200Y-101339600D01*
X111703200Y-101341332D01*
X111702200Y-101341600D01*
X110540200Y-101341600D01*
X110538468Y-101340600D01*
X110538200Y-101339600D01*
X110538200Y-101141600D01*
X110539200Y-101139868D01*
X110540200Y-101139600D01*
X111702200Y-101139600D01*
X111703932Y-101140600D01*
G37*
G36*
X111703932Y-100190600D02*
G01*
X111704200Y-100191600D01*
X111704200Y-100389600D01*
X111703200Y-100391332D01*
X111702200Y-100391600D01*
X110540200Y-100391600D01*
X110538468Y-100390600D01*
X110538200Y-100389600D01*
X110538200Y-100191600D01*
X110539200Y-100189868D01*
X110540200Y-100189600D01*
X111702200Y-100189600D01*
X111703932Y-100190600D01*
G37*
G36*
X127875932Y-97533800D02*
G01*
X127876200Y-97534800D01*
X127876200Y-97732800D01*
X127875200Y-97734532D01*
X127874200Y-97734800D01*
X126712200Y-97734800D01*
X126710468Y-97733800D01*
X126710200Y-97732800D01*
X126710200Y-97534800D01*
X126711200Y-97533068D01*
X126712200Y-97532800D01*
X127874200Y-97532800D01*
X127875932Y-97533800D01*
G37*
G36*
X127875932Y-96583800D02*
G01*
X127876200Y-96584800D01*
X127876200Y-96782800D01*
X127875200Y-96784532D01*
X127874200Y-96784800D01*
X126712200Y-96784800D01*
X126710468Y-96783800D01*
X126710200Y-96782800D01*
X126710200Y-96584800D01*
X126711200Y-96583068D01*
X126712200Y-96582800D01*
X127874200Y-96582800D01*
X127875932Y-96583800D01*
G37*
G36*
X119267532Y-82962800D02*
G01*
X119267800Y-82963800D01*
X119267800Y-85565800D01*
X119266800Y-85567532D01*
X119265800Y-85567800D01*
X119067800Y-85567800D01*
X119066068Y-85566800D01*
X119065800Y-85565800D01*
X119065800Y-82963800D01*
X119066800Y-82962068D01*
X119067800Y-82961800D01*
X119265800Y-82961800D01*
X119267532Y-82962800D01*
G37*
G36*
X121667532Y-82962800D02*
G01*
X121667800Y-82963800D01*
X121667800Y-85565800D01*
X121666800Y-85567532D01*
X121665800Y-85567800D01*
X121467800Y-85567800D01*
X121466068Y-85566800D01*
X121465800Y-85565800D01*
X121465800Y-82963800D01*
X121466800Y-82962068D01*
X121467800Y-82961800D01*
X121665800Y-82961800D01*
X121667532Y-82962800D01*
G37*
G36*
X120067532Y-82962800D02*
G01*
X120067800Y-82963800D01*
X120067800Y-85565800D01*
X120066800Y-85567532D01*
X120065800Y-85567800D01*
X119867800Y-85567800D01*
X119866068Y-85566800D01*
X119865800Y-85565800D01*
X119865800Y-82963800D01*
X119866800Y-82962068D01*
X119867800Y-82961800D01*
X120065800Y-82961800D01*
X120067532Y-82962800D01*
G37*
G36*
X120867532Y-82962800D02*
G01*
X120867800Y-82963800D01*
X120867800Y-85565800D01*
X120866800Y-85567532D01*
X120865800Y-85567800D01*
X120667800Y-85567800D01*
X120666068Y-85566800D01*
X120665800Y-85565800D01*
X120665800Y-82963800D01*
X120666800Y-82962068D01*
X120667800Y-82961800D01*
X120865800Y-82961800D01*
X120867532Y-82962800D01*
G37*
M02*
