G04 #@! TF.GenerationSoftware,KiCad,Pcbnew,(5.1.5)-3*
G04 #@! TF.CreationDate,2021-01-18T17:20:57+00:00*
G04 #@! TF.ProjectId,Little Logic Computer - Power+Timing,4c697474-6c65-4204-9c6f-67696320436f,rev?*
G04 #@! TF.SameCoordinates,Original*
G04 #@! TF.FileFunction,Legend,Bot*
G04 #@! TF.FilePolarity,Positive*
%FSLAX46Y46*%
G04 Gerber Fmt 4.6, Leading zero omitted, Abs format (unit mm)*
G04 Created by KiCad (PCBNEW (5.1.5)-3) date 2021-01-18 17:20:57*
%MOMM*%
%LPD*%
G04 APERTURE LIST*
%ADD10C,0.150000*%
%ADD11C,0.300000*%
G04 APERTURE END LIST*
D10*
X192850000Y-80178571D02*
X192492857Y-81678571D01*
X192207142Y-80607142D01*
X191921428Y-81678571D01*
X191564285Y-80178571D01*
X190778571Y-81678571D02*
X190921428Y-81607142D01*
X190992857Y-81535714D01*
X191064285Y-81392857D01*
X191064285Y-80964285D01*
X190992857Y-80821428D01*
X190921428Y-80750000D01*
X190778571Y-80678571D01*
X190564285Y-80678571D01*
X190421428Y-80750000D01*
X190350000Y-80821428D01*
X190278571Y-80964285D01*
X190278571Y-81392857D01*
X190350000Y-81535714D01*
X190421428Y-81607142D01*
X190564285Y-81678571D01*
X190778571Y-81678571D01*
X189635714Y-81678571D02*
X189635714Y-80678571D01*
X189635714Y-80964285D02*
X189564285Y-80821428D01*
X189492857Y-80750000D01*
X189350000Y-80678571D01*
X189207142Y-80678571D01*
X188492857Y-81678571D02*
X188635714Y-81607142D01*
X188707142Y-81464285D01*
X188707142Y-80178571D01*
X187278571Y-81678571D02*
X187278571Y-80178571D01*
X187278571Y-81607142D02*
X187421428Y-81678571D01*
X187707142Y-81678571D01*
X187850000Y-81607142D01*
X187921428Y-81535714D01*
X187992857Y-81392857D01*
X187992857Y-80964285D01*
X187921428Y-80821428D01*
X187850000Y-80750000D01*
X187707142Y-80678571D01*
X187421428Y-80678571D01*
X187278571Y-80750000D01*
X185207142Y-81678571D02*
X185350000Y-81607142D01*
X185421428Y-81535714D01*
X185492857Y-81392857D01*
X185492857Y-80964285D01*
X185421428Y-80821428D01*
X185350000Y-80750000D01*
X185207142Y-80678571D01*
X184992857Y-80678571D01*
X184850000Y-80750000D01*
X184778571Y-80821428D01*
X184707142Y-80964285D01*
X184707142Y-81392857D01*
X184778571Y-81535714D01*
X184850000Y-81607142D01*
X184992857Y-81678571D01*
X185207142Y-81678571D01*
X184278571Y-80678571D02*
X183707142Y-80678571D01*
X184064285Y-81678571D02*
X184064285Y-80392857D01*
X183992857Y-80250000D01*
X183850000Y-80178571D01*
X183707142Y-80178571D01*
X182064285Y-81678571D02*
X182064285Y-80178571D01*
X181350000Y-80678571D02*
X181350000Y-81678571D01*
X181350000Y-80821428D02*
X181278571Y-80750000D01*
X181135714Y-80678571D01*
X180921428Y-80678571D01*
X180778571Y-80750000D01*
X180707142Y-80892857D01*
X180707142Y-81678571D01*
X179350000Y-81678571D02*
X179350000Y-80178571D01*
X179350000Y-81607142D02*
X179492857Y-81678571D01*
X179778571Y-81678571D01*
X179921428Y-81607142D01*
X179992857Y-81535714D01*
X180064285Y-81392857D01*
X180064285Y-80964285D01*
X179992857Y-80821428D01*
X179921428Y-80750000D01*
X179778571Y-80678571D01*
X179492857Y-80678571D01*
X179350000Y-80750000D01*
X178635714Y-81678571D02*
X178635714Y-80678571D01*
X178635714Y-80178571D02*
X178707142Y-80250000D01*
X178635714Y-80321428D01*
X178564285Y-80250000D01*
X178635714Y-80178571D01*
X178635714Y-80321428D01*
X177350000Y-81607142D02*
X177492857Y-81678571D01*
X177778571Y-81678571D01*
X177921428Y-81607142D01*
X177992857Y-81464285D01*
X177992857Y-80892857D01*
X177921428Y-80750000D01*
X177778571Y-80678571D01*
X177492857Y-80678571D01*
X177350000Y-80750000D01*
X177278571Y-80892857D01*
X177278571Y-81035714D01*
X177992857Y-81178571D01*
X175564285Y-80321428D02*
X175492857Y-80250000D01*
X175350000Y-80178571D01*
X174992857Y-80178571D01*
X174850000Y-80250000D01*
X174778571Y-80321428D01*
X174707142Y-80464285D01*
X174707142Y-80607142D01*
X174778571Y-80821428D01*
X175635714Y-81678571D01*
X174707142Y-81678571D01*
X173778571Y-80178571D02*
X173635714Y-80178571D01*
X173492857Y-80250000D01*
X173421428Y-80321428D01*
X173350000Y-80464285D01*
X173278571Y-80750000D01*
X173278571Y-81107142D01*
X173350000Y-81392857D01*
X173421428Y-81535714D01*
X173492857Y-81607142D01*
X173635714Y-81678571D01*
X173778571Y-81678571D01*
X173921428Y-81607142D01*
X173992857Y-81535714D01*
X174064285Y-81392857D01*
X174135714Y-81107142D01*
X174135714Y-80750000D01*
X174064285Y-80464285D01*
X173992857Y-80321428D01*
X173921428Y-80250000D01*
X173778571Y-80178571D01*
X172707142Y-80321428D02*
X172635714Y-80250000D01*
X172492857Y-80178571D01*
X172135714Y-80178571D01*
X171992857Y-80250000D01*
X171921428Y-80321428D01*
X171850000Y-80464285D01*
X171850000Y-80607142D01*
X171921428Y-80821428D01*
X172778571Y-81678571D01*
X171850000Y-81678571D01*
X170421428Y-81678571D02*
X171278571Y-81678571D01*
X170850000Y-81678571D02*
X170850000Y-80178571D01*
X170992857Y-80392857D01*
X171135714Y-80535714D01*
X171278571Y-80607142D01*
D11*
X192219047Y-120404761D02*
X192219047Y-118404761D01*
X191457142Y-118404761D01*
X191266666Y-118500000D01*
X191171428Y-118595238D01*
X191076190Y-118785714D01*
X191076190Y-119071428D01*
X191171428Y-119261904D01*
X191266666Y-119357142D01*
X191457142Y-119452380D01*
X192219047Y-119452380D01*
X189933333Y-120404761D02*
X190123809Y-120309523D01*
X190219047Y-120214285D01*
X190314285Y-120023809D01*
X190314285Y-119452380D01*
X190219047Y-119261904D01*
X190123809Y-119166666D01*
X189933333Y-119071428D01*
X189647619Y-119071428D01*
X189457142Y-119166666D01*
X189361904Y-119261904D01*
X189266666Y-119452380D01*
X189266666Y-120023809D01*
X189361904Y-120214285D01*
X189457142Y-120309523D01*
X189647619Y-120404761D01*
X189933333Y-120404761D01*
X188600000Y-119071428D02*
X188219047Y-120404761D01*
X187838095Y-119452380D01*
X187457142Y-120404761D01*
X187076190Y-119071428D01*
X185552380Y-120309523D02*
X185742857Y-120404761D01*
X186123809Y-120404761D01*
X186314285Y-120309523D01*
X186409523Y-120119047D01*
X186409523Y-119357142D01*
X186314285Y-119166666D01*
X186123809Y-119071428D01*
X185742857Y-119071428D01*
X185552380Y-119166666D01*
X185457142Y-119357142D01*
X185457142Y-119547619D01*
X186409523Y-119738095D01*
X184600000Y-120404761D02*
X184600000Y-119071428D01*
X184600000Y-119452380D02*
X184504761Y-119261904D01*
X184409523Y-119166666D01*
X184219047Y-119071428D01*
X184028571Y-119071428D01*
X183361904Y-119642857D02*
X181838095Y-119642857D01*
X182600000Y-120404761D02*
X182600000Y-118880952D01*
X181171428Y-118404761D02*
X180028571Y-118404761D01*
X180600000Y-120404761D02*
X180600000Y-118404761D01*
X179361904Y-120404761D02*
X179361904Y-119071428D01*
X179361904Y-118404761D02*
X179457142Y-118500000D01*
X179361904Y-118595238D01*
X179266666Y-118500000D01*
X179361904Y-118404761D01*
X179361904Y-118595238D01*
X178409523Y-120404761D02*
X178409523Y-119071428D01*
X178409523Y-119261904D02*
X178314285Y-119166666D01*
X178123809Y-119071428D01*
X177838095Y-119071428D01*
X177647619Y-119166666D01*
X177552380Y-119357142D01*
X177552380Y-120404761D01*
X177552380Y-119357142D02*
X177457142Y-119166666D01*
X177266666Y-119071428D01*
X176980952Y-119071428D01*
X176790476Y-119166666D01*
X176695238Y-119357142D01*
X176695238Y-120404761D01*
X175742857Y-120404761D02*
X175742857Y-119071428D01*
X175742857Y-118404761D02*
X175838095Y-118500000D01*
X175742857Y-118595238D01*
X175647619Y-118500000D01*
X175742857Y-118404761D01*
X175742857Y-118595238D01*
X174790476Y-119071428D02*
X174790476Y-120404761D01*
X174790476Y-119261904D02*
X174695238Y-119166666D01*
X174504761Y-119071428D01*
X174219047Y-119071428D01*
X174028571Y-119166666D01*
X173933333Y-119357142D01*
X173933333Y-120404761D01*
X172123809Y-119071428D02*
X172123809Y-120690476D01*
X172219047Y-120880952D01*
X172314285Y-120976190D01*
X172504761Y-121071428D01*
X172790476Y-121071428D01*
X172980952Y-120976190D01*
X172123809Y-120309523D02*
X172314285Y-120404761D01*
X172695238Y-120404761D01*
X172885714Y-120309523D01*
X172980952Y-120214285D01*
X173076190Y-120023809D01*
X173076190Y-119452380D01*
X172980952Y-119261904D01*
X172885714Y-119166666D01*
X172695238Y-119071428D01*
X172314285Y-119071428D01*
X172123809Y-119166666D01*
X168980952Y-119357142D02*
X168695238Y-119452380D01*
X168600000Y-119547619D01*
X168504761Y-119738095D01*
X168504761Y-120023809D01*
X168600000Y-120214285D01*
X168695238Y-120309523D01*
X168885714Y-120404761D01*
X169647619Y-120404761D01*
X169647619Y-118404761D01*
X168980952Y-118404761D01*
X168790476Y-118500000D01*
X168695238Y-118595238D01*
X168600000Y-118785714D01*
X168600000Y-118976190D01*
X168695238Y-119166666D01*
X168790476Y-119261904D01*
X168980952Y-119357142D01*
X169647619Y-119357142D01*
X167361904Y-120404761D02*
X167552380Y-120309523D01*
X167647619Y-120214285D01*
X167742857Y-120023809D01*
X167742857Y-119452380D01*
X167647619Y-119261904D01*
X167552380Y-119166666D01*
X167361904Y-119071428D01*
X167076190Y-119071428D01*
X166885714Y-119166666D01*
X166790476Y-119261904D01*
X166695238Y-119452380D01*
X166695238Y-120023809D01*
X166790476Y-120214285D01*
X166885714Y-120309523D01*
X167076190Y-120404761D01*
X167361904Y-120404761D01*
X164980952Y-120404761D02*
X164980952Y-119357142D01*
X165076190Y-119166666D01*
X165266666Y-119071428D01*
X165647619Y-119071428D01*
X165838095Y-119166666D01*
X164980952Y-120309523D02*
X165171428Y-120404761D01*
X165647619Y-120404761D01*
X165838095Y-120309523D01*
X165933333Y-120119047D01*
X165933333Y-119928571D01*
X165838095Y-119738095D01*
X165647619Y-119642857D01*
X165171428Y-119642857D01*
X164980952Y-119547619D01*
X164028571Y-120404761D02*
X164028571Y-119071428D01*
X164028571Y-119452380D02*
X163933333Y-119261904D01*
X163838095Y-119166666D01*
X163647619Y-119071428D01*
X163457142Y-119071428D01*
X161933333Y-120404761D02*
X161933333Y-118404761D01*
X161933333Y-120309523D02*
X162123809Y-120404761D01*
X162504761Y-120404761D01*
X162695238Y-120309523D01*
X162790476Y-120214285D01*
X162885714Y-120023809D01*
X162885714Y-119452380D01*
X162790476Y-119261904D01*
X162695238Y-119166666D01*
X162504761Y-119071428D01*
X162123809Y-119071428D01*
X161933333Y-119166666D01*
X159647619Y-119071428D02*
X159171428Y-120404761D01*
X158695238Y-119071428D01*
X156885714Y-120404761D02*
X158028571Y-120404761D01*
X157457142Y-120404761D02*
X157457142Y-118404761D01*
X157647619Y-118690476D01*
X157838095Y-118880952D01*
X158028571Y-118976190D01*
X191052380Y-116904761D02*
X192004761Y-116904761D01*
X192004761Y-114904761D01*
X190385714Y-116904761D02*
X190385714Y-115571428D01*
X190385714Y-114904761D02*
X190480952Y-115000000D01*
X190385714Y-115095238D01*
X190290476Y-115000000D01*
X190385714Y-114904761D01*
X190385714Y-115095238D01*
X189719047Y-115571428D02*
X188957142Y-115571428D01*
X189433333Y-114904761D02*
X189433333Y-116619047D01*
X189338095Y-116809523D01*
X189147619Y-116904761D01*
X188957142Y-116904761D01*
X188576190Y-115571428D02*
X187814285Y-115571428D01*
X188290476Y-114904761D02*
X188290476Y-116619047D01*
X188195238Y-116809523D01*
X188004761Y-116904761D01*
X187814285Y-116904761D01*
X186861904Y-116904761D02*
X187052380Y-116809523D01*
X187147619Y-116619047D01*
X187147619Y-114904761D01*
X185338095Y-116809523D02*
X185528571Y-116904761D01*
X185909523Y-116904761D01*
X186100000Y-116809523D01*
X186195238Y-116619047D01*
X186195238Y-115857142D01*
X186100000Y-115666666D01*
X185909523Y-115571428D01*
X185528571Y-115571428D01*
X185338095Y-115666666D01*
X185242857Y-115857142D01*
X185242857Y-116047619D01*
X186195238Y-116238095D01*
X181909523Y-116904761D02*
X182861904Y-116904761D01*
X182861904Y-114904761D01*
X180957142Y-116904761D02*
X181147619Y-116809523D01*
X181242857Y-116714285D01*
X181338095Y-116523809D01*
X181338095Y-115952380D01*
X181242857Y-115761904D01*
X181147619Y-115666666D01*
X180957142Y-115571428D01*
X180671428Y-115571428D01*
X180480952Y-115666666D01*
X180385714Y-115761904D01*
X180290476Y-115952380D01*
X180290476Y-116523809D01*
X180385714Y-116714285D01*
X180480952Y-116809523D01*
X180671428Y-116904761D01*
X180957142Y-116904761D01*
X178576190Y-115571428D02*
X178576190Y-117190476D01*
X178671428Y-117380952D01*
X178766666Y-117476190D01*
X178957142Y-117571428D01*
X179242857Y-117571428D01*
X179433333Y-117476190D01*
X178576190Y-116809523D02*
X178766666Y-116904761D01*
X179147619Y-116904761D01*
X179338095Y-116809523D01*
X179433333Y-116714285D01*
X179528571Y-116523809D01*
X179528571Y-115952380D01*
X179433333Y-115761904D01*
X179338095Y-115666666D01*
X179147619Y-115571428D01*
X178766666Y-115571428D01*
X178576190Y-115666666D01*
X177623809Y-116904761D02*
X177623809Y-115571428D01*
X177623809Y-114904761D02*
X177719047Y-115000000D01*
X177623809Y-115095238D01*
X177528571Y-115000000D01*
X177623809Y-114904761D01*
X177623809Y-115095238D01*
X175814285Y-116809523D02*
X176004761Y-116904761D01*
X176385714Y-116904761D01*
X176576190Y-116809523D01*
X176671428Y-116714285D01*
X176766666Y-116523809D01*
X176766666Y-115952380D01*
X176671428Y-115761904D01*
X176576190Y-115666666D01*
X176385714Y-115571428D01*
X176004761Y-115571428D01*
X175814285Y-115666666D01*
X172290476Y-116714285D02*
X172385714Y-116809523D01*
X172671428Y-116904761D01*
X172861904Y-116904761D01*
X173147619Y-116809523D01*
X173338095Y-116619047D01*
X173433333Y-116428571D01*
X173528571Y-116047619D01*
X173528571Y-115761904D01*
X173433333Y-115380952D01*
X173338095Y-115190476D01*
X173147619Y-115000000D01*
X172861904Y-114904761D01*
X172671428Y-114904761D01*
X172385714Y-115000000D01*
X172290476Y-115095238D01*
X171147619Y-116904761D02*
X171338095Y-116809523D01*
X171433333Y-116714285D01*
X171528571Y-116523809D01*
X171528571Y-115952380D01*
X171433333Y-115761904D01*
X171338095Y-115666666D01*
X171147619Y-115571428D01*
X170861904Y-115571428D01*
X170671428Y-115666666D01*
X170576190Y-115761904D01*
X170480952Y-115952380D01*
X170480952Y-116523809D01*
X170576190Y-116714285D01*
X170671428Y-116809523D01*
X170861904Y-116904761D01*
X171147619Y-116904761D01*
X169623809Y-116904761D02*
X169623809Y-115571428D01*
X169623809Y-115761904D02*
X169528571Y-115666666D01*
X169338095Y-115571428D01*
X169052380Y-115571428D01*
X168861904Y-115666666D01*
X168766666Y-115857142D01*
X168766666Y-116904761D01*
X168766666Y-115857142D02*
X168671428Y-115666666D01*
X168480952Y-115571428D01*
X168195238Y-115571428D01*
X168004761Y-115666666D01*
X167909523Y-115857142D01*
X167909523Y-116904761D01*
X166957142Y-115571428D02*
X166957142Y-117571428D01*
X166957142Y-115666666D02*
X166766666Y-115571428D01*
X166385714Y-115571428D01*
X166195238Y-115666666D01*
X166100000Y-115761904D01*
X166004761Y-115952380D01*
X166004761Y-116523809D01*
X166100000Y-116714285D01*
X166195238Y-116809523D01*
X166385714Y-116904761D01*
X166766666Y-116904761D01*
X166957142Y-116809523D01*
X164290476Y-115571428D02*
X164290476Y-116904761D01*
X165147619Y-115571428D02*
X165147619Y-116619047D01*
X165052380Y-116809523D01*
X164861904Y-116904761D01*
X164576190Y-116904761D01*
X164385714Y-116809523D01*
X164290476Y-116714285D01*
X163623809Y-115571428D02*
X162861904Y-115571428D01*
X163338095Y-114904761D02*
X163338095Y-116619047D01*
X163242857Y-116809523D01*
X163052380Y-116904761D01*
X162861904Y-116904761D01*
X161433333Y-116809523D02*
X161623809Y-116904761D01*
X162004761Y-116904761D01*
X162195238Y-116809523D01*
X162290476Y-116619047D01*
X162290476Y-115857142D01*
X162195238Y-115666666D01*
X162004761Y-115571428D01*
X161623809Y-115571428D01*
X161433333Y-115666666D01*
X161338095Y-115857142D01*
X161338095Y-116047619D01*
X162290476Y-116238095D01*
X160480952Y-116904761D02*
X160480952Y-115571428D01*
X160480952Y-115952380D02*
X160385714Y-115761904D01*
X160290476Y-115666666D01*
X160100000Y-115571428D01*
X159909523Y-115571428D01*
M02*
