G04 #@! TF.GenerationSoftware,KiCad,Pcbnew,(5.1.5)-3*
G04 #@! TF.CreationDate,2021-01-18T17:20:57+00:00*
G04 #@! TF.ProjectId,Little Logic Computer - Power+Timing,4c697474-6c65-4204-9c6f-67696320436f,rev?*
G04 #@! TF.SameCoordinates,Original*
G04 #@! TF.FileFunction,Legend,Top*
G04 #@! TF.FilePolarity,Positive*
%FSLAX46Y46*%
G04 Gerber Fmt 4.6, Leading zero omitted, Abs format (unit mm)*
G04 Created by KiCad (PCBNEW (5.1.5)-3) date 2021-01-18 17:20:57*
%MOMM*%
%LPD*%
G04 APERTURE LIST*
%ADD10C,0.150000*%
%ADD11C,0.120000*%
G04 APERTURE END LIST*
D10*
X192528571Y-105880952D02*
X192576190Y-105738095D01*
X192623809Y-105690476D01*
X192719047Y-105642857D01*
X192861904Y-105642857D01*
X192957142Y-105690476D01*
X193004761Y-105738095D01*
X193052380Y-105833333D01*
X193052380Y-106214285D01*
X192052380Y-106214285D01*
X192052380Y-105880952D01*
X192100000Y-105785714D01*
X192147619Y-105738095D01*
X192242857Y-105690476D01*
X192338095Y-105690476D01*
X192433333Y-105738095D01*
X192480952Y-105785714D01*
X192528571Y-105880952D01*
X192528571Y-106214285D01*
X192385714Y-104785714D02*
X193052380Y-104785714D01*
X192385714Y-105214285D02*
X192909523Y-105214285D01*
X193004761Y-105166666D01*
X193052380Y-105071428D01*
X193052380Y-104928571D01*
X193004761Y-104833333D01*
X192957142Y-104785714D01*
X193004761Y-104357142D02*
X193052380Y-104261904D01*
X193052380Y-104071428D01*
X193004761Y-103976190D01*
X192909523Y-103928571D01*
X192861904Y-103928571D01*
X192766666Y-103976190D01*
X192719047Y-104071428D01*
X192719047Y-104214285D01*
X192671428Y-104309523D01*
X192576190Y-104357142D01*
X192528571Y-104357142D01*
X192433333Y-104309523D01*
X192385714Y-104214285D01*
X192385714Y-104071428D01*
X192433333Y-103976190D01*
X192671428Y-102738095D02*
X192671428Y-101976190D01*
X193052380Y-102357142D02*
X192290476Y-102357142D01*
X193052380Y-100738095D02*
X192052380Y-100738095D01*
X192052380Y-100357142D01*
X192100000Y-100261904D01*
X192147619Y-100214285D01*
X192242857Y-100166666D01*
X192385714Y-100166666D01*
X192480952Y-100214285D01*
X192528571Y-100261904D01*
X192576190Y-100357142D01*
X192576190Y-100738095D01*
X193052380Y-99595238D02*
X193004761Y-99690476D01*
X192957142Y-99738095D01*
X192861904Y-99785714D01*
X192576190Y-99785714D01*
X192480952Y-99738095D01*
X192433333Y-99690476D01*
X192385714Y-99595238D01*
X192385714Y-99452380D01*
X192433333Y-99357142D01*
X192480952Y-99309523D01*
X192576190Y-99261904D01*
X192861904Y-99261904D01*
X192957142Y-99309523D01*
X193004761Y-99357142D01*
X193052380Y-99452380D01*
X193052380Y-99595238D01*
X192385714Y-98928571D02*
X193052380Y-98738095D01*
X192576190Y-98547619D01*
X193052380Y-98357142D01*
X192385714Y-98166666D01*
X193004761Y-97404761D02*
X193052380Y-97500000D01*
X193052380Y-97690476D01*
X193004761Y-97785714D01*
X192909523Y-97833333D01*
X192528571Y-97833333D01*
X192433333Y-97785714D01*
X192385714Y-97690476D01*
X192385714Y-97500000D01*
X192433333Y-97404761D01*
X192528571Y-97357142D01*
X192623809Y-97357142D01*
X192719047Y-97833333D01*
X193052380Y-96928571D02*
X192385714Y-96928571D01*
X192576190Y-96928571D02*
X192480952Y-96880952D01*
X192433333Y-96833333D01*
X192385714Y-96738095D01*
X192385714Y-96642857D01*
X110957142Y-105714285D02*
X111004761Y-105761904D01*
X111052380Y-105904761D01*
X111052380Y-106000000D01*
X111004761Y-106142857D01*
X110909523Y-106238095D01*
X110814285Y-106285714D01*
X110623809Y-106333333D01*
X110480952Y-106333333D01*
X110290476Y-106285714D01*
X110195238Y-106238095D01*
X110100000Y-106142857D01*
X110052380Y-106000000D01*
X110052380Y-105904761D01*
X110100000Y-105761904D01*
X110147619Y-105714285D01*
X111052380Y-105142857D02*
X111004761Y-105238095D01*
X110957142Y-105285714D01*
X110861904Y-105333333D01*
X110576190Y-105333333D01*
X110480952Y-105285714D01*
X110433333Y-105238095D01*
X110385714Y-105142857D01*
X110385714Y-105000000D01*
X110433333Y-104904761D01*
X110480952Y-104857142D01*
X110576190Y-104809523D01*
X110861904Y-104809523D01*
X110957142Y-104857142D01*
X111004761Y-104904761D01*
X111052380Y-105000000D01*
X111052380Y-105142857D01*
X110385714Y-104380952D02*
X111052380Y-104380952D01*
X110480952Y-104380952D02*
X110433333Y-104333333D01*
X110385714Y-104238095D01*
X110385714Y-104095238D01*
X110433333Y-104000000D01*
X110528571Y-103952380D01*
X111052380Y-103952380D01*
X110385714Y-103619047D02*
X110385714Y-103238095D01*
X110052380Y-103476190D02*
X110909523Y-103476190D01*
X111004761Y-103428571D01*
X111052380Y-103333333D01*
X111052380Y-103238095D01*
X111052380Y-102904761D02*
X110385714Y-102904761D01*
X110576190Y-102904761D02*
X110480952Y-102857142D01*
X110433333Y-102809523D01*
X110385714Y-102714285D01*
X110385714Y-102619047D01*
X111052380Y-102142857D02*
X111004761Y-102238095D01*
X110957142Y-102285714D01*
X110861904Y-102333333D01*
X110576190Y-102333333D01*
X110480952Y-102285714D01*
X110433333Y-102238095D01*
X110385714Y-102142857D01*
X110385714Y-102000000D01*
X110433333Y-101904761D01*
X110480952Y-101857142D01*
X110576190Y-101809523D01*
X110861904Y-101809523D01*
X110957142Y-101857142D01*
X111004761Y-101904761D01*
X111052380Y-102000000D01*
X111052380Y-102142857D01*
X111052380Y-101238095D02*
X111004761Y-101333333D01*
X110909523Y-101380952D01*
X110052380Y-101380952D01*
X110528571Y-99761904D02*
X110576190Y-99619047D01*
X110623809Y-99571428D01*
X110719047Y-99523809D01*
X110861904Y-99523809D01*
X110957142Y-99571428D01*
X111004761Y-99619047D01*
X111052380Y-99714285D01*
X111052380Y-100095238D01*
X110052380Y-100095238D01*
X110052380Y-99761904D01*
X110100000Y-99666666D01*
X110147619Y-99619047D01*
X110242857Y-99571428D01*
X110338095Y-99571428D01*
X110433333Y-99619047D01*
X110480952Y-99666666D01*
X110528571Y-99761904D01*
X110528571Y-100095238D01*
X111052380Y-99095238D02*
X110385714Y-99095238D01*
X110052380Y-99095238D02*
X110100000Y-99142857D01*
X110147619Y-99095238D01*
X110100000Y-99047619D01*
X110052380Y-99095238D01*
X110147619Y-99095238D01*
X110385714Y-98761904D02*
X110385714Y-98380952D01*
X110052380Y-98619047D02*
X110909523Y-98619047D01*
X111004761Y-98571428D01*
X111052380Y-98476190D01*
X111052380Y-98380952D01*
X111004761Y-98095238D02*
X111052380Y-98000000D01*
X111052380Y-97809523D01*
X111004761Y-97714285D01*
X110909523Y-97666666D01*
X110861904Y-97666666D01*
X110766666Y-97714285D01*
X110719047Y-97809523D01*
X110719047Y-97952380D01*
X110671428Y-98047619D01*
X110576190Y-98095238D01*
X110528571Y-98095238D01*
X110433333Y-98047619D01*
X110385714Y-97952380D01*
X110385714Y-97809523D01*
X110433333Y-97714285D01*
D11*
X182768000Y-105070000D02*
X180318000Y-105070000D01*
X180968000Y-108290000D02*
X182768000Y-108290000D01*
X175148000Y-105136000D02*
X172698000Y-105136000D01*
X173348000Y-108356000D02*
X175148000Y-108356000D01*
X159908000Y-105136000D02*
X157458000Y-105136000D01*
X158108000Y-108356000D02*
X159908000Y-108356000D01*
X167528000Y-105136000D02*
X165078000Y-105136000D01*
X165728000Y-108356000D02*
X167528000Y-108356000D01*
X152288000Y-105136000D02*
X149838000Y-105136000D01*
X150488000Y-108356000D02*
X152288000Y-108356000D01*
X144668000Y-112756000D02*
X142218000Y-112756000D01*
X142868000Y-115976000D02*
X144668000Y-115976000D01*
X144668000Y-105136000D02*
X142218000Y-105136000D01*
X142868000Y-108356000D02*
X144668000Y-108356000D01*
X137142000Y-112690000D02*
X134692000Y-112690000D01*
X135342000Y-115910000D02*
X137142000Y-115910000D01*
X137142000Y-105136000D02*
X134692000Y-105136000D01*
X135342000Y-108356000D02*
X137142000Y-108356000D01*
X126808000Y-112624000D02*
X124358000Y-112624000D01*
X125008000Y-115844000D02*
X126808000Y-115844000D01*
X126888000Y-117704000D02*
X124438000Y-117704000D01*
X125088000Y-120924000D02*
X126888000Y-120924000D01*
X114150000Y-76972000D02*
X114150000Y-78632000D01*
X122070000Y-76972000D02*
X114150000Y-76972000D01*
X122070000Y-78632000D02*
X122070000Y-76972000D01*
X116060000Y-86442000D02*
X114910000Y-86442000D01*
X120160000Y-87032000D02*
X119460000Y-87032000D01*
X120160000Y-86442000D02*
X120160000Y-87032000D01*
X121310000Y-86442000D02*
X120160000Y-86442000D01*
X114150000Y-84132000D02*
X114150000Y-81532000D01*
X122070000Y-81532000D02*
X122070000Y-84132000D01*
X119034779Y-89584000D02*
X118709221Y-89584000D01*
X119034779Y-90604000D02*
X118709221Y-90604000D01*
X146482000Y-90658000D02*
X143032000Y-90658000D01*
X146482000Y-90658000D02*
X148432000Y-90658000D01*
X146482000Y-95778000D02*
X144532000Y-95778000D01*
X146482000Y-95778000D02*
X148432000Y-95778000D01*
X164262000Y-90531000D02*
X160812000Y-90531000D01*
X164262000Y-90531000D02*
X166212000Y-90531000D01*
X164262000Y-95651000D02*
X162312000Y-95651000D01*
X164262000Y-95651000D02*
X166212000Y-95651000D01*
X128702000Y-90658000D02*
X125252000Y-90658000D01*
X128702000Y-90658000D02*
X130652000Y-90658000D01*
X128702000Y-95778000D02*
X126752000Y-95778000D01*
X128702000Y-95778000D02*
X130652000Y-95778000D01*
X112970000Y-123326000D02*
X112970000Y-121996000D01*
X114300000Y-123326000D02*
X112970000Y-123326000D01*
X115570000Y-123326000D02*
X115570000Y-120666000D01*
X115570000Y-120666000D02*
X118170000Y-120666000D01*
X115570000Y-123326000D02*
X118170000Y-123326000D01*
X118170000Y-123326000D02*
X118170000Y-120666000D01*
X180037000Y-81573000D02*
X180037000Y-83858000D01*
X181507000Y-81573000D02*
X180037000Y-81573000D01*
X181507000Y-83858000D02*
X181507000Y-81573000D01*
X169877000Y-81547500D02*
X169877000Y-83832500D01*
X171347000Y-81547500D02*
X169877000Y-81547500D01*
X171347000Y-83832500D02*
X171347000Y-81547500D01*
X152097000Y-81547500D02*
X152097000Y-83832500D01*
X153567000Y-81547500D02*
X152097000Y-81547500D01*
X153567000Y-83832500D02*
X153567000Y-81547500D01*
X134317000Y-81547500D02*
X134317000Y-83832500D01*
X135787000Y-81547500D02*
X134317000Y-81547500D01*
X135787000Y-83832500D02*
X135787000Y-81547500D01*
X160050000Y-79544000D02*
X160050000Y-80334000D01*
X166950000Y-80334000D02*
X166950000Y-79544000D01*
X165100000Y-81384000D02*
X163400000Y-81384000D01*
X166350000Y-78534000D02*
X160650000Y-78534000D01*
X163600000Y-77244000D02*
X163600000Y-78534000D01*
X164700000Y-77034000D02*
X163800000Y-77034000D01*
X164900000Y-78534000D02*
X164900000Y-77244000D01*
X163600000Y-77244000D02*
X163800000Y-77034000D01*
X164900000Y-77244000D02*
X164700000Y-77034000D01*
X162100000Y-81384000D02*
X161900000Y-81384000D01*
X143822000Y-77818000D02*
X142897000Y-77818000D01*
X147697000Y-79943000D02*
X147697000Y-79393000D01*
X142797000Y-79943000D02*
X142797000Y-79393000D01*
X147597000Y-81518000D02*
X142897000Y-81518000D01*
X147597000Y-77818000D02*
X146672000Y-77818000D01*
X130708000Y-79146000D02*
X129808000Y-79146000D01*
X130708000Y-79146000D02*
X129808000Y-79146000D01*
X130708000Y-79146000D02*
X130708000Y-79146000D01*
X126528000Y-83986000D02*
X126048000Y-83986000D01*
X128828000Y-83986000D02*
X128308000Y-83986000D01*
X131088000Y-83986000D02*
X130608000Y-83986000D01*
X127328000Y-79146000D02*
X126048000Y-79146000D01*
X131088000Y-79146000D02*
X129808000Y-79146000D01*
X126048000Y-79146000D02*
X126048000Y-83986000D01*
X131088000Y-79146000D02*
X131088000Y-83986000D01*
X183822000Y-83220779D02*
X183822000Y-82895221D01*
X182802000Y-83220779D02*
X182802000Y-82895221D01*
X173662000Y-83195279D02*
X173662000Y-82869721D01*
X172642000Y-83195279D02*
X172642000Y-82869721D01*
X155882000Y-83195279D02*
X155882000Y-82869721D01*
X154862000Y-83195279D02*
X154862000Y-82869721D01*
X138102000Y-83195279D02*
X138102000Y-82869721D01*
X137082000Y-83195279D02*
X137082000Y-82869721D01*
X164424779Y-96264000D02*
X164099221Y-96264000D01*
X164424779Y-97284000D02*
X164099221Y-97284000D01*
X164399279Y-88898000D02*
X164073721Y-88898000D01*
X164399279Y-89918000D02*
X164073721Y-89918000D01*
X152461279Y-91692000D02*
X152135721Y-91692000D01*
X152461279Y-92712000D02*
X152135721Y-92712000D01*
X147940279Y-88898000D02*
X147614721Y-88898000D01*
X147940279Y-89918000D02*
X147614721Y-89918000D01*
X128513721Y-89918000D02*
X128839279Y-89918000D01*
X128513721Y-88898000D02*
X128839279Y-88898000D01*
X134706779Y-91692000D02*
X134381221Y-91692000D01*
X134706779Y-92712000D02*
X134381221Y-92712000D01*
X194070000Y-89170000D02*
X195400000Y-89170000D01*
X194070000Y-90500000D02*
X194070000Y-89170000D01*
X196670000Y-89170000D02*
X199270000Y-89170000D01*
X196670000Y-91770000D02*
X196670000Y-89170000D01*
X194070000Y-91770000D02*
X196670000Y-91770000D01*
X199270000Y-89170000D02*
X199270000Y-114690000D01*
X194070000Y-91770000D02*
X194070000Y-114690000D01*
X194070000Y-114690000D02*
X199270000Y-114690000D01*
X104070000Y-89170000D02*
X105400000Y-89170000D01*
X104070000Y-90500000D02*
X104070000Y-89170000D01*
X106670000Y-89170000D02*
X109270000Y-89170000D01*
X106670000Y-91770000D02*
X106670000Y-89170000D01*
X104070000Y-91770000D02*
X106670000Y-91770000D01*
X109270000Y-89170000D02*
X109270000Y-114690000D01*
X104070000Y-91770000D02*
X104070000Y-114690000D01*
X104070000Y-114690000D02*
X109270000Y-114690000D01*
X169852000Y-94650779D02*
X169852000Y-94325221D01*
X168832000Y-94650779D02*
X168832000Y-94325221D01*
X152161221Y-94490000D02*
X152486779Y-94490000D01*
X152161221Y-93470000D02*
X152486779Y-93470000D01*
X152161221Y-96268000D02*
X152486779Y-96268000D01*
X152161221Y-95248000D02*
X152486779Y-95248000D01*
X134381221Y-94490000D02*
X134706779Y-94490000D01*
X134381221Y-93470000D02*
X134706779Y-93470000D01*
X134355721Y-96268000D02*
X134681279Y-96268000D01*
X134355721Y-95248000D02*
X134681279Y-95248000D01*
X115478779Y-116406000D02*
X115153221Y-116406000D01*
X115478779Y-117426000D02*
X115153221Y-117426000D01*
D10*
X180629904Y-103232380D02*
X180629904Y-104041904D01*
X180677523Y-104137142D01*
X180725142Y-104184761D01*
X180820380Y-104232380D01*
X181010857Y-104232380D01*
X181106095Y-104184761D01*
X181153714Y-104137142D01*
X181201333Y-104041904D01*
X181201333Y-103232380D01*
X182201333Y-104232380D02*
X181629904Y-104232380D01*
X181915619Y-104232380D02*
X181915619Y-103232380D01*
X181820380Y-103375238D01*
X181725142Y-103470476D01*
X181629904Y-103518095D01*
X183058476Y-103565714D02*
X183058476Y-104232380D01*
X182820380Y-103184761D02*
X182582285Y-103899047D01*
X183201333Y-103899047D01*
X173009904Y-103298380D02*
X173009904Y-104107904D01*
X173057523Y-104203142D01*
X173105142Y-104250761D01*
X173200380Y-104298380D01*
X173390857Y-104298380D01*
X173486095Y-104250761D01*
X173533714Y-104203142D01*
X173581333Y-104107904D01*
X173581333Y-103298380D01*
X174581333Y-104298380D02*
X174009904Y-104298380D01*
X174295619Y-104298380D02*
X174295619Y-103298380D01*
X174200380Y-103441238D01*
X174105142Y-103536476D01*
X174009904Y-103584095D01*
X174914666Y-103298380D02*
X175533714Y-103298380D01*
X175200380Y-103679333D01*
X175343238Y-103679333D01*
X175438476Y-103726952D01*
X175486095Y-103774571D01*
X175533714Y-103869809D01*
X175533714Y-104107904D01*
X175486095Y-104203142D01*
X175438476Y-104250761D01*
X175343238Y-104298380D01*
X175057523Y-104298380D01*
X174962285Y-104250761D01*
X174914666Y-104203142D01*
X157769904Y-103298380D02*
X157769904Y-104107904D01*
X157817523Y-104203142D01*
X157865142Y-104250761D01*
X157960380Y-104298380D01*
X158150857Y-104298380D01*
X158246095Y-104250761D01*
X158293714Y-104203142D01*
X158341333Y-104107904D01*
X158341333Y-103298380D01*
X159341333Y-104298380D02*
X158769904Y-104298380D01*
X159055619Y-104298380D02*
X159055619Y-103298380D01*
X158960380Y-103441238D01*
X158865142Y-103536476D01*
X158769904Y-103584095D01*
X159722285Y-103393619D02*
X159769904Y-103346000D01*
X159865142Y-103298380D01*
X160103238Y-103298380D01*
X160198476Y-103346000D01*
X160246095Y-103393619D01*
X160293714Y-103488857D01*
X160293714Y-103584095D01*
X160246095Y-103726952D01*
X159674666Y-104298380D01*
X160293714Y-104298380D01*
X165389904Y-103298380D02*
X165389904Y-104107904D01*
X165437523Y-104203142D01*
X165485142Y-104250761D01*
X165580380Y-104298380D01*
X165770857Y-104298380D01*
X165866095Y-104250761D01*
X165913714Y-104203142D01*
X165961333Y-104107904D01*
X165961333Y-103298380D01*
X166961333Y-104298380D02*
X166389904Y-104298380D01*
X166675619Y-104298380D02*
X166675619Y-103298380D01*
X166580380Y-103441238D01*
X166485142Y-103536476D01*
X166389904Y-103584095D01*
X167913714Y-104298380D02*
X167342285Y-104298380D01*
X167628000Y-104298380D02*
X167628000Y-103298380D01*
X167532761Y-103441238D01*
X167437523Y-103536476D01*
X167342285Y-103584095D01*
X150149904Y-103298380D02*
X150149904Y-104107904D01*
X150197523Y-104203142D01*
X150245142Y-104250761D01*
X150340380Y-104298380D01*
X150530857Y-104298380D01*
X150626095Y-104250761D01*
X150673714Y-104203142D01*
X150721333Y-104107904D01*
X150721333Y-103298380D01*
X151721333Y-104298380D02*
X151149904Y-104298380D01*
X151435619Y-104298380D02*
X151435619Y-103298380D01*
X151340380Y-103441238D01*
X151245142Y-103536476D01*
X151149904Y-103584095D01*
X152340380Y-103298380D02*
X152435619Y-103298380D01*
X152530857Y-103346000D01*
X152578476Y-103393619D01*
X152626095Y-103488857D01*
X152673714Y-103679333D01*
X152673714Y-103917428D01*
X152626095Y-104107904D01*
X152578476Y-104203142D01*
X152530857Y-104250761D01*
X152435619Y-104298380D01*
X152340380Y-104298380D01*
X152245142Y-104250761D01*
X152197523Y-104203142D01*
X152149904Y-104107904D01*
X152102285Y-103917428D01*
X152102285Y-103679333D01*
X152149904Y-103488857D01*
X152197523Y-103393619D01*
X152245142Y-103346000D01*
X152340380Y-103298380D01*
X143006095Y-110918380D02*
X143006095Y-111727904D01*
X143053714Y-111823142D01*
X143101333Y-111870761D01*
X143196571Y-111918380D01*
X143387047Y-111918380D01*
X143482285Y-111870761D01*
X143529904Y-111823142D01*
X143577523Y-111727904D01*
X143577523Y-110918380D01*
X144101333Y-111918380D02*
X144291809Y-111918380D01*
X144387047Y-111870761D01*
X144434666Y-111823142D01*
X144529904Y-111680285D01*
X144577523Y-111489809D01*
X144577523Y-111108857D01*
X144529904Y-111013619D01*
X144482285Y-110966000D01*
X144387047Y-110918380D01*
X144196571Y-110918380D01*
X144101333Y-110966000D01*
X144053714Y-111013619D01*
X144006095Y-111108857D01*
X144006095Y-111346952D01*
X144053714Y-111442190D01*
X144101333Y-111489809D01*
X144196571Y-111537428D01*
X144387047Y-111537428D01*
X144482285Y-111489809D01*
X144529904Y-111442190D01*
X144577523Y-111346952D01*
X143006095Y-103298380D02*
X143006095Y-104107904D01*
X143053714Y-104203142D01*
X143101333Y-104250761D01*
X143196571Y-104298380D01*
X143387047Y-104298380D01*
X143482285Y-104250761D01*
X143529904Y-104203142D01*
X143577523Y-104107904D01*
X143577523Y-103298380D01*
X144196571Y-103726952D02*
X144101333Y-103679333D01*
X144053714Y-103631714D01*
X144006095Y-103536476D01*
X144006095Y-103488857D01*
X144053714Y-103393619D01*
X144101333Y-103346000D01*
X144196571Y-103298380D01*
X144387047Y-103298380D01*
X144482285Y-103346000D01*
X144529904Y-103393619D01*
X144577523Y-103488857D01*
X144577523Y-103536476D01*
X144529904Y-103631714D01*
X144482285Y-103679333D01*
X144387047Y-103726952D01*
X144196571Y-103726952D01*
X144101333Y-103774571D01*
X144053714Y-103822190D01*
X144006095Y-103917428D01*
X144006095Y-104107904D01*
X144053714Y-104203142D01*
X144101333Y-104250761D01*
X144196571Y-104298380D01*
X144387047Y-104298380D01*
X144482285Y-104250761D01*
X144529904Y-104203142D01*
X144577523Y-104107904D01*
X144577523Y-103917428D01*
X144529904Y-103822190D01*
X144482285Y-103774571D01*
X144387047Y-103726952D01*
X135480095Y-110852380D02*
X135480095Y-111661904D01*
X135527714Y-111757142D01*
X135575333Y-111804761D01*
X135670571Y-111852380D01*
X135861047Y-111852380D01*
X135956285Y-111804761D01*
X136003904Y-111757142D01*
X136051523Y-111661904D01*
X136051523Y-110852380D01*
X136432476Y-110852380D02*
X137099142Y-110852380D01*
X136670571Y-111852380D01*
X135480095Y-103298380D02*
X135480095Y-104107904D01*
X135527714Y-104203142D01*
X135575333Y-104250761D01*
X135670571Y-104298380D01*
X135861047Y-104298380D01*
X135956285Y-104250761D01*
X136003904Y-104203142D01*
X136051523Y-104107904D01*
X136051523Y-103298380D01*
X136956285Y-103298380D02*
X136765809Y-103298380D01*
X136670571Y-103346000D01*
X136622952Y-103393619D01*
X136527714Y-103536476D01*
X136480095Y-103726952D01*
X136480095Y-104107904D01*
X136527714Y-104203142D01*
X136575333Y-104250761D01*
X136670571Y-104298380D01*
X136861047Y-104298380D01*
X136956285Y-104250761D01*
X137003904Y-104203142D01*
X137051523Y-104107904D01*
X137051523Y-103869809D01*
X137003904Y-103774571D01*
X136956285Y-103726952D01*
X136861047Y-103679333D01*
X136670571Y-103679333D01*
X136575333Y-103726952D01*
X136527714Y-103774571D01*
X136480095Y-103869809D01*
X125146095Y-110786380D02*
X125146095Y-111595904D01*
X125193714Y-111691142D01*
X125241333Y-111738761D01*
X125336571Y-111786380D01*
X125527047Y-111786380D01*
X125622285Y-111738761D01*
X125669904Y-111691142D01*
X125717523Y-111595904D01*
X125717523Y-110786380D01*
X126669904Y-110786380D02*
X126193714Y-110786380D01*
X126146095Y-111262571D01*
X126193714Y-111214952D01*
X126288952Y-111167333D01*
X126527047Y-111167333D01*
X126622285Y-111214952D01*
X126669904Y-111262571D01*
X126717523Y-111357809D01*
X126717523Y-111595904D01*
X126669904Y-111691142D01*
X126622285Y-111738761D01*
X126527047Y-111786380D01*
X126288952Y-111786380D01*
X126193714Y-111738761D01*
X126146095Y-111691142D01*
X125226095Y-115866380D02*
X125226095Y-116675904D01*
X125273714Y-116771142D01*
X125321333Y-116818761D01*
X125416571Y-116866380D01*
X125607047Y-116866380D01*
X125702285Y-116818761D01*
X125749904Y-116771142D01*
X125797523Y-116675904D01*
X125797523Y-115866380D01*
X126702285Y-116199714D02*
X126702285Y-116866380D01*
X126464190Y-115818761D02*
X126226095Y-116533047D01*
X126845142Y-116533047D01*
X191770095Y-86050380D02*
X191770095Y-85050380D01*
X191770095Y-85526571D02*
X192341523Y-85526571D01*
X192341523Y-86050380D02*
X192341523Y-85050380D01*
X193246285Y-85383714D02*
X193246285Y-86050380D01*
X193008190Y-85002761D02*
X192770095Y-85717047D01*
X193389142Y-85717047D01*
X192278095Y-118562380D02*
X192278095Y-117562380D01*
X192278095Y-118038571D02*
X192849523Y-118038571D01*
X192849523Y-118562380D02*
X192849523Y-117562380D01*
X193230476Y-117562380D02*
X193849523Y-117562380D01*
X193516190Y-117943333D01*
X193659047Y-117943333D01*
X193754285Y-117990952D01*
X193801904Y-118038571D01*
X193849523Y-118133809D01*
X193849523Y-118371904D01*
X193801904Y-118467142D01*
X193754285Y-118514761D01*
X193659047Y-118562380D01*
X193373333Y-118562380D01*
X193278095Y-118514761D01*
X193230476Y-118467142D01*
X108838095Y-118252380D02*
X108838095Y-117252380D01*
X108838095Y-117728571D02*
X109409523Y-117728571D01*
X109409523Y-118252380D02*
X109409523Y-117252380D01*
X109838095Y-117347619D02*
X109885714Y-117300000D01*
X109980952Y-117252380D01*
X110219047Y-117252380D01*
X110314285Y-117300000D01*
X110361904Y-117347619D01*
X110409523Y-117442857D01*
X110409523Y-117538095D01*
X110361904Y-117680952D01*
X109790476Y-118252380D01*
X110409523Y-118252380D01*
X108838095Y-86452380D02*
X108838095Y-85452380D01*
X108838095Y-85928571D02*
X109409523Y-85928571D01*
X109409523Y-86452380D02*
X109409523Y-85452380D01*
X110409523Y-86452380D02*
X109838095Y-86452380D01*
X110123809Y-86452380D02*
X110123809Y-85452380D01*
X110028571Y-85595238D01*
X109933333Y-85690476D01*
X109838095Y-85738095D01*
X117776666Y-87684380D02*
X117776666Y-88398666D01*
X117729047Y-88541523D01*
X117633809Y-88636761D01*
X117490952Y-88684380D01*
X117395714Y-88684380D01*
X118681428Y-88017714D02*
X118681428Y-88684380D01*
X118443333Y-87636761D02*
X118205238Y-88351047D01*
X118824285Y-88351047D01*
X118705333Y-91881142D02*
X118657714Y-91928761D01*
X118514857Y-91976380D01*
X118419619Y-91976380D01*
X118276761Y-91928761D01*
X118181523Y-91833523D01*
X118133904Y-91738285D01*
X118086285Y-91547809D01*
X118086285Y-91404952D01*
X118133904Y-91214476D01*
X118181523Y-91119238D01*
X118276761Y-91024000D01*
X118419619Y-90976380D01*
X118514857Y-90976380D01*
X118657714Y-91024000D01*
X118705333Y-91071619D01*
X119038666Y-90976380D02*
X119705333Y-90976380D01*
X119276761Y-91976380D01*
X142926095Y-96226380D02*
X142926095Y-97035904D01*
X142973714Y-97131142D01*
X143021333Y-97178761D01*
X143116571Y-97226380D01*
X143307047Y-97226380D01*
X143402285Y-97178761D01*
X143449904Y-97131142D01*
X143497523Y-97035904D01*
X143497523Y-96226380D01*
X143926095Y-96321619D02*
X143973714Y-96274000D01*
X144068952Y-96226380D01*
X144307047Y-96226380D01*
X144402285Y-96274000D01*
X144449904Y-96321619D01*
X144497523Y-96416857D01*
X144497523Y-96512095D01*
X144449904Y-96654952D01*
X143878476Y-97226380D01*
X144497523Y-97226380D01*
X166294095Y-88860380D02*
X166294095Y-89669904D01*
X166341714Y-89765142D01*
X166389333Y-89812761D01*
X166484571Y-89860380D01*
X166675047Y-89860380D01*
X166770285Y-89812761D01*
X166817904Y-89765142D01*
X166865523Y-89669904D01*
X166865523Y-88860380D01*
X167246476Y-88860380D02*
X167865523Y-88860380D01*
X167532190Y-89241333D01*
X167675047Y-89241333D01*
X167770285Y-89288952D01*
X167817904Y-89336571D01*
X167865523Y-89431809D01*
X167865523Y-89669904D01*
X167817904Y-89765142D01*
X167770285Y-89812761D01*
X167675047Y-89860380D01*
X167389333Y-89860380D01*
X167294095Y-89812761D01*
X167246476Y-89765142D01*
X125146095Y-96226380D02*
X125146095Y-97035904D01*
X125193714Y-97131142D01*
X125241333Y-97178761D01*
X125336571Y-97226380D01*
X125527047Y-97226380D01*
X125622285Y-97178761D01*
X125669904Y-97131142D01*
X125717523Y-97035904D01*
X125717523Y-96226380D01*
X126717523Y-97226380D02*
X126146095Y-97226380D01*
X126431809Y-97226380D02*
X126431809Y-96226380D01*
X126336571Y-96369238D01*
X126241333Y-96464476D01*
X126146095Y-96512095D01*
X111422380Y-122329333D02*
X112136666Y-122329333D01*
X112279523Y-122376952D01*
X112374761Y-122472190D01*
X112422380Y-122615047D01*
X112422380Y-122710285D01*
X112422380Y-121329333D02*
X112422380Y-121900761D01*
X112422380Y-121615047D02*
X111422380Y-121615047D01*
X111565238Y-121710285D01*
X111660476Y-121805523D01*
X111708095Y-121900761D01*
X181224380Y-86590095D02*
X180224380Y-86590095D01*
X180224380Y-86352000D01*
X180272000Y-86209142D01*
X180367238Y-86113904D01*
X180462476Y-86066285D01*
X180652952Y-86018666D01*
X180795809Y-86018666D01*
X180986285Y-86066285D01*
X181081523Y-86113904D01*
X181176761Y-86209142D01*
X181224380Y-86352000D01*
X181224380Y-86590095D01*
X180557714Y-85161523D02*
X181224380Y-85161523D01*
X180176761Y-85399619D02*
X180891047Y-85637714D01*
X180891047Y-85018666D01*
X171064380Y-86564595D02*
X170064380Y-86564595D01*
X170064380Y-86326500D01*
X170112000Y-86183642D01*
X170207238Y-86088404D01*
X170302476Y-86040785D01*
X170492952Y-85993166D01*
X170635809Y-85993166D01*
X170826285Y-86040785D01*
X170921523Y-86088404D01*
X171016761Y-86183642D01*
X171064380Y-86326500D01*
X171064380Y-86564595D01*
X170064380Y-85659833D02*
X170064380Y-85040785D01*
X170445333Y-85374119D01*
X170445333Y-85231261D01*
X170492952Y-85136023D01*
X170540571Y-85088404D01*
X170635809Y-85040785D01*
X170873904Y-85040785D01*
X170969142Y-85088404D01*
X171016761Y-85136023D01*
X171064380Y-85231261D01*
X171064380Y-85516976D01*
X171016761Y-85612214D01*
X170969142Y-85659833D01*
X153284380Y-81256095D02*
X152284380Y-81256095D01*
X152284380Y-81018000D01*
X152332000Y-80875142D01*
X152427238Y-80779904D01*
X152522476Y-80732285D01*
X152712952Y-80684666D01*
X152855809Y-80684666D01*
X153046285Y-80732285D01*
X153141523Y-80779904D01*
X153236761Y-80875142D01*
X153284380Y-81018000D01*
X153284380Y-81256095D01*
X152379619Y-80303714D02*
X152332000Y-80256095D01*
X152284380Y-80160857D01*
X152284380Y-79922761D01*
X152332000Y-79827523D01*
X152379619Y-79779904D01*
X152474857Y-79732285D01*
X152570095Y-79732285D01*
X152712952Y-79779904D01*
X153284380Y-80351333D01*
X153284380Y-79732285D01*
X135504380Y-81256095D02*
X134504380Y-81256095D01*
X134504380Y-81018000D01*
X134552000Y-80875142D01*
X134647238Y-80779904D01*
X134742476Y-80732285D01*
X134932952Y-80684666D01*
X135075809Y-80684666D01*
X135266285Y-80732285D01*
X135361523Y-80779904D01*
X135456761Y-80875142D01*
X135504380Y-81018000D01*
X135504380Y-81256095D01*
X135504380Y-79732285D02*
X135504380Y-80303714D01*
X135504380Y-80018000D02*
X134504380Y-80018000D01*
X134647238Y-80113238D01*
X134742476Y-80208476D01*
X134790095Y-80303714D01*
X162166666Y-83868761D02*
X162309523Y-83916380D01*
X162547619Y-83916380D01*
X162642857Y-83868761D01*
X162690476Y-83821142D01*
X162738095Y-83725904D01*
X162738095Y-83630666D01*
X162690476Y-83535428D01*
X162642857Y-83487809D01*
X162547619Y-83440190D01*
X162357142Y-83392571D01*
X162261904Y-83344952D01*
X162214285Y-83297333D01*
X162166666Y-83202095D01*
X162166666Y-83106857D01*
X162214285Y-83011619D01*
X162261904Y-82964000D01*
X162357142Y-82916380D01*
X162595238Y-82916380D01*
X162738095Y-82964000D01*
X163071428Y-82916380D02*
X163309523Y-83916380D01*
X163500000Y-83202095D01*
X163690476Y-83916380D01*
X163928571Y-82916380D01*
X164261904Y-83011619D02*
X164309523Y-82964000D01*
X164404761Y-82916380D01*
X164642857Y-82916380D01*
X164738095Y-82964000D01*
X164785714Y-83011619D01*
X164833333Y-83106857D01*
X164833333Y-83202095D01*
X164785714Y-83344952D01*
X164214285Y-83916380D01*
X164833333Y-83916380D01*
X143913666Y-75572761D02*
X144056523Y-75620380D01*
X144294619Y-75620380D01*
X144389857Y-75572761D01*
X144437476Y-75525142D01*
X144485095Y-75429904D01*
X144485095Y-75334666D01*
X144437476Y-75239428D01*
X144389857Y-75191809D01*
X144294619Y-75144190D01*
X144104142Y-75096571D01*
X144008904Y-75048952D01*
X143961285Y-75001333D01*
X143913666Y-74906095D01*
X143913666Y-74810857D01*
X143961285Y-74715619D01*
X144008904Y-74668000D01*
X144104142Y-74620380D01*
X144342238Y-74620380D01*
X144485095Y-74668000D01*
X144818428Y-74620380D02*
X145056523Y-75620380D01*
X145247000Y-74906095D01*
X145437476Y-75620380D01*
X145675571Y-74620380D01*
X146580333Y-75620380D02*
X146008904Y-75620380D01*
X146294619Y-75620380D02*
X146294619Y-74620380D01*
X146199380Y-74763238D01*
X146104142Y-74858476D01*
X146008904Y-74906095D01*
X132670380Y-84161238D02*
X132194190Y-84494571D01*
X132670380Y-84732666D02*
X131670380Y-84732666D01*
X131670380Y-84351714D01*
X131718000Y-84256476D01*
X131765619Y-84208857D01*
X131860857Y-84161238D01*
X132003714Y-84161238D01*
X132098952Y-84208857D01*
X132146571Y-84256476D01*
X132194190Y-84351714D01*
X132194190Y-84732666D01*
X131670380Y-83875523D02*
X132670380Y-83542190D01*
X131670380Y-83208857D01*
X132670380Y-82351714D02*
X132670380Y-82923142D01*
X132670380Y-82637428D02*
X131670380Y-82637428D01*
X131813238Y-82732666D01*
X131908476Y-82827904D01*
X131956095Y-82923142D01*
X183764380Y-86748857D02*
X183288190Y-87082190D01*
X183764380Y-87320285D02*
X182764380Y-87320285D01*
X182764380Y-86939333D01*
X182812000Y-86844095D01*
X182859619Y-86796476D01*
X182954857Y-86748857D01*
X183097714Y-86748857D01*
X183192952Y-86796476D01*
X183240571Y-86844095D01*
X183288190Y-86939333D01*
X183288190Y-87320285D01*
X183764380Y-85796476D02*
X183764380Y-86367904D01*
X183764380Y-86082190D02*
X182764380Y-86082190D01*
X182907238Y-86177428D01*
X183002476Y-86272666D01*
X183050095Y-86367904D01*
X182764380Y-85177428D02*
X182764380Y-85082190D01*
X182812000Y-84986952D01*
X182859619Y-84939333D01*
X182954857Y-84891714D01*
X183145333Y-84844095D01*
X183383428Y-84844095D01*
X183573904Y-84891714D01*
X183669142Y-84939333D01*
X183716761Y-84986952D01*
X183764380Y-85082190D01*
X183764380Y-85177428D01*
X183716761Y-85272666D01*
X183669142Y-85320285D01*
X183573904Y-85367904D01*
X183383428Y-85415523D01*
X183145333Y-85415523D01*
X182954857Y-85367904D01*
X182859619Y-85320285D01*
X182812000Y-85272666D01*
X182764380Y-85177428D01*
X173604380Y-85993166D02*
X173128190Y-86326500D01*
X173604380Y-86564595D02*
X172604380Y-86564595D01*
X172604380Y-86183642D01*
X172652000Y-86088404D01*
X172699619Y-86040785D01*
X172794857Y-85993166D01*
X172937714Y-85993166D01*
X173032952Y-86040785D01*
X173080571Y-86088404D01*
X173128190Y-86183642D01*
X173128190Y-86564595D01*
X173604380Y-85516976D02*
X173604380Y-85326500D01*
X173556761Y-85231261D01*
X173509142Y-85183642D01*
X173366285Y-85088404D01*
X173175809Y-85040785D01*
X172794857Y-85040785D01*
X172699619Y-85088404D01*
X172652000Y-85136023D01*
X172604380Y-85231261D01*
X172604380Y-85421738D01*
X172652000Y-85516976D01*
X172699619Y-85564595D01*
X172794857Y-85612214D01*
X173032952Y-85612214D01*
X173128190Y-85564595D01*
X173175809Y-85516976D01*
X173223428Y-85421738D01*
X173223428Y-85231261D01*
X173175809Y-85136023D01*
X173128190Y-85088404D01*
X173032952Y-85040785D01*
X155824380Y-80684666D02*
X155348190Y-81018000D01*
X155824380Y-81256095D02*
X154824380Y-81256095D01*
X154824380Y-80875142D01*
X154872000Y-80779904D01*
X154919619Y-80732285D01*
X155014857Y-80684666D01*
X155157714Y-80684666D01*
X155252952Y-80732285D01*
X155300571Y-80779904D01*
X155348190Y-80875142D01*
X155348190Y-81256095D01*
X155252952Y-80113238D02*
X155205333Y-80208476D01*
X155157714Y-80256095D01*
X155062476Y-80303714D01*
X155014857Y-80303714D01*
X154919619Y-80256095D01*
X154872000Y-80208476D01*
X154824380Y-80113238D01*
X154824380Y-79922761D01*
X154872000Y-79827523D01*
X154919619Y-79779904D01*
X155014857Y-79732285D01*
X155062476Y-79732285D01*
X155157714Y-79779904D01*
X155205333Y-79827523D01*
X155252952Y-79922761D01*
X155252952Y-80113238D01*
X155300571Y-80208476D01*
X155348190Y-80256095D01*
X155443428Y-80303714D01*
X155633904Y-80303714D01*
X155729142Y-80256095D01*
X155776761Y-80208476D01*
X155824380Y-80113238D01*
X155824380Y-79922761D01*
X155776761Y-79827523D01*
X155729142Y-79779904D01*
X155633904Y-79732285D01*
X155443428Y-79732285D01*
X155348190Y-79779904D01*
X155300571Y-79827523D01*
X155252952Y-79922761D01*
X138044380Y-80684666D02*
X137568190Y-81018000D01*
X138044380Y-81256095D02*
X137044380Y-81256095D01*
X137044380Y-80875142D01*
X137092000Y-80779904D01*
X137139619Y-80732285D01*
X137234857Y-80684666D01*
X137377714Y-80684666D01*
X137472952Y-80732285D01*
X137520571Y-80779904D01*
X137568190Y-80875142D01*
X137568190Y-81256095D01*
X137044380Y-80351333D02*
X137044380Y-79684666D01*
X138044380Y-80113238D01*
X164095333Y-98656380D02*
X163762000Y-98180190D01*
X163523904Y-98656380D02*
X163523904Y-97656380D01*
X163904857Y-97656380D01*
X164000095Y-97704000D01*
X164047714Y-97751619D01*
X164095333Y-97846857D01*
X164095333Y-97989714D01*
X164047714Y-98084952D01*
X164000095Y-98132571D01*
X163904857Y-98180190D01*
X163523904Y-98180190D01*
X164952476Y-97656380D02*
X164762000Y-97656380D01*
X164666761Y-97704000D01*
X164619142Y-97751619D01*
X164523904Y-97894476D01*
X164476285Y-98084952D01*
X164476285Y-98465904D01*
X164523904Y-98561142D01*
X164571523Y-98608761D01*
X164666761Y-98656380D01*
X164857238Y-98656380D01*
X164952476Y-98608761D01*
X165000095Y-98561142D01*
X165047714Y-98465904D01*
X165047714Y-98227809D01*
X165000095Y-98132571D01*
X164952476Y-98084952D01*
X164857238Y-98037333D01*
X164666761Y-98037333D01*
X164571523Y-98084952D01*
X164523904Y-98132571D01*
X164476285Y-98227809D01*
X164095333Y-88336380D02*
X163762000Y-87860190D01*
X163523904Y-88336380D02*
X163523904Y-87336380D01*
X163904857Y-87336380D01*
X164000095Y-87384000D01*
X164047714Y-87431619D01*
X164095333Y-87526857D01*
X164095333Y-87669714D01*
X164047714Y-87764952D01*
X164000095Y-87812571D01*
X163904857Y-87860190D01*
X163523904Y-87860190D01*
X165000095Y-87336380D02*
X164523904Y-87336380D01*
X164476285Y-87812571D01*
X164523904Y-87764952D01*
X164619142Y-87717333D01*
X164857238Y-87717333D01*
X164952476Y-87764952D01*
X165000095Y-87812571D01*
X165047714Y-87907809D01*
X165047714Y-88145904D01*
X165000095Y-88241142D01*
X164952476Y-88288761D01*
X164857238Y-88336380D01*
X164619142Y-88336380D01*
X164523904Y-88288761D01*
X164476285Y-88241142D01*
X154925833Y-92654380D02*
X154592500Y-92178190D01*
X154354404Y-92654380D02*
X154354404Y-91654380D01*
X154735357Y-91654380D01*
X154830595Y-91702000D01*
X154878214Y-91749619D01*
X154925833Y-91844857D01*
X154925833Y-91987714D01*
X154878214Y-92082952D01*
X154830595Y-92130571D01*
X154735357Y-92178190D01*
X154354404Y-92178190D01*
X155782976Y-91987714D02*
X155782976Y-92654380D01*
X155544880Y-91606761D02*
X155306785Y-92321047D01*
X155925833Y-92321047D01*
X147610833Y-88336380D02*
X147277500Y-87860190D01*
X147039404Y-88336380D02*
X147039404Y-87336380D01*
X147420357Y-87336380D01*
X147515595Y-87384000D01*
X147563214Y-87431619D01*
X147610833Y-87526857D01*
X147610833Y-87669714D01*
X147563214Y-87764952D01*
X147515595Y-87812571D01*
X147420357Y-87860190D01*
X147039404Y-87860190D01*
X147944166Y-87336380D02*
X148563214Y-87336380D01*
X148229880Y-87717333D01*
X148372738Y-87717333D01*
X148467976Y-87764952D01*
X148515595Y-87812571D01*
X148563214Y-87907809D01*
X148563214Y-88145904D01*
X148515595Y-88241142D01*
X148467976Y-88288761D01*
X148372738Y-88336380D01*
X148087023Y-88336380D01*
X147991785Y-88288761D01*
X147944166Y-88241142D01*
X128535333Y-88336380D02*
X128202000Y-87860190D01*
X127963904Y-88336380D02*
X127963904Y-87336380D01*
X128344857Y-87336380D01*
X128440095Y-87384000D01*
X128487714Y-87431619D01*
X128535333Y-87526857D01*
X128535333Y-87669714D01*
X128487714Y-87764952D01*
X128440095Y-87812571D01*
X128344857Y-87860190D01*
X127963904Y-87860190D01*
X128916285Y-87431619D02*
X128963904Y-87384000D01*
X129059142Y-87336380D01*
X129297238Y-87336380D01*
X129392476Y-87384000D01*
X129440095Y-87431619D01*
X129487714Y-87526857D01*
X129487714Y-87622095D01*
X129440095Y-87764952D01*
X128868666Y-88336380D01*
X129487714Y-88336380D01*
X137171333Y-92654380D02*
X136838000Y-92178190D01*
X136599904Y-92654380D02*
X136599904Y-91654380D01*
X136980857Y-91654380D01*
X137076095Y-91702000D01*
X137123714Y-91749619D01*
X137171333Y-91844857D01*
X137171333Y-91987714D01*
X137123714Y-92082952D01*
X137076095Y-92130571D01*
X136980857Y-92178190D01*
X136599904Y-92178190D01*
X138123714Y-92654380D02*
X137552285Y-92654380D01*
X137838000Y-92654380D02*
X137838000Y-91654380D01*
X137742761Y-91797238D01*
X137647523Y-91892476D01*
X137552285Y-91940095D01*
X196336666Y-87622380D02*
X196336666Y-88336666D01*
X196289047Y-88479523D01*
X196193809Y-88574761D01*
X196050952Y-88622380D01*
X195955714Y-88622380D01*
X196717619Y-87622380D02*
X197336666Y-87622380D01*
X197003333Y-88003333D01*
X197146190Y-88003333D01*
X197241428Y-88050952D01*
X197289047Y-88098571D01*
X197336666Y-88193809D01*
X197336666Y-88431904D01*
X197289047Y-88527142D01*
X197241428Y-88574761D01*
X197146190Y-88622380D01*
X196860476Y-88622380D01*
X196765238Y-88574761D01*
X196717619Y-88527142D01*
X104066666Y-87452380D02*
X104066666Y-88166666D01*
X104019047Y-88309523D01*
X103923809Y-88404761D01*
X103780952Y-88452380D01*
X103685714Y-88452380D01*
X104495238Y-87547619D02*
X104542857Y-87500000D01*
X104638095Y-87452380D01*
X104876190Y-87452380D01*
X104971428Y-87500000D01*
X105019047Y-87547619D01*
X105066666Y-87642857D01*
X105066666Y-87738095D01*
X105019047Y-87880952D01*
X104447619Y-88452380D01*
X105066666Y-88452380D01*
X170207142Y-97194666D02*
X170254761Y-97242285D01*
X170302380Y-97385142D01*
X170302380Y-97480380D01*
X170254761Y-97623238D01*
X170159523Y-97718476D01*
X170064285Y-97766095D01*
X169873809Y-97813714D01*
X169730952Y-97813714D01*
X169540476Y-97766095D01*
X169445238Y-97718476D01*
X169350000Y-97623238D01*
X169302380Y-97480380D01*
X169302380Y-97385142D01*
X169350000Y-97242285D01*
X169397619Y-97194666D01*
X169302380Y-96337523D02*
X169302380Y-96528000D01*
X169350000Y-96623238D01*
X169397619Y-96670857D01*
X169540476Y-96766095D01*
X169730952Y-96813714D01*
X170111904Y-96813714D01*
X170207142Y-96766095D01*
X170254761Y-96718476D01*
X170302380Y-96623238D01*
X170302380Y-96432761D01*
X170254761Y-96337523D01*
X170207142Y-96289904D01*
X170111904Y-96242285D01*
X169873809Y-96242285D01*
X169778571Y-96289904D01*
X169730952Y-96337523D01*
X169683333Y-96432761D01*
X169683333Y-96623238D01*
X169730952Y-96718476D01*
X169778571Y-96766095D01*
X169873809Y-96813714D01*
X154951333Y-94337142D02*
X154903714Y-94384761D01*
X154760857Y-94432380D01*
X154665619Y-94432380D01*
X154522761Y-94384761D01*
X154427523Y-94289523D01*
X154379904Y-94194285D01*
X154332285Y-94003809D01*
X154332285Y-93860952D01*
X154379904Y-93670476D01*
X154427523Y-93575238D01*
X154522761Y-93480000D01*
X154665619Y-93432380D01*
X154760857Y-93432380D01*
X154903714Y-93480000D01*
X154951333Y-93527619D01*
X155856095Y-93432380D02*
X155379904Y-93432380D01*
X155332285Y-93908571D01*
X155379904Y-93860952D01*
X155475142Y-93813333D01*
X155713238Y-93813333D01*
X155808476Y-93860952D01*
X155856095Y-93908571D01*
X155903714Y-94003809D01*
X155903714Y-94241904D01*
X155856095Y-94337142D01*
X155808476Y-94384761D01*
X155713238Y-94432380D01*
X155475142Y-94432380D01*
X155379904Y-94384761D01*
X155332285Y-94337142D01*
X154951333Y-96115142D02*
X154903714Y-96162761D01*
X154760857Y-96210380D01*
X154665619Y-96210380D01*
X154522761Y-96162761D01*
X154427523Y-96067523D01*
X154379904Y-95972285D01*
X154332285Y-95781809D01*
X154332285Y-95638952D01*
X154379904Y-95448476D01*
X154427523Y-95353238D01*
X154522761Y-95258000D01*
X154665619Y-95210380D01*
X154760857Y-95210380D01*
X154903714Y-95258000D01*
X154951333Y-95305619D01*
X155808476Y-95543714D02*
X155808476Y-96210380D01*
X155570380Y-95162761D02*
X155332285Y-95877047D01*
X155951333Y-95877047D01*
X137171333Y-94337142D02*
X137123714Y-94384761D01*
X136980857Y-94432380D01*
X136885619Y-94432380D01*
X136742761Y-94384761D01*
X136647523Y-94289523D01*
X136599904Y-94194285D01*
X136552285Y-94003809D01*
X136552285Y-93860952D01*
X136599904Y-93670476D01*
X136647523Y-93575238D01*
X136742761Y-93480000D01*
X136885619Y-93432380D01*
X136980857Y-93432380D01*
X137123714Y-93480000D01*
X137171333Y-93527619D01*
X137504666Y-93432380D02*
X138123714Y-93432380D01*
X137790380Y-93813333D01*
X137933238Y-93813333D01*
X138028476Y-93860952D01*
X138076095Y-93908571D01*
X138123714Y-94003809D01*
X138123714Y-94241904D01*
X138076095Y-94337142D01*
X138028476Y-94384761D01*
X137933238Y-94432380D01*
X137647523Y-94432380D01*
X137552285Y-94384761D01*
X137504666Y-94337142D01*
X137171333Y-96115142D02*
X137123714Y-96162761D01*
X136980857Y-96210380D01*
X136885619Y-96210380D01*
X136742761Y-96162761D01*
X136647523Y-96067523D01*
X136599904Y-95972285D01*
X136552285Y-95781809D01*
X136552285Y-95638952D01*
X136599904Y-95448476D01*
X136647523Y-95353238D01*
X136742761Y-95258000D01*
X136885619Y-95210380D01*
X136980857Y-95210380D01*
X137123714Y-95258000D01*
X137171333Y-95305619D01*
X137552285Y-95305619D02*
X137599904Y-95258000D01*
X137695142Y-95210380D01*
X137933238Y-95210380D01*
X138028476Y-95258000D01*
X138076095Y-95305619D01*
X138123714Y-95400857D01*
X138123714Y-95496095D01*
X138076095Y-95638952D01*
X137504666Y-96210380D01*
X138123714Y-96210380D01*
X115149333Y-118703142D02*
X115101714Y-118750761D01*
X114958857Y-118798380D01*
X114863619Y-118798380D01*
X114720761Y-118750761D01*
X114625523Y-118655523D01*
X114577904Y-118560285D01*
X114530285Y-118369809D01*
X114530285Y-118226952D01*
X114577904Y-118036476D01*
X114625523Y-117941238D01*
X114720761Y-117846000D01*
X114863619Y-117798380D01*
X114958857Y-117798380D01*
X115101714Y-117846000D01*
X115149333Y-117893619D01*
X116101714Y-118798380D02*
X115530285Y-118798380D01*
X115816000Y-118798380D02*
X115816000Y-117798380D01*
X115720761Y-117941238D01*
X115625523Y-118036476D01*
X115530285Y-118084095D01*
M02*
