G04 #@! TF.GenerationSoftware,KiCad,Pcbnew,(5.1.5)-3*
G04 #@! TF.CreationDate,2021-01-18T17:20:57+00:00*
G04 #@! TF.ProjectId,Little Logic Computer - Power+Timing,4c697474-6c65-4204-9c6f-67696320436f,rev?*
G04 #@! TF.SameCoordinates,Original*
G04 #@! TF.FileFunction,Copper,L2,Bot*
G04 #@! TF.FilePolarity,Positive*
%FSLAX46Y46*%
G04 Gerber Fmt 4.6, Leading zero omitted, Abs format (unit mm)*
G04 Created by KiCad (PCBNEW (5.1.5)-3) date 2021-01-18 17:20:57*
%MOMM*%
%LPD*%
G04 APERTURE LIST*
%ADD10O,1.700000X1.700000*%
%ADD11R,1.700000X1.700000*%
%ADD12C,0.800000*%
%ADD13C,0.250000*%
%ADD14C,0.500000*%
%ADD15C,0.254000*%
G04 APERTURE END LIST*
D10*
X116840000Y-121996000D03*
D11*
X114300000Y-121996000D03*
D10*
X197940000Y-113360000D03*
X195400000Y-113360000D03*
X197940000Y-110820000D03*
X195400000Y-110820000D03*
X197940000Y-108280000D03*
X195400000Y-108280000D03*
X197940000Y-105740000D03*
X195400000Y-105740000D03*
X197940000Y-103200000D03*
X195400000Y-103200000D03*
X197940000Y-100660000D03*
X195400000Y-100660000D03*
X197940000Y-98120000D03*
X195400000Y-98120000D03*
X197940000Y-95580000D03*
X195400000Y-95580000D03*
X197940000Y-93040000D03*
X195400000Y-93040000D03*
X197940000Y-90500000D03*
D11*
X195400000Y-90500000D03*
D10*
X107940000Y-113360000D03*
X105400000Y-113360000D03*
X107940000Y-110820000D03*
X105400000Y-110820000D03*
X107940000Y-108280000D03*
X105400000Y-108280000D03*
X107940000Y-105740000D03*
X105400000Y-105740000D03*
X107940000Y-103200000D03*
X105400000Y-103200000D03*
X107940000Y-100660000D03*
X105400000Y-100660000D03*
X107940000Y-98120000D03*
X105400000Y-98120000D03*
X107940000Y-95580000D03*
X105400000Y-95580000D03*
X107940000Y-93040000D03*
X105400000Y-93040000D03*
X107940000Y-90500000D03*
D11*
X105400000Y-90500000D03*
D12*
X122860000Y-120396000D03*
X122860000Y-115316000D03*
X122860000Y-121412000D03*
X133274000Y-115316000D03*
X133274000Y-121412000D03*
X133274000Y-107696000D03*
X140893994Y-115316000D03*
X140894000Y-107696000D03*
X140894000Y-121412000D03*
X140894000Y-109220000D03*
X178994000Y-107696000D03*
X178994000Y-109220000D03*
X171374000Y-107696000D03*
X171374000Y-109220000D03*
X163754000Y-107696000D03*
X163754000Y-109220000D03*
X156134000Y-107696000D03*
X156134000Y-109220000D03*
X148514000Y-107696000D03*
X148514000Y-109220000D03*
X133274000Y-99568000D03*
X140894000Y-78994000D03*
X140894000Y-93980000D03*
X140894000Y-91186000D03*
X140894000Y-83820000D03*
X156134000Y-95758000D03*
X157912000Y-83820000D03*
X157912000Y-95758010D03*
X148514000Y-121412000D03*
X156134000Y-121412000D03*
X163754000Y-121412000D03*
X171374000Y-121412000D03*
X174930000Y-83820000D03*
X174930000Y-121412000D03*
X174930000Y-88138000D03*
X185344000Y-88138000D03*
X185344000Y-83820000D03*
X124460000Y-91440000D03*
X124460000Y-85598000D03*
X124460000Y-99568000D03*
X128956000Y-118364000D03*
X128956000Y-113284000D03*
X128956000Y-122936000D03*
X139116000Y-122936000D03*
X139116000Y-113284000D03*
X139116000Y-105664000D03*
X146736000Y-105664000D03*
X146736000Y-113284000D03*
X146736000Y-122936000D03*
X154356000Y-105664000D03*
X154356000Y-109982000D03*
X146736000Y-109982000D03*
X161976000Y-105664000D03*
X161976000Y-109982000D03*
X169596000Y-105664000D03*
X169596000Y-109982000D03*
X177216000Y-105664000D03*
X177216000Y-109982000D03*
X184836000Y-105664000D03*
X184836000Y-109982000D03*
X131242000Y-98552000D03*
X131242000Y-89662000D03*
X128956000Y-95250000D03*
X166548000Y-96774000D03*
X166548000Y-109982000D03*
X168580000Y-91186000D03*
X168580000Y-96774000D03*
X139116000Y-92201992D03*
X139116000Y-95250000D03*
X156896000Y-92202000D03*
X156896000Y-109982000D03*
X156896000Y-89408000D03*
X154356000Y-122936000D03*
X156896000Y-122936000D03*
X161976000Y-122936000D03*
X166548000Y-122936000D03*
X169596000Y-122936000D03*
X177216000Y-122936000D03*
X168580000Y-89408000D03*
X188976000Y-122936000D03*
X188976000Y-113538000D03*
X128956000Y-98552000D03*
X122174000Y-90170000D03*
X122174016Y-94996000D03*
X129718000Y-85598000D03*
X129718000Y-93726000D03*
X163246000Y-91186000D03*
X163246000Y-93726000D03*
X163246014Y-83058000D03*
X111760000Y-113284000D03*
X111760000Y-88900000D03*
X185598000Y-107696000D03*
X185691144Y-109463607D03*
X177978000Y-107696000D03*
X177978000Y-83820000D03*
X177978000Y-104902000D03*
X177978000Y-110922000D03*
X126416000Y-89408000D03*
X126416000Y-79756000D03*
X145466000Y-89408000D03*
X145466000Y-80518000D03*
X145466000Y-92456000D03*
X159182000Y-92456000D03*
X159182000Y-89408000D03*
X165786000Y-83058000D03*
X165786000Y-84582000D03*
X159182000Y-84582000D03*
X161722000Y-96774000D03*
X161721998Y-83058000D03*
X133528000Y-83820000D03*
X133528000Y-97536000D03*
X134798000Y-104394000D03*
X134798000Y-97536000D03*
X123698000Y-93980000D03*
X123698000Y-97536000D03*
X132512000Y-114300000D03*
X132512000Y-100584000D03*
X141910000Y-100584000D03*
X141910000Y-93726000D03*
X141910000Y-83820000D03*
X122098000Y-118364000D03*
X122098000Y-106680000D03*
X131496000Y-102362000D03*
X131562000Y-106746000D03*
X159943988Y-93726000D03*
X159944000Y-102362000D03*
X159944000Y-83820000D03*
X131242000Y-120142000D03*
X131242000Y-113284000D03*
X129718006Y-115316000D03*
X162738000Y-107696000D03*
X129718000Y-116586000D03*
X162738000Y-116586000D03*
X147498000Y-107696000D03*
X147498000Y-115316000D03*
D13*
X122860000Y-120396000D02*
X122860000Y-115316000D01*
X122860000Y-120396000D02*
X122860000Y-121412000D01*
X133274000Y-115316000D02*
X133274000Y-121412000D01*
X133274000Y-107696000D02*
X133274000Y-115316000D01*
X140893994Y-107696006D02*
X140894000Y-107696000D01*
X140893994Y-115316000D02*
X140893994Y-121411994D01*
X140893994Y-121411994D02*
X140894000Y-121412000D01*
X140893994Y-109219994D02*
X140894000Y-109220000D01*
X140893994Y-109219994D02*
X140893994Y-107696006D01*
X140893994Y-115316000D02*
X140893994Y-109219994D01*
X178994000Y-107696000D02*
X178994000Y-109220000D01*
X171374000Y-107696000D02*
X171374000Y-109220000D01*
X163754000Y-107696000D02*
X163754000Y-109220000D01*
X156134000Y-107696000D02*
X156134000Y-109220000D01*
X148514000Y-107696000D02*
X148514000Y-109220000D01*
X133274000Y-107696000D02*
X133274000Y-99568000D01*
X140894000Y-107696000D02*
X140894000Y-91186000D01*
X140894000Y-91186000D02*
X140894000Y-83820000D01*
X140894000Y-78994000D02*
X140894000Y-83820000D01*
X156134000Y-107696000D02*
X156134000Y-95758000D01*
X157912000Y-83820000D02*
X157912000Y-95758010D01*
X148514000Y-109220000D02*
X148514000Y-121412000D01*
X156134000Y-109220000D02*
X156134000Y-121412000D01*
X163754000Y-109220000D02*
X163754000Y-121412000D01*
X171374000Y-109220000D02*
X171374000Y-121412000D01*
X174930000Y-88138000D02*
X174930000Y-121412000D01*
X174930000Y-83820000D02*
X174930000Y-88138000D01*
X185344000Y-88138000D02*
X185344000Y-83820000D01*
X124460000Y-91440000D02*
X124460000Y-85598000D01*
X124460000Y-91440000D02*
X124460000Y-92005685D01*
X124460000Y-92005685D02*
X124460000Y-99568000D01*
X128956000Y-118364000D02*
X128956000Y-113284000D01*
X128956000Y-118364000D02*
X128956000Y-122936000D01*
X139116000Y-113284000D02*
X139116000Y-122936000D01*
X139116000Y-113284000D02*
X139116000Y-105664000D01*
X146736000Y-113284000D02*
X146736000Y-122936000D01*
X154356000Y-105664000D02*
X154356000Y-109982000D01*
X146736000Y-105664000D02*
X146736000Y-109982000D01*
X146736000Y-109982000D02*
X146736000Y-113284000D01*
X161976000Y-105664000D02*
X161976000Y-109982000D01*
X169596000Y-105664000D02*
X169596000Y-109982000D01*
X177216000Y-105664000D02*
X177216000Y-109982000D01*
X184836000Y-105664000D02*
X184836000Y-109982000D01*
X131242000Y-98552000D02*
X131242000Y-89662000D01*
X166548000Y-96774000D02*
X166548000Y-109982000D01*
X168580000Y-91186000D02*
X168580000Y-96774000D01*
X139116000Y-105664000D02*
X139116000Y-95250000D01*
X139116000Y-95250000D02*
X139116000Y-92201992D01*
X156896000Y-92202000D02*
X156896000Y-109982000D01*
X156896000Y-89408000D02*
X156896000Y-92202000D01*
X154356000Y-109982000D02*
X154356000Y-122936000D01*
X156896000Y-109982000D02*
X156896000Y-122936000D01*
X161976000Y-109982000D02*
X161976000Y-122936000D01*
X166548000Y-109982000D02*
X166548000Y-122936000D01*
X169596000Y-109982000D02*
X169596000Y-122936000D01*
X177216000Y-109982000D02*
X177216000Y-122936000D01*
X168580000Y-89408000D02*
X168580000Y-91186000D01*
D14*
X188976000Y-122936000D02*
X188976000Y-113538000D01*
D13*
X128956000Y-113284000D02*
X128956000Y-98552000D01*
X128956000Y-98552000D02*
X128956000Y-95250000D01*
X122174000Y-90170000D02*
X122174000Y-94995984D01*
X122174000Y-94995984D02*
X122174016Y-94996000D01*
X129718000Y-85598000D02*
X129718000Y-93726000D01*
X163246000Y-91186000D02*
X163246000Y-93726000D01*
X163246000Y-91186000D02*
X163246000Y-83058000D01*
X111760000Y-113284000D02*
X111760000Y-88900000D01*
X185691144Y-107789144D02*
X185598000Y-107696000D01*
X185691144Y-109463607D02*
X185691144Y-107789144D01*
X177978000Y-107696000D02*
X177978000Y-109277002D01*
X177978000Y-107696000D02*
X177978000Y-104902000D01*
X177978000Y-104902000D02*
X177978000Y-83820000D01*
X177978000Y-109277002D02*
X177978000Y-110922000D01*
X126416000Y-89408000D02*
X126416000Y-79756000D01*
X145466000Y-89408000D02*
X145466000Y-80518000D01*
X145466000Y-89408000D02*
X145466000Y-92456000D01*
X159182000Y-92456000D02*
X159182000Y-89408000D01*
X165786000Y-83058000D02*
X165786000Y-84582000D01*
X159182000Y-84582000D02*
X159182000Y-89408000D01*
X161722000Y-96774000D02*
X161722000Y-83058000D01*
X133528000Y-83820000D02*
X133528000Y-97536000D01*
X134798000Y-104394000D02*
X134798000Y-97536000D01*
X123698000Y-93980000D02*
X123698000Y-97536000D01*
X132512000Y-114300000D02*
X132512000Y-107384998D01*
X132512000Y-107384998D02*
X132512000Y-100584000D01*
X141910000Y-100584000D02*
X141910000Y-93726000D01*
X141910000Y-93726000D02*
X141910000Y-83820000D01*
X122098000Y-118364000D02*
X122098000Y-106680000D01*
X131496000Y-106680000D02*
X131562000Y-106746000D01*
X131496000Y-102362000D02*
X131496000Y-106680000D01*
X159943988Y-102361988D02*
X159944000Y-102362000D01*
X159943988Y-93726000D02*
X159943988Y-102361988D01*
X159943988Y-93726000D02*
X159943988Y-83820012D01*
X159943988Y-83820012D02*
X159944000Y-83820000D01*
X131242000Y-113284000D02*
X131242000Y-120142000D01*
X129718006Y-115316000D02*
X129718006Y-116585994D01*
X129718006Y-116585994D02*
X129718000Y-116586000D01*
X162738000Y-110293002D02*
X162738000Y-107696000D01*
X162738000Y-116586000D02*
X162738000Y-110293002D01*
X147498000Y-107696000D02*
X147498000Y-115316000D01*
D15*
G36*
X197248126Y-78726714D02*
G01*
X197871572Y-78914943D01*
X198446579Y-79220681D01*
X198951247Y-79632279D01*
X199366362Y-80134067D01*
X199676105Y-80706924D01*
X199868682Y-81329039D01*
X199940001Y-82007594D01*
X199940000Y-121967721D01*
X199873286Y-122648126D01*
X199685057Y-123271570D01*
X199379323Y-123846573D01*
X198967721Y-124351248D01*
X198465933Y-124766362D01*
X197893077Y-125076104D01*
X197270961Y-125268682D01*
X196592417Y-125340000D01*
X106632279Y-125340000D01*
X105951874Y-125273286D01*
X105328430Y-125085057D01*
X104753427Y-124779323D01*
X104248752Y-124367721D01*
X103833638Y-123865933D01*
X103523896Y-123293077D01*
X103331318Y-122670961D01*
X103260000Y-121992417D01*
X103260000Y-121779872D01*
X104365000Y-121779872D01*
X104365000Y-122220128D01*
X104450890Y-122651925D01*
X104619369Y-123058669D01*
X104863962Y-123424729D01*
X105175271Y-123736038D01*
X105541331Y-123980631D01*
X105948075Y-124149110D01*
X106379872Y-124235000D01*
X106820128Y-124235000D01*
X107251925Y-124149110D01*
X107658669Y-123980631D01*
X108024729Y-123736038D01*
X108336038Y-123424729D01*
X108580631Y-123058669D01*
X108668721Y-122846000D01*
X112811928Y-122846000D01*
X112824188Y-122970482D01*
X112860498Y-123090180D01*
X112919463Y-123200494D01*
X112998815Y-123297185D01*
X113095506Y-123376537D01*
X113205820Y-123435502D01*
X113325518Y-123471812D01*
X113450000Y-123484072D01*
X114014250Y-123481000D01*
X114173000Y-123322250D01*
X114173000Y-122123000D01*
X112973750Y-122123000D01*
X112815000Y-122281750D01*
X112811928Y-122846000D01*
X108668721Y-122846000D01*
X108749110Y-122651925D01*
X108835000Y-122220128D01*
X108835000Y-121779872D01*
X108749110Y-121348075D01*
X108665408Y-121146000D01*
X112811928Y-121146000D01*
X112815000Y-121710250D01*
X112973750Y-121869000D01*
X114173000Y-121869000D01*
X114173000Y-120669750D01*
X114427000Y-120669750D01*
X114427000Y-121869000D01*
X114447000Y-121869000D01*
X114447000Y-122123000D01*
X114427000Y-122123000D01*
X114427000Y-123322250D01*
X114585750Y-123481000D01*
X115150000Y-123484072D01*
X115274482Y-123471812D01*
X115394180Y-123435502D01*
X115504494Y-123376537D01*
X115601185Y-123297185D01*
X115680537Y-123200494D01*
X115739502Y-123090180D01*
X115761513Y-123017620D01*
X115893368Y-123149475D01*
X116136589Y-123311990D01*
X116406842Y-123423932D01*
X116693740Y-123481000D01*
X116986260Y-123481000D01*
X117273158Y-123423932D01*
X117543411Y-123311990D01*
X117786632Y-123149475D01*
X117993475Y-122942632D01*
X118155990Y-122699411D01*
X118267932Y-122429158D01*
X118325000Y-122142260D01*
X118325000Y-121849740D01*
X118267932Y-121562842D01*
X118155990Y-121292589D01*
X117993475Y-121049368D01*
X117786632Y-120842525D01*
X117543411Y-120680010D01*
X117273158Y-120568068D01*
X116986260Y-120511000D01*
X116693740Y-120511000D01*
X116406842Y-120568068D01*
X116136589Y-120680010D01*
X115893368Y-120842525D01*
X115761513Y-120974380D01*
X115739502Y-120901820D01*
X115680537Y-120791506D01*
X115601185Y-120694815D01*
X115504494Y-120615463D01*
X115394180Y-120556498D01*
X115274482Y-120520188D01*
X115150000Y-120507928D01*
X114585750Y-120511000D01*
X114427000Y-120669750D01*
X114173000Y-120669750D01*
X114014250Y-120511000D01*
X113450000Y-120507928D01*
X113325518Y-120520188D01*
X113205820Y-120556498D01*
X113095506Y-120615463D01*
X112998815Y-120694815D01*
X112919463Y-120791506D01*
X112860498Y-120901820D01*
X112824188Y-121021518D01*
X112811928Y-121146000D01*
X108665408Y-121146000D01*
X108580631Y-120941331D01*
X108336038Y-120575271D01*
X108024729Y-120263962D01*
X107658669Y-120019369D01*
X107251925Y-119850890D01*
X106820128Y-119765000D01*
X106379872Y-119765000D01*
X105948075Y-119850890D01*
X105541331Y-120019369D01*
X105175271Y-120263962D01*
X104863962Y-120575271D01*
X104619369Y-120941331D01*
X104450890Y-121348075D01*
X104365000Y-121779872D01*
X103260000Y-121779872D01*
X103260000Y-89650000D01*
X103911928Y-89650000D01*
X103911928Y-91350000D01*
X103924188Y-91474482D01*
X103960498Y-91594180D01*
X104019463Y-91704494D01*
X104098815Y-91801185D01*
X104195506Y-91880537D01*
X104305820Y-91939502D01*
X104378380Y-91961513D01*
X104246525Y-92093368D01*
X104084010Y-92336589D01*
X103972068Y-92606842D01*
X103915000Y-92893740D01*
X103915000Y-93186260D01*
X103972068Y-93473158D01*
X104084010Y-93743411D01*
X104246525Y-93986632D01*
X104453368Y-94193475D01*
X104627760Y-94310000D01*
X104453368Y-94426525D01*
X104246525Y-94633368D01*
X104084010Y-94876589D01*
X103972068Y-95146842D01*
X103915000Y-95433740D01*
X103915000Y-95726260D01*
X103972068Y-96013158D01*
X104084010Y-96283411D01*
X104246525Y-96526632D01*
X104453368Y-96733475D01*
X104627760Y-96850000D01*
X104453368Y-96966525D01*
X104246525Y-97173368D01*
X104084010Y-97416589D01*
X103972068Y-97686842D01*
X103915000Y-97973740D01*
X103915000Y-98266260D01*
X103972068Y-98553158D01*
X104084010Y-98823411D01*
X104246525Y-99066632D01*
X104453368Y-99273475D01*
X104627760Y-99390000D01*
X104453368Y-99506525D01*
X104246525Y-99713368D01*
X104084010Y-99956589D01*
X103972068Y-100226842D01*
X103915000Y-100513740D01*
X103915000Y-100806260D01*
X103972068Y-101093158D01*
X104084010Y-101363411D01*
X104246525Y-101606632D01*
X104453368Y-101813475D01*
X104627760Y-101930000D01*
X104453368Y-102046525D01*
X104246525Y-102253368D01*
X104084010Y-102496589D01*
X103972068Y-102766842D01*
X103915000Y-103053740D01*
X103915000Y-103346260D01*
X103972068Y-103633158D01*
X104084010Y-103903411D01*
X104246525Y-104146632D01*
X104453368Y-104353475D01*
X104627760Y-104470000D01*
X104453368Y-104586525D01*
X104246525Y-104793368D01*
X104084010Y-105036589D01*
X103972068Y-105306842D01*
X103915000Y-105593740D01*
X103915000Y-105886260D01*
X103972068Y-106173158D01*
X104084010Y-106443411D01*
X104246525Y-106686632D01*
X104453368Y-106893475D01*
X104627760Y-107010000D01*
X104453368Y-107126525D01*
X104246525Y-107333368D01*
X104084010Y-107576589D01*
X103972068Y-107846842D01*
X103915000Y-108133740D01*
X103915000Y-108426260D01*
X103972068Y-108713158D01*
X104084010Y-108983411D01*
X104246525Y-109226632D01*
X104453368Y-109433475D01*
X104627760Y-109550000D01*
X104453368Y-109666525D01*
X104246525Y-109873368D01*
X104084010Y-110116589D01*
X103972068Y-110386842D01*
X103915000Y-110673740D01*
X103915000Y-110966260D01*
X103972068Y-111253158D01*
X104084010Y-111523411D01*
X104246525Y-111766632D01*
X104453368Y-111973475D01*
X104627760Y-112090000D01*
X104453368Y-112206525D01*
X104246525Y-112413368D01*
X104084010Y-112656589D01*
X103972068Y-112926842D01*
X103915000Y-113213740D01*
X103915000Y-113506260D01*
X103972068Y-113793158D01*
X104084010Y-114063411D01*
X104246525Y-114306632D01*
X104453368Y-114513475D01*
X104696589Y-114675990D01*
X104966842Y-114787932D01*
X105253740Y-114845000D01*
X105546260Y-114845000D01*
X105833158Y-114787932D01*
X106103411Y-114675990D01*
X106346632Y-114513475D01*
X106553475Y-114306632D01*
X106670000Y-114132240D01*
X106786525Y-114306632D01*
X106993368Y-114513475D01*
X107236589Y-114675990D01*
X107506842Y-114787932D01*
X107793740Y-114845000D01*
X108086260Y-114845000D01*
X108373158Y-114787932D01*
X108643411Y-114675990D01*
X108886632Y-114513475D01*
X109093475Y-114306632D01*
X109255990Y-114063411D01*
X109367932Y-113793158D01*
X109425000Y-113506260D01*
X109425000Y-113213740D01*
X109367932Y-112926842D01*
X109255990Y-112656589D01*
X109093475Y-112413368D01*
X108886632Y-112206525D01*
X108712240Y-112090000D01*
X108886632Y-111973475D01*
X109093475Y-111766632D01*
X109255990Y-111523411D01*
X109367932Y-111253158D01*
X109425000Y-110966260D01*
X109425000Y-110673740D01*
X109367932Y-110386842D01*
X109255990Y-110116589D01*
X109093475Y-109873368D01*
X108886632Y-109666525D01*
X108712240Y-109550000D01*
X108886632Y-109433475D01*
X109093475Y-109226632D01*
X109255990Y-108983411D01*
X109367932Y-108713158D01*
X109425000Y-108426260D01*
X109425000Y-108133740D01*
X109367932Y-107846842D01*
X109255990Y-107576589D01*
X109093475Y-107333368D01*
X108886632Y-107126525D01*
X108712240Y-107010000D01*
X108886632Y-106893475D01*
X109093475Y-106686632D01*
X109255990Y-106443411D01*
X109367932Y-106173158D01*
X109425000Y-105886260D01*
X109425000Y-105593740D01*
X109367932Y-105306842D01*
X109255990Y-105036589D01*
X109093475Y-104793368D01*
X108886632Y-104586525D01*
X108712240Y-104470000D01*
X108886632Y-104353475D01*
X109093475Y-104146632D01*
X109255990Y-103903411D01*
X109367932Y-103633158D01*
X109425000Y-103346260D01*
X109425000Y-103053740D01*
X109367932Y-102766842D01*
X109255990Y-102496589D01*
X109093475Y-102253368D01*
X108886632Y-102046525D01*
X108712240Y-101930000D01*
X108886632Y-101813475D01*
X109093475Y-101606632D01*
X109255990Y-101363411D01*
X109367932Y-101093158D01*
X109425000Y-100806260D01*
X109425000Y-100513740D01*
X109367932Y-100226842D01*
X109255990Y-99956589D01*
X109093475Y-99713368D01*
X108886632Y-99506525D01*
X108712240Y-99390000D01*
X108886632Y-99273475D01*
X109093475Y-99066632D01*
X109255990Y-98823411D01*
X109367932Y-98553158D01*
X109425000Y-98266260D01*
X109425000Y-97973740D01*
X109367932Y-97686842D01*
X109255990Y-97416589D01*
X109093475Y-97173368D01*
X108886632Y-96966525D01*
X108712240Y-96850000D01*
X108886632Y-96733475D01*
X109093475Y-96526632D01*
X109255990Y-96283411D01*
X109367932Y-96013158D01*
X109425000Y-95726260D01*
X109425000Y-95433740D01*
X109367932Y-95146842D01*
X109255990Y-94876589D01*
X109093475Y-94633368D01*
X108886632Y-94426525D01*
X108712240Y-94310000D01*
X108886632Y-94193475D01*
X109093475Y-93986632D01*
X109255990Y-93743411D01*
X109367932Y-93473158D01*
X109425000Y-93186260D01*
X109425000Y-92893740D01*
X109367932Y-92606842D01*
X109255990Y-92336589D01*
X109093475Y-92093368D01*
X108886632Y-91886525D01*
X108712240Y-91770000D01*
X108886632Y-91653475D01*
X109093475Y-91446632D01*
X109255990Y-91203411D01*
X109367932Y-90933158D01*
X109425000Y-90646260D01*
X109425000Y-90353740D01*
X109367932Y-90066842D01*
X109255990Y-89796589D01*
X109093475Y-89553368D01*
X108886632Y-89346525D01*
X108643411Y-89184010D01*
X108373158Y-89072068D01*
X108086260Y-89015000D01*
X107793740Y-89015000D01*
X107506842Y-89072068D01*
X107236589Y-89184010D01*
X106993368Y-89346525D01*
X106861513Y-89478380D01*
X106839502Y-89405820D01*
X106780537Y-89295506D01*
X106701185Y-89198815D01*
X106604494Y-89119463D01*
X106494180Y-89060498D01*
X106374482Y-89024188D01*
X106250000Y-89011928D01*
X104550000Y-89011928D01*
X104425518Y-89024188D01*
X104305820Y-89060498D01*
X104195506Y-89119463D01*
X104098815Y-89198815D01*
X104019463Y-89295506D01*
X103960498Y-89405820D01*
X103924188Y-89525518D01*
X103911928Y-89650000D01*
X103260000Y-89650000D01*
X103260000Y-88798061D01*
X110725000Y-88798061D01*
X110725000Y-89001939D01*
X110764774Y-89201898D01*
X110842795Y-89390256D01*
X110956063Y-89559774D01*
X111000001Y-89603712D01*
X111000000Y-112580289D01*
X110956063Y-112624226D01*
X110842795Y-112793744D01*
X110764774Y-112982102D01*
X110725000Y-113182061D01*
X110725000Y-113385939D01*
X110764774Y-113585898D01*
X110842795Y-113774256D01*
X110956063Y-113943774D01*
X111100226Y-114087937D01*
X111269744Y-114201205D01*
X111458102Y-114279226D01*
X111658061Y-114319000D01*
X111861939Y-114319000D01*
X112061898Y-114279226D01*
X112250256Y-114201205D01*
X112419774Y-114087937D01*
X112563937Y-113943774D01*
X112677205Y-113774256D01*
X112755226Y-113585898D01*
X112795000Y-113385939D01*
X112795000Y-113182061D01*
X112755226Y-112982102D01*
X112677205Y-112793744D01*
X112563937Y-112624226D01*
X112520000Y-112580289D01*
X112520000Y-106578061D01*
X121063000Y-106578061D01*
X121063000Y-106781939D01*
X121102774Y-106981898D01*
X121180795Y-107170256D01*
X121294063Y-107339774D01*
X121338001Y-107383712D01*
X121338000Y-117660289D01*
X121294063Y-117704226D01*
X121180795Y-117873744D01*
X121102774Y-118062102D01*
X121063000Y-118262061D01*
X121063000Y-118465939D01*
X121102774Y-118665898D01*
X121180795Y-118854256D01*
X121294063Y-119023774D01*
X121438226Y-119167937D01*
X121607744Y-119281205D01*
X121796102Y-119359226D01*
X121996061Y-119399000D01*
X122199939Y-119399000D01*
X122399898Y-119359226D01*
X122588256Y-119281205D01*
X122757774Y-119167937D01*
X122901937Y-119023774D01*
X123015205Y-118854256D01*
X123093226Y-118665898D01*
X123133000Y-118465939D01*
X123133000Y-118262061D01*
X123093226Y-118062102D01*
X123015205Y-117873744D01*
X122901937Y-117704226D01*
X122858000Y-117660289D01*
X122858000Y-107383711D01*
X122901937Y-107339774D01*
X123015205Y-107170256D01*
X123093226Y-106981898D01*
X123133000Y-106781939D01*
X123133000Y-106578061D01*
X123093226Y-106378102D01*
X123015205Y-106189744D01*
X122901937Y-106020226D01*
X122757774Y-105876063D01*
X122588256Y-105762795D01*
X122399898Y-105684774D01*
X122199939Y-105645000D01*
X121996061Y-105645000D01*
X121796102Y-105684774D01*
X121607744Y-105762795D01*
X121438226Y-105876063D01*
X121294063Y-106020226D01*
X121180795Y-106189744D01*
X121102774Y-106378102D01*
X121063000Y-106578061D01*
X112520000Y-106578061D01*
X112520000Y-90068061D01*
X121139000Y-90068061D01*
X121139000Y-90271939D01*
X121178774Y-90471898D01*
X121256795Y-90660256D01*
X121370063Y-90829774D01*
X121414000Y-90873711D01*
X121414001Y-94292304D01*
X121370079Y-94336226D01*
X121256811Y-94505744D01*
X121178790Y-94694102D01*
X121139016Y-94894061D01*
X121139016Y-95097939D01*
X121178790Y-95297898D01*
X121256811Y-95486256D01*
X121370079Y-95655774D01*
X121514242Y-95799937D01*
X121683760Y-95913205D01*
X121872118Y-95991226D01*
X122072077Y-96031000D01*
X122275955Y-96031000D01*
X122475914Y-95991226D01*
X122664272Y-95913205D01*
X122833790Y-95799937D01*
X122938000Y-95695727D01*
X122938001Y-96832288D01*
X122894063Y-96876226D01*
X122780795Y-97045744D01*
X122702774Y-97234102D01*
X122663000Y-97434061D01*
X122663000Y-97637939D01*
X122702774Y-97837898D01*
X122780795Y-98026256D01*
X122894063Y-98195774D01*
X123038226Y-98339937D01*
X123207744Y-98453205D01*
X123396102Y-98531226D01*
X123596061Y-98571000D01*
X123799939Y-98571000D01*
X123999898Y-98531226D01*
X124188256Y-98453205D01*
X124357774Y-98339937D01*
X124501937Y-98195774D01*
X124615205Y-98026256D01*
X124693226Y-97837898D01*
X124733000Y-97637939D01*
X124733000Y-97434061D01*
X124693226Y-97234102D01*
X124615205Y-97045744D01*
X124501937Y-96876226D01*
X124458000Y-96832289D01*
X124458000Y-95148061D01*
X127921000Y-95148061D01*
X127921000Y-95351939D01*
X127960774Y-95551898D01*
X128038795Y-95740256D01*
X128152063Y-95909774D01*
X128196001Y-95953712D01*
X128196000Y-97848289D01*
X128152063Y-97892226D01*
X128038795Y-98061744D01*
X127960774Y-98250102D01*
X127921000Y-98450061D01*
X127921000Y-98653939D01*
X127960774Y-98853898D01*
X128038795Y-99042256D01*
X128152063Y-99211774D01*
X128196001Y-99255712D01*
X128196000Y-112580289D01*
X128152063Y-112624226D01*
X128038795Y-112793744D01*
X127960774Y-112982102D01*
X127921000Y-113182061D01*
X127921000Y-113385939D01*
X127960774Y-113585898D01*
X128038795Y-113774256D01*
X128152063Y-113943774D01*
X128196001Y-113987712D01*
X128196000Y-117660289D01*
X128152063Y-117704226D01*
X128038795Y-117873744D01*
X127960774Y-118062102D01*
X127921000Y-118262061D01*
X127921000Y-118465939D01*
X127960774Y-118665898D01*
X128038795Y-118854256D01*
X128152063Y-119023774D01*
X128196000Y-119067711D01*
X128196001Y-122232288D01*
X128152063Y-122276226D01*
X128038795Y-122445744D01*
X127960774Y-122634102D01*
X127921000Y-122834061D01*
X127921000Y-123037939D01*
X127960774Y-123237898D01*
X128038795Y-123426256D01*
X128152063Y-123595774D01*
X128296226Y-123739937D01*
X128465744Y-123853205D01*
X128654102Y-123931226D01*
X128854061Y-123971000D01*
X129057939Y-123971000D01*
X129257898Y-123931226D01*
X129446256Y-123853205D01*
X129615774Y-123739937D01*
X129759937Y-123595774D01*
X129873205Y-123426256D01*
X129951226Y-123237898D01*
X129991000Y-123037939D01*
X129991000Y-122834061D01*
X129951226Y-122634102D01*
X129873205Y-122445744D01*
X129759937Y-122276226D01*
X129716000Y-122232289D01*
X129716000Y-119067711D01*
X129759937Y-119023774D01*
X129873205Y-118854256D01*
X129951226Y-118665898D01*
X129991000Y-118465939D01*
X129991000Y-118262061D01*
X129951226Y-118062102D01*
X129873205Y-117873744D01*
X129759937Y-117704226D01*
X129716000Y-117660289D01*
X129716000Y-117621000D01*
X129819939Y-117621000D01*
X130019898Y-117581226D01*
X130208256Y-117503205D01*
X130377774Y-117389937D01*
X130482001Y-117285710D01*
X130482001Y-119438288D01*
X130438063Y-119482226D01*
X130324795Y-119651744D01*
X130246774Y-119840102D01*
X130207000Y-120040061D01*
X130207000Y-120243939D01*
X130246774Y-120443898D01*
X130324795Y-120632256D01*
X130438063Y-120801774D01*
X130582226Y-120945937D01*
X130751744Y-121059205D01*
X130940102Y-121137226D01*
X131140061Y-121177000D01*
X131343939Y-121177000D01*
X131543898Y-121137226D01*
X131732256Y-121059205D01*
X131901774Y-120945937D01*
X132045937Y-120801774D01*
X132159205Y-120632256D01*
X132237226Y-120443898D01*
X132277000Y-120243939D01*
X132277000Y-120040061D01*
X132237226Y-119840102D01*
X132159205Y-119651744D01*
X132045937Y-119482226D01*
X132002000Y-119438289D01*
X132002000Y-115204013D01*
X132021744Y-115217205D01*
X132210102Y-115295226D01*
X132410061Y-115335000D01*
X132613939Y-115335000D01*
X132813898Y-115295226D01*
X133002256Y-115217205D01*
X133171774Y-115103937D01*
X133315937Y-114959774D01*
X133429205Y-114790256D01*
X133507226Y-114601898D01*
X133547000Y-114401939D01*
X133547000Y-114198061D01*
X133507226Y-113998102D01*
X133429205Y-113809744D01*
X133315937Y-113640226D01*
X133272000Y-113596289D01*
X133272000Y-101287711D01*
X133315937Y-101243774D01*
X133429205Y-101074256D01*
X133507226Y-100885898D01*
X133547000Y-100685939D01*
X133547000Y-100482061D01*
X133507226Y-100282102D01*
X133429205Y-100093744D01*
X133315937Y-99924226D01*
X133171774Y-99780063D01*
X133002256Y-99666795D01*
X132813898Y-99588774D01*
X132613939Y-99549000D01*
X132410061Y-99549000D01*
X132210102Y-99588774D01*
X132021744Y-99666795D01*
X131852226Y-99780063D01*
X131708063Y-99924226D01*
X131594795Y-100093744D01*
X131516774Y-100282102D01*
X131477000Y-100482061D01*
X131477000Y-100685939D01*
X131516774Y-100885898D01*
X131594795Y-101074256D01*
X131708063Y-101243774D01*
X131752001Y-101287712D01*
X131752001Y-101357645D01*
X131597939Y-101327000D01*
X131394061Y-101327000D01*
X131194102Y-101366774D01*
X131005744Y-101444795D01*
X130836226Y-101558063D01*
X130692063Y-101702226D01*
X130578795Y-101871744D01*
X130500774Y-102060102D01*
X130461000Y-102260061D01*
X130461000Y-102463939D01*
X130500774Y-102663898D01*
X130578795Y-102852256D01*
X130692063Y-103021774D01*
X130736000Y-103065711D01*
X130736001Y-106119244D01*
X130644795Y-106255744D01*
X130566774Y-106444102D01*
X130527000Y-106644061D01*
X130527000Y-106847939D01*
X130566774Y-107047898D01*
X130644795Y-107236256D01*
X130758063Y-107405774D01*
X130902226Y-107549937D01*
X131071744Y-107663205D01*
X131260102Y-107741226D01*
X131460061Y-107781000D01*
X131663939Y-107781000D01*
X131752001Y-107763484D01*
X131752000Y-112379988D01*
X131732256Y-112366795D01*
X131543898Y-112288774D01*
X131343939Y-112249000D01*
X131140061Y-112249000D01*
X130940102Y-112288774D01*
X130751744Y-112366795D01*
X130582226Y-112480063D01*
X130438063Y-112624226D01*
X130324795Y-112793744D01*
X130246774Y-112982102D01*
X130207000Y-113182061D01*
X130207000Y-113385939D01*
X130246774Y-113585898D01*
X130324795Y-113774256D01*
X130438063Y-113943774D01*
X130482000Y-113987711D01*
X130482000Y-114616283D01*
X130377780Y-114512063D01*
X130208262Y-114398795D01*
X130019904Y-114320774D01*
X129819945Y-114281000D01*
X129716000Y-114281000D01*
X129716000Y-113987711D01*
X129759937Y-113943774D01*
X129873205Y-113774256D01*
X129951226Y-113585898D01*
X129991000Y-113385939D01*
X129991000Y-113182061D01*
X129951226Y-112982102D01*
X129873205Y-112793744D01*
X129759937Y-112624226D01*
X129716000Y-112580289D01*
X129716000Y-99255711D01*
X129759937Y-99211774D01*
X129873205Y-99042256D01*
X129951226Y-98853898D01*
X129991000Y-98653939D01*
X129991000Y-98450061D01*
X129951226Y-98250102D01*
X129873205Y-98061744D01*
X129759937Y-97892226D01*
X129716000Y-97848289D01*
X129716000Y-95953711D01*
X129759937Y-95909774D01*
X129873205Y-95740256D01*
X129951226Y-95551898D01*
X129991000Y-95351939D01*
X129991000Y-95148061D01*
X129951226Y-94948102D01*
X129873205Y-94759744D01*
X129867697Y-94751500D01*
X130019898Y-94721226D01*
X130208256Y-94643205D01*
X130377774Y-94529937D01*
X130482000Y-94425711D01*
X130482000Y-97848289D01*
X130438063Y-97892226D01*
X130324795Y-98061744D01*
X130246774Y-98250102D01*
X130207000Y-98450061D01*
X130207000Y-98653939D01*
X130246774Y-98853898D01*
X130324795Y-99042256D01*
X130438063Y-99211774D01*
X130582226Y-99355937D01*
X130751744Y-99469205D01*
X130940102Y-99547226D01*
X131140061Y-99587000D01*
X131343939Y-99587000D01*
X131543898Y-99547226D01*
X131732256Y-99469205D01*
X131901774Y-99355937D01*
X132045937Y-99211774D01*
X132159205Y-99042256D01*
X132237226Y-98853898D01*
X132277000Y-98653939D01*
X132277000Y-98450061D01*
X132237226Y-98250102D01*
X132159205Y-98061744D01*
X132045937Y-97892226D01*
X132002000Y-97848289D01*
X132002000Y-90365711D01*
X132045937Y-90321774D01*
X132159205Y-90152256D01*
X132237226Y-89963898D01*
X132277000Y-89763939D01*
X132277000Y-89560061D01*
X132237226Y-89360102D01*
X132159205Y-89171744D01*
X132045937Y-89002226D01*
X131901774Y-88858063D01*
X131732256Y-88744795D01*
X131543898Y-88666774D01*
X131343939Y-88627000D01*
X131140061Y-88627000D01*
X130940102Y-88666774D01*
X130751744Y-88744795D01*
X130582226Y-88858063D01*
X130478000Y-88962289D01*
X130478000Y-86301711D01*
X130521937Y-86257774D01*
X130635205Y-86088256D01*
X130713226Y-85899898D01*
X130753000Y-85699939D01*
X130753000Y-85496061D01*
X130713226Y-85296102D01*
X130635205Y-85107744D01*
X130521937Y-84938226D01*
X130377774Y-84794063D01*
X130208256Y-84680795D01*
X130019898Y-84602774D01*
X129819939Y-84563000D01*
X129616061Y-84563000D01*
X129416102Y-84602774D01*
X129227744Y-84680795D01*
X129058226Y-84794063D01*
X128914063Y-84938226D01*
X128800795Y-85107744D01*
X128722774Y-85296102D01*
X128683000Y-85496061D01*
X128683000Y-85699939D01*
X128722774Y-85899898D01*
X128800795Y-86088256D01*
X128914063Y-86257774D01*
X128958000Y-86301711D01*
X128958001Y-93022288D01*
X128914063Y-93066226D01*
X128800795Y-93235744D01*
X128722774Y-93424102D01*
X128683000Y-93624061D01*
X128683000Y-93827939D01*
X128722774Y-94027898D01*
X128800795Y-94216256D01*
X128806303Y-94224500D01*
X128654102Y-94254774D01*
X128465744Y-94332795D01*
X128296226Y-94446063D01*
X128152063Y-94590226D01*
X128038795Y-94759744D01*
X127960774Y-94948102D01*
X127921000Y-95148061D01*
X124458000Y-95148061D01*
X124458000Y-94683711D01*
X124501937Y-94639774D01*
X124615205Y-94470256D01*
X124693226Y-94281898D01*
X124733000Y-94081939D01*
X124733000Y-93878061D01*
X124693226Y-93678102D01*
X124615205Y-93489744D01*
X124501937Y-93320226D01*
X124357774Y-93176063D01*
X124188256Y-93062795D01*
X123999898Y-92984774D01*
X123799939Y-92945000D01*
X123596061Y-92945000D01*
X123396102Y-92984774D01*
X123207744Y-93062795D01*
X123038226Y-93176063D01*
X122934000Y-93280289D01*
X122934000Y-90873711D01*
X122977937Y-90829774D01*
X123091205Y-90660256D01*
X123169226Y-90471898D01*
X123209000Y-90271939D01*
X123209000Y-90068061D01*
X123169226Y-89868102D01*
X123091205Y-89679744D01*
X122977937Y-89510226D01*
X122833774Y-89366063D01*
X122664256Y-89252795D01*
X122475898Y-89174774D01*
X122275939Y-89135000D01*
X122072061Y-89135000D01*
X121872102Y-89174774D01*
X121683744Y-89252795D01*
X121514226Y-89366063D01*
X121370063Y-89510226D01*
X121256795Y-89679744D01*
X121178774Y-89868102D01*
X121139000Y-90068061D01*
X112520000Y-90068061D01*
X112520000Y-89603711D01*
X112563937Y-89559774D01*
X112677205Y-89390256D01*
X112755226Y-89201898D01*
X112795000Y-89001939D01*
X112795000Y-88798061D01*
X112755226Y-88598102D01*
X112677205Y-88409744D01*
X112563937Y-88240226D01*
X112419774Y-88096063D01*
X112250256Y-87982795D01*
X112061898Y-87904774D01*
X111861939Y-87865000D01*
X111658061Y-87865000D01*
X111458102Y-87904774D01*
X111269744Y-87982795D01*
X111100226Y-88096063D01*
X110956063Y-88240226D01*
X110842795Y-88409744D01*
X110764774Y-88598102D01*
X110725000Y-88798061D01*
X103260000Y-88798061D01*
X103260000Y-82032278D01*
X103284748Y-81779872D01*
X104365000Y-81779872D01*
X104365000Y-82220128D01*
X104450890Y-82651925D01*
X104619369Y-83058669D01*
X104863962Y-83424729D01*
X105175271Y-83736038D01*
X105541331Y-83980631D01*
X105948075Y-84149110D01*
X106379872Y-84235000D01*
X106820128Y-84235000D01*
X107251925Y-84149110D01*
X107658669Y-83980631D01*
X108024729Y-83736038D01*
X108336038Y-83424729D01*
X108580631Y-83058669D01*
X108656652Y-82875137D01*
X114825000Y-82875137D01*
X114825000Y-83088863D01*
X114866696Y-83298483D01*
X114948485Y-83495940D01*
X115067225Y-83673647D01*
X115218353Y-83824775D01*
X115396060Y-83943515D01*
X115593517Y-84025304D01*
X115803137Y-84067000D01*
X116016863Y-84067000D01*
X116226483Y-84025304D01*
X116423940Y-83943515D01*
X116601647Y-83824775D01*
X116752775Y-83673647D01*
X116871515Y-83495940D01*
X116953304Y-83298483D01*
X116995000Y-83088863D01*
X116995000Y-82875137D01*
X119225000Y-82875137D01*
X119225000Y-83088863D01*
X119266696Y-83298483D01*
X119348485Y-83495940D01*
X119467225Y-83673647D01*
X119618353Y-83824775D01*
X119796060Y-83943515D01*
X119993517Y-84025304D01*
X120203137Y-84067000D01*
X120416863Y-84067000D01*
X120626483Y-84025304D01*
X120823940Y-83943515D01*
X121001647Y-83824775D01*
X121152775Y-83673647D01*
X121271515Y-83495940D01*
X121353304Y-83298483D01*
X121395000Y-83088863D01*
X121395000Y-82875137D01*
X121353304Y-82665517D01*
X121271515Y-82468060D01*
X121152775Y-82290353D01*
X121001647Y-82139225D01*
X120823940Y-82020485D01*
X120626483Y-81938696D01*
X120416863Y-81897000D01*
X120203137Y-81897000D01*
X119993517Y-81938696D01*
X119796060Y-82020485D01*
X119618353Y-82139225D01*
X119467225Y-82290353D01*
X119348485Y-82468060D01*
X119266696Y-82665517D01*
X119225000Y-82875137D01*
X116995000Y-82875137D01*
X116953304Y-82665517D01*
X116871515Y-82468060D01*
X116752775Y-82290353D01*
X116601647Y-82139225D01*
X116423940Y-82020485D01*
X116226483Y-81938696D01*
X116016863Y-81897000D01*
X115803137Y-81897000D01*
X115593517Y-81938696D01*
X115396060Y-82020485D01*
X115218353Y-82139225D01*
X115067225Y-82290353D01*
X114948485Y-82468060D01*
X114866696Y-82665517D01*
X114825000Y-82875137D01*
X108656652Y-82875137D01*
X108749110Y-82651925D01*
X108835000Y-82220128D01*
X108835000Y-81779872D01*
X108749110Y-81348075D01*
X108580631Y-80941331D01*
X108336038Y-80575271D01*
X108024729Y-80263962D01*
X107658669Y-80019369D01*
X107251925Y-79850890D01*
X106820128Y-79765000D01*
X106379872Y-79765000D01*
X105948075Y-79850890D01*
X105541331Y-80019369D01*
X105175271Y-80263962D01*
X104863962Y-80575271D01*
X104619369Y-80941331D01*
X104450890Y-81348075D01*
X104365000Y-81779872D01*
X103284748Y-81779872D01*
X103326714Y-81351874D01*
X103514943Y-80728428D01*
X103820681Y-80153421D01*
X104227949Y-79654061D01*
X125381000Y-79654061D01*
X125381000Y-79857939D01*
X125420774Y-80057898D01*
X125498795Y-80246256D01*
X125612063Y-80415774D01*
X125656001Y-80459712D01*
X125656000Y-88704289D01*
X125612063Y-88748226D01*
X125498795Y-88917744D01*
X125420774Y-89106102D01*
X125381000Y-89306061D01*
X125381000Y-89509939D01*
X125420774Y-89709898D01*
X125498795Y-89898256D01*
X125612063Y-90067774D01*
X125756226Y-90211937D01*
X125925744Y-90325205D01*
X126114102Y-90403226D01*
X126314061Y-90443000D01*
X126517939Y-90443000D01*
X126717898Y-90403226D01*
X126906256Y-90325205D01*
X127075774Y-90211937D01*
X127219937Y-90067774D01*
X127333205Y-89898256D01*
X127411226Y-89709898D01*
X127451000Y-89509939D01*
X127451000Y-89306061D01*
X127411226Y-89106102D01*
X127333205Y-88917744D01*
X127219937Y-88748226D01*
X127176000Y-88704289D01*
X127176000Y-83718061D01*
X132493000Y-83718061D01*
X132493000Y-83921939D01*
X132532774Y-84121898D01*
X132610795Y-84310256D01*
X132724063Y-84479774D01*
X132768000Y-84523711D01*
X132768001Y-96832288D01*
X132724063Y-96876226D01*
X132610795Y-97045744D01*
X132532774Y-97234102D01*
X132493000Y-97434061D01*
X132493000Y-97637939D01*
X132532774Y-97837898D01*
X132610795Y-98026256D01*
X132724063Y-98195774D01*
X132868226Y-98339937D01*
X133037744Y-98453205D01*
X133226102Y-98531226D01*
X133426061Y-98571000D01*
X133629939Y-98571000D01*
X133829898Y-98531226D01*
X134018256Y-98453205D01*
X134038001Y-98440012D01*
X134038000Y-103690289D01*
X133994063Y-103734226D01*
X133880795Y-103903744D01*
X133802774Y-104092102D01*
X133763000Y-104292061D01*
X133763000Y-104495939D01*
X133802774Y-104695898D01*
X133880795Y-104884256D01*
X133994063Y-105053774D01*
X134138226Y-105197937D01*
X134307744Y-105311205D01*
X134496102Y-105389226D01*
X134696061Y-105429000D01*
X134899939Y-105429000D01*
X135099898Y-105389226D01*
X135288256Y-105311205D01*
X135457774Y-105197937D01*
X135601937Y-105053774D01*
X135715205Y-104884256D01*
X135793226Y-104695898D01*
X135833000Y-104495939D01*
X135833000Y-104292061D01*
X135793226Y-104092102D01*
X135715205Y-103903744D01*
X135601937Y-103734226D01*
X135558000Y-103690289D01*
X135558000Y-98239711D01*
X135601937Y-98195774D01*
X135715205Y-98026256D01*
X135793226Y-97837898D01*
X135833000Y-97637939D01*
X135833000Y-97434061D01*
X135793226Y-97234102D01*
X135715205Y-97045744D01*
X135601937Y-96876226D01*
X135457774Y-96732063D01*
X135288256Y-96618795D01*
X135099898Y-96540774D01*
X134899939Y-96501000D01*
X134696061Y-96501000D01*
X134496102Y-96540774D01*
X134307744Y-96618795D01*
X134288000Y-96631987D01*
X134288000Y-92100053D01*
X138081000Y-92100053D01*
X138081000Y-92303931D01*
X138120774Y-92503890D01*
X138198795Y-92692248D01*
X138312063Y-92861766D01*
X138356001Y-92905704D01*
X138356000Y-94546289D01*
X138312063Y-94590226D01*
X138198795Y-94759744D01*
X138120774Y-94948102D01*
X138081000Y-95148061D01*
X138081000Y-95351939D01*
X138120774Y-95551898D01*
X138198795Y-95740256D01*
X138312063Y-95909774D01*
X138356001Y-95953712D01*
X138356000Y-104960289D01*
X138312063Y-105004226D01*
X138198795Y-105173744D01*
X138120774Y-105362102D01*
X138081000Y-105562061D01*
X138081000Y-105765939D01*
X138120774Y-105965898D01*
X138198795Y-106154256D01*
X138312063Y-106323774D01*
X138356001Y-106367712D01*
X138356000Y-112580289D01*
X138312063Y-112624226D01*
X138198795Y-112793744D01*
X138120774Y-112982102D01*
X138081000Y-113182061D01*
X138081000Y-113385939D01*
X138120774Y-113585898D01*
X138198795Y-113774256D01*
X138312063Y-113943774D01*
X138356000Y-113987711D01*
X138356001Y-122232288D01*
X138312063Y-122276226D01*
X138198795Y-122445744D01*
X138120774Y-122634102D01*
X138081000Y-122834061D01*
X138081000Y-123037939D01*
X138120774Y-123237898D01*
X138198795Y-123426256D01*
X138312063Y-123595774D01*
X138456226Y-123739937D01*
X138625744Y-123853205D01*
X138814102Y-123931226D01*
X139014061Y-123971000D01*
X139217939Y-123971000D01*
X139417898Y-123931226D01*
X139606256Y-123853205D01*
X139775774Y-123739937D01*
X139919937Y-123595774D01*
X140033205Y-123426256D01*
X140111226Y-123237898D01*
X140151000Y-123037939D01*
X140151000Y-122834061D01*
X140111226Y-122634102D01*
X140033205Y-122445744D01*
X139919937Y-122276226D01*
X139876000Y-122232289D01*
X139876000Y-113987711D01*
X139919937Y-113943774D01*
X140033205Y-113774256D01*
X140111226Y-113585898D01*
X140151000Y-113385939D01*
X140151000Y-113182061D01*
X140111226Y-112982102D01*
X140033205Y-112793744D01*
X139919937Y-112624226D01*
X139876000Y-112580289D01*
X139876000Y-106367711D01*
X139919937Y-106323774D01*
X140033205Y-106154256D01*
X140111226Y-105965898D01*
X140151000Y-105765939D01*
X140151000Y-105562061D01*
X145701000Y-105562061D01*
X145701000Y-105765939D01*
X145740774Y-105965898D01*
X145818795Y-106154256D01*
X145932063Y-106323774D01*
X145976000Y-106367711D01*
X145976001Y-109278288D01*
X145932063Y-109322226D01*
X145818795Y-109491744D01*
X145740774Y-109680102D01*
X145701000Y-109880061D01*
X145701000Y-110083939D01*
X145740774Y-110283898D01*
X145818795Y-110472256D01*
X145932063Y-110641774D01*
X145976000Y-110685711D01*
X145976001Y-112580288D01*
X145932063Y-112624226D01*
X145818795Y-112793744D01*
X145740774Y-112982102D01*
X145701000Y-113182061D01*
X145701000Y-113385939D01*
X145740774Y-113585898D01*
X145818795Y-113774256D01*
X145932063Y-113943774D01*
X145976000Y-113987711D01*
X145976001Y-122232288D01*
X145932063Y-122276226D01*
X145818795Y-122445744D01*
X145740774Y-122634102D01*
X145701000Y-122834061D01*
X145701000Y-123037939D01*
X145740774Y-123237898D01*
X145818795Y-123426256D01*
X145932063Y-123595774D01*
X146076226Y-123739937D01*
X146245744Y-123853205D01*
X146434102Y-123931226D01*
X146634061Y-123971000D01*
X146837939Y-123971000D01*
X147037898Y-123931226D01*
X147226256Y-123853205D01*
X147395774Y-123739937D01*
X147539937Y-123595774D01*
X147653205Y-123426256D01*
X147731226Y-123237898D01*
X147771000Y-123037939D01*
X147771000Y-122834061D01*
X147731226Y-122634102D01*
X147653205Y-122445744D01*
X147539937Y-122276226D01*
X147496000Y-122232289D01*
X147496000Y-116351000D01*
X147599939Y-116351000D01*
X147799898Y-116311226D01*
X147988256Y-116233205D01*
X148157774Y-116119937D01*
X148301937Y-115975774D01*
X148415205Y-115806256D01*
X148493226Y-115617898D01*
X148533000Y-115417939D01*
X148533000Y-115214061D01*
X148493226Y-115014102D01*
X148415205Y-114825744D01*
X148301937Y-114656226D01*
X148258000Y-114612289D01*
X148258000Y-108399711D01*
X148301937Y-108355774D01*
X148415205Y-108186256D01*
X148493226Y-107997898D01*
X148533000Y-107797939D01*
X148533000Y-107594061D01*
X148493226Y-107394102D01*
X148415205Y-107205744D01*
X148301937Y-107036226D01*
X148157774Y-106892063D01*
X147988256Y-106778795D01*
X147799898Y-106700774D01*
X147599939Y-106661000D01*
X147496000Y-106661000D01*
X147496000Y-106367711D01*
X147539937Y-106323774D01*
X147653205Y-106154256D01*
X147731226Y-105965898D01*
X147771000Y-105765939D01*
X147771000Y-105562061D01*
X153321000Y-105562061D01*
X153321000Y-105765939D01*
X153360774Y-105965898D01*
X153438795Y-106154256D01*
X153552063Y-106323774D01*
X153596000Y-106367711D01*
X153596001Y-109278288D01*
X153552063Y-109322226D01*
X153438795Y-109491744D01*
X153360774Y-109680102D01*
X153321000Y-109880061D01*
X153321000Y-110083939D01*
X153360774Y-110283898D01*
X153438795Y-110472256D01*
X153552063Y-110641774D01*
X153596000Y-110685711D01*
X153596001Y-122232288D01*
X153552063Y-122276226D01*
X153438795Y-122445744D01*
X153360774Y-122634102D01*
X153321000Y-122834061D01*
X153321000Y-123037939D01*
X153360774Y-123237898D01*
X153438795Y-123426256D01*
X153552063Y-123595774D01*
X153696226Y-123739937D01*
X153865744Y-123853205D01*
X154054102Y-123931226D01*
X154254061Y-123971000D01*
X154457939Y-123971000D01*
X154657898Y-123931226D01*
X154846256Y-123853205D01*
X155015774Y-123739937D01*
X155159937Y-123595774D01*
X155273205Y-123426256D01*
X155351226Y-123237898D01*
X155391000Y-123037939D01*
X155391000Y-122834061D01*
X155351226Y-122634102D01*
X155273205Y-122445744D01*
X155159937Y-122276226D01*
X155116000Y-122232289D01*
X155116000Y-110685711D01*
X155159937Y-110641774D01*
X155273205Y-110472256D01*
X155351226Y-110283898D01*
X155391000Y-110083939D01*
X155391000Y-109880061D01*
X155351226Y-109680102D01*
X155273205Y-109491744D01*
X155159937Y-109322226D01*
X155116000Y-109278289D01*
X155116000Y-106367711D01*
X155159937Y-106323774D01*
X155273205Y-106154256D01*
X155351226Y-105965898D01*
X155391000Y-105765939D01*
X155391000Y-105562061D01*
X155351226Y-105362102D01*
X155273205Y-105173744D01*
X155159937Y-105004226D01*
X155015774Y-104860063D01*
X154846256Y-104746795D01*
X154657898Y-104668774D01*
X154457939Y-104629000D01*
X154254061Y-104629000D01*
X154054102Y-104668774D01*
X153865744Y-104746795D01*
X153696226Y-104860063D01*
X153552063Y-105004226D01*
X153438795Y-105173744D01*
X153360774Y-105362102D01*
X153321000Y-105562061D01*
X147771000Y-105562061D01*
X147731226Y-105362102D01*
X147653205Y-105173744D01*
X147539937Y-105004226D01*
X147395774Y-104860063D01*
X147226256Y-104746795D01*
X147037898Y-104668774D01*
X146837939Y-104629000D01*
X146634061Y-104629000D01*
X146434102Y-104668774D01*
X146245744Y-104746795D01*
X146076226Y-104860063D01*
X145932063Y-105004226D01*
X145818795Y-105173744D01*
X145740774Y-105362102D01*
X145701000Y-105562061D01*
X140151000Y-105562061D01*
X140111226Y-105362102D01*
X140033205Y-105173744D01*
X139919937Y-105004226D01*
X139876000Y-104960289D01*
X139876000Y-95953711D01*
X139919937Y-95909774D01*
X140033205Y-95740256D01*
X140111226Y-95551898D01*
X140151000Y-95351939D01*
X140151000Y-95148061D01*
X140111226Y-94948102D01*
X140033205Y-94759744D01*
X139919937Y-94590226D01*
X139876000Y-94546289D01*
X139876000Y-92905703D01*
X139919937Y-92861766D01*
X140033205Y-92692248D01*
X140111226Y-92503890D01*
X140151000Y-92303931D01*
X140151000Y-92100053D01*
X140111226Y-91900094D01*
X140033205Y-91711736D01*
X139919937Y-91542218D01*
X139775774Y-91398055D01*
X139606256Y-91284787D01*
X139417898Y-91206766D01*
X139217939Y-91166992D01*
X139014061Y-91166992D01*
X138814102Y-91206766D01*
X138625744Y-91284787D01*
X138456226Y-91398055D01*
X138312063Y-91542218D01*
X138198795Y-91711736D01*
X138120774Y-91900094D01*
X138081000Y-92100053D01*
X134288000Y-92100053D01*
X134288000Y-84523711D01*
X134331937Y-84479774D01*
X134445205Y-84310256D01*
X134523226Y-84121898D01*
X134563000Y-83921939D01*
X134563000Y-83718061D01*
X140875000Y-83718061D01*
X140875000Y-83921939D01*
X140914774Y-84121898D01*
X140992795Y-84310256D01*
X141106063Y-84479774D01*
X141150001Y-84523712D01*
X141150000Y-93022289D01*
X141106063Y-93066226D01*
X140992795Y-93235744D01*
X140914774Y-93424102D01*
X140875000Y-93624061D01*
X140875000Y-93827939D01*
X140914774Y-94027898D01*
X140992795Y-94216256D01*
X141106063Y-94385774D01*
X141150001Y-94429712D01*
X141150000Y-99880289D01*
X141106063Y-99924226D01*
X140992795Y-100093744D01*
X140914774Y-100282102D01*
X140875000Y-100482061D01*
X140875000Y-100685939D01*
X140914774Y-100885898D01*
X140992795Y-101074256D01*
X141106063Y-101243774D01*
X141250226Y-101387937D01*
X141419744Y-101501205D01*
X141608102Y-101579226D01*
X141808061Y-101619000D01*
X142011939Y-101619000D01*
X142211898Y-101579226D01*
X142400256Y-101501205D01*
X142569774Y-101387937D01*
X142713937Y-101243774D01*
X142827205Y-101074256D01*
X142905226Y-100885898D01*
X142945000Y-100685939D01*
X142945000Y-100482061D01*
X142905226Y-100282102D01*
X142827205Y-100093744D01*
X142713937Y-99924226D01*
X142670000Y-99880289D01*
X142670000Y-94429711D01*
X142713937Y-94385774D01*
X142827205Y-94216256D01*
X142905226Y-94027898D01*
X142945000Y-93827939D01*
X142945000Y-93624061D01*
X142905226Y-93424102D01*
X142827205Y-93235744D01*
X142713937Y-93066226D01*
X142670000Y-93022289D01*
X142670000Y-84523711D01*
X142713937Y-84479774D01*
X142827205Y-84310256D01*
X142905226Y-84121898D01*
X142945000Y-83921939D01*
X142945000Y-83718061D01*
X142905226Y-83518102D01*
X142827205Y-83329744D01*
X142713937Y-83160226D01*
X142569774Y-83016063D01*
X142400256Y-82902795D01*
X142211898Y-82824774D01*
X142011939Y-82785000D01*
X141808061Y-82785000D01*
X141608102Y-82824774D01*
X141419744Y-82902795D01*
X141250226Y-83016063D01*
X141106063Y-83160226D01*
X140992795Y-83329744D01*
X140914774Y-83518102D01*
X140875000Y-83718061D01*
X134563000Y-83718061D01*
X134523226Y-83518102D01*
X134445205Y-83329744D01*
X134331937Y-83160226D01*
X134187774Y-83016063D01*
X134018256Y-82902795D01*
X133829898Y-82824774D01*
X133629939Y-82785000D01*
X133426061Y-82785000D01*
X133226102Y-82824774D01*
X133037744Y-82902795D01*
X132868226Y-83016063D01*
X132724063Y-83160226D01*
X132610795Y-83329744D01*
X132532774Y-83518102D01*
X132493000Y-83718061D01*
X127176000Y-83718061D01*
X127176000Y-80459711D01*
X127219650Y-80416061D01*
X144431000Y-80416061D01*
X144431000Y-80619939D01*
X144470774Y-80819898D01*
X144548795Y-81008256D01*
X144662063Y-81177774D01*
X144706001Y-81221712D01*
X144706000Y-88704289D01*
X144662063Y-88748226D01*
X144548795Y-88917744D01*
X144470774Y-89106102D01*
X144431000Y-89306061D01*
X144431000Y-89509939D01*
X144470774Y-89709898D01*
X144548795Y-89898256D01*
X144662063Y-90067774D01*
X144706000Y-90111711D01*
X144706001Y-91752288D01*
X144662063Y-91796226D01*
X144548795Y-91965744D01*
X144470774Y-92154102D01*
X144431000Y-92354061D01*
X144431000Y-92557939D01*
X144470774Y-92757898D01*
X144548795Y-92946256D01*
X144662063Y-93115774D01*
X144806226Y-93259937D01*
X144975744Y-93373205D01*
X145164102Y-93451226D01*
X145364061Y-93491000D01*
X145567939Y-93491000D01*
X145767898Y-93451226D01*
X145956256Y-93373205D01*
X146125774Y-93259937D01*
X146269937Y-93115774D01*
X146383205Y-92946256D01*
X146461226Y-92757898D01*
X146501000Y-92557939D01*
X146501000Y-92354061D01*
X146461226Y-92154102D01*
X146383205Y-91965744D01*
X146269937Y-91796226D01*
X146226000Y-91752289D01*
X146226000Y-90111711D01*
X146269937Y-90067774D01*
X146383205Y-89898256D01*
X146461226Y-89709898D01*
X146501000Y-89509939D01*
X146501000Y-89306061D01*
X155861000Y-89306061D01*
X155861000Y-89509939D01*
X155900774Y-89709898D01*
X155978795Y-89898256D01*
X156092063Y-90067774D01*
X156136000Y-90111711D01*
X156136001Y-91498288D01*
X156092063Y-91542226D01*
X155978795Y-91711744D01*
X155900774Y-91900102D01*
X155861000Y-92100061D01*
X155861000Y-92303939D01*
X155900774Y-92503898D01*
X155978795Y-92692256D01*
X156092063Y-92861774D01*
X156136000Y-92905711D01*
X156136001Y-109278288D01*
X156092063Y-109322226D01*
X155978795Y-109491744D01*
X155900774Y-109680102D01*
X155861000Y-109880061D01*
X155861000Y-110083939D01*
X155900774Y-110283898D01*
X155978795Y-110472256D01*
X156092063Y-110641774D01*
X156136000Y-110685711D01*
X156136001Y-122232288D01*
X156092063Y-122276226D01*
X155978795Y-122445744D01*
X155900774Y-122634102D01*
X155861000Y-122834061D01*
X155861000Y-123037939D01*
X155900774Y-123237898D01*
X155978795Y-123426256D01*
X156092063Y-123595774D01*
X156236226Y-123739937D01*
X156405744Y-123853205D01*
X156594102Y-123931226D01*
X156794061Y-123971000D01*
X156997939Y-123971000D01*
X157197898Y-123931226D01*
X157386256Y-123853205D01*
X157555774Y-123739937D01*
X157699937Y-123595774D01*
X157813205Y-123426256D01*
X157891226Y-123237898D01*
X157931000Y-123037939D01*
X157931000Y-122834061D01*
X157891226Y-122634102D01*
X157813205Y-122445744D01*
X157699937Y-122276226D01*
X157656000Y-122232289D01*
X157656000Y-110685711D01*
X157699937Y-110641774D01*
X157813205Y-110472256D01*
X157891226Y-110283898D01*
X157931000Y-110083939D01*
X157931000Y-109880061D01*
X157891226Y-109680102D01*
X157813205Y-109491744D01*
X157699937Y-109322226D01*
X157656000Y-109278289D01*
X157656000Y-105562061D01*
X160941000Y-105562061D01*
X160941000Y-105765939D01*
X160980774Y-105965898D01*
X161058795Y-106154256D01*
X161172063Y-106323774D01*
X161216000Y-106367711D01*
X161216001Y-109278288D01*
X161172063Y-109322226D01*
X161058795Y-109491744D01*
X160980774Y-109680102D01*
X160941000Y-109880061D01*
X160941000Y-110083939D01*
X160980774Y-110283898D01*
X161058795Y-110472256D01*
X161172063Y-110641774D01*
X161216000Y-110685711D01*
X161216001Y-122232288D01*
X161172063Y-122276226D01*
X161058795Y-122445744D01*
X160980774Y-122634102D01*
X160941000Y-122834061D01*
X160941000Y-123037939D01*
X160980774Y-123237898D01*
X161058795Y-123426256D01*
X161172063Y-123595774D01*
X161316226Y-123739937D01*
X161485744Y-123853205D01*
X161674102Y-123931226D01*
X161874061Y-123971000D01*
X162077939Y-123971000D01*
X162277898Y-123931226D01*
X162466256Y-123853205D01*
X162635774Y-123739937D01*
X162779937Y-123595774D01*
X162893205Y-123426256D01*
X162971226Y-123237898D01*
X163011000Y-123037939D01*
X163011000Y-122834061D01*
X162971226Y-122634102D01*
X162893205Y-122445744D01*
X162779937Y-122276226D01*
X162736000Y-122232289D01*
X162736000Y-117621000D01*
X162839939Y-117621000D01*
X163039898Y-117581226D01*
X163228256Y-117503205D01*
X163397774Y-117389937D01*
X163541937Y-117245774D01*
X163655205Y-117076256D01*
X163733226Y-116887898D01*
X163773000Y-116687939D01*
X163773000Y-116484061D01*
X163733226Y-116284102D01*
X163655205Y-116095744D01*
X163541937Y-115926226D01*
X163498000Y-115882289D01*
X163498000Y-108399711D01*
X163541937Y-108355774D01*
X163655205Y-108186256D01*
X163733226Y-107997898D01*
X163773000Y-107797939D01*
X163773000Y-107594061D01*
X163733226Y-107394102D01*
X163655205Y-107205744D01*
X163541937Y-107036226D01*
X163397774Y-106892063D01*
X163228256Y-106778795D01*
X163039898Y-106700774D01*
X162839939Y-106661000D01*
X162736000Y-106661000D01*
X162736000Y-106367711D01*
X162779937Y-106323774D01*
X162893205Y-106154256D01*
X162971226Y-105965898D01*
X163011000Y-105765939D01*
X163011000Y-105562061D01*
X162971226Y-105362102D01*
X162893205Y-105173744D01*
X162779937Y-105004226D01*
X162635774Y-104860063D01*
X162466256Y-104746795D01*
X162277898Y-104668774D01*
X162077939Y-104629000D01*
X161874061Y-104629000D01*
X161674102Y-104668774D01*
X161485744Y-104746795D01*
X161316226Y-104860063D01*
X161172063Y-105004226D01*
X161058795Y-105173744D01*
X160980774Y-105362102D01*
X160941000Y-105562061D01*
X157656000Y-105562061D01*
X157656000Y-92905711D01*
X157699937Y-92861774D01*
X157813205Y-92692256D01*
X157891226Y-92503898D01*
X157931000Y-92303939D01*
X157931000Y-92100061D01*
X157891226Y-91900102D01*
X157813205Y-91711744D01*
X157699937Y-91542226D01*
X157656000Y-91498289D01*
X157656000Y-90111711D01*
X157699937Y-90067774D01*
X157813205Y-89898256D01*
X157891226Y-89709898D01*
X157931000Y-89509939D01*
X157931000Y-89306061D01*
X157891226Y-89106102D01*
X157813205Y-88917744D01*
X157699937Y-88748226D01*
X157555774Y-88604063D01*
X157386256Y-88490795D01*
X157197898Y-88412774D01*
X156997939Y-88373000D01*
X156794061Y-88373000D01*
X156594102Y-88412774D01*
X156405744Y-88490795D01*
X156236226Y-88604063D01*
X156092063Y-88748226D01*
X155978795Y-88917744D01*
X155900774Y-89106102D01*
X155861000Y-89306061D01*
X146501000Y-89306061D01*
X146461226Y-89106102D01*
X146383205Y-88917744D01*
X146269937Y-88748226D01*
X146226000Y-88704289D01*
X146226000Y-84480061D01*
X158147000Y-84480061D01*
X158147000Y-84683939D01*
X158186774Y-84883898D01*
X158264795Y-85072256D01*
X158378063Y-85241774D01*
X158422000Y-85285711D01*
X158422001Y-88704288D01*
X158378063Y-88748226D01*
X158264795Y-88917744D01*
X158186774Y-89106102D01*
X158147000Y-89306061D01*
X158147000Y-89509939D01*
X158186774Y-89709898D01*
X158264795Y-89898256D01*
X158378063Y-90067774D01*
X158422001Y-90111712D01*
X158422000Y-91752289D01*
X158378063Y-91796226D01*
X158264795Y-91965744D01*
X158186774Y-92154102D01*
X158147000Y-92354061D01*
X158147000Y-92557939D01*
X158186774Y-92757898D01*
X158264795Y-92946256D01*
X158378063Y-93115774D01*
X158522226Y-93259937D01*
X158691744Y-93373205D01*
X158880102Y-93451226D01*
X158940959Y-93463331D01*
X158908988Y-93624061D01*
X158908988Y-93827939D01*
X158948762Y-94027898D01*
X159026783Y-94216256D01*
X159140051Y-94385774D01*
X159183988Y-94429711D01*
X159183989Y-101658300D01*
X159140063Y-101702226D01*
X159026795Y-101871744D01*
X158948774Y-102060102D01*
X158909000Y-102260061D01*
X158909000Y-102463939D01*
X158948774Y-102663898D01*
X159026795Y-102852256D01*
X159140063Y-103021774D01*
X159284226Y-103165937D01*
X159453744Y-103279205D01*
X159642102Y-103357226D01*
X159842061Y-103397000D01*
X160045939Y-103397000D01*
X160245898Y-103357226D01*
X160434256Y-103279205D01*
X160603774Y-103165937D01*
X160747937Y-103021774D01*
X160861205Y-102852256D01*
X160939226Y-102663898D01*
X160979000Y-102463939D01*
X160979000Y-102260061D01*
X160939226Y-102060102D01*
X160861205Y-101871744D01*
X160747937Y-101702226D01*
X160703988Y-101658277D01*
X160703988Y-96961344D01*
X160726774Y-97075898D01*
X160804795Y-97264256D01*
X160918063Y-97433774D01*
X161062226Y-97577937D01*
X161231744Y-97691205D01*
X161420102Y-97769226D01*
X161620061Y-97809000D01*
X161823939Y-97809000D01*
X162023898Y-97769226D01*
X162212256Y-97691205D01*
X162381774Y-97577937D01*
X162525937Y-97433774D01*
X162639205Y-97264256D01*
X162717226Y-97075898D01*
X162757000Y-96875939D01*
X162757000Y-96672061D01*
X165513000Y-96672061D01*
X165513000Y-96875939D01*
X165552774Y-97075898D01*
X165630795Y-97264256D01*
X165744063Y-97433774D01*
X165788000Y-97477711D01*
X165788001Y-109278288D01*
X165744063Y-109322226D01*
X165630795Y-109491744D01*
X165552774Y-109680102D01*
X165513000Y-109880061D01*
X165513000Y-110083939D01*
X165552774Y-110283898D01*
X165630795Y-110472256D01*
X165744063Y-110641774D01*
X165788000Y-110685711D01*
X165788001Y-122232288D01*
X165744063Y-122276226D01*
X165630795Y-122445744D01*
X165552774Y-122634102D01*
X165513000Y-122834061D01*
X165513000Y-123037939D01*
X165552774Y-123237898D01*
X165630795Y-123426256D01*
X165744063Y-123595774D01*
X165888226Y-123739937D01*
X166057744Y-123853205D01*
X166246102Y-123931226D01*
X166446061Y-123971000D01*
X166649939Y-123971000D01*
X166849898Y-123931226D01*
X167038256Y-123853205D01*
X167207774Y-123739937D01*
X167351937Y-123595774D01*
X167465205Y-123426256D01*
X167543226Y-123237898D01*
X167583000Y-123037939D01*
X167583000Y-122834061D01*
X167543226Y-122634102D01*
X167465205Y-122445744D01*
X167351937Y-122276226D01*
X167308000Y-122232289D01*
X167308000Y-110685711D01*
X167351937Y-110641774D01*
X167465205Y-110472256D01*
X167543226Y-110283898D01*
X167583000Y-110083939D01*
X167583000Y-109880061D01*
X167543226Y-109680102D01*
X167465205Y-109491744D01*
X167351937Y-109322226D01*
X167308000Y-109278289D01*
X167308000Y-105562061D01*
X168561000Y-105562061D01*
X168561000Y-105765939D01*
X168600774Y-105965898D01*
X168678795Y-106154256D01*
X168792063Y-106323774D01*
X168836000Y-106367711D01*
X168836001Y-109278288D01*
X168792063Y-109322226D01*
X168678795Y-109491744D01*
X168600774Y-109680102D01*
X168561000Y-109880061D01*
X168561000Y-110083939D01*
X168600774Y-110283898D01*
X168678795Y-110472256D01*
X168792063Y-110641774D01*
X168836000Y-110685711D01*
X168836001Y-122232288D01*
X168792063Y-122276226D01*
X168678795Y-122445744D01*
X168600774Y-122634102D01*
X168561000Y-122834061D01*
X168561000Y-123037939D01*
X168600774Y-123237898D01*
X168678795Y-123426256D01*
X168792063Y-123595774D01*
X168936226Y-123739937D01*
X169105744Y-123853205D01*
X169294102Y-123931226D01*
X169494061Y-123971000D01*
X169697939Y-123971000D01*
X169897898Y-123931226D01*
X170086256Y-123853205D01*
X170255774Y-123739937D01*
X170399937Y-123595774D01*
X170513205Y-123426256D01*
X170591226Y-123237898D01*
X170631000Y-123037939D01*
X170631000Y-122834061D01*
X170591226Y-122634102D01*
X170513205Y-122445744D01*
X170399937Y-122276226D01*
X170356000Y-122232289D01*
X170356000Y-110685711D01*
X170399937Y-110641774D01*
X170513205Y-110472256D01*
X170591226Y-110283898D01*
X170631000Y-110083939D01*
X170631000Y-109880061D01*
X170591226Y-109680102D01*
X170513205Y-109491744D01*
X170399937Y-109322226D01*
X170356000Y-109278289D01*
X170356000Y-106367711D01*
X170399937Y-106323774D01*
X170513205Y-106154256D01*
X170591226Y-105965898D01*
X170631000Y-105765939D01*
X170631000Y-105562061D01*
X176181000Y-105562061D01*
X176181000Y-105765939D01*
X176220774Y-105965898D01*
X176298795Y-106154256D01*
X176412063Y-106323774D01*
X176456000Y-106367711D01*
X176456001Y-109278288D01*
X176412063Y-109322226D01*
X176298795Y-109491744D01*
X176220774Y-109680102D01*
X176181000Y-109880061D01*
X176181000Y-110083939D01*
X176220774Y-110283898D01*
X176298795Y-110472256D01*
X176412063Y-110641774D01*
X176456000Y-110685711D01*
X176456001Y-122232288D01*
X176412063Y-122276226D01*
X176298795Y-122445744D01*
X176220774Y-122634102D01*
X176181000Y-122834061D01*
X176181000Y-123037939D01*
X176220774Y-123237898D01*
X176298795Y-123426256D01*
X176412063Y-123595774D01*
X176556226Y-123739937D01*
X176725744Y-123853205D01*
X176914102Y-123931226D01*
X177114061Y-123971000D01*
X177317939Y-123971000D01*
X177517898Y-123931226D01*
X177706256Y-123853205D01*
X177875774Y-123739937D01*
X178019937Y-123595774D01*
X178133205Y-123426256D01*
X178211226Y-123237898D01*
X178251000Y-123037939D01*
X178251000Y-122834061D01*
X178211226Y-122634102D01*
X178133205Y-122445744D01*
X178019937Y-122276226D01*
X177976000Y-122232289D01*
X177976000Y-113436061D01*
X187941000Y-113436061D01*
X187941000Y-113639939D01*
X187980774Y-113839898D01*
X188058795Y-114028256D01*
X188091001Y-114076456D01*
X188091000Y-122397546D01*
X188058795Y-122445744D01*
X187980774Y-122634102D01*
X187941000Y-122834061D01*
X187941000Y-123037939D01*
X187980774Y-123237898D01*
X188058795Y-123426256D01*
X188172063Y-123595774D01*
X188316226Y-123739937D01*
X188485744Y-123853205D01*
X188674102Y-123931226D01*
X188874061Y-123971000D01*
X189077939Y-123971000D01*
X189277898Y-123931226D01*
X189466256Y-123853205D01*
X189635774Y-123739937D01*
X189779937Y-123595774D01*
X189893205Y-123426256D01*
X189971226Y-123237898D01*
X190011000Y-123037939D01*
X190011000Y-122834061D01*
X189971226Y-122634102D01*
X189893205Y-122445744D01*
X189861000Y-122397546D01*
X189861000Y-121779872D01*
X194365000Y-121779872D01*
X194365000Y-122220128D01*
X194450890Y-122651925D01*
X194619369Y-123058669D01*
X194863962Y-123424729D01*
X195175271Y-123736038D01*
X195541331Y-123980631D01*
X195948075Y-124149110D01*
X196379872Y-124235000D01*
X196820128Y-124235000D01*
X197251925Y-124149110D01*
X197658669Y-123980631D01*
X198024729Y-123736038D01*
X198336038Y-123424729D01*
X198580631Y-123058669D01*
X198749110Y-122651925D01*
X198835000Y-122220128D01*
X198835000Y-121779872D01*
X198749110Y-121348075D01*
X198580631Y-120941331D01*
X198336038Y-120575271D01*
X198024729Y-120263962D01*
X197658669Y-120019369D01*
X197251925Y-119850890D01*
X196820128Y-119765000D01*
X196379872Y-119765000D01*
X195948075Y-119850890D01*
X195541331Y-120019369D01*
X195175271Y-120263962D01*
X194863962Y-120575271D01*
X194619369Y-120941331D01*
X194450890Y-121348075D01*
X194365000Y-121779872D01*
X189861000Y-121779872D01*
X189861000Y-114076454D01*
X189893205Y-114028256D01*
X189971226Y-113839898D01*
X190011000Y-113639939D01*
X190011000Y-113436061D01*
X189971226Y-113236102D01*
X189893205Y-113047744D01*
X189779937Y-112878226D01*
X189635774Y-112734063D01*
X189466256Y-112620795D01*
X189277898Y-112542774D01*
X189077939Y-112503000D01*
X188874061Y-112503000D01*
X188674102Y-112542774D01*
X188485744Y-112620795D01*
X188316226Y-112734063D01*
X188172063Y-112878226D01*
X188058795Y-113047744D01*
X187980774Y-113236102D01*
X187941000Y-113436061D01*
X177976000Y-113436061D01*
X177976000Y-111957000D01*
X178079939Y-111957000D01*
X178279898Y-111917226D01*
X178468256Y-111839205D01*
X178637774Y-111725937D01*
X178781937Y-111581774D01*
X178895205Y-111412256D01*
X178973226Y-111223898D01*
X179013000Y-111023939D01*
X179013000Y-110820061D01*
X178973226Y-110620102D01*
X178895205Y-110431744D01*
X178781937Y-110262226D01*
X178738000Y-110218289D01*
X178738000Y-108399711D01*
X178781937Y-108355774D01*
X178895205Y-108186256D01*
X178973226Y-107997898D01*
X179013000Y-107797939D01*
X179013000Y-107594061D01*
X178973226Y-107394102D01*
X178895205Y-107205744D01*
X178781937Y-107036226D01*
X178738000Y-106992289D01*
X178738000Y-105605711D01*
X178781650Y-105562061D01*
X183801000Y-105562061D01*
X183801000Y-105765939D01*
X183840774Y-105965898D01*
X183918795Y-106154256D01*
X184032063Y-106323774D01*
X184076000Y-106367711D01*
X184076001Y-109278288D01*
X184032063Y-109322226D01*
X183918795Y-109491744D01*
X183840774Y-109680102D01*
X183801000Y-109880061D01*
X183801000Y-110083939D01*
X183840774Y-110283898D01*
X183918795Y-110472256D01*
X184032063Y-110641774D01*
X184176226Y-110785937D01*
X184345744Y-110899205D01*
X184534102Y-110977226D01*
X184734061Y-111017000D01*
X184937939Y-111017000D01*
X185137898Y-110977226D01*
X185326256Y-110899205D01*
X185495774Y-110785937D01*
X185639937Y-110641774D01*
X185735598Y-110498607D01*
X185793083Y-110498607D01*
X185993042Y-110458833D01*
X186181400Y-110380812D01*
X186350918Y-110267544D01*
X186495081Y-110123381D01*
X186608349Y-109953863D01*
X186686370Y-109765505D01*
X186726144Y-109565546D01*
X186726144Y-109361668D01*
X186686370Y-109161709D01*
X186608349Y-108973351D01*
X186495081Y-108803833D01*
X186451144Y-108759896D01*
X186451144Y-108282130D01*
X186515205Y-108186256D01*
X186593226Y-107997898D01*
X186633000Y-107797939D01*
X186633000Y-107594061D01*
X186593226Y-107394102D01*
X186515205Y-107205744D01*
X186401937Y-107036226D01*
X186257774Y-106892063D01*
X186088256Y-106778795D01*
X185899898Y-106700774D01*
X185699939Y-106661000D01*
X185596000Y-106661000D01*
X185596000Y-106367711D01*
X185639937Y-106323774D01*
X185753205Y-106154256D01*
X185831226Y-105965898D01*
X185871000Y-105765939D01*
X185871000Y-105562061D01*
X185831226Y-105362102D01*
X185753205Y-105173744D01*
X185639937Y-105004226D01*
X185495774Y-104860063D01*
X185326256Y-104746795D01*
X185137898Y-104668774D01*
X184937939Y-104629000D01*
X184734061Y-104629000D01*
X184534102Y-104668774D01*
X184345744Y-104746795D01*
X184176226Y-104860063D01*
X184032063Y-105004226D01*
X183918795Y-105173744D01*
X183840774Y-105362102D01*
X183801000Y-105562061D01*
X178781650Y-105562061D01*
X178781937Y-105561774D01*
X178895205Y-105392256D01*
X178973226Y-105203898D01*
X179013000Y-105003939D01*
X179013000Y-104800061D01*
X178973226Y-104600102D01*
X178895205Y-104411744D01*
X178781937Y-104242226D01*
X178738000Y-104198289D01*
X178738000Y-89650000D01*
X193911928Y-89650000D01*
X193911928Y-91350000D01*
X193924188Y-91474482D01*
X193960498Y-91594180D01*
X194019463Y-91704494D01*
X194098815Y-91801185D01*
X194195506Y-91880537D01*
X194305820Y-91939502D01*
X194378380Y-91961513D01*
X194246525Y-92093368D01*
X194084010Y-92336589D01*
X193972068Y-92606842D01*
X193915000Y-92893740D01*
X193915000Y-93186260D01*
X193972068Y-93473158D01*
X194084010Y-93743411D01*
X194246525Y-93986632D01*
X194453368Y-94193475D01*
X194627760Y-94310000D01*
X194453368Y-94426525D01*
X194246525Y-94633368D01*
X194084010Y-94876589D01*
X193972068Y-95146842D01*
X193915000Y-95433740D01*
X193915000Y-95726260D01*
X193972068Y-96013158D01*
X194084010Y-96283411D01*
X194246525Y-96526632D01*
X194453368Y-96733475D01*
X194627760Y-96850000D01*
X194453368Y-96966525D01*
X194246525Y-97173368D01*
X194084010Y-97416589D01*
X193972068Y-97686842D01*
X193915000Y-97973740D01*
X193915000Y-98266260D01*
X193972068Y-98553158D01*
X194084010Y-98823411D01*
X194246525Y-99066632D01*
X194453368Y-99273475D01*
X194627760Y-99390000D01*
X194453368Y-99506525D01*
X194246525Y-99713368D01*
X194084010Y-99956589D01*
X193972068Y-100226842D01*
X193915000Y-100513740D01*
X193915000Y-100806260D01*
X193972068Y-101093158D01*
X194084010Y-101363411D01*
X194246525Y-101606632D01*
X194453368Y-101813475D01*
X194627760Y-101930000D01*
X194453368Y-102046525D01*
X194246525Y-102253368D01*
X194084010Y-102496589D01*
X193972068Y-102766842D01*
X193915000Y-103053740D01*
X193915000Y-103346260D01*
X193972068Y-103633158D01*
X194084010Y-103903411D01*
X194246525Y-104146632D01*
X194453368Y-104353475D01*
X194627760Y-104470000D01*
X194453368Y-104586525D01*
X194246525Y-104793368D01*
X194084010Y-105036589D01*
X193972068Y-105306842D01*
X193915000Y-105593740D01*
X193915000Y-105886260D01*
X193972068Y-106173158D01*
X194084010Y-106443411D01*
X194246525Y-106686632D01*
X194453368Y-106893475D01*
X194627760Y-107010000D01*
X194453368Y-107126525D01*
X194246525Y-107333368D01*
X194084010Y-107576589D01*
X193972068Y-107846842D01*
X193915000Y-108133740D01*
X193915000Y-108426260D01*
X193972068Y-108713158D01*
X194084010Y-108983411D01*
X194246525Y-109226632D01*
X194453368Y-109433475D01*
X194627760Y-109550000D01*
X194453368Y-109666525D01*
X194246525Y-109873368D01*
X194084010Y-110116589D01*
X193972068Y-110386842D01*
X193915000Y-110673740D01*
X193915000Y-110966260D01*
X193972068Y-111253158D01*
X194084010Y-111523411D01*
X194246525Y-111766632D01*
X194453368Y-111973475D01*
X194627760Y-112090000D01*
X194453368Y-112206525D01*
X194246525Y-112413368D01*
X194084010Y-112656589D01*
X193972068Y-112926842D01*
X193915000Y-113213740D01*
X193915000Y-113506260D01*
X193972068Y-113793158D01*
X194084010Y-114063411D01*
X194246525Y-114306632D01*
X194453368Y-114513475D01*
X194696589Y-114675990D01*
X194966842Y-114787932D01*
X195253740Y-114845000D01*
X195546260Y-114845000D01*
X195833158Y-114787932D01*
X196103411Y-114675990D01*
X196346632Y-114513475D01*
X196553475Y-114306632D01*
X196671100Y-114130594D01*
X196842412Y-114360269D01*
X197058645Y-114555178D01*
X197308748Y-114704157D01*
X197583109Y-114801481D01*
X197813000Y-114680814D01*
X197813000Y-113487000D01*
X198067000Y-113487000D01*
X198067000Y-114680814D01*
X198296891Y-114801481D01*
X198571252Y-114704157D01*
X198821355Y-114555178D01*
X199037588Y-114360269D01*
X199211641Y-114126920D01*
X199336825Y-113864099D01*
X199381476Y-113716890D01*
X199260155Y-113487000D01*
X198067000Y-113487000D01*
X197813000Y-113487000D01*
X197793000Y-113487000D01*
X197793000Y-113233000D01*
X197813000Y-113233000D01*
X197813000Y-113213000D01*
X198067000Y-113213000D01*
X198067000Y-113233000D01*
X199260155Y-113233000D01*
X199381476Y-113003110D01*
X199336825Y-112855901D01*
X199211641Y-112593080D01*
X199037588Y-112359731D01*
X198821355Y-112164822D01*
X198704466Y-112095195D01*
X198886632Y-111973475D01*
X199093475Y-111766632D01*
X199255990Y-111523411D01*
X199367932Y-111253158D01*
X199425000Y-110966260D01*
X199425000Y-110673740D01*
X199367932Y-110386842D01*
X199255990Y-110116589D01*
X199093475Y-109873368D01*
X198886632Y-109666525D01*
X198712240Y-109550000D01*
X198886632Y-109433475D01*
X199093475Y-109226632D01*
X199255990Y-108983411D01*
X199367932Y-108713158D01*
X199425000Y-108426260D01*
X199425000Y-108133740D01*
X199367932Y-107846842D01*
X199255990Y-107576589D01*
X199093475Y-107333368D01*
X198886632Y-107126525D01*
X198712240Y-107010000D01*
X198886632Y-106893475D01*
X199093475Y-106686632D01*
X199255990Y-106443411D01*
X199367932Y-106173158D01*
X199425000Y-105886260D01*
X199425000Y-105593740D01*
X199367932Y-105306842D01*
X199255990Y-105036589D01*
X199093475Y-104793368D01*
X198886632Y-104586525D01*
X198712240Y-104470000D01*
X198886632Y-104353475D01*
X199093475Y-104146632D01*
X199255990Y-103903411D01*
X199367932Y-103633158D01*
X199425000Y-103346260D01*
X199425000Y-103053740D01*
X199367932Y-102766842D01*
X199255990Y-102496589D01*
X199093475Y-102253368D01*
X198886632Y-102046525D01*
X198712240Y-101930000D01*
X198886632Y-101813475D01*
X199093475Y-101606632D01*
X199255990Y-101363411D01*
X199367932Y-101093158D01*
X199425000Y-100806260D01*
X199425000Y-100513740D01*
X199367932Y-100226842D01*
X199255990Y-99956589D01*
X199093475Y-99713368D01*
X198886632Y-99506525D01*
X198712240Y-99390000D01*
X198886632Y-99273475D01*
X199093475Y-99066632D01*
X199255990Y-98823411D01*
X199367932Y-98553158D01*
X199425000Y-98266260D01*
X199425000Y-97973740D01*
X199367932Y-97686842D01*
X199255990Y-97416589D01*
X199093475Y-97173368D01*
X198886632Y-96966525D01*
X198712240Y-96850000D01*
X198886632Y-96733475D01*
X199093475Y-96526632D01*
X199255990Y-96283411D01*
X199367932Y-96013158D01*
X199425000Y-95726260D01*
X199425000Y-95433740D01*
X199367932Y-95146842D01*
X199255990Y-94876589D01*
X199093475Y-94633368D01*
X198886632Y-94426525D01*
X198712240Y-94310000D01*
X198886632Y-94193475D01*
X199093475Y-93986632D01*
X199255990Y-93743411D01*
X199367932Y-93473158D01*
X199425000Y-93186260D01*
X199425000Y-92893740D01*
X199367932Y-92606842D01*
X199255990Y-92336589D01*
X199093475Y-92093368D01*
X198886632Y-91886525D01*
X198712240Y-91770000D01*
X198886632Y-91653475D01*
X199093475Y-91446632D01*
X199255990Y-91203411D01*
X199367932Y-90933158D01*
X199425000Y-90646260D01*
X199425000Y-90353740D01*
X199367932Y-90066842D01*
X199255990Y-89796589D01*
X199093475Y-89553368D01*
X198886632Y-89346525D01*
X198643411Y-89184010D01*
X198373158Y-89072068D01*
X198086260Y-89015000D01*
X197793740Y-89015000D01*
X197506842Y-89072068D01*
X197236589Y-89184010D01*
X196993368Y-89346525D01*
X196861513Y-89478380D01*
X196839502Y-89405820D01*
X196780537Y-89295506D01*
X196701185Y-89198815D01*
X196604494Y-89119463D01*
X196494180Y-89060498D01*
X196374482Y-89024188D01*
X196250000Y-89011928D01*
X194550000Y-89011928D01*
X194425518Y-89024188D01*
X194305820Y-89060498D01*
X194195506Y-89119463D01*
X194098815Y-89198815D01*
X194019463Y-89295506D01*
X193960498Y-89405820D01*
X193924188Y-89525518D01*
X193911928Y-89650000D01*
X178738000Y-89650000D01*
X178738000Y-84523711D01*
X178781937Y-84479774D01*
X178895205Y-84310256D01*
X178973226Y-84121898D01*
X179013000Y-83921939D01*
X179013000Y-83718061D01*
X178973226Y-83518102D01*
X178895205Y-83329744D01*
X178781937Y-83160226D01*
X178637774Y-83016063D01*
X178468256Y-82902795D01*
X178279898Y-82824774D01*
X178079939Y-82785000D01*
X177876061Y-82785000D01*
X177676102Y-82824774D01*
X177487744Y-82902795D01*
X177318226Y-83016063D01*
X177174063Y-83160226D01*
X177060795Y-83329744D01*
X176982774Y-83518102D01*
X176943000Y-83718061D01*
X176943000Y-83921939D01*
X176982774Y-84121898D01*
X177060795Y-84310256D01*
X177174063Y-84479774D01*
X177218001Y-84523712D01*
X177218000Y-104198289D01*
X177174063Y-104242226D01*
X177060795Y-104411744D01*
X176982774Y-104600102D01*
X176971381Y-104657381D01*
X176914102Y-104668774D01*
X176725744Y-104746795D01*
X176556226Y-104860063D01*
X176412063Y-105004226D01*
X176298795Y-105173744D01*
X176220774Y-105362102D01*
X176181000Y-105562061D01*
X170631000Y-105562061D01*
X170591226Y-105362102D01*
X170513205Y-105173744D01*
X170399937Y-105004226D01*
X170255774Y-104860063D01*
X170086256Y-104746795D01*
X169897898Y-104668774D01*
X169697939Y-104629000D01*
X169494061Y-104629000D01*
X169294102Y-104668774D01*
X169105744Y-104746795D01*
X168936226Y-104860063D01*
X168792063Y-105004226D01*
X168678795Y-105173744D01*
X168600774Y-105362102D01*
X168561000Y-105562061D01*
X167308000Y-105562061D01*
X167308000Y-97477711D01*
X167351937Y-97433774D01*
X167465205Y-97264256D01*
X167543226Y-97075898D01*
X167564000Y-96971459D01*
X167584774Y-97075898D01*
X167662795Y-97264256D01*
X167776063Y-97433774D01*
X167920226Y-97577937D01*
X168089744Y-97691205D01*
X168278102Y-97769226D01*
X168478061Y-97809000D01*
X168681939Y-97809000D01*
X168881898Y-97769226D01*
X169070256Y-97691205D01*
X169239774Y-97577937D01*
X169383937Y-97433774D01*
X169497205Y-97264256D01*
X169575226Y-97075898D01*
X169615000Y-96875939D01*
X169615000Y-96672061D01*
X169575226Y-96472102D01*
X169497205Y-96283744D01*
X169383937Y-96114226D01*
X169340000Y-96070289D01*
X169340000Y-91889711D01*
X169383937Y-91845774D01*
X169497205Y-91676256D01*
X169575226Y-91487898D01*
X169615000Y-91287939D01*
X169615000Y-91084061D01*
X169575226Y-90884102D01*
X169497205Y-90695744D01*
X169383937Y-90526226D01*
X169340000Y-90482289D01*
X169340000Y-90111711D01*
X169383937Y-90067774D01*
X169497205Y-89898256D01*
X169575226Y-89709898D01*
X169615000Y-89509939D01*
X169615000Y-89306061D01*
X169575226Y-89106102D01*
X169497205Y-88917744D01*
X169383937Y-88748226D01*
X169239774Y-88604063D01*
X169070256Y-88490795D01*
X168881898Y-88412774D01*
X168681939Y-88373000D01*
X168478061Y-88373000D01*
X168278102Y-88412774D01*
X168089744Y-88490795D01*
X167920226Y-88604063D01*
X167776063Y-88748226D01*
X167662795Y-88917744D01*
X167584774Y-89106102D01*
X167545000Y-89306061D01*
X167545000Y-89509939D01*
X167584774Y-89709898D01*
X167662795Y-89898256D01*
X167776063Y-90067774D01*
X167820000Y-90111711D01*
X167820001Y-90482288D01*
X167776063Y-90526226D01*
X167662795Y-90695744D01*
X167584774Y-90884102D01*
X167545000Y-91084061D01*
X167545000Y-91287939D01*
X167584774Y-91487898D01*
X167662795Y-91676256D01*
X167776063Y-91845774D01*
X167820000Y-91889711D01*
X167820001Y-96070288D01*
X167776063Y-96114226D01*
X167662795Y-96283744D01*
X167584774Y-96472102D01*
X167564000Y-96576541D01*
X167543226Y-96472102D01*
X167465205Y-96283744D01*
X167351937Y-96114226D01*
X167207774Y-95970063D01*
X167038256Y-95856795D01*
X166849898Y-95778774D01*
X166649939Y-95739000D01*
X166446061Y-95739000D01*
X166246102Y-95778774D01*
X166057744Y-95856795D01*
X165888226Y-95970063D01*
X165744063Y-96114226D01*
X165630795Y-96283744D01*
X165552774Y-96472102D01*
X165513000Y-96672061D01*
X162757000Y-96672061D01*
X162717226Y-96472102D01*
X162639205Y-96283744D01*
X162525937Y-96114226D01*
X162482000Y-96070289D01*
X162482000Y-94425711D01*
X162586226Y-94529937D01*
X162755744Y-94643205D01*
X162944102Y-94721226D01*
X163144061Y-94761000D01*
X163347939Y-94761000D01*
X163547898Y-94721226D01*
X163736256Y-94643205D01*
X163905774Y-94529937D01*
X164049937Y-94385774D01*
X164163205Y-94216256D01*
X164241226Y-94027898D01*
X164281000Y-93827939D01*
X164281000Y-93624061D01*
X164241226Y-93424102D01*
X164163205Y-93235744D01*
X164049937Y-93066226D01*
X164006000Y-93022289D01*
X164006000Y-91889711D01*
X164049937Y-91845774D01*
X164163205Y-91676256D01*
X164241226Y-91487898D01*
X164281000Y-91287939D01*
X164281000Y-91084061D01*
X164241226Y-90884102D01*
X164163205Y-90695744D01*
X164049937Y-90526226D01*
X164006000Y-90482289D01*
X164006000Y-83761725D01*
X164049951Y-83717774D01*
X164163219Y-83548256D01*
X164241240Y-83359898D01*
X164281014Y-83159939D01*
X164281014Y-82956061D01*
X164751000Y-82956061D01*
X164751000Y-83159939D01*
X164790774Y-83359898D01*
X164868795Y-83548256D01*
X164982063Y-83717774D01*
X165026000Y-83761711D01*
X165026001Y-83878288D01*
X164982063Y-83922226D01*
X164868795Y-84091744D01*
X164790774Y-84280102D01*
X164751000Y-84480061D01*
X164751000Y-84683939D01*
X164790774Y-84883898D01*
X164868795Y-85072256D01*
X164982063Y-85241774D01*
X165126226Y-85385937D01*
X165295744Y-85499205D01*
X165484102Y-85577226D01*
X165684061Y-85617000D01*
X165887939Y-85617000D01*
X166087898Y-85577226D01*
X166276256Y-85499205D01*
X166445774Y-85385937D01*
X166589937Y-85241774D01*
X166703205Y-85072256D01*
X166781226Y-84883898D01*
X166821000Y-84683939D01*
X166821000Y-84480061D01*
X166781226Y-84280102D01*
X166703205Y-84091744D01*
X166589937Y-83922226D01*
X166546000Y-83878289D01*
X166546000Y-83761711D01*
X166589937Y-83717774D01*
X166703205Y-83548256D01*
X166781226Y-83359898D01*
X166821000Y-83159939D01*
X166821000Y-82956061D01*
X166781226Y-82756102D01*
X166703205Y-82567744D01*
X166589937Y-82398226D01*
X166445774Y-82254063D01*
X166276256Y-82140795D01*
X166087898Y-82062774D01*
X165887939Y-82023000D01*
X165684061Y-82023000D01*
X165484102Y-82062774D01*
X165295744Y-82140795D01*
X165126226Y-82254063D01*
X164982063Y-82398226D01*
X164868795Y-82567744D01*
X164790774Y-82756102D01*
X164751000Y-82956061D01*
X164281014Y-82956061D01*
X164241240Y-82756102D01*
X164163219Y-82567744D01*
X164049951Y-82398226D01*
X163905788Y-82254063D01*
X163736270Y-82140795D01*
X163547912Y-82062774D01*
X163347953Y-82023000D01*
X163144075Y-82023000D01*
X162944116Y-82062774D01*
X162755758Y-82140795D01*
X162586240Y-82254063D01*
X162484006Y-82356297D01*
X162381772Y-82254063D01*
X162212254Y-82140795D01*
X162023896Y-82062774D01*
X161823937Y-82023000D01*
X161620059Y-82023000D01*
X161420100Y-82062774D01*
X161231742Y-82140795D01*
X161062224Y-82254063D01*
X160918061Y-82398226D01*
X160804793Y-82567744D01*
X160726772Y-82756102D01*
X160686998Y-82956061D01*
X160686998Y-83099287D01*
X160603774Y-83016063D01*
X160434256Y-82902795D01*
X160245898Y-82824774D01*
X160045939Y-82785000D01*
X159842061Y-82785000D01*
X159642102Y-82824774D01*
X159453744Y-82902795D01*
X159284226Y-83016063D01*
X159140063Y-83160226D01*
X159026795Y-83329744D01*
X158948774Y-83518102D01*
X158937381Y-83575381D01*
X158880102Y-83586774D01*
X158691744Y-83664795D01*
X158522226Y-83778063D01*
X158378063Y-83922226D01*
X158264795Y-84091744D01*
X158186774Y-84280102D01*
X158147000Y-84480061D01*
X146226000Y-84480061D01*
X146226000Y-81779872D01*
X194365000Y-81779872D01*
X194365000Y-82220128D01*
X194450890Y-82651925D01*
X194619369Y-83058669D01*
X194863962Y-83424729D01*
X195175271Y-83736038D01*
X195541331Y-83980631D01*
X195948075Y-84149110D01*
X196379872Y-84235000D01*
X196820128Y-84235000D01*
X197251925Y-84149110D01*
X197658669Y-83980631D01*
X198024729Y-83736038D01*
X198336038Y-83424729D01*
X198580631Y-83058669D01*
X198749110Y-82651925D01*
X198835000Y-82220128D01*
X198835000Y-81779872D01*
X198749110Y-81348075D01*
X198580631Y-80941331D01*
X198336038Y-80575271D01*
X198024729Y-80263962D01*
X197658669Y-80019369D01*
X197251925Y-79850890D01*
X196820128Y-79765000D01*
X196379872Y-79765000D01*
X195948075Y-79850890D01*
X195541331Y-80019369D01*
X195175271Y-80263962D01*
X194863962Y-80575271D01*
X194619369Y-80941331D01*
X194450890Y-81348075D01*
X194365000Y-81779872D01*
X146226000Y-81779872D01*
X146226000Y-81221711D01*
X146269937Y-81177774D01*
X146383205Y-81008256D01*
X146461226Y-80819898D01*
X146501000Y-80619939D01*
X146501000Y-80416061D01*
X146461226Y-80216102D01*
X146383205Y-80027744D01*
X146269937Y-79858226D01*
X146238848Y-79827137D01*
X160915000Y-79827137D01*
X160915000Y-80040863D01*
X160956696Y-80250483D01*
X161038485Y-80447940D01*
X161157225Y-80625647D01*
X161308353Y-80776775D01*
X161486060Y-80895515D01*
X161683517Y-80977304D01*
X161893137Y-81019000D01*
X162106863Y-81019000D01*
X162316483Y-80977304D01*
X162513940Y-80895515D01*
X162691647Y-80776775D01*
X162842775Y-80625647D01*
X162961515Y-80447940D01*
X163043304Y-80250483D01*
X163085000Y-80040863D01*
X163085000Y-79827137D01*
X163915000Y-79827137D01*
X163915000Y-80040863D01*
X163956696Y-80250483D01*
X164038485Y-80447940D01*
X164157225Y-80625647D01*
X164308353Y-80776775D01*
X164486060Y-80895515D01*
X164683517Y-80977304D01*
X164893137Y-81019000D01*
X165106863Y-81019000D01*
X165316483Y-80977304D01*
X165513940Y-80895515D01*
X165691647Y-80776775D01*
X165842775Y-80625647D01*
X165961515Y-80447940D01*
X166043304Y-80250483D01*
X166085000Y-80040863D01*
X166085000Y-79827137D01*
X166043304Y-79617517D01*
X165961515Y-79420060D01*
X165842775Y-79242353D01*
X165691647Y-79091225D01*
X165513940Y-78972485D01*
X165316483Y-78890696D01*
X165106863Y-78849000D01*
X164893137Y-78849000D01*
X164683517Y-78890696D01*
X164486060Y-78972485D01*
X164308353Y-79091225D01*
X164157225Y-79242353D01*
X164038485Y-79420060D01*
X163956696Y-79617517D01*
X163915000Y-79827137D01*
X163085000Y-79827137D01*
X163043304Y-79617517D01*
X162961515Y-79420060D01*
X162842775Y-79242353D01*
X162691647Y-79091225D01*
X162513940Y-78972485D01*
X162316483Y-78890696D01*
X162106863Y-78849000D01*
X161893137Y-78849000D01*
X161683517Y-78890696D01*
X161486060Y-78972485D01*
X161308353Y-79091225D01*
X161157225Y-79242353D01*
X161038485Y-79420060D01*
X160956696Y-79617517D01*
X160915000Y-79827137D01*
X146238848Y-79827137D01*
X146125774Y-79714063D01*
X145956256Y-79600795D01*
X145767898Y-79522774D01*
X145567939Y-79483000D01*
X145364061Y-79483000D01*
X145164102Y-79522774D01*
X144975744Y-79600795D01*
X144806226Y-79714063D01*
X144662063Y-79858226D01*
X144548795Y-80027744D01*
X144470774Y-80216102D01*
X144431000Y-80416061D01*
X127219650Y-80416061D01*
X127219937Y-80415774D01*
X127333205Y-80246256D01*
X127411226Y-80057898D01*
X127451000Y-79857939D01*
X127451000Y-79654061D01*
X127411226Y-79454102D01*
X127333205Y-79265744D01*
X127219937Y-79096226D01*
X127075774Y-78952063D01*
X126906256Y-78838795D01*
X126717898Y-78760774D01*
X126517939Y-78721000D01*
X126314061Y-78721000D01*
X126114102Y-78760774D01*
X125925744Y-78838795D01*
X125756226Y-78952063D01*
X125612063Y-79096226D01*
X125498795Y-79265744D01*
X125420774Y-79454102D01*
X125381000Y-79654061D01*
X104227949Y-79654061D01*
X104232279Y-79648753D01*
X104734067Y-79233638D01*
X105306924Y-78923895D01*
X105929039Y-78731318D01*
X106607584Y-78660000D01*
X196567722Y-78660000D01*
X197248126Y-78726714D01*
G37*
X197248126Y-78726714D02*
X197871572Y-78914943D01*
X198446579Y-79220681D01*
X198951247Y-79632279D01*
X199366362Y-80134067D01*
X199676105Y-80706924D01*
X199868682Y-81329039D01*
X199940001Y-82007594D01*
X199940000Y-121967721D01*
X199873286Y-122648126D01*
X199685057Y-123271570D01*
X199379323Y-123846573D01*
X198967721Y-124351248D01*
X198465933Y-124766362D01*
X197893077Y-125076104D01*
X197270961Y-125268682D01*
X196592417Y-125340000D01*
X106632279Y-125340000D01*
X105951874Y-125273286D01*
X105328430Y-125085057D01*
X104753427Y-124779323D01*
X104248752Y-124367721D01*
X103833638Y-123865933D01*
X103523896Y-123293077D01*
X103331318Y-122670961D01*
X103260000Y-121992417D01*
X103260000Y-121779872D01*
X104365000Y-121779872D01*
X104365000Y-122220128D01*
X104450890Y-122651925D01*
X104619369Y-123058669D01*
X104863962Y-123424729D01*
X105175271Y-123736038D01*
X105541331Y-123980631D01*
X105948075Y-124149110D01*
X106379872Y-124235000D01*
X106820128Y-124235000D01*
X107251925Y-124149110D01*
X107658669Y-123980631D01*
X108024729Y-123736038D01*
X108336038Y-123424729D01*
X108580631Y-123058669D01*
X108668721Y-122846000D01*
X112811928Y-122846000D01*
X112824188Y-122970482D01*
X112860498Y-123090180D01*
X112919463Y-123200494D01*
X112998815Y-123297185D01*
X113095506Y-123376537D01*
X113205820Y-123435502D01*
X113325518Y-123471812D01*
X113450000Y-123484072D01*
X114014250Y-123481000D01*
X114173000Y-123322250D01*
X114173000Y-122123000D01*
X112973750Y-122123000D01*
X112815000Y-122281750D01*
X112811928Y-122846000D01*
X108668721Y-122846000D01*
X108749110Y-122651925D01*
X108835000Y-122220128D01*
X108835000Y-121779872D01*
X108749110Y-121348075D01*
X108665408Y-121146000D01*
X112811928Y-121146000D01*
X112815000Y-121710250D01*
X112973750Y-121869000D01*
X114173000Y-121869000D01*
X114173000Y-120669750D01*
X114427000Y-120669750D01*
X114427000Y-121869000D01*
X114447000Y-121869000D01*
X114447000Y-122123000D01*
X114427000Y-122123000D01*
X114427000Y-123322250D01*
X114585750Y-123481000D01*
X115150000Y-123484072D01*
X115274482Y-123471812D01*
X115394180Y-123435502D01*
X115504494Y-123376537D01*
X115601185Y-123297185D01*
X115680537Y-123200494D01*
X115739502Y-123090180D01*
X115761513Y-123017620D01*
X115893368Y-123149475D01*
X116136589Y-123311990D01*
X116406842Y-123423932D01*
X116693740Y-123481000D01*
X116986260Y-123481000D01*
X117273158Y-123423932D01*
X117543411Y-123311990D01*
X117786632Y-123149475D01*
X117993475Y-122942632D01*
X118155990Y-122699411D01*
X118267932Y-122429158D01*
X118325000Y-122142260D01*
X118325000Y-121849740D01*
X118267932Y-121562842D01*
X118155990Y-121292589D01*
X117993475Y-121049368D01*
X117786632Y-120842525D01*
X117543411Y-120680010D01*
X117273158Y-120568068D01*
X116986260Y-120511000D01*
X116693740Y-120511000D01*
X116406842Y-120568068D01*
X116136589Y-120680010D01*
X115893368Y-120842525D01*
X115761513Y-120974380D01*
X115739502Y-120901820D01*
X115680537Y-120791506D01*
X115601185Y-120694815D01*
X115504494Y-120615463D01*
X115394180Y-120556498D01*
X115274482Y-120520188D01*
X115150000Y-120507928D01*
X114585750Y-120511000D01*
X114427000Y-120669750D01*
X114173000Y-120669750D01*
X114014250Y-120511000D01*
X113450000Y-120507928D01*
X113325518Y-120520188D01*
X113205820Y-120556498D01*
X113095506Y-120615463D01*
X112998815Y-120694815D01*
X112919463Y-120791506D01*
X112860498Y-120901820D01*
X112824188Y-121021518D01*
X112811928Y-121146000D01*
X108665408Y-121146000D01*
X108580631Y-120941331D01*
X108336038Y-120575271D01*
X108024729Y-120263962D01*
X107658669Y-120019369D01*
X107251925Y-119850890D01*
X106820128Y-119765000D01*
X106379872Y-119765000D01*
X105948075Y-119850890D01*
X105541331Y-120019369D01*
X105175271Y-120263962D01*
X104863962Y-120575271D01*
X104619369Y-120941331D01*
X104450890Y-121348075D01*
X104365000Y-121779872D01*
X103260000Y-121779872D01*
X103260000Y-89650000D01*
X103911928Y-89650000D01*
X103911928Y-91350000D01*
X103924188Y-91474482D01*
X103960498Y-91594180D01*
X104019463Y-91704494D01*
X104098815Y-91801185D01*
X104195506Y-91880537D01*
X104305820Y-91939502D01*
X104378380Y-91961513D01*
X104246525Y-92093368D01*
X104084010Y-92336589D01*
X103972068Y-92606842D01*
X103915000Y-92893740D01*
X103915000Y-93186260D01*
X103972068Y-93473158D01*
X104084010Y-93743411D01*
X104246525Y-93986632D01*
X104453368Y-94193475D01*
X104627760Y-94310000D01*
X104453368Y-94426525D01*
X104246525Y-94633368D01*
X104084010Y-94876589D01*
X103972068Y-95146842D01*
X103915000Y-95433740D01*
X103915000Y-95726260D01*
X103972068Y-96013158D01*
X104084010Y-96283411D01*
X104246525Y-96526632D01*
X104453368Y-96733475D01*
X104627760Y-96850000D01*
X104453368Y-96966525D01*
X104246525Y-97173368D01*
X104084010Y-97416589D01*
X103972068Y-97686842D01*
X103915000Y-97973740D01*
X103915000Y-98266260D01*
X103972068Y-98553158D01*
X104084010Y-98823411D01*
X104246525Y-99066632D01*
X104453368Y-99273475D01*
X104627760Y-99390000D01*
X104453368Y-99506525D01*
X104246525Y-99713368D01*
X104084010Y-99956589D01*
X103972068Y-100226842D01*
X103915000Y-100513740D01*
X103915000Y-100806260D01*
X103972068Y-101093158D01*
X104084010Y-101363411D01*
X104246525Y-101606632D01*
X104453368Y-101813475D01*
X104627760Y-101930000D01*
X104453368Y-102046525D01*
X104246525Y-102253368D01*
X104084010Y-102496589D01*
X103972068Y-102766842D01*
X103915000Y-103053740D01*
X103915000Y-103346260D01*
X103972068Y-103633158D01*
X104084010Y-103903411D01*
X104246525Y-104146632D01*
X104453368Y-104353475D01*
X104627760Y-104470000D01*
X104453368Y-104586525D01*
X104246525Y-104793368D01*
X104084010Y-105036589D01*
X103972068Y-105306842D01*
X103915000Y-105593740D01*
X103915000Y-105886260D01*
X103972068Y-106173158D01*
X104084010Y-106443411D01*
X104246525Y-106686632D01*
X104453368Y-106893475D01*
X104627760Y-107010000D01*
X104453368Y-107126525D01*
X104246525Y-107333368D01*
X104084010Y-107576589D01*
X103972068Y-107846842D01*
X103915000Y-108133740D01*
X103915000Y-108426260D01*
X103972068Y-108713158D01*
X104084010Y-108983411D01*
X104246525Y-109226632D01*
X104453368Y-109433475D01*
X104627760Y-109550000D01*
X104453368Y-109666525D01*
X104246525Y-109873368D01*
X104084010Y-110116589D01*
X103972068Y-110386842D01*
X103915000Y-110673740D01*
X103915000Y-110966260D01*
X103972068Y-111253158D01*
X104084010Y-111523411D01*
X104246525Y-111766632D01*
X104453368Y-111973475D01*
X104627760Y-112090000D01*
X104453368Y-112206525D01*
X104246525Y-112413368D01*
X104084010Y-112656589D01*
X103972068Y-112926842D01*
X103915000Y-113213740D01*
X103915000Y-113506260D01*
X103972068Y-113793158D01*
X104084010Y-114063411D01*
X104246525Y-114306632D01*
X104453368Y-114513475D01*
X104696589Y-114675990D01*
X104966842Y-114787932D01*
X105253740Y-114845000D01*
X105546260Y-114845000D01*
X105833158Y-114787932D01*
X106103411Y-114675990D01*
X106346632Y-114513475D01*
X106553475Y-114306632D01*
X106670000Y-114132240D01*
X106786525Y-114306632D01*
X106993368Y-114513475D01*
X107236589Y-114675990D01*
X107506842Y-114787932D01*
X107793740Y-114845000D01*
X108086260Y-114845000D01*
X108373158Y-114787932D01*
X108643411Y-114675990D01*
X108886632Y-114513475D01*
X109093475Y-114306632D01*
X109255990Y-114063411D01*
X109367932Y-113793158D01*
X109425000Y-113506260D01*
X109425000Y-113213740D01*
X109367932Y-112926842D01*
X109255990Y-112656589D01*
X109093475Y-112413368D01*
X108886632Y-112206525D01*
X108712240Y-112090000D01*
X108886632Y-111973475D01*
X109093475Y-111766632D01*
X109255990Y-111523411D01*
X109367932Y-111253158D01*
X109425000Y-110966260D01*
X109425000Y-110673740D01*
X109367932Y-110386842D01*
X109255990Y-110116589D01*
X109093475Y-109873368D01*
X108886632Y-109666525D01*
X108712240Y-109550000D01*
X108886632Y-109433475D01*
X109093475Y-109226632D01*
X109255990Y-108983411D01*
X109367932Y-108713158D01*
X109425000Y-108426260D01*
X109425000Y-108133740D01*
X109367932Y-107846842D01*
X109255990Y-107576589D01*
X109093475Y-107333368D01*
X108886632Y-107126525D01*
X108712240Y-107010000D01*
X108886632Y-106893475D01*
X109093475Y-106686632D01*
X109255990Y-106443411D01*
X109367932Y-106173158D01*
X109425000Y-105886260D01*
X109425000Y-105593740D01*
X109367932Y-105306842D01*
X109255990Y-105036589D01*
X109093475Y-104793368D01*
X108886632Y-104586525D01*
X108712240Y-104470000D01*
X108886632Y-104353475D01*
X109093475Y-104146632D01*
X109255990Y-103903411D01*
X109367932Y-103633158D01*
X109425000Y-103346260D01*
X109425000Y-103053740D01*
X109367932Y-102766842D01*
X109255990Y-102496589D01*
X109093475Y-102253368D01*
X108886632Y-102046525D01*
X108712240Y-101930000D01*
X108886632Y-101813475D01*
X109093475Y-101606632D01*
X109255990Y-101363411D01*
X109367932Y-101093158D01*
X109425000Y-100806260D01*
X109425000Y-100513740D01*
X109367932Y-100226842D01*
X109255990Y-99956589D01*
X109093475Y-99713368D01*
X108886632Y-99506525D01*
X108712240Y-99390000D01*
X108886632Y-99273475D01*
X109093475Y-99066632D01*
X109255990Y-98823411D01*
X109367932Y-98553158D01*
X109425000Y-98266260D01*
X109425000Y-97973740D01*
X109367932Y-97686842D01*
X109255990Y-97416589D01*
X109093475Y-97173368D01*
X108886632Y-96966525D01*
X108712240Y-96850000D01*
X108886632Y-96733475D01*
X109093475Y-96526632D01*
X109255990Y-96283411D01*
X109367932Y-96013158D01*
X109425000Y-95726260D01*
X109425000Y-95433740D01*
X109367932Y-95146842D01*
X109255990Y-94876589D01*
X109093475Y-94633368D01*
X108886632Y-94426525D01*
X108712240Y-94310000D01*
X108886632Y-94193475D01*
X109093475Y-93986632D01*
X109255990Y-93743411D01*
X109367932Y-93473158D01*
X109425000Y-93186260D01*
X109425000Y-92893740D01*
X109367932Y-92606842D01*
X109255990Y-92336589D01*
X109093475Y-92093368D01*
X108886632Y-91886525D01*
X108712240Y-91770000D01*
X108886632Y-91653475D01*
X109093475Y-91446632D01*
X109255990Y-91203411D01*
X109367932Y-90933158D01*
X109425000Y-90646260D01*
X109425000Y-90353740D01*
X109367932Y-90066842D01*
X109255990Y-89796589D01*
X109093475Y-89553368D01*
X108886632Y-89346525D01*
X108643411Y-89184010D01*
X108373158Y-89072068D01*
X108086260Y-89015000D01*
X107793740Y-89015000D01*
X107506842Y-89072068D01*
X107236589Y-89184010D01*
X106993368Y-89346525D01*
X106861513Y-89478380D01*
X106839502Y-89405820D01*
X106780537Y-89295506D01*
X106701185Y-89198815D01*
X106604494Y-89119463D01*
X106494180Y-89060498D01*
X106374482Y-89024188D01*
X106250000Y-89011928D01*
X104550000Y-89011928D01*
X104425518Y-89024188D01*
X104305820Y-89060498D01*
X104195506Y-89119463D01*
X104098815Y-89198815D01*
X104019463Y-89295506D01*
X103960498Y-89405820D01*
X103924188Y-89525518D01*
X103911928Y-89650000D01*
X103260000Y-89650000D01*
X103260000Y-88798061D01*
X110725000Y-88798061D01*
X110725000Y-89001939D01*
X110764774Y-89201898D01*
X110842795Y-89390256D01*
X110956063Y-89559774D01*
X111000001Y-89603712D01*
X111000000Y-112580289D01*
X110956063Y-112624226D01*
X110842795Y-112793744D01*
X110764774Y-112982102D01*
X110725000Y-113182061D01*
X110725000Y-113385939D01*
X110764774Y-113585898D01*
X110842795Y-113774256D01*
X110956063Y-113943774D01*
X111100226Y-114087937D01*
X111269744Y-114201205D01*
X111458102Y-114279226D01*
X111658061Y-114319000D01*
X111861939Y-114319000D01*
X112061898Y-114279226D01*
X112250256Y-114201205D01*
X112419774Y-114087937D01*
X112563937Y-113943774D01*
X112677205Y-113774256D01*
X112755226Y-113585898D01*
X112795000Y-113385939D01*
X112795000Y-113182061D01*
X112755226Y-112982102D01*
X112677205Y-112793744D01*
X112563937Y-112624226D01*
X112520000Y-112580289D01*
X112520000Y-106578061D01*
X121063000Y-106578061D01*
X121063000Y-106781939D01*
X121102774Y-106981898D01*
X121180795Y-107170256D01*
X121294063Y-107339774D01*
X121338001Y-107383712D01*
X121338000Y-117660289D01*
X121294063Y-117704226D01*
X121180795Y-117873744D01*
X121102774Y-118062102D01*
X121063000Y-118262061D01*
X121063000Y-118465939D01*
X121102774Y-118665898D01*
X121180795Y-118854256D01*
X121294063Y-119023774D01*
X121438226Y-119167937D01*
X121607744Y-119281205D01*
X121796102Y-119359226D01*
X121996061Y-119399000D01*
X122199939Y-119399000D01*
X122399898Y-119359226D01*
X122588256Y-119281205D01*
X122757774Y-119167937D01*
X122901937Y-119023774D01*
X123015205Y-118854256D01*
X123093226Y-118665898D01*
X123133000Y-118465939D01*
X123133000Y-118262061D01*
X123093226Y-118062102D01*
X123015205Y-117873744D01*
X122901937Y-117704226D01*
X122858000Y-117660289D01*
X122858000Y-107383711D01*
X122901937Y-107339774D01*
X123015205Y-107170256D01*
X123093226Y-106981898D01*
X123133000Y-106781939D01*
X123133000Y-106578061D01*
X123093226Y-106378102D01*
X123015205Y-106189744D01*
X122901937Y-106020226D01*
X122757774Y-105876063D01*
X122588256Y-105762795D01*
X122399898Y-105684774D01*
X122199939Y-105645000D01*
X121996061Y-105645000D01*
X121796102Y-105684774D01*
X121607744Y-105762795D01*
X121438226Y-105876063D01*
X121294063Y-106020226D01*
X121180795Y-106189744D01*
X121102774Y-106378102D01*
X121063000Y-106578061D01*
X112520000Y-106578061D01*
X112520000Y-90068061D01*
X121139000Y-90068061D01*
X121139000Y-90271939D01*
X121178774Y-90471898D01*
X121256795Y-90660256D01*
X121370063Y-90829774D01*
X121414000Y-90873711D01*
X121414001Y-94292304D01*
X121370079Y-94336226D01*
X121256811Y-94505744D01*
X121178790Y-94694102D01*
X121139016Y-94894061D01*
X121139016Y-95097939D01*
X121178790Y-95297898D01*
X121256811Y-95486256D01*
X121370079Y-95655774D01*
X121514242Y-95799937D01*
X121683760Y-95913205D01*
X121872118Y-95991226D01*
X122072077Y-96031000D01*
X122275955Y-96031000D01*
X122475914Y-95991226D01*
X122664272Y-95913205D01*
X122833790Y-95799937D01*
X122938000Y-95695727D01*
X122938001Y-96832288D01*
X122894063Y-96876226D01*
X122780795Y-97045744D01*
X122702774Y-97234102D01*
X122663000Y-97434061D01*
X122663000Y-97637939D01*
X122702774Y-97837898D01*
X122780795Y-98026256D01*
X122894063Y-98195774D01*
X123038226Y-98339937D01*
X123207744Y-98453205D01*
X123396102Y-98531226D01*
X123596061Y-98571000D01*
X123799939Y-98571000D01*
X123999898Y-98531226D01*
X124188256Y-98453205D01*
X124357774Y-98339937D01*
X124501937Y-98195774D01*
X124615205Y-98026256D01*
X124693226Y-97837898D01*
X124733000Y-97637939D01*
X124733000Y-97434061D01*
X124693226Y-97234102D01*
X124615205Y-97045744D01*
X124501937Y-96876226D01*
X124458000Y-96832289D01*
X124458000Y-95148061D01*
X127921000Y-95148061D01*
X127921000Y-95351939D01*
X127960774Y-95551898D01*
X128038795Y-95740256D01*
X128152063Y-95909774D01*
X128196001Y-95953712D01*
X128196000Y-97848289D01*
X128152063Y-97892226D01*
X128038795Y-98061744D01*
X127960774Y-98250102D01*
X127921000Y-98450061D01*
X127921000Y-98653939D01*
X127960774Y-98853898D01*
X128038795Y-99042256D01*
X128152063Y-99211774D01*
X128196001Y-99255712D01*
X128196000Y-112580289D01*
X128152063Y-112624226D01*
X128038795Y-112793744D01*
X127960774Y-112982102D01*
X127921000Y-113182061D01*
X127921000Y-113385939D01*
X127960774Y-113585898D01*
X128038795Y-113774256D01*
X128152063Y-113943774D01*
X128196001Y-113987712D01*
X128196000Y-117660289D01*
X128152063Y-117704226D01*
X128038795Y-117873744D01*
X127960774Y-118062102D01*
X127921000Y-118262061D01*
X127921000Y-118465939D01*
X127960774Y-118665898D01*
X128038795Y-118854256D01*
X128152063Y-119023774D01*
X128196000Y-119067711D01*
X128196001Y-122232288D01*
X128152063Y-122276226D01*
X128038795Y-122445744D01*
X127960774Y-122634102D01*
X127921000Y-122834061D01*
X127921000Y-123037939D01*
X127960774Y-123237898D01*
X128038795Y-123426256D01*
X128152063Y-123595774D01*
X128296226Y-123739937D01*
X128465744Y-123853205D01*
X128654102Y-123931226D01*
X128854061Y-123971000D01*
X129057939Y-123971000D01*
X129257898Y-123931226D01*
X129446256Y-123853205D01*
X129615774Y-123739937D01*
X129759937Y-123595774D01*
X129873205Y-123426256D01*
X129951226Y-123237898D01*
X129991000Y-123037939D01*
X129991000Y-122834061D01*
X129951226Y-122634102D01*
X129873205Y-122445744D01*
X129759937Y-122276226D01*
X129716000Y-122232289D01*
X129716000Y-119067711D01*
X129759937Y-119023774D01*
X129873205Y-118854256D01*
X129951226Y-118665898D01*
X129991000Y-118465939D01*
X129991000Y-118262061D01*
X129951226Y-118062102D01*
X129873205Y-117873744D01*
X129759937Y-117704226D01*
X129716000Y-117660289D01*
X129716000Y-117621000D01*
X129819939Y-117621000D01*
X130019898Y-117581226D01*
X130208256Y-117503205D01*
X130377774Y-117389937D01*
X130482001Y-117285710D01*
X130482001Y-119438288D01*
X130438063Y-119482226D01*
X130324795Y-119651744D01*
X130246774Y-119840102D01*
X130207000Y-120040061D01*
X130207000Y-120243939D01*
X130246774Y-120443898D01*
X130324795Y-120632256D01*
X130438063Y-120801774D01*
X130582226Y-120945937D01*
X130751744Y-121059205D01*
X130940102Y-121137226D01*
X131140061Y-121177000D01*
X131343939Y-121177000D01*
X131543898Y-121137226D01*
X131732256Y-121059205D01*
X131901774Y-120945937D01*
X132045937Y-120801774D01*
X132159205Y-120632256D01*
X132237226Y-120443898D01*
X132277000Y-120243939D01*
X132277000Y-120040061D01*
X132237226Y-119840102D01*
X132159205Y-119651744D01*
X132045937Y-119482226D01*
X132002000Y-119438289D01*
X132002000Y-115204013D01*
X132021744Y-115217205D01*
X132210102Y-115295226D01*
X132410061Y-115335000D01*
X132613939Y-115335000D01*
X132813898Y-115295226D01*
X133002256Y-115217205D01*
X133171774Y-115103937D01*
X133315937Y-114959774D01*
X133429205Y-114790256D01*
X133507226Y-114601898D01*
X133547000Y-114401939D01*
X133547000Y-114198061D01*
X133507226Y-113998102D01*
X133429205Y-113809744D01*
X133315937Y-113640226D01*
X133272000Y-113596289D01*
X133272000Y-101287711D01*
X133315937Y-101243774D01*
X133429205Y-101074256D01*
X133507226Y-100885898D01*
X133547000Y-100685939D01*
X133547000Y-100482061D01*
X133507226Y-100282102D01*
X133429205Y-100093744D01*
X133315937Y-99924226D01*
X133171774Y-99780063D01*
X133002256Y-99666795D01*
X132813898Y-99588774D01*
X132613939Y-99549000D01*
X132410061Y-99549000D01*
X132210102Y-99588774D01*
X132021744Y-99666795D01*
X131852226Y-99780063D01*
X131708063Y-99924226D01*
X131594795Y-100093744D01*
X131516774Y-100282102D01*
X131477000Y-100482061D01*
X131477000Y-100685939D01*
X131516774Y-100885898D01*
X131594795Y-101074256D01*
X131708063Y-101243774D01*
X131752001Y-101287712D01*
X131752001Y-101357645D01*
X131597939Y-101327000D01*
X131394061Y-101327000D01*
X131194102Y-101366774D01*
X131005744Y-101444795D01*
X130836226Y-101558063D01*
X130692063Y-101702226D01*
X130578795Y-101871744D01*
X130500774Y-102060102D01*
X130461000Y-102260061D01*
X130461000Y-102463939D01*
X130500774Y-102663898D01*
X130578795Y-102852256D01*
X130692063Y-103021774D01*
X130736000Y-103065711D01*
X130736001Y-106119244D01*
X130644795Y-106255744D01*
X130566774Y-106444102D01*
X130527000Y-106644061D01*
X130527000Y-106847939D01*
X130566774Y-107047898D01*
X130644795Y-107236256D01*
X130758063Y-107405774D01*
X130902226Y-107549937D01*
X131071744Y-107663205D01*
X131260102Y-107741226D01*
X131460061Y-107781000D01*
X131663939Y-107781000D01*
X131752001Y-107763484D01*
X131752000Y-112379988D01*
X131732256Y-112366795D01*
X131543898Y-112288774D01*
X131343939Y-112249000D01*
X131140061Y-112249000D01*
X130940102Y-112288774D01*
X130751744Y-112366795D01*
X130582226Y-112480063D01*
X130438063Y-112624226D01*
X130324795Y-112793744D01*
X130246774Y-112982102D01*
X130207000Y-113182061D01*
X130207000Y-113385939D01*
X130246774Y-113585898D01*
X130324795Y-113774256D01*
X130438063Y-113943774D01*
X130482000Y-113987711D01*
X130482000Y-114616283D01*
X130377780Y-114512063D01*
X130208262Y-114398795D01*
X130019904Y-114320774D01*
X129819945Y-114281000D01*
X129716000Y-114281000D01*
X129716000Y-113987711D01*
X129759937Y-113943774D01*
X129873205Y-113774256D01*
X129951226Y-113585898D01*
X129991000Y-113385939D01*
X129991000Y-113182061D01*
X129951226Y-112982102D01*
X129873205Y-112793744D01*
X129759937Y-112624226D01*
X129716000Y-112580289D01*
X129716000Y-99255711D01*
X129759937Y-99211774D01*
X129873205Y-99042256D01*
X129951226Y-98853898D01*
X129991000Y-98653939D01*
X129991000Y-98450061D01*
X129951226Y-98250102D01*
X129873205Y-98061744D01*
X129759937Y-97892226D01*
X129716000Y-97848289D01*
X129716000Y-95953711D01*
X129759937Y-95909774D01*
X129873205Y-95740256D01*
X129951226Y-95551898D01*
X129991000Y-95351939D01*
X129991000Y-95148061D01*
X129951226Y-94948102D01*
X129873205Y-94759744D01*
X129867697Y-94751500D01*
X130019898Y-94721226D01*
X130208256Y-94643205D01*
X130377774Y-94529937D01*
X130482000Y-94425711D01*
X130482000Y-97848289D01*
X130438063Y-97892226D01*
X130324795Y-98061744D01*
X130246774Y-98250102D01*
X130207000Y-98450061D01*
X130207000Y-98653939D01*
X130246774Y-98853898D01*
X130324795Y-99042256D01*
X130438063Y-99211774D01*
X130582226Y-99355937D01*
X130751744Y-99469205D01*
X130940102Y-99547226D01*
X131140061Y-99587000D01*
X131343939Y-99587000D01*
X131543898Y-99547226D01*
X131732256Y-99469205D01*
X131901774Y-99355937D01*
X132045937Y-99211774D01*
X132159205Y-99042256D01*
X132237226Y-98853898D01*
X132277000Y-98653939D01*
X132277000Y-98450061D01*
X132237226Y-98250102D01*
X132159205Y-98061744D01*
X132045937Y-97892226D01*
X132002000Y-97848289D01*
X132002000Y-90365711D01*
X132045937Y-90321774D01*
X132159205Y-90152256D01*
X132237226Y-89963898D01*
X132277000Y-89763939D01*
X132277000Y-89560061D01*
X132237226Y-89360102D01*
X132159205Y-89171744D01*
X132045937Y-89002226D01*
X131901774Y-88858063D01*
X131732256Y-88744795D01*
X131543898Y-88666774D01*
X131343939Y-88627000D01*
X131140061Y-88627000D01*
X130940102Y-88666774D01*
X130751744Y-88744795D01*
X130582226Y-88858063D01*
X130478000Y-88962289D01*
X130478000Y-86301711D01*
X130521937Y-86257774D01*
X130635205Y-86088256D01*
X130713226Y-85899898D01*
X130753000Y-85699939D01*
X130753000Y-85496061D01*
X130713226Y-85296102D01*
X130635205Y-85107744D01*
X130521937Y-84938226D01*
X130377774Y-84794063D01*
X130208256Y-84680795D01*
X130019898Y-84602774D01*
X129819939Y-84563000D01*
X129616061Y-84563000D01*
X129416102Y-84602774D01*
X129227744Y-84680795D01*
X129058226Y-84794063D01*
X128914063Y-84938226D01*
X128800795Y-85107744D01*
X128722774Y-85296102D01*
X128683000Y-85496061D01*
X128683000Y-85699939D01*
X128722774Y-85899898D01*
X128800795Y-86088256D01*
X128914063Y-86257774D01*
X128958000Y-86301711D01*
X128958001Y-93022288D01*
X128914063Y-93066226D01*
X128800795Y-93235744D01*
X128722774Y-93424102D01*
X128683000Y-93624061D01*
X128683000Y-93827939D01*
X128722774Y-94027898D01*
X128800795Y-94216256D01*
X128806303Y-94224500D01*
X128654102Y-94254774D01*
X128465744Y-94332795D01*
X128296226Y-94446063D01*
X128152063Y-94590226D01*
X128038795Y-94759744D01*
X127960774Y-94948102D01*
X127921000Y-95148061D01*
X124458000Y-95148061D01*
X124458000Y-94683711D01*
X124501937Y-94639774D01*
X124615205Y-94470256D01*
X124693226Y-94281898D01*
X124733000Y-94081939D01*
X124733000Y-93878061D01*
X124693226Y-93678102D01*
X124615205Y-93489744D01*
X124501937Y-93320226D01*
X124357774Y-93176063D01*
X124188256Y-93062795D01*
X123999898Y-92984774D01*
X123799939Y-92945000D01*
X123596061Y-92945000D01*
X123396102Y-92984774D01*
X123207744Y-93062795D01*
X123038226Y-93176063D01*
X122934000Y-93280289D01*
X122934000Y-90873711D01*
X122977937Y-90829774D01*
X123091205Y-90660256D01*
X123169226Y-90471898D01*
X123209000Y-90271939D01*
X123209000Y-90068061D01*
X123169226Y-89868102D01*
X123091205Y-89679744D01*
X122977937Y-89510226D01*
X122833774Y-89366063D01*
X122664256Y-89252795D01*
X122475898Y-89174774D01*
X122275939Y-89135000D01*
X122072061Y-89135000D01*
X121872102Y-89174774D01*
X121683744Y-89252795D01*
X121514226Y-89366063D01*
X121370063Y-89510226D01*
X121256795Y-89679744D01*
X121178774Y-89868102D01*
X121139000Y-90068061D01*
X112520000Y-90068061D01*
X112520000Y-89603711D01*
X112563937Y-89559774D01*
X112677205Y-89390256D01*
X112755226Y-89201898D01*
X112795000Y-89001939D01*
X112795000Y-88798061D01*
X112755226Y-88598102D01*
X112677205Y-88409744D01*
X112563937Y-88240226D01*
X112419774Y-88096063D01*
X112250256Y-87982795D01*
X112061898Y-87904774D01*
X111861939Y-87865000D01*
X111658061Y-87865000D01*
X111458102Y-87904774D01*
X111269744Y-87982795D01*
X111100226Y-88096063D01*
X110956063Y-88240226D01*
X110842795Y-88409744D01*
X110764774Y-88598102D01*
X110725000Y-88798061D01*
X103260000Y-88798061D01*
X103260000Y-82032278D01*
X103284748Y-81779872D01*
X104365000Y-81779872D01*
X104365000Y-82220128D01*
X104450890Y-82651925D01*
X104619369Y-83058669D01*
X104863962Y-83424729D01*
X105175271Y-83736038D01*
X105541331Y-83980631D01*
X105948075Y-84149110D01*
X106379872Y-84235000D01*
X106820128Y-84235000D01*
X107251925Y-84149110D01*
X107658669Y-83980631D01*
X108024729Y-83736038D01*
X108336038Y-83424729D01*
X108580631Y-83058669D01*
X108656652Y-82875137D01*
X114825000Y-82875137D01*
X114825000Y-83088863D01*
X114866696Y-83298483D01*
X114948485Y-83495940D01*
X115067225Y-83673647D01*
X115218353Y-83824775D01*
X115396060Y-83943515D01*
X115593517Y-84025304D01*
X115803137Y-84067000D01*
X116016863Y-84067000D01*
X116226483Y-84025304D01*
X116423940Y-83943515D01*
X116601647Y-83824775D01*
X116752775Y-83673647D01*
X116871515Y-83495940D01*
X116953304Y-83298483D01*
X116995000Y-83088863D01*
X116995000Y-82875137D01*
X119225000Y-82875137D01*
X119225000Y-83088863D01*
X119266696Y-83298483D01*
X119348485Y-83495940D01*
X119467225Y-83673647D01*
X119618353Y-83824775D01*
X119796060Y-83943515D01*
X119993517Y-84025304D01*
X120203137Y-84067000D01*
X120416863Y-84067000D01*
X120626483Y-84025304D01*
X120823940Y-83943515D01*
X121001647Y-83824775D01*
X121152775Y-83673647D01*
X121271515Y-83495940D01*
X121353304Y-83298483D01*
X121395000Y-83088863D01*
X121395000Y-82875137D01*
X121353304Y-82665517D01*
X121271515Y-82468060D01*
X121152775Y-82290353D01*
X121001647Y-82139225D01*
X120823940Y-82020485D01*
X120626483Y-81938696D01*
X120416863Y-81897000D01*
X120203137Y-81897000D01*
X119993517Y-81938696D01*
X119796060Y-82020485D01*
X119618353Y-82139225D01*
X119467225Y-82290353D01*
X119348485Y-82468060D01*
X119266696Y-82665517D01*
X119225000Y-82875137D01*
X116995000Y-82875137D01*
X116953304Y-82665517D01*
X116871515Y-82468060D01*
X116752775Y-82290353D01*
X116601647Y-82139225D01*
X116423940Y-82020485D01*
X116226483Y-81938696D01*
X116016863Y-81897000D01*
X115803137Y-81897000D01*
X115593517Y-81938696D01*
X115396060Y-82020485D01*
X115218353Y-82139225D01*
X115067225Y-82290353D01*
X114948485Y-82468060D01*
X114866696Y-82665517D01*
X114825000Y-82875137D01*
X108656652Y-82875137D01*
X108749110Y-82651925D01*
X108835000Y-82220128D01*
X108835000Y-81779872D01*
X108749110Y-81348075D01*
X108580631Y-80941331D01*
X108336038Y-80575271D01*
X108024729Y-80263962D01*
X107658669Y-80019369D01*
X107251925Y-79850890D01*
X106820128Y-79765000D01*
X106379872Y-79765000D01*
X105948075Y-79850890D01*
X105541331Y-80019369D01*
X105175271Y-80263962D01*
X104863962Y-80575271D01*
X104619369Y-80941331D01*
X104450890Y-81348075D01*
X104365000Y-81779872D01*
X103284748Y-81779872D01*
X103326714Y-81351874D01*
X103514943Y-80728428D01*
X103820681Y-80153421D01*
X104227949Y-79654061D01*
X125381000Y-79654061D01*
X125381000Y-79857939D01*
X125420774Y-80057898D01*
X125498795Y-80246256D01*
X125612063Y-80415774D01*
X125656001Y-80459712D01*
X125656000Y-88704289D01*
X125612063Y-88748226D01*
X125498795Y-88917744D01*
X125420774Y-89106102D01*
X125381000Y-89306061D01*
X125381000Y-89509939D01*
X125420774Y-89709898D01*
X125498795Y-89898256D01*
X125612063Y-90067774D01*
X125756226Y-90211937D01*
X125925744Y-90325205D01*
X126114102Y-90403226D01*
X126314061Y-90443000D01*
X126517939Y-90443000D01*
X126717898Y-90403226D01*
X126906256Y-90325205D01*
X127075774Y-90211937D01*
X127219937Y-90067774D01*
X127333205Y-89898256D01*
X127411226Y-89709898D01*
X127451000Y-89509939D01*
X127451000Y-89306061D01*
X127411226Y-89106102D01*
X127333205Y-88917744D01*
X127219937Y-88748226D01*
X127176000Y-88704289D01*
X127176000Y-83718061D01*
X132493000Y-83718061D01*
X132493000Y-83921939D01*
X132532774Y-84121898D01*
X132610795Y-84310256D01*
X132724063Y-84479774D01*
X132768000Y-84523711D01*
X132768001Y-96832288D01*
X132724063Y-96876226D01*
X132610795Y-97045744D01*
X132532774Y-97234102D01*
X132493000Y-97434061D01*
X132493000Y-97637939D01*
X132532774Y-97837898D01*
X132610795Y-98026256D01*
X132724063Y-98195774D01*
X132868226Y-98339937D01*
X133037744Y-98453205D01*
X133226102Y-98531226D01*
X133426061Y-98571000D01*
X133629939Y-98571000D01*
X133829898Y-98531226D01*
X134018256Y-98453205D01*
X134038001Y-98440012D01*
X134038000Y-103690289D01*
X133994063Y-103734226D01*
X133880795Y-103903744D01*
X133802774Y-104092102D01*
X133763000Y-104292061D01*
X133763000Y-104495939D01*
X133802774Y-104695898D01*
X133880795Y-104884256D01*
X133994063Y-105053774D01*
X134138226Y-105197937D01*
X134307744Y-105311205D01*
X134496102Y-105389226D01*
X134696061Y-105429000D01*
X134899939Y-105429000D01*
X135099898Y-105389226D01*
X135288256Y-105311205D01*
X135457774Y-105197937D01*
X135601937Y-105053774D01*
X135715205Y-104884256D01*
X135793226Y-104695898D01*
X135833000Y-104495939D01*
X135833000Y-104292061D01*
X135793226Y-104092102D01*
X135715205Y-103903744D01*
X135601937Y-103734226D01*
X135558000Y-103690289D01*
X135558000Y-98239711D01*
X135601937Y-98195774D01*
X135715205Y-98026256D01*
X135793226Y-97837898D01*
X135833000Y-97637939D01*
X135833000Y-97434061D01*
X135793226Y-97234102D01*
X135715205Y-97045744D01*
X135601937Y-96876226D01*
X135457774Y-96732063D01*
X135288256Y-96618795D01*
X135099898Y-96540774D01*
X134899939Y-96501000D01*
X134696061Y-96501000D01*
X134496102Y-96540774D01*
X134307744Y-96618795D01*
X134288000Y-96631987D01*
X134288000Y-92100053D01*
X138081000Y-92100053D01*
X138081000Y-92303931D01*
X138120774Y-92503890D01*
X138198795Y-92692248D01*
X138312063Y-92861766D01*
X138356001Y-92905704D01*
X138356000Y-94546289D01*
X138312063Y-94590226D01*
X138198795Y-94759744D01*
X138120774Y-94948102D01*
X138081000Y-95148061D01*
X138081000Y-95351939D01*
X138120774Y-95551898D01*
X138198795Y-95740256D01*
X138312063Y-95909774D01*
X138356001Y-95953712D01*
X138356000Y-104960289D01*
X138312063Y-105004226D01*
X138198795Y-105173744D01*
X138120774Y-105362102D01*
X138081000Y-105562061D01*
X138081000Y-105765939D01*
X138120774Y-105965898D01*
X138198795Y-106154256D01*
X138312063Y-106323774D01*
X138356001Y-106367712D01*
X138356000Y-112580289D01*
X138312063Y-112624226D01*
X138198795Y-112793744D01*
X138120774Y-112982102D01*
X138081000Y-113182061D01*
X138081000Y-113385939D01*
X138120774Y-113585898D01*
X138198795Y-113774256D01*
X138312063Y-113943774D01*
X138356000Y-113987711D01*
X138356001Y-122232288D01*
X138312063Y-122276226D01*
X138198795Y-122445744D01*
X138120774Y-122634102D01*
X138081000Y-122834061D01*
X138081000Y-123037939D01*
X138120774Y-123237898D01*
X138198795Y-123426256D01*
X138312063Y-123595774D01*
X138456226Y-123739937D01*
X138625744Y-123853205D01*
X138814102Y-123931226D01*
X139014061Y-123971000D01*
X139217939Y-123971000D01*
X139417898Y-123931226D01*
X139606256Y-123853205D01*
X139775774Y-123739937D01*
X139919937Y-123595774D01*
X140033205Y-123426256D01*
X140111226Y-123237898D01*
X140151000Y-123037939D01*
X140151000Y-122834061D01*
X140111226Y-122634102D01*
X140033205Y-122445744D01*
X139919937Y-122276226D01*
X139876000Y-122232289D01*
X139876000Y-113987711D01*
X139919937Y-113943774D01*
X140033205Y-113774256D01*
X140111226Y-113585898D01*
X140151000Y-113385939D01*
X140151000Y-113182061D01*
X140111226Y-112982102D01*
X140033205Y-112793744D01*
X139919937Y-112624226D01*
X139876000Y-112580289D01*
X139876000Y-106367711D01*
X139919937Y-106323774D01*
X140033205Y-106154256D01*
X140111226Y-105965898D01*
X140151000Y-105765939D01*
X140151000Y-105562061D01*
X145701000Y-105562061D01*
X145701000Y-105765939D01*
X145740774Y-105965898D01*
X145818795Y-106154256D01*
X145932063Y-106323774D01*
X145976000Y-106367711D01*
X145976001Y-109278288D01*
X145932063Y-109322226D01*
X145818795Y-109491744D01*
X145740774Y-109680102D01*
X145701000Y-109880061D01*
X145701000Y-110083939D01*
X145740774Y-110283898D01*
X145818795Y-110472256D01*
X145932063Y-110641774D01*
X145976000Y-110685711D01*
X145976001Y-112580288D01*
X145932063Y-112624226D01*
X145818795Y-112793744D01*
X145740774Y-112982102D01*
X145701000Y-113182061D01*
X145701000Y-113385939D01*
X145740774Y-113585898D01*
X145818795Y-113774256D01*
X145932063Y-113943774D01*
X145976000Y-113987711D01*
X145976001Y-122232288D01*
X145932063Y-122276226D01*
X145818795Y-122445744D01*
X145740774Y-122634102D01*
X145701000Y-122834061D01*
X145701000Y-123037939D01*
X145740774Y-123237898D01*
X145818795Y-123426256D01*
X145932063Y-123595774D01*
X146076226Y-123739937D01*
X146245744Y-123853205D01*
X146434102Y-123931226D01*
X146634061Y-123971000D01*
X146837939Y-123971000D01*
X147037898Y-123931226D01*
X147226256Y-123853205D01*
X147395774Y-123739937D01*
X147539937Y-123595774D01*
X147653205Y-123426256D01*
X147731226Y-123237898D01*
X147771000Y-123037939D01*
X147771000Y-122834061D01*
X147731226Y-122634102D01*
X147653205Y-122445744D01*
X147539937Y-122276226D01*
X147496000Y-122232289D01*
X147496000Y-116351000D01*
X147599939Y-116351000D01*
X147799898Y-116311226D01*
X147988256Y-116233205D01*
X148157774Y-116119937D01*
X148301937Y-115975774D01*
X148415205Y-115806256D01*
X148493226Y-115617898D01*
X148533000Y-115417939D01*
X148533000Y-115214061D01*
X148493226Y-115014102D01*
X148415205Y-114825744D01*
X148301937Y-114656226D01*
X148258000Y-114612289D01*
X148258000Y-108399711D01*
X148301937Y-108355774D01*
X148415205Y-108186256D01*
X148493226Y-107997898D01*
X148533000Y-107797939D01*
X148533000Y-107594061D01*
X148493226Y-107394102D01*
X148415205Y-107205744D01*
X148301937Y-107036226D01*
X148157774Y-106892063D01*
X147988256Y-106778795D01*
X147799898Y-106700774D01*
X147599939Y-106661000D01*
X147496000Y-106661000D01*
X147496000Y-106367711D01*
X147539937Y-106323774D01*
X147653205Y-106154256D01*
X147731226Y-105965898D01*
X147771000Y-105765939D01*
X147771000Y-105562061D01*
X153321000Y-105562061D01*
X153321000Y-105765939D01*
X153360774Y-105965898D01*
X153438795Y-106154256D01*
X153552063Y-106323774D01*
X153596000Y-106367711D01*
X153596001Y-109278288D01*
X153552063Y-109322226D01*
X153438795Y-109491744D01*
X153360774Y-109680102D01*
X153321000Y-109880061D01*
X153321000Y-110083939D01*
X153360774Y-110283898D01*
X153438795Y-110472256D01*
X153552063Y-110641774D01*
X153596000Y-110685711D01*
X153596001Y-122232288D01*
X153552063Y-122276226D01*
X153438795Y-122445744D01*
X153360774Y-122634102D01*
X153321000Y-122834061D01*
X153321000Y-123037939D01*
X153360774Y-123237898D01*
X153438795Y-123426256D01*
X153552063Y-123595774D01*
X153696226Y-123739937D01*
X153865744Y-123853205D01*
X154054102Y-123931226D01*
X154254061Y-123971000D01*
X154457939Y-123971000D01*
X154657898Y-123931226D01*
X154846256Y-123853205D01*
X155015774Y-123739937D01*
X155159937Y-123595774D01*
X155273205Y-123426256D01*
X155351226Y-123237898D01*
X155391000Y-123037939D01*
X155391000Y-122834061D01*
X155351226Y-122634102D01*
X155273205Y-122445744D01*
X155159937Y-122276226D01*
X155116000Y-122232289D01*
X155116000Y-110685711D01*
X155159937Y-110641774D01*
X155273205Y-110472256D01*
X155351226Y-110283898D01*
X155391000Y-110083939D01*
X155391000Y-109880061D01*
X155351226Y-109680102D01*
X155273205Y-109491744D01*
X155159937Y-109322226D01*
X155116000Y-109278289D01*
X155116000Y-106367711D01*
X155159937Y-106323774D01*
X155273205Y-106154256D01*
X155351226Y-105965898D01*
X155391000Y-105765939D01*
X155391000Y-105562061D01*
X155351226Y-105362102D01*
X155273205Y-105173744D01*
X155159937Y-105004226D01*
X155015774Y-104860063D01*
X154846256Y-104746795D01*
X154657898Y-104668774D01*
X154457939Y-104629000D01*
X154254061Y-104629000D01*
X154054102Y-104668774D01*
X153865744Y-104746795D01*
X153696226Y-104860063D01*
X153552063Y-105004226D01*
X153438795Y-105173744D01*
X153360774Y-105362102D01*
X153321000Y-105562061D01*
X147771000Y-105562061D01*
X147731226Y-105362102D01*
X147653205Y-105173744D01*
X147539937Y-105004226D01*
X147395774Y-104860063D01*
X147226256Y-104746795D01*
X147037898Y-104668774D01*
X146837939Y-104629000D01*
X146634061Y-104629000D01*
X146434102Y-104668774D01*
X146245744Y-104746795D01*
X146076226Y-104860063D01*
X145932063Y-105004226D01*
X145818795Y-105173744D01*
X145740774Y-105362102D01*
X145701000Y-105562061D01*
X140151000Y-105562061D01*
X140111226Y-105362102D01*
X140033205Y-105173744D01*
X139919937Y-105004226D01*
X139876000Y-104960289D01*
X139876000Y-95953711D01*
X139919937Y-95909774D01*
X140033205Y-95740256D01*
X140111226Y-95551898D01*
X140151000Y-95351939D01*
X140151000Y-95148061D01*
X140111226Y-94948102D01*
X140033205Y-94759744D01*
X139919937Y-94590226D01*
X139876000Y-94546289D01*
X139876000Y-92905703D01*
X139919937Y-92861766D01*
X140033205Y-92692248D01*
X140111226Y-92503890D01*
X140151000Y-92303931D01*
X140151000Y-92100053D01*
X140111226Y-91900094D01*
X140033205Y-91711736D01*
X139919937Y-91542218D01*
X139775774Y-91398055D01*
X139606256Y-91284787D01*
X139417898Y-91206766D01*
X139217939Y-91166992D01*
X139014061Y-91166992D01*
X138814102Y-91206766D01*
X138625744Y-91284787D01*
X138456226Y-91398055D01*
X138312063Y-91542218D01*
X138198795Y-91711736D01*
X138120774Y-91900094D01*
X138081000Y-92100053D01*
X134288000Y-92100053D01*
X134288000Y-84523711D01*
X134331937Y-84479774D01*
X134445205Y-84310256D01*
X134523226Y-84121898D01*
X134563000Y-83921939D01*
X134563000Y-83718061D01*
X140875000Y-83718061D01*
X140875000Y-83921939D01*
X140914774Y-84121898D01*
X140992795Y-84310256D01*
X141106063Y-84479774D01*
X141150001Y-84523712D01*
X141150000Y-93022289D01*
X141106063Y-93066226D01*
X140992795Y-93235744D01*
X140914774Y-93424102D01*
X140875000Y-93624061D01*
X140875000Y-93827939D01*
X140914774Y-94027898D01*
X140992795Y-94216256D01*
X141106063Y-94385774D01*
X141150001Y-94429712D01*
X141150000Y-99880289D01*
X141106063Y-99924226D01*
X140992795Y-100093744D01*
X140914774Y-100282102D01*
X140875000Y-100482061D01*
X140875000Y-100685939D01*
X140914774Y-100885898D01*
X140992795Y-101074256D01*
X141106063Y-101243774D01*
X141250226Y-101387937D01*
X141419744Y-101501205D01*
X141608102Y-101579226D01*
X141808061Y-101619000D01*
X142011939Y-101619000D01*
X142211898Y-101579226D01*
X142400256Y-101501205D01*
X142569774Y-101387937D01*
X142713937Y-101243774D01*
X142827205Y-101074256D01*
X142905226Y-100885898D01*
X142945000Y-100685939D01*
X142945000Y-100482061D01*
X142905226Y-100282102D01*
X142827205Y-100093744D01*
X142713937Y-99924226D01*
X142670000Y-99880289D01*
X142670000Y-94429711D01*
X142713937Y-94385774D01*
X142827205Y-94216256D01*
X142905226Y-94027898D01*
X142945000Y-93827939D01*
X142945000Y-93624061D01*
X142905226Y-93424102D01*
X142827205Y-93235744D01*
X142713937Y-93066226D01*
X142670000Y-93022289D01*
X142670000Y-84523711D01*
X142713937Y-84479774D01*
X142827205Y-84310256D01*
X142905226Y-84121898D01*
X142945000Y-83921939D01*
X142945000Y-83718061D01*
X142905226Y-83518102D01*
X142827205Y-83329744D01*
X142713937Y-83160226D01*
X142569774Y-83016063D01*
X142400256Y-82902795D01*
X142211898Y-82824774D01*
X142011939Y-82785000D01*
X141808061Y-82785000D01*
X141608102Y-82824774D01*
X141419744Y-82902795D01*
X141250226Y-83016063D01*
X141106063Y-83160226D01*
X140992795Y-83329744D01*
X140914774Y-83518102D01*
X140875000Y-83718061D01*
X134563000Y-83718061D01*
X134523226Y-83518102D01*
X134445205Y-83329744D01*
X134331937Y-83160226D01*
X134187774Y-83016063D01*
X134018256Y-82902795D01*
X133829898Y-82824774D01*
X133629939Y-82785000D01*
X133426061Y-82785000D01*
X133226102Y-82824774D01*
X133037744Y-82902795D01*
X132868226Y-83016063D01*
X132724063Y-83160226D01*
X132610795Y-83329744D01*
X132532774Y-83518102D01*
X132493000Y-83718061D01*
X127176000Y-83718061D01*
X127176000Y-80459711D01*
X127219650Y-80416061D01*
X144431000Y-80416061D01*
X144431000Y-80619939D01*
X144470774Y-80819898D01*
X144548795Y-81008256D01*
X144662063Y-81177774D01*
X144706001Y-81221712D01*
X144706000Y-88704289D01*
X144662063Y-88748226D01*
X144548795Y-88917744D01*
X144470774Y-89106102D01*
X144431000Y-89306061D01*
X144431000Y-89509939D01*
X144470774Y-89709898D01*
X144548795Y-89898256D01*
X144662063Y-90067774D01*
X144706000Y-90111711D01*
X144706001Y-91752288D01*
X144662063Y-91796226D01*
X144548795Y-91965744D01*
X144470774Y-92154102D01*
X144431000Y-92354061D01*
X144431000Y-92557939D01*
X144470774Y-92757898D01*
X144548795Y-92946256D01*
X144662063Y-93115774D01*
X144806226Y-93259937D01*
X144975744Y-93373205D01*
X145164102Y-93451226D01*
X145364061Y-93491000D01*
X145567939Y-93491000D01*
X145767898Y-93451226D01*
X145956256Y-93373205D01*
X146125774Y-93259937D01*
X146269937Y-93115774D01*
X146383205Y-92946256D01*
X146461226Y-92757898D01*
X146501000Y-92557939D01*
X146501000Y-92354061D01*
X146461226Y-92154102D01*
X146383205Y-91965744D01*
X146269937Y-91796226D01*
X146226000Y-91752289D01*
X146226000Y-90111711D01*
X146269937Y-90067774D01*
X146383205Y-89898256D01*
X146461226Y-89709898D01*
X146501000Y-89509939D01*
X146501000Y-89306061D01*
X155861000Y-89306061D01*
X155861000Y-89509939D01*
X155900774Y-89709898D01*
X155978795Y-89898256D01*
X156092063Y-90067774D01*
X156136000Y-90111711D01*
X156136001Y-91498288D01*
X156092063Y-91542226D01*
X155978795Y-91711744D01*
X155900774Y-91900102D01*
X155861000Y-92100061D01*
X155861000Y-92303939D01*
X155900774Y-92503898D01*
X155978795Y-92692256D01*
X156092063Y-92861774D01*
X156136000Y-92905711D01*
X156136001Y-109278288D01*
X156092063Y-109322226D01*
X155978795Y-109491744D01*
X155900774Y-109680102D01*
X155861000Y-109880061D01*
X155861000Y-110083939D01*
X155900774Y-110283898D01*
X155978795Y-110472256D01*
X156092063Y-110641774D01*
X156136000Y-110685711D01*
X156136001Y-122232288D01*
X156092063Y-122276226D01*
X155978795Y-122445744D01*
X155900774Y-122634102D01*
X155861000Y-122834061D01*
X155861000Y-123037939D01*
X155900774Y-123237898D01*
X155978795Y-123426256D01*
X156092063Y-123595774D01*
X156236226Y-123739937D01*
X156405744Y-123853205D01*
X156594102Y-123931226D01*
X156794061Y-123971000D01*
X156997939Y-123971000D01*
X157197898Y-123931226D01*
X157386256Y-123853205D01*
X157555774Y-123739937D01*
X157699937Y-123595774D01*
X157813205Y-123426256D01*
X157891226Y-123237898D01*
X157931000Y-123037939D01*
X157931000Y-122834061D01*
X157891226Y-122634102D01*
X157813205Y-122445744D01*
X157699937Y-122276226D01*
X157656000Y-122232289D01*
X157656000Y-110685711D01*
X157699937Y-110641774D01*
X157813205Y-110472256D01*
X157891226Y-110283898D01*
X157931000Y-110083939D01*
X157931000Y-109880061D01*
X157891226Y-109680102D01*
X157813205Y-109491744D01*
X157699937Y-109322226D01*
X157656000Y-109278289D01*
X157656000Y-105562061D01*
X160941000Y-105562061D01*
X160941000Y-105765939D01*
X160980774Y-105965898D01*
X161058795Y-106154256D01*
X161172063Y-106323774D01*
X161216000Y-106367711D01*
X161216001Y-109278288D01*
X161172063Y-109322226D01*
X161058795Y-109491744D01*
X160980774Y-109680102D01*
X160941000Y-109880061D01*
X160941000Y-110083939D01*
X160980774Y-110283898D01*
X161058795Y-110472256D01*
X161172063Y-110641774D01*
X161216000Y-110685711D01*
X161216001Y-122232288D01*
X161172063Y-122276226D01*
X161058795Y-122445744D01*
X160980774Y-122634102D01*
X160941000Y-122834061D01*
X160941000Y-123037939D01*
X160980774Y-123237898D01*
X161058795Y-123426256D01*
X161172063Y-123595774D01*
X161316226Y-123739937D01*
X161485744Y-123853205D01*
X161674102Y-123931226D01*
X161874061Y-123971000D01*
X162077939Y-123971000D01*
X162277898Y-123931226D01*
X162466256Y-123853205D01*
X162635774Y-123739937D01*
X162779937Y-123595774D01*
X162893205Y-123426256D01*
X162971226Y-123237898D01*
X163011000Y-123037939D01*
X163011000Y-122834061D01*
X162971226Y-122634102D01*
X162893205Y-122445744D01*
X162779937Y-122276226D01*
X162736000Y-122232289D01*
X162736000Y-117621000D01*
X162839939Y-117621000D01*
X163039898Y-117581226D01*
X163228256Y-117503205D01*
X163397774Y-117389937D01*
X163541937Y-117245774D01*
X163655205Y-117076256D01*
X163733226Y-116887898D01*
X163773000Y-116687939D01*
X163773000Y-116484061D01*
X163733226Y-116284102D01*
X163655205Y-116095744D01*
X163541937Y-115926226D01*
X163498000Y-115882289D01*
X163498000Y-108399711D01*
X163541937Y-108355774D01*
X163655205Y-108186256D01*
X163733226Y-107997898D01*
X163773000Y-107797939D01*
X163773000Y-107594061D01*
X163733226Y-107394102D01*
X163655205Y-107205744D01*
X163541937Y-107036226D01*
X163397774Y-106892063D01*
X163228256Y-106778795D01*
X163039898Y-106700774D01*
X162839939Y-106661000D01*
X162736000Y-106661000D01*
X162736000Y-106367711D01*
X162779937Y-106323774D01*
X162893205Y-106154256D01*
X162971226Y-105965898D01*
X163011000Y-105765939D01*
X163011000Y-105562061D01*
X162971226Y-105362102D01*
X162893205Y-105173744D01*
X162779937Y-105004226D01*
X162635774Y-104860063D01*
X162466256Y-104746795D01*
X162277898Y-104668774D01*
X162077939Y-104629000D01*
X161874061Y-104629000D01*
X161674102Y-104668774D01*
X161485744Y-104746795D01*
X161316226Y-104860063D01*
X161172063Y-105004226D01*
X161058795Y-105173744D01*
X160980774Y-105362102D01*
X160941000Y-105562061D01*
X157656000Y-105562061D01*
X157656000Y-92905711D01*
X157699937Y-92861774D01*
X157813205Y-92692256D01*
X157891226Y-92503898D01*
X157931000Y-92303939D01*
X157931000Y-92100061D01*
X157891226Y-91900102D01*
X157813205Y-91711744D01*
X157699937Y-91542226D01*
X157656000Y-91498289D01*
X157656000Y-90111711D01*
X157699937Y-90067774D01*
X157813205Y-89898256D01*
X157891226Y-89709898D01*
X157931000Y-89509939D01*
X157931000Y-89306061D01*
X157891226Y-89106102D01*
X157813205Y-88917744D01*
X157699937Y-88748226D01*
X157555774Y-88604063D01*
X157386256Y-88490795D01*
X157197898Y-88412774D01*
X156997939Y-88373000D01*
X156794061Y-88373000D01*
X156594102Y-88412774D01*
X156405744Y-88490795D01*
X156236226Y-88604063D01*
X156092063Y-88748226D01*
X155978795Y-88917744D01*
X155900774Y-89106102D01*
X155861000Y-89306061D01*
X146501000Y-89306061D01*
X146461226Y-89106102D01*
X146383205Y-88917744D01*
X146269937Y-88748226D01*
X146226000Y-88704289D01*
X146226000Y-84480061D01*
X158147000Y-84480061D01*
X158147000Y-84683939D01*
X158186774Y-84883898D01*
X158264795Y-85072256D01*
X158378063Y-85241774D01*
X158422000Y-85285711D01*
X158422001Y-88704288D01*
X158378063Y-88748226D01*
X158264795Y-88917744D01*
X158186774Y-89106102D01*
X158147000Y-89306061D01*
X158147000Y-89509939D01*
X158186774Y-89709898D01*
X158264795Y-89898256D01*
X158378063Y-90067774D01*
X158422001Y-90111712D01*
X158422000Y-91752289D01*
X158378063Y-91796226D01*
X158264795Y-91965744D01*
X158186774Y-92154102D01*
X158147000Y-92354061D01*
X158147000Y-92557939D01*
X158186774Y-92757898D01*
X158264795Y-92946256D01*
X158378063Y-93115774D01*
X158522226Y-93259937D01*
X158691744Y-93373205D01*
X158880102Y-93451226D01*
X158940959Y-93463331D01*
X158908988Y-93624061D01*
X158908988Y-93827939D01*
X158948762Y-94027898D01*
X159026783Y-94216256D01*
X159140051Y-94385774D01*
X159183988Y-94429711D01*
X159183989Y-101658300D01*
X159140063Y-101702226D01*
X159026795Y-101871744D01*
X158948774Y-102060102D01*
X158909000Y-102260061D01*
X158909000Y-102463939D01*
X158948774Y-102663898D01*
X159026795Y-102852256D01*
X159140063Y-103021774D01*
X159284226Y-103165937D01*
X159453744Y-103279205D01*
X159642102Y-103357226D01*
X159842061Y-103397000D01*
X160045939Y-103397000D01*
X160245898Y-103357226D01*
X160434256Y-103279205D01*
X160603774Y-103165937D01*
X160747937Y-103021774D01*
X160861205Y-102852256D01*
X160939226Y-102663898D01*
X160979000Y-102463939D01*
X160979000Y-102260061D01*
X160939226Y-102060102D01*
X160861205Y-101871744D01*
X160747937Y-101702226D01*
X160703988Y-101658277D01*
X160703988Y-96961344D01*
X160726774Y-97075898D01*
X160804795Y-97264256D01*
X160918063Y-97433774D01*
X161062226Y-97577937D01*
X161231744Y-97691205D01*
X161420102Y-97769226D01*
X161620061Y-97809000D01*
X161823939Y-97809000D01*
X162023898Y-97769226D01*
X162212256Y-97691205D01*
X162381774Y-97577937D01*
X162525937Y-97433774D01*
X162639205Y-97264256D01*
X162717226Y-97075898D01*
X162757000Y-96875939D01*
X162757000Y-96672061D01*
X165513000Y-96672061D01*
X165513000Y-96875939D01*
X165552774Y-97075898D01*
X165630795Y-97264256D01*
X165744063Y-97433774D01*
X165788000Y-97477711D01*
X165788001Y-109278288D01*
X165744063Y-109322226D01*
X165630795Y-109491744D01*
X165552774Y-109680102D01*
X165513000Y-109880061D01*
X165513000Y-110083939D01*
X165552774Y-110283898D01*
X165630795Y-110472256D01*
X165744063Y-110641774D01*
X165788000Y-110685711D01*
X165788001Y-122232288D01*
X165744063Y-122276226D01*
X165630795Y-122445744D01*
X165552774Y-122634102D01*
X165513000Y-122834061D01*
X165513000Y-123037939D01*
X165552774Y-123237898D01*
X165630795Y-123426256D01*
X165744063Y-123595774D01*
X165888226Y-123739937D01*
X166057744Y-123853205D01*
X166246102Y-123931226D01*
X166446061Y-123971000D01*
X166649939Y-123971000D01*
X166849898Y-123931226D01*
X167038256Y-123853205D01*
X167207774Y-123739937D01*
X167351937Y-123595774D01*
X167465205Y-123426256D01*
X167543226Y-123237898D01*
X167583000Y-123037939D01*
X167583000Y-122834061D01*
X167543226Y-122634102D01*
X167465205Y-122445744D01*
X167351937Y-122276226D01*
X167308000Y-122232289D01*
X167308000Y-110685711D01*
X167351937Y-110641774D01*
X167465205Y-110472256D01*
X167543226Y-110283898D01*
X167583000Y-110083939D01*
X167583000Y-109880061D01*
X167543226Y-109680102D01*
X167465205Y-109491744D01*
X167351937Y-109322226D01*
X167308000Y-109278289D01*
X167308000Y-105562061D01*
X168561000Y-105562061D01*
X168561000Y-105765939D01*
X168600774Y-105965898D01*
X168678795Y-106154256D01*
X168792063Y-106323774D01*
X168836000Y-106367711D01*
X168836001Y-109278288D01*
X168792063Y-109322226D01*
X168678795Y-109491744D01*
X168600774Y-109680102D01*
X168561000Y-109880061D01*
X168561000Y-110083939D01*
X168600774Y-110283898D01*
X168678795Y-110472256D01*
X168792063Y-110641774D01*
X168836000Y-110685711D01*
X168836001Y-122232288D01*
X168792063Y-122276226D01*
X168678795Y-122445744D01*
X168600774Y-122634102D01*
X168561000Y-122834061D01*
X168561000Y-123037939D01*
X168600774Y-123237898D01*
X168678795Y-123426256D01*
X168792063Y-123595774D01*
X168936226Y-123739937D01*
X169105744Y-123853205D01*
X169294102Y-123931226D01*
X169494061Y-123971000D01*
X169697939Y-123971000D01*
X169897898Y-123931226D01*
X170086256Y-123853205D01*
X170255774Y-123739937D01*
X170399937Y-123595774D01*
X170513205Y-123426256D01*
X170591226Y-123237898D01*
X170631000Y-123037939D01*
X170631000Y-122834061D01*
X170591226Y-122634102D01*
X170513205Y-122445744D01*
X170399937Y-122276226D01*
X170356000Y-122232289D01*
X170356000Y-110685711D01*
X170399937Y-110641774D01*
X170513205Y-110472256D01*
X170591226Y-110283898D01*
X170631000Y-110083939D01*
X170631000Y-109880061D01*
X170591226Y-109680102D01*
X170513205Y-109491744D01*
X170399937Y-109322226D01*
X170356000Y-109278289D01*
X170356000Y-106367711D01*
X170399937Y-106323774D01*
X170513205Y-106154256D01*
X170591226Y-105965898D01*
X170631000Y-105765939D01*
X170631000Y-105562061D01*
X176181000Y-105562061D01*
X176181000Y-105765939D01*
X176220774Y-105965898D01*
X176298795Y-106154256D01*
X176412063Y-106323774D01*
X176456000Y-106367711D01*
X176456001Y-109278288D01*
X176412063Y-109322226D01*
X176298795Y-109491744D01*
X176220774Y-109680102D01*
X176181000Y-109880061D01*
X176181000Y-110083939D01*
X176220774Y-110283898D01*
X176298795Y-110472256D01*
X176412063Y-110641774D01*
X176456000Y-110685711D01*
X176456001Y-122232288D01*
X176412063Y-122276226D01*
X176298795Y-122445744D01*
X176220774Y-122634102D01*
X176181000Y-122834061D01*
X176181000Y-123037939D01*
X176220774Y-123237898D01*
X176298795Y-123426256D01*
X176412063Y-123595774D01*
X176556226Y-123739937D01*
X176725744Y-123853205D01*
X176914102Y-123931226D01*
X177114061Y-123971000D01*
X177317939Y-123971000D01*
X177517898Y-123931226D01*
X177706256Y-123853205D01*
X177875774Y-123739937D01*
X178019937Y-123595774D01*
X178133205Y-123426256D01*
X178211226Y-123237898D01*
X178251000Y-123037939D01*
X178251000Y-122834061D01*
X178211226Y-122634102D01*
X178133205Y-122445744D01*
X178019937Y-122276226D01*
X177976000Y-122232289D01*
X177976000Y-113436061D01*
X187941000Y-113436061D01*
X187941000Y-113639939D01*
X187980774Y-113839898D01*
X188058795Y-114028256D01*
X188091001Y-114076456D01*
X188091000Y-122397546D01*
X188058795Y-122445744D01*
X187980774Y-122634102D01*
X187941000Y-122834061D01*
X187941000Y-123037939D01*
X187980774Y-123237898D01*
X188058795Y-123426256D01*
X188172063Y-123595774D01*
X188316226Y-123739937D01*
X188485744Y-123853205D01*
X188674102Y-123931226D01*
X188874061Y-123971000D01*
X189077939Y-123971000D01*
X189277898Y-123931226D01*
X189466256Y-123853205D01*
X189635774Y-123739937D01*
X189779937Y-123595774D01*
X189893205Y-123426256D01*
X189971226Y-123237898D01*
X190011000Y-123037939D01*
X190011000Y-122834061D01*
X189971226Y-122634102D01*
X189893205Y-122445744D01*
X189861000Y-122397546D01*
X189861000Y-121779872D01*
X194365000Y-121779872D01*
X194365000Y-122220128D01*
X194450890Y-122651925D01*
X194619369Y-123058669D01*
X194863962Y-123424729D01*
X195175271Y-123736038D01*
X195541331Y-123980631D01*
X195948075Y-124149110D01*
X196379872Y-124235000D01*
X196820128Y-124235000D01*
X197251925Y-124149110D01*
X197658669Y-123980631D01*
X198024729Y-123736038D01*
X198336038Y-123424729D01*
X198580631Y-123058669D01*
X198749110Y-122651925D01*
X198835000Y-122220128D01*
X198835000Y-121779872D01*
X198749110Y-121348075D01*
X198580631Y-120941331D01*
X198336038Y-120575271D01*
X198024729Y-120263962D01*
X197658669Y-120019369D01*
X197251925Y-119850890D01*
X196820128Y-119765000D01*
X196379872Y-119765000D01*
X195948075Y-119850890D01*
X195541331Y-120019369D01*
X195175271Y-120263962D01*
X194863962Y-120575271D01*
X194619369Y-120941331D01*
X194450890Y-121348075D01*
X194365000Y-121779872D01*
X189861000Y-121779872D01*
X189861000Y-114076454D01*
X189893205Y-114028256D01*
X189971226Y-113839898D01*
X190011000Y-113639939D01*
X190011000Y-113436061D01*
X189971226Y-113236102D01*
X189893205Y-113047744D01*
X189779937Y-112878226D01*
X189635774Y-112734063D01*
X189466256Y-112620795D01*
X189277898Y-112542774D01*
X189077939Y-112503000D01*
X188874061Y-112503000D01*
X188674102Y-112542774D01*
X188485744Y-112620795D01*
X188316226Y-112734063D01*
X188172063Y-112878226D01*
X188058795Y-113047744D01*
X187980774Y-113236102D01*
X187941000Y-113436061D01*
X177976000Y-113436061D01*
X177976000Y-111957000D01*
X178079939Y-111957000D01*
X178279898Y-111917226D01*
X178468256Y-111839205D01*
X178637774Y-111725937D01*
X178781937Y-111581774D01*
X178895205Y-111412256D01*
X178973226Y-111223898D01*
X179013000Y-111023939D01*
X179013000Y-110820061D01*
X178973226Y-110620102D01*
X178895205Y-110431744D01*
X178781937Y-110262226D01*
X178738000Y-110218289D01*
X178738000Y-108399711D01*
X178781937Y-108355774D01*
X178895205Y-108186256D01*
X178973226Y-107997898D01*
X179013000Y-107797939D01*
X179013000Y-107594061D01*
X178973226Y-107394102D01*
X178895205Y-107205744D01*
X178781937Y-107036226D01*
X178738000Y-106992289D01*
X178738000Y-105605711D01*
X178781650Y-105562061D01*
X183801000Y-105562061D01*
X183801000Y-105765939D01*
X183840774Y-105965898D01*
X183918795Y-106154256D01*
X184032063Y-106323774D01*
X184076000Y-106367711D01*
X184076001Y-109278288D01*
X184032063Y-109322226D01*
X183918795Y-109491744D01*
X183840774Y-109680102D01*
X183801000Y-109880061D01*
X183801000Y-110083939D01*
X183840774Y-110283898D01*
X183918795Y-110472256D01*
X184032063Y-110641774D01*
X184176226Y-110785937D01*
X184345744Y-110899205D01*
X184534102Y-110977226D01*
X184734061Y-111017000D01*
X184937939Y-111017000D01*
X185137898Y-110977226D01*
X185326256Y-110899205D01*
X185495774Y-110785937D01*
X185639937Y-110641774D01*
X185735598Y-110498607D01*
X185793083Y-110498607D01*
X185993042Y-110458833D01*
X186181400Y-110380812D01*
X186350918Y-110267544D01*
X186495081Y-110123381D01*
X186608349Y-109953863D01*
X186686370Y-109765505D01*
X186726144Y-109565546D01*
X186726144Y-109361668D01*
X186686370Y-109161709D01*
X186608349Y-108973351D01*
X186495081Y-108803833D01*
X186451144Y-108759896D01*
X186451144Y-108282130D01*
X186515205Y-108186256D01*
X186593226Y-107997898D01*
X186633000Y-107797939D01*
X186633000Y-107594061D01*
X186593226Y-107394102D01*
X186515205Y-107205744D01*
X186401937Y-107036226D01*
X186257774Y-106892063D01*
X186088256Y-106778795D01*
X185899898Y-106700774D01*
X185699939Y-106661000D01*
X185596000Y-106661000D01*
X185596000Y-106367711D01*
X185639937Y-106323774D01*
X185753205Y-106154256D01*
X185831226Y-105965898D01*
X185871000Y-105765939D01*
X185871000Y-105562061D01*
X185831226Y-105362102D01*
X185753205Y-105173744D01*
X185639937Y-105004226D01*
X185495774Y-104860063D01*
X185326256Y-104746795D01*
X185137898Y-104668774D01*
X184937939Y-104629000D01*
X184734061Y-104629000D01*
X184534102Y-104668774D01*
X184345744Y-104746795D01*
X184176226Y-104860063D01*
X184032063Y-105004226D01*
X183918795Y-105173744D01*
X183840774Y-105362102D01*
X183801000Y-105562061D01*
X178781650Y-105562061D01*
X178781937Y-105561774D01*
X178895205Y-105392256D01*
X178973226Y-105203898D01*
X179013000Y-105003939D01*
X179013000Y-104800061D01*
X178973226Y-104600102D01*
X178895205Y-104411744D01*
X178781937Y-104242226D01*
X178738000Y-104198289D01*
X178738000Y-89650000D01*
X193911928Y-89650000D01*
X193911928Y-91350000D01*
X193924188Y-91474482D01*
X193960498Y-91594180D01*
X194019463Y-91704494D01*
X194098815Y-91801185D01*
X194195506Y-91880537D01*
X194305820Y-91939502D01*
X194378380Y-91961513D01*
X194246525Y-92093368D01*
X194084010Y-92336589D01*
X193972068Y-92606842D01*
X193915000Y-92893740D01*
X193915000Y-93186260D01*
X193972068Y-93473158D01*
X194084010Y-93743411D01*
X194246525Y-93986632D01*
X194453368Y-94193475D01*
X194627760Y-94310000D01*
X194453368Y-94426525D01*
X194246525Y-94633368D01*
X194084010Y-94876589D01*
X193972068Y-95146842D01*
X193915000Y-95433740D01*
X193915000Y-95726260D01*
X193972068Y-96013158D01*
X194084010Y-96283411D01*
X194246525Y-96526632D01*
X194453368Y-96733475D01*
X194627760Y-96850000D01*
X194453368Y-96966525D01*
X194246525Y-97173368D01*
X194084010Y-97416589D01*
X193972068Y-97686842D01*
X193915000Y-97973740D01*
X193915000Y-98266260D01*
X193972068Y-98553158D01*
X194084010Y-98823411D01*
X194246525Y-99066632D01*
X194453368Y-99273475D01*
X194627760Y-99390000D01*
X194453368Y-99506525D01*
X194246525Y-99713368D01*
X194084010Y-99956589D01*
X193972068Y-100226842D01*
X193915000Y-100513740D01*
X193915000Y-100806260D01*
X193972068Y-101093158D01*
X194084010Y-101363411D01*
X194246525Y-101606632D01*
X194453368Y-101813475D01*
X194627760Y-101930000D01*
X194453368Y-102046525D01*
X194246525Y-102253368D01*
X194084010Y-102496589D01*
X193972068Y-102766842D01*
X193915000Y-103053740D01*
X193915000Y-103346260D01*
X193972068Y-103633158D01*
X194084010Y-103903411D01*
X194246525Y-104146632D01*
X194453368Y-104353475D01*
X194627760Y-104470000D01*
X194453368Y-104586525D01*
X194246525Y-104793368D01*
X194084010Y-105036589D01*
X193972068Y-105306842D01*
X193915000Y-105593740D01*
X193915000Y-105886260D01*
X193972068Y-106173158D01*
X194084010Y-106443411D01*
X194246525Y-106686632D01*
X194453368Y-106893475D01*
X194627760Y-107010000D01*
X194453368Y-107126525D01*
X194246525Y-107333368D01*
X194084010Y-107576589D01*
X193972068Y-107846842D01*
X193915000Y-108133740D01*
X193915000Y-108426260D01*
X193972068Y-108713158D01*
X194084010Y-108983411D01*
X194246525Y-109226632D01*
X194453368Y-109433475D01*
X194627760Y-109550000D01*
X194453368Y-109666525D01*
X194246525Y-109873368D01*
X194084010Y-110116589D01*
X193972068Y-110386842D01*
X193915000Y-110673740D01*
X193915000Y-110966260D01*
X193972068Y-111253158D01*
X194084010Y-111523411D01*
X194246525Y-111766632D01*
X194453368Y-111973475D01*
X194627760Y-112090000D01*
X194453368Y-112206525D01*
X194246525Y-112413368D01*
X194084010Y-112656589D01*
X193972068Y-112926842D01*
X193915000Y-113213740D01*
X193915000Y-113506260D01*
X193972068Y-113793158D01*
X194084010Y-114063411D01*
X194246525Y-114306632D01*
X194453368Y-114513475D01*
X194696589Y-114675990D01*
X194966842Y-114787932D01*
X195253740Y-114845000D01*
X195546260Y-114845000D01*
X195833158Y-114787932D01*
X196103411Y-114675990D01*
X196346632Y-114513475D01*
X196553475Y-114306632D01*
X196671100Y-114130594D01*
X196842412Y-114360269D01*
X197058645Y-114555178D01*
X197308748Y-114704157D01*
X197583109Y-114801481D01*
X197813000Y-114680814D01*
X197813000Y-113487000D01*
X198067000Y-113487000D01*
X198067000Y-114680814D01*
X198296891Y-114801481D01*
X198571252Y-114704157D01*
X198821355Y-114555178D01*
X199037588Y-114360269D01*
X199211641Y-114126920D01*
X199336825Y-113864099D01*
X199381476Y-113716890D01*
X199260155Y-113487000D01*
X198067000Y-113487000D01*
X197813000Y-113487000D01*
X197793000Y-113487000D01*
X197793000Y-113233000D01*
X197813000Y-113233000D01*
X197813000Y-113213000D01*
X198067000Y-113213000D01*
X198067000Y-113233000D01*
X199260155Y-113233000D01*
X199381476Y-113003110D01*
X199336825Y-112855901D01*
X199211641Y-112593080D01*
X199037588Y-112359731D01*
X198821355Y-112164822D01*
X198704466Y-112095195D01*
X198886632Y-111973475D01*
X199093475Y-111766632D01*
X199255990Y-111523411D01*
X199367932Y-111253158D01*
X199425000Y-110966260D01*
X199425000Y-110673740D01*
X199367932Y-110386842D01*
X199255990Y-110116589D01*
X199093475Y-109873368D01*
X198886632Y-109666525D01*
X198712240Y-109550000D01*
X198886632Y-109433475D01*
X199093475Y-109226632D01*
X199255990Y-108983411D01*
X199367932Y-108713158D01*
X199425000Y-108426260D01*
X199425000Y-108133740D01*
X199367932Y-107846842D01*
X199255990Y-107576589D01*
X199093475Y-107333368D01*
X198886632Y-107126525D01*
X198712240Y-107010000D01*
X198886632Y-106893475D01*
X199093475Y-106686632D01*
X199255990Y-106443411D01*
X199367932Y-106173158D01*
X199425000Y-105886260D01*
X199425000Y-105593740D01*
X199367932Y-105306842D01*
X199255990Y-105036589D01*
X199093475Y-104793368D01*
X198886632Y-104586525D01*
X198712240Y-104470000D01*
X198886632Y-104353475D01*
X199093475Y-104146632D01*
X199255990Y-103903411D01*
X199367932Y-103633158D01*
X199425000Y-103346260D01*
X199425000Y-103053740D01*
X199367932Y-102766842D01*
X199255990Y-102496589D01*
X199093475Y-102253368D01*
X198886632Y-102046525D01*
X198712240Y-101930000D01*
X198886632Y-101813475D01*
X199093475Y-101606632D01*
X199255990Y-101363411D01*
X199367932Y-101093158D01*
X199425000Y-100806260D01*
X199425000Y-100513740D01*
X199367932Y-100226842D01*
X199255990Y-99956589D01*
X199093475Y-99713368D01*
X198886632Y-99506525D01*
X198712240Y-99390000D01*
X198886632Y-99273475D01*
X199093475Y-99066632D01*
X199255990Y-98823411D01*
X199367932Y-98553158D01*
X199425000Y-98266260D01*
X199425000Y-97973740D01*
X199367932Y-97686842D01*
X199255990Y-97416589D01*
X199093475Y-97173368D01*
X198886632Y-96966525D01*
X198712240Y-96850000D01*
X198886632Y-96733475D01*
X199093475Y-96526632D01*
X199255990Y-96283411D01*
X199367932Y-96013158D01*
X199425000Y-95726260D01*
X199425000Y-95433740D01*
X199367932Y-95146842D01*
X199255990Y-94876589D01*
X199093475Y-94633368D01*
X198886632Y-94426525D01*
X198712240Y-94310000D01*
X198886632Y-94193475D01*
X199093475Y-93986632D01*
X199255990Y-93743411D01*
X199367932Y-93473158D01*
X199425000Y-93186260D01*
X199425000Y-92893740D01*
X199367932Y-92606842D01*
X199255990Y-92336589D01*
X199093475Y-92093368D01*
X198886632Y-91886525D01*
X198712240Y-91770000D01*
X198886632Y-91653475D01*
X199093475Y-91446632D01*
X199255990Y-91203411D01*
X199367932Y-90933158D01*
X199425000Y-90646260D01*
X199425000Y-90353740D01*
X199367932Y-90066842D01*
X199255990Y-89796589D01*
X199093475Y-89553368D01*
X198886632Y-89346525D01*
X198643411Y-89184010D01*
X198373158Y-89072068D01*
X198086260Y-89015000D01*
X197793740Y-89015000D01*
X197506842Y-89072068D01*
X197236589Y-89184010D01*
X196993368Y-89346525D01*
X196861513Y-89478380D01*
X196839502Y-89405820D01*
X196780537Y-89295506D01*
X196701185Y-89198815D01*
X196604494Y-89119463D01*
X196494180Y-89060498D01*
X196374482Y-89024188D01*
X196250000Y-89011928D01*
X194550000Y-89011928D01*
X194425518Y-89024188D01*
X194305820Y-89060498D01*
X194195506Y-89119463D01*
X194098815Y-89198815D01*
X194019463Y-89295506D01*
X193960498Y-89405820D01*
X193924188Y-89525518D01*
X193911928Y-89650000D01*
X178738000Y-89650000D01*
X178738000Y-84523711D01*
X178781937Y-84479774D01*
X178895205Y-84310256D01*
X178973226Y-84121898D01*
X179013000Y-83921939D01*
X179013000Y-83718061D01*
X178973226Y-83518102D01*
X178895205Y-83329744D01*
X178781937Y-83160226D01*
X178637774Y-83016063D01*
X178468256Y-82902795D01*
X178279898Y-82824774D01*
X178079939Y-82785000D01*
X177876061Y-82785000D01*
X177676102Y-82824774D01*
X177487744Y-82902795D01*
X177318226Y-83016063D01*
X177174063Y-83160226D01*
X177060795Y-83329744D01*
X176982774Y-83518102D01*
X176943000Y-83718061D01*
X176943000Y-83921939D01*
X176982774Y-84121898D01*
X177060795Y-84310256D01*
X177174063Y-84479774D01*
X177218001Y-84523712D01*
X177218000Y-104198289D01*
X177174063Y-104242226D01*
X177060795Y-104411744D01*
X176982774Y-104600102D01*
X176971381Y-104657381D01*
X176914102Y-104668774D01*
X176725744Y-104746795D01*
X176556226Y-104860063D01*
X176412063Y-105004226D01*
X176298795Y-105173744D01*
X176220774Y-105362102D01*
X176181000Y-105562061D01*
X170631000Y-105562061D01*
X170591226Y-105362102D01*
X170513205Y-105173744D01*
X170399937Y-105004226D01*
X170255774Y-104860063D01*
X170086256Y-104746795D01*
X169897898Y-104668774D01*
X169697939Y-104629000D01*
X169494061Y-104629000D01*
X169294102Y-104668774D01*
X169105744Y-104746795D01*
X168936226Y-104860063D01*
X168792063Y-105004226D01*
X168678795Y-105173744D01*
X168600774Y-105362102D01*
X168561000Y-105562061D01*
X167308000Y-105562061D01*
X167308000Y-97477711D01*
X167351937Y-97433774D01*
X167465205Y-97264256D01*
X167543226Y-97075898D01*
X167564000Y-96971459D01*
X167584774Y-97075898D01*
X167662795Y-97264256D01*
X167776063Y-97433774D01*
X167920226Y-97577937D01*
X168089744Y-97691205D01*
X168278102Y-97769226D01*
X168478061Y-97809000D01*
X168681939Y-97809000D01*
X168881898Y-97769226D01*
X169070256Y-97691205D01*
X169239774Y-97577937D01*
X169383937Y-97433774D01*
X169497205Y-97264256D01*
X169575226Y-97075898D01*
X169615000Y-96875939D01*
X169615000Y-96672061D01*
X169575226Y-96472102D01*
X169497205Y-96283744D01*
X169383937Y-96114226D01*
X169340000Y-96070289D01*
X169340000Y-91889711D01*
X169383937Y-91845774D01*
X169497205Y-91676256D01*
X169575226Y-91487898D01*
X169615000Y-91287939D01*
X169615000Y-91084061D01*
X169575226Y-90884102D01*
X169497205Y-90695744D01*
X169383937Y-90526226D01*
X169340000Y-90482289D01*
X169340000Y-90111711D01*
X169383937Y-90067774D01*
X169497205Y-89898256D01*
X169575226Y-89709898D01*
X169615000Y-89509939D01*
X169615000Y-89306061D01*
X169575226Y-89106102D01*
X169497205Y-88917744D01*
X169383937Y-88748226D01*
X169239774Y-88604063D01*
X169070256Y-88490795D01*
X168881898Y-88412774D01*
X168681939Y-88373000D01*
X168478061Y-88373000D01*
X168278102Y-88412774D01*
X168089744Y-88490795D01*
X167920226Y-88604063D01*
X167776063Y-88748226D01*
X167662795Y-88917744D01*
X167584774Y-89106102D01*
X167545000Y-89306061D01*
X167545000Y-89509939D01*
X167584774Y-89709898D01*
X167662795Y-89898256D01*
X167776063Y-90067774D01*
X167820000Y-90111711D01*
X167820001Y-90482288D01*
X167776063Y-90526226D01*
X167662795Y-90695744D01*
X167584774Y-90884102D01*
X167545000Y-91084061D01*
X167545000Y-91287939D01*
X167584774Y-91487898D01*
X167662795Y-91676256D01*
X167776063Y-91845774D01*
X167820000Y-91889711D01*
X167820001Y-96070288D01*
X167776063Y-96114226D01*
X167662795Y-96283744D01*
X167584774Y-96472102D01*
X167564000Y-96576541D01*
X167543226Y-96472102D01*
X167465205Y-96283744D01*
X167351937Y-96114226D01*
X167207774Y-95970063D01*
X167038256Y-95856795D01*
X166849898Y-95778774D01*
X166649939Y-95739000D01*
X166446061Y-95739000D01*
X166246102Y-95778774D01*
X166057744Y-95856795D01*
X165888226Y-95970063D01*
X165744063Y-96114226D01*
X165630795Y-96283744D01*
X165552774Y-96472102D01*
X165513000Y-96672061D01*
X162757000Y-96672061D01*
X162717226Y-96472102D01*
X162639205Y-96283744D01*
X162525937Y-96114226D01*
X162482000Y-96070289D01*
X162482000Y-94425711D01*
X162586226Y-94529937D01*
X162755744Y-94643205D01*
X162944102Y-94721226D01*
X163144061Y-94761000D01*
X163347939Y-94761000D01*
X163547898Y-94721226D01*
X163736256Y-94643205D01*
X163905774Y-94529937D01*
X164049937Y-94385774D01*
X164163205Y-94216256D01*
X164241226Y-94027898D01*
X164281000Y-93827939D01*
X164281000Y-93624061D01*
X164241226Y-93424102D01*
X164163205Y-93235744D01*
X164049937Y-93066226D01*
X164006000Y-93022289D01*
X164006000Y-91889711D01*
X164049937Y-91845774D01*
X164163205Y-91676256D01*
X164241226Y-91487898D01*
X164281000Y-91287939D01*
X164281000Y-91084061D01*
X164241226Y-90884102D01*
X164163205Y-90695744D01*
X164049937Y-90526226D01*
X164006000Y-90482289D01*
X164006000Y-83761725D01*
X164049951Y-83717774D01*
X164163219Y-83548256D01*
X164241240Y-83359898D01*
X164281014Y-83159939D01*
X164281014Y-82956061D01*
X164751000Y-82956061D01*
X164751000Y-83159939D01*
X164790774Y-83359898D01*
X164868795Y-83548256D01*
X164982063Y-83717774D01*
X165026000Y-83761711D01*
X165026001Y-83878288D01*
X164982063Y-83922226D01*
X164868795Y-84091744D01*
X164790774Y-84280102D01*
X164751000Y-84480061D01*
X164751000Y-84683939D01*
X164790774Y-84883898D01*
X164868795Y-85072256D01*
X164982063Y-85241774D01*
X165126226Y-85385937D01*
X165295744Y-85499205D01*
X165484102Y-85577226D01*
X165684061Y-85617000D01*
X165887939Y-85617000D01*
X166087898Y-85577226D01*
X166276256Y-85499205D01*
X166445774Y-85385937D01*
X166589937Y-85241774D01*
X166703205Y-85072256D01*
X166781226Y-84883898D01*
X166821000Y-84683939D01*
X166821000Y-84480061D01*
X166781226Y-84280102D01*
X166703205Y-84091744D01*
X166589937Y-83922226D01*
X166546000Y-83878289D01*
X166546000Y-83761711D01*
X166589937Y-83717774D01*
X166703205Y-83548256D01*
X166781226Y-83359898D01*
X166821000Y-83159939D01*
X166821000Y-82956061D01*
X166781226Y-82756102D01*
X166703205Y-82567744D01*
X166589937Y-82398226D01*
X166445774Y-82254063D01*
X166276256Y-82140795D01*
X166087898Y-82062774D01*
X165887939Y-82023000D01*
X165684061Y-82023000D01*
X165484102Y-82062774D01*
X165295744Y-82140795D01*
X165126226Y-82254063D01*
X164982063Y-82398226D01*
X164868795Y-82567744D01*
X164790774Y-82756102D01*
X164751000Y-82956061D01*
X164281014Y-82956061D01*
X164241240Y-82756102D01*
X164163219Y-82567744D01*
X164049951Y-82398226D01*
X163905788Y-82254063D01*
X163736270Y-82140795D01*
X163547912Y-82062774D01*
X163347953Y-82023000D01*
X163144075Y-82023000D01*
X162944116Y-82062774D01*
X162755758Y-82140795D01*
X162586240Y-82254063D01*
X162484006Y-82356297D01*
X162381772Y-82254063D01*
X162212254Y-82140795D01*
X162023896Y-82062774D01*
X161823937Y-82023000D01*
X161620059Y-82023000D01*
X161420100Y-82062774D01*
X161231742Y-82140795D01*
X161062224Y-82254063D01*
X160918061Y-82398226D01*
X160804793Y-82567744D01*
X160726772Y-82756102D01*
X160686998Y-82956061D01*
X160686998Y-83099287D01*
X160603774Y-83016063D01*
X160434256Y-82902795D01*
X160245898Y-82824774D01*
X160045939Y-82785000D01*
X159842061Y-82785000D01*
X159642102Y-82824774D01*
X159453744Y-82902795D01*
X159284226Y-83016063D01*
X159140063Y-83160226D01*
X159026795Y-83329744D01*
X158948774Y-83518102D01*
X158937381Y-83575381D01*
X158880102Y-83586774D01*
X158691744Y-83664795D01*
X158522226Y-83778063D01*
X158378063Y-83922226D01*
X158264795Y-84091744D01*
X158186774Y-84280102D01*
X158147000Y-84480061D01*
X146226000Y-84480061D01*
X146226000Y-81779872D01*
X194365000Y-81779872D01*
X194365000Y-82220128D01*
X194450890Y-82651925D01*
X194619369Y-83058669D01*
X194863962Y-83424729D01*
X195175271Y-83736038D01*
X195541331Y-83980631D01*
X195948075Y-84149110D01*
X196379872Y-84235000D01*
X196820128Y-84235000D01*
X197251925Y-84149110D01*
X197658669Y-83980631D01*
X198024729Y-83736038D01*
X198336038Y-83424729D01*
X198580631Y-83058669D01*
X198749110Y-82651925D01*
X198835000Y-82220128D01*
X198835000Y-81779872D01*
X198749110Y-81348075D01*
X198580631Y-80941331D01*
X198336038Y-80575271D01*
X198024729Y-80263962D01*
X197658669Y-80019369D01*
X197251925Y-79850890D01*
X196820128Y-79765000D01*
X196379872Y-79765000D01*
X195948075Y-79850890D01*
X195541331Y-80019369D01*
X195175271Y-80263962D01*
X194863962Y-80575271D01*
X194619369Y-80941331D01*
X194450890Y-81348075D01*
X194365000Y-81779872D01*
X146226000Y-81779872D01*
X146226000Y-81221711D01*
X146269937Y-81177774D01*
X146383205Y-81008256D01*
X146461226Y-80819898D01*
X146501000Y-80619939D01*
X146501000Y-80416061D01*
X146461226Y-80216102D01*
X146383205Y-80027744D01*
X146269937Y-79858226D01*
X146238848Y-79827137D01*
X160915000Y-79827137D01*
X160915000Y-80040863D01*
X160956696Y-80250483D01*
X161038485Y-80447940D01*
X161157225Y-80625647D01*
X161308353Y-80776775D01*
X161486060Y-80895515D01*
X161683517Y-80977304D01*
X161893137Y-81019000D01*
X162106863Y-81019000D01*
X162316483Y-80977304D01*
X162513940Y-80895515D01*
X162691647Y-80776775D01*
X162842775Y-80625647D01*
X162961515Y-80447940D01*
X163043304Y-80250483D01*
X163085000Y-80040863D01*
X163085000Y-79827137D01*
X163915000Y-79827137D01*
X163915000Y-80040863D01*
X163956696Y-80250483D01*
X164038485Y-80447940D01*
X164157225Y-80625647D01*
X164308353Y-80776775D01*
X164486060Y-80895515D01*
X164683517Y-80977304D01*
X164893137Y-81019000D01*
X165106863Y-81019000D01*
X165316483Y-80977304D01*
X165513940Y-80895515D01*
X165691647Y-80776775D01*
X165842775Y-80625647D01*
X165961515Y-80447940D01*
X166043304Y-80250483D01*
X166085000Y-80040863D01*
X166085000Y-79827137D01*
X166043304Y-79617517D01*
X165961515Y-79420060D01*
X165842775Y-79242353D01*
X165691647Y-79091225D01*
X165513940Y-78972485D01*
X165316483Y-78890696D01*
X165106863Y-78849000D01*
X164893137Y-78849000D01*
X164683517Y-78890696D01*
X164486060Y-78972485D01*
X164308353Y-79091225D01*
X164157225Y-79242353D01*
X164038485Y-79420060D01*
X163956696Y-79617517D01*
X163915000Y-79827137D01*
X163085000Y-79827137D01*
X163043304Y-79617517D01*
X162961515Y-79420060D01*
X162842775Y-79242353D01*
X162691647Y-79091225D01*
X162513940Y-78972485D01*
X162316483Y-78890696D01*
X162106863Y-78849000D01*
X161893137Y-78849000D01*
X161683517Y-78890696D01*
X161486060Y-78972485D01*
X161308353Y-79091225D01*
X161157225Y-79242353D01*
X161038485Y-79420060D01*
X160956696Y-79617517D01*
X160915000Y-79827137D01*
X146238848Y-79827137D01*
X146125774Y-79714063D01*
X145956256Y-79600795D01*
X145767898Y-79522774D01*
X145567939Y-79483000D01*
X145364061Y-79483000D01*
X145164102Y-79522774D01*
X144975744Y-79600795D01*
X144806226Y-79714063D01*
X144662063Y-79858226D01*
X144548795Y-80027744D01*
X144470774Y-80216102D01*
X144431000Y-80416061D01*
X127219650Y-80416061D01*
X127219937Y-80415774D01*
X127333205Y-80246256D01*
X127411226Y-80057898D01*
X127451000Y-79857939D01*
X127451000Y-79654061D01*
X127411226Y-79454102D01*
X127333205Y-79265744D01*
X127219937Y-79096226D01*
X127075774Y-78952063D01*
X126906256Y-78838795D01*
X126717898Y-78760774D01*
X126517939Y-78721000D01*
X126314061Y-78721000D01*
X126114102Y-78760774D01*
X125925744Y-78838795D01*
X125756226Y-78952063D01*
X125612063Y-79096226D01*
X125498795Y-79265744D01*
X125420774Y-79454102D01*
X125381000Y-79654061D01*
X104227949Y-79654061D01*
X104232279Y-79648753D01*
X104734067Y-79233638D01*
X105306924Y-78923895D01*
X105929039Y-78731318D01*
X106607584Y-78660000D01*
X196567722Y-78660000D01*
X197248126Y-78726714D01*
M02*
