G04 #@! TF.GenerationSoftware,KiCad,Pcbnew,(5.1.5)-3*
G04 #@! TF.CreationDate,2021-01-18T17:20:57+00:00*
G04 #@! TF.ProjectId,Little Logic Computer - Power+Timing,4c697474-6c65-4204-9c6f-67696320436f,rev?*
G04 #@! TF.SameCoordinates,Original*
G04 #@! TF.FileFunction,Soldermask,Top*
G04 #@! TF.FilePolarity,Negative*
%FSLAX46Y46*%
G04 Gerber Fmt 4.6, Leading zero omitted, Abs format (unit mm)*
G04 Created by KiCad (PCBNEW (5.1.5)-3) date 2021-01-18 17:20:57*
%MOMM*%
%LPD*%
G04 APERTURE LIST*
%ADD10C,0.100000*%
G04 APERTURE END LIST*
D10*
G36*
X196975256Y-120391298D02*
G01*
X197081579Y-120412447D01*
X197382042Y-120536903D01*
X197652451Y-120717585D01*
X197882415Y-120947549D01*
X198063097Y-121217958D01*
X198187553Y-121518421D01*
X198251000Y-121837391D01*
X198251000Y-122162609D01*
X198187553Y-122481579D01*
X198063097Y-122782042D01*
X197882415Y-123052451D01*
X197652451Y-123282415D01*
X197382042Y-123463097D01*
X197081579Y-123587553D01*
X196975256Y-123608702D01*
X196762611Y-123651000D01*
X196437389Y-123651000D01*
X196224744Y-123608702D01*
X196118421Y-123587553D01*
X195817958Y-123463097D01*
X195547549Y-123282415D01*
X195317585Y-123052451D01*
X195136903Y-122782042D01*
X195012447Y-122481579D01*
X194949000Y-122162609D01*
X194949000Y-121837391D01*
X195012447Y-121518421D01*
X195136903Y-121217958D01*
X195317585Y-120947549D01*
X195547549Y-120717585D01*
X195817958Y-120536903D01*
X196118421Y-120412447D01*
X196224744Y-120391298D01*
X196437389Y-120349000D01*
X196762611Y-120349000D01*
X196975256Y-120391298D01*
G37*
G36*
X106975256Y-120391298D02*
G01*
X107081579Y-120412447D01*
X107382042Y-120536903D01*
X107652451Y-120717585D01*
X107882415Y-120947549D01*
X108063097Y-121217958D01*
X108187553Y-121518421D01*
X108251000Y-121837391D01*
X108251000Y-122162609D01*
X108187553Y-122481579D01*
X108063097Y-122782042D01*
X107882415Y-123052451D01*
X107652451Y-123282415D01*
X107382042Y-123463097D01*
X107081579Y-123587553D01*
X106975256Y-123608702D01*
X106762611Y-123651000D01*
X106437389Y-123651000D01*
X106224744Y-123608702D01*
X106118421Y-123587553D01*
X105817958Y-123463097D01*
X105547549Y-123282415D01*
X105317585Y-123052451D01*
X105136903Y-122782042D01*
X105012447Y-122481579D01*
X104949000Y-122162609D01*
X104949000Y-121837391D01*
X105012447Y-121518421D01*
X105136903Y-121217958D01*
X105317585Y-120947549D01*
X105547549Y-120717585D01*
X105817958Y-120536903D01*
X106118421Y-120412447D01*
X106224744Y-120391298D01*
X106437389Y-120349000D01*
X106762611Y-120349000D01*
X106975256Y-120391298D01*
G37*
G36*
X116953512Y-121099927D02*
G01*
X117102812Y-121129624D01*
X117266784Y-121197544D01*
X117414354Y-121296147D01*
X117539853Y-121421646D01*
X117638456Y-121569216D01*
X117706376Y-121733188D01*
X117741000Y-121907259D01*
X117741000Y-122084741D01*
X117706376Y-122258812D01*
X117638456Y-122422784D01*
X117539853Y-122570354D01*
X117414354Y-122695853D01*
X117266784Y-122794456D01*
X117102812Y-122862376D01*
X116953512Y-122892073D01*
X116928742Y-122897000D01*
X116751258Y-122897000D01*
X116726488Y-122892073D01*
X116577188Y-122862376D01*
X116413216Y-122794456D01*
X116265646Y-122695853D01*
X116140147Y-122570354D01*
X116041544Y-122422784D01*
X115973624Y-122258812D01*
X115939000Y-122084741D01*
X115939000Y-121907259D01*
X115973624Y-121733188D01*
X116041544Y-121569216D01*
X116140147Y-121421646D01*
X116265646Y-121296147D01*
X116413216Y-121197544D01*
X116577188Y-121129624D01*
X116726488Y-121099927D01*
X116751258Y-121095000D01*
X116928742Y-121095000D01*
X116953512Y-121099927D01*
G37*
G36*
X115201000Y-122897000D02*
G01*
X113399000Y-122897000D01*
X113399000Y-121095000D01*
X115201000Y-121095000D01*
X115201000Y-122897000D01*
G37*
G36*
X125469000Y-120640000D02*
G01*
X123807000Y-120640000D01*
X123807000Y-117988000D01*
X125469000Y-117988000D01*
X125469000Y-120640000D01*
G37*
G36*
X128169000Y-120640000D02*
G01*
X126507000Y-120640000D01*
X126507000Y-119888000D01*
X128169000Y-119888000D01*
X128169000Y-120640000D01*
G37*
G36*
X128169000Y-118740000D02*
G01*
X126507000Y-118740000D01*
X126507000Y-117988000D01*
X128169000Y-117988000D01*
X128169000Y-118740000D01*
G37*
G36*
X114870591Y-116394085D02*
G01*
X114904569Y-116404393D01*
X114935890Y-116421134D01*
X114963339Y-116443661D01*
X114985866Y-116471110D01*
X115002607Y-116502431D01*
X115012915Y-116536409D01*
X115017000Y-116577890D01*
X115017000Y-117254110D01*
X115012915Y-117295591D01*
X115002607Y-117329569D01*
X114985866Y-117360890D01*
X114963339Y-117388339D01*
X114935890Y-117410866D01*
X114904569Y-117427607D01*
X114870591Y-117437915D01*
X114829110Y-117442000D01*
X114227890Y-117442000D01*
X114186409Y-117437915D01*
X114152431Y-117427607D01*
X114121110Y-117410866D01*
X114093661Y-117388339D01*
X114071134Y-117360890D01*
X114054393Y-117329569D01*
X114044085Y-117295591D01*
X114040000Y-117254110D01*
X114040000Y-116577890D01*
X114044085Y-116536409D01*
X114054393Y-116502431D01*
X114071134Y-116471110D01*
X114093661Y-116443661D01*
X114121110Y-116421134D01*
X114152431Y-116404393D01*
X114186409Y-116394085D01*
X114227890Y-116390000D01*
X114829110Y-116390000D01*
X114870591Y-116394085D01*
G37*
G36*
X116445591Y-116394085D02*
G01*
X116479569Y-116404393D01*
X116510890Y-116421134D01*
X116538339Y-116443661D01*
X116560866Y-116471110D01*
X116577607Y-116502431D01*
X116587915Y-116536409D01*
X116592000Y-116577890D01*
X116592000Y-117254110D01*
X116587915Y-117295591D01*
X116577607Y-117329569D01*
X116560866Y-117360890D01*
X116538339Y-117388339D01*
X116510890Y-117410866D01*
X116479569Y-117427607D01*
X116445591Y-117437915D01*
X116404110Y-117442000D01*
X115802890Y-117442000D01*
X115761409Y-117437915D01*
X115727431Y-117427607D01*
X115696110Y-117410866D01*
X115668661Y-117388339D01*
X115646134Y-117360890D01*
X115629393Y-117329569D01*
X115619085Y-117295591D01*
X115615000Y-117254110D01*
X115615000Y-116577890D01*
X115619085Y-116536409D01*
X115629393Y-116502431D01*
X115646134Y-116471110D01*
X115668661Y-116443661D01*
X115696110Y-116421134D01*
X115727431Y-116404393D01*
X115761409Y-116394085D01*
X115802890Y-116390000D01*
X116404110Y-116390000D01*
X116445591Y-116394085D01*
G37*
G36*
X145949000Y-115692000D02*
G01*
X144287000Y-115692000D01*
X144287000Y-114940000D01*
X145949000Y-114940000D01*
X145949000Y-115692000D01*
G37*
G36*
X143249000Y-115692000D02*
G01*
X141587000Y-115692000D01*
X141587000Y-113040000D01*
X143249000Y-113040000D01*
X143249000Y-115692000D01*
G37*
G36*
X138423000Y-115626000D02*
G01*
X136761000Y-115626000D01*
X136761000Y-114874000D01*
X138423000Y-114874000D01*
X138423000Y-115626000D01*
G37*
G36*
X135723000Y-115626000D02*
G01*
X134061000Y-115626000D01*
X134061000Y-112974000D01*
X135723000Y-112974000D01*
X135723000Y-115626000D01*
G37*
G36*
X128089000Y-115560000D02*
G01*
X126427000Y-115560000D01*
X126427000Y-114808000D01*
X128089000Y-114808000D01*
X128089000Y-115560000D01*
G37*
G36*
X125389000Y-115560000D02*
G01*
X123727000Y-115560000D01*
X123727000Y-112908000D01*
X125389000Y-112908000D01*
X125389000Y-115560000D01*
G37*
G36*
X105513512Y-112463927D02*
G01*
X105662812Y-112493624D01*
X105826784Y-112561544D01*
X105974354Y-112660147D01*
X106099853Y-112785646D01*
X106198456Y-112933216D01*
X106266376Y-113097188D01*
X106301000Y-113271259D01*
X106301000Y-113448741D01*
X106266376Y-113622812D01*
X106198456Y-113786784D01*
X106099853Y-113934354D01*
X105974354Y-114059853D01*
X105826784Y-114158456D01*
X105662812Y-114226376D01*
X105513512Y-114256073D01*
X105488742Y-114261000D01*
X105311258Y-114261000D01*
X105286488Y-114256073D01*
X105137188Y-114226376D01*
X104973216Y-114158456D01*
X104825646Y-114059853D01*
X104700147Y-113934354D01*
X104601544Y-113786784D01*
X104533624Y-113622812D01*
X104499000Y-113448741D01*
X104499000Y-113271259D01*
X104533624Y-113097188D01*
X104601544Y-112933216D01*
X104700147Y-112785646D01*
X104825646Y-112660147D01*
X104973216Y-112561544D01*
X105137188Y-112493624D01*
X105286488Y-112463927D01*
X105311258Y-112459000D01*
X105488742Y-112459000D01*
X105513512Y-112463927D01*
G37*
G36*
X108053512Y-112463927D02*
G01*
X108202812Y-112493624D01*
X108366784Y-112561544D01*
X108514354Y-112660147D01*
X108639853Y-112785646D01*
X108738456Y-112933216D01*
X108806376Y-113097188D01*
X108841000Y-113271259D01*
X108841000Y-113448741D01*
X108806376Y-113622812D01*
X108738456Y-113786784D01*
X108639853Y-113934354D01*
X108514354Y-114059853D01*
X108366784Y-114158456D01*
X108202812Y-114226376D01*
X108053512Y-114256073D01*
X108028742Y-114261000D01*
X107851258Y-114261000D01*
X107826488Y-114256073D01*
X107677188Y-114226376D01*
X107513216Y-114158456D01*
X107365646Y-114059853D01*
X107240147Y-113934354D01*
X107141544Y-113786784D01*
X107073624Y-113622812D01*
X107039000Y-113448741D01*
X107039000Y-113271259D01*
X107073624Y-113097188D01*
X107141544Y-112933216D01*
X107240147Y-112785646D01*
X107365646Y-112660147D01*
X107513216Y-112561544D01*
X107677188Y-112493624D01*
X107826488Y-112463927D01*
X107851258Y-112459000D01*
X108028742Y-112459000D01*
X108053512Y-112463927D01*
G37*
G36*
X195513512Y-112463927D02*
G01*
X195662812Y-112493624D01*
X195826784Y-112561544D01*
X195974354Y-112660147D01*
X196099853Y-112785646D01*
X196198456Y-112933216D01*
X196266376Y-113097188D01*
X196301000Y-113271259D01*
X196301000Y-113448741D01*
X196266376Y-113622812D01*
X196198456Y-113786784D01*
X196099853Y-113934354D01*
X195974354Y-114059853D01*
X195826784Y-114158456D01*
X195662812Y-114226376D01*
X195513512Y-114256073D01*
X195488742Y-114261000D01*
X195311258Y-114261000D01*
X195286488Y-114256073D01*
X195137188Y-114226376D01*
X194973216Y-114158456D01*
X194825646Y-114059853D01*
X194700147Y-113934354D01*
X194601544Y-113786784D01*
X194533624Y-113622812D01*
X194499000Y-113448741D01*
X194499000Y-113271259D01*
X194533624Y-113097188D01*
X194601544Y-112933216D01*
X194700147Y-112785646D01*
X194825646Y-112660147D01*
X194973216Y-112561544D01*
X195137188Y-112493624D01*
X195286488Y-112463927D01*
X195311258Y-112459000D01*
X195488742Y-112459000D01*
X195513512Y-112463927D01*
G37*
G36*
X198053512Y-112463927D02*
G01*
X198202812Y-112493624D01*
X198366784Y-112561544D01*
X198514354Y-112660147D01*
X198639853Y-112785646D01*
X198738456Y-112933216D01*
X198806376Y-113097188D01*
X198841000Y-113271259D01*
X198841000Y-113448741D01*
X198806376Y-113622812D01*
X198738456Y-113786784D01*
X198639853Y-113934354D01*
X198514354Y-114059853D01*
X198366784Y-114158456D01*
X198202812Y-114226376D01*
X198053512Y-114256073D01*
X198028742Y-114261000D01*
X197851258Y-114261000D01*
X197826488Y-114256073D01*
X197677188Y-114226376D01*
X197513216Y-114158456D01*
X197365646Y-114059853D01*
X197240147Y-113934354D01*
X197141544Y-113786784D01*
X197073624Y-113622812D01*
X197039000Y-113448741D01*
X197039000Y-113271259D01*
X197073624Y-113097188D01*
X197141544Y-112933216D01*
X197240147Y-112785646D01*
X197365646Y-112660147D01*
X197513216Y-112561544D01*
X197677188Y-112493624D01*
X197826488Y-112463927D01*
X197851258Y-112459000D01*
X198028742Y-112459000D01*
X198053512Y-112463927D01*
G37*
G36*
X145949000Y-113792000D02*
G01*
X144287000Y-113792000D01*
X144287000Y-113040000D01*
X145949000Y-113040000D01*
X145949000Y-113792000D01*
G37*
G36*
X138423000Y-113726000D02*
G01*
X136761000Y-113726000D01*
X136761000Y-112974000D01*
X138423000Y-112974000D01*
X138423000Y-113726000D01*
G37*
G36*
X128089000Y-113660000D02*
G01*
X126427000Y-113660000D01*
X126427000Y-112908000D01*
X128089000Y-112908000D01*
X128089000Y-113660000D01*
G37*
G36*
X105513512Y-109923927D02*
G01*
X105662812Y-109953624D01*
X105826784Y-110021544D01*
X105974354Y-110120147D01*
X106099853Y-110245646D01*
X106198456Y-110393216D01*
X106266376Y-110557188D01*
X106301000Y-110731259D01*
X106301000Y-110908741D01*
X106266376Y-111082812D01*
X106198456Y-111246784D01*
X106099853Y-111394354D01*
X105974354Y-111519853D01*
X105826784Y-111618456D01*
X105662812Y-111686376D01*
X105513512Y-111716073D01*
X105488742Y-111721000D01*
X105311258Y-111721000D01*
X105286488Y-111716073D01*
X105137188Y-111686376D01*
X104973216Y-111618456D01*
X104825646Y-111519853D01*
X104700147Y-111394354D01*
X104601544Y-111246784D01*
X104533624Y-111082812D01*
X104499000Y-110908741D01*
X104499000Y-110731259D01*
X104533624Y-110557188D01*
X104601544Y-110393216D01*
X104700147Y-110245646D01*
X104825646Y-110120147D01*
X104973216Y-110021544D01*
X105137188Y-109953624D01*
X105286488Y-109923927D01*
X105311258Y-109919000D01*
X105488742Y-109919000D01*
X105513512Y-109923927D01*
G37*
G36*
X195513512Y-109923927D02*
G01*
X195662812Y-109953624D01*
X195826784Y-110021544D01*
X195974354Y-110120147D01*
X196099853Y-110245646D01*
X196198456Y-110393216D01*
X196266376Y-110557188D01*
X196301000Y-110731259D01*
X196301000Y-110908741D01*
X196266376Y-111082812D01*
X196198456Y-111246784D01*
X196099853Y-111394354D01*
X195974354Y-111519853D01*
X195826784Y-111618456D01*
X195662812Y-111686376D01*
X195513512Y-111716073D01*
X195488742Y-111721000D01*
X195311258Y-111721000D01*
X195286488Y-111716073D01*
X195137188Y-111686376D01*
X194973216Y-111618456D01*
X194825646Y-111519853D01*
X194700147Y-111394354D01*
X194601544Y-111246784D01*
X194533624Y-111082812D01*
X194499000Y-110908741D01*
X194499000Y-110731259D01*
X194533624Y-110557188D01*
X194601544Y-110393216D01*
X194700147Y-110245646D01*
X194825646Y-110120147D01*
X194973216Y-110021544D01*
X195137188Y-109953624D01*
X195286488Y-109923927D01*
X195311258Y-109919000D01*
X195488742Y-109919000D01*
X195513512Y-109923927D01*
G37*
G36*
X108053512Y-109923927D02*
G01*
X108202812Y-109953624D01*
X108366784Y-110021544D01*
X108514354Y-110120147D01*
X108639853Y-110245646D01*
X108738456Y-110393216D01*
X108806376Y-110557188D01*
X108841000Y-110731259D01*
X108841000Y-110908741D01*
X108806376Y-111082812D01*
X108738456Y-111246784D01*
X108639853Y-111394354D01*
X108514354Y-111519853D01*
X108366784Y-111618456D01*
X108202812Y-111686376D01*
X108053512Y-111716073D01*
X108028742Y-111721000D01*
X107851258Y-111721000D01*
X107826488Y-111716073D01*
X107677188Y-111686376D01*
X107513216Y-111618456D01*
X107365646Y-111519853D01*
X107240147Y-111394354D01*
X107141544Y-111246784D01*
X107073624Y-111082812D01*
X107039000Y-110908741D01*
X107039000Y-110731259D01*
X107073624Y-110557188D01*
X107141544Y-110393216D01*
X107240147Y-110245646D01*
X107365646Y-110120147D01*
X107513216Y-110021544D01*
X107677188Y-109953624D01*
X107826488Y-109923927D01*
X107851258Y-109919000D01*
X108028742Y-109919000D01*
X108053512Y-109923927D01*
G37*
G36*
X198053512Y-109923927D02*
G01*
X198202812Y-109953624D01*
X198366784Y-110021544D01*
X198514354Y-110120147D01*
X198639853Y-110245646D01*
X198738456Y-110393216D01*
X198806376Y-110557188D01*
X198841000Y-110731259D01*
X198841000Y-110908741D01*
X198806376Y-111082812D01*
X198738456Y-111246784D01*
X198639853Y-111394354D01*
X198514354Y-111519853D01*
X198366784Y-111618456D01*
X198202812Y-111686376D01*
X198053512Y-111716073D01*
X198028742Y-111721000D01*
X197851258Y-111721000D01*
X197826488Y-111716073D01*
X197677188Y-111686376D01*
X197513216Y-111618456D01*
X197365646Y-111519853D01*
X197240147Y-111394354D01*
X197141544Y-111246784D01*
X197073624Y-111082812D01*
X197039000Y-110908741D01*
X197039000Y-110731259D01*
X197073624Y-110557188D01*
X197141544Y-110393216D01*
X197240147Y-110245646D01*
X197365646Y-110120147D01*
X197513216Y-110021544D01*
X197677188Y-109953624D01*
X197826488Y-109923927D01*
X197851258Y-109919000D01*
X198028742Y-109919000D01*
X198053512Y-109923927D01*
G37*
G36*
X108053512Y-107383927D02*
G01*
X108202812Y-107413624D01*
X108366784Y-107481544D01*
X108514354Y-107580147D01*
X108639853Y-107705646D01*
X108738456Y-107853216D01*
X108806376Y-108017188D01*
X108841000Y-108191259D01*
X108841000Y-108368741D01*
X108806376Y-108542812D01*
X108738456Y-108706784D01*
X108639853Y-108854354D01*
X108514354Y-108979853D01*
X108366784Y-109078456D01*
X108202812Y-109146376D01*
X108053512Y-109176073D01*
X108028742Y-109181000D01*
X107851258Y-109181000D01*
X107826488Y-109176073D01*
X107677188Y-109146376D01*
X107513216Y-109078456D01*
X107365646Y-108979853D01*
X107240147Y-108854354D01*
X107141544Y-108706784D01*
X107073624Y-108542812D01*
X107039000Y-108368741D01*
X107039000Y-108191259D01*
X107073624Y-108017188D01*
X107141544Y-107853216D01*
X107240147Y-107705646D01*
X107365646Y-107580147D01*
X107513216Y-107481544D01*
X107677188Y-107413624D01*
X107826488Y-107383927D01*
X107851258Y-107379000D01*
X108028742Y-107379000D01*
X108053512Y-107383927D01*
G37*
G36*
X105513512Y-107383927D02*
G01*
X105662812Y-107413624D01*
X105826784Y-107481544D01*
X105974354Y-107580147D01*
X106099853Y-107705646D01*
X106198456Y-107853216D01*
X106266376Y-108017188D01*
X106301000Y-108191259D01*
X106301000Y-108368741D01*
X106266376Y-108542812D01*
X106198456Y-108706784D01*
X106099853Y-108854354D01*
X105974354Y-108979853D01*
X105826784Y-109078456D01*
X105662812Y-109146376D01*
X105513512Y-109176073D01*
X105488742Y-109181000D01*
X105311258Y-109181000D01*
X105286488Y-109176073D01*
X105137188Y-109146376D01*
X104973216Y-109078456D01*
X104825646Y-108979853D01*
X104700147Y-108854354D01*
X104601544Y-108706784D01*
X104533624Y-108542812D01*
X104499000Y-108368741D01*
X104499000Y-108191259D01*
X104533624Y-108017188D01*
X104601544Y-107853216D01*
X104700147Y-107705646D01*
X104825646Y-107580147D01*
X104973216Y-107481544D01*
X105137188Y-107413624D01*
X105286488Y-107383927D01*
X105311258Y-107379000D01*
X105488742Y-107379000D01*
X105513512Y-107383927D01*
G37*
G36*
X198053512Y-107383927D02*
G01*
X198202812Y-107413624D01*
X198366784Y-107481544D01*
X198514354Y-107580147D01*
X198639853Y-107705646D01*
X198738456Y-107853216D01*
X198806376Y-108017188D01*
X198841000Y-108191259D01*
X198841000Y-108368741D01*
X198806376Y-108542812D01*
X198738456Y-108706784D01*
X198639853Y-108854354D01*
X198514354Y-108979853D01*
X198366784Y-109078456D01*
X198202812Y-109146376D01*
X198053512Y-109176073D01*
X198028742Y-109181000D01*
X197851258Y-109181000D01*
X197826488Y-109176073D01*
X197677188Y-109146376D01*
X197513216Y-109078456D01*
X197365646Y-108979853D01*
X197240147Y-108854354D01*
X197141544Y-108706784D01*
X197073624Y-108542812D01*
X197039000Y-108368741D01*
X197039000Y-108191259D01*
X197073624Y-108017188D01*
X197141544Y-107853216D01*
X197240147Y-107705646D01*
X197365646Y-107580147D01*
X197513216Y-107481544D01*
X197677188Y-107413624D01*
X197826488Y-107383927D01*
X197851258Y-107379000D01*
X198028742Y-107379000D01*
X198053512Y-107383927D01*
G37*
G36*
X195513512Y-107383927D02*
G01*
X195662812Y-107413624D01*
X195826784Y-107481544D01*
X195974354Y-107580147D01*
X196099853Y-107705646D01*
X196198456Y-107853216D01*
X196266376Y-108017188D01*
X196301000Y-108191259D01*
X196301000Y-108368741D01*
X196266376Y-108542812D01*
X196198456Y-108706784D01*
X196099853Y-108854354D01*
X195974354Y-108979853D01*
X195826784Y-109078456D01*
X195662812Y-109146376D01*
X195513512Y-109176073D01*
X195488742Y-109181000D01*
X195311258Y-109181000D01*
X195286488Y-109176073D01*
X195137188Y-109146376D01*
X194973216Y-109078456D01*
X194825646Y-108979853D01*
X194700147Y-108854354D01*
X194601544Y-108706784D01*
X194533624Y-108542812D01*
X194499000Y-108368741D01*
X194499000Y-108191259D01*
X194533624Y-108017188D01*
X194601544Y-107853216D01*
X194700147Y-107705646D01*
X194825646Y-107580147D01*
X194973216Y-107481544D01*
X195137188Y-107413624D01*
X195286488Y-107383927D01*
X195311258Y-107379000D01*
X195488742Y-107379000D01*
X195513512Y-107383927D01*
G37*
G36*
X135723000Y-108072000D02*
G01*
X134061000Y-108072000D01*
X134061000Y-105420000D01*
X135723000Y-105420000D01*
X135723000Y-108072000D01*
G37*
G36*
X138423000Y-108072000D02*
G01*
X136761000Y-108072000D01*
X136761000Y-107320000D01*
X138423000Y-107320000D01*
X138423000Y-108072000D01*
G37*
G36*
X173729000Y-108072000D02*
G01*
X172067000Y-108072000D01*
X172067000Y-105420000D01*
X173729000Y-105420000D01*
X173729000Y-108072000D01*
G37*
G36*
X161189000Y-108072000D02*
G01*
X159527000Y-108072000D01*
X159527000Y-107320000D01*
X161189000Y-107320000D01*
X161189000Y-108072000D01*
G37*
G36*
X158489000Y-108072000D02*
G01*
X156827000Y-108072000D01*
X156827000Y-105420000D01*
X158489000Y-105420000D01*
X158489000Y-108072000D01*
G37*
G36*
X168809000Y-108072000D02*
G01*
X167147000Y-108072000D01*
X167147000Y-107320000D01*
X168809000Y-107320000D01*
X168809000Y-108072000D01*
G37*
G36*
X166109000Y-108072000D02*
G01*
X164447000Y-108072000D01*
X164447000Y-105420000D01*
X166109000Y-105420000D01*
X166109000Y-108072000D01*
G37*
G36*
X153569000Y-108072000D02*
G01*
X151907000Y-108072000D01*
X151907000Y-107320000D01*
X153569000Y-107320000D01*
X153569000Y-108072000D01*
G37*
G36*
X150869000Y-108072000D02*
G01*
X149207000Y-108072000D01*
X149207000Y-105420000D01*
X150869000Y-105420000D01*
X150869000Y-108072000D01*
G37*
G36*
X145949000Y-108072000D02*
G01*
X144287000Y-108072000D01*
X144287000Y-107320000D01*
X145949000Y-107320000D01*
X145949000Y-108072000D01*
G37*
G36*
X143249000Y-108072000D02*
G01*
X141587000Y-108072000D01*
X141587000Y-105420000D01*
X143249000Y-105420000D01*
X143249000Y-108072000D01*
G37*
G36*
X176429000Y-108072000D02*
G01*
X174767000Y-108072000D01*
X174767000Y-107320000D01*
X176429000Y-107320000D01*
X176429000Y-108072000D01*
G37*
G36*
X181349000Y-108006000D02*
G01*
X179687000Y-108006000D01*
X179687000Y-105354000D01*
X181349000Y-105354000D01*
X181349000Y-108006000D01*
G37*
G36*
X184049000Y-108006000D02*
G01*
X182387000Y-108006000D01*
X182387000Y-107254000D01*
X184049000Y-107254000D01*
X184049000Y-108006000D01*
G37*
G36*
X108053512Y-104843927D02*
G01*
X108202812Y-104873624D01*
X108366784Y-104941544D01*
X108514354Y-105040147D01*
X108639853Y-105165646D01*
X108738456Y-105313216D01*
X108806376Y-105477188D01*
X108841000Y-105651259D01*
X108841000Y-105828741D01*
X108806376Y-106002812D01*
X108738456Y-106166784D01*
X108639853Y-106314354D01*
X108514354Y-106439853D01*
X108366784Y-106538456D01*
X108202812Y-106606376D01*
X108053512Y-106636073D01*
X108028742Y-106641000D01*
X107851258Y-106641000D01*
X107826488Y-106636073D01*
X107677188Y-106606376D01*
X107513216Y-106538456D01*
X107365646Y-106439853D01*
X107240147Y-106314354D01*
X107141544Y-106166784D01*
X107073624Y-106002812D01*
X107039000Y-105828741D01*
X107039000Y-105651259D01*
X107073624Y-105477188D01*
X107141544Y-105313216D01*
X107240147Y-105165646D01*
X107365646Y-105040147D01*
X107513216Y-104941544D01*
X107677188Y-104873624D01*
X107826488Y-104843927D01*
X107851258Y-104839000D01*
X108028742Y-104839000D01*
X108053512Y-104843927D01*
G37*
G36*
X105513512Y-104843927D02*
G01*
X105662812Y-104873624D01*
X105826784Y-104941544D01*
X105974354Y-105040147D01*
X106099853Y-105165646D01*
X106198456Y-105313216D01*
X106266376Y-105477188D01*
X106301000Y-105651259D01*
X106301000Y-105828741D01*
X106266376Y-106002812D01*
X106198456Y-106166784D01*
X106099853Y-106314354D01*
X105974354Y-106439853D01*
X105826784Y-106538456D01*
X105662812Y-106606376D01*
X105513512Y-106636073D01*
X105488742Y-106641000D01*
X105311258Y-106641000D01*
X105286488Y-106636073D01*
X105137188Y-106606376D01*
X104973216Y-106538456D01*
X104825646Y-106439853D01*
X104700147Y-106314354D01*
X104601544Y-106166784D01*
X104533624Y-106002812D01*
X104499000Y-105828741D01*
X104499000Y-105651259D01*
X104533624Y-105477188D01*
X104601544Y-105313216D01*
X104700147Y-105165646D01*
X104825646Y-105040147D01*
X104973216Y-104941544D01*
X105137188Y-104873624D01*
X105286488Y-104843927D01*
X105311258Y-104839000D01*
X105488742Y-104839000D01*
X105513512Y-104843927D01*
G37*
G36*
X195513512Y-104843927D02*
G01*
X195662812Y-104873624D01*
X195826784Y-104941544D01*
X195974354Y-105040147D01*
X196099853Y-105165646D01*
X196198456Y-105313216D01*
X196266376Y-105477188D01*
X196301000Y-105651259D01*
X196301000Y-105828741D01*
X196266376Y-106002812D01*
X196198456Y-106166784D01*
X196099853Y-106314354D01*
X195974354Y-106439853D01*
X195826784Y-106538456D01*
X195662812Y-106606376D01*
X195513512Y-106636073D01*
X195488742Y-106641000D01*
X195311258Y-106641000D01*
X195286488Y-106636073D01*
X195137188Y-106606376D01*
X194973216Y-106538456D01*
X194825646Y-106439853D01*
X194700147Y-106314354D01*
X194601544Y-106166784D01*
X194533624Y-106002812D01*
X194499000Y-105828741D01*
X194499000Y-105651259D01*
X194533624Y-105477188D01*
X194601544Y-105313216D01*
X194700147Y-105165646D01*
X194825646Y-105040147D01*
X194973216Y-104941544D01*
X195137188Y-104873624D01*
X195286488Y-104843927D01*
X195311258Y-104839000D01*
X195488742Y-104839000D01*
X195513512Y-104843927D01*
G37*
G36*
X198053512Y-104843927D02*
G01*
X198202812Y-104873624D01*
X198366784Y-104941544D01*
X198514354Y-105040147D01*
X198639853Y-105165646D01*
X198738456Y-105313216D01*
X198806376Y-105477188D01*
X198841000Y-105651259D01*
X198841000Y-105828741D01*
X198806376Y-106002812D01*
X198738456Y-106166784D01*
X198639853Y-106314354D01*
X198514354Y-106439853D01*
X198366784Y-106538456D01*
X198202812Y-106606376D01*
X198053512Y-106636073D01*
X198028742Y-106641000D01*
X197851258Y-106641000D01*
X197826488Y-106636073D01*
X197677188Y-106606376D01*
X197513216Y-106538456D01*
X197365646Y-106439853D01*
X197240147Y-106314354D01*
X197141544Y-106166784D01*
X197073624Y-106002812D01*
X197039000Y-105828741D01*
X197039000Y-105651259D01*
X197073624Y-105477188D01*
X197141544Y-105313216D01*
X197240147Y-105165646D01*
X197365646Y-105040147D01*
X197513216Y-104941544D01*
X197677188Y-104873624D01*
X197826488Y-104843927D01*
X197851258Y-104839000D01*
X198028742Y-104839000D01*
X198053512Y-104843927D01*
G37*
G36*
X145949000Y-106172000D02*
G01*
X144287000Y-106172000D01*
X144287000Y-105420000D01*
X145949000Y-105420000D01*
X145949000Y-106172000D01*
G37*
G36*
X168809000Y-106172000D02*
G01*
X167147000Y-106172000D01*
X167147000Y-105420000D01*
X168809000Y-105420000D01*
X168809000Y-106172000D01*
G37*
G36*
X138423000Y-106172000D02*
G01*
X136761000Y-106172000D01*
X136761000Y-105420000D01*
X138423000Y-105420000D01*
X138423000Y-106172000D01*
G37*
G36*
X161189000Y-106172000D02*
G01*
X159527000Y-106172000D01*
X159527000Y-105420000D01*
X161189000Y-105420000D01*
X161189000Y-106172000D01*
G37*
G36*
X176429000Y-106172000D02*
G01*
X174767000Y-106172000D01*
X174767000Y-105420000D01*
X176429000Y-105420000D01*
X176429000Y-106172000D01*
G37*
G36*
X153569000Y-106172000D02*
G01*
X151907000Y-106172000D01*
X151907000Y-105420000D01*
X153569000Y-105420000D01*
X153569000Y-106172000D01*
G37*
G36*
X184049000Y-106106000D02*
G01*
X182387000Y-106106000D01*
X182387000Y-105354000D01*
X184049000Y-105354000D01*
X184049000Y-106106000D01*
G37*
G36*
X195513512Y-102303927D02*
G01*
X195662812Y-102333624D01*
X195826784Y-102401544D01*
X195974354Y-102500147D01*
X196099853Y-102625646D01*
X196198456Y-102773216D01*
X196266376Y-102937188D01*
X196301000Y-103111259D01*
X196301000Y-103288741D01*
X196266376Y-103462812D01*
X196198456Y-103626784D01*
X196099853Y-103774354D01*
X195974354Y-103899853D01*
X195826784Y-103998456D01*
X195662812Y-104066376D01*
X195513512Y-104096073D01*
X195488742Y-104101000D01*
X195311258Y-104101000D01*
X195286488Y-104096073D01*
X195137188Y-104066376D01*
X194973216Y-103998456D01*
X194825646Y-103899853D01*
X194700147Y-103774354D01*
X194601544Y-103626784D01*
X194533624Y-103462812D01*
X194499000Y-103288741D01*
X194499000Y-103111259D01*
X194533624Y-102937188D01*
X194601544Y-102773216D01*
X194700147Y-102625646D01*
X194825646Y-102500147D01*
X194973216Y-102401544D01*
X195137188Y-102333624D01*
X195286488Y-102303927D01*
X195311258Y-102299000D01*
X195488742Y-102299000D01*
X195513512Y-102303927D01*
G37*
G36*
X198053512Y-102303927D02*
G01*
X198202812Y-102333624D01*
X198366784Y-102401544D01*
X198514354Y-102500147D01*
X198639853Y-102625646D01*
X198738456Y-102773216D01*
X198806376Y-102937188D01*
X198841000Y-103111259D01*
X198841000Y-103288741D01*
X198806376Y-103462812D01*
X198738456Y-103626784D01*
X198639853Y-103774354D01*
X198514354Y-103899853D01*
X198366784Y-103998456D01*
X198202812Y-104066376D01*
X198053512Y-104096073D01*
X198028742Y-104101000D01*
X197851258Y-104101000D01*
X197826488Y-104096073D01*
X197677188Y-104066376D01*
X197513216Y-103998456D01*
X197365646Y-103899853D01*
X197240147Y-103774354D01*
X197141544Y-103626784D01*
X197073624Y-103462812D01*
X197039000Y-103288741D01*
X197039000Y-103111259D01*
X197073624Y-102937188D01*
X197141544Y-102773216D01*
X197240147Y-102625646D01*
X197365646Y-102500147D01*
X197513216Y-102401544D01*
X197677188Y-102333624D01*
X197826488Y-102303927D01*
X197851258Y-102299000D01*
X198028742Y-102299000D01*
X198053512Y-102303927D01*
G37*
G36*
X108053512Y-102303927D02*
G01*
X108202812Y-102333624D01*
X108366784Y-102401544D01*
X108514354Y-102500147D01*
X108639853Y-102625646D01*
X108738456Y-102773216D01*
X108806376Y-102937188D01*
X108841000Y-103111259D01*
X108841000Y-103288741D01*
X108806376Y-103462812D01*
X108738456Y-103626784D01*
X108639853Y-103774354D01*
X108514354Y-103899853D01*
X108366784Y-103998456D01*
X108202812Y-104066376D01*
X108053512Y-104096073D01*
X108028742Y-104101000D01*
X107851258Y-104101000D01*
X107826488Y-104096073D01*
X107677188Y-104066376D01*
X107513216Y-103998456D01*
X107365646Y-103899853D01*
X107240147Y-103774354D01*
X107141544Y-103626784D01*
X107073624Y-103462812D01*
X107039000Y-103288741D01*
X107039000Y-103111259D01*
X107073624Y-102937188D01*
X107141544Y-102773216D01*
X107240147Y-102625646D01*
X107365646Y-102500147D01*
X107513216Y-102401544D01*
X107677188Y-102333624D01*
X107826488Y-102303927D01*
X107851258Y-102299000D01*
X108028742Y-102299000D01*
X108053512Y-102303927D01*
G37*
G36*
X105513512Y-102303927D02*
G01*
X105662812Y-102333624D01*
X105826784Y-102401544D01*
X105974354Y-102500147D01*
X106099853Y-102625646D01*
X106198456Y-102773216D01*
X106266376Y-102937188D01*
X106301000Y-103111259D01*
X106301000Y-103288741D01*
X106266376Y-103462812D01*
X106198456Y-103626784D01*
X106099853Y-103774354D01*
X105974354Y-103899853D01*
X105826784Y-103998456D01*
X105662812Y-104066376D01*
X105513512Y-104096073D01*
X105488742Y-104101000D01*
X105311258Y-104101000D01*
X105286488Y-104096073D01*
X105137188Y-104066376D01*
X104973216Y-103998456D01*
X104825646Y-103899853D01*
X104700147Y-103774354D01*
X104601544Y-103626784D01*
X104533624Y-103462812D01*
X104499000Y-103288741D01*
X104499000Y-103111259D01*
X104533624Y-102937188D01*
X104601544Y-102773216D01*
X104700147Y-102625646D01*
X104825646Y-102500147D01*
X104973216Y-102401544D01*
X105137188Y-102333624D01*
X105286488Y-102303927D01*
X105311258Y-102299000D01*
X105488742Y-102299000D01*
X105513512Y-102303927D01*
G37*
G36*
X195513512Y-99763927D02*
G01*
X195662812Y-99793624D01*
X195826784Y-99861544D01*
X195974354Y-99960147D01*
X196099853Y-100085646D01*
X196198456Y-100233216D01*
X196266376Y-100397188D01*
X196301000Y-100571259D01*
X196301000Y-100748741D01*
X196266376Y-100922812D01*
X196198456Y-101086784D01*
X196099853Y-101234354D01*
X195974354Y-101359853D01*
X195826784Y-101458456D01*
X195662812Y-101526376D01*
X195513512Y-101556073D01*
X195488742Y-101561000D01*
X195311258Y-101561000D01*
X195286488Y-101556073D01*
X195137188Y-101526376D01*
X194973216Y-101458456D01*
X194825646Y-101359853D01*
X194700147Y-101234354D01*
X194601544Y-101086784D01*
X194533624Y-100922812D01*
X194499000Y-100748741D01*
X194499000Y-100571259D01*
X194533624Y-100397188D01*
X194601544Y-100233216D01*
X194700147Y-100085646D01*
X194825646Y-99960147D01*
X194973216Y-99861544D01*
X195137188Y-99793624D01*
X195286488Y-99763927D01*
X195311258Y-99759000D01*
X195488742Y-99759000D01*
X195513512Y-99763927D01*
G37*
G36*
X108053512Y-99763927D02*
G01*
X108202812Y-99793624D01*
X108366784Y-99861544D01*
X108514354Y-99960147D01*
X108639853Y-100085646D01*
X108738456Y-100233216D01*
X108806376Y-100397188D01*
X108841000Y-100571259D01*
X108841000Y-100748741D01*
X108806376Y-100922812D01*
X108738456Y-101086784D01*
X108639853Y-101234354D01*
X108514354Y-101359853D01*
X108366784Y-101458456D01*
X108202812Y-101526376D01*
X108053512Y-101556073D01*
X108028742Y-101561000D01*
X107851258Y-101561000D01*
X107826488Y-101556073D01*
X107677188Y-101526376D01*
X107513216Y-101458456D01*
X107365646Y-101359853D01*
X107240147Y-101234354D01*
X107141544Y-101086784D01*
X107073624Y-100922812D01*
X107039000Y-100748741D01*
X107039000Y-100571259D01*
X107073624Y-100397188D01*
X107141544Y-100233216D01*
X107240147Y-100085646D01*
X107365646Y-99960147D01*
X107513216Y-99861544D01*
X107677188Y-99793624D01*
X107826488Y-99763927D01*
X107851258Y-99759000D01*
X108028742Y-99759000D01*
X108053512Y-99763927D01*
G37*
G36*
X105513512Y-99763927D02*
G01*
X105662812Y-99793624D01*
X105826784Y-99861544D01*
X105974354Y-99960147D01*
X106099853Y-100085646D01*
X106198456Y-100233216D01*
X106266376Y-100397188D01*
X106301000Y-100571259D01*
X106301000Y-100748741D01*
X106266376Y-100922812D01*
X106198456Y-101086784D01*
X106099853Y-101234354D01*
X105974354Y-101359853D01*
X105826784Y-101458456D01*
X105662812Y-101526376D01*
X105513512Y-101556073D01*
X105488742Y-101561000D01*
X105311258Y-101561000D01*
X105286488Y-101556073D01*
X105137188Y-101526376D01*
X104973216Y-101458456D01*
X104825646Y-101359853D01*
X104700147Y-101234354D01*
X104601544Y-101086784D01*
X104533624Y-100922812D01*
X104499000Y-100748741D01*
X104499000Y-100571259D01*
X104533624Y-100397188D01*
X104601544Y-100233216D01*
X104700147Y-100085646D01*
X104825646Y-99960147D01*
X104973216Y-99861544D01*
X105137188Y-99793624D01*
X105286488Y-99763927D01*
X105311258Y-99759000D01*
X105488742Y-99759000D01*
X105513512Y-99763927D01*
G37*
G36*
X198053512Y-99763927D02*
G01*
X198202812Y-99793624D01*
X198366784Y-99861544D01*
X198514354Y-99960147D01*
X198639853Y-100085646D01*
X198738456Y-100233216D01*
X198806376Y-100397188D01*
X198841000Y-100571259D01*
X198841000Y-100748741D01*
X198806376Y-100922812D01*
X198738456Y-101086784D01*
X198639853Y-101234354D01*
X198514354Y-101359853D01*
X198366784Y-101458456D01*
X198202812Y-101526376D01*
X198053512Y-101556073D01*
X198028742Y-101561000D01*
X197851258Y-101561000D01*
X197826488Y-101556073D01*
X197677188Y-101526376D01*
X197513216Y-101458456D01*
X197365646Y-101359853D01*
X197240147Y-101234354D01*
X197141544Y-101086784D01*
X197073624Y-100922812D01*
X197039000Y-100748741D01*
X197039000Y-100571259D01*
X197073624Y-100397188D01*
X197141544Y-100233216D01*
X197240147Y-100085646D01*
X197365646Y-99960147D01*
X197513216Y-99861544D01*
X197677188Y-99793624D01*
X197826488Y-99763927D01*
X197851258Y-99759000D01*
X198028742Y-99759000D01*
X198053512Y-99763927D01*
G37*
G36*
X105513512Y-97223927D02*
G01*
X105662812Y-97253624D01*
X105826784Y-97321544D01*
X105974354Y-97420147D01*
X106099853Y-97545646D01*
X106198456Y-97693216D01*
X106266376Y-97857188D01*
X106301000Y-98031259D01*
X106301000Y-98208741D01*
X106266376Y-98382812D01*
X106198456Y-98546784D01*
X106099853Y-98694354D01*
X105974354Y-98819853D01*
X105826784Y-98918456D01*
X105662812Y-98986376D01*
X105513512Y-99016073D01*
X105488742Y-99021000D01*
X105311258Y-99021000D01*
X105286488Y-99016073D01*
X105137188Y-98986376D01*
X104973216Y-98918456D01*
X104825646Y-98819853D01*
X104700147Y-98694354D01*
X104601544Y-98546784D01*
X104533624Y-98382812D01*
X104499000Y-98208741D01*
X104499000Y-98031259D01*
X104533624Y-97857188D01*
X104601544Y-97693216D01*
X104700147Y-97545646D01*
X104825646Y-97420147D01*
X104973216Y-97321544D01*
X105137188Y-97253624D01*
X105286488Y-97223927D01*
X105311258Y-97219000D01*
X105488742Y-97219000D01*
X105513512Y-97223927D01*
G37*
G36*
X198053512Y-97223927D02*
G01*
X198202812Y-97253624D01*
X198366784Y-97321544D01*
X198514354Y-97420147D01*
X198639853Y-97545646D01*
X198738456Y-97693216D01*
X198806376Y-97857188D01*
X198841000Y-98031259D01*
X198841000Y-98208741D01*
X198806376Y-98382812D01*
X198738456Y-98546784D01*
X198639853Y-98694354D01*
X198514354Y-98819853D01*
X198366784Y-98918456D01*
X198202812Y-98986376D01*
X198053512Y-99016073D01*
X198028742Y-99021000D01*
X197851258Y-99021000D01*
X197826488Y-99016073D01*
X197677188Y-98986376D01*
X197513216Y-98918456D01*
X197365646Y-98819853D01*
X197240147Y-98694354D01*
X197141544Y-98546784D01*
X197073624Y-98382812D01*
X197039000Y-98208741D01*
X197039000Y-98031259D01*
X197073624Y-97857188D01*
X197141544Y-97693216D01*
X197240147Y-97545646D01*
X197365646Y-97420147D01*
X197513216Y-97321544D01*
X197677188Y-97253624D01*
X197826488Y-97223927D01*
X197851258Y-97219000D01*
X198028742Y-97219000D01*
X198053512Y-97223927D01*
G37*
G36*
X108053512Y-97223927D02*
G01*
X108202812Y-97253624D01*
X108366784Y-97321544D01*
X108514354Y-97420147D01*
X108639853Y-97545646D01*
X108738456Y-97693216D01*
X108806376Y-97857188D01*
X108841000Y-98031259D01*
X108841000Y-98208741D01*
X108806376Y-98382812D01*
X108738456Y-98546784D01*
X108639853Y-98694354D01*
X108514354Y-98819853D01*
X108366784Y-98918456D01*
X108202812Y-98986376D01*
X108053512Y-99016073D01*
X108028742Y-99021000D01*
X107851258Y-99021000D01*
X107826488Y-99016073D01*
X107677188Y-98986376D01*
X107513216Y-98918456D01*
X107365646Y-98819853D01*
X107240147Y-98694354D01*
X107141544Y-98546784D01*
X107073624Y-98382812D01*
X107039000Y-98208741D01*
X107039000Y-98031259D01*
X107073624Y-97857188D01*
X107141544Y-97693216D01*
X107240147Y-97545646D01*
X107365646Y-97420147D01*
X107513216Y-97321544D01*
X107677188Y-97253624D01*
X107826488Y-97223927D01*
X107851258Y-97219000D01*
X108028742Y-97219000D01*
X108053512Y-97223927D01*
G37*
G36*
X195513512Y-97223927D02*
G01*
X195662812Y-97253624D01*
X195826784Y-97321544D01*
X195974354Y-97420147D01*
X196099853Y-97545646D01*
X196198456Y-97693216D01*
X196266376Y-97857188D01*
X196301000Y-98031259D01*
X196301000Y-98208741D01*
X196266376Y-98382812D01*
X196198456Y-98546784D01*
X196099853Y-98694354D01*
X195974354Y-98819853D01*
X195826784Y-98918456D01*
X195662812Y-98986376D01*
X195513512Y-99016073D01*
X195488742Y-99021000D01*
X195311258Y-99021000D01*
X195286488Y-99016073D01*
X195137188Y-98986376D01*
X194973216Y-98918456D01*
X194825646Y-98819853D01*
X194700147Y-98694354D01*
X194601544Y-98546784D01*
X194533624Y-98382812D01*
X194499000Y-98208741D01*
X194499000Y-98031259D01*
X194533624Y-97857188D01*
X194601544Y-97693216D01*
X194700147Y-97545646D01*
X194825646Y-97420147D01*
X194973216Y-97321544D01*
X195137188Y-97253624D01*
X195286488Y-97223927D01*
X195311258Y-97219000D01*
X195488742Y-97219000D01*
X195513512Y-97223927D01*
G37*
G36*
X163816591Y-96252085D02*
G01*
X163850569Y-96262393D01*
X163881890Y-96279134D01*
X163909339Y-96301661D01*
X163931866Y-96329110D01*
X163948607Y-96360431D01*
X163958915Y-96394409D01*
X163963000Y-96435890D01*
X163963000Y-97112110D01*
X163958915Y-97153591D01*
X163948607Y-97187569D01*
X163931866Y-97218890D01*
X163909339Y-97246339D01*
X163881890Y-97268866D01*
X163850569Y-97285607D01*
X163816591Y-97295915D01*
X163775110Y-97300000D01*
X163173890Y-97300000D01*
X163132409Y-97295915D01*
X163098431Y-97285607D01*
X163067110Y-97268866D01*
X163039661Y-97246339D01*
X163017134Y-97218890D01*
X163000393Y-97187569D01*
X162990085Y-97153591D01*
X162986000Y-97112110D01*
X162986000Y-96435890D01*
X162990085Y-96394409D01*
X163000393Y-96360431D01*
X163017134Y-96329110D01*
X163039661Y-96301661D01*
X163067110Y-96279134D01*
X163098431Y-96262393D01*
X163132409Y-96252085D01*
X163173890Y-96248000D01*
X163775110Y-96248000D01*
X163816591Y-96252085D01*
G37*
G36*
X165391591Y-96252085D02*
G01*
X165425569Y-96262393D01*
X165456890Y-96279134D01*
X165484339Y-96301661D01*
X165506866Y-96329110D01*
X165523607Y-96360431D01*
X165533915Y-96394409D01*
X165538000Y-96435890D01*
X165538000Y-97112110D01*
X165533915Y-97153591D01*
X165523607Y-97187569D01*
X165506866Y-97218890D01*
X165484339Y-97246339D01*
X165456890Y-97268866D01*
X165425569Y-97285607D01*
X165391591Y-97295915D01*
X165350110Y-97300000D01*
X164748890Y-97300000D01*
X164707409Y-97295915D01*
X164673431Y-97285607D01*
X164642110Y-97268866D01*
X164614661Y-97246339D01*
X164592134Y-97218890D01*
X164575393Y-97187569D01*
X164565085Y-97153591D01*
X164561000Y-97112110D01*
X164561000Y-96435890D01*
X164565085Y-96394409D01*
X164575393Y-96360431D01*
X164592134Y-96329110D01*
X164614661Y-96301661D01*
X164642110Y-96279134D01*
X164673431Y-96262393D01*
X164707409Y-96252085D01*
X164748890Y-96248000D01*
X165350110Y-96248000D01*
X165391591Y-96252085D01*
G37*
G36*
X108053512Y-94683927D02*
G01*
X108202812Y-94713624D01*
X108366784Y-94781544D01*
X108514354Y-94880147D01*
X108639853Y-95005646D01*
X108738456Y-95153216D01*
X108806376Y-95317188D01*
X108841000Y-95491259D01*
X108841000Y-95668741D01*
X108806376Y-95842812D01*
X108738456Y-96006784D01*
X108639853Y-96154354D01*
X108514354Y-96279853D01*
X108366784Y-96378456D01*
X108202812Y-96446376D01*
X108053512Y-96476073D01*
X108028742Y-96481000D01*
X107851258Y-96481000D01*
X107826488Y-96476073D01*
X107677188Y-96446376D01*
X107513216Y-96378456D01*
X107365646Y-96279853D01*
X107240147Y-96154354D01*
X107141544Y-96006784D01*
X107073624Y-95842812D01*
X107039000Y-95668741D01*
X107039000Y-95491259D01*
X107073624Y-95317188D01*
X107141544Y-95153216D01*
X107240147Y-95005646D01*
X107365646Y-94880147D01*
X107513216Y-94781544D01*
X107677188Y-94713624D01*
X107826488Y-94683927D01*
X107851258Y-94679000D01*
X108028742Y-94679000D01*
X108053512Y-94683927D01*
G37*
G36*
X105513512Y-94683927D02*
G01*
X105662812Y-94713624D01*
X105826784Y-94781544D01*
X105974354Y-94880147D01*
X106099853Y-95005646D01*
X106198456Y-95153216D01*
X106266376Y-95317188D01*
X106301000Y-95491259D01*
X106301000Y-95668741D01*
X106266376Y-95842812D01*
X106198456Y-96006784D01*
X106099853Y-96154354D01*
X105974354Y-96279853D01*
X105826784Y-96378456D01*
X105662812Y-96446376D01*
X105513512Y-96476073D01*
X105488742Y-96481000D01*
X105311258Y-96481000D01*
X105286488Y-96476073D01*
X105137188Y-96446376D01*
X104973216Y-96378456D01*
X104825646Y-96279853D01*
X104700147Y-96154354D01*
X104601544Y-96006784D01*
X104533624Y-95842812D01*
X104499000Y-95668741D01*
X104499000Y-95491259D01*
X104533624Y-95317188D01*
X104601544Y-95153216D01*
X104700147Y-95005646D01*
X104825646Y-94880147D01*
X104973216Y-94781544D01*
X105137188Y-94713624D01*
X105286488Y-94683927D01*
X105311258Y-94679000D01*
X105488742Y-94679000D01*
X105513512Y-94683927D01*
G37*
G36*
X195513512Y-94683927D02*
G01*
X195662812Y-94713624D01*
X195826784Y-94781544D01*
X195974354Y-94880147D01*
X196099853Y-95005646D01*
X196198456Y-95153216D01*
X196266376Y-95317188D01*
X196301000Y-95491259D01*
X196301000Y-95668741D01*
X196266376Y-95842812D01*
X196198456Y-96006784D01*
X196099853Y-96154354D01*
X195974354Y-96279853D01*
X195826784Y-96378456D01*
X195662812Y-96446376D01*
X195513512Y-96476073D01*
X195488742Y-96481000D01*
X195311258Y-96481000D01*
X195286488Y-96476073D01*
X195137188Y-96446376D01*
X194973216Y-96378456D01*
X194825646Y-96279853D01*
X194700147Y-96154354D01*
X194601544Y-96006784D01*
X194533624Y-95842812D01*
X194499000Y-95668741D01*
X194499000Y-95491259D01*
X194533624Y-95317188D01*
X194601544Y-95153216D01*
X194700147Y-95005646D01*
X194825646Y-94880147D01*
X194973216Y-94781544D01*
X195137188Y-94713624D01*
X195286488Y-94683927D01*
X195311258Y-94679000D01*
X195488742Y-94679000D01*
X195513512Y-94683927D01*
G37*
G36*
X198053512Y-94683927D02*
G01*
X198202812Y-94713624D01*
X198366784Y-94781544D01*
X198514354Y-94880147D01*
X198639853Y-95005646D01*
X198738456Y-95153216D01*
X198806376Y-95317188D01*
X198841000Y-95491259D01*
X198841000Y-95668741D01*
X198806376Y-95842812D01*
X198738456Y-96006784D01*
X198639853Y-96154354D01*
X198514354Y-96279853D01*
X198366784Y-96378456D01*
X198202812Y-96446376D01*
X198053512Y-96476073D01*
X198028742Y-96481000D01*
X197851258Y-96481000D01*
X197826488Y-96476073D01*
X197677188Y-96446376D01*
X197513216Y-96378456D01*
X197365646Y-96279853D01*
X197240147Y-96154354D01*
X197141544Y-96006784D01*
X197073624Y-95842812D01*
X197039000Y-95668741D01*
X197039000Y-95491259D01*
X197073624Y-95317188D01*
X197141544Y-95153216D01*
X197240147Y-95005646D01*
X197365646Y-94880147D01*
X197513216Y-94781544D01*
X197677188Y-94713624D01*
X197826488Y-94683927D01*
X197851258Y-94679000D01*
X198028742Y-94679000D01*
X198053512Y-94683927D01*
G37*
G36*
X153453591Y-95236085D02*
G01*
X153487569Y-95246393D01*
X153518890Y-95263134D01*
X153546339Y-95285661D01*
X153568866Y-95313110D01*
X153585607Y-95344431D01*
X153595915Y-95378409D01*
X153600000Y-95419890D01*
X153600000Y-96096110D01*
X153595915Y-96137591D01*
X153585607Y-96171569D01*
X153568866Y-96202890D01*
X153546339Y-96230339D01*
X153518890Y-96252866D01*
X153487569Y-96269607D01*
X153453591Y-96279915D01*
X153412110Y-96284000D01*
X152810890Y-96284000D01*
X152769409Y-96279915D01*
X152735431Y-96269607D01*
X152704110Y-96252866D01*
X152676661Y-96230339D01*
X152654134Y-96202890D01*
X152637393Y-96171569D01*
X152627085Y-96137591D01*
X152623000Y-96096110D01*
X152623000Y-95419890D01*
X152627085Y-95378409D01*
X152637393Y-95344431D01*
X152654134Y-95313110D01*
X152676661Y-95285661D01*
X152704110Y-95263134D01*
X152735431Y-95246393D01*
X152769409Y-95236085D01*
X152810890Y-95232000D01*
X153412110Y-95232000D01*
X153453591Y-95236085D01*
G37*
G36*
X134073091Y-95236085D02*
G01*
X134107069Y-95246393D01*
X134138390Y-95263134D01*
X134165839Y-95285661D01*
X134188366Y-95313110D01*
X134205107Y-95344431D01*
X134215415Y-95378409D01*
X134219500Y-95419890D01*
X134219500Y-96096110D01*
X134215415Y-96137591D01*
X134205107Y-96171569D01*
X134188366Y-96202890D01*
X134165839Y-96230339D01*
X134138390Y-96252866D01*
X134107069Y-96269607D01*
X134073091Y-96279915D01*
X134031610Y-96284000D01*
X133430390Y-96284000D01*
X133388909Y-96279915D01*
X133354931Y-96269607D01*
X133323610Y-96252866D01*
X133296161Y-96230339D01*
X133273634Y-96202890D01*
X133256893Y-96171569D01*
X133246585Y-96137591D01*
X133242500Y-96096110D01*
X133242500Y-95419890D01*
X133246585Y-95378409D01*
X133256893Y-95344431D01*
X133273634Y-95313110D01*
X133296161Y-95285661D01*
X133323610Y-95263134D01*
X133354931Y-95246393D01*
X133388909Y-95236085D01*
X133430390Y-95232000D01*
X134031610Y-95232000D01*
X134073091Y-95236085D01*
G37*
G36*
X135648091Y-95236085D02*
G01*
X135682069Y-95246393D01*
X135713390Y-95263134D01*
X135740839Y-95285661D01*
X135763366Y-95313110D01*
X135780107Y-95344431D01*
X135790415Y-95378409D01*
X135794500Y-95419890D01*
X135794500Y-96096110D01*
X135790415Y-96137591D01*
X135780107Y-96171569D01*
X135763366Y-96202890D01*
X135740839Y-96230339D01*
X135713390Y-96252866D01*
X135682069Y-96269607D01*
X135648091Y-96279915D01*
X135606610Y-96284000D01*
X135005390Y-96284000D01*
X134963909Y-96279915D01*
X134929931Y-96269607D01*
X134898610Y-96252866D01*
X134871161Y-96230339D01*
X134848634Y-96202890D01*
X134831893Y-96171569D01*
X134821585Y-96137591D01*
X134817500Y-96096110D01*
X134817500Y-95419890D01*
X134821585Y-95378409D01*
X134831893Y-95344431D01*
X134848634Y-95313110D01*
X134871161Y-95285661D01*
X134898610Y-95263134D01*
X134929931Y-95246393D01*
X134963909Y-95236085D01*
X135005390Y-95232000D01*
X135606610Y-95232000D01*
X135648091Y-95236085D01*
G37*
G36*
X151878591Y-95236085D02*
G01*
X151912569Y-95246393D01*
X151943890Y-95263134D01*
X151971339Y-95285661D01*
X151993866Y-95313110D01*
X152010607Y-95344431D01*
X152020915Y-95378409D01*
X152025000Y-95419890D01*
X152025000Y-96096110D01*
X152020915Y-96137591D01*
X152010607Y-96171569D01*
X151993866Y-96202890D01*
X151971339Y-96230339D01*
X151943890Y-96252866D01*
X151912569Y-96269607D01*
X151878591Y-96279915D01*
X151837110Y-96284000D01*
X151235890Y-96284000D01*
X151194409Y-96279915D01*
X151160431Y-96269607D01*
X151129110Y-96252866D01*
X151101661Y-96230339D01*
X151079134Y-96202890D01*
X151062393Y-96171569D01*
X151052085Y-96137591D01*
X151048000Y-96096110D01*
X151048000Y-95419890D01*
X151052085Y-95378409D01*
X151062393Y-95344431D01*
X151079134Y-95313110D01*
X151101661Y-95285661D01*
X151129110Y-95263134D01*
X151160431Y-95246393D01*
X151194409Y-95236085D01*
X151235890Y-95232000D01*
X151837110Y-95232000D01*
X151878591Y-95236085D01*
G37*
G36*
X169721591Y-94791085D02*
G01*
X169755569Y-94801393D01*
X169786890Y-94818134D01*
X169814339Y-94840661D01*
X169836866Y-94868110D01*
X169853607Y-94899431D01*
X169863915Y-94933409D01*
X169868000Y-94974890D01*
X169868000Y-95576110D01*
X169863915Y-95617591D01*
X169853607Y-95651569D01*
X169836866Y-95682890D01*
X169814339Y-95710339D01*
X169786890Y-95732866D01*
X169755569Y-95749607D01*
X169721591Y-95759915D01*
X169680110Y-95764000D01*
X169003890Y-95764000D01*
X168962409Y-95759915D01*
X168928431Y-95749607D01*
X168897110Y-95732866D01*
X168869661Y-95710339D01*
X168847134Y-95682890D01*
X168830393Y-95651569D01*
X168820085Y-95617591D01*
X168816000Y-95576110D01*
X168816000Y-94974890D01*
X168820085Y-94933409D01*
X168830393Y-94899431D01*
X168847134Y-94868110D01*
X168869661Y-94840661D01*
X168897110Y-94818134D01*
X168928431Y-94801393D01*
X168962409Y-94791085D01*
X169003890Y-94787000D01*
X169680110Y-94787000D01*
X169721591Y-94791085D01*
G37*
G36*
X149891928Y-94774764D02*
G01*
X149913009Y-94781160D01*
X149932445Y-94791548D01*
X149949476Y-94805524D01*
X149963452Y-94822555D01*
X149973840Y-94841991D01*
X149980236Y-94863072D01*
X149983000Y-94891140D01*
X149983000Y-95354860D01*
X149980236Y-95382928D01*
X149973840Y-95404009D01*
X149963452Y-95423445D01*
X149949476Y-95440476D01*
X149932445Y-95454452D01*
X149913009Y-95464840D01*
X149891928Y-95471236D01*
X149863860Y-95474000D01*
X148250140Y-95474000D01*
X148222072Y-95471236D01*
X148200991Y-95464840D01*
X148181555Y-95454452D01*
X148164524Y-95440476D01*
X148150548Y-95423445D01*
X148140160Y-95404009D01*
X148133764Y-95382928D01*
X148131000Y-95354860D01*
X148131000Y-94891140D01*
X148133764Y-94863072D01*
X148140160Y-94841991D01*
X148150548Y-94822555D01*
X148164524Y-94805524D01*
X148181555Y-94791548D01*
X148200991Y-94781160D01*
X148222072Y-94774764D01*
X148250140Y-94772000D01*
X149863860Y-94772000D01*
X149891928Y-94774764D01*
G37*
G36*
X144741928Y-94774764D02*
G01*
X144763009Y-94781160D01*
X144782445Y-94791548D01*
X144799476Y-94805524D01*
X144813452Y-94822555D01*
X144823840Y-94841991D01*
X144830236Y-94863072D01*
X144833000Y-94891140D01*
X144833000Y-95354860D01*
X144830236Y-95382928D01*
X144823840Y-95404009D01*
X144813452Y-95423445D01*
X144799476Y-95440476D01*
X144782445Y-95454452D01*
X144763009Y-95464840D01*
X144741928Y-95471236D01*
X144713860Y-95474000D01*
X143100140Y-95474000D01*
X143072072Y-95471236D01*
X143050991Y-95464840D01*
X143031555Y-95454452D01*
X143014524Y-95440476D01*
X143000548Y-95423445D01*
X142990160Y-95404009D01*
X142983764Y-95382928D01*
X142981000Y-95354860D01*
X142981000Y-94891140D01*
X142983764Y-94863072D01*
X142990160Y-94841991D01*
X143000548Y-94822555D01*
X143014524Y-94805524D01*
X143031555Y-94791548D01*
X143050991Y-94781160D01*
X143072072Y-94774764D01*
X143100140Y-94772000D01*
X144713860Y-94772000D01*
X144741928Y-94774764D01*
G37*
G36*
X132111928Y-94774764D02*
G01*
X132133009Y-94781160D01*
X132152445Y-94791548D01*
X132169476Y-94805524D01*
X132183452Y-94822555D01*
X132193840Y-94841991D01*
X132200236Y-94863072D01*
X132203000Y-94891140D01*
X132203000Y-95354860D01*
X132200236Y-95382928D01*
X132193840Y-95404009D01*
X132183452Y-95423445D01*
X132169476Y-95440476D01*
X132152445Y-95454452D01*
X132133009Y-95464840D01*
X132111928Y-95471236D01*
X132083860Y-95474000D01*
X130470140Y-95474000D01*
X130442072Y-95471236D01*
X130420991Y-95464840D01*
X130401555Y-95454452D01*
X130384524Y-95440476D01*
X130370548Y-95423445D01*
X130360160Y-95404009D01*
X130353764Y-95382928D01*
X130351000Y-95354860D01*
X130351000Y-94891140D01*
X130353764Y-94863072D01*
X130360160Y-94841991D01*
X130370548Y-94822555D01*
X130384524Y-94805524D01*
X130401555Y-94791548D01*
X130420991Y-94781160D01*
X130442072Y-94774764D01*
X130470140Y-94772000D01*
X132083860Y-94772000D01*
X132111928Y-94774764D01*
G37*
G36*
X126961928Y-94774764D02*
G01*
X126983009Y-94781160D01*
X127002445Y-94791548D01*
X127019476Y-94805524D01*
X127033452Y-94822555D01*
X127043840Y-94841991D01*
X127050236Y-94863072D01*
X127053000Y-94891140D01*
X127053000Y-95354860D01*
X127050236Y-95382928D01*
X127043840Y-95404009D01*
X127033452Y-95423445D01*
X127019476Y-95440476D01*
X127002445Y-95454452D01*
X126983009Y-95464840D01*
X126961928Y-95471236D01*
X126933860Y-95474000D01*
X125320140Y-95474000D01*
X125292072Y-95471236D01*
X125270991Y-95464840D01*
X125251555Y-95454452D01*
X125234524Y-95440476D01*
X125220548Y-95423445D01*
X125210160Y-95404009D01*
X125203764Y-95382928D01*
X125201000Y-95354860D01*
X125201000Y-94891140D01*
X125203764Y-94863072D01*
X125210160Y-94841991D01*
X125220548Y-94822555D01*
X125234524Y-94805524D01*
X125251555Y-94791548D01*
X125270991Y-94781160D01*
X125292072Y-94774764D01*
X125320140Y-94772000D01*
X126933860Y-94772000D01*
X126961928Y-94774764D01*
G37*
G36*
X167671928Y-94647764D02*
G01*
X167693009Y-94654160D01*
X167712445Y-94664548D01*
X167729476Y-94678524D01*
X167743452Y-94695555D01*
X167753840Y-94714991D01*
X167760236Y-94736072D01*
X167763000Y-94764140D01*
X167763000Y-95227860D01*
X167760236Y-95255928D01*
X167753840Y-95277009D01*
X167743452Y-95296445D01*
X167729476Y-95313476D01*
X167712445Y-95327452D01*
X167693009Y-95337840D01*
X167671928Y-95344236D01*
X167643860Y-95347000D01*
X166030140Y-95347000D01*
X166002072Y-95344236D01*
X165980991Y-95337840D01*
X165961555Y-95327452D01*
X165944524Y-95313476D01*
X165930548Y-95296445D01*
X165920160Y-95277009D01*
X165913764Y-95255928D01*
X165911000Y-95227860D01*
X165911000Y-94764140D01*
X165913764Y-94736072D01*
X165920160Y-94714991D01*
X165930548Y-94695555D01*
X165944524Y-94678524D01*
X165961555Y-94664548D01*
X165980991Y-94654160D01*
X166002072Y-94647764D01*
X166030140Y-94645000D01*
X167643860Y-94645000D01*
X167671928Y-94647764D01*
G37*
G36*
X162521928Y-94647764D02*
G01*
X162543009Y-94654160D01*
X162562445Y-94664548D01*
X162579476Y-94678524D01*
X162593452Y-94695555D01*
X162603840Y-94714991D01*
X162610236Y-94736072D01*
X162613000Y-94764140D01*
X162613000Y-95227860D01*
X162610236Y-95255928D01*
X162603840Y-95277009D01*
X162593452Y-95296445D01*
X162579476Y-95313476D01*
X162562445Y-95327452D01*
X162543009Y-95337840D01*
X162521928Y-95344236D01*
X162493860Y-95347000D01*
X160880140Y-95347000D01*
X160852072Y-95344236D01*
X160830991Y-95337840D01*
X160811555Y-95327452D01*
X160794524Y-95313476D01*
X160780548Y-95296445D01*
X160770160Y-95277009D01*
X160763764Y-95255928D01*
X160761000Y-95227860D01*
X160761000Y-94764140D01*
X160763764Y-94736072D01*
X160770160Y-94714991D01*
X160780548Y-94695555D01*
X160794524Y-94678524D01*
X160811555Y-94664548D01*
X160830991Y-94654160D01*
X160852072Y-94647764D01*
X160880140Y-94645000D01*
X162493860Y-94645000D01*
X162521928Y-94647764D01*
G37*
G36*
X153453591Y-93458085D02*
G01*
X153487569Y-93468393D01*
X153518890Y-93485134D01*
X153546339Y-93507661D01*
X153568866Y-93535110D01*
X153585607Y-93566431D01*
X153595915Y-93600409D01*
X153600000Y-93641890D01*
X153600000Y-94318110D01*
X153595915Y-94359591D01*
X153585607Y-94393569D01*
X153568866Y-94424890D01*
X153546339Y-94452339D01*
X153518890Y-94474866D01*
X153487569Y-94491607D01*
X153453591Y-94501915D01*
X153412110Y-94506000D01*
X152810890Y-94506000D01*
X152769409Y-94501915D01*
X152735431Y-94491607D01*
X152704110Y-94474866D01*
X152676661Y-94452339D01*
X152654134Y-94424890D01*
X152637393Y-94393569D01*
X152627085Y-94359591D01*
X152623000Y-94318110D01*
X152623000Y-93641890D01*
X152627085Y-93600409D01*
X152637393Y-93566431D01*
X152654134Y-93535110D01*
X152676661Y-93507661D01*
X152704110Y-93485134D01*
X152735431Y-93468393D01*
X152769409Y-93458085D01*
X152810890Y-93454000D01*
X153412110Y-93454000D01*
X153453591Y-93458085D01*
G37*
G36*
X134098591Y-93458085D02*
G01*
X134132569Y-93468393D01*
X134163890Y-93485134D01*
X134191339Y-93507661D01*
X134213866Y-93535110D01*
X134230607Y-93566431D01*
X134240915Y-93600409D01*
X134245000Y-93641890D01*
X134245000Y-94318110D01*
X134240915Y-94359591D01*
X134230607Y-94393569D01*
X134213866Y-94424890D01*
X134191339Y-94452339D01*
X134163890Y-94474866D01*
X134132569Y-94491607D01*
X134098591Y-94501915D01*
X134057110Y-94506000D01*
X133455890Y-94506000D01*
X133414409Y-94501915D01*
X133380431Y-94491607D01*
X133349110Y-94474866D01*
X133321661Y-94452339D01*
X133299134Y-94424890D01*
X133282393Y-94393569D01*
X133272085Y-94359591D01*
X133268000Y-94318110D01*
X133268000Y-93641890D01*
X133272085Y-93600409D01*
X133282393Y-93566431D01*
X133299134Y-93535110D01*
X133321661Y-93507661D01*
X133349110Y-93485134D01*
X133380431Y-93468393D01*
X133414409Y-93458085D01*
X133455890Y-93454000D01*
X134057110Y-93454000D01*
X134098591Y-93458085D01*
G37*
G36*
X135673591Y-93458085D02*
G01*
X135707569Y-93468393D01*
X135738890Y-93485134D01*
X135766339Y-93507661D01*
X135788866Y-93535110D01*
X135805607Y-93566431D01*
X135815915Y-93600409D01*
X135820000Y-93641890D01*
X135820000Y-94318110D01*
X135815915Y-94359591D01*
X135805607Y-94393569D01*
X135788866Y-94424890D01*
X135766339Y-94452339D01*
X135738890Y-94474866D01*
X135707569Y-94491607D01*
X135673591Y-94501915D01*
X135632110Y-94506000D01*
X135030890Y-94506000D01*
X134989409Y-94501915D01*
X134955431Y-94491607D01*
X134924110Y-94474866D01*
X134896661Y-94452339D01*
X134874134Y-94424890D01*
X134857393Y-94393569D01*
X134847085Y-94359591D01*
X134843000Y-94318110D01*
X134843000Y-93641890D01*
X134847085Y-93600409D01*
X134857393Y-93566431D01*
X134874134Y-93535110D01*
X134896661Y-93507661D01*
X134924110Y-93485134D01*
X134955431Y-93468393D01*
X134989409Y-93458085D01*
X135030890Y-93454000D01*
X135632110Y-93454000D01*
X135673591Y-93458085D01*
G37*
G36*
X151878591Y-93458085D02*
G01*
X151912569Y-93468393D01*
X151943890Y-93485134D01*
X151971339Y-93507661D01*
X151993866Y-93535110D01*
X152010607Y-93566431D01*
X152020915Y-93600409D01*
X152025000Y-93641890D01*
X152025000Y-94318110D01*
X152020915Y-94359591D01*
X152010607Y-94393569D01*
X151993866Y-94424890D01*
X151971339Y-94452339D01*
X151943890Y-94474866D01*
X151912569Y-94491607D01*
X151878591Y-94501915D01*
X151837110Y-94506000D01*
X151235890Y-94506000D01*
X151194409Y-94501915D01*
X151160431Y-94491607D01*
X151129110Y-94474866D01*
X151101661Y-94452339D01*
X151079134Y-94424890D01*
X151062393Y-94393569D01*
X151052085Y-94359591D01*
X151048000Y-94318110D01*
X151048000Y-93641890D01*
X151052085Y-93600409D01*
X151062393Y-93566431D01*
X151079134Y-93535110D01*
X151101661Y-93507661D01*
X151129110Y-93485134D01*
X151160431Y-93468393D01*
X151194409Y-93458085D01*
X151235890Y-93454000D01*
X151837110Y-93454000D01*
X151878591Y-93458085D01*
G37*
G36*
X144741928Y-93504764D02*
G01*
X144763009Y-93511160D01*
X144782445Y-93521548D01*
X144799476Y-93535524D01*
X144813452Y-93552555D01*
X144823840Y-93571991D01*
X144830236Y-93593072D01*
X144833000Y-93621140D01*
X144833000Y-94084860D01*
X144830236Y-94112928D01*
X144823840Y-94134009D01*
X144813452Y-94153445D01*
X144799476Y-94170476D01*
X144782445Y-94184452D01*
X144763009Y-94194840D01*
X144741928Y-94201236D01*
X144713860Y-94204000D01*
X143100140Y-94204000D01*
X143072072Y-94201236D01*
X143050991Y-94194840D01*
X143031555Y-94184452D01*
X143014524Y-94170476D01*
X143000548Y-94153445D01*
X142990160Y-94134009D01*
X142983764Y-94112928D01*
X142981000Y-94084860D01*
X142981000Y-93621140D01*
X142983764Y-93593072D01*
X142990160Y-93571991D01*
X143000548Y-93552555D01*
X143014524Y-93535524D01*
X143031555Y-93521548D01*
X143050991Y-93511160D01*
X143072072Y-93504764D01*
X143100140Y-93502000D01*
X144713860Y-93502000D01*
X144741928Y-93504764D01*
G37*
G36*
X149891928Y-93504764D02*
G01*
X149913009Y-93511160D01*
X149932445Y-93521548D01*
X149949476Y-93535524D01*
X149963452Y-93552555D01*
X149973840Y-93571991D01*
X149980236Y-93593072D01*
X149983000Y-93621140D01*
X149983000Y-94084860D01*
X149980236Y-94112928D01*
X149973840Y-94134009D01*
X149963452Y-94153445D01*
X149949476Y-94170476D01*
X149932445Y-94184452D01*
X149913009Y-94194840D01*
X149891928Y-94201236D01*
X149863860Y-94204000D01*
X148250140Y-94204000D01*
X148222072Y-94201236D01*
X148200991Y-94194840D01*
X148181555Y-94184452D01*
X148164524Y-94170476D01*
X148150548Y-94153445D01*
X148140160Y-94134009D01*
X148133764Y-94112928D01*
X148131000Y-94084860D01*
X148131000Y-93621140D01*
X148133764Y-93593072D01*
X148140160Y-93571991D01*
X148150548Y-93552555D01*
X148164524Y-93535524D01*
X148181555Y-93521548D01*
X148200991Y-93511160D01*
X148222072Y-93504764D01*
X148250140Y-93502000D01*
X149863860Y-93502000D01*
X149891928Y-93504764D01*
G37*
G36*
X132111928Y-93504764D02*
G01*
X132133009Y-93511160D01*
X132152445Y-93521548D01*
X132169476Y-93535524D01*
X132183452Y-93552555D01*
X132193840Y-93571991D01*
X132200236Y-93593072D01*
X132203000Y-93621140D01*
X132203000Y-94084860D01*
X132200236Y-94112928D01*
X132193840Y-94134009D01*
X132183452Y-94153445D01*
X132169476Y-94170476D01*
X132152445Y-94184452D01*
X132133009Y-94194840D01*
X132111928Y-94201236D01*
X132083860Y-94204000D01*
X130470140Y-94204000D01*
X130442072Y-94201236D01*
X130420991Y-94194840D01*
X130401555Y-94184452D01*
X130384524Y-94170476D01*
X130370548Y-94153445D01*
X130360160Y-94134009D01*
X130353764Y-94112928D01*
X130351000Y-94084860D01*
X130351000Y-93621140D01*
X130353764Y-93593072D01*
X130360160Y-93571991D01*
X130370548Y-93552555D01*
X130384524Y-93535524D01*
X130401555Y-93521548D01*
X130420991Y-93511160D01*
X130442072Y-93504764D01*
X130470140Y-93502000D01*
X132083860Y-93502000D01*
X132111928Y-93504764D01*
G37*
G36*
X126961928Y-93504764D02*
G01*
X126983009Y-93511160D01*
X127002445Y-93521548D01*
X127019476Y-93535524D01*
X127033452Y-93552555D01*
X127043840Y-93571991D01*
X127050236Y-93593072D01*
X127053000Y-93621140D01*
X127053000Y-94084860D01*
X127050236Y-94112928D01*
X127043840Y-94134009D01*
X127033452Y-94153445D01*
X127019476Y-94170476D01*
X127002445Y-94184452D01*
X126983009Y-94194840D01*
X126961928Y-94201236D01*
X126933860Y-94204000D01*
X125320140Y-94204000D01*
X125292072Y-94201236D01*
X125270991Y-94194840D01*
X125251555Y-94184452D01*
X125234524Y-94170476D01*
X125220548Y-94153445D01*
X125210160Y-94134009D01*
X125203764Y-94112928D01*
X125201000Y-94084860D01*
X125201000Y-93621140D01*
X125203764Y-93593072D01*
X125210160Y-93571991D01*
X125220548Y-93552555D01*
X125234524Y-93535524D01*
X125251555Y-93521548D01*
X125270991Y-93511160D01*
X125292072Y-93504764D01*
X125320140Y-93502000D01*
X126933860Y-93502000D01*
X126961928Y-93504764D01*
G37*
G36*
X169721591Y-93216085D02*
G01*
X169755569Y-93226393D01*
X169786890Y-93243134D01*
X169814339Y-93265661D01*
X169836866Y-93293110D01*
X169853607Y-93324431D01*
X169863915Y-93358409D01*
X169868000Y-93399890D01*
X169868000Y-94001110D01*
X169863915Y-94042591D01*
X169853607Y-94076569D01*
X169836866Y-94107890D01*
X169814339Y-94135339D01*
X169786890Y-94157866D01*
X169755569Y-94174607D01*
X169721591Y-94184915D01*
X169680110Y-94189000D01*
X169003890Y-94189000D01*
X168962409Y-94184915D01*
X168928431Y-94174607D01*
X168897110Y-94157866D01*
X168869661Y-94135339D01*
X168847134Y-94107890D01*
X168830393Y-94076569D01*
X168820085Y-94042591D01*
X168816000Y-94001110D01*
X168816000Y-93399890D01*
X168820085Y-93358409D01*
X168830393Y-93324431D01*
X168847134Y-93293110D01*
X168869661Y-93265661D01*
X168897110Y-93243134D01*
X168928431Y-93226393D01*
X168962409Y-93216085D01*
X169003890Y-93212000D01*
X169680110Y-93212000D01*
X169721591Y-93216085D01*
G37*
G36*
X167671928Y-93377764D02*
G01*
X167693009Y-93384160D01*
X167712445Y-93394548D01*
X167729476Y-93408524D01*
X167743452Y-93425555D01*
X167753840Y-93444991D01*
X167760236Y-93466072D01*
X167763000Y-93494140D01*
X167763000Y-93957860D01*
X167760236Y-93985928D01*
X167753840Y-94007009D01*
X167743452Y-94026445D01*
X167729476Y-94043476D01*
X167712445Y-94057452D01*
X167693009Y-94067840D01*
X167671928Y-94074236D01*
X167643860Y-94077000D01*
X166030140Y-94077000D01*
X166002072Y-94074236D01*
X165980991Y-94067840D01*
X165961555Y-94057452D01*
X165944524Y-94043476D01*
X165930548Y-94026445D01*
X165920160Y-94007009D01*
X165913764Y-93985928D01*
X165911000Y-93957860D01*
X165911000Y-93494140D01*
X165913764Y-93466072D01*
X165920160Y-93444991D01*
X165930548Y-93425555D01*
X165944524Y-93408524D01*
X165961555Y-93394548D01*
X165980991Y-93384160D01*
X166002072Y-93377764D01*
X166030140Y-93375000D01*
X167643860Y-93375000D01*
X167671928Y-93377764D01*
G37*
G36*
X162521928Y-93377764D02*
G01*
X162543009Y-93384160D01*
X162562445Y-93394548D01*
X162579476Y-93408524D01*
X162593452Y-93425555D01*
X162603840Y-93444991D01*
X162610236Y-93466072D01*
X162613000Y-93494140D01*
X162613000Y-93957860D01*
X162610236Y-93985928D01*
X162603840Y-94007009D01*
X162593452Y-94026445D01*
X162579476Y-94043476D01*
X162562445Y-94057452D01*
X162543009Y-94067840D01*
X162521928Y-94074236D01*
X162493860Y-94077000D01*
X160880140Y-94077000D01*
X160852072Y-94074236D01*
X160830991Y-94067840D01*
X160811555Y-94057452D01*
X160794524Y-94043476D01*
X160780548Y-94026445D01*
X160770160Y-94007009D01*
X160763764Y-93985928D01*
X160761000Y-93957860D01*
X160761000Y-93494140D01*
X160763764Y-93466072D01*
X160770160Y-93444991D01*
X160780548Y-93425555D01*
X160794524Y-93408524D01*
X160811555Y-93394548D01*
X160830991Y-93384160D01*
X160852072Y-93377764D01*
X160880140Y-93375000D01*
X162493860Y-93375000D01*
X162521928Y-93377764D01*
G37*
G36*
X195513512Y-92143927D02*
G01*
X195662812Y-92173624D01*
X195826784Y-92241544D01*
X195974354Y-92340147D01*
X196099853Y-92465646D01*
X196198456Y-92613216D01*
X196266376Y-92777188D01*
X196301000Y-92951259D01*
X196301000Y-93128741D01*
X196266376Y-93302812D01*
X196198456Y-93466784D01*
X196099853Y-93614354D01*
X195974354Y-93739853D01*
X195826784Y-93838456D01*
X195662812Y-93906376D01*
X195513512Y-93936073D01*
X195488742Y-93941000D01*
X195311258Y-93941000D01*
X195286488Y-93936073D01*
X195137188Y-93906376D01*
X194973216Y-93838456D01*
X194825646Y-93739853D01*
X194700147Y-93614354D01*
X194601544Y-93466784D01*
X194533624Y-93302812D01*
X194499000Y-93128741D01*
X194499000Y-92951259D01*
X194533624Y-92777188D01*
X194601544Y-92613216D01*
X194700147Y-92465646D01*
X194825646Y-92340147D01*
X194973216Y-92241544D01*
X195137188Y-92173624D01*
X195286488Y-92143927D01*
X195311258Y-92139000D01*
X195488742Y-92139000D01*
X195513512Y-92143927D01*
G37*
G36*
X105513512Y-92143927D02*
G01*
X105662812Y-92173624D01*
X105826784Y-92241544D01*
X105974354Y-92340147D01*
X106099853Y-92465646D01*
X106198456Y-92613216D01*
X106266376Y-92777188D01*
X106301000Y-92951259D01*
X106301000Y-93128741D01*
X106266376Y-93302812D01*
X106198456Y-93466784D01*
X106099853Y-93614354D01*
X105974354Y-93739853D01*
X105826784Y-93838456D01*
X105662812Y-93906376D01*
X105513512Y-93936073D01*
X105488742Y-93941000D01*
X105311258Y-93941000D01*
X105286488Y-93936073D01*
X105137188Y-93906376D01*
X104973216Y-93838456D01*
X104825646Y-93739853D01*
X104700147Y-93614354D01*
X104601544Y-93466784D01*
X104533624Y-93302812D01*
X104499000Y-93128741D01*
X104499000Y-92951259D01*
X104533624Y-92777188D01*
X104601544Y-92613216D01*
X104700147Y-92465646D01*
X104825646Y-92340147D01*
X104973216Y-92241544D01*
X105137188Y-92173624D01*
X105286488Y-92143927D01*
X105311258Y-92139000D01*
X105488742Y-92139000D01*
X105513512Y-92143927D01*
G37*
G36*
X108053512Y-92143927D02*
G01*
X108202812Y-92173624D01*
X108366784Y-92241544D01*
X108514354Y-92340147D01*
X108639853Y-92465646D01*
X108738456Y-92613216D01*
X108806376Y-92777188D01*
X108841000Y-92951259D01*
X108841000Y-93128741D01*
X108806376Y-93302812D01*
X108738456Y-93466784D01*
X108639853Y-93614354D01*
X108514354Y-93739853D01*
X108366784Y-93838456D01*
X108202812Y-93906376D01*
X108053512Y-93936073D01*
X108028742Y-93941000D01*
X107851258Y-93941000D01*
X107826488Y-93936073D01*
X107677188Y-93906376D01*
X107513216Y-93838456D01*
X107365646Y-93739853D01*
X107240147Y-93614354D01*
X107141544Y-93466784D01*
X107073624Y-93302812D01*
X107039000Y-93128741D01*
X107039000Y-92951259D01*
X107073624Y-92777188D01*
X107141544Y-92613216D01*
X107240147Y-92465646D01*
X107365646Y-92340147D01*
X107513216Y-92241544D01*
X107677188Y-92173624D01*
X107826488Y-92143927D01*
X107851258Y-92139000D01*
X108028742Y-92139000D01*
X108053512Y-92143927D01*
G37*
G36*
X198053512Y-92143927D02*
G01*
X198202812Y-92173624D01*
X198366784Y-92241544D01*
X198514354Y-92340147D01*
X198639853Y-92465646D01*
X198738456Y-92613216D01*
X198806376Y-92777188D01*
X198841000Y-92951259D01*
X198841000Y-93128741D01*
X198806376Y-93302812D01*
X198738456Y-93466784D01*
X198639853Y-93614354D01*
X198514354Y-93739853D01*
X198366784Y-93838456D01*
X198202812Y-93906376D01*
X198053512Y-93936073D01*
X198028742Y-93941000D01*
X197851258Y-93941000D01*
X197826488Y-93936073D01*
X197677188Y-93906376D01*
X197513216Y-93838456D01*
X197365646Y-93739853D01*
X197240147Y-93614354D01*
X197141544Y-93466784D01*
X197073624Y-93302812D01*
X197039000Y-93128741D01*
X197039000Y-92951259D01*
X197073624Y-92777188D01*
X197141544Y-92613216D01*
X197240147Y-92465646D01*
X197365646Y-92340147D01*
X197513216Y-92241544D01*
X197677188Y-92173624D01*
X197826488Y-92143927D01*
X197851258Y-92139000D01*
X198028742Y-92139000D01*
X198053512Y-92143927D01*
G37*
G36*
X149891928Y-92234764D02*
G01*
X149913009Y-92241160D01*
X149932445Y-92251548D01*
X149949476Y-92265524D01*
X149963452Y-92282555D01*
X149973840Y-92301991D01*
X149980236Y-92323072D01*
X149983000Y-92351140D01*
X149983000Y-92814860D01*
X149980236Y-92842928D01*
X149973840Y-92864009D01*
X149963452Y-92883445D01*
X149949476Y-92900476D01*
X149932445Y-92914452D01*
X149913009Y-92924840D01*
X149891928Y-92931236D01*
X149863860Y-92934000D01*
X148250140Y-92934000D01*
X148222072Y-92931236D01*
X148200991Y-92924840D01*
X148181555Y-92914452D01*
X148164524Y-92900476D01*
X148150548Y-92883445D01*
X148140160Y-92864009D01*
X148133764Y-92842928D01*
X148131000Y-92814860D01*
X148131000Y-92351140D01*
X148133764Y-92323072D01*
X148140160Y-92301991D01*
X148150548Y-92282555D01*
X148164524Y-92265524D01*
X148181555Y-92251548D01*
X148200991Y-92241160D01*
X148222072Y-92234764D01*
X148250140Y-92232000D01*
X149863860Y-92232000D01*
X149891928Y-92234764D01*
G37*
G36*
X144741928Y-92234764D02*
G01*
X144763009Y-92241160D01*
X144782445Y-92251548D01*
X144799476Y-92265524D01*
X144813452Y-92282555D01*
X144823840Y-92301991D01*
X144830236Y-92323072D01*
X144833000Y-92351140D01*
X144833000Y-92814860D01*
X144830236Y-92842928D01*
X144823840Y-92864009D01*
X144813452Y-92883445D01*
X144799476Y-92900476D01*
X144782445Y-92914452D01*
X144763009Y-92924840D01*
X144741928Y-92931236D01*
X144713860Y-92934000D01*
X143100140Y-92934000D01*
X143072072Y-92931236D01*
X143050991Y-92924840D01*
X143031555Y-92914452D01*
X143014524Y-92900476D01*
X143000548Y-92883445D01*
X142990160Y-92864009D01*
X142983764Y-92842928D01*
X142981000Y-92814860D01*
X142981000Y-92351140D01*
X142983764Y-92323072D01*
X142990160Y-92301991D01*
X143000548Y-92282555D01*
X143014524Y-92265524D01*
X143031555Y-92251548D01*
X143050991Y-92241160D01*
X143072072Y-92234764D01*
X143100140Y-92232000D01*
X144713860Y-92232000D01*
X144741928Y-92234764D01*
G37*
G36*
X132111928Y-92234764D02*
G01*
X132133009Y-92241160D01*
X132152445Y-92251548D01*
X132169476Y-92265524D01*
X132183452Y-92282555D01*
X132193840Y-92301991D01*
X132200236Y-92323072D01*
X132203000Y-92351140D01*
X132203000Y-92814860D01*
X132200236Y-92842928D01*
X132193840Y-92864009D01*
X132183452Y-92883445D01*
X132169476Y-92900476D01*
X132152445Y-92914452D01*
X132133009Y-92924840D01*
X132111928Y-92931236D01*
X132083860Y-92934000D01*
X130470140Y-92934000D01*
X130442072Y-92931236D01*
X130420991Y-92924840D01*
X130401555Y-92914452D01*
X130384524Y-92900476D01*
X130370548Y-92883445D01*
X130360160Y-92864009D01*
X130353764Y-92842928D01*
X130351000Y-92814860D01*
X130351000Y-92351140D01*
X130353764Y-92323072D01*
X130360160Y-92301991D01*
X130370548Y-92282555D01*
X130384524Y-92265524D01*
X130401555Y-92251548D01*
X130420991Y-92241160D01*
X130442072Y-92234764D01*
X130470140Y-92232000D01*
X132083860Y-92232000D01*
X132111928Y-92234764D01*
G37*
G36*
X126961928Y-92234764D02*
G01*
X126983009Y-92241160D01*
X127002445Y-92251548D01*
X127019476Y-92265524D01*
X127033452Y-92282555D01*
X127043840Y-92301991D01*
X127050236Y-92323072D01*
X127053000Y-92351140D01*
X127053000Y-92814860D01*
X127050236Y-92842928D01*
X127043840Y-92864009D01*
X127033452Y-92883445D01*
X127019476Y-92900476D01*
X127002445Y-92914452D01*
X126983009Y-92924840D01*
X126961928Y-92931236D01*
X126933860Y-92934000D01*
X125320140Y-92934000D01*
X125292072Y-92931236D01*
X125270991Y-92924840D01*
X125251555Y-92914452D01*
X125234524Y-92900476D01*
X125220548Y-92883445D01*
X125210160Y-92864009D01*
X125203764Y-92842928D01*
X125201000Y-92814860D01*
X125201000Y-92351140D01*
X125203764Y-92323072D01*
X125210160Y-92301991D01*
X125220548Y-92282555D01*
X125234524Y-92265524D01*
X125251555Y-92251548D01*
X125270991Y-92241160D01*
X125292072Y-92234764D01*
X125320140Y-92232000D01*
X126933860Y-92232000D01*
X126961928Y-92234764D01*
G37*
G36*
X162521928Y-92107764D02*
G01*
X162543009Y-92114160D01*
X162562445Y-92124548D01*
X162579476Y-92138524D01*
X162593452Y-92155555D01*
X162603840Y-92174991D01*
X162610236Y-92196072D01*
X162613000Y-92224140D01*
X162613000Y-92687860D01*
X162610236Y-92715928D01*
X162603840Y-92737009D01*
X162593452Y-92756445D01*
X162579476Y-92773476D01*
X162562445Y-92787452D01*
X162543009Y-92797840D01*
X162521928Y-92804236D01*
X162493860Y-92807000D01*
X160880140Y-92807000D01*
X160852072Y-92804236D01*
X160830991Y-92797840D01*
X160811555Y-92787452D01*
X160794524Y-92773476D01*
X160780548Y-92756445D01*
X160770160Y-92737009D01*
X160763764Y-92715928D01*
X160761000Y-92687860D01*
X160761000Y-92224140D01*
X160763764Y-92196072D01*
X160770160Y-92174991D01*
X160780548Y-92155555D01*
X160794524Y-92138524D01*
X160811555Y-92124548D01*
X160830991Y-92114160D01*
X160852072Y-92107764D01*
X160880140Y-92105000D01*
X162493860Y-92105000D01*
X162521928Y-92107764D01*
G37*
G36*
X167671928Y-92107764D02*
G01*
X167693009Y-92114160D01*
X167712445Y-92124548D01*
X167729476Y-92138524D01*
X167743452Y-92155555D01*
X167753840Y-92174991D01*
X167760236Y-92196072D01*
X167763000Y-92224140D01*
X167763000Y-92687860D01*
X167760236Y-92715928D01*
X167753840Y-92737009D01*
X167743452Y-92756445D01*
X167729476Y-92773476D01*
X167712445Y-92787452D01*
X167693009Y-92797840D01*
X167671928Y-92804236D01*
X167643860Y-92807000D01*
X166030140Y-92807000D01*
X166002072Y-92804236D01*
X165980991Y-92797840D01*
X165961555Y-92787452D01*
X165944524Y-92773476D01*
X165930548Y-92756445D01*
X165920160Y-92737009D01*
X165913764Y-92715928D01*
X165911000Y-92687860D01*
X165911000Y-92224140D01*
X165913764Y-92196072D01*
X165920160Y-92174991D01*
X165930548Y-92155555D01*
X165944524Y-92138524D01*
X165961555Y-92124548D01*
X165980991Y-92114160D01*
X166002072Y-92107764D01*
X166030140Y-92105000D01*
X167643860Y-92105000D01*
X167671928Y-92107764D01*
G37*
G36*
X134098591Y-91680085D02*
G01*
X134132569Y-91690393D01*
X134163890Y-91707134D01*
X134191339Y-91729661D01*
X134213866Y-91757110D01*
X134230607Y-91788431D01*
X134240915Y-91822409D01*
X134245000Y-91863890D01*
X134245000Y-92540110D01*
X134240915Y-92581591D01*
X134230607Y-92615569D01*
X134213866Y-92646890D01*
X134191339Y-92674339D01*
X134163890Y-92696866D01*
X134132569Y-92713607D01*
X134098591Y-92723915D01*
X134057110Y-92728000D01*
X133455890Y-92728000D01*
X133414409Y-92723915D01*
X133380431Y-92713607D01*
X133349110Y-92696866D01*
X133321661Y-92674339D01*
X133299134Y-92646890D01*
X133282393Y-92615569D01*
X133272085Y-92581591D01*
X133268000Y-92540110D01*
X133268000Y-91863890D01*
X133272085Y-91822409D01*
X133282393Y-91788431D01*
X133299134Y-91757110D01*
X133321661Y-91729661D01*
X133349110Y-91707134D01*
X133380431Y-91690393D01*
X133414409Y-91680085D01*
X133455890Y-91676000D01*
X134057110Y-91676000D01*
X134098591Y-91680085D01*
G37*
G36*
X135673591Y-91680085D02*
G01*
X135707569Y-91690393D01*
X135738890Y-91707134D01*
X135766339Y-91729661D01*
X135788866Y-91757110D01*
X135805607Y-91788431D01*
X135815915Y-91822409D01*
X135820000Y-91863890D01*
X135820000Y-92540110D01*
X135815915Y-92581591D01*
X135805607Y-92615569D01*
X135788866Y-92646890D01*
X135766339Y-92674339D01*
X135738890Y-92696866D01*
X135707569Y-92713607D01*
X135673591Y-92723915D01*
X135632110Y-92728000D01*
X135030890Y-92728000D01*
X134989409Y-92723915D01*
X134955431Y-92713607D01*
X134924110Y-92696866D01*
X134896661Y-92674339D01*
X134874134Y-92646890D01*
X134857393Y-92615569D01*
X134847085Y-92581591D01*
X134843000Y-92540110D01*
X134843000Y-91863890D01*
X134847085Y-91822409D01*
X134857393Y-91788431D01*
X134874134Y-91757110D01*
X134896661Y-91729661D01*
X134924110Y-91707134D01*
X134955431Y-91690393D01*
X134989409Y-91680085D01*
X135030890Y-91676000D01*
X135632110Y-91676000D01*
X135673591Y-91680085D01*
G37*
G36*
X151853091Y-91680085D02*
G01*
X151887069Y-91690393D01*
X151918390Y-91707134D01*
X151945839Y-91729661D01*
X151968366Y-91757110D01*
X151985107Y-91788431D01*
X151995415Y-91822409D01*
X151999500Y-91863890D01*
X151999500Y-92540110D01*
X151995415Y-92581591D01*
X151985107Y-92615569D01*
X151968366Y-92646890D01*
X151945839Y-92674339D01*
X151918390Y-92696866D01*
X151887069Y-92713607D01*
X151853091Y-92723915D01*
X151811610Y-92728000D01*
X151210390Y-92728000D01*
X151168909Y-92723915D01*
X151134931Y-92713607D01*
X151103610Y-92696866D01*
X151076161Y-92674339D01*
X151053634Y-92646890D01*
X151036893Y-92615569D01*
X151026585Y-92581591D01*
X151022500Y-92540110D01*
X151022500Y-91863890D01*
X151026585Y-91822409D01*
X151036893Y-91788431D01*
X151053634Y-91757110D01*
X151076161Y-91729661D01*
X151103610Y-91707134D01*
X151134931Y-91690393D01*
X151168909Y-91680085D01*
X151210390Y-91676000D01*
X151811610Y-91676000D01*
X151853091Y-91680085D01*
G37*
G36*
X153428091Y-91680085D02*
G01*
X153462069Y-91690393D01*
X153493390Y-91707134D01*
X153520839Y-91729661D01*
X153543366Y-91757110D01*
X153560107Y-91788431D01*
X153570415Y-91822409D01*
X153574500Y-91863890D01*
X153574500Y-92540110D01*
X153570415Y-92581591D01*
X153560107Y-92615569D01*
X153543366Y-92646890D01*
X153520839Y-92674339D01*
X153493390Y-92696866D01*
X153462069Y-92713607D01*
X153428091Y-92723915D01*
X153386610Y-92728000D01*
X152785390Y-92728000D01*
X152743909Y-92723915D01*
X152709931Y-92713607D01*
X152678610Y-92696866D01*
X152651161Y-92674339D01*
X152628634Y-92646890D01*
X152611893Y-92615569D01*
X152601585Y-92581591D01*
X152597500Y-92540110D01*
X152597500Y-91863890D01*
X152601585Y-91822409D01*
X152611893Y-91788431D01*
X152628634Y-91757110D01*
X152651161Y-91729661D01*
X152678610Y-91707134D01*
X152709931Y-91690393D01*
X152743909Y-91680085D01*
X152785390Y-91676000D01*
X153386610Y-91676000D01*
X153428091Y-91680085D01*
G37*
G36*
X126961928Y-90964764D02*
G01*
X126983009Y-90971160D01*
X127002445Y-90981548D01*
X127019476Y-90995524D01*
X127033452Y-91012555D01*
X127043840Y-91031991D01*
X127050236Y-91053072D01*
X127053000Y-91081140D01*
X127053000Y-91544860D01*
X127050236Y-91572928D01*
X127043840Y-91594009D01*
X127033452Y-91613445D01*
X127019476Y-91630476D01*
X127002445Y-91644452D01*
X126983009Y-91654840D01*
X126961928Y-91661236D01*
X126933860Y-91664000D01*
X125320140Y-91664000D01*
X125292072Y-91661236D01*
X125270991Y-91654840D01*
X125251555Y-91644452D01*
X125234524Y-91630476D01*
X125220548Y-91613445D01*
X125210160Y-91594009D01*
X125203764Y-91572928D01*
X125201000Y-91544860D01*
X125201000Y-91081140D01*
X125203764Y-91053072D01*
X125210160Y-91031991D01*
X125220548Y-91012555D01*
X125234524Y-90995524D01*
X125251555Y-90981548D01*
X125270991Y-90971160D01*
X125292072Y-90964764D01*
X125320140Y-90962000D01*
X126933860Y-90962000D01*
X126961928Y-90964764D01*
G37*
G36*
X149891928Y-90964764D02*
G01*
X149913009Y-90971160D01*
X149932445Y-90981548D01*
X149949476Y-90995524D01*
X149963452Y-91012555D01*
X149973840Y-91031991D01*
X149980236Y-91053072D01*
X149983000Y-91081140D01*
X149983000Y-91544860D01*
X149980236Y-91572928D01*
X149973840Y-91594009D01*
X149963452Y-91613445D01*
X149949476Y-91630476D01*
X149932445Y-91644452D01*
X149913009Y-91654840D01*
X149891928Y-91661236D01*
X149863860Y-91664000D01*
X148250140Y-91664000D01*
X148222072Y-91661236D01*
X148200991Y-91654840D01*
X148181555Y-91644452D01*
X148164524Y-91630476D01*
X148150548Y-91613445D01*
X148140160Y-91594009D01*
X148133764Y-91572928D01*
X148131000Y-91544860D01*
X148131000Y-91081140D01*
X148133764Y-91053072D01*
X148140160Y-91031991D01*
X148150548Y-91012555D01*
X148164524Y-90995524D01*
X148181555Y-90981548D01*
X148200991Y-90971160D01*
X148222072Y-90964764D01*
X148250140Y-90962000D01*
X149863860Y-90962000D01*
X149891928Y-90964764D01*
G37*
G36*
X144741928Y-90964764D02*
G01*
X144763009Y-90971160D01*
X144782445Y-90981548D01*
X144799476Y-90995524D01*
X144813452Y-91012555D01*
X144823840Y-91031991D01*
X144830236Y-91053072D01*
X144833000Y-91081140D01*
X144833000Y-91544860D01*
X144830236Y-91572928D01*
X144823840Y-91594009D01*
X144813452Y-91613445D01*
X144799476Y-91630476D01*
X144782445Y-91644452D01*
X144763009Y-91654840D01*
X144741928Y-91661236D01*
X144713860Y-91664000D01*
X143100140Y-91664000D01*
X143072072Y-91661236D01*
X143050991Y-91654840D01*
X143031555Y-91644452D01*
X143014524Y-91630476D01*
X143000548Y-91613445D01*
X142990160Y-91594009D01*
X142983764Y-91572928D01*
X142981000Y-91544860D01*
X142981000Y-91081140D01*
X142983764Y-91053072D01*
X142990160Y-91031991D01*
X143000548Y-91012555D01*
X143014524Y-90995524D01*
X143031555Y-90981548D01*
X143050991Y-90971160D01*
X143072072Y-90964764D01*
X143100140Y-90962000D01*
X144713860Y-90962000D01*
X144741928Y-90964764D01*
G37*
G36*
X132111928Y-90964764D02*
G01*
X132133009Y-90971160D01*
X132152445Y-90981548D01*
X132169476Y-90995524D01*
X132183452Y-91012555D01*
X132193840Y-91031991D01*
X132200236Y-91053072D01*
X132203000Y-91081140D01*
X132203000Y-91544860D01*
X132200236Y-91572928D01*
X132193840Y-91594009D01*
X132183452Y-91613445D01*
X132169476Y-91630476D01*
X132152445Y-91644452D01*
X132133009Y-91654840D01*
X132111928Y-91661236D01*
X132083860Y-91664000D01*
X130470140Y-91664000D01*
X130442072Y-91661236D01*
X130420991Y-91654840D01*
X130401555Y-91644452D01*
X130384524Y-91630476D01*
X130370548Y-91613445D01*
X130360160Y-91594009D01*
X130353764Y-91572928D01*
X130351000Y-91544860D01*
X130351000Y-91081140D01*
X130353764Y-91053072D01*
X130360160Y-91031991D01*
X130370548Y-91012555D01*
X130384524Y-90995524D01*
X130401555Y-90981548D01*
X130420991Y-90971160D01*
X130442072Y-90964764D01*
X130470140Y-90962000D01*
X132083860Y-90962000D01*
X132111928Y-90964764D01*
G37*
G36*
X167671928Y-90837764D02*
G01*
X167693009Y-90844160D01*
X167712445Y-90854548D01*
X167729476Y-90868524D01*
X167743452Y-90885555D01*
X167753840Y-90904991D01*
X167760236Y-90926072D01*
X167763000Y-90954140D01*
X167763000Y-91417860D01*
X167760236Y-91445928D01*
X167753840Y-91467009D01*
X167743452Y-91486445D01*
X167729476Y-91503476D01*
X167712445Y-91517452D01*
X167693009Y-91527840D01*
X167671928Y-91534236D01*
X167643860Y-91537000D01*
X166030140Y-91537000D01*
X166002072Y-91534236D01*
X165980991Y-91527840D01*
X165961555Y-91517452D01*
X165944524Y-91503476D01*
X165930548Y-91486445D01*
X165920160Y-91467009D01*
X165913764Y-91445928D01*
X165911000Y-91417860D01*
X165911000Y-90954140D01*
X165913764Y-90926072D01*
X165920160Y-90904991D01*
X165930548Y-90885555D01*
X165944524Y-90868524D01*
X165961555Y-90854548D01*
X165980991Y-90844160D01*
X166002072Y-90837764D01*
X166030140Y-90835000D01*
X167643860Y-90835000D01*
X167671928Y-90837764D01*
G37*
G36*
X162521928Y-90837764D02*
G01*
X162543009Y-90844160D01*
X162562445Y-90854548D01*
X162579476Y-90868524D01*
X162593452Y-90885555D01*
X162603840Y-90904991D01*
X162610236Y-90926072D01*
X162613000Y-90954140D01*
X162613000Y-91417860D01*
X162610236Y-91445928D01*
X162603840Y-91467009D01*
X162593452Y-91486445D01*
X162579476Y-91503476D01*
X162562445Y-91517452D01*
X162543009Y-91527840D01*
X162521928Y-91534236D01*
X162493860Y-91537000D01*
X160880140Y-91537000D01*
X160852072Y-91534236D01*
X160830991Y-91527840D01*
X160811555Y-91517452D01*
X160794524Y-91503476D01*
X160780548Y-91486445D01*
X160770160Y-91467009D01*
X160763764Y-91445928D01*
X160761000Y-91417860D01*
X160761000Y-90954140D01*
X160763764Y-90926072D01*
X160770160Y-90904991D01*
X160780548Y-90885555D01*
X160794524Y-90868524D01*
X160811555Y-90854548D01*
X160830991Y-90844160D01*
X160852072Y-90837764D01*
X160880140Y-90835000D01*
X162493860Y-90835000D01*
X162521928Y-90837764D01*
G37*
G36*
X196301000Y-91401000D02*
G01*
X194499000Y-91401000D01*
X194499000Y-89599000D01*
X196301000Y-89599000D01*
X196301000Y-91401000D01*
G37*
G36*
X106301000Y-91401000D02*
G01*
X104499000Y-91401000D01*
X104499000Y-89599000D01*
X106301000Y-89599000D01*
X106301000Y-91401000D01*
G37*
G36*
X108053512Y-89603927D02*
G01*
X108202812Y-89633624D01*
X108366784Y-89701544D01*
X108514354Y-89800147D01*
X108639853Y-89925646D01*
X108738456Y-90073216D01*
X108806376Y-90237188D01*
X108833937Y-90375750D01*
X108841000Y-90411258D01*
X108841000Y-90588742D01*
X108837645Y-90605607D01*
X108806376Y-90762812D01*
X108738456Y-90926784D01*
X108639853Y-91074354D01*
X108514354Y-91199853D01*
X108366784Y-91298456D01*
X108202812Y-91366376D01*
X108053512Y-91396073D01*
X108028742Y-91401000D01*
X107851258Y-91401000D01*
X107826488Y-91396073D01*
X107677188Y-91366376D01*
X107513216Y-91298456D01*
X107365646Y-91199853D01*
X107240147Y-91074354D01*
X107141544Y-90926784D01*
X107073624Y-90762812D01*
X107042355Y-90605607D01*
X107039000Y-90588742D01*
X107039000Y-90411258D01*
X107046063Y-90375750D01*
X107073624Y-90237188D01*
X107141544Y-90073216D01*
X107240147Y-89925646D01*
X107365646Y-89800147D01*
X107513216Y-89701544D01*
X107677188Y-89633624D01*
X107826488Y-89603927D01*
X107851258Y-89599000D01*
X108028742Y-89599000D01*
X108053512Y-89603927D01*
G37*
G36*
X198053512Y-89603927D02*
G01*
X198202812Y-89633624D01*
X198366784Y-89701544D01*
X198514354Y-89800147D01*
X198639853Y-89925646D01*
X198738456Y-90073216D01*
X198806376Y-90237188D01*
X198833937Y-90375750D01*
X198841000Y-90411258D01*
X198841000Y-90588742D01*
X198837645Y-90605607D01*
X198806376Y-90762812D01*
X198738456Y-90926784D01*
X198639853Y-91074354D01*
X198514354Y-91199853D01*
X198366784Y-91298456D01*
X198202812Y-91366376D01*
X198053512Y-91396073D01*
X198028742Y-91401000D01*
X197851258Y-91401000D01*
X197826488Y-91396073D01*
X197677188Y-91366376D01*
X197513216Y-91298456D01*
X197365646Y-91199853D01*
X197240147Y-91074354D01*
X197141544Y-90926784D01*
X197073624Y-90762812D01*
X197042355Y-90605607D01*
X197039000Y-90588742D01*
X197039000Y-90411258D01*
X197046063Y-90375750D01*
X197073624Y-90237188D01*
X197141544Y-90073216D01*
X197240147Y-89925646D01*
X197365646Y-89800147D01*
X197513216Y-89701544D01*
X197677188Y-89633624D01*
X197826488Y-89603927D01*
X197851258Y-89599000D01*
X198028742Y-89599000D01*
X198053512Y-89603927D01*
G37*
G36*
X118426591Y-89572085D02*
G01*
X118460569Y-89582393D01*
X118491890Y-89599134D01*
X118519339Y-89621661D01*
X118541866Y-89649110D01*
X118558607Y-89680431D01*
X118568915Y-89714409D01*
X118573000Y-89755890D01*
X118573000Y-90432110D01*
X118568915Y-90473591D01*
X118558607Y-90507569D01*
X118541866Y-90538890D01*
X118519339Y-90566339D01*
X118491890Y-90588866D01*
X118460569Y-90605607D01*
X118426591Y-90615915D01*
X118385110Y-90620000D01*
X117783890Y-90620000D01*
X117742409Y-90615915D01*
X117708431Y-90605607D01*
X117677110Y-90588866D01*
X117649661Y-90566339D01*
X117627134Y-90538890D01*
X117610393Y-90507569D01*
X117600085Y-90473591D01*
X117596000Y-90432110D01*
X117596000Y-89755890D01*
X117600085Y-89714409D01*
X117610393Y-89680431D01*
X117627134Y-89649110D01*
X117649661Y-89621661D01*
X117677110Y-89599134D01*
X117708431Y-89582393D01*
X117742409Y-89572085D01*
X117783890Y-89568000D01*
X118385110Y-89568000D01*
X118426591Y-89572085D01*
G37*
G36*
X120001591Y-89572085D02*
G01*
X120035569Y-89582393D01*
X120066890Y-89599134D01*
X120094339Y-89621661D01*
X120116866Y-89649110D01*
X120133607Y-89680431D01*
X120143915Y-89714409D01*
X120148000Y-89755890D01*
X120148000Y-90432110D01*
X120143915Y-90473591D01*
X120133607Y-90507569D01*
X120116866Y-90538890D01*
X120094339Y-90566339D01*
X120066890Y-90588866D01*
X120035569Y-90605607D01*
X120001591Y-90615915D01*
X119960110Y-90620000D01*
X119358890Y-90620000D01*
X119317409Y-90615915D01*
X119283431Y-90605607D01*
X119252110Y-90588866D01*
X119224661Y-90566339D01*
X119202134Y-90538890D01*
X119185393Y-90507569D01*
X119175085Y-90473591D01*
X119171000Y-90432110D01*
X119171000Y-89755890D01*
X119175085Y-89714409D01*
X119185393Y-89680431D01*
X119202134Y-89649110D01*
X119224661Y-89621661D01*
X119252110Y-89599134D01*
X119283431Y-89582393D01*
X119317409Y-89572085D01*
X119358890Y-89568000D01*
X119960110Y-89568000D01*
X120001591Y-89572085D01*
G37*
G36*
X163791091Y-88886085D02*
G01*
X163825069Y-88896393D01*
X163856390Y-88913134D01*
X163883839Y-88935661D01*
X163906366Y-88963110D01*
X163923107Y-88994431D01*
X163933415Y-89028409D01*
X163937500Y-89069890D01*
X163937500Y-89746110D01*
X163933415Y-89787591D01*
X163923107Y-89821569D01*
X163906366Y-89852890D01*
X163883839Y-89880339D01*
X163856390Y-89902866D01*
X163825069Y-89919607D01*
X163791091Y-89929915D01*
X163749610Y-89934000D01*
X163148390Y-89934000D01*
X163106909Y-89929915D01*
X163072931Y-89919607D01*
X163041610Y-89902866D01*
X163014161Y-89880339D01*
X162991634Y-89852890D01*
X162974893Y-89821569D01*
X162964585Y-89787591D01*
X162960500Y-89746110D01*
X162960500Y-89069890D01*
X162964585Y-89028409D01*
X162974893Y-88994431D01*
X162991634Y-88963110D01*
X163014161Y-88935661D01*
X163041610Y-88913134D01*
X163072931Y-88896393D01*
X163106909Y-88886085D01*
X163148390Y-88882000D01*
X163749610Y-88882000D01*
X163791091Y-88886085D01*
G37*
G36*
X128231091Y-88886085D02*
G01*
X128265069Y-88896393D01*
X128296390Y-88913134D01*
X128323839Y-88935661D01*
X128346366Y-88963110D01*
X128363107Y-88994431D01*
X128373415Y-89028409D01*
X128377500Y-89069890D01*
X128377500Y-89746110D01*
X128373415Y-89787591D01*
X128363107Y-89821569D01*
X128346366Y-89852890D01*
X128323839Y-89880339D01*
X128296390Y-89902866D01*
X128265069Y-89919607D01*
X128231091Y-89929915D01*
X128189610Y-89934000D01*
X127588390Y-89934000D01*
X127546909Y-89929915D01*
X127512931Y-89919607D01*
X127481610Y-89902866D01*
X127454161Y-89880339D01*
X127431634Y-89852890D01*
X127414893Y-89821569D01*
X127404585Y-89787591D01*
X127400500Y-89746110D01*
X127400500Y-89069890D01*
X127404585Y-89028409D01*
X127414893Y-88994431D01*
X127431634Y-88963110D01*
X127454161Y-88935661D01*
X127481610Y-88913134D01*
X127512931Y-88896393D01*
X127546909Y-88886085D01*
X127588390Y-88882000D01*
X128189610Y-88882000D01*
X128231091Y-88886085D01*
G37*
G36*
X129806091Y-88886085D02*
G01*
X129840069Y-88896393D01*
X129871390Y-88913134D01*
X129898839Y-88935661D01*
X129921366Y-88963110D01*
X129938107Y-88994431D01*
X129948415Y-89028409D01*
X129952500Y-89069890D01*
X129952500Y-89746110D01*
X129948415Y-89787591D01*
X129938107Y-89821569D01*
X129921366Y-89852890D01*
X129898839Y-89880339D01*
X129871390Y-89902866D01*
X129840069Y-89919607D01*
X129806091Y-89929915D01*
X129764610Y-89934000D01*
X129163390Y-89934000D01*
X129121909Y-89929915D01*
X129087931Y-89919607D01*
X129056610Y-89902866D01*
X129029161Y-89880339D01*
X129006634Y-89852890D01*
X128989893Y-89821569D01*
X128979585Y-89787591D01*
X128975500Y-89746110D01*
X128975500Y-89069890D01*
X128979585Y-89028409D01*
X128989893Y-88994431D01*
X129006634Y-88963110D01*
X129029161Y-88935661D01*
X129056610Y-88913134D01*
X129087931Y-88896393D01*
X129121909Y-88886085D01*
X129163390Y-88882000D01*
X129764610Y-88882000D01*
X129806091Y-88886085D01*
G37*
G36*
X165366091Y-88886085D02*
G01*
X165400069Y-88896393D01*
X165431390Y-88913134D01*
X165458839Y-88935661D01*
X165481366Y-88963110D01*
X165498107Y-88994431D01*
X165508415Y-89028409D01*
X165512500Y-89069890D01*
X165512500Y-89746110D01*
X165508415Y-89787591D01*
X165498107Y-89821569D01*
X165481366Y-89852890D01*
X165458839Y-89880339D01*
X165431390Y-89902866D01*
X165400069Y-89919607D01*
X165366091Y-89929915D01*
X165324610Y-89934000D01*
X164723390Y-89934000D01*
X164681909Y-89929915D01*
X164647931Y-89919607D01*
X164616610Y-89902866D01*
X164589161Y-89880339D01*
X164566634Y-89852890D01*
X164549893Y-89821569D01*
X164539585Y-89787591D01*
X164535500Y-89746110D01*
X164535500Y-89069890D01*
X164539585Y-89028409D01*
X164549893Y-88994431D01*
X164566634Y-88963110D01*
X164589161Y-88935661D01*
X164616610Y-88913134D01*
X164647931Y-88896393D01*
X164681909Y-88886085D01*
X164723390Y-88882000D01*
X165324610Y-88882000D01*
X165366091Y-88886085D01*
G37*
G36*
X147332091Y-88886085D02*
G01*
X147366069Y-88896393D01*
X147397390Y-88913134D01*
X147424839Y-88935661D01*
X147447366Y-88963110D01*
X147464107Y-88994431D01*
X147474415Y-89028409D01*
X147478500Y-89069890D01*
X147478500Y-89746110D01*
X147474415Y-89787591D01*
X147464107Y-89821569D01*
X147447366Y-89852890D01*
X147424839Y-89880339D01*
X147397390Y-89902866D01*
X147366069Y-89919607D01*
X147332091Y-89929915D01*
X147290610Y-89934000D01*
X146689390Y-89934000D01*
X146647909Y-89929915D01*
X146613931Y-89919607D01*
X146582610Y-89902866D01*
X146555161Y-89880339D01*
X146532634Y-89852890D01*
X146515893Y-89821569D01*
X146505585Y-89787591D01*
X146501500Y-89746110D01*
X146501500Y-89069890D01*
X146505585Y-89028409D01*
X146515893Y-88994431D01*
X146532634Y-88963110D01*
X146555161Y-88935661D01*
X146582610Y-88913134D01*
X146613931Y-88896393D01*
X146647909Y-88886085D01*
X146689390Y-88882000D01*
X147290610Y-88882000D01*
X147332091Y-88886085D01*
G37*
G36*
X148907091Y-88886085D02*
G01*
X148941069Y-88896393D01*
X148972390Y-88913134D01*
X148999839Y-88935661D01*
X149022366Y-88963110D01*
X149039107Y-88994431D01*
X149049415Y-89028409D01*
X149053500Y-89069890D01*
X149053500Y-89746110D01*
X149049415Y-89787591D01*
X149039107Y-89821569D01*
X149022366Y-89852890D01*
X148999839Y-89880339D01*
X148972390Y-89902866D01*
X148941069Y-89919607D01*
X148907091Y-89929915D01*
X148865610Y-89934000D01*
X148264390Y-89934000D01*
X148222909Y-89929915D01*
X148188931Y-89919607D01*
X148157610Y-89902866D01*
X148130161Y-89880339D01*
X148107634Y-89852890D01*
X148090893Y-89821569D01*
X148080585Y-89787591D01*
X148076500Y-89746110D01*
X148076500Y-89069890D01*
X148080585Y-89028409D01*
X148090893Y-88994431D01*
X148107634Y-88963110D01*
X148130161Y-88935661D01*
X148157610Y-88913134D01*
X148188931Y-88896393D01*
X148222909Y-88886085D01*
X148264390Y-88882000D01*
X148865610Y-88882000D01*
X148907091Y-88886085D01*
G37*
G36*
X120011000Y-86883000D02*
G01*
X116209000Y-86883000D01*
X116209000Y-84281000D01*
X120011000Y-84281000D01*
X120011000Y-86883000D01*
G37*
G36*
X123561000Y-86883000D02*
G01*
X121459000Y-86883000D01*
X121459000Y-84281000D01*
X123561000Y-84281000D01*
X123561000Y-86883000D01*
G37*
G36*
X114761000Y-86883000D02*
G01*
X112659000Y-86883000D01*
X112659000Y-84281000D01*
X114761000Y-84281000D01*
X114761000Y-86883000D01*
G37*
G36*
X130419000Y-84617000D02*
G01*
X129017000Y-84617000D01*
X129017000Y-82515000D01*
X130419000Y-82515000D01*
X130419000Y-84617000D01*
G37*
G36*
X128119000Y-84617000D02*
G01*
X126717000Y-84617000D01*
X126717000Y-82515000D01*
X128119000Y-82515000D01*
X128119000Y-84617000D01*
G37*
G36*
X183691591Y-83361085D02*
G01*
X183725569Y-83371393D01*
X183756890Y-83388134D01*
X183784339Y-83410661D01*
X183806866Y-83438110D01*
X183823607Y-83469431D01*
X183833915Y-83503409D01*
X183838000Y-83544890D01*
X183838000Y-84146110D01*
X183833915Y-84187591D01*
X183823607Y-84221569D01*
X183806866Y-84252890D01*
X183784339Y-84280339D01*
X183756890Y-84302866D01*
X183725569Y-84319607D01*
X183691591Y-84329915D01*
X183650110Y-84334000D01*
X182973890Y-84334000D01*
X182932409Y-84329915D01*
X182898431Y-84319607D01*
X182867110Y-84302866D01*
X182839661Y-84280339D01*
X182817134Y-84252890D01*
X182800393Y-84221569D01*
X182790085Y-84187591D01*
X182786000Y-84146110D01*
X182786000Y-83544890D01*
X182790085Y-83503409D01*
X182800393Y-83469431D01*
X182817134Y-83438110D01*
X182839661Y-83410661D01*
X182867110Y-83388134D01*
X182898431Y-83371393D01*
X182932409Y-83361085D01*
X182973890Y-83357000D01*
X183650110Y-83357000D01*
X183691591Y-83361085D01*
G37*
G36*
X181151591Y-83361085D02*
G01*
X181185569Y-83371393D01*
X181216890Y-83388134D01*
X181244339Y-83410661D01*
X181266866Y-83438110D01*
X181283607Y-83469431D01*
X181293915Y-83503409D01*
X181298000Y-83544890D01*
X181298000Y-84146110D01*
X181293915Y-84187591D01*
X181283607Y-84221569D01*
X181266866Y-84252890D01*
X181244339Y-84280339D01*
X181216890Y-84302866D01*
X181185569Y-84319607D01*
X181151591Y-84329915D01*
X181110110Y-84334000D01*
X180433890Y-84334000D01*
X180392409Y-84329915D01*
X180358431Y-84319607D01*
X180327110Y-84302866D01*
X180299661Y-84280339D01*
X180277134Y-84252890D01*
X180260393Y-84221569D01*
X180250085Y-84187591D01*
X180246000Y-84146110D01*
X180246000Y-83544890D01*
X180250085Y-83503409D01*
X180260393Y-83469431D01*
X180277134Y-83438110D01*
X180299661Y-83410661D01*
X180327110Y-83388134D01*
X180358431Y-83371393D01*
X180392409Y-83361085D01*
X180433890Y-83357000D01*
X181110110Y-83357000D01*
X181151591Y-83361085D01*
G37*
G36*
X135431591Y-83335585D02*
G01*
X135465569Y-83345893D01*
X135496890Y-83362634D01*
X135524339Y-83385161D01*
X135546866Y-83412610D01*
X135563607Y-83443931D01*
X135573915Y-83477909D01*
X135578000Y-83519390D01*
X135578000Y-84120610D01*
X135573915Y-84162091D01*
X135563607Y-84196069D01*
X135546866Y-84227390D01*
X135524339Y-84254839D01*
X135496890Y-84277366D01*
X135465569Y-84294107D01*
X135431591Y-84304415D01*
X135390110Y-84308500D01*
X134713890Y-84308500D01*
X134672409Y-84304415D01*
X134638431Y-84294107D01*
X134607110Y-84277366D01*
X134579661Y-84254839D01*
X134557134Y-84227390D01*
X134540393Y-84196069D01*
X134530085Y-84162091D01*
X134526000Y-84120610D01*
X134526000Y-83519390D01*
X134530085Y-83477909D01*
X134540393Y-83443931D01*
X134557134Y-83412610D01*
X134579661Y-83385161D01*
X134607110Y-83362634D01*
X134638431Y-83345893D01*
X134672409Y-83335585D01*
X134713890Y-83331500D01*
X135390110Y-83331500D01*
X135431591Y-83335585D01*
G37*
G36*
X155751591Y-83335585D02*
G01*
X155785569Y-83345893D01*
X155816890Y-83362634D01*
X155844339Y-83385161D01*
X155866866Y-83412610D01*
X155883607Y-83443931D01*
X155893915Y-83477909D01*
X155898000Y-83519390D01*
X155898000Y-84120610D01*
X155893915Y-84162091D01*
X155883607Y-84196069D01*
X155866866Y-84227390D01*
X155844339Y-84254839D01*
X155816890Y-84277366D01*
X155785569Y-84294107D01*
X155751591Y-84304415D01*
X155710110Y-84308500D01*
X155033890Y-84308500D01*
X154992409Y-84304415D01*
X154958431Y-84294107D01*
X154927110Y-84277366D01*
X154899661Y-84254839D01*
X154877134Y-84227390D01*
X154860393Y-84196069D01*
X154850085Y-84162091D01*
X154846000Y-84120610D01*
X154846000Y-83519390D01*
X154850085Y-83477909D01*
X154860393Y-83443931D01*
X154877134Y-83412610D01*
X154899661Y-83385161D01*
X154927110Y-83362634D01*
X154958431Y-83345893D01*
X154992409Y-83335585D01*
X155033890Y-83331500D01*
X155710110Y-83331500D01*
X155751591Y-83335585D01*
G37*
G36*
X170991591Y-83335585D02*
G01*
X171025569Y-83345893D01*
X171056890Y-83362634D01*
X171084339Y-83385161D01*
X171106866Y-83412610D01*
X171123607Y-83443931D01*
X171133915Y-83477909D01*
X171138000Y-83519390D01*
X171138000Y-84120610D01*
X171133915Y-84162091D01*
X171123607Y-84196069D01*
X171106866Y-84227390D01*
X171084339Y-84254839D01*
X171056890Y-84277366D01*
X171025569Y-84294107D01*
X170991591Y-84304415D01*
X170950110Y-84308500D01*
X170273890Y-84308500D01*
X170232409Y-84304415D01*
X170198431Y-84294107D01*
X170167110Y-84277366D01*
X170139661Y-84254839D01*
X170117134Y-84227390D01*
X170100393Y-84196069D01*
X170090085Y-84162091D01*
X170086000Y-84120610D01*
X170086000Y-83519390D01*
X170090085Y-83477909D01*
X170100393Y-83443931D01*
X170117134Y-83412610D01*
X170139661Y-83385161D01*
X170167110Y-83362634D01*
X170198431Y-83345893D01*
X170232409Y-83335585D01*
X170273890Y-83331500D01*
X170950110Y-83331500D01*
X170991591Y-83335585D01*
G37*
G36*
X173531591Y-83335585D02*
G01*
X173565569Y-83345893D01*
X173596890Y-83362634D01*
X173624339Y-83385161D01*
X173646866Y-83412610D01*
X173663607Y-83443931D01*
X173673915Y-83477909D01*
X173678000Y-83519390D01*
X173678000Y-84120610D01*
X173673915Y-84162091D01*
X173663607Y-84196069D01*
X173646866Y-84227390D01*
X173624339Y-84254839D01*
X173596890Y-84277366D01*
X173565569Y-84294107D01*
X173531591Y-84304415D01*
X173490110Y-84308500D01*
X172813890Y-84308500D01*
X172772409Y-84304415D01*
X172738431Y-84294107D01*
X172707110Y-84277366D01*
X172679661Y-84254839D01*
X172657134Y-84227390D01*
X172640393Y-84196069D01*
X172630085Y-84162091D01*
X172626000Y-84120610D01*
X172626000Y-83519390D01*
X172630085Y-83477909D01*
X172640393Y-83443931D01*
X172657134Y-83412610D01*
X172679661Y-83385161D01*
X172707110Y-83362634D01*
X172738431Y-83345893D01*
X172772409Y-83335585D01*
X172813890Y-83331500D01*
X173490110Y-83331500D01*
X173531591Y-83335585D01*
G37*
G36*
X153211591Y-83335585D02*
G01*
X153245569Y-83345893D01*
X153276890Y-83362634D01*
X153304339Y-83385161D01*
X153326866Y-83412610D01*
X153343607Y-83443931D01*
X153353915Y-83477909D01*
X153358000Y-83519390D01*
X153358000Y-84120610D01*
X153353915Y-84162091D01*
X153343607Y-84196069D01*
X153326866Y-84227390D01*
X153304339Y-84254839D01*
X153276890Y-84277366D01*
X153245569Y-84294107D01*
X153211591Y-84304415D01*
X153170110Y-84308500D01*
X152493890Y-84308500D01*
X152452409Y-84304415D01*
X152418431Y-84294107D01*
X152387110Y-84277366D01*
X152359661Y-84254839D01*
X152337134Y-84227390D01*
X152320393Y-84196069D01*
X152310085Y-84162091D01*
X152306000Y-84120610D01*
X152306000Y-83519390D01*
X152310085Y-83477909D01*
X152320393Y-83443931D01*
X152337134Y-83412610D01*
X152359661Y-83385161D01*
X152387110Y-83362634D01*
X152418431Y-83345893D01*
X152452409Y-83335585D01*
X152493890Y-83331500D01*
X153170110Y-83331500D01*
X153211591Y-83335585D01*
G37*
G36*
X137971591Y-83335585D02*
G01*
X138005569Y-83345893D01*
X138036890Y-83362634D01*
X138064339Y-83385161D01*
X138086866Y-83412610D01*
X138103607Y-83443931D01*
X138113915Y-83477909D01*
X138118000Y-83519390D01*
X138118000Y-84120610D01*
X138113915Y-84162091D01*
X138103607Y-84196069D01*
X138086866Y-84227390D01*
X138064339Y-84254839D01*
X138036890Y-84277366D01*
X138005569Y-84294107D01*
X137971591Y-84304415D01*
X137930110Y-84308500D01*
X137253890Y-84308500D01*
X137212409Y-84304415D01*
X137178431Y-84294107D01*
X137147110Y-84277366D01*
X137119661Y-84254839D01*
X137097134Y-84227390D01*
X137080393Y-84196069D01*
X137070085Y-84162091D01*
X137066000Y-84120610D01*
X137066000Y-83519390D01*
X137070085Y-83477909D01*
X137080393Y-83443931D01*
X137097134Y-83412610D01*
X137119661Y-83385161D01*
X137147110Y-83362634D01*
X137178431Y-83345893D01*
X137212409Y-83335585D01*
X137253890Y-83331500D01*
X137930110Y-83331500D01*
X137971591Y-83335585D01*
G37*
G36*
X106908307Y-80377981D02*
G01*
X107081579Y-80412447D01*
X107382042Y-80536903D01*
X107652451Y-80717585D01*
X107882415Y-80947549D01*
X108063097Y-81217958D01*
X108177852Y-81495000D01*
X108187553Y-81518422D01*
X108243681Y-81800592D01*
X108251000Y-81837391D01*
X108251000Y-82162609D01*
X108187553Y-82481579D01*
X108119212Y-82646569D01*
X108074334Y-82754915D01*
X108063097Y-82782042D01*
X107882415Y-83052451D01*
X107652451Y-83282415D01*
X107382042Y-83463097D01*
X107382041Y-83463098D01*
X107382040Y-83463098D01*
X107346283Y-83477909D01*
X107081579Y-83587553D01*
X107012719Y-83601250D01*
X106762611Y-83651000D01*
X106437389Y-83651000D01*
X106187281Y-83601250D01*
X106118421Y-83587553D01*
X105853717Y-83477909D01*
X105817960Y-83463098D01*
X105817959Y-83463098D01*
X105817958Y-83463097D01*
X105547549Y-83282415D01*
X105317585Y-83052451D01*
X105136903Y-82782042D01*
X105125667Y-82754915D01*
X105080788Y-82646569D01*
X105012447Y-82481579D01*
X104949000Y-82162609D01*
X104949000Y-81837391D01*
X104956320Y-81800592D01*
X105012447Y-81518422D01*
X105022149Y-81495000D01*
X105136903Y-81217958D01*
X105317585Y-80947549D01*
X105547549Y-80717585D01*
X105817958Y-80536903D01*
X106118421Y-80412447D01*
X106291693Y-80377981D01*
X106437389Y-80349000D01*
X106762611Y-80349000D01*
X106908307Y-80377981D01*
G37*
G36*
X196908307Y-80377981D02*
G01*
X197081579Y-80412447D01*
X197382042Y-80536903D01*
X197652451Y-80717585D01*
X197882415Y-80947549D01*
X198063097Y-81217958D01*
X198177852Y-81495000D01*
X198187553Y-81518422D01*
X198243681Y-81800592D01*
X198251000Y-81837391D01*
X198251000Y-82162609D01*
X198187553Y-82481579D01*
X198119212Y-82646569D01*
X198074334Y-82754915D01*
X198063097Y-82782042D01*
X197882415Y-83052451D01*
X197652451Y-83282415D01*
X197382042Y-83463097D01*
X197382041Y-83463098D01*
X197382040Y-83463098D01*
X197346283Y-83477909D01*
X197081579Y-83587553D01*
X197012719Y-83601250D01*
X196762611Y-83651000D01*
X196437389Y-83651000D01*
X196187281Y-83601250D01*
X196118421Y-83587553D01*
X195853717Y-83477909D01*
X195817960Y-83463098D01*
X195817959Y-83463098D01*
X195817958Y-83463097D01*
X195547549Y-83282415D01*
X195317585Y-83052451D01*
X195136903Y-82782042D01*
X195125667Y-82754915D01*
X195080788Y-82646569D01*
X195012447Y-82481579D01*
X194949000Y-82162609D01*
X194949000Y-81837391D01*
X194956320Y-81800592D01*
X195012447Y-81518422D01*
X195022149Y-81495000D01*
X195136903Y-81217958D01*
X195317585Y-80947549D01*
X195547549Y-80717585D01*
X195817958Y-80536903D01*
X196118421Y-80412447D01*
X196291693Y-80377981D01*
X196437389Y-80349000D01*
X196762611Y-80349000D01*
X196908307Y-80377981D01*
G37*
G36*
X120400820Y-82489250D02*
G01*
X120456136Y-82500253D01*
X120491134Y-82514750D01*
X120547311Y-82538019D01*
X120583801Y-82562401D01*
X120629369Y-82592848D01*
X120699152Y-82662631D01*
X120710650Y-82679839D01*
X120753981Y-82744689D01*
X120791747Y-82835865D01*
X120811000Y-82932655D01*
X120811000Y-83031345D01*
X120791747Y-83128135D01*
X120753981Y-83219311D01*
X120753980Y-83219312D01*
X120699152Y-83301369D01*
X120629369Y-83371152D01*
X120629008Y-83371393D01*
X120547311Y-83425981D01*
X120513340Y-83440052D01*
X120456136Y-83463747D01*
X120427560Y-83469431D01*
X120359345Y-83483000D01*
X120260655Y-83483000D01*
X120192440Y-83469431D01*
X120163864Y-83463747D01*
X120106660Y-83440052D01*
X120072689Y-83425981D01*
X119990992Y-83371393D01*
X119990631Y-83371152D01*
X119920848Y-83301369D01*
X119866020Y-83219312D01*
X119866019Y-83219311D01*
X119828253Y-83128135D01*
X119809000Y-83031345D01*
X119809000Y-82932655D01*
X119828253Y-82835865D01*
X119866019Y-82744689D01*
X119909350Y-82679839D01*
X119920848Y-82662631D01*
X119990631Y-82592848D01*
X120036199Y-82562401D01*
X120072689Y-82538019D01*
X120128866Y-82514750D01*
X120163864Y-82500253D01*
X120219180Y-82489250D01*
X120260655Y-82481000D01*
X120359345Y-82481000D01*
X120400820Y-82489250D01*
G37*
G36*
X116000820Y-82489250D02*
G01*
X116056136Y-82500253D01*
X116091134Y-82514750D01*
X116147311Y-82538019D01*
X116183801Y-82562401D01*
X116229369Y-82592848D01*
X116299152Y-82662631D01*
X116310650Y-82679839D01*
X116353981Y-82744689D01*
X116391747Y-82835865D01*
X116411000Y-82932655D01*
X116411000Y-83031345D01*
X116391747Y-83128135D01*
X116353981Y-83219311D01*
X116353980Y-83219312D01*
X116299152Y-83301369D01*
X116229369Y-83371152D01*
X116229008Y-83371393D01*
X116147311Y-83425981D01*
X116113340Y-83440052D01*
X116056136Y-83463747D01*
X116027560Y-83469431D01*
X115959345Y-83483000D01*
X115860655Y-83483000D01*
X115792440Y-83469431D01*
X115763864Y-83463747D01*
X115706660Y-83440052D01*
X115672689Y-83425981D01*
X115590992Y-83371393D01*
X115590631Y-83371152D01*
X115520848Y-83301369D01*
X115466020Y-83219312D01*
X115466019Y-83219311D01*
X115428253Y-83128135D01*
X115409000Y-83031345D01*
X115409000Y-82932655D01*
X115428253Y-82835865D01*
X115466019Y-82744689D01*
X115509350Y-82679839D01*
X115520848Y-82662631D01*
X115590631Y-82592848D01*
X115636199Y-82562401D01*
X115672689Y-82538019D01*
X115728866Y-82514750D01*
X115763864Y-82500253D01*
X115819180Y-82489250D01*
X115860655Y-82481000D01*
X115959345Y-82481000D01*
X116000820Y-82489250D01*
G37*
G36*
X181151591Y-81786085D02*
G01*
X181185569Y-81796393D01*
X181216890Y-81813134D01*
X181244339Y-81835661D01*
X181266866Y-81863110D01*
X181283607Y-81894431D01*
X181293915Y-81928409D01*
X181298000Y-81969890D01*
X181298000Y-82571110D01*
X181293915Y-82612591D01*
X181283607Y-82646569D01*
X181266866Y-82677890D01*
X181244339Y-82705339D01*
X181216890Y-82727866D01*
X181185569Y-82744607D01*
X181151591Y-82754915D01*
X181110110Y-82759000D01*
X180433890Y-82759000D01*
X180392409Y-82754915D01*
X180358431Y-82744607D01*
X180327110Y-82727866D01*
X180299661Y-82705339D01*
X180277134Y-82677890D01*
X180260393Y-82646569D01*
X180250085Y-82612591D01*
X180246000Y-82571110D01*
X180246000Y-81969890D01*
X180250085Y-81928409D01*
X180260393Y-81894431D01*
X180277134Y-81863110D01*
X180299661Y-81835661D01*
X180327110Y-81813134D01*
X180358431Y-81796393D01*
X180392409Y-81786085D01*
X180433890Y-81782000D01*
X181110110Y-81782000D01*
X181151591Y-81786085D01*
G37*
G36*
X183691591Y-81786085D02*
G01*
X183725569Y-81796393D01*
X183756890Y-81813134D01*
X183784339Y-81835661D01*
X183806866Y-81863110D01*
X183823607Y-81894431D01*
X183833915Y-81928409D01*
X183838000Y-81969890D01*
X183838000Y-82571110D01*
X183833915Y-82612591D01*
X183823607Y-82646569D01*
X183806866Y-82677890D01*
X183784339Y-82705339D01*
X183756890Y-82727866D01*
X183725569Y-82744607D01*
X183691591Y-82754915D01*
X183650110Y-82759000D01*
X182973890Y-82759000D01*
X182932409Y-82754915D01*
X182898431Y-82744607D01*
X182867110Y-82727866D01*
X182839661Y-82705339D01*
X182817134Y-82677890D01*
X182800393Y-82646569D01*
X182790085Y-82612591D01*
X182786000Y-82571110D01*
X182786000Y-81969890D01*
X182790085Y-81928409D01*
X182800393Y-81894431D01*
X182817134Y-81863110D01*
X182839661Y-81835661D01*
X182867110Y-81813134D01*
X182898431Y-81796393D01*
X182932409Y-81786085D01*
X182973890Y-81782000D01*
X183650110Y-81782000D01*
X183691591Y-81786085D01*
G37*
G36*
X170991591Y-81760585D02*
G01*
X171025569Y-81770893D01*
X171056890Y-81787634D01*
X171084339Y-81810161D01*
X171106866Y-81837610D01*
X171123607Y-81868931D01*
X171133915Y-81902909D01*
X171138000Y-81944390D01*
X171138000Y-82545610D01*
X171133915Y-82587091D01*
X171123607Y-82621069D01*
X171106866Y-82652390D01*
X171084339Y-82679839D01*
X171056890Y-82702366D01*
X171025569Y-82719107D01*
X170991591Y-82729415D01*
X170950110Y-82733500D01*
X170273890Y-82733500D01*
X170232409Y-82729415D01*
X170198431Y-82719107D01*
X170167110Y-82702366D01*
X170139661Y-82679839D01*
X170117134Y-82652390D01*
X170100393Y-82621069D01*
X170090085Y-82587091D01*
X170086000Y-82545610D01*
X170086000Y-81944390D01*
X170090085Y-81902909D01*
X170100393Y-81868931D01*
X170117134Y-81837610D01*
X170139661Y-81810161D01*
X170167110Y-81787634D01*
X170198431Y-81770893D01*
X170232409Y-81760585D01*
X170273890Y-81756500D01*
X170950110Y-81756500D01*
X170991591Y-81760585D01*
G37*
G36*
X153211591Y-81760585D02*
G01*
X153245569Y-81770893D01*
X153276890Y-81787634D01*
X153304339Y-81810161D01*
X153326866Y-81837610D01*
X153343607Y-81868931D01*
X153353915Y-81902909D01*
X153358000Y-81944390D01*
X153358000Y-82545610D01*
X153353915Y-82587091D01*
X153343607Y-82621069D01*
X153326866Y-82652390D01*
X153304339Y-82679839D01*
X153276890Y-82702366D01*
X153245569Y-82719107D01*
X153211591Y-82729415D01*
X153170110Y-82733500D01*
X152493890Y-82733500D01*
X152452409Y-82729415D01*
X152418431Y-82719107D01*
X152387110Y-82702366D01*
X152359661Y-82679839D01*
X152337134Y-82652390D01*
X152320393Y-82621069D01*
X152310085Y-82587091D01*
X152306000Y-82545610D01*
X152306000Y-81944390D01*
X152310085Y-81902909D01*
X152320393Y-81868931D01*
X152337134Y-81837610D01*
X152359661Y-81810161D01*
X152387110Y-81787634D01*
X152418431Y-81770893D01*
X152452409Y-81760585D01*
X152493890Y-81756500D01*
X153170110Y-81756500D01*
X153211591Y-81760585D01*
G37*
G36*
X155751591Y-81760585D02*
G01*
X155785569Y-81770893D01*
X155816890Y-81787634D01*
X155844339Y-81810161D01*
X155866866Y-81837610D01*
X155883607Y-81868931D01*
X155893915Y-81902909D01*
X155898000Y-81944390D01*
X155898000Y-82545610D01*
X155893915Y-82587091D01*
X155883607Y-82621069D01*
X155866866Y-82652390D01*
X155844339Y-82679839D01*
X155816890Y-82702366D01*
X155785569Y-82719107D01*
X155751591Y-82729415D01*
X155710110Y-82733500D01*
X155033890Y-82733500D01*
X154992409Y-82729415D01*
X154958431Y-82719107D01*
X154927110Y-82702366D01*
X154899661Y-82679839D01*
X154877134Y-82652390D01*
X154860393Y-82621069D01*
X154850085Y-82587091D01*
X154846000Y-82545610D01*
X154846000Y-81944390D01*
X154850085Y-81902909D01*
X154860393Y-81868931D01*
X154877134Y-81837610D01*
X154899661Y-81810161D01*
X154927110Y-81787634D01*
X154958431Y-81770893D01*
X154992409Y-81760585D01*
X155033890Y-81756500D01*
X155710110Y-81756500D01*
X155751591Y-81760585D01*
G37*
G36*
X137971591Y-81760585D02*
G01*
X138005569Y-81770893D01*
X138036890Y-81787634D01*
X138064339Y-81810161D01*
X138086866Y-81837610D01*
X138103607Y-81868931D01*
X138113915Y-81902909D01*
X138118000Y-81944390D01*
X138118000Y-82545610D01*
X138113915Y-82587091D01*
X138103607Y-82621069D01*
X138086866Y-82652390D01*
X138064339Y-82679839D01*
X138036890Y-82702366D01*
X138005569Y-82719107D01*
X137971591Y-82729415D01*
X137930110Y-82733500D01*
X137253890Y-82733500D01*
X137212409Y-82729415D01*
X137178431Y-82719107D01*
X137147110Y-82702366D01*
X137119661Y-82679839D01*
X137097134Y-82652390D01*
X137080393Y-82621069D01*
X137070085Y-82587091D01*
X137066000Y-82545610D01*
X137066000Y-81944390D01*
X137070085Y-81902909D01*
X137080393Y-81868931D01*
X137097134Y-81837610D01*
X137119661Y-81810161D01*
X137147110Y-81787634D01*
X137178431Y-81770893D01*
X137212409Y-81760585D01*
X137253890Y-81756500D01*
X137930110Y-81756500D01*
X137971591Y-81760585D01*
G37*
G36*
X173531591Y-81760585D02*
G01*
X173565569Y-81770893D01*
X173596890Y-81787634D01*
X173624339Y-81810161D01*
X173646866Y-81837610D01*
X173663607Y-81868931D01*
X173673915Y-81902909D01*
X173678000Y-81944390D01*
X173678000Y-82545610D01*
X173673915Y-82587091D01*
X173663607Y-82621069D01*
X173646866Y-82652390D01*
X173624339Y-82679839D01*
X173596890Y-82702366D01*
X173565569Y-82719107D01*
X173531591Y-82729415D01*
X173490110Y-82733500D01*
X172813890Y-82733500D01*
X172772409Y-82729415D01*
X172738431Y-82719107D01*
X172707110Y-82702366D01*
X172679661Y-82679839D01*
X172657134Y-82652390D01*
X172640393Y-82621069D01*
X172630085Y-82587091D01*
X172626000Y-82545610D01*
X172626000Y-81944390D01*
X172630085Y-81902909D01*
X172640393Y-81868931D01*
X172657134Y-81837610D01*
X172679661Y-81810161D01*
X172707110Y-81787634D01*
X172738431Y-81770893D01*
X172772409Y-81760585D01*
X172813890Y-81756500D01*
X173490110Y-81756500D01*
X173531591Y-81760585D01*
G37*
G36*
X135431591Y-81760585D02*
G01*
X135465569Y-81770893D01*
X135496890Y-81787634D01*
X135524339Y-81810161D01*
X135546866Y-81837610D01*
X135563607Y-81868931D01*
X135573915Y-81902909D01*
X135578000Y-81944390D01*
X135578000Y-82545610D01*
X135573915Y-82587091D01*
X135563607Y-82621069D01*
X135546866Y-82652390D01*
X135524339Y-82679839D01*
X135496890Y-82702366D01*
X135465569Y-82719107D01*
X135431591Y-82729415D01*
X135390110Y-82733500D01*
X134713890Y-82733500D01*
X134672409Y-82729415D01*
X134638431Y-82719107D01*
X134607110Y-82702366D01*
X134579661Y-82679839D01*
X134557134Y-82652390D01*
X134540393Y-82621069D01*
X134530085Y-82587091D01*
X134526000Y-82545610D01*
X134526000Y-81944390D01*
X134530085Y-81902909D01*
X134540393Y-81868931D01*
X134557134Y-81837610D01*
X134579661Y-81810161D01*
X134607110Y-81787634D01*
X134638431Y-81770893D01*
X134672409Y-81760585D01*
X134713890Y-81756500D01*
X135390110Y-81756500D01*
X135431591Y-81760585D01*
G37*
G36*
X161651000Y-82495000D02*
G01*
X160849000Y-82495000D01*
X160849000Y-80893000D01*
X161651000Y-80893000D01*
X161651000Y-82495000D01*
G37*
G36*
X163151000Y-82495000D02*
G01*
X162349000Y-82495000D01*
X162349000Y-80893000D01*
X163151000Y-80893000D01*
X163151000Y-82495000D01*
G37*
G36*
X166151000Y-82495000D02*
G01*
X165349000Y-82495000D01*
X165349000Y-80893000D01*
X166151000Y-80893000D01*
X166151000Y-82495000D01*
G37*
G36*
X167701000Y-81495000D02*
G01*
X166599000Y-81495000D01*
X166599000Y-80593000D01*
X167701000Y-80593000D01*
X167701000Y-81495000D01*
G37*
G36*
X160401000Y-81495000D02*
G01*
X159299000Y-81495000D01*
X159299000Y-80593000D01*
X160401000Y-80593000D01*
X160401000Y-81495000D01*
G37*
G36*
X123561000Y-81383000D02*
G01*
X121459000Y-81383000D01*
X121459000Y-78781000D01*
X123561000Y-78781000D01*
X123561000Y-81383000D01*
G37*
G36*
X114761000Y-81383000D02*
G01*
X112659000Y-81383000D01*
X112659000Y-78781000D01*
X114761000Y-78781000D01*
X114761000Y-81383000D01*
G37*
G36*
X148598000Y-81069000D02*
G01*
X147046000Y-81069000D01*
X147046000Y-79967000D01*
X148598000Y-79967000D01*
X148598000Y-81069000D01*
G37*
G36*
X143448000Y-81069000D02*
G01*
X141896000Y-81069000D01*
X141896000Y-79967000D01*
X143448000Y-79967000D01*
X143448000Y-81069000D01*
G37*
G36*
X129619000Y-80617000D02*
G01*
X127517000Y-80617000D01*
X127517000Y-78515000D01*
X129619000Y-78515000D01*
X129619000Y-80617000D01*
G37*
G36*
X165097740Y-79442626D02*
G01*
X165146136Y-79452253D01*
X165183902Y-79467896D01*
X165237311Y-79490019D01*
X165237312Y-79490020D01*
X165319369Y-79544848D01*
X165389152Y-79614631D01*
X165389153Y-79614633D01*
X165443981Y-79696689D01*
X165481747Y-79787865D01*
X165501000Y-79884655D01*
X165501000Y-79983345D01*
X165481747Y-80080135D01*
X165443981Y-80171311D01*
X165443980Y-80171312D01*
X165389152Y-80253369D01*
X165319369Y-80323152D01*
X165280684Y-80349000D01*
X165237311Y-80377981D01*
X165183902Y-80400104D01*
X165146136Y-80415747D01*
X165097740Y-80425373D01*
X165049345Y-80435000D01*
X164950655Y-80435000D01*
X164902260Y-80425374D01*
X164853864Y-80415747D01*
X164816098Y-80400104D01*
X164762689Y-80377981D01*
X164719316Y-80349000D01*
X164680631Y-80323152D01*
X164610848Y-80253369D01*
X164556020Y-80171312D01*
X164556019Y-80171311D01*
X164518253Y-80080135D01*
X164499000Y-79983345D01*
X164499000Y-79884655D01*
X164518253Y-79787865D01*
X164556019Y-79696689D01*
X164610847Y-79614633D01*
X164610848Y-79614631D01*
X164680631Y-79544848D01*
X164762688Y-79490020D01*
X164762689Y-79490019D01*
X164816098Y-79467896D01*
X164853864Y-79452253D01*
X164902260Y-79442626D01*
X164950655Y-79433000D01*
X165049345Y-79433000D01*
X165097740Y-79442626D01*
G37*
G36*
X162097740Y-79442626D02*
G01*
X162146136Y-79452253D01*
X162183902Y-79467896D01*
X162237311Y-79490019D01*
X162237312Y-79490020D01*
X162319369Y-79544848D01*
X162389152Y-79614631D01*
X162389153Y-79614633D01*
X162443981Y-79696689D01*
X162481747Y-79787865D01*
X162501000Y-79884655D01*
X162501000Y-79983345D01*
X162481747Y-80080135D01*
X162443981Y-80171311D01*
X162443980Y-80171312D01*
X162389152Y-80253369D01*
X162319369Y-80323152D01*
X162280684Y-80349000D01*
X162237311Y-80377981D01*
X162183902Y-80400104D01*
X162146136Y-80415747D01*
X162097740Y-80425373D01*
X162049345Y-80435000D01*
X161950655Y-80435000D01*
X161902260Y-80425374D01*
X161853864Y-80415747D01*
X161816098Y-80400104D01*
X161762689Y-80377981D01*
X161719316Y-80349000D01*
X161680631Y-80323152D01*
X161610848Y-80253369D01*
X161556020Y-80171312D01*
X161556019Y-80171311D01*
X161518253Y-80080135D01*
X161499000Y-79983345D01*
X161499000Y-79884655D01*
X161518253Y-79787865D01*
X161556019Y-79696689D01*
X161610847Y-79614633D01*
X161610848Y-79614631D01*
X161680631Y-79544848D01*
X161762688Y-79490020D01*
X161762689Y-79490019D01*
X161816098Y-79467896D01*
X161853864Y-79452253D01*
X161902260Y-79442626D01*
X161950655Y-79433000D01*
X162049345Y-79433000D01*
X162097740Y-79442626D01*
G37*
G36*
X143448000Y-79369000D02*
G01*
X141896000Y-79369000D01*
X141896000Y-78267000D01*
X143448000Y-78267000D01*
X143448000Y-79369000D01*
G37*
G36*
X148598000Y-79369000D02*
G01*
X147046000Y-79369000D01*
X147046000Y-78267000D01*
X148598000Y-78267000D01*
X148598000Y-79369000D01*
G37*
G36*
X160401000Y-79285000D02*
G01*
X159299000Y-79285000D01*
X159299000Y-78383000D01*
X160401000Y-78383000D01*
X160401000Y-79285000D01*
G37*
G36*
X167701000Y-79285000D02*
G01*
X166599000Y-79285000D01*
X166599000Y-78383000D01*
X167701000Y-78383000D01*
X167701000Y-79285000D01*
G37*
M02*
