G04 #@! TF.GenerationSoftware,KiCad,Pcbnew,(5.1.5)-3*
G04 #@! TF.CreationDate,2021-01-18T17:20:57+00:00*
G04 #@! TF.ProjectId,Little Logic Computer - Power+Timing,4c697474-6c65-4204-9c6f-67696320436f,rev?*
G04 #@! TF.SameCoordinates,Original*
G04 #@! TF.FileFunction,Soldermask,Bot*
G04 #@! TF.FilePolarity,Negative*
%FSLAX46Y46*%
G04 Gerber Fmt 4.6, Leading zero omitted, Abs format (unit mm)*
G04 Created by KiCad (PCBNEW (5.1.5)-3) date 2021-01-18 17:20:57*
%MOMM*%
%LPD*%
G04 APERTURE LIST*
%ADD10C,0.100000*%
G04 APERTURE END LIST*
D10*
G36*
X196975256Y-120391298D02*
G01*
X197081579Y-120412447D01*
X197382042Y-120536903D01*
X197652451Y-120717585D01*
X197882415Y-120947549D01*
X198063097Y-121217958D01*
X198187553Y-121518421D01*
X198251000Y-121837391D01*
X198251000Y-122162609D01*
X198187553Y-122481579D01*
X198063097Y-122782042D01*
X197882415Y-123052451D01*
X197652451Y-123282415D01*
X197382042Y-123463097D01*
X197081579Y-123587553D01*
X196975256Y-123608702D01*
X196762611Y-123651000D01*
X196437389Y-123651000D01*
X196224744Y-123608702D01*
X196118421Y-123587553D01*
X195817958Y-123463097D01*
X195547549Y-123282415D01*
X195317585Y-123052451D01*
X195136903Y-122782042D01*
X195012447Y-122481579D01*
X194949000Y-122162609D01*
X194949000Y-121837391D01*
X195012447Y-121518421D01*
X195136903Y-121217958D01*
X195317585Y-120947549D01*
X195547549Y-120717585D01*
X195817958Y-120536903D01*
X196118421Y-120412447D01*
X196224744Y-120391298D01*
X196437389Y-120349000D01*
X196762611Y-120349000D01*
X196975256Y-120391298D01*
G37*
G36*
X106975256Y-120391298D02*
G01*
X107081579Y-120412447D01*
X107382042Y-120536903D01*
X107652451Y-120717585D01*
X107882415Y-120947549D01*
X108063097Y-121217958D01*
X108187553Y-121518421D01*
X108251000Y-121837391D01*
X108251000Y-122162609D01*
X108187553Y-122481579D01*
X108063097Y-122782042D01*
X107882415Y-123052451D01*
X107652451Y-123282415D01*
X107382042Y-123463097D01*
X107081579Y-123587553D01*
X106975256Y-123608702D01*
X106762611Y-123651000D01*
X106437389Y-123651000D01*
X106224744Y-123608702D01*
X106118421Y-123587553D01*
X105817958Y-123463097D01*
X105547549Y-123282415D01*
X105317585Y-123052451D01*
X105136903Y-122782042D01*
X105012447Y-122481579D01*
X104949000Y-122162609D01*
X104949000Y-121837391D01*
X105012447Y-121518421D01*
X105136903Y-121217958D01*
X105317585Y-120947549D01*
X105547549Y-120717585D01*
X105817958Y-120536903D01*
X106118421Y-120412447D01*
X106224744Y-120391298D01*
X106437389Y-120349000D01*
X106762611Y-120349000D01*
X106975256Y-120391298D01*
G37*
G36*
X115201000Y-122897000D02*
G01*
X113399000Y-122897000D01*
X113399000Y-121095000D01*
X115201000Y-121095000D01*
X115201000Y-122897000D01*
G37*
G36*
X116953512Y-121099927D02*
G01*
X117102812Y-121129624D01*
X117266784Y-121197544D01*
X117414354Y-121296147D01*
X117539853Y-121421646D01*
X117638456Y-121569216D01*
X117706376Y-121733188D01*
X117741000Y-121907259D01*
X117741000Y-122084741D01*
X117706376Y-122258812D01*
X117638456Y-122422784D01*
X117539853Y-122570354D01*
X117414354Y-122695853D01*
X117266784Y-122794456D01*
X117102812Y-122862376D01*
X116953512Y-122892073D01*
X116928742Y-122897000D01*
X116751258Y-122897000D01*
X116726488Y-122892073D01*
X116577188Y-122862376D01*
X116413216Y-122794456D01*
X116265646Y-122695853D01*
X116140147Y-122570354D01*
X116041544Y-122422784D01*
X115973624Y-122258812D01*
X115939000Y-122084741D01*
X115939000Y-121907259D01*
X115973624Y-121733188D01*
X116041544Y-121569216D01*
X116140147Y-121421646D01*
X116265646Y-121296147D01*
X116413216Y-121197544D01*
X116577188Y-121129624D01*
X116726488Y-121099927D01*
X116751258Y-121095000D01*
X116928742Y-121095000D01*
X116953512Y-121099927D01*
G37*
G36*
X105513512Y-112463927D02*
G01*
X105662812Y-112493624D01*
X105826784Y-112561544D01*
X105974354Y-112660147D01*
X106099853Y-112785646D01*
X106198456Y-112933216D01*
X106266376Y-113097188D01*
X106301000Y-113271259D01*
X106301000Y-113448741D01*
X106266376Y-113622812D01*
X106198456Y-113786784D01*
X106099853Y-113934354D01*
X105974354Y-114059853D01*
X105826784Y-114158456D01*
X105662812Y-114226376D01*
X105513512Y-114256073D01*
X105488742Y-114261000D01*
X105311258Y-114261000D01*
X105286488Y-114256073D01*
X105137188Y-114226376D01*
X104973216Y-114158456D01*
X104825646Y-114059853D01*
X104700147Y-113934354D01*
X104601544Y-113786784D01*
X104533624Y-113622812D01*
X104499000Y-113448741D01*
X104499000Y-113271259D01*
X104533624Y-113097188D01*
X104601544Y-112933216D01*
X104700147Y-112785646D01*
X104825646Y-112660147D01*
X104973216Y-112561544D01*
X105137188Y-112493624D01*
X105286488Y-112463927D01*
X105311258Y-112459000D01*
X105488742Y-112459000D01*
X105513512Y-112463927D01*
G37*
G36*
X108053512Y-112463927D02*
G01*
X108202812Y-112493624D01*
X108366784Y-112561544D01*
X108514354Y-112660147D01*
X108639853Y-112785646D01*
X108738456Y-112933216D01*
X108806376Y-113097188D01*
X108841000Y-113271259D01*
X108841000Y-113448741D01*
X108806376Y-113622812D01*
X108738456Y-113786784D01*
X108639853Y-113934354D01*
X108514354Y-114059853D01*
X108366784Y-114158456D01*
X108202812Y-114226376D01*
X108053512Y-114256073D01*
X108028742Y-114261000D01*
X107851258Y-114261000D01*
X107826488Y-114256073D01*
X107677188Y-114226376D01*
X107513216Y-114158456D01*
X107365646Y-114059853D01*
X107240147Y-113934354D01*
X107141544Y-113786784D01*
X107073624Y-113622812D01*
X107039000Y-113448741D01*
X107039000Y-113271259D01*
X107073624Y-113097188D01*
X107141544Y-112933216D01*
X107240147Y-112785646D01*
X107365646Y-112660147D01*
X107513216Y-112561544D01*
X107677188Y-112493624D01*
X107826488Y-112463927D01*
X107851258Y-112459000D01*
X108028742Y-112459000D01*
X108053512Y-112463927D01*
G37*
G36*
X195513512Y-112463927D02*
G01*
X195662812Y-112493624D01*
X195826784Y-112561544D01*
X195974354Y-112660147D01*
X196099853Y-112785646D01*
X196198456Y-112933216D01*
X196266376Y-113097188D01*
X196301000Y-113271259D01*
X196301000Y-113448741D01*
X196266376Y-113622812D01*
X196198456Y-113786784D01*
X196099853Y-113934354D01*
X195974354Y-114059853D01*
X195826784Y-114158456D01*
X195662812Y-114226376D01*
X195513512Y-114256073D01*
X195488742Y-114261000D01*
X195311258Y-114261000D01*
X195286488Y-114256073D01*
X195137188Y-114226376D01*
X194973216Y-114158456D01*
X194825646Y-114059853D01*
X194700147Y-113934354D01*
X194601544Y-113786784D01*
X194533624Y-113622812D01*
X194499000Y-113448741D01*
X194499000Y-113271259D01*
X194533624Y-113097188D01*
X194601544Y-112933216D01*
X194700147Y-112785646D01*
X194825646Y-112660147D01*
X194973216Y-112561544D01*
X195137188Y-112493624D01*
X195286488Y-112463927D01*
X195311258Y-112459000D01*
X195488742Y-112459000D01*
X195513512Y-112463927D01*
G37*
G36*
X198053512Y-112463927D02*
G01*
X198202812Y-112493624D01*
X198366784Y-112561544D01*
X198514354Y-112660147D01*
X198639853Y-112785646D01*
X198738456Y-112933216D01*
X198806376Y-113097188D01*
X198841000Y-113271259D01*
X198841000Y-113448741D01*
X198806376Y-113622812D01*
X198738456Y-113786784D01*
X198639853Y-113934354D01*
X198514354Y-114059853D01*
X198366784Y-114158456D01*
X198202812Y-114226376D01*
X198053512Y-114256073D01*
X198028742Y-114261000D01*
X197851258Y-114261000D01*
X197826488Y-114256073D01*
X197677188Y-114226376D01*
X197513216Y-114158456D01*
X197365646Y-114059853D01*
X197240147Y-113934354D01*
X197141544Y-113786784D01*
X197073624Y-113622812D01*
X197039000Y-113448741D01*
X197039000Y-113271259D01*
X197073624Y-113097188D01*
X197141544Y-112933216D01*
X197240147Y-112785646D01*
X197365646Y-112660147D01*
X197513216Y-112561544D01*
X197677188Y-112493624D01*
X197826488Y-112463927D01*
X197851258Y-112459000D01*
X198028742Y-112459000D01*
X198053512Y-112463927D01*
G37*
G36*
X108053512Y-109923927D02*
G01*
X108202812Y-109953624D01*
X108366784Y-110021544D01*
X108514354Y-110120147D01*
X108639853Y-110245646D01*
X108738456Y-110393216D01*
X108806376Y-110557188D01*
X108841000Y-110731259D01*
X108841000Y-110908741D01*
X108806376Y-111082812D01*
X108738456Y-111246784D01*
X108639853Y-111394354D01*
X108514354Y-111519853D01*
X108366784Y-111618456D01*
X108202812Y-111686376D01*
X108053512Y-111716073D01*
X108028742Y-111721000D01*
X107851258Y-111721000D01*
X107826488Y-111716073D01*
X107677188Y-111686376D01*
X107513216Y-111618456D01*
X107365646Y-111519853D01*
X107240147Y-111394354D01*
X107141544Y-111246784D01*
X107073624Y-111082812D01*
X107039000Y-110908741D01*
X107039000Y-110731259D01*
X107073624Y-110557188D01*
X107141544Y-110393216D01*
X107240147Y-110245646D01*
X107365646Y-110120147D01*
X107513216Y-110021544D01*
X107677188Y-109953624D01*
X107826488Y-109923927D01*
X107851258Y-109919000D01*
X108028742Y-109919000D01*
X108053512Y-109923927D01*
G37*
G36*
X105513512Y-109923927D02*
G01*
X105662812Y-109953624D01*
X105826784Y-110021544D01*
X105974354Y-110120147D01*
X106099853Y-110245646D01*
X106198456Y-110393216D01*
X106266376Y-110557188D01*
X106301000Y-110731259D01*
X106301000Y-110908741D01*
X106266376Y-111082812D01*
X106198456Y-111246784D01*
X106099853Y-111394354D01*
X105974354Y-111519853D01*
X105826784Y-111618456D01*
X105662812Y-111686376D01*
X105513512Y-111716073D01*
X105488742Y-111721000D01*
X105311258Y-111721000D01*
X105286488Y-111716073D01*
X105137188Y-111686376D01*
X104973216Y-111618456D01*
X104825646Y-111519853D01*
X104700147Y-111394354D01*
X104601544Y-111246784D01*
X104533624Y-111082812D01*
X104499000Y-110908741D01*
X104499000Y-110731259D01*
X104533624Y-110557188D01*
X104601544Y-110393216D01*
X104700147Y-110245646D01*
X104825646Y-110120147D01*
X104973216Y-110021544D01*
X105137188Y-109953624D01*
X105286488Y-109923927D01*
X105311258Y-109919000D01*
X105488742Y-109919000D01*
X105513512Y-109923927D01*
G37*
G36*
X195513512Y-109923927D02*
G01*
X195662812Y-109953624D01*
X195826784Y-110021544D01*
X195974354Y-110120147D01*
X196099853Y-110245646D01*
X196198456Y-110393216D01*
X196266376Y-110557188D01*
X196301000Y-110731259D01*
X196301000Y-110908741D01*
X196266376Y-111082812D01*
X196198456Y-111246784D01*
X196099853Y-111394354D01*
X195974354Y-111519853D01*
X195826784Y-111618456D01*
X195662812Y-111686376D01*
X195513512Y-111716073D01*
X195488742Y-111721000D01*
X195311258Y-111721000D01*
X195286488Y-111716073D01*
X195137188Y-111686376D01*
X194973216Y-111618456D01*
X194825646Y-111519853D01*
X194700147Y-111394354D01*
X194601544Y-111246784D01*
X194533624Y-111082812D01*
X194499000Y-110908741D01*
X194499000Y-110731259D01*
X194533624Y-110557188D01*
X194601544Y-110393216D01*
X194700147Y-110245646D01*
X194825646Y-110120147D01*
X194973216Y-110021544D01*
X195137188Y-109953624D01*
X195286488Y-109923927D01*
X195311258Y-109919000D01*
X195488742Y-109919000D01*
X195513512Y-109923927D01*
G37*
G36*
X198053512Y-109923927D02*
G01*
X198202812Y-109953624D01*
X198366784Y-110021544D01*
X198514354Y-110120147D01*
X198639853Y-110245646D01*
X198738456Y-110393216D01*
X198806376Y-110557188D01*
X198841000Y-110731259D01*
X198841000Y-110908741D01*
X198806376Y-111082812D01*
X198738456Y-111246784D01*
X198639853Y-111394354D01*
X198514354Y-111519853D01*
X198366784Y-111618456D01*
X198202812Y-111686376D01*
X198053512Y-111716073D01*
X198028742Y-111721000D01*
X197851258Y-111721000D01*
X197826488Y-111716073D01*
X197677188Y-111686376D01*
X197513216Y-111618456D01*
X197365646Y-111519853D01*
X197240147Y-111394354D01*
X197141544Y-111246784D01*
X197073624Y-111082812D01*
X197039000Y-110908741D01*
X197039000Y-110731259D01*
X197073624Y-110557188D01*
X197141544Y-110393216D01*
X197240147Y-110245646D01*
X197365646Y-110120147D01*
X197513216Y-110021544D01*
X197677188Y-109953624D01*
X197826488Y-109923927D01*
X197851258Y-109919000D01*
X198028742Y-109919000D01*
X198053512Y-109923927D01*
G37*
G36*
X195513512Y-107383927D02*
G01*
X195662812Y-107413624D01*
X195826784Y-107481544D01*
X195974354Y-107580147D01*
X196099853Y-107705646D01*
X196198456Y-107853216D01*
X196266376Y-108017188D01*
X196301000Y-108191259D01*
X196301000Y-108368741D01*
X196266376Y-108542812D01*
X196198456Y-108706784D01*
X196099853Y-108854354D01*
X195974354Y-108979853D01*
X195826784Y-109078456D01*
X195662812Y-109146376D01*
X195513512Y-109176073D01*
X195488742Y-109181000D01*
X195311258Y-109181000D01*
X195286488Y-109176073D01*
X195137188Y-109146376D01*
X194973216Y-109078456D01*
X194825646Y-108979853D01*
X194700147Y-108854354D01*
X194601544Y-108706784D01*
X194533624Y-108542812D01*
X194499000Y-108368741D01*
X194499000Y-108191259D01*
X194533624Y-108017188D01*
X194601544Y-107853216D01*
X194700147Y-107705646D01*
X194825646Y-107580147D01*
X194973216Y-107481544D01*
X195137188Y-107413624D01*
X195286488Y-107383927D01*
X195311258Y-107379000D01*
X195488742Y-107379000D01*
X195513512Y-107383927D01*
G37*
G36*
X105513512Y-107383927D02*
G01*
X105662812Y-107413624D01*
X105826784Y-107481544D01*
X105974354Y-107580147D01*
X106099853Y-107705646D01*
X106198456Y-107853216D01*
X106266376Y-108017188D01*
X106301000Y-108191259D01*
X106301000Y-108368741D01*
X106266376Y-108542812D01*
X106198456Y-108706784D01*
X106099853Y-108854354D01*
X105974354Y-108979853D01*
X105826784Y-109078456D01*
X105662812Y-109146376D01*
X105513512Y-109176073D01*
X105488742Y-109181000D01*
X105311258Y-109181000D01*
X105286488Y-109176073D01*
X105137188Y-109146376D01*
X104973216Y-109078456D01*
X104825646Y-108979853D01*
X104700147Y-108854354D01*
X104601544Y-108706784D01*
X104533624Y-108542812D01*
X104499000Y-108368741D01*
X104499000Y-108191259D01*
X104533624Y-108017188D01*
X104601544Y-107853216D01*
X104700147Y-107705646D01*
X104825646Y-107580147D01*
X104973216Y-107481544D01*
X105137188Y-107413624D01*
X105286488Y-107383927D01*
X105311258Y-107379000D01*
X105488742Y-107379000D01*
X105513512Y-107383927D01*
G37*
G36*
X198053512Y-107383927D02*
G01*
X198202812Y-107413624D01*
X198366784Y-107481544D01*
X198514354Y-107580147D01*
X198639853Y-107705646D01*
X198738456Y-107853216D01*
X198806376Y-108017188D01*
X198841000Y-108191259D01*
X198841000Y-108368741D01*
X198806376Y-108542812D01*
X198738456Y-108706784D01*
X198639853Y-108854354D01*
X198514354Y-108979853D01*
X198366784Y-109078456D01*
X198202812Y-109146376D01*
X198053512Y-109176073D01*
X198028742Y-109181000D01*
X197851258Y-109181000D01*
X197826488Y-109176073D01*
X197677188Y-109146376D01*
X197513216Y-109078456D01*
X197365646Y-108979853D01*
X197240147Y-108854354D01*
X197141544Y-108706784D01*
X197073624Y-108542812D01*
X197039000Y-108368741D01*
X197039000Y-108191259D01*
X197073624Y-108017188D01*
X197141544Y-107853216D01*
X197240147Y-107705646D01*
X197365646Y-107580147D01*
X197513216Y-107481544D01*
X197677188Y-107413624D01*
X197826488Y-107383927D01*
X197851258Y-107379000D01*
X198028742Y-107379000D01*
X198053512Y-107383927D01*
G37*
G36*
X108053512Y-107383927D02*
G01*
X108202812Y-107413624D01*
X108366784Y-107481544D01*
X108514354Y-107580147D01*
X108639853Y-107705646D01*
X108738456Y-107853216D01*
X108806376Y-108017188D01*
X108841000Y-108191259D01*
X108841000Y-108368741D01*
X108806376Y-108542812D01*
X108738456Y-108706784D01*
X108639853Y-108854354D01*
X108514354Y-108979853D01*
X108366784Y-109078456D01*
X108202812Y-109146376D01*
X108053512Y-109176073D01*
X108028742Y-109181000D01*
X107851258Y-109181000D01*
X107826488Y-109176073D01*
X107677188Y-109146376D01*
X107513216Y-109078456D01*
X107365646Y-108979853D01*
X107240147Y-108854354D01*
X107141544Y-108706784D01*
X107073624Y-108542812D01*
X107039000Y-108368741D01*
X107039000Y-108191259D01*
X107073624Y-108017188D01*
X107141544Y-107853216D01*
X107240147Y-107705646D01*
X107365646Y-107580147D01*
X107513216Y-107481544D01*
X107677188Y-107413624D01*
X107826488Y-107383927D01*
X107851258Y-107379000D01*
X108028742Y-107379000D01*
X108053512Y-107383927D01*
G37*
G36*
X108053512Y-104843927D02*
G01*
X108202812Y-104873624D01*
X108366784Y-104941544D01*
X108514354Y-105040147D01*
X108639853Y-105165646D01*
X108738456Y-105313216D01*
X108806376Y-105477188D01*
X108841000Y-105651259D01*
X108841000Y-105828741D01*
X108806376Y-106002812D01*
X108738456Y-106166784D01*
X108639853Y-106314354D01*
X108514354Y-106439853D01*
X108366784Y-106538456D01*
X108202812Y-106606376D01*
X108053512Y-106636073D01*
X108028742Y-106641000D01*
X107851258Y-106641000D01*
X107826488Y-106636073D01*
X107677188Y-106606376D01*
X107513216Y-106538456D01*
X107365646Y-106439853D01*
X107240147Y-106314354D01*
X107141544Y-106166784D01*
X107073624Y-106002812D01*
X107039000Y-105828741D01*
X107039000Y-105651259D01*
X107073624Y-105477188D01*
X107141544Y-105313216D01*
X107240147Y-105165646D01*
X107365646Y-105040147D01*
X107513216Y-104941544D01*
X107677188Y-104873624D01*
X107826488Y-104843927D01*
X107851258Y-104839000D01*
X108028742Y-104839000D01*
X108053512Y-104843927D01*
G37*
G36*
X105513512Y-104843927D02*
G01*
X105662812Y-104873624D01*
X105826784Y-104941544D01*
X105974354Y-105040147D01*
X106099853Y-105165646D01*
X106198456Y-105313216D01*
X106266376Y-105477188D01*
X106301000Y-105651259D01*
X106301000Y-105828741D01*
X106266376Y-106002812D01*
X106198456Y-106166784D01*
X106099853Y-106314354D01*
X105974354Y-106439853D01*
X105826784Y-106538456D01*
X105662812Y-106606376D01*
X105513512Y-106636073D01*
X105488742Y-106641000D01*
X105311258Y-106641000D01*
X105286488Y-106636073D01*
X105137188Y-106606376D01*
X104973216Y-106538456D01*
X104825646Y-106439853D01*
X104700147Y-106314354D01*
X104601544Y-106166784D01*
X104533624Y-106002812D01*
X104499000Y-105828741D01*
X104499000Y-105651259D01*
X104533624Y-105477188D01*
X104601544Y-105313216D01*
X104700147Y-105165646D01*
X104825646Y-105040147D01*
X104973216Y-104941544D01*
X105137188Y-104873624D01*
X105286488Y-104843927D01*
X105311258Y-104839000D01*
X105488742Y-104839000D01*
X105513512Y-104843927D01*
G37*
G36*
X198053512Y-104843927D02*
G01*
X198202812Y-104873624D01*
X198366784Y-104941544D01*
X198514354Y-105040147D01*
X198639853Y-105165646D01*
X198738456Y-105313216D01*
X198806376Y-105477188D01*
X198841000Y-105651259D01*
X198841000Y-105828741D01*
X198806376Y-106002812D01*
X198738456Y-106166784D01*
X198639853Y-106314354D01*
X198514354Y-106439853D01*
X198366784Y-106538456D01*
X198202812Y-106606376D01*
X198053512Y-106636073D01*
X198028742Y-106641000D01*
X197851258Y-106641000D01*
X197826488Y-106636073D01*
X197677188Y-106606376D01*
X197513216Y-106538456D01*
X197365646Y-106439853D01*
X197240147Y-106314354D01*
X197141544Y-106166784D01*
X197073624Y-106002812D01*
X197039000Y-105828741D01*
X197039000Y-105651259D01*
X197073624Y-105477188D01*
X197141544Y-105313216D01*
X197240147Y-105165646D01*
X197365646Y-105040147D01*
X197513216Y-104941544D01*
X197677188Y-104873624D01*
X197826488Y-104843927D01*
X197851258Y-104839000D01*
X198028742Y-104839000D01*
X198053512Y-104843927D01*
G37*
G36*
X195513512Y-104843927D02*
G01*
X195662812Y-104873624D01*
X195826784Y-104941544D01*
X195974354Y-105040147D01*
X196099853Y-105165646D01*
X196198456Y-105313216D01*
X196266376Y-105477188D01*
X196301000Y-105651259D01*
X196301000Y-105828741D01*
X196266376Y-106002812D01*
X196198456Y-106166784D01*
X196099853Y-106314354D01*
X195974354Y-106439853D01*
X195826784Y-106538456D01*
X195662812Y-106606376D01*
X195513512Y-106636073D01*
X195488742Y-106641000D01*
X195311258Y-106641000D01*
X195286488Y-106636073D01*
X195137188Y-106606376D01*
X194973216Y-106538456D01*
X194825646Y-106439853D01*
X194700147Y-106314354D01*
X194601544Y-106166784D01*
X194533624Y-106002812D01*
X194499000Y-105828741D01*
X194499000Y-105651259D01*
X194533624Y-105477188D01*
X194601544Y-105313216D01*
X194700147Y-105165646D01*
X194825646Y-105040147D01*
X194973216Y-104941544D01*
X195137188Y-104873624D01*
X195286488Y-104843927D01*
X195311258Y-104839000D01*
X195488742Y-104839000D01*
X195513512Y-104843927D01*
G37*
G36*
X108053512Y-102303927D02*
G01*
X108202812Y-102333624D01*
X108366784Y-102401544D01*
X108514354Y-102500147D01*
X108639853Y-102625646D01*
X108738456Y-102773216D01*
X108806376Y-102937188D01*
X108841000Y-103111259D01*
X108841000Y-103288741D01*
X108806376Y-103462812D01*
X108738456Y-103626784D01*
X108639853Y-103774354D01*
X108514354Y-103899853D01*
X108366784Y-103998456D01*
X108202812Y-104066376D01*
X108053512Y-104096073D01*
X108028742Y-104101000D01*
X107851258Y-104101000D01*
X107826488Y-104096073D01*
X107677188Y-104066376D01*
X107513216Y-103998456D01*
X107365646Y-103899853D01*
X107240147Y-103774354D01*
X107141544Y-103626784D01*
X107073624Y-103462812D01*
X107039000Y-103288741D01*
X107039000Y-103111259D01*
X107073624Y-102937188D01*
X107141544Y-102773216D01*
X107240147Y-102625646D01*
X107365646Y-102500147D01*
X107513216Y-102401544D01*
X107677188Y-102333624D01*
X107826488Y-102303927D01*
X107851258Y-102299000D01*
X108028742Y-102299000D01*
X108053512Y-102303927D01*
G37*
G36*
X105513512Y-102303927D02*
G01*
X105662812Y-102333624D01*
X105826784Y-102401544D01*
X105974354Y-102500147D01*
X106099853Y-102625646D01*
X106198456Y-102773216D01*
X106266376Y-102937188D01*
X106301000Y-103111259D01*
X106301000Y-103288741D01*
X106266376Y-103462812D01*
X106198456Y-103626784D01*
X106099853Y-103774354D01*
X105974354Y-103899853D01*
X105826784Y-103998456D01*
X105662812Y-104066376D01*
X105513512Y-104096073D01*
X105488742Y-104101000D01*
X105311258Y-104101000D01*
X105286488Y-104096073D01*
X105137188Y-104066376D01*
X104973216Y-103998456D01*
X104825646Y-103899853D01*
X104700147Y-103774354D01*
X104601544Y-103626784D01*
X104533624Y-103462812D01*
X104499000Y-103288741D01*
X104499000Y-103111259D01*
X104533624Y-102937188D01*
X104601544Y-102773216D01*
X104700147Y-102625646D01*
X104825646Y-102500147D01*
X104973216Y-102401544D01*
X105137188Y-102333624D01*
X105286488Y-102303927D01*
X105311258Y-102299000D01*
X105488742Y-102299000D01*
X105513512Y-102303927D01*
G37*
G36*
X198053512Y-102303927D02*
G01*
X198202812Y-102333624D01*
X198366784Y-102401544D01*
X198514354Y-102500147D01*
X198639853Y-102625646D01*
X198738456Y-102773216D01*
X198806376Y-102937188D01*
X198841000Y-103111259D01*
X198841000Y-103288741D01*
X198806376Y-103462812D01*
X198738456Y-103626784D01*
X198639853Y-103774354D01*
X198514354Y-103899853D01*
X198366784Y-103998456D01*
X198202812Y-104066376D01*
X198053512Y-104096073D01*
X198028742Y-104101000D01*
X197851258Y-104101000D01*
X197826488Y-104096073D01*
X197677188Y-104066376D01*
X197513216Y-103998456D01*
X197365646Y-103899853D01*
X197240147Y-103774354D01*
X197141544Y-103626784D01*
X197073624Y-103462812D01*
X197039000Y-103288741D01*
X197039000Y-103111259D01*
X197073624Y-102937188D01*
X197141544Y-102773216D01*
X197240147Y-102625646D01*
X197365646Y-102500147D01*
X197513216Y-102401544D01*
X197677188Y-102333624D01*
X197826488Y-102303927D01*
X197851258Y-102299000D01*
X198028742Y-102299000D01*
X198053512Y-102303927D01*
G37*
G36*
X195513512Y-102303927D02*
G01*
X195662812Y-102333624D01*
X195826784Y-102401544D01*
X195974354Y-102500147D01*
X196099853Y-102625646D01*
X196198456Y-102773216D01*
X196266376Y-102937188D01*
X196301000Y-103111259D01*
X196301000Y-103288741D01*
X196266376Y-103462812D01*
X196198456Y-103626784D01*
X196099853Y-103774354D01*
X195974354Y-103899853D01*
X195826784Y-103998456D01*
X195662812Y-104066376D01*
X195513512Y-104096073D01*
X195488742Y-104101000D01*
X195311258Y-104101000D01*
X195286488Y-104096073D01*
X195137188Y-104066376D01*
X194973216Y-103998456D01*
X194825646Y-103899853D01*
X194700147Y-103774354D01*
X194601544Y-103626784D01*
X194533624Y-103462812D01*
X194499000Y-103288741D01*
X194499000Y-103111259D01*
X194533624Y-102937188D01*
X194601544Y-102773216D01*
X194700147Y-102625646D01*
X194825646Y-102500147D01*
X194973216Y-102401544D01*
X195137188Y-102333624D01*
X195286488Y-102303927D01*
X195311258Y-102299000D01*
X195488742Y-102299000D01*
X195513512Y-102303927D01*
G37*
G36*
X195513512Y-99763927D02*
G01*
X195662812Y-99793624D01*
X195826784Y-99861544D01*
X195974354Y-99960147D01*
X196099853Y-100085646D01*
X196198456Y-100233216D01*
X196266376Y-100397188D01*
X196301000Y-100571259D01*
X196301000Y-100748741D01*
X196266376Y-100922812D01*
X196198456Y-101086784D01*
X196099853Y-101234354D01*
X195974354Y-101359853D01*
X195826784Y-101458456D01*
X195662812Y-101526376D01*
X195513512Y-101556073D01*
X195488742Y-101561000D01*
X195311258Y-101561000D01*
X195286488Y-101556073D01*
X195137188Y-101526376D01*
X194973216Y-101458456D01*
X194825646Y-101359853D01*
X194700147Y-101234354D01*
X194601544Y-101086784D01*
X194533624Y-100922812D01*
X194499000Y-100748741D01*
X194499000Y-100571259D01*
X194533624Y-100397188D01*
X194601544Y-100233216D01*
X194700147Y-100085646D01*
X194825646Y-99960147D01*
X194973216Y-99861544D01*
X195137188Y-99793624D01*
X195286488Y-99763927D01*
X195311258Y-99759000D01*
X195488742Y-99759000D01*
X195513512Y-99763927D01*
G37*
G36*
X105513512Y-99763927D02*
G01*
X105662812Y-99793624D01*
X105826784Y-99861544D01*
X105974354Y-99960147D01*
X106099853Y-100085646D01*
X106198456Y-100233216D01*
X106266376Y-100397188D01*
X106301000Y-100571259D01*
X106301000Y-100748741D01*
X106266376Y-100922812D01*
X106198456Y-101086784D01*
X106099853Y-101234354D01*
X105974354Y-101359853D01*
X105826784Y-101458456D01*
X105662812Y-101526376D01*
X105513512Y-101556073D01*
X105488742Y-101561000D01*
X105311258Y-101561000D01*
X105286488Y-101556073D01*
X105137188Y-101526376D01*
X104973216Y-101458456D01*
X104825646Y-101359853D01*
X104700147Y-101234354D01*
X104601544Y-101086784D01*
X104533624Y-100922812D01*
X104499000Y-100748741D01*
X104499000Y-100571259D01*
X104533624Y-100397188D01*
X104601544Y-100233216D01*
X104700147Y-100085646D01*
X104825646Y-99960147D01*
X104973216Y-99861544D01*
X105137188Y-99793624D01*
X105286488Y-99763927D01*
X105311258Y-99759000D01*
X105488742Y-99759000D01*
X105513512Y-99763927D01*
G37*
G36*
X198053512Y-99763927D02*
G01*
X198202812Y-99793624D01*
X198366784Y-99861544D01*
X198514354Y-99960147D01*
X198639853Y-100085646D01*
X198738456Y-100233216D01*
X198806376Y-100397188D01*
X198841000Y-100571259D01*
X198841000Y-100748741D01*
X198806376Y-100922812D01*
X198738456Y-101086784D01*
X198639853Y-101234354D01*
X198514354Y-101359853D01*
X198366784Y-101458456D01*
X198202812Y-101526376D01*
X198053512Y-101556073D01*
X198028742Y-101561000D01*
X197851258Y-101561000D01*
X197826488Y-101556073D01*
X197677188Y-101526376D01*
X197513216Y-101458456D01*
X197365646Y-101359853D01*
X197240147Y-101234354D01*
X197141544Y-101086784D01*
X197073624Y-100922812D01*
X197039000Y-100748741D01*
X197039000Y-100571259D01*
X197073624Y-100397188D01*
X197141544Y-100233216D01*
X197240147Y-100085646D01*
X197365646Y-99960147D01*
X197513216Y-99861544D01*
X197677188Y-99793624D01*
X197826488Y-99763927D01*
X197851258Y-99759000D01*
X198028742Y-99759000D01*
X198053512Y-99763927D01*
G37*
G36*
X108053512Y-99763927D02*
G01*
X108202812Y-99793624D01*
X108366784Y-99861544D01*
X108514354Y-99960147D01*
X108639853Y-100085646D01*
X108738456Y-100233216D01*
X108806376Y-100397188D01*
X108841000Y-100571259D01*
X108841000Y-100748741D01*
X108806376Y-100922812D01*
X108738456Y-101086784D01*
X108639853Y-101234354D01*
X108514354Y-101359853D01*
X108366784Y-101458456D01*
X108202812Y-101526376D01*
X108053512Y-101556073D01*
X108028742Y-101561000D01*
X107851258Y-101561000D01*
X107826488Y-101556073D01*
X107677188Y-101526376D01*
X107513216Y-101458456D01*
X107365646Y-101359853D01*
X107240147Y-101234354D01*
X107141544Y-101086784D01*
X107073624Y-100922812D01*
X107039000Y-100748741D01*
X107039000Y-100571259D01*
X107073624Y-100397188D01*
X107141544Y-100233216D01*
X107240147Y-100085646D01*
X107365646Y-99960147D01*
X107513216Y-99861544D01*
X107677188Y-99793624D01*
X107826488Y-99763927D01*
X107851258Y-99759000D01*
X108028742Y-99759000D01*
X108053512Y-99763927D01*
G37*
G36*
X108053512Y-97223927D02*
G01*
X108202812Y-97253624D01*
X108366784Y-97321544D01*
X108514354Y-97420147D01*
X108639853Y-97545646D01*
X108738456Y-97693216D01*
X108806376Y-97857188D01*
X108841000Y-98031259D01*
X108841000Y-98208741D01*
X108806376Y-98382812D01*
X108738456Y-98546784D01*
X108639853Y-98694354D01*
X108514354Y-98819853D01*
X108366784Y-98918456D01*
X108202812Y-98986376D01*
X108053512Y-99016073D01*
X108028742Y-99021000D01*
X107851258Y-99021000D01*
X107826488Y-99016073D01*
X107677188Y-98986376D01*
X107513216Y-98918456D01*
X107365646Y-98819853D01*
X107240147Y-98694354D01*
X107141544Y-98546784D01*
X107073624Y-98382812D01*
X107039000Y-98208741D01*
X107039000Y-98031259D01*
X107073624Y-97857188D01*
X107141544Y-97693216D01*
X107240147Y-97545646D01*
X107365646Y-97420147D01*
X107513216Y-97321544D01*
X107677188Y-97253624D01*
X107826488Y-97223927D01*
X107851258Y-97219000D01*
X108028742Y-97219000D01*
X108053512Y-97223927D01*
G37*
G36*
X198053512Y-97223927D02*
G01*
X198202812Y-97253624D01*
X198366784Y-97321544D01*
X198514354Y-97420147D01*
X198639853Y-97545646D01*
X198738456Y-97693216D01*
X198806376Y-97857188D01*
X198841000Y-98031259D01*
X198841000Y-98208741D01*
X198806376Y-98382812D01*
X198738456Y-98546784D01*
X198639853Y-98694354D01*
X198514354Y-98819853D01*
X198366784Y-98918456D01*
X198202812Y-98986376D01*
X198053512Y-99016073D01*
X198028742Y-99021000D01*
X197851258Y-99021000D01*
X197826488Y-99016073D01*
X197677188Y-98986376D01*
X197513216Y-98918456D01*
X197365646Y-98819853D01*
X197240147Y-98694354D01*
X197141544Y-98546784D01*
X197073624Y-98382812D01*
X197039000Y-98208741D01*
X197039000Y-98031259D01*
X197073624Y-97857188D01*
X197141544Y-97693216D01*
X197240147Y-97545646D01*
X197365646Y-97420147D01*
X197513216Y-97321544D01*
X197677188Y-97253624D01*
X197826488Y-97223927D01*
X197851258Y-97219000D01*
X198028742Y-97219000D01*
X198053512Y-97223927D01*
G37*
G36*
X195513512Y-97223927D02*
G01*
X195662812Y-97253624D01*
X195826784Y-97321544D01*
X195974354Y-97420147D01*
X196099853Y-97545646D01*
X196198456Y-97693216D01*
X196266376Y-97857188D01*
X196301000Y-98031259D01*
X196301000Y-98208741D01*
X196266376Y-98382812D01*
X196198456Y-98546784D01*
X196099853Y-98694354D01*
X195974354Y-98819853D01*
X195826784Y-98918456D01*
X195662812Y-98986376D01*
X195513512Y-99016073D01*
X195488742Y-99021000D01*
X195311258Y-99021000D01*
X195286488Y-99016073D01*
X195137188Y-98986376D01*
X194973216Y-98918456D01*
X194825646Y-98819853D01*
X194700147Y-98694354D01*
X194601544Y-98546784D01*
X194533624Y-98382812D01*
X194499000Y-98208741D01*
X194499000Y-98031259D01*
X194533624Y-97857188D01*
X194601544Y-97693216D01*
X194700147Y-97545646D01*
X194825646Y-97420147D01*
X194973216Y-97321544D01*
X195137188Y-97253624D01*
X195286488Y-97223927D01*
X195311258Y-97219000D01*
X195488742Y-97219000D01*
X195513512Y-97223927D01*
G37*
G36*
X105513512Y-97223927D02*
G01*
X105662812Y-97253624D01*
X105826784Y-97321544D01*
X105974354Y-97420147D01*
X106099853Y-97545646D01*
X106198456Y-97693216D01*
X106266376Y-97857188D01*
X106301000Y-98031259D01*
X106301000Y-98208741D01*
X106266376Y-98382812D01*
X106198456Y-98546784D01*
X106099853Y-98694354D01*
X105974354Y-98819853D01*
X105826784Y-98918456D01*
X105662812Y-98986376D01*
X105513512Y-99016073D01*
X105488742Y-99021000D01*
X105311258Y-99021000D01*
X105286488Y-99016073D01*
X105137188Y-98986376D01*
X104973216Y-98918456D01*
X104825646Y-98819853D01*
X104700147Y-98694354D01*
X104601544Y-98546784D01*
X104533624Y-98382812D01*
X104499000Y-98208741D01*
X104499000Y-98031259D01*
X104533624Y-97857188D01*
X104601544Y-97693216D01*
X104700147Y-97545646D01*
X104825646Y-97420147D01*
X104973216Y-97321544D01*
X105137188Y-97253624D01*
X105286488Y-97223927D01*
X105311258Y-97219000D01*
X105488742Y-97219000D01*
X105513512Y-97223927D01*
G37*
G36*
X108053512Y-94683927D02*
G01*
X108202812Y-94713624D01*
X108366784Y-94781544D01*
X108514354Y-94880147D01*
X108639853Y-95005646D01*
X108738456Y-95153216D01*
X108806376Y-95317188D01*
X108841000Y-95491259D01*
X108841000Y-95668741D01*
X108806376Y-95842812D01*
X108738456Y-96006784D01*
X108639853Y-96154354D01*
X108514354Y-96279853D01*
X108366784Y-96378456D01*
X108202812Y-96446376D01*
X108053512Y-96476073D01*
X108028742Y-96481000D01*
X107851258Y-96481000D01*
X107826488Y-96476073D01*
X107677188Y-96446376D01*
X107513216Y-96378456D01*
X107365646Y-96279853D01*
X107240147Y-96154354D01*
X107141544Y-96006784D01*
X107073624Y-95842812D01*
X107039000Y-95668741D01*
X107039000Y-95491259D01*
X107073624Y-95317188D01*
X107141544Y-95153216D01*
X107240147Y-95005646D01*
X107365646Y-94880147D01*
X107513216Y-94781544D01*
X107677188Y-94713624D01*
X107826488Y-94683927D01*
X107851258Y-94679000D01*
X108028742Y-94679000D01*
X108053512Y-94683927D01*
G37*
G36*
X195513512Y-94683927D02*
G01*
X195662812Y-94713624D01*
X195826784Y-94781544D01*
X195974354Y-94880147D01*
X196099853Y-95005646D01*
X196198456Y-95153216D01*
X196266376Y-95317188D01*
X196301000Y-95491259D01*
X196301000Y-95668741D01*
X196266376Y-95842812D01*
X196198456Y-96006784D01*
X196099853Y-96154354D01*
X195974354Y-96279853D01*
X195826784Y-96378456D01*
X195662812Y-96446376D01*
X195513512Y-96476073D01*
X195488742Y-96481000D01*
X195311258Y-96481000D01*
X195286488Y-96476073D01*
X195137188Y-96446376D01*
X194973216Y-96378456D01*
X194825646Y-96279853D01*
X194700147Y-96154354D01*
X194601544Y-96006784D01*
X194533624Y-95842812D01*
X194499000Y-95668741D01*
X194499000Y-95491259D01*
X194533624Y-95317188D01*
X194601544Y-95153216D01*
X194700147Y-95005646D01*
X194825646Y-94880147D01*
X194973216Y-94781544D01*
X195137188Y-94713624D01*
X195286488Y-94683927D01*
X195311258Y-94679000D01*
X195488742Y-94679000D01*
X195513512Y-94683927D01*
G37*
G36*
X198053512Y-94683927D02*
G01*
X198202812Y-94713624D01*
X198366784Y-94781544D01*
X198514354Y-94880147D01*
X198639853Y-95005646D01*
X198738456Y-95153216D01*
X198806376Y-95317188D01*
X198841000Y-95491259D01*
X198841000Y-95668741D01*
X198806376Y-95842812D01*
X198738456Y-96006784D01*
X198639853Y-96154354D01*
X198514354Y-96279853D01*
X198366784Y-96378456D01*
X198202812Y-96446376D01*
X198053512Y-96476073D01*
X198028742Y-96481000D01*
X197851258Y-96481000D01*
X197826488Y-96476073D01*
X197677188Y-96446376D01*
X197513216Y-96378456D01*
X197365646Y-96279853D01*
X197240147Y-96154354D01*
X197141544Y-96006784D01*
X197073624Y-95842812D01*
X197039000Y-95668741D01*
X197039000Y-95491259D01*
X197073624Y-95317188D01*
X197141544Y-95153216D01*
X197240147Y-95005646D01*
X197365646Y-94880147D01*
X197513216Y-94781544D01*
X197677188Y-94713624D01*
X197826488Y-94683927D01*
X197851258Y-94679000D01*
X198028742Y-94679000D01*
X198053512Y-94683927D01*
G37*
G36*
X105513512Y-94683927D02*
G01*
X105662812Y-94713624D01*
X105826784Y-94781544D01*
X105974354Y-94880147D01*
X106099853Y-95005646D01*
X106198456Y-95153216D01*
X106266376Y-95317188D01*
X106301000Y-95491259D01*
X106301000Y-95668741D01*
X106266376Y-95842812D01*
X106198456Y-96006784D01*
X106099853Y-96154354D01*
X105974354Y-96279853D01*
X105826784Y-96378456D01*
X105662812Y-96446376D01*
X105513512Y-96476073D01*
X105488742Y-96481000D01*
X105311258Y-96481000D01*
X105286488Y-96476073D01*
X105137188Y-96446376D01*
X104973216Y-96378456D01*
X104825646Y-96279853D01*
X104700147Y-96154354D01*
X104601544Y-96006784D01*
X104533624Y-95842812D01*
X104499000Y-95668741D01*
X104499000Y-95491259D01*
X104533624Y-95317188D01*
X104601544Y-95153216D01*
X104700147Y-95005646D01*
X104825646Y-94880147D01*
X104973216Y-94781544D01*
X105137188Y-94713624D01*
X105286488Y-94683927D01*
X105311258Y-94679000D01*
X105488742Y-94679000D01*
X105513512Y-94683927D01*
G37*
G36*
X108053512Y-92143927D02*
G01*
X108202812Y-92173624D01*
X108366784Y-92241544D01*
X108514354Y-92340147D01*
X108639853Y-92465646D01*
X108738456Y-92613216D01*
X108806376Y-92777188D01*
X108841000Y-92951259D01*
X108841000Y-93128741D01*
X108806376Y-93302812D01*
X108738456Y-93466784D01*
X108639853Y-93614354D01*
X108514354Y-93739853D01*
X108366784Y-93838456D01*
X108202812Y-93906376D01*
X108053512Y-93936073D01*
X108028742Y-93941000D01*
X107851258Y-93941000D01*
X107826488Y-93936073D01*
X107677188Y-93906376D01*
X107513216Y-93838456D01*
X107365646Y-93739853D01*
X107240147Y-93614354D01*
X107141544Y-93466784D01*
X107073624Y-93302812D01*
X107039000Y-93128741D01*
X107039000Y-92951259D01*
X107073624Y-92777188D01*
X107141544Y-92613216D01*
X107240147Y-92465646D01*
X107365646Y-92340147D01*
X107513216Y-92241544D01*
X107677188Y-92173624D01*
X107826488Y-92143927D01*
X107851258Y-92139000D01*
X108028742Y-92139000D01*
X108053512Y-92143927D01*
G37*
G36*
X105513512Y-92143927D02*
G01*
X105662812Y-92173624D01*
X105826784Y-92241544D01*
X105974354Y-92340147D01*
X106099853Y-92465646D01*
X106198456Y-92613216D01*
X106266376Y-92777188D01*
X106301000Y-92951259D01*
X106301000Y-93128741D01*
X106266376Y-93302812D01*
X106198456Y-93466784D01*
X106099853Y-93614354D01*
X105974354Y-93739853D01*
X105826784Y-93838456D01*
X105662812Y-93906376D01*
X105513512Y-93936073D01*
X105488742Y-93941000D01*
X105311258Y-93941000D01*
X105286488Y-93936073D01*
X105137188Y-93906376D01*
X104973216Y-93838456D01*
X104825646Y-93739853D01*
X104700147Y-93614354D01*
X104601544Y-93466784D01*
X104533624Y-93302812D01*
X104499000Y-93128741D01*
X104499000Y-92951259D01*
X104533624Y-92777188D01*
X104601544Y-92613216D01*
X104700147Y-92465646D01*
X104825646Y-92340147D01*
X104973216Y-92241544D01*
X105137188Y-92173624D01*
X105286488Y-92143927D01*
X105311258Y-92139000D01*
X105488742Y-92139000D01*
X105513512Y-92143927D01*
G37*
G36*
X195513512Y-92143927D02*
G01*
X195662812Y-92173624D01*
X195826784Y-92241544D01*
X195974354Y-92340147D01*
X196099853Y-92465646D01*
X196198456Y-92613216D01*
X196266376Y-92777188D01*
X196301000Y-92951259D01*
X196301000Y-93128741D01*
X196266376Y-93302812D01*
X196198456Y-93466784D01*
X196099853Y-93614354D01*
X195974354Y-93739853D01*
X195826784Y-93838456D01*
X195662812Y-93906376D01*
X195513512Y-93936073D01*
X195488742Y-93941000D01*
X195311258Y-93941000D01*
X195286488Y-93936073D01*
X195137188Y-93906376D01*
X194973216Y-93838456D01*
X194825646Y-93739853D01*
X194700147Y-93614354D01*
X194601544Y-93466784D01*
X194533624Y-93302812D01*
X194499000Y-93128741D01*
X194499000Y-92951259D01*
X194533624Y-92777188D01*
X194601544Y-92613216D01*
X194700147Y-92465646D01*
X194825646Y-92340147D01*
X194973216Y-92241544D01*
X195137188Y-92173624D01*
X195286488Y-92143927D01*
X195311258Y-92139000D01*
X195488742Y-92139000D01*
X195513512Y-92143927D01*
G37*
G36*
X198053512Y-92143927D02*
G01*
X198202812Y-92173624D01*
X198366784Y-92241544D01*
X198514354Y-92340147D01*
X198639853Y-92465646D01*
X198738456Y-92613216D01*
X198806376Y-92777188D01*
X198841000Y-92951259D01*
X198841000Y-93128741D01*
X198806376Y-93302812D01*
X198738456Y-93466784D01*
X198639853Y-93614354D01*
X198514354Y-93739853D01*
X198366784Y-93838456D01*
X198202812Y-93906376D01*
X198053512Y-93936073D01*
X198028742Y-93941000D01*
X197851258Y-93941000D01*
X197826488Y-93936073D01*
X197677188Y-93906376D01*
X197513216Y-93838456D01*
X197365646Y-93739853D01*
X197240147Y-93614354D01*
X197141544Y-93466784D01*
X197073624Y-93302812D01*
X197039000Y-93128741D01*
X197039000Y-92951259D01*
X197073624Y-92777188D01*
X197141544Y-92613216D01*
X197240147Y-92465646D01*
X197365646Y-92340147D01*
X197513216Y-92241544D01*
X197677188Y-92173624D01*
X197826488Y-92143927D01*
X197851258Y-92139000D01*
X198028742Y-92139000D01*
X198053512Y-92143927D01*
G37*
G36*
X108053512Y-89603927D02*
G01*
X108202812Y-89633624D01*
X108366784Y-89701544D01*
X108514354Y-89800147D01*
X108639853Y-89925646D01*
X108738456Y-90073216D01*
X108806376Y-90237188D01*
X108841000Y-90411259D01*
X108841000Y-90588741D01*
X108806376Y-90762812D01*
X108738456Y-90926784D01*
X108639853Y-91074354D01*
X108514354Y-91199853D01*
X108366784Y-91298456D01*
X108202812Y-91366376D01*
X108053512Y-91396073D01*
X108028742Y-91401000D01*
X107851258Y-91401000D01*
X107826488Y-91396073D01*
X107677188Y-91366376D01*
X107513216Y-91298456D01*
X107365646Y-91199853D01*
X107240147Y-91074354D01*
X107141544Y-90926784D01*
X107073624Y-90762812D01*
X107039000Y-90588741D01*
X107039000Y-90411259D01*
X107073624Y-90237188D01*
X107141544Y-90073216D01*
X107240147Y-89925646D01*
X107365646Y-89800147D01*
X107513216Y-89701544D01*
X107677188Y-89633624D01*
X107826488Y-89603927D01*
X107851258Y-89599000D01*
X108028742Y-89599000D01*
X108053512Y-89603927D01*
G37*
G36*
X106301000Y-91401000D02*
G01*
X104499000Y-91401000D01*
X104499000Y-89599000D01*
X106301000Y-89599000D01*
X106301000Y-91401000D01*
G37*
G36*
X198053512Y-89603927D02*
G01*
X198202812Y-89633624D01*
X198366784Y-89701544D01*
X198514354Y-89800147D01*
X198639853Y-89925646D01*
X198738456Y-90073216D01*
X198806376Y-90237188D01*
X198841000Y-90411259D01*
X198841000Y-90588741D01*
X198806376Y-90762812D01*
X198738456Y-90926784D01*
X198639853Y-91074354D01*
X198514354Y-91199853D01*
X198366784Y-91298456D01*
X198202812Y-91366376D01*
X198053512Y-91396073D01*
X198028742Y-91401000D01*
X197851258Y-91401000D01*
X197826488Y-91396073D01*
X197677188Y-91366376D01*
X197513216Y-91298456D01*
X197365646Y-91199853D01*
X197240147Y-91074354D01*
X197141544Y-90926784D01*
X197073624Y-90762812D01*
X197039000Y-90588741D01*
X197039000Y-90411259D01*
X197073624Y-90237188D01*
X197141544Y-90073216D01*
X197240147Y-89925646D01*
X197365646Y-89800147D01*
X197513216Y-89701544D01*
X197677188Y-89633624D01*
X197826488Y-89603927D01*
X197851258Y-89599000D01*
X198028742Y-89599000D01*
X198053512Y-89603927D01*
G37*
G36*
X196301000Y-91401000D02*
G01*
X194499000Y-91401000D01*
X194499000Y-89599000D01*
X196301000Y-89599000D01*
X196301000Y-91401000D01*
G37*
G36*
X106908307Y-80377981D02*
G01*
X107081579Y-80412447D01*
X107382042Y-80536903D01*
X107652451Y-80717585D01*
X107882415Y-80947549D01*
X108063097Y-81217958D01*
X108187553Y-81518421D01*
X108251000Y-81837391D01*
X108251000Y-82162609D01*
X108187553Y-82481579D01*
X108063097Y-82782042D01*
X107882415Y-83052451D01*
X107652451Y-83282415D01*
X107382042Y-83463097D01*
X107081579Y-83587553D01*
X106975256Y-83608702D01*
X106762611Y-83651000D01*
X106437389Y-83651000D01*
X106224744Y-83608702D01*
X106118421Y-83587553D01*
X105817958Y-83463097D01*
X105547549Y-83282415D01*
X105317585Y-83052451D01*
X105136903Y-82782042D01*
X105012447Y-82481579D01*
X104949000Y-82162609D01*
X104949000Y-81837391D01*
X105012447Y-81518421D01*
X105136903Y-81217958D01*
X105317585Y-80947549D01*
X105547549Y-80717585D01*
X105817958Y-80536903D01*
X106118421Y-80412447D01*
X106291693Y-80377981D01*
X106437389Y-80349000D01*
X106762611Y-80349000D01*
X106908307Y-80377981D01*
G37*
G36*
X196908307Y-80377981D02*
G01*
X197081579Y-80412447D01*
X197382042Y-80536903D01*
X197652451Y-80717585D01*
X197882415Y-80947549D01*
X198063097Y-81217958D01*
X198187553Y-81518421D01*
X198251000Y-81837391D01*
X198251000Y-82162609D01*
X198187553Y-82481579D01*
X198063097Y-82782042D01*
X197882415Y-83052451D01*
X197652451Y-83282415D01*
X197382042Y-83463097D01*
X197081579Y-83587553D01*
X196975256Y-83608702D01*
X196762611Y-83651000D01*
X196437389Y-83651000D01*
X196224744Y-83608702D01*
X196118421Y-83587553D01*
X195817958Y-83463097D01*
X195547549Y-83282415D01*
X195317585Y-83052451D01*
X195136903Y-82782042D01*
X195012447Y-82481579D01*
X194949000Y-82162609D01*
X194949000Y-81837391D01*
X195012447Y-81518421D01*
X195136903Y-81217958D01*
X195317585Y-80947549D01*
X195547549Y-80717585D01*
X195817958Y-80536903D01*
X196118421Y-80412447D01*
X196291693Y-80377981D01*
X196437389Y-80349000D01*
X196762611Y-80349000D01*
X196908307Y-80377981D01*
G37*
G36*
X116007740Y-82490627D02*
G01*
X116056136Y-82500253D01*
X116093902Y-82515896D01*
X116147311Y-82538019D01*
X116147312Y-82538020D01*
X116229369Y-82592848D01*
X116299152Y-82662631D01*
X116299153Y-82662633D01*
X116353981Y-82744689D01*
X116391747Y-82835865D01*
X116411000Y-82932655D01*
X116411000Y-83031345D01*
X116391747Y-83128135D01*
X116353981Y-83219311D01*
X116353980Y-83219312D01*
X116299152Y-83301369D01*
X116229369Y-83371152D01*
X116188062Y-83398752D01*
X116147311Y-83425981D01*
X116093902Y-83448104D01*
X116056136Y-83463747D01*
X116007740Y-83473373D01*
X115959345Y-83483000D01*
X115860655Y-83483000D01*
X115812260Y-83473373D01*
X115763864Y-83463747D01*
X115726098Y-83448104D01*
X115672689Y-83425981D01*
X115631938Y-83398752D01*
X115590631Y-83371152D01*
X115520848Y-83301369D01*
X115466020Y-83219312D01*
X115466019Y-83219311D01*
X115428253Y-83128135D01*
X115409000Y-83031345D01*
X115409000Y-82932655D01*
X115428253Y-82835865D01*
X115466019Y-82744689D01*
X115520847Y-82662633D01*
X115520848Y-82662631D01*
X115590631Y-82592848D01*
X115672688Y-82538020D01*
X115672689Y-82538019D01*
X115726098Y-82515896D01*
X115763864Y-82500253D01*
X115812260Y-82490627D01*
X115860655Y-82481000D01*
X115959345Y-82481000D01*
X116007740Y-82490627D01*
G37*
G36*
X120407740Y-82490627D02*
G01*
X120456136Y-82500253D01*
X120493902Y-82515896D01*
X120547311Y-82538019D01*
X120547312Y-82538020D01*
X120629369Y-82592848D01*
X120699152Y-82662631D01*
X120699153Y-82662633D01*
X120753981Y-82744689D01*
X120791747Y-82835865D01*
X120811000Y-82932655D01*
X120811000Y-83031345D01*
X120791747Y-83128135D01*
X120753981Y-83219311D01*
X120753980Y-83219312D01*
X120699152Y-83301369D01*
X120629369Y-83371152D01*
X120588062Y-83398752D01*
X120547311Y-83425981D01*
X120493902Y-83448104D01*
X120456136Y-83463747D01*
X120407740Y-83473374D01*
X120359345Y-83483000D01*
X120260655Y-83483000D01*
X120212260Y-83473373D01*
X120163864Y-83463747D01*
X120126098Y-83448104D01*
X120072689Y-83425981D01*
X120031938Y-83398752D01*
X119990631Y-83371152D01*
X119920848Y-83301369D01*
X119866020Y-83219312D01*
X119866019Y-83219311D01*
X119828253Y-83128135D01*
X119809000Y-83031345D01*
X119809000Y-82932655D01*
X119828253Y-82835865D01*
X119866019Y-82744689D01*
X119920847Y-82662633D01*
X119920848Y-82662631D01*
X119990631Y-82592848D01*
X120072688Y-82538020D01*
X120072689Y-82538019D01*
X120126098Y-82515896D01*
X120163864Y-82500253D01*
X120212260Y-82490627D01*
X120260655Y-82481000D01*
X120359345Y-82481000D01*
X120407740Y-82490627D01*
G37*
G36*
X162097740Y-79442626D02*
G01*
X162146136Y-79452253D01*
X162183902Y-79467896D01*
X162237311Y-79490019D01*
X162237312Y-79490020D01*
X162319369Y-79544848D01*
X162389152Y-79614631D01*
X162389153Y-79614633D01*
X162443981Y-79696689D01*
X162481747Y-79787865D01*
X162501000Y-79884655D01*
X162501000Y-79983345D01*
X162481747Y-80080135D01*
X162443981Y-80171311D01*
X162443980Y-80171312D01*
X162389152Y-80253369D01*
X162319369Y-80323152D01*
X162280684Y-80349000D01*
X162237311Y-80377981D01*
X162183902Y-80400104D01*
X162146136Y-80415747D01*
X162097740Y-80425373D01*
X162049345Y-80435000D01*
X161950655Y-80435000D01*
X161902260Y-80425374D01*
X161853864Y-80415747D01*
X161816098Y-80400104D01*
X161762689Y-80377981D01*
X161719316Y-80349000D01*
X161680631Y-80323152D01*
X161610848Y-80253369D01*
X161556020Y-80171312D01*
X161556019Y-80171311D01*
X161518253Y-80080135D01*
X161499000Y-79983345D01*
X161499000Y-79884655D01*
X161518253Y-79787865D01*
X161556019Y-79696689D01*
X161610847Y-79614633D01*
X161610848Y-79614631D01*
X161680631Y-79544848D01*
X161762688Y-79490020D01*
X161762689Y-79490019D01*
X161816098Y-79467896D01*
X161853864Y-79452253D01*
X161902260Y-79442626D01*
X161950655Y-79433000D01*
X162049345Y-79433000D01*
X162097740Y-79442626D01*
G37*
G36*
X165097740Y-79442626D02*
G01*
X165146136Y-79452253D01*
X165183902Y-79467896D01*
X165237311Y-79490019D01*
X165237312Y-79490020D01*
X165319369Y-79544848D01*
X165389152Y-79614631D01*
X165389153Y-79614633D01*
X165443981Y-79696689D01*
X165481747Y-79787865D01*
X165501000Y-79884655D01*
X165501000Y-79983345D01*
X165481747Y-80080135D01*
X165443981Y-80171311D01*
X165443980Y-80171312D01*
X165389152Y-80253369D01*
X165319369Y-80323152D01*
X165280684Y-80349000D01*
X165237311Y-80377981D01*
X165183902Y-80400104D01*
X165146136Y-80415747D01*
X165097740Y-80425373D01*
X165049345Y-80435000D01*
X164950655Y-80435000D01*
X164902260Y-80425374D01*
X164853864Y-80415747D01*
X164816098Y-80400104D01*
X164762689Y-80377981D01*
X164719316Y-80349000D01*
X164680631Y-80323152D01*
X164610848Y-80253369D01*
X164556020Y-80171312D01*
X164556019Y-80171311D01*
X164518253Y-80080135D01*
X164499000Y-79983345D01*
X164499000Y-79884655D01*
X164518253Y-79787865D01*
X164556019Y-79696689D01*
X164610847Y-79614633D01*
X164610848Y-79614631D01*
X164680631Y-79544848D01*
X164762688Y-79490020D01*
X164762689Y-79490019D01*
X164816098Y-79467896D01*
X164853864Y-79452253D01*
X164902260Y-79442626D01*
X164950655Y-79433000D01*
X165049345Y-79433000D01*
X165097740Y-79442626D01*
G37*
M02*
