%TF.GenerationSoftware,KiCad,Pcbnew,(5.1.9)-1*%
%TF.CreationDate,2021-04-27T12:41:55+01:00*%
%TF.ProjectId,LLC-003,4c4c432d-3030-4332-9e6b-696361645f70,1.0*%
%TF.SameCoordinates,Original*%
%TF.FileFunction,Legend,Bot*%
%TF.FilePolarity,Positive*%
%FSLAX46Y46*%
G04 Gerber Fmt 4.6, Leading zero omitted, Abs format (unit mm)*
G04 Created by KiCad (PCBNEW (5.1.9)-1) date 2021-04-27 12:41:55*
%MOMM*%
%LPD*%
G01*
G04 APERTURE LIST*
%ADD10C,0.200000*%
%ADD11C,0.010000*%
G04 APERTURE END LIST*
D10*
X154164914Y-109605971D02*
X154664914Y-108891685D01*
X155022057Y-109605971D02*
X155022057Y-108105971D01*
X154450628Y-108105971D01*
X154307771Y-108177400D01*
X154236342Y-108248828D01*
X154164914Y-108391685D01*
X154164914Y-108605971D01*
X154236342Y-108748828D01*
X154307771Y-108820257D01*
X154450628Y-108891685D01*
X155022057Y-108891685D01*
X153664914Y-108605971D02*
X153307771Y-109605971D01*
X152950628Y-108605971D02*
X153307771Y-109605971D01*
X153450628Y-109963114D01*
X153522057Y-110034542D01*
X153664914Y-110105971D01*
X151736342Y-109605971D02*
X151736342Y-108820257D01*
X151807771Y-108677400D01*
X151950628Y-108605971D01*
X152236342Y-108605971D01*
X152379200Y-108677400D01*
X151736342Y-109534542D02*
X151879200Y-109605971D01*
X152236342Y-109605971D01*
X152379200Y-109534542D01*
X152450628Y-109391685D01*
X152450628Y-109248828D01*
X152379200Y-109105971D01*
X152236342Y-109034542D01*
X151879200Y-109034542D01*
X151736342Y-108963114D01*
X151022057Y-108605971D02*
X151022057Y-109605971D01*
X151022057Y-108748828D02*
X150950628Y-108677400D01*
X150807771Y-108605971D01*
X150593485Y-108605971D01*
X150450628Y-108677400D01*
X150379200Y-108820257D01*
X150379200Y-109605971D01*
X148593485Y-109534542D02*
X148379200Y-109605971D01*
X148022057Y-109605971D01*
X147879200Y-109534542D01*
X147807771Y-109463114D01*
X147736342Y-109320257D01*
X147736342Y-109177400D01*
X147807771Y-109034542D01*
X147879200Y-108963114D01*
X148022057Y-108891685D01*
X148307771Y-108820257D01*
X148450628Y-108748828D01*
X148522057Y-108677400D01*
X148593485Y-108534542D01*
X148593485Y-108391685D01*
X148522057Y-108248828D01*
X148450628Y-108177400D01*
X148307771Y-108105971D01*
X147950628Y-108105971D01*
X147736342Y-108177400D01*
X147093485Y-109605971D02*
X147093485Y-108605971D01*
X147093485Y-108748828D02*
X147022057Y-108677400D01*
X146879200Y-108605971D01*
X146664914Y-108605971D01*
X146522057Y-108677400D01*
X146450628Y-108820257D01*
X146450628Y-109605971D01*
X146450628Y-108820257D02*
X146379200Y-108677400D01*
X146236342Y-108605971D01*
X146022057Y-108605971D01*
X145879200Y-108677400D01*
X145807771Y-108820257D01*
X145807771Y-109605971D01*
X145093485Y-109605971D02*
X145093485Y-108605971D01*
X145093485Y-108105971D02*
X145164914Y-108177400D01*
X145093485Y-108248828D01*
X145022057Y-108177400D01*
X145093485Y-108105971D01*
X145093485Y-108248828D01*
X144593485Y-108605971D02*
X144022057Y-108605971D01*
X144379200Y-108105971D02*
X144379200Y-109391685D01*
X144307771Y-109534542D01*
X144164914Y-109605971D01*
X144022057Y-109605971D01*
X143522057Y-109605971D02*
X143522057Y-108105971D01*
X142879200Y-109605971D02*
X142879200Y-108820257D01*
X142950628Y-108677400D01*
X143093485Y-108605971D01*
X143307771Y-108605971D01*
X143450628Y-108677400D01*
X143522057Y-108748828D01*
X141093485Y-108248828D02*
X141022057Y-108177400D01*
X140879200Y-108105971D01*
X140522057Y-108105971D01*
X140379200Y-108177400D01*
X140307771Y-108248828D01*
X140236342Y-108391685D01*
X140236342Y-108534542D01*
X140307771Y-108748828D01*
X141164914Y-109605971D01*
X140236342Y-109605971D01*
X139307771Y-108105971D02*
X139164914Y-108105971D01*
X139022057Y-108177400D01*
X138950628Y-108248828D01*
X138879200Y-108391685D01*
X138807771Y-108677400D01*
X138807771Y-109034542D01*
X138879200Y-109320257D01*
X138950628Y-109463114D01*
X139022057Y-109534542D01*
X139164914Y-109605971D01*
X139307771Y-109605971D01*
X139450628Y-109534542D01*
X139522057Y-109463114D01*
X139593485Y-109320257D01*
X139664914Y-109034542D01*
X139664914Y-108677400D01*
X139593485Y-108391685D01*
X139522057Y-108248828D01*
X139450628Y-108177400D01*
X139307771Y-108105971D01*
X138236342Y-108248828D02*
X138164914Y-108177400D01*
X138022057Y-108105971D01*
X137664914Y-108105971D01*
X137522057Y-108177400D01*
X137450628Y-108248828D01*
X137379200Y-108391685D01*
X137379200Y-108534542D01*
X137450628Y-108748828D01*
X138307771Y-109605971D01*
X137379200Y-109605971D01*
X135950628Y-109605971D02*
X136807771Y-109605971D01*
X136379200Y-109605971D02*
X136379200Y-108105971D01*
X136522057Y-108320257D01*
X136664914Y-108463114D01*
X136807771Y-108534542D01*
X154093485Y-111341685D02*
X154164914Y-111270257D01*
X154307771Y-111198828D01*
X154450628Y-111198828D01*
X154593485Y-111270257D01*
X154664914Y-111341685D01*
X154736342Y-111484542D01*
X154736342Y-111627400D01*
X154664914Y-111770257D01*
X154593485Y-111841685D01*
X154450628Y-111913114D01*
X154307771Y-111913114D01*
X154164914Y-111841685D01*
X154093485Y-111770257D01*
X154093485Y-111198828D02*
X154093485Y-111770257D01*
X154022057Y-111841685D01*
X153950628Y-111841685D01*
X153807771Y-111770257D01*
X153736342Y-111627400D01*
X153736342Y-111270257D01*
X153879200Y-111055971D01*
X154093485Y-110913114D01*
X154379200Y-110841685D01*
X154664914Y-110913114D01*
X154879200Y-111055971D01*
X155022057Y-111270257D01*
X155093485Y-111555971D01*
X155022057Y-111841685D01*
X154879200Y-112055971D01*
X154664914Y-112198828D01*
X154379200Y-112270257D01*
X154093485Y-112198828D01*
X153879200Y-112055971D01*
X153307771Y-110555971D02*
X152450628Y-110555971D01*
X152879200Y-112055971D02*
X152879200Y-110555971D01*
X151950628Y-112055971D02*
X151950628Y-110555971D01*
X151307771Y-112055971D02*
X151307771Y-111270257D01*
X151379200Y-111127400D01*
X151522057Y-111055971D01*
X151736342Y-111055971D01*
X151879200Y-111127400D01*
X151950628Y-111198828D01*
X150022057Y-111984542D02*
X150164914Y-112055971D01*
X150450628Y-112055971D01*
X150593485Y-111984542D01*
X150664914Y-111841685D01*
X150664914Y-111270257D01*
X150593485Y-111127400D01*
X150450628Y-111055971D01*
X150164914Y-111055971D01*
X150022057Y-111127400D01*
X149950628Y-111270257D01*
X149950628Y-111413114D01*
X150664914Y-111555971D01*
X149307771Y-112055971D02*
X149307771Y-110555971D01*
X148593485Y-111055971D02*
X148593485Y-112055971D01*
X148593485Y-111198828D02*
X148522057Y-111127400D01*
X148379200Y-111055971D01*
X148164914Y-111055971D01*
X148022057Y-111127400D01*
X147950628Y-111270257D01*
X147950628Y-112055971D01*
X146593485Y-112055971D02*
X146593485Y-110555971D01*
X146593485Y-111984542D02*
X146736342Y-112055971D01*
X147022057Y-112055971D01*
X147164914Y-111984542D01*
X147236342Y-111913114D01*
X147307771Y-111770257D01*
X147307771Y-111341685D01*
X147236342Y-111198828D01*
X147164914Y-111127400D01*
X147022057Y-111055971D01*
X146736342Y-111055971D01*
X146593485Y-111127400D01*
X145879200Y-112055971D02*
X145879200Y-111055971D01*
X145879200Y-110555971D02*
X145950628Y-110627400D01*
X145879200Y-110698828D01*
X145807771Y-110627400D01*
X145879200Y-110555971D01*
X145879200Y-110698828D01*
X144593485Y-111984542D02*
X144736342Y-112055971D01*
X145022057Y-112055971D01*
X145164914Y-111984542D01*
X145236342Y-111841685D01*
X145236342Y-111270257D01*
X145164914Y-111127400D01*
X145022057Y-111055971D01*
X144736342Y-111055971D01*
X144593485Y-111127400D01*
X144522057Y-111270257D01*
X144522057Y-111413114D01*
X145236342Y-111555971D01*
X143093485Y-110627400D02*
X143236342Y-110555971D01*
X143450628Y-110555971D01*
X143664914Y-110627400D01*
X143807771Y-110770257D01*
X143879200Y-110913114D01*
X143950628Y-111198828D01*
X143950628Y-111413114D01*
X143879200Y-111698828D01*
X143807771Y-111841685D01*
X143664914Y-111984542D01*
X143450628Y-112055971D01*
X143307771Y-112055971D01*
X143093485Y-111984542D01*
X143022057Y-111913114D01*
X143022057Y-111413114D01*
X143307771Y-111413114D01*
D11*
%TO.C,G\u002A\u002A\u002A*%
G36*
X150581600Y-94937800D02*
G01*
X150911800Y-94937800D01*
X150911800Y-96284000D01*
X150581600Y-96284000D01*
X150581600Y-96817400D01*
X151851600Y-96817400D01*
X151851600Y-96284000D01*
X151521400Y-96284000D01*
X151521400Y-94937800D01*
X151851600Y-94937800D01*
X151851600Y-94404400D01*
X150581600Y-94404400D01*
X150581600Y-94937800D01*
G37*
X150581600Y-94937800D02*
X150911800Y-94937800D01*
X150911800Y-96284000D01*
X150581600Y-96284000D01*
X150581600Y-96817400D01*
X151851600Y-96817400D01*
X151851600Y-96284000D01*
X151521400Y-96284000D01*
X151521400Y-94937800D01*
X151851600Y-94937800D01*
X151851600Y-94404400D01*
X150581600Y-94404400D01*
X150581600Y-94937800D01*
G36*
X149438600Y-95153700D02*
G01*
X149330238Y-95329016D01*
X149230104Y-95489769D01*
X149141330Y-95631023D01*
X149067050Y-95747846D01*
X149010398Y-95835303D01*
X148974507Y-95888461D01*
X148962720Y-95903000D01*
X148959657Y-95878653D01*
X148958007Y-95809783D01*
X148957741Y-95702649D01*
X148958828Y-95563507D01*
X148961238Y-95398614D01*
X148964940Y-95214227D01*
X148966355Y-95153700D01*
X148984453Y-94404400D01*
X148397200Y-94404400D01*
X148397200Y-96819118D01*
X148668222Y-96811909D01*
X148939243Y-96804700D01*
X149381304Y-96093500D01*
X149488377Y-95921715D01*
X149587661Y-95763338D01*
X149675801Y-95623650D01*
X149749441Y-95507935D01*
X149805223Y-95421477D01*
X149839791Y-95369560D01*
X149849233Y-95356900D01*
X149857377Y-95370966D01*
X149863297Y-95431906D01*
X149867014Y-95540550D01*
X149868546Y-95697725D01*
X149867913Y-95904259D01*
X149866243Y-96074450D01*
X149857386Y-96817400D01*
X150429200Y-96817400D01*
X150429200Y-94404400D01*
X149900018Y-94404400D01*
X149438600Y-95153700D01*
G37*
X149438600Y-95153700D02*
X149330238Y-95329016D01*
X149230104Y-95489769D01*
X149141330Y-95631023D01*
X149067050Y-95747846D01*
X149010398Y-95835303D01*
X148974507Y-95888461D01*
X148962720Y-95903000D01*
X148959657Y-95878653D01*
X148958007Y-95809783D01*
X148957741Y-95702649D01*
X148958828Y-95563507D01*
X148961238Y-95398614D01*
X148964940Y-95214227D01*
X148966355Y-95153700D01*
X148984453Y-94404400D01*
X148397200Y-94404400D01*
X148397200Y-96819118D01*
X148668222Y-96811909D01*
X148939243Y-96804700D01*
X149381304Y-96093500D01*
X149488377Y-95921715D01*
X149587661Y-95763338D01*
X149675801Y-95623650D01*
X149749441Y-95507935D01*
X149805223Y-95421477D01*
X149839791Y-95369560D01*
X149849233Y-95356900D01*
X149857377Y-95370966D01*
X149863297Y-95431906D01*
X149867014Y-95540550D01*
X149868546Y-95697725D01*
X149867913Y-95904259D01*
X149866243Y-96074450D01*
X149857386Y-96817400D01*
X150429200Y-96817400D01*
X150429200Y-94404400D01*
X149900018Y-94404400D01*
X149438600Y-95153700D01*
G36*
X147412360Y-94407091D02*
G01*
X147202446Y-94416437D01*
X147029279Y-94434351D01*
X146885943Y-94462742D01*
X146765522Y-94503522D01*
X146661102Y-94558600D01*
X146565767Y-94629889D01*
X146472601Y-94719298D01*
X146453808Y-94739319D01*
X146314308Y-94919872D01*
X146216569Y-95117684D01*
X146158295Y-95339151D01*
X146137189Y-95590671D01*
X146137042Y-95621914D01*
X146157595Y-95878662D01*
X146216546Y-96110486D01*
X146311958Y-96313778D01*
X146441894Y-96484930D01*
X146604418Y-96620333D01*
X146703017Y-96676325D01*
X146807818Y-96721891D01*
X146918534Y-96757040D01*
X147043315Y-96782915D01*
X147190310Y-96800660D01*
X147367669Y-96811420D01*
X147583540Y-96816336D01*
X147705050Y-96816958D01*
X148219400Y-96817400D01*
X148219400Y-94937800D01*
X147609800Y-94937800D01*
X147609800Y-96290059D01*
X147373595Y-96279728D01*
X147252091Y-96272267D01*
X147165231Y-96260067D01*
X147096869Y-96239479D01*
X147030862Y-96206854D01*
X147017831Y-96199332D01*
X146918781Y-96124623D01*
X146844287Y-96024657D01*
X146829196Y-95997083D01*
X146796604Y-95929262D01*
X146776106Y-95866976D01*
X146764932Y-95794882D01*
X146760314Y-95697634D01*
X146759509Y-95610900D01*
X146760433Y-95490652D01*
X146765813Y-95406054D01*
X146778539Y-95341979D01*
X146801496Y-95283301D01*
X146833805Y-95221680D01*
X146911682Y-95105521D01*
X147002114Y-95023595D01*
X147114289Y-94971379D01*
X147257394Y-94944350D01*
X147410391Y-94937800D01*
X147609800Y-94937800D01*
X148219400Y-94937800D01*
X148219400Y-94404400D01*
X147665937Y-94404400D01*
X147412360Y-94407091D01*
G37*
X147412360Y-94407091D02*
X147202446Y-94416437D01*
X147029279Y-94434351D01*
X146885943Y-94462742D01*
X146765522Y-94503522D01*
X146661102Y-94558600D01*
X146565767Y-94629889D01*
X146472601Y-94719298D01*
X146453808Y-94739319D01*
X146314308Y-94919872D01*
X146216569Y-95117684D01*
X146158295Y-95339151D01*
X146137189Y-95590671D01*
X146137042Y-95621914D01*
X146157595Y-95878662D01*
X146216546Y-96110486D01*
X146311958Y-96313778D01*
X146441894Y-96484930D01*
X146604418Y-96620333D01*
X146703017Y-96676325D01*
X146807818Y-96721891D01*
X146918534Y-96757040D01*
X147043315Y-96782915D01*
X147190310Y-96800660D01*
X147367669Y-96811420D01*
X147583540Y-96816336D01*
X147705050Y-96816958D01*
X148219400Y-96817400D01*
X148219400Y-94937800D01*
X147609800Y-94937800D01*
X147609800Y-96290059D01*
X147373595Y-96279728D01*
X147252091Y-96272267D01*
X147165231Y-96260067D01*
X147096869Y-96239479D01*
X147030862Y-96206854D01*
X147017831Y-96199332D01*
X146918781Y-96124623D01*
X146844287Y-96024657D01*
X146829196Y-95997083D01*
X146796604Y-95929262D01*
X146776106Y-95866976D01*
X146764932Y-95794882D01*
X146760314Y-95697634D01*
X146759509Y-95610900D01*
X146760433Y-95490652D01*
X146765813Y-95406054D01*
X146778539Y-95341979D01*
X146801496Y-95283301D01*
X146833805Y-95221680D01*
X146911682Y-95105521D01*
X147002114Y-95023595D01*
X147114289Y-94971379D01*
X147257394Y-94944350D01*
X147410391Y-94937800D01*
X147609800Y-94937800D01*
X148219400Y-94937800D01*
X148219400Y-94404400D01*
X147665937Y-94404400D01*
X147412360Y-94407091D01*
G36*
X145349200Y-96817400D02*
G01*
X145958800Y-96817400D01*
X145958800Y-94404400D01*
X145349200Y-94404400D01*
X145349200Y-96817400D01*
G37*
X145349200Y-96817400D02*
X145958800Y-96817400D01*
X145958800Y-94404400D01*
X145349200Y-94404400D01*
X145349200Y-96817400D01*
G36*
X143876000Y-94937800D02*
G01*
X144638000Y-94937800D01*
X144638000Y-95318800D01*
X144231600Y-95318800D01*
X144231600Y-95850063D01*
X144428450Y-95857481D01*
X144625300Y-95864900D01*
X144625300Y-96271300D01*
X143876000Y-96285358D01*
X143876000Y-96817400D01*
X145222200Y-96817400D01*
X145222200Y-94404400D01*
X143876000Y-94404400D01*
X143876000Y-94937800D01*
G37*
X143876000Y-94937800D02*
X144638000Y-94937800D01*
X144638000Y-95318800D01*
X144231600Y-95318800D01*
X144231600Y-95850063D01*
X144428450Y-95857481D01*
X144625300Y-95864900D01*
X144625300Y-96271300D01*
X143876000Y-96285358D01*
X143876000Y-96817400D01*
X145222200Y-96817400D01*
X145222200Y-94404400D01*
X143876000Y-94404400D01*
X143876000Y-94937800D01*
G36*
X141520150Y-94409112D02*
G01*
X141327482Y-94412397D01*
X141178178Y-94415953D01*
X141064806Y-94420463D01*
X140979932Y-94426610D01*
X140916124Y-94435077D01*
X140865947Y-94446546D01*
X140821969Y-94461701D01*
X140787390Y-94476429D01*
X140639846Y-94566811D01*
X140508507Y-94693305D01*
X140407950Y-94841249D01*
X140391823Y-94874300D01*
X140352128Y-95003398D01*
X140332601Y-95158744D01*
X140333345Y-95321407D01*
X140354460Y-95472458D01*
X140388046Y-95576588D01*
X140474436Y-95716763D01*
X140591571Y-95837108D01*
X140725681Y-95924519D01*
X140775581Y-95945442D01*
X140847021Y-95973649D01*
X140893723Y-95997526D01*
X140904200Y-96007836D01*
X140889083Y-96031917D01*
X140846918Y-96089330D01*
X140782491Y-96173814D01*
X140700585Y-96279110D01*
X140605985Y-96398959D01*
X140588471Y-96420974D01*
X140272741Y-96817400D01*
X140975367Y-96817400D01*
X141818785Y-95636300D01*
X141481008Y-95623600D01*
X141319959Y-95615442D01*
X141200544Y-95602729D01*
X141113613Y-95582239D01*
X141050018Y-95550753D01*
X141000609Y-95505051D01*
X140956237Y-95441912D01*
X140953883Y-95438069D01*
X140910049Y-95322522D01*
X140916380Y-95201036D01*
X140948690Y-95115600D01*
X140981762Y-95058885D01*
X141021635Y-95015534D01*
X141075176Y-94983797D01*
X141149255Y-94961927D01*
X141250738Y-94948176D01*
X141386493Y-94940796D01*
X141563388Y-94938039D01*
X141647150Y-94937839D01*
X142123400Y-94937800D01*
X142123400Y-94399716D01*
X141520150Y-94409112D01*
G37*
X141520150Y-94409112D02*
X141327482Y-94412397D01*
X141178178Y-94415953D01*
X141064806Y-94420463D01*
X140979932Y-94426610D01*
X140916124Y-94435077D01*
X140865947Y-94446546D01*
X140821969Y-94461701D01*
X140787390Y-94476429D01*
X140639846Y-94566811D01*
X140508507Y-94693305D01*
X140407950Y-94841249D01*
X140391823Y-94874300D01*
X140352128Y-95003398D01*
X140332601Y-95158744D01*
X140333345Y-95321407D01*
X140354460Y-95472458D01*
X140388046Y-95576588D01*
X140474436Y-95716763D01*
X140591571Y-95837108D01*
X140725681Y-95924519D01*
X140775581Y-95945442D01*
X140847021Y-95973649D01*
X140893723Y-95997526D01*
X140904200Y-96007836D01*
X140889083Y-96031917D01*
X140846918Y-96089330D01*
X140782491Y-96173814D01*
X140700585Y-96279110D01*
X140605985Y-96398959D01*
X140588471Y-96420974D01*
X140272741Y-96817400D01*
X140975367Y-96817400D01*
X141818785Y-95636300D01*
X141481008Y-95623600D01*
X141319959Y-95615442D01*
X141200544Y-95602729D01*
X141113613Y-95582239D01*
X141050018Y-95550753D01*
X141000609Y-95505051D01*
X140956237Y-95441912D01*
X140953883Y-95438069D01*
X140910049Y-95322522D01*
X140916380Y-95201036D01*
X140948690Y-95115600D01*
X140981762Y-95058885D01*
X141021635Y-95015534D01*
X141075176Y-94983797D01*
X141149255Y-94961927D01*
X141250738Y-94948176D01*
X141386493Y-94940796D01*
X141563388Y-94938039D01*
X141647150Y-94937839D01*
X142123400Y-94937800D01*
X142123400Y-94399716D01*
X141520150Y-94409112D01*
G36*
X138717378Y-94410462D02*
G01*
X138589802Y-94423072D01*
X138569142Y-94427053D01*
X138378185Y-94489201D01*
X138189423Y-94588991D01*
X138015830Y-94717221D01*
X137870377Y-94864694D01*
X137788590Y-94980623D01*
X137695049Y-95186686D01*
X137641178Y-95410884D01*
X137626873Y-95642791D01*
X137652028Y-95871979D01*
X137716539Y-96088023D01*
X137801378Y-96252202D01*
X137951786Y-96440989D01*
X138134519Y-96594039D01*
X138343524Y-96708896D01*
X138572747Y-96783104D01*
X138816133Y-96814206D01*
X139067630Y-96799746D01*
X139126200Y-96789676D01*
X139206424Y-96767015D01*
X139309837Y-96728266D01*
X139414958Y-96681529D01*
X139421648Y-96678255D01*
X139583252Y-96577729D01*
X139737915Y-96443643D01*
X139871541Y-96290151D01*
X139970033Y-96131407D01*
X139973552Y-96124074D01*
X140046672Y-95912455D01*
X140077788Y-95681802D01*
X140071224Y-95539236D01*
X139476943Y-95539236D01*
X139476246Y-95658627D01*
X139442525Y-95849777D01*
X139369367Y-96011117D01*
X139258570Y-96140138D01*
X139111928Y-96234327D01*
X139045362Y-96261094D01*
X138941151Y-96293498D01*
X138860792Y-96305759D01*
X138781800Y-96298550D01*
X138681688Y-96272544D01*
X138679961Y-96272029D01*
X138522329Y-96199775D01*
X138392942Y-96088430D01*
X138295988Y-95943648D01*
X138235658Y-95771083D01*
X138218225Y-95649000D01*
X138226899Y-95465982D01*
X138275508Y-95301657D01*
X138358175Y-95160455D01*
X138469022Y-95046803D01*
X138602174Y-94965133D01*
X138751753Y-94919872D01*
X138911883Y-94915451D01*
X139076687Y-94956298D01*
X139115300Y-94972871D01*
X139262321Y-95067528D01*
X139372833Y-95195814D01*
X139444990Y-95354220D01*
X139476943Y-95539236D01*
X140071224Y-95539236D01*
X140066741Y-95441883D01*
X140013368Y-95202472D01*
X139989808Y-95134150D01*
X139904411Y-94967468D01*
X139779859Y-94806262D01*
X139627509Y-94661397D01*
X139458719Y-94543737D01*
X139291895Y-94466512D01*
X139176405Y-94438588D01*
X139029565Y-94419252D01*
X138870261Y-94409533D01*
X138717378Y-94410462D01*
G37*
X138717378Y-94410462D02*
X138589802Y-94423072D01*
X138569142Y-94427053D01*
X138378185Y-94489201D01*
X138189423Y-94588991D01*
X138015830Y-94717221D01*
X137870377Y-94864694D01*
X137788590Y-94980623D01*
X137695049Y-95186686D01*
X137641178Y-95410884D01*
X137626873Y-95642791D01*
X137652028Y-95871979D01*
X137716539Y-96088023D01*
X137801378Y-96252202D01*
X137951786Y-96440989D01*
X138134519Y-96594039D01*
X138343524Y-96708896D01*
X138572747Y-96783104D01*
X138816133Y-96814206D01*
X139067630Y-96799746D01*
X139126200Y-96789676D01*
X139206424Y-96767015D01*
X139309837Y-96728266D01*
X139414958Y-96681529D01*
X139421648Y-96678255D01*
X139583252Y-96577729D01*
X139737915Y-96443643D01*
X139871541Y-96290151D01*
X139970033Y-96131407D01*
X139973552Y-96124074D01*
X140046672Y-95912455D01*
X140077788Y-95681802D01*
X140071224Y-95539236D01*
X139476943Y-95539236D01*
X139476246Y-95658627D01*
X139442525Y-95849777D01*
X139369367Y-96011117D01*
X139258570Y-96140138D01*
X139111928Y-96234327D01*
X139045362Y-96261094D01*
X138941151Y-96293498D01*
X138860792Y-96305759D01*
X138781800Y-96298550D01*
X138681688Y-96272544D01*
X138679961Y-96272029D01*
X138522329Y-96199775D01*
X138392942Y-96088430D01*
X138295988Y-95943648D01*
X138235658Y-95771083D01*
X138218225Y-95649000D01*
X138226899Y-95465982D01*
X138275508Y-95301657D01*
X138358175Y-95160455D01*
X138469022Y-95046803D01*
X138602174Y-94965133D01*
X138751753Y-94919872D01*
X138911883Y-94915451D01*
X139076687Y-94956298D01*
X139115300Y-94972871D01*
X139262321Y-95067528D01*
X139372833Y-95195814D01*
X139444990Y-95354220D01*
X139476943Y-95539236D01*
X140071224Y-95539236D01*
X140066741Y-95441883D01*
X140013368Y-95202472D01*
X139989808Y-95134150D01*
X139904411Y-94967468D01*
X139779859Y-94806262D01*
X139627509Y-94661397D01*
X139458719Y-94543737D01*
X139291895Y-94466512D01*
X139176405Y-94438588D01*
X139029565Y-94419252D01*
X138870261Y-94409533D01*
X138717378Y-94410462D01*
G36*
X136715175Y-94405771D02*
G01*
X136540218Y-94410790D01*
X136401668Y-94420819D01*
X136292357Y-94437214D01*
X136205112Y-94461337D01*
X136132765Y-94494547D01*
X136068145Y-94538203D01*
X136021917Y-94577283D01*
X135909180Y-94708817D01*
X135843811Y-94858179D01*
X135824758Y-95008465D01*
X135845366Y-95176074D01*
X135910648Y-95322011D01*
X135991441Y-95422393D01*
X136080002Y-95513286D01*
X135956069Y-95590327D01*
X135837152Y-95689914D01*
X135758389Y-95817258D01*
X135718281Y-95975381D01*
X135712142Y-96082264D01*
X135729285Y-96265449D01*
X135782933Y-96418425D01*
X135876416Y-96549457D01*
X135916324Y-96589059D01*
X135986717Y-96651625D01*
X136051250Y-96700747D01*
X136117345Y-96738166D01*
X136192424Y-96765620D01*
X136283908Y-96784848D01*
X136399218Y-96797588D01*
X136545777Y-96805579D01*
X136731005Y-96810560D01*
X136871950Y-96812951D01*
X137475200Y-96822083D01*
X137475200Y-96284000D01*
X136891000Y-96284000D01*
X136699685Y-96284000D01*
X136590124Y-96279093D01*
X136490614Y-96266144D01*
X136423066Y-96248358D01*
X136345299Y-96192309D01*
X136302461Y-96112778D01*
X136295069Y-96023530D01*
X136323644Y-95938333D01*
X136388705Y-95870953D01*
X136408400Y-95859667D01*
X136465006Y-95843960D01*
X136555890Y-95832518D01*
X136664582Y-95827299D01*
X136681450Y-95827174D01*
X136891000Y-95826800D01*
X136891000Y-96284000D01*
X137475200Y-96284000D01*
X137475200Y-95324352D01*
X136891000Y-95324352D01*
X136697744Y-95314593D01*
X136594528Y-95307245D01*
X136528550Y-95295376D01*
X136486252Y-95275104D01*
X136456444Y-95245503D01*
X136415555Y-95160338D01*
X136414565Y-95067656D01*
X136444240Y-95000095D01*
X136472605Y-94974141D01*
X136519356Y-94957431D01*
X136596106Y-94947159D01*
X136685540Y-94941751D01*
X136891000Y-94932421D01*
X136891000Y-95324352D01*
X137475200Y-95324352D01*
X137475200Y-94404400D01*
X136933711Y-94404400D01*
X136715175Y-94405771D01*
G37*
X136715175Y-94405771D02*
X136540218Y-94410790D01*
X136401668Y-94420819D01*
X136292357Y-94437214D01*
X136205112Y-94461337D01*
X136132765Y-94494547D01*
X136068145Y-94538203D01*
X136021917Y-94577283D01*
X135909180Y-94708817D01*
X135843811Y-94858179D01*
X135824758Y-95008465D01*
X135845366Y-95176074D01*
X135910648Y-95322011D01*
X135991441Y-95422393D01*
X136080002Y-95513286D01*
X135956069Y-95590327D01*
X135837152Y-95689914D01*
X135758389Y-95817258D01*
X135718281Y-95975381D01*
X135712142Y-96082264D01*
X135729285Y-96265449D01*
X135782933Y-96418425D01*
X135876416Y-96549457D01*
X135916324Y-96589059D01*
X135986717Y-96651625D01*
X136051250Y-96700747D01*
X136117345Y-96738166D01*
X136192424Y-96765620D01*
X136283908Y-96784848D01*
X136399218Y-96797588D01*
X136545777Y-96805579D01*
X136731005Y-96810560D01*
X136871950Y-96812951D01*
X137475200Y-96822083D01*
X137475200Y-96284000D01*
X136891000Y-96284000D01*
X136699685Y-96284000D01*
X136590124Y-96279093D01*
X136490614Y-96266144D01*
X136423066Y-96248358D01*
X136345299Y-96192309D01*
X136302461Y-96112778D01*
X136295069Y-96023530D01*
X136323644Y-95938333D01*
X136388705Y-95870953D01*
X136408400Y-95859667D01*
X136465006Y-95843960D01*
X136555890Y-95832518D01*
X136664582Y-95827299D01*
X136681450Y-95827174D01*
X136891000Y-95826800D01*
X136891000Y-96284000D01*
X137475200Y-96284000D01*
X137475200Y-95324352D01*
X136891000Y-95324352D01*
X136697744Y-95314593D01*
X136594528Y-95307245D01*
X136528550Y-95295376D01*
X136486252Y-95275104D01*
X136456444Y-95245503D01*
X136415555Y-95160338D01*
X136414565Y-95067656D01*
X136444240Y-95000095D01*
X136472605Y-94974141D01*
X136519356Y-94957431D01*
X136596106Y-94947159D01*
X136685540Y-94941751D01*
X136891000Y-94932421D01*
X136891000Y-95324352D01*
X137475200Y-95324352D01*
X137475200Y-94404400D01*
X136933711Y-94404400D01*
X136715175Y-94405771D01*
G36*
X134180335Y-94408365D02*
G01*
X134041016Y-94423350D01*
X134023846Y-94426773D01*
X133797094Y-94500205D01*
X133593446Y-94615160D01*
X133417475Y-94765972D01*
X133273756Y-94946973D01*
X133166865Y-95152495D01*
X133101376Y-95376871D01*
X133081621Y-95594112D01*
X133099737Y-95834486D01*
X133154709Y-96045603D01*
X133249942Y-96236438D01*
X133388843Y-96415967D01*
X133396721Y-96424513D01*
X133577035Y-96582493D01*
X133784746Y-96701996D01*
X134011490Y-96780626D01*
X134248902Y-96815985D01*
X134488618Y-96805675D01*
X134627547Y-96777254D01*
X134839430Y-96697724D01*
X135036977Y-96580405D01*
X135210396Y-96433106D01*
X135349893Y-96263636D01*
X135416267Y-96148346D01*
X135498377Y-95923791D01*
X135534261Y-95693291D01*
X135533897Y-95682703D01*
X134934746Y-95682703D01*
X134897632Y-95852431D01*
X134822969Y-96008447D01*
X134724123Y-96128573D01*
X134641232Y-96189473D01*
X134533002Y-96245635D01*
X134419885Y-96288144D01*
X134322333Y-96308088D01*
X134311161Y-96308570D01*
X134257516Y-96301965D01*
X134177488Y-96284154D01*
X134124660Y-96269617D01*
X133985326Y-96203239D01*
X133862582Y-96097207D01*
X133763633Y-95961796D01*
X133695684Y-95807277D01*
X133665941Y-95643923D01*
X133665200Y-95614557D01*
X133686707Y-95446291D01*
X133746650Y-95284021D01*
X133838166Y-95139186D01*
X133954392Y-95023223D01*
X134057917Y-94960113D01*
X134211965Y-94916691D01*
X134375949Y-94916581D01*
X134536868Y-94957769D01*
X134681717Y-95038242D01*
X134710249Y-95061115D01*
X134822064Y-95188471D01*
X134896836Y-95341002D01*
X134934439Y-95508986D01*
X134934746Y-95682703D01*
X135533897Y-95682703D01*
X135526337Y-95463210D01*
X135477018Y-95239911D01*
X135388721Y-95029758D01*
X135263859Y-94839113D01*
X135104849Y-94674341D01*
X134914106Y-94541804D01*
X134782800Y-94479343D01*
X134661710Y-94444475D01*
X134508835Y-94420185D01*
X134342326Y-94407729D01*
X134180335Y-94408365D01*
G37*
X134180335Y-94408365D02*
X134041016Y-94423350D01*
X134023846Y-94426773D01*
X133797094Y-94500205D01*
X133593446Y-94615160D01*
X133417475Y-94765972D01*
X133273756Y-94946973D01*
X133166865Y-95152495D01*
X133101376Y-95376871D01*
X133081621Y-95594112D01*
X133099737Y-95834486D01*
X133154709Y-96045603D01*
X133249942Y-96236438D01*
X133388843Y-96415967D01*
X133396721Y-96424513D01*
X133577035Y-96582493D01*
X133784746Y-96701996D01*
X134011490Y-96780626D01*
X134248902Y-96815985D01*
X134488618Y-96805675D01*
X134627547Y-96777254D01*
X134839430Y-96697724D01*
X135036977Y-96580405D01*
X135210396Y-96433106D01*
X135349893Y-96263636D01*
X135416267Y-96148346D01*
X135498377Y-95923791D01*
X135534261Y-95693291D01*
X135533897Y-95682703D01*
X134934746Y-95682703D01*
X134897632Y-95852431D01*
X134822969Y-96008447D01*
X134724123Y-96128573D01*
X134641232Y-96189473D01*
X134533002Y-96245635D01*
X134419885Y-96288144D01*
X134322333Y-96308088D01*
X134311161Y-96308570D01*
X134257516Y-96301965D01*
X134177488Y-96284154D01*
X134124660Y-96269617D01*
X133985326Y-96203239D01*
X133862582Y-96097207D01*
X133763633Y-95961796D01*
X133695684Y-95807277D01*
X133665941Y-95643923D01*
X133665200Y-95614557D01*
X133686707Y-95446291D01*
X133746650Y-95284021D01*
X133838166Y-95139186D01*
X133954392Y-95023223D01*
X134057917Y-94960113D01*
X134211965Y-94916691D01*
X134375949Y-94916581D01*
X134536868Y-94957769D01*
X134681717Y-95038242D01*
X134710249Y-95061115D01*
X134822064Y-95188471D01*
X134896836Y-95341002D01*
X134934439Y-95508986D01*
X134934746Y-95682703D01*
X135533897Y-95682703D01*
X135526337Y-95463210D01*
X135477018Y-95239911D01*
X135388721Y-95029758D01*
X135263859Y-94839113D01*
X135104849Y-94674341D01*
X134914106Y-94541804D01*
X134782800Y-94479343D01*
X134661710Y-94444475D01*
X134508835Y-94420185D01*
X134342326Y-94407729D01*
X134180335Y-94408365D01*
G36*
X131379200Y-94937800D02*
G01*
X131861800Y-94937800D01*
X131861800Y-96817400D01*
X132471400Y-96817400D01*
X132471400Y-94937800D01*
X132954000Y-94937800D01*
X132954000Y-94404400D01*
X131379200Y-94404400D01*
X131379200Y-94937800D01*
G37*
X131379200Y-94937800D02*
X131861800Y-94937800D01*
X131861800Y-96817400D01*
X132471400Y-96817400D01*
X132471400Y-94937800D01*
X132954000Y-94937800D01*
X132954000Y-94404400D01*
X131379200Y-94404400D01*
X131379200Y-94937800D01*
G36*
X130642600Y-96817400D02*
G01*
X131252200Y-96817400D01*
X131252200Y-94404400D01*
X130642600Y-94404400D01*
X130642600Y-96817400D01*
G37*
X130642600Y-96817400D02*
X131252200Y-96817400D01*
X131252200Y-94404400D01*
X130642600Y-94404400D01*
X130642600Y-96817400D01*
G36*
X128813800Y-94912400D02*
G01*
X129099550Y-94913514D01*
X129299100Y-94921821D01*
X129457714Y-94947461D01*
X129583389Y-94994121D01*
X129684121Y-95065488D01*
X129767908Y-95165247D01*
X129815066Y-95243366D01*
X129882147Y-95414104D01*
X129905586Y-95590944D01*
X129887900Y-95765483D01*
X129831607Y-95929315D01*
X129739226Y-96074037D01*
X129613275Y-96191245D01*
X129513713Y-96249108D01*
X129448425Y-96276328D01*
X129383781Y-96293943D01*
X129306013Y-96303949D01*
X129201353Y-96308342D01*
X129099550Y-96309151D01*
X128813800Y-96309400D01*
X128813800Y-96817400D01*
X129137650Y-96814617D01*
X129272990Y-96811763D01*
X129400972Y-96806064D01*
X129507031Y-96798349D01*
X129575800Y-96789608D01*
X129768414Y-96727764D01*
X129952989Y-96622852D01*
X130121811Y-96482606D01*
X130267165Y-96314758D01*
X130381336Y-96127040D01*
X130456609Y-95927184D01*
X130463263Y-95900160D01*
X130476286Y-95817452D01*
X130485739Y-95707707D01*
X130489579Y-95594665D01*
X130489580Y-95594525D01*
X130465992Y-95350672D01*
X130395895Y-95121861D01*
X130282687Y-94913635D01*
X130129763Y-94731535D01*
X129940518Y-94581104D01*
X129829800Y-94517699D01*
X129717709Y-94469893D01*
X129594000Y-94436561D01*
X129447835Y-94415900D01*
X129268373Y-94406108D01*
X129150350Y-94404701D01*
X128813800Y-94404400D01*
X128813800Y-94912400D01*
G37*
X128813800Y-94912400D02*
X129099550Y-94913514D01*
X129299100Y-94921821D01*
X129457714Y-94947461D01*
X129583389Y-94994121D01*
X129684121Y-95065488D01*
X129767908Y-95165247D01*
X129815066Y-95243366D01*
X129882147Y-95414104D01*
X129905586Y-95590944D01*
X129887900Y-95765483D01*
X129831607Y-95929315D01*
X129739226Y-96074037D01*
X129613275Y-96191245D01*
X129513713Y-96249108D01*
X129448425Y-96276328D01*
X129383781Y-96293943D01*
X129306013Y-96303949D01*
X129201353Y-96308342D01*
X129099550Y-96309151D01*
X128813800Y-96309400D01*
X128813800Y-96817400D01*
X129137650Y-96814617D01*
X129272990Y-96811763D01*
X129400972Y-96806064D01*
X129507031Y-96798349D01*
X129575800Y-96789608D01*
X129768414Y-96727764D01*
X129952989Y-96622852D01*
X130121811Y-96482606D01*
X130267165Y-96314758D01*
X130381336Y-96127040D01*
X130456609Y-95927184D01*
X130463263Y-95900160D01*
X130476286Y-95817452D01*
X130485739Y-95707707D01*
X130489579Y-95594665D01*
X130489580Y-95594525D01*
X130465992Y-95350672D01*
X130395895Y-95121861D01*
X130282687Y-94913635D01*
X130129763Y-94731535D01*
X129940518Y-94581104D01*
X129829800Y-94517699D01*
X129717709Y-94469893D01*
X129594000Y-94436561D01*
X129447835Y-94415900D01*
X129268373Y-94406108D01*
X129150350Y-94404701D01*
X128813800Y-94404400D01*
X128813800Y-94912400D01*
G36*
X127061200Y-94887000D02*
G01*
X127502275Y-94887000D01*
X127663433Y-94887414D01*
X127781974Y-94889223D01*
X127866077Y-94893274D01*
X127923921Y-94900415D01*
X127963686Y-94911493D01*
X127993552Y-94927356D01*
X128010275Y-94939643D01*
X128061706Y-95007932D01*
X128078074Y-95092286D01*
X128057758Y-95173400D01*
X128032750Y-95207299D01*
X127993792Y-95234479D01*
X127918757Y-95277233D01*
X127817802Y-95330087D01*
X127701085Y-95387562D01*
X127678874Y-95398123D01*
X127480679Y-95498448D01*
X127327218Y-95593048D01*
X127213690Y-95687470D01*
X127135296Y-95787259D01*
X127087235Y-95897962D01*
X127064707Y-96025126D01*
X127061449Y-96111538D01*
X127081357Y-96304684D01*
X127141492Y-96467298D01*
X127243309Y-96601670D01*
X127388264Y-96710091D01*
X127467600Y-96750863D01*
X127511133Y-96768680D01*
X127559012Y-96782285D01*
X127619081Y-96792422D01*
X127699187Y-96799834D01*
X127807175Y-96805266D01*
X127950890Y-96809461D01*
X128121650Y-96812872D01*
X128661400Y-96822452D01*
X128661400Y-96334800D01*
X128253739Y-96334800D01*
X128059730Y-96332119D01*
X127910729Y-96322526D01*
X127801155Y-96303693D01*
X127725423Y-96273293D01*
X127677950Y-96228999D01*
X127653152Y-96168485D01*
X127645446Y-96089423D01*
X127645400Y-96081257D01*
X127653660Y-96025452D01*
X127682415Y-95975079D01*
X127737637Y-95925522D01*
X127825292Y-95872164D01*
X127951350Y-95810392D01*
X128055618Y-95764013D01*
X128259265Y-95666152D01*
X128416354Y-95567742D01*
X128530966Y-95464210D01*
X128607184Y-95350988D01*
X128649090Y-95223503D01*
X128660843Y-95086361D01*
X128643517Y-94919215D01*
X128589333Y-94779833D01*
X128493054Y-94656224D01*
X128458930Y-94623788D01*
X128384719Y-94559867D01*
X128316116Y-94510560D01*
X128244939Y-94473848D01*
X128163007Y-94447712D01*
X128062140Y-94430132D01*
X127934156Y-94419090D01*
X127770875Y-94412567D01*
X127588250Y-94408910D01*
X127061200Y-94400721D01*
X127061200Y-94887000D01*
G37*
X127061200Y-94887000D02*
X127502275Y-94887000D01*
X127663433Y-94887414D01*
X127781974Y-94889223D01*
X127866077Y-94893274D01*
X127923921Y-94900415D01*
X127963686Y-94911493D01*
X127993552Y-94927356D01*
X128010275Y-94939643D01*
X128061706Y-95007932D01*
X128078074Y-95092286D01*
X128057758Y-95173400D01*
X128032750Y-95207299D01*
X127993792Y-95234479D01*
X127918757Y-95277233D01*
X127817802Y-95330087D01*
X127701085Y-95387562D01*
X127678874Y-95398123D01*
X127480679Y-95498448D01*
X127327218Y-95593048D01*
X127213690Y-95687470D01*
X127135296Y-95787259D01*
X127087235Y-95897962D01*
X127064707Y-96025126D01*
X127061449Y-96111538D01*
X127081357Y-96304684D01*
X127141492Y-96467298D01*
X127243309Y-96601670D01*
X127388264Y-96710091D01*
X127467600Y-96750863D01*
X127511133Y-96768680D01*
X127559012Y-96782285D01*
X127619081Y-96792422D01*
X127699187Y-96799834D01*
X127807175Y-96805266D01*
X127950890Y-96809461D01*
X128121650Y-96812872D01*
X128661400Y-96822452D01*
X128661400Y-96334800D01*
X128253739Y-96334800D01*
X128059730Y-96332119D01*
X127910729Y-96322526D01*
X127801155Y-96303693D01*
X127725423Y-96273293D01*
X127677950Y-96228999D01*
X127653152Y-96168485D01*
X127645446Y-96089423D01*
X127645400Y-96081257D01*
X127653660Y-96025452D01*
X127682415Y-95975079D01*
X127737637Y-95925522D01*
X127825292Y-95872164D01*
X127951350Y-95810392D01*
X128055618Y-95764013D01*
X128259265Y-95666152D01*
X128416354Y-95567742D01*
X128530966Y-95464210D01*
X128607184Y-95350988D01*
X128649090Y-95223503D01*
X128660843Y-95086361D01*
X128643517Y-94919215D01*
X128589333Y-94779833D01*
X128493054Y-94656224D01*
X128458930Y-94623788D01*
X128384719Y-94559867D01*
X128316116Y-94510560D01*
X128244939Y-94473848D01*
X128163007Y-94447712D01*
X128062140Y-94430132D01*
X127934156Y-94419090D01*
X127770875Y-94412567D01*
X127588250Y-94408910D01*
X127061200Y-94400721D01*
X127061200Y-94887000D01*
G36*
X139268961Y-82510409D02*
G01*
X139120285Y-82577758D01*
X138987201Y-82685624D01*
X138890975Y-82823386D01*
X138834522Y-82983144D01*
X138820756Y-83156996D01*
X138847069Y-83318259D01*
X138906854Y-83448798D01*
X139004753Y-83570169D01*
X139128271Y-83668779D01*
X139207794Y-83710648D01*
X139284401Y-83746841D01*
X139341095Y-83779845D01*
X139360762Y-83796738D01*
X139364792Y-83827557D01*
X139368543Y-83903687D01*
X139371915Y-84019640D01*
X139374813Y-84169926D01*
X139377140Y-84349056D01*
X139378797Y-84551543D01*
X139379687Y-84771896D01*
X139379812Y-84873050D01*
X139380200Y-85920800D01*
X138821400Y-85920800D01*
X138821400Y-85743585D01*
X138823082Y-85648458D01*
X138830894Y-85590032D01*
X138848982Y-85554243D01*
X138881495Y-85527032D01*
X138886199Y-85523913D01*
X138969060Y-85445854D01*
X139011944Y-85354133D01*
X139018043Y-85272725D01*
X138872200Y-85272725D01*
X138852018Y-85350872D01*
X138799223Y-85397594D01*
X138725446Y-85406433D01*
X138667331Y-85386506D01*
X138629000Y-85341481D01*
X138620201Y-85276306D01*
X138636728Y-85208333D01*
X138674377Y-85154914D01*
X138728663Y-85133400D01*
X138789417Y-85154117D01*
X138843549Y-85203592D01*
X138871469Y-85262811D01*
X138872200Y-85272725D01*
X139018043Y-85272725D01*
X139019189Y-85257429D01*
X138995135Y-85164419D01*
X138944118Y-85083781D01*
X138870477Y-85024191D01*
X138778550Y-84994327D01*
X138672675Y-85002866D01*
X138632641Y-85016736D01*
X138537948Y-85077352D01*
X138483359Y-85165782D01*
X138465801Y-85287007D01*
X138465800Y-85287284D01*
X138470315Y-85361426D01*
X138490725Y-85414607D01*
X138537326Y-85467949D01*
X138567400Y-85495674D01*
X138622071Y-85547402D01*
X138652477Y-85590434D01*
X138665728Y-85642837D01*
X138668934Y-85722679D01*
X138669000Y-85753841D01*
X138669000Y-85920800D01*
X138110200Y-85920800D01*
X138110200Y-85630353D01*
X138107903Y-85506542D01*
X138101679Y-85395074D01*
X138092532Y-85309580D01*
X138083550Y-85268403D01*
X138057808Y-85228789D01*
X138001734Y-85160424D01*
X137921344Y-85070046D01*
X137822653Y-84964394D01*
X137711677Y-84850204D01*
X137696529Y-84834950D01*
X137422759Y-84559980D01*
X136224364Y-84559980D01*
X136210278Y-84618767D01*
X136193029Y-84665650D01*
X136127501Y-84773411D01*
X136032963Y-84846059D01*
X135920336Y-84879861D01*
X135800539Y-84871084D01*
X135707868Y-84831503D01*
X135635447Y-84765020D01*
X135577442Y-84672327D01*
X135546753Y-84575756D01*
X135544800Y-84549200D01*
X135564706Y-84455848D01*
X135615821Y-84359631D01*
X135685248Y-84282878D01*
X135707868Y-84266896D01*
X135825598Y-84221783D01*
X135944800Y-84222202D01*
X136054553Y-84264421D01*
X136143938Y-84344706D01*
X136193029Y-84432749D01*
X136218615Y-84506684D01*
X136224364Y-84559980D01*
X137422759Y-84559980D01*
X137336158Y-84473000D01*
X136558005Y-84473000D01*
X136497336Y-84335815D01*
X136400131Y-84164850D01*
X136279314Y-84038790D01*
X136134294Y-83957255D01*
X135964485Y-83919867D01*
X135848480Y-83918577D01*
X135669547Y-83951664D01*
X135515483Y-84028988D01*
X135387206Y-84150030D01*
X135349402Y-84201387D01*
X135275408Y-84354042D01*
X135246540Y-84517047D01*
X135260854Y-84681644D01*
X135316409Y-84839076D01*
X135411260Y-84980585D01*
X135543464Y-85097414D01*
X135549063Y-85101160D01*
X135612862Y-85138428D01*
X135676646Y-85160926D01*
X135757927Y-85173011D01*
X135860409Y-85178577D01*
X135968963Y-85180355D01*
X136045205Y-85174321D01*
X136107440Y-85156965D01*
X136173974Y-85124774D01*
X136191499Y-85115077D01*
X136315562Y-85023879D01*
X136420441Y-84905651D01*
X136493341Y-84776015D01*
X136510288Y-84725931D01*
X136537359Y-84625400D01*
X136910697Y-84625400D01*
X137284035Y-84625399D01*
X137620918Y-84964627D01*
X137957800Y-85303854D01*
X137957800Y-85920800D01*
X137735550Y-85920941D01*
X137559903Y-85927393D01*
X137429800Y-85947103D01*
X137341507Y-85980987D01*
X137291349Y-86029861D01*
X137276724Y-86078132D01*
X137262875Y-86163552D01*
X137251694Y-86272481D01*
X137246600Y-86352600D01*
X137233900Y-86619300D01*
X136940847Y-86626409D01*
X136647793Y-86633518D01*
X136398302Y-86399362D01*
X136148810Y-86165206D01*
X136164196Y-86052960D01*
X136162428Y-85984300D01*
X136027400Y-85984300D01*
X136010586Y-86029371D01*
X135976600Y-86073200D01*
X135926314Y-86110875D01*
X135887700Y-86124000D01*
X135842629Y-86107185D01*
X135798800Y-86073200D01*
X135761125Y-86022913D01*
X135748000Y-85984300D01*
X135764815Y-85939228D01*
X135798800Y-85895400D01*
X135849087Y-85857724D01*
X135887700Y-85844600D01*
X135932772Y-85861414D01*
X135976600Y-85895400D01*
X136014276Y-85945686D01*
X136027400Y-85984300D01*
X136162428Y-85984300D01*
X136161026Y-85929888D01*
X136121010Y-85828464D01*
X136052810Y-85753314D01*
X135965088Y-85709064D01*
X135866506Y-85700338D01*
X135765727Y-85731764D01*
X135682600Y-85795784D01*
X135619860Y-85893723D01*
X135603856Y-86000603D01*
X135634440Y-86105795D01*
X135687808Y-86177130D01*
X135743025Y-86224938D01*
X135798986Y-86249733D01*
X135877196Y-86259616D01*
X135910363Y-86260949D01*
X136053411Y-86265261D01*
X136307511Y-86518480D01*
X136561612Y-86771700D01*
X136904546Y-86780026D01*
X137247479Y-86788352D01*
X137240690Y-87415026D01*
X137233900Y-88041700D01*
X136195450Y-88048337D01*
X135901315Y-88049641D01*
X135656527Y-88049453D01*
X135459655Y-88047744D01*
X135309267Y-88044487D01*
X135203931Y-88039654D01*
X135142215Y-88033218D01*
X135123933Y-88027532D01*
X135094131Y-87983393D01*
X135075223Y-87928866D01*
X135035044Y-87832471D01*
X134961603Y-87729632D01*
X134867519Y-87635704D01*
X134786673Y-87577768D01*
X134717536Y-87541322D01*
X134652557Y-87520304D01*
X134573271Y-87510741D01*
X134465300Y-87508654D01*
X134324102Y-87515486D01*
X134215570Y-87539828D01*
X134122751Y-87588304D01*
X134028689Y-87667537D01*
X134008947Y-87686946D01*
X133920125Y-87787398D01*
X133865702Y-87883867D01*
X133838516Y-87994248D01*
X133831393Y-88130600D01*
X133844522Y-88294565D01*
X133887826Y-88427560D01*
X133967425Y-88543357D01*
X134050565Y-88623743D01*
X134152536Y-88692670D01*
X134275029Y-88748908D01*
X134396637Y-88783825D01*
X134465300Y-88791000D01*
X134574229Y-88775039D01*
X134697905Y-88733099D01*
X134814159Y-88674093D01*
X134885134Y-88622215D01*
X134952632Y-88546889D01*
X135018815Y-88450285D01*
X135052135Y-88388698D01*
X135092118Y-88310049D01*
X135127793Y-88250603D01*
X135148164Y-88226238D01*
X135178967Y-88222184D01*
X135255045Y-88218413D01*
X135370877Y-88215027D01*
X135520939Y-88212122D01*
X135699708Y-88209799D01*
X135901661Y-88208157D01*
X136121275Y-88207293D01*
X136211550Y-88207188D01*
X137246600Y-88206800D01*
X137246600Y-88765600D01*
X136208290Y-88765600D01*
X136090900Y-88664000D01*
X135985994Y-88589118D01*
X135892987Y-88560724D01*
X135803988Y-88578517D01*
X135711100Y-88642200D01*
X135703177Y-88649348D01*
X135644536Y-88709500D01*
X135616544Y-88763115D01*
X135608470Y-88833124D01*
X135608300Y-88852059D01*
X135615328Y-88935449D01*
X135644011Y-88997346D01*
X135691339Y-89050861D01*
X135756528Y-89105935D01*
X135820956Y-89129730D01*
X135886965Y-89133900D01*
X135959350Y-89128565D01*
X136016055Y-89106204D01*
X136077409Y-89057280D01*
X136103557Y-89032300D01*
X136207561Y-88930700D01*
X137233900Y-88930700D01*
X137233900Y-89489500D01*
X136536394Y-89514900D01*
X136339047Y-89707729D01*
X136222730Y-89819909D01*
X136133985Y-89900586D01*
X136065141Y-89954847D01*
X136008526Y-89987774D01*
X135956467Y-90004452D01*
X135901295Y-90009963D01*
X135882605Y-90010200D01*
X135772162Y-90020523D01*
X135696091Y-90055890D01*
X135641434Y-90122892D01*
X135633963Y-90136691D01*
X135599020Y-90248314D01*
X135606546Y-90351640D01*
X135648591Y-90440644D01*
X135717201Y-90509299D01*
X135804425Y-90551580D01*
X135902311Y-90561462D01*
X136002906Y-90532919D01*
X136082165Y-90476301D01*
X136123207Y-90430867D01*
X136144979Y-90383222D01*
X136153355Y-90315067D01*
X136154114Y-90268766D01*
X136007786Y-90268766D01*
X135994165Y-90335808D01*
X135953606Y-90390089D01*
X135889778Y-90416096D01*
X135878496Y-90416600D01*
X135831334Y-90400588D01*
X135794451Y-90374563D01*
X135755304Y-90312519D01*
X135755902Y-90246532D01*
X135787900Y-90189029D01*
X135842954Y-90152441D01*
X135912719Y-90149196D01*
X135939541Y-90158452D01*
X135990801Y-90204477D01*
X136007786Y-90268766D01*
X136154114Y-90268766D01*
X136154400Y-90251344D01*
X136154400Y-90095593D01*
X136379730Y-89875096D01*
X136605059Y-89654600D01*
X137240981Y-89654600D01*
X137250533Y-89933687D01*
X137257295Y-90080169D01*
X137271029Y-90184775D01*
X137299350Y-90254886D01*
X137349875Y-90297886D01*
X137430220Y-90321154D01*
X137548000Y-90332075D01*
X137666242Y-90336627D01*
X137957800Y-90345882D01*
X137957800Y-90958487D01*
X137622462Y-91297143D01*
X137287124Y-91635800D01*
X136539483Y-91635800D01*
X136499142Y-91514345D01*
X136424573Y-91358841D01*
X136320508Y-91237786D01*
X136194185Y-91150845D01*
X136052843Y-91097680D01*
X135903722Y-91077957D01*
X135754059Y-91091339D01*
X135611093Y-91137490D01*
X135482063Y-91216074D01*
X135374207Y-91326755D01*
X135294765Y-91469197D01*
X135263311Y-91571714D01*
X135248677Y-91747752D01*
X135281305Y-91917930D01*
X135357722Y-92073827D01*
X135474454Y-92207019D01*
X135548664Y-92263671D01*
X135621005Y-92304409D01*
X135697161Y-92328200D01*
X135797230Y-92340539D01*
X135838840Y-92343030D01*
X135944804Y-92343731D01*
X136043150Y-92336529D01*
X136110486Y-92323519D01*
X136226943Y-92263220D01*
X136339215Y-92166398D01*
X136433369Y-92046385D01*
X136470804Y-91978690D01*
X136514078Y-91899556D01*
X136558058Y-91838495D01*
X136584961Y-91814263D01*
X136627275Y-91804787D01*
X136709603Y-91796850D01*
X136821163Y-91791144D01*
X136951177Y-91788361D01*
X136991304Y-91788200D01*
X137348947Y-91788200D01*
X137416065Y-91723302D01*
X136224293Y-91723302D01*
X136209967Y-91782442D01*
X136193029Y-91828450D01*
X136127501Y-91936211D01*
X136032963Y-92008859D01*
X135920336Y-92042661D01*
X135800539Y-92033884D01*
X135707868Y-91994303D01*
X135636130Y-91928582D01*
X135578214Y-91836910D01*
X135547027Y-91741513D01*
X135544800Y-91713499D01*
X135564691Y-91624883D01*
X135615873Y-91531064D01*
X135685614Y-91452187D01*
X135729584Y-91421202D01*
X135828195Y-91387186D01*
X135923153Y-91388383D01*
X136042289Y-91418978D01*
X136125962Y-91478687D01*
X136185107Y-91575934D01*
X136193448Y-91596645D01*
X136218771Y-91670059D01*
X136224293Y-91723302D01*
X137416065Y-91723302D01*
X137434321Y-91705650D01*
X137480986Y-91659129D01*
X137554532Y-91584153D01*
X137646833Y-91489078D01*
X137749762Y-91382259D01*
X137814948Y-91314223D01*
X138110200Y-91005347D01*
X138110200Y-90340400D01*
X138669000Y-90340400D01*
X138669000Y-91396732D01*
X138567400Y-91493008D01*
X138507456Y-91554708D01*
X138477196Y-91606313D01*
X138466718Y-91669564D01*
X138465800Y-91716095D01*
X138471340Y-91802302D01*
X138493787Y-91862041D01*
X138540047Y-91917153D01*
X138600323Y-91966343D01*
X138665449Y-91987711D01*
X138733087Y-91991400D01*
X138815603Y-91985219D01*
X138876033Y-91959335D01*
X138938240Y-91905039D01*
X138994735Y-91839042D01*
X139019801Y-91776315D01*
X139023970Y-91719225D01*
X138865185Y-91719225D01*
X138848067Y-91785834D01*
X138801335Y-91826273D01*
X138733975Y-91839143D01*
X138669192Y-91822548D01*
X138644875Y-91802435D01*
X138623264Y-91744025D01*
X138628491Y-91673005D01*
X138657151Y-91614968D01*
X138671419Y-91602871D01*
X138740206Y-91583500D01*
X138802507Y-91603765D01*
X138847705Y-91652672D01*
X138865185Y-91719225D01*
X139023970Y-91719225D01*
X139024600Y-91710607D01*
X139019013Y-91640270D01*
X138995585Y-91585633D01*
X138944319Y-91526551D01*
X138923000Y-91505884D01*
X138821400Y-91409234D01*
X138821400Y-90338681D01*
X139094450Y-90345890D01*
X139367500Y-90353100D01*
X139367500Y-92537500D01*
X139260178Y-92589058D01*
X139139809Y-92663900D01*
X139031201Y-92761987D01*
X138950951Y-92867639D01*
X138936681Y-92894620D01*
X138909734Y-92988722D01*
X138899072Y-93108383D01*
X138904937Y-93230959D01*
X138927573Y-93333808D01*
X138931851Y-93344765D01*
X139005535Y-93470157D01*
X139108005Y-93577400D01*
X139214050Y-93645456D01*
X139323489Y-93678219D01*
X139450823Y-93691178D01*
X139576157Y-93684241D01*
X139679596Y-93657317D01*
X139699286Y-93647685D01*
X139853169Y-93538931D01*
X139960673Y-93410835D01*
X140021172Y-93264711D01*
X140031306Y-93136448D01*
X139730324Y-93136448D01*
X139699684Y-93235937D01*
X139649440Y-93302039D01*
X139581257Y-93359635D01*
X139516668Y-93384368D01*
X139465290Y-93387835D01*
X139385188Y-93375988D01*
X139319041Y-93347651D01*
X139313323Y-93343385D01*
X139236888Y-93253889D01*
X139204423Y-93151245D01*
X139217228Y-93046099D01*
X139266587Y-92960416D01*
X139354908Y-92888168D01*
X139456352Y-92864938D01*
X139566382Y-92889658D01*
X139661498Y-92952507D01*
X139716870Y-93038371D01*
X139730324Y-93136448D01*
X140031306Y-93136448D01*
X140034038Y-93101872D01*
X140015954Y-92985139D01*
X139955263Y-92837434D01*
X139852687Y-92712685D01*
X139714642Y-92618107D01*
X139672455Y-92598818D01*
X139532600Y-92540852D01*
X139532600Y-90340400D01*
X140091400Y-90340400D01*
X140091400Y-90509009D01*
X140089470Y-90602105D01*
X140078907Y-90664069D01*
X140052553Y-90714547D01*
X140003248Y-90773186D01*
X139989800Y-90787841D01*
X139919474Y-90877565D01*
X139889831Y-90952223D01*
X139888200Y-90973178D01*
X139909094Y-91091673D01*
X139965337Y-91184189D01*
X140047271Y-91246442D01*
X140145240Y-91274147D01*
X140249586Y-91263018D01*
X140350653Y-91208771D01*
X140373635Y-91188584D01*
X140420216Y-91134674D01*
X140441803Y-91076283D01*
X140447000Y-90992146D01*
X140446119Y-90974506D01*
X140300567Y-90974506D01*
X140296308Y-91039674D01*
X140262147Y-91096050D01*
X140212652Y-91123763D01*
X140145914Y-91122235D01*
X140085465Y-91092523D01*
X140080515Y-91087885D01*
X140047949Y-91029429D01*
X140043457Y-90962251D01*
X140068098Y-90909882D01*
X140072350Y-90906253D01*
X140145554Y-90866661D01*
X140209389Y-90874048D01*
X140257655Y-90910745D01*
X140300567Y-90974506D01*
X140446119Y-90974506D01*
X140443086Y-90913860D01*
X140424639Y-90859305D01*
X140381601Y-90806709D01*
X140345400Y-90772200D01*
X140290972Y-90719307D01*
X140260567Y-90675556D01*
X140247198Y-90622876D01*
X140243880Y-90543200D01*
X140243800Y-90509401D01*
X140243800Y-90340400D01*
X140798761Y-90340400D01*
X140807031Y-90696758D01*
X140815300Y-91053116D01*
X141555360Y-91788200D01*
X141972730Y-91788588D01*
X142114533Y-91789808D01*
X142239194Y-91792931D01*
X142337554Y-91797566D01*
X142400453Y-91803321D01*
X142418243Y-91807638D01*
X142444438Y-91840543D01*
X142479100Y-91902978D01*
X142496724Y-91940600D01*
X142584091Y-92083156D01*
X142699763Y-92189970D01*
X142835403Y-92259578D01*
X142982679Y-92290516D01*
X143133254Y-92281318D01*
X143278794Y-92230520D01*
X143410965Y-92136658D01*
X143440765Y-92106485D01*
X143533943Y-91970895D01*
X143583634Y-91820460D01*
X143588051Y-91725108D01*
X143291800Y-91725108D01*
X143271552Y-91824834D01*
X143207865Y-91905517D01*
X143156829Y-91941864D01*
X143064856Y-91983404D01*
X142982299Y-91982768D01*
X142891934Y-91939424D01*
X142882807Y-91933395D01*
X142802493Y-91852935D01*
X142765046Y-91754295D01*
X142773366Y-91648391D01*
X142794007Y-91599031D01*
X142863250Y-91514565D01*
X142950956Y-91468981D01*
X143046418Y-91459568D01*
X143138935Y-91483616D01*
X143217802Y-91538413D01*
X143272315Y-91621249D01*
X143291800Y-91725108D01*
X143588051Y-91725108D01*
X143590857Y-91664548D01*
X143556631Y-91512527D01*
X143481975Y-91373765D01*
X143367907Y-91257631D01*
X143346762Y-91242257D01*
X143287083Y-91204009D01*
X143233395Y-91181186D01*
X143169199Y-91169870D01*
X143077994Y-91166144D01*
X143025101Y-91165900D01*
X142916965Y-91167503D01*
X142843209Y-91174920D01*
X142787449Y-91192055D01*
X142733301Y-91222815D01*
X142704971Y-91242231D01*
X142597199Y-91345741D01*
X142516042Y-91470831D01*
X142435720Y-91623100D01*
X141630128Y-91637144D01*
X141292564Y-91300274D01*
X140955000Y-90963405D01*
X140955000Y-90344771D01*
X141246462Y-90336235D01*
X141397787Y-90330158D01*
X141505889Y-90317156D01*
X141578341Y-90289654D01*
X141622718Y-90240080D01*
X141646593Y-90160861D01*
X141657537Y-90044422D01*
X141662036Y-89920661D01*
X141670572Y-89629200D01*
X142264054Y-89629200D01*
X142514537Y-89880626D01*
X142613741Y-89980843D01*
X142682041Y-90052908D01*
X142724631Y-90104411D01*
X142746700Y-90142947D01*
X142753443Y-90176107D01*
X142750050Y-90211483D01*
X142748110Y-90222188D01*
X142746904Y-90337937D01*
X142783888Y-90433138D01*
X142849622Y-90504709D01*
X142934666Y-90549568D01*
X143029577Y-90564632D01*
X143124916Y-90546819D01*
X143211240Y-90493046D01*
X143279109Y-90400230D01*
X143281054Y-90396196D01*
X143309403Y-90283665D01*
X143306955Y-90271248D01*
X143164800Y-90271248D01*
X143146255Y-90328717D01*
X143102312Y-90383114D01*
X143050508Y-90414592D01*
X143036360Y-90416600D01*
X142982235Y-90399409D01*
X142936200Y-90365800D01*
X142898525Y-90315513D01*
X142885400Y-90276900D01*
X142902215Y-90231828D01*
X142936200Y-90188000D01*
X142986487Y-90150324D01*
X143025100Y-90137200D01*
X143073227Y-90156023D01*
X143124617Y-90199912D01*
X143159603Y-90249998D01*
X143164800Y-90271248D01*
X143306955Y-90271248D01*
X143288031Y-90175260D01*
X143218007Y-90076119D01*
X143213563Y-90071799D01*
X143158463Y-90026425D01*
X143103614Y-90005537D01*
X143026249Y-90001558D01*
X143004330Y-90002185D01*
X142872700Y-90006871D01*
X142611968Y-89748185D01*
X142351235Y-89489500D01*
X142008718Y-89481182D01*
X141666200Y-89472864D01*
X141666200Y-88918000D01*
X141842564Y-88918000D01*
X141936256Y-88919326D01*
X141993317Y-88926539D01*
X142027906Y-88944492D01*
X142054183Y-88978037D01*
X142063698Y-88993789D01*
X142141234Y-89080974D01*
X142239765Y-89128127D01*
X142347349Y-89133892D01*
X142452045Y-89096915D01*
X142516885Y-89045225D01*
X142566018Y-88980978D01*
X142586437Y-88910016D01*
X142589016Y-88854500D01*
X142453600Y-88854500D01*
X142436786Y-88899571D01*
X142402800Y-88943400D01*
X142352514Y-88981075D01*
X142313900Y-88994200D01*
X142268829Y-88977385D01*
X142225000Y-88943400D01*
X142187325Y-88893113D01*
X142174200Y-88854500D01*
X142191015Y-88809428D01*
X142225000Y-88765600D01*
X142275287Y-88727924D01*
X142313900Y-88714800D01*
X142358972Y-88731614D01*
X142402800Y-88765600D01*
X142440476Y-88815886D01*
X142453600Y-88854500D01*
X142589016Y-88854500D01*
X142589067Y-88853413D01*
X142581963Y-88769049D01*
X142553138Y-88706915D01*
X142508145Y-88656021D01*
X142442761Y-88601547D01*
X142376308Y-88578615D01*
X142314636Y-88575100D01*
X142239375Y-88581028D01*
X142180784Y-88605494D01*
X142116760Y-88658516D01*
X142104503Y-88670350D01*
X142048976Y-88721411D01*
X142002223Y-88749946D01*
X141945821Y-88762482D01*
X141861347Y-88765547D01*
X141835720Y-88765600D01*
X141664482Y-88765600D01*
X141678900Y-88219500D01*
X142717351Y-88212862D01*
X143001068Y-88211681D01*
X143244099Y-88211998D01*
X143444631Y-88213779D01*
X143600851Y-88216994D01*
X143710946Y-88221611D01*
X143773105Y-88227598D01*
X143786390Y-88231610D01*
X143813276Y-88271288D01*
X143840806Y-88337037D01*
X143845772Y-88352548D01*
X143913161Y-88493743D01*
X144017156Y-88608979D01*
X144148848Y-88694856D01*
X144299327Y-88747977D01*
X144459683Y-88764941D01*
X144621006Y-88742350D01*
X144742586Y-88694664D01*
X144886088Y-88593992D01*
X144992715Y-88466269D01*
X145061418Y-88319681D01*
X145091151Y-88162414D01*
X145087118Y-88099749D01*
X144785422Y-88099749D01*
X144777650Y-88196778D01*
X144743580Y-88277913D01*
X144665780Y-88375915D01*
X144562719Y-88438086D01*
X144446394Y-88460833D01*
X144328802Y-88440565D01*
X144279430Y-88416904D01*
X144223191Y-88366182D01*
X144167518Y-88289179D01*
X144124259Y-88205477D01*
X144105265Y-88134657D01*
X144105158Y-88128930D01*
X144123220Y-88051587D01*
X144167144Y-87963650D01*
X144224531Y-87885698D01*
X144279143Y-87840184D01*
X144395805Y-87804334D01*
X144515448Y-87808839D01*
X144625374Y-87849673D01*
X144712887Y-87922812D01*
X144753829Y-87990640D01*
X144785422Y-88099749D01*
X145087118Y-88099749D01*
X145080868Y-88002656D01*
X145029522Y-87848593D01*
X144936067Y-87708412D01*
X144876294Y-87648767D01*
X144745651Y-87555320D01*
X144607979Y-87503995D01*
X144446224Y-87488483D01*
X144443086Y-87488493D01*
X144265975Y-87513084D01*
X144108334Y-87582136D01*
X143976467Y-87691047D01*
X143876680Y-87835212D01*
X143836621Y-87931250D01*
X143795534Y-88054953D01*
X142737217Y-88048326D01*
X141678900Y-88041700D01*
X141664482Y-87495600D01*
X142715404Y-87495600D01*
X142809200Y-87597200D01*
X142870552Y-87657873D01*
X142922260Y-87688153D01*
X142985297Y-87698184D01*
X143019250Y-87698800D01*
X143139088Y-87677674D01*
X143231131Y-87619910D01*
X143289649Y-87533929D01*
X143306631Y-87440685D01*
X143157335Y-87440685D01*
X143154351Y-87457576D01*
X143116958Y-87521165D01*
X143055535Y-87552799D01*
X142986689Y-87550957D01*
X142927026Y-87514118D01*
X142905047Y-87480415D01*
X142897461Y-87411426D01*
X142926252Y-87345786D01*
X142980308Y-87301397D01*
X143021749Y-87292400D01*
X143093914Y-87314101D01*
X143143304Y-87368756D01*
X143157335Y-87440685D01*
X143306631Y-87440685D01*
X143308915Y-87428149D01*
X143283199Y-87310991D01*
X143283158Y-87310893D01*
X143220810Y-87221051D01*
X143129912Y-87162576D01*
X143024627Y-87140765D01*
X142919115Y-87160917D01*
X142902781Y-87168584D01*
X142848239Y-87206369D01*
X142787104Y-87261612D01*
X142778882Y-87270184D01*
X142710464Y-87343200D01*
X142220082Y-87342811D01*
X142065826Y-87341655D01*
X141928033Y-87338669D01*
X141815145Y-87334193D01*
X141735602Y-87328569D01*
X141697847Y-87322137D01*
X141697015Y-87321683D01*
X141681413Y-87295622D01*
X141672568Y-87237346D01*
X141669890Y-87140217D01*
X141671615Y-87036322D01*
X141678900Y-86771700D01*
X141983700Y-86770880D01*
X142145486Y-86767560D01*
X142260857Y-86758332D01*
X142333899Y-86742801D01*
X142351754Y-86734971D01*
X142389369Y-86706169D01*
X142455530Y-86647414D01*
X142543348Y-86565154D01*
X142645934Y-86465836D01*
X142751804Y-86360541D01*
X143088600Y-86021203D01*
X143088600Y-85655578D01*
X143089675Y-85521501D01*
X143092627Y-85403429D01*
X143097048Y-85311742D01*
X143102529Y-85256819D01*
X143104635Y-85248169D01*
X143134528Y-85216900D01*
X143197631Y-85174811D01*
X143280390Y-85130922D01*
X143281888Y-85130213D01*
X143436345Y-85036892D01*
X143548441Y-84920479D01*
X143623744Y-84774712D01*
X143638609Y-84729107D01*
X143665528Y-84553100D01*
X143660271Y-84507780D01*
X143362423Y-84507780D01*
X143360186Y-84593034D01*
X143323670Y-84688781D01*
X143318665Y-84698730D01*
X143242549Y-84797325D01*
X143140006Y-84857233D01*
X143020771Y-84875442D01*
X142894577Y-84848941D01*
X142868922Y-84837804D01*
X142793707Y-84780434D01*
X142729420Y-84694301D01*
X142689251Y-84599777D01*
X142682200Y-84549396D01*
X142703431Y-84446846D01*
X142758544Y-84347250D01*
X142834672Y-84273436D01*
X142839422Y-84270451D01*
X142952659Y-84227042D01*
X143071536Y-84223971D01*
X143183464Y-84257684D01*
X143275855Y-84324632D01*
X143331429Y-84409240D01*
X143362423Y-84507780D01*
X143660271Y-84507780D01*
X143645744Y-84382565D01*
X143583028Y-84225474D01*
X143481149Y-84089798D01*
X143343876Y-83983511D01*
X143268248Y-83945993D01*
X143163494Y-83918788D01*
X143034749Y-83908641D01*
X142904711Y-83915589D01*
X142796081Y-83939667D01*
X142781953Y-83945218D01*
X142630236Y-84034267D01*
X142515079Y-84150894D01*
X142436296Y-84287597D01*
X142393704Y-84436876D01*
X142387118Y-84591229D01*
X142416354Y-84743157D01*
X142481227Y-84885158D01*
X142581553Y-85009731D01*
X142717146Y-85109374D01*
X142811653Y-85152706D01*
X142948900Y-85203870D01*
X142955969Y-85565852D01*
X142963038Y-85927835D01*
X142626981Y-86267217D01*
X142290924Y-86606600D01*
X141666200Y-86606600D01*
X141666200Y-86403400D01*
X141183600Y-86403400D01*
X141183600Y-89857800D01*
X137729200Y-89857800D01*
X137729200Y-88854500D01*
X136027400Y-88854500D01*
X136010586Y-88899571D01*
X135976600Y-88943400D01*
X135926314Y-88981075D01*
X135887700Y-88994200D01*
X135842629Y-88977385D01*
X135798800Y-88943400D01*
X135761125Y-88893113D01*
X135748000Y-88854500D01*
X135764815Y-88809428D01*
X135798800Y-88765600D01*
X135849087Y-88727924D01*
X135887700Y-88714800D01*
X135932772Y-88731614D01*
X135976600Y-88765600D01*
X136014276Y-88815886D01*
X136027400Y-88854500D01*
X137729200Y-88854500D01*
X137729200Y-88170420D01*
X134797246Y-88170420D01*
X134767451Y-88275185D01*
X134704239Y-88361863D01*
X134616090Y-88424676D01*
X134511482Y-88457845D01*
X134398898Y-88455594D01*
X134286816Y-88412145D01*
X134272207Y-88402821D01*
X134188151Y-88317411D01*
X134148977Y-88238863D01*
X134128568Y-88169976D01*
X134127189Y-88115956D01*
X134146236Y-88052090D01*
X134161677Y-88013953D01*
X134229005Y-87907759D01*
X134319900Y-87839123D01*
X134424423Y-87807416D01*
X134532636Y-87812012D01*
X134634603Y-87852282D01*
X134720384Y-87927598D01*
X134780043Y-88037333D01*
X134785142Y-88053345D01*
X134797246Y-88170420D01*
X137729200Y-88170420D01*
X137729200Y-86403400D01*
X141183600Y-86403400D01*
X141666200Y-86403400D01*
X141666200Y-86377184D01*
X141661109Y-86220030D01*
X141643934Y-86105616D01*
X141611828Y-86026725D01*
X141561942Y-85976143D01*
X141496780Y-85948095D01*
X141425457Y-85935464D01*
X141322614Y-85925952D01*
X141207507Y-85921197D01*
X141177250Y-85920941D01*
X140955000Y-85920800D01*
X140955000Y-85744729D01*
X140956431Y-85650737D01*
X140964126Y-85592531D01*
X140983189Y-85555108D01*
X141018726Y-85523467D01*
X141034074Y-85512353D01*
X141121826Y-85423923D01*
X141164944Y-85320939D01*
X141163787Y-85273100D01*
X141031200Y-85273100D01*
X141014386Y-85318171D01*
X140980400Y-85362000D01*
X140930114Y-85399675D01*
X140891500Y-85412800D01*
X140846429Y-85395985D01*
X140802600Y-85362000D01*
X140764794Y-85310021D01*
X140751800Y-85268750D01*
X140772510Y-85208633D01*
X140821687Y-85156843D01*
X140879903Y-85133463D01*
X140882737Y-85133400D01*
X140938484Y-85152804D01*
X140993247Y-85198806D01*
X141027561Y-85253092D01*
X141031200Y-85273100D01*
X141163787Y-85273100D01*
X141162321Y-85212518D01*
X141112850Y-85107778D01*
X141086980Y-85076566D01*
X140996843Y-85010652D01*
X140898008Y-84987115D01*
X140800145Y-85000968D01*
X140712922Y-85047225D01*
X140646007Y-85120899D01*
X140609070Y-85217004D01*
X140610160Y-85322491D01*
X140628096Y-85386296D01*
X140661494Y-85440256D01*
X140721262Y-85499530D01*
X140762680Y-85534451D01*
X140786197Y-85570973D01*
X140798886Y-85638540D01*
X140802600Y-85744001D01*
X140802600Y-85920800D01*
X140243800Y-85920800D01*
X140243800Y-84862084D01*
X140345400Y-84758436D01*
X140405670Y-84691170D01*
X140436158Y-84635553D01*
X140446418Y-84571087D01*
X140446833Y-84549200D01*
X140294600Y-84549200D01*
X140283512Y-84611142D01*
X140264120Y-84645720D01*
X140204958Y-84673306D01*
X140133415Y-84667430D01*
X140080515Y-84636285D01*
X140046686Y-84573967D01*
X140045222Y-84502651D01*
X140071080Y-84452680D01*
X140118577Y-84429209D01*
X140167600Y-84422200D01*
X140245088Y-84440502D01*
X140286894Y-84494942D01*
X140294600Y-84549200D01*
X140446833Y-84549200D01*
X140447000Y-84540448D01*
X140439279Y-84455616D01*
X140408634Y-84392589D01*
X140368847Y-84347953D01*
X140307772Y-84296807D01*
X140245111Y-84274534D01*
X140171997Y-84270607D01*
X140050426Y-84292357D01*
X139959931Y-84352998D01*
X139904588Y-84448392D01*
X139888200Y-84558784D01*
X139894917Y-84626092D01*
X139921698Y-84681565D01*
X139978490Y-84744446D01*
X139989800Y-84755315D01*
X140091400Y-84851965D01*
X140091400Y-85920800D01*
X139532600Y-85920800D01*
X139532600Y-83773723D01*
X139661385Y-83727983D01*
X139826022Y-83645411D01*
X139953024Y-83529595D01*
X140040185Y-83383704D01*
X140085295Y-83210903D01*
X140091300Y-83112930D01*
X139786600Y-83112930D01*
X139764704Y-83237393D01*
X139705161Y-83339100D01*
X139617195Y-83412254D01*
X139510029Y-83451062D01*
X139392884Y-83449729D01*
X139301616Y-83417666D01*
X139211291Y-83344072D01*
X139150181Y-83238522D01*
X139126363Y-83115253D01*
X139126295Y-83108633D01*
X139149913Y-82998828D01*
X139214281Y-82899752D01*
X139309381Y-82823834D01*
X139380317Y-82793564D01*
X139491609Y-82784431D01*
X139598127Y-82817674D01*
X139689544Y-82885172D01*
X139755529Y-82978807D01*
X139785753Y-83090458D01*
X139786600Y-83112930D01*
X140091300Y-83112930D01*
X140091400Y-83111306D01*
X140088068Y-83006841D01*
X140073988Y-82929593D01*
X140043037Y-82856187D01*
X140008689Y-82795638D01*
X139897670Y-82655283D01*
X139760496Y-82554696D01*
X139604859Y-82495764D01*
X139438450Y-82480373D01*
X139268961Y-82510409D01*
G37*
X139268961Y-82510409D02*
X139120285Y-82577758D01*
X138987201Y-82685624D01*
X138890975Y-82823386D01*
X138834522Y-82983144D01*
X138820756Y-83156996D01*
X138847069Y-83318259D01*
X138906854Y-83448798D01*
X139004753Y-83570169D01*
X139128271Y-83668779D01*
X139207794Y-83710648D01*
X139284401Y-83746841D01*
X139341095Y-83779845D01*
X139360762Y-83796738D01*
X139364792Y-83827557D01*
X139368543Y-83903687D01*
X139371915Y-84019640D01*
X139374813Y-84169926D01*
X139377140Y-84349056D01*
X139378797Y-84551543D01*
X139379687Y-84771896D01*
X139379812Y-84873050D01*
X139380200Y-85920800D01*
X138821400Y-85920800D01*
X138821400Y-85743585D01*
X138823082Y-85648458D01*
X138830894Y-85590032D01*
X138848982Y-85554243D01*
X138881495Y-85527032D01*
X138886199Y-85523913D01*
X138969060Y-85445854D01*
X139011944Y-85354133D01*
X139018043Y-85272725D01*
X138872200Y-85272725D01*
X138852018Y-85350872D01*
X138799223Y-85397594D01*
X138725446Y-85406433D01*
X138667331Y-85386506D01*
X138629000Y-85341481D01*
X138620201Y-85276306D01*
X138636728Y-85208333D01*
X138674377Y-85154914D01*
X138728663Y-85133400D01*
X138789417Y-85154117D01*
X138843549Y-85203592D01*
X138871469Y-85262811D01*
X138872200Y-85272725D01*
X139018043Y-85272725D01*
X139019189Y-85257429D01*
X138995135Y-85164419D01*
X138944118Y-85083781D01*
X138870477Y-85024191D01*
X138778550Y-84994327D01*
X138672675Y-85002866D01*
X138632641Y-85016736D01*
X138537948Y-85077352D01*
X138483359Y-85165782D01*
X138465801Y-85287007D01*
X138465800Y-85287284D01*
X138470315Y-85361426D01*
X138490725Y-85414607D01*
X138537326Y-85467949D01*
X138567400Y-85495674D01*
X138622071Y-85547402D01*
X138652477Y-85590434D01*
X138665728Y-85642837D01*
X138668934Y-85722679D01*
X138669000Y-85753841D01*
X138669000Y-85920800D01*
X138110200Y-85920800D01*
X138110200Y-85630353D01*
X138107903Y-85506542D01*
X138101679Y-85395074D01*
X138092532Y-85309580D01*
X138083550Y-85268403D01*
X138057808Y-85228789D01*
X138001734Y-85160424D01*
X137921344Y-85070046D01*
X137822653Y-84964394D01*
X137711677Y-84850204D01*
X137696529Y-84834950D01*
X137422759Y-84559980D01*
X136224364Y-84559980D01*
X136210278Y-84618767D01*
X136193029Y-84665650D01*
X136127501Y-84773411D01*
X136032963Y-84846059D01*
X135920336Y-84879861D01*
X135800539Y-84871084D01*
X135707868Y-84831503D01*
X135635447Y-84765020D01*
X135577442Y-84672327D01*
X135546753Y-84575756D01*
X135544800Y-84549200D01*
X135564706Y-84455848D01*
X135615821Y-84359631D01*
X135685248Y-84282878D01*
X135707868Y-84266896D01*
X135825598Y-84221783D01*
X135944800Y-84222202D01*
X136054553Y-84264421D01*
X136143938Y-84344706D01*
X136193029Y-84432749D01*
X136218615Y-84506684D01*
X136224364Y-84559980D01*
X137422759Y-84559980D01*
X137336158Y-84473000D01*
X136558005Y-84473000D01*
X136497336Y-84335815D01*
X136400131Y-84164850D01*
X136279314Y-84038790D01*
X136134294Y-83957255D01*
X135964485Y-83919867D01*
X135848480Y-83918577D01*
X135669547Y-83951664D01*
X135515483Y-84028988D01*
X135387206Y-84150030D01*
X135349402Y-84201387D01*
X135275408Y-84354042D01*
X135246540Y-84517047D01*
X135260854Y-84681644D01*
X135316409Y-84839076D01*
X135411260Y-84980585D01*
X135543464Y-85097414D01*
X135549063Y-85101160D01*
X135612862Y-85138428D01*
X135676646Y-85160926D01*
X135757927Y-85173011D01*
X135860409Y-85178577D01*
X135968963Y-85180355D01*
X136045205Y-85174321D01*
X136107440Y-85156965D01*
X136173974Y-85124774D01*
X136191499Y-85115077D01*
X136315562Y-85023879D01*
X136420441Y-84905651D01*
X136493341Y-84776015D01*
X136510288Y-84725931D01*
X136537359Y-84625400D01*
X136910697Y-84625400D01*
X137284035Y-84625399D01*
X137620918Y-84964627D01*
X137957800Y-85303854D01*
X137957800Y-85920800D01*
X137735550Y-85920941D01*
X137559903Y-85927393D01*
X137429800Y-85947103D01*
X137341507Y-85980987D01*
X137291349Y-86029861D01*
X137276724Y-86078132D01*
X137262875Y-86163552D01*
X137251694Y-86272481D01*
X137246600Y-86352600D01*
X137233900Y-86619300D01*
X136940847Y-86626409D01*
X136647793Y-86633518D01*
X136398302Y-86399362D01*
X136148810Y-86165206D01*
X136164196Y-86052960D01*
X136162428Y-85984300D01*
X136027400Y-85984300D01*
X136010586Y-86029371D01*
X135976600Y-86073200D01*
X135926314Y-86110875D01*
X135887700Y-86124000D01*
X135842629Y-86107185D01*
X135798800Y-86073200D01*
X135761125Y-86022913D01*
X135748000Y-85984300D01*
X135764815Y-85939228D01*
X135798800Y-85895400D01*
X135849087Y-85857724D01*
X135887700Y-85844600D01*
X135932772Y-85861414D01*
X135976600Y-85895400D01*
X136014276Y-85945686D01*
X136027400Y-85984300D01*
X136162428Y-85984300D01*
X136161026Y-85929888D01*
X136121010Y-85828464D01*
X136052810Y-85753314D01*
X135965088Y-85709064D01*
X135866506Y-85700338D01*
X135765727Y-85731764D01*
X135682600Y-85795784D01*
X135619860Y-85893723D01*
X135603856Y-86000603D01*
X135634440Y-86105795D01*
X135687808Y-86177130D01*
X135743025Y-86224938D01*
X135798986Y-86249733D01*
X135877196Y-86259616D01*
X135910363Y-86260949D01*
X136053411Y-86265261D01*
X136307511Y-86518480D01*
X136561612Y-86771700D01*
X136904546Y-86780026D01*
X137247479Y-86788352D01*
X137240690Y-87415026D01*
X137233900Y-88041700D01*
X136195450Y-88048337D01*
X135901315Y-88049641D01*
X135656527Y-88049453D01*
X135459655Y-88047744D01*
X135309267Y-88044487D01*
X135203931Y-88039654D01*
X135142215Y-88033218D01*
X135123933Y-88027532D01*
X135094131Y-87983393D01*
X135075223Y-87928866D01*
X135035044Y-87832471D01*
X134961603Y-87729632D01*
X134867519Y-87635704D01*
X134786673Y-87577768D01*
X134717536Y-87541322D01*
X134652557Y-87520304D01*
X134573271Y-87510741D01*
X134465300Y-87508654D01*
X134324102Y-87515486D01*
X134215570Y-87539828D01*
X134122751Y-87588304D01*
X134028689Y-87667537D01*
X134008947Y-87686946D01*
X133920125Y-87787398D01*
X133865702Y-87883867D01*
X133838516Y-87994248D01*
X133831393Y-88130600D01*
X133844522Y-88294565D01*
X133887826Y-88427560D01*
X133967425Y-88543357D01*
X134050565Y-88623743D01*
X134152536Y-88692670D01*
X134275029Y-88748908D01*
X134396637Y-88783825D01*
X134465300Y-88791000D01*
X134574229Y-88775039D01*
X134697905Y-88733099D01*
X134814159Y-88674093D01*
X134885134Y-88622215D01*
X134952632Y-88546889D01*
X135018815Y-88450285D01*
X135052135Y-88388698D01*
X135092118Y-88310049D01*
X135127793Y-88250603D01*
X135148164Y-88226238D01*
X135178967Y-88222184D01*
X135255045Y-88218413D01*
X135370877Y-88215027D01*
X135520939Y-88212122D01*
X135699708Y-88209799D01*
X135901661Y-88208157D01*
X136121275Y-88207293D01*
X136211550Y-88207188D01*
X137246600Y-88206800D01*
X137246600Y-88765600D01*
X136208290Y-88765600D01*
X136090900Y-88664000D01*
X135985994Y-88589118D01*
X135892987Y-88560724D01*
X135803988Y-88578517D01*
X135711100Y-88642200D01*
X135703177Y-88649348D01*
X135644536Y-88709500D01*
X135616544Y-88763115D01*
X135608470Y-88833124D01*
X135608300Y-88852059D01*
X135615328Y-88935449D01*
X135644011Y-88997346D01*
X135691339Y-89050861D01*
X135756528Y-89105935D01*
X135820956Y-89129730D01*
X135886965Y-89133900D01*
X135959350Y-89128565D01*
X136016055Y-89106204D01*
X136077409Y-89057280D01*
X136103557Y-89032300D01*
X136207561Y-88930700D01*
X137233900Y-88930700D01*
X137233900Y-89489500D01*
X136536394Y-89514900D01*
X136339047Y-89707729D01*
X136222730Y-89819909D01*
X136133985Y-89900586D01*
X136065141Y-89954847D01*
X136008526Y-89987774D01*
X135956467Y-90004452D01*
X135901295Y-90009963D01*
X135882605Y-90010200D01*
X135772162Y-90020523D01*
X135696091Y-90055890D01*
X135641434Y-90122892D01*
X135633963Y-90136691D01*
X135599020Y-90248314D01*
X135606546Y-90351640D01*
X135648591Y-90440644D01*
X135717201Y-90509299D01*
X135804425Y-90551580D01*
X135902311Y-90561462D01*
X136002906Y-90532919D01*
X136082165Y-90476301D01*
X136123207Y-90430867D01*
X136144979Y-90383222D01*
X136153355Y-90315067D01*
X136154114Y-90268766D01*
X136007786Y-90268766D01*
X135994165Y-90335808D01*
X135953606Y-90390089D01*
X135889778Y-90416096D01*
X135878496Y-90416600D01*
X135831334Y-90400588D01*
X135794451Y-90374563D01*
X135755304Y-90312519D01*
X135755902Y-90246532D01*
X135787900Y-90189029D01*
X135842954Y-90152441D01*
X135912719Y-90149196D01*
X135939541Y-90158452D01*
X135990801Y-90204477D01*
X136007786Y-90268766D01*
X136154114Y-90268766D01*
X136154400Y-90251344D01*
X136154400Y-90095593D01*
X136379730Y-89875096D01*
X136605059Y-89654600D01*
X137240981Y-89654600D01*
X137250533Y-89933687D01*
X137257295Y-90080169D01*
X137271029Y-90184775D01*
X137299350Y-90254886D01*
X137349875Y-90297886D01*
X137430220Y-90321154D01*
X137548000Y-90332075D01*
X137666242Y-90336627D01*
X137957800Y-90345882D01*
X137957800Y-90958487D01*
X137622462Y-91297143D01*
X137287124Y-91635800D01*
X136539483Y-91635800D01*
X136499142Y-91514345D01*
X136424573Y-91358841D01*
X136320508Y-91237786D01*
X136194185Y-91150845D01*
X136052843Y-91097680D01*
X135903722Y-91077957D01*
X135754059Y-91091339D01*
X135611093Y-91137490D01*
X135482063Y-91216074D01*
X135374207Y-91326755D01*
X135294765Y-91469197D01*
X135263311Y-91571714D01*
X135248677Y-91747752D01*
X135281305Y-91917930D01*
X135357722Y-92073827D01*
X135474454Y-92207019D01*
X135548664Y-92263671D01*
X135621005Y-92304409D01*
X135697161Y-92328200D01*
X135797230Y-92340539D01*
X135838840Y-92343030D01*
X135944804Y-92343731D01*
X136043150Y-92336529D01*
X136110486Y-92323519D01*
X136226943Y-92263220D01*
X136339215Y-92166398D01*
X136433369Y-92046385D01*
X136470804Y-91978690D01*
X136514078Y-91899556D01*
X136558058Y-91838495D01*
X136584961Y-91814263D01*
X136627275Y-91804787D01*
X136709603Y-91796850D01*
X136821163Y-91791144D01*
X136951177Y-91788361D01*
X136991304Y-91788200D01*
X137348947Y-91788200D01*
X137416065Y-91723302D01*
X136224293Y-91723302D01*
X136209967Y-91782442D01*
X136193029Y-91828450D01*
X136127501Y-91936211D01*
X136032963Y-92008859D01*
X135920336Y-92042661D01*
X135800539Y-92033884D01*
X135707868Y-91994303D01*
X135636130Y-91928582D01*
X135578214Y-91836910D01*
X135547027Y-91741513D01*
X135544800Y-91713499D01*
X135564691Y-91624883D01*
X135615873Y-91531064D01*
X135685614Y-91452187D01*
X135729584Y-91421202D01*
X135828195Y-91387186D01*
X135923153Y-91388383D01*
X136042289Y-91418978D01*
X136125962Y-91478687D01*
X136185107Y-91575934D01*
X136193448Y-91596645D01*
X136218771Y-91670059D01*
X136224293Y-91723302D01*
X137416065Y-91723302D01*
X137434321Y-91705650D01*
X137480986Y-91659129D01*
X137554532Y-91584153D01*
X137646833Y-91489078D01*
X137749762Y-91382259D01*
X137814948Y-91314223D01*
X138110200Y-91005347D01*
X138110200Y-90340400D01*
X138669000Y-90340400D01*
X138669000Y-91396732D01*
X138567400Y-91493008D01*
X138507456Y-91554708D01*
X138477196Y-91606313D01*
X138466718Y-91669564D01*
X138465800Y-91716095D01*
X138471340Y-91802302D01*
X138493787Y-91862041D01*
X138540047Y-91917153D01*
X138600323Y-91966343D01*
X138665449Y-91987711D01*
X138733087Y-91991400D01*
X138815603Y-91985219D01*
X138876033Y-91959335D01*
X138938240Y-91905039D01*
X138994735Y-91839042D01*
X139019801Y-91776315D01*
X139023970Y-91719225D01*
X138865185Y-91719225D01*
X138848067Y-91785834D01*
X138801335Y-91826273D01*
X138733975Y-91839143D01*
X138669192Y-91822548D01*
X138644875Y-91802435D01*
X138623264Y-91744025D01*
X138628491Y-91673005D01*
X138657151Y-91614968D01*
X138671419Y-91602871D01*
X138740206Y-91583500D01*
X138802507Y-91603765D01*
X138847705Y-91652672D01*
X138865185Y-91719225D01*
X139023970Y-91719225D01*
X139024600Y-91710607D01*
X139019013Y-91640270D01*
X138995585Y-91585633D01*
X138944319Y-91526551D01*
X138923000Y-91505884D01*
X138821400Y-91409234D01*
X138821400Y-90338681D01*
X139094450Y-90345890D01*
X139367500Y-90353100D01*
X139367500Y-92537500D01*
X139260178Y-92589058D01*
X139139809Y-92663900D01*
X139031201Y-92761987D01*
X138950951Y-92867639D01*
X138936681Y-92894620D01*
X138909734Y-92988722D01*
X138899072Y-93108383D01*
X138904937Y-93230959D01*
X138927573Y-93333808D01*
X138931851Y-93344765D01*
X139005535Y-93470157D01*
X139108005Y-93577400D01*
X139214050Y-93645456D01*
X139323489Y-93678219D01*
X139450823Y-93691178D01*
X139576157Y-93684241D01*
X139679596Y-93657317D01*
X139699286Y-93647685D01*
X139853169Y-93538931D01*
X139960673Y-93410835D01*
X140021172Y-93264711D01*
X140031306Y-93136448D01*
X139730324Y-93136448D01*
X139699684Y-93235937D01*
X139649440Y-93302039D01*
X139581257Y-93359635D01*
X139516668Y-93384368D01*
X139465290Y-93387835D01*
X139385188Y-93375988D01*
X139319041Y-93347651D01*
X139313323Y-93343385D01*
X139236888Y-93253889D01*
X139204423Y-93151245D01*
X139217228Y-93046099D01*
X139266587Y-92960416D01*
X139354908Y-92888168D01*
X139456352Y-92864938D01*
X139566382Y-92889658D01*
X139661498Y-92952507D01*
X139716870Y-93038371D01*
X139730324Y-93136448D01*
X140031306Y-93136448D01*
X140034038Y-93101872D01*
X140015954Y-92985139D01*
X139955263Y-92837434D01*
X139852687Y-92712685D01*
X139714642Y-92618107D01*
X139672455Y-92598818D01*
X139532600Y-92540852D01*
X139532600Y-90340400D01*
X140091400Y-90340400D01*
X140091400Y-90509009D01*
X140089470Y-90602105D01*
X140078907Y-90664069D01*
X140052553Y-90714547D01*
X140003248Y-90773186D01*
X139989800Y-90787841D01*
X139919474Y-90877565D01*
X139889831Y-90952223D01*
X139888200Y-90973178D01*
X139909094Y-91091673D01*
X139965337Y-91184189D01*
X140047271Y-91246442D01*
X140145240Y-91274147D01*
X140249586Y-91263018D01*
X140350653Y-91208771D01*
X140373635Y-91188584D01*
X140420216Y-91134674D01*
X140441803Y-91076283D01*
X140447000Y-90992146D01*
X140446119Y-90974506D01*
X140300567Y-90974506D01*
X140296308Y-91039674D01*
X140262147Y-91096050D01*
X140212652Y-91123763D01*
X140145914Y-91122235D01*
X140085465Y-91092523D01*
X140080515Y-91087885D01*
X140047949Y-91029429D01*
X140043457Y-90962251D01*
X140068098Y-90909882D01*
X140072350Y-90906253D01*
X140145554Y-90866661D01*
X140209389Y-90874048D01*
X140257655Y-90910745D01*
X140300567Y-90974506D01*
X140446119Y-90974506D01*
X140443086Y-90913860D01*
X140424639Y-90859305D01*
X140381601Y-90806709D01*
X140345400Y-90772200D01*
X140290972Y-90719307D01*
X140260567Y-90675556D01*
X140247198Y-90622876D01*
X140243880Y-90543200D01*
X140243800Y-90509401D01*
X140243800Y-90340400D01*
X140798761Y-90340400D01*
X140807031Y-90696758D01*
X140815300Y-91053116D01*
X141555360Y-91788200D01*
X141972730Y-91788588D01*
X142114533Y-91789808D01*
X142239194Y-91792931D01*
X142337554Y-91797566D01*
X142400453Y-91803321D01*
X142418243Y-91807638D01*
X142444438Y-91840543D01*
X142479100Y-91902978D01*
X142496724Y-91940600D01*
X142584091Y-92083156D01*
X142699763Y-92189970D01*
X142835403Y-92259578D01*
X142982679Y-92290516D01*
X143133254Y-92281318D01*
X143278794Y-92230520D01*
X143410965Y-92136658D01*
X143440765Y-92106485D01*
X143533943Y-91970895D01*
X143583634Y-91820460D01*
X143588051Y-91725108D01*
X143291800Y-91725108D01*
X143271552Y-91824834D01*
X143207865Y-91905517D01*
X143156829Y-91941864D01*
X143064856Y-91983404D01*
X142982299Y-91982768D01*
X142891934Y-91939424D01*
X142882807Y-91933395D01*
X142802493Y-91852935D01*
X142765046Y-91754295D01*
X142773366Y-91648391D01*
X142794007Y-91599031D01*
X142863250Y-91514565D01*
X142950956Y-91468981D01*
X143046418Y-91459568D01*
X143138935Y-91483616D01*
X143217802Y-91538413D01*
X143272315Y-91621249D01*
X143291800Y-91725108D01*
X143588051Y-91725108D01*
X143590857Y-91664548D01*
X143556631Y-91512527D01*
X143481975Y-91373765D01*
X143367907Y-91257631D01*
X143346762Y-91242257D01*
X143287083Y-91204009D01*
X143233395Y-91181186D01*
X143169199Y-91169870D01*
X143077994Y-91166144D01*
X143025101Y-91165900D01*
X142916965Y-91167503D01*
X142843209Y-91174920D01*
X142787449Y-91192055D01*
X142733301Y-91222815D01*
X142704971Y-91242231D01*
X142597199Y-91345741D01*
X142516042Y-91470831D01*
X142435720Y-91623100D01*
X141630128Y-91637144D01*
X141292564Y-91300274D01*
X140955000Y-90963405D01*
X140955000Y-90344771D01*
X141246462Y-90336235D01*
X141397787Y-90330158D01*
X141505889Y-90317156D01*
X141578341Y-90289654D01*
X141622718Y-90240080D01*
X141646593Y-90160861D01*
X141657537Y-90044422D01*
X141662036Y-89920661D01*
X141670572Y-89629200D01*
X142264054Y-89629200D01*
X142514537Y-89880626D01*
X142613741Y-89980843D01*
X142682041Y-90052908D01*
X142724631Y-90104411D01*
X142746700Y-90142947D01*
X142753443Y-90176107D01*
X142750050Y-90211483D01*
X142748110Y-90222188D01*
X142746904Y-90337937D01*
X142783888Y-90433138D01*
X142849622Y-90504709D01*
X142934666Y-90549568D01*
X143029577Y-90564632D01*
X143124916Y-90546819D01*
X143211240Y-90493046D01*
X143279109Y-90400230D01*
X143281054Y-90396196D01*
X143309403Y-90283665D01*
X143306955Y-90271248D01*
X143164800Y-90271248D01*
X143146255Y-90328717D01*
X143102312Y-90383114D01*
X143050508Y-90414592D01*
X143036360Y-90416600D01*
X142982235Y-90399409D01*
X142936200Y-90365800D01*
X142898525Y-90315513D01*
X142885400Y-90276900D01*
X142902215Y-90231828D01*
X142936200Y-90188000D01*
X142986487Y-90150324D01*
X143025100Y-90137200D01*
X143073227Y-90156023D01*
X143124617Y-90199912D01*
X143159603Y-90249998D01*
X143164800Y-90271248D01*
X143306955Y-90271248D01*
X143288031Y-90175260D01*
X143218007Y-90076119D01*
X143213563Y-90071799D01*
X143158463Y-90026425D01*
X143103614Y-90005537D01*
X143026249Y-90001558D01*
X143004330Y-90002185D01*
X142872700Y-90006871D01*
X142611968Y-89748185D01*
X142351235Y-89489500D01*
X142008718Y-89481182D01*
X141666200Y-89472864D01*
X141666200Y-88918000D01*
X141842564Y-88918000D01*
X141936256Y-88919326D01*
X141993317Y-88926539D01*
X142027906Y-88944492D01*
X142054183Y-88978037D01*
X142063698Y-88993789D01*
X142141234Y-89080974D01*
X142239765Y-89128127D01*
X142347349Y-89133892D01*
X142452045Y-89096915D01*
X142516885Y-89045225D01*
X142566018Y-88980978D01*
X142586437Y-88910016D01*
X142589016Y-88854500D01*
X142453600Y-88854500D01*
X142436786Y-88899571D01*
X142402800Y-88943400D01*
X142352514Y-88981075D01*
X142313900Y-88994200D01*
X142268829Y-88977385D01*
X142225000Y-88943400D01*
X142187325Y-88893113D01*
X142174200Y-88854500D01*
X142191015Y-88809428D01*
X142225000Y-88765600D01*
X142275287Y-88727924D01*
X142313900Y-88714800D01*
X142358972Y-88731614D01*
X142402800Y-88765600D01*
X142440476Y-88815886D01*
X142453600Y-88854500D01*
X142589016Y-88854500D01*
X142589067Y-88853413D01*
X142581963Y-88769049D01*
X142553138Y-88706915D01*
X142508145Y-88656021D01*
X142442761Y-88601547D01*
X142376308Y-88578615D01*
X142314636Y-88575100D01*
X142239375Y-88581028D01*
X142180784Y-88605494D01*
X142116760Y-88658516D01*
X142104503Y-88670350D01*
X142048976Y-88721411D01*
X142002223Y-88749946D01*
X141945821Y-88762482D01*
X141861347Y-88765547D01*
X141835720Y-88765600D01*
X141664482Y-88765600D01*
X141678900Y-88219500D01*
X142717351Y-88212862D01*
X143001068Y-88211681D01*
X143244099Y-88211998D01*
X143444631Y-88213779D01*
X143600851Y-88216994D01*
X143710946Y-88221611D01*
X143773105Y-88227598D01*
X143786390Y-88231610D01*
X143813276Y-88271288D01*
X143840806Y-88337037D01*
X143845772Y-88352548D01*
X143913161Y-88493743D01*
X144017156Y-88608979D01*
X144148848Y-88694856D01*
X144299327Y-88747977D01*
X144459683Y-88764941D01*
X144621006Y-88742350D01*
X144742586Y-88694664D01*
X144886088Y-88593992D01*
X144992715Y-88466269D01*
X145061418Y-88319681D01*
X145091151Y-88162414D01*
X145087118Y-88099749D01*
X144785422Y-88099749D01*
X144777650Y-88196778D01*
X144743580Y-88277913D01*
X144665780Y-88375915D01*
X144562719Y-88438086D01*
X144446394Y-88460833D01*
X144328802Y-88440565D01*
X144279430Y-88416904D01*
X144223191Y-88366182D01*
X144167518Y-88289179D01*
X144124259Y-88205477D01*
X144105265Y-88134657D01*
X144105158Y-88128930D01*
X144123220Y-88051587D01*
X144167144Y-87963650D01*
X144224531Y-87885698D01*
X144279143Y-87840184D01*
X144395805Y-87804334D01*
X144515448Y-87808839D01*
X144625374Y-87849673D01*
X144712887Y-87922812D01*
X144753829Y-87990640D01*
X144785422Y-88099749D01*
X145087118Y-88099749D01*
X145080868Y-88002656D01*
X145029522Y-87848593D01*
X144936067Y-87708412D01*
X144876294Y-87648767D01*
X144745651Y-87555320D01*
X144607979Y-87503995D01*
X144446224Y-87488483D01*
X144443086Y-87488493D01*
X144265975Y-87513084D01*
X144108334Y-87582136D01*
X143976467Y-87691047D01*
X143876680Y-87835212D01*
X143836621Y-87931250D01*
X143795534Y-88054953D01*
X142737217Y-88048326D01*
X141678900Y-88041700D01*
X141664482Y-87495600D01*
X142715404Y-87495600D01*
X142809200Y-87597200D01*
X142870552Y-87657873D01*
X142922260Y-87688153D01*
X142985297Y-87698184D01*
X143019250Y-87698800D01*
X143139088Y-87677674D01*
X143231131Y-87619910D01*
X143289649Y-87533929D01*
X143306631Y-87440685D01*
X143157335Y-87440685D01*
X143154351Y-87457576D01*
X143116958Y-87521165D01*
X143055535Y-87552799D01*
X142986689Y-87550957D01*
X142927026Y-87514118D01*
X142905047Y-87480415D01*
X142897461Y-87411426D01*
X142926252Y-87345786D01*
X142980308Y-87301397D01*
X143021749Y-87292400D01*
X143093914Y-87314101D01*
X143143304Y-87368756D01*
X143157335Y-87440685D01*
X143306631Y-87440685D01*
X143308915Y-87428149D01*
X143283199Y-87310991D01*
X143283158Y-87310893D01*
X143220810Y-87221051D01*
X143129912Y-87162576D01*
X143024627Y-87140765D01*
X142919115Y-87160917D01*
X142902781Y-87168584D01*
X142848239Y-87206369D01*
X142787104Y-87261612D01*
X142778882Y-87270184D01*
X142710464Y-87343200D01*
X142220082Y-87342811D01*
X142065826Y-87341655D01*
X141928033Y-87338669D01*
X141815145Y-87334193D01*
X141735602Y-87328569D01*
X141697847Y-87322137D01*
X141697015Y-87321683D01*
X141681413Y-87295622D01*
X141672568Y-87237346D01*
X141669890Y-87140217D01*
X141671615Y-87036322D01*
X141678900Y-86771700D01*
X141983700Y-86770880D01*
X142145486Y-86767560D01*
X142260857Y-86758332D01*
X142333899Y-86742801D01*
X142351754Y-86734971D01*
X142389369Y-86706169D01*
X142455530Y-86647414D01*
X142543348Y-86565154D01*
X142645934Y-86465836D01*
X142751804Y-86360541D01*
X143088600Y-86021203D01*
X143088600Y-85655578D01*
X143089675Y-85521501D01*
X143092627Y-85403429D01*
X143097048Y-85311742D01*
X143102529Y-85256819D01*
X143104635Y-85248169D01*
X143134528Y-85216900D01*
X143197631Y-85174811D01*
X143280390Y-85130922D01*
X143281888Y-85130213D01*
X143436345Y-85036892D01*
X143548441Y-84920479D01*
X143623744Y-84774712D01*
X143638609Y-84729107D01*
X143665528Y-84553100D01*
X143660271Y-84507780D01*
X143362423Y-84507780D01*
X143360186Y-84593034D01*
X143323670Y-84688781D01*
X143318665Y-84698730D01*
X143242549Y-84797325D01*
X143140006Y-84857233D01*
X143020771Y-84875442D01*
X142894577Y-84848941D01*
X142868922Y-84837804D01*
X142793707Y-84780434D01*
X142729420Y-84694301D01*
X142689251Y-84599777D01*
X142682200Y-84549396D01*
X142703431Y-84446846D01*
X142758544Y-84347250D01*
X142834672Y-84273436D01*
X142839422Y-84270451D01*
X142952659Y-84227042D01*
X143071536Y-84223971D01*
X143183464Y-84257684D01*
X143275855Y-84324632D01*
X143331429Y-84409240D01*
X143362423Y-84507780D01*
X143660271Y-84507780D01*
X143645744Y-84382565D01*
X143583028Y-84225474D01*
X143481149Y-84089798D01*
X143343876Y-83983511D01*
X143268248Y-83945993D01*
X143163494Y-83918788D01*
X143034749Y-83908641D01*
X142904711Y-83915589D01*
X142796081Y-83939667D01*
X142781953Y-83945218D01*
X142630236Y-84034267D01*
X142515079Y-84150894D01*
X142436296Y-84287597D01*
X142393704Y-84436876D01*
X142387118Y-84591229D01*
X142416354Y-84743157D01*
X142481227Y-84885158D01*
X142581553Y-85009731D01*
X142717146Y-85109374D01*
X142811653Y-85152706D01*
X142948900Y-85203870D01*
X142955969Y-85565852D01*
X142963038Y-85927835D01*
X142626981Y-86267217D01*
X142290924Y-86606600D01*
X141666200Y-86606600D01*
X141666200Y-86403400D01*
X141183600Y-86403400D01*
X141183600Y-89857800D01*
X137729200Y-89857800D01*
X137729200Y-88854500D01*
X136027400Y-88854500D01*
X136010586Y-88899571D01*
X135976600Y-88943400D01*
X135926314Y-88981075D01*
X135887700Y-88994200D01*
X135842629Y-88977385D01*
X135798800Y-88943400D01*
X135761125Y-88893113D01*
X135748000Y-88854500D01*
X135764815Y-88809428D01*
X135798800Y-88765600D01*
X135849087Y-88727924D01*
X135887700Y-88714800D01*
X135932772Y-88731614D01*
X135976600Y-88765600D01*
X136014276Y-88815886D01*
X136027400Y-88854500D01*
X137729200Y-88854500D01*
X137729200Y-88170420D01*
X134797246Y-88170420D01*
X134767451Y-88275185D01*
X134704239Y-88361863D01*
X134616090Y-88424676D01*
X134511482Y-88457845D01*
X134398898Y-88455594D01*
X134286816Y-88412145D01*
X134272207Y-88402821D01*
X134188151Y-88317411D01*
X134148977Y-88238863D01*
X134128568Y-88169976D01*
X134127189Y-88115956D01*
X134146236Y-88052090D01*
X134161677Y-88013953D01*
X134229005Y-87907759D01*
X134319900Y-87839123D01*
X134424423Y-87807416D01*
X134532636Y-87812012D01*
X134634603Y-87852282D01*
X134720384Y-87927598D01*
X134780043Y-88037333D01*
X134785142Y-88053345D01*
X134797246Y-88170420D01*
X137729200Y-88170420D01*
X137729200Y-86403400D01*
X141183600Y-86403400D01*
X141666200Y-86403400D01*
X141666200Y-86377184D01*
X141661109Y-86220030D01*
X141643934Y-86105616D01*
X141611828Y-86026725D01*
X141561942Y-85976143D01*
X141496780Y-85948095D01*
X141425457Y-85935464D01*
X141322614Y-85925952D01*
X141207507Y-85921197D01*
X141177250Y-85920941D01*
X140955000Y-85920800D01*
X140955000Y-85744729D01*
X140956431Y-85650737D01*
X140964126Y-85592531D01*
X140983189Y-85555108D01*
X141018726Y-85523467D01*
X141034074Y-85512353D01*
X141121826Y-85423923D01*
X141164944Y-85320939D01*
X141163787Y-85273100D01*
X141031200Y-85273100D01*
X141014386Y-85318171D01*
X140980400Y-85362000D01*
X140930114Y-85399675D01*
X140891500Y-85412800D01*
X140846429Y-85395985D01*
X140802600Y-85362000D01*
X140764794Y-85310021D01*
X140751800Y-85268750D01*
X140772510Y-85208633D01*
X140821687Y-85156843D01*
X140879903Y-85133463D01*
X140882737Y-85133400D01*
X140938484Y-85152804D01*
X140993247Y-85198806D01*
X141027561Y-85253092D01*
X141031200Y-85273100D01*
X141163787Y-85273100D01*
X141162321Y-85212518D01*
X141112850Y-85107778D01*
X141086980Y-85076566D01*
X140996843Y-85010652D01*
X140898008Y-84987115D01*
X140800145Y-85000968D01*
X140712922Y-85047225D01*
X140646007Y-85120899D01*
X140609070Y-85217004D01*
X140610160Y-85322491D01*
X140628096Y-85386296D01*
X140661494Y-85440256D01*
X140721262Y-85499530D01*
X140762680Y-85534451D01*
X140786197Y-85570973D01*
X140798886Y-85638540D01*
X140802600Y-85744001D01*
X140802600Y-85920800D01*
X140243800Y-85920800D01*
X140243800Y-84862084D01*
X140345400Y-84758436D01*
X140405670Y-84691170D01*
X140436158Y-84635553D01*
X140446418Y-84571087D01*
X140446833Y-84549200D01*
X140294600Y-84549200D01*
X140283512Y-84611142D01*
X140264120Y-84645720D01*
X140204958Y-84673306D01*
X140133415Y-84667430D01*
X140080515Y-84636285D01*
X140046686Y-84573967D01*
X140045222Y-84502651D01*
X140071080Y-84452680D01*
X140118577Y-84429209D01*
X140167600Y-84422200D01*
X140245088Y-84440502D01*
X140286894Y-84494942D01*
X140294600Y-84549200D01*
X140446833Y-84549200D01*
X140447000Y-84540448D01*
X140439279Y-84455616D01*
X140408634Y-84392589D01*
X140368847Y-84347953D01*
X140307772Y-84296807D01*
X140245111Y-84274534D01*
X140171997Y-84270607D01*
X140050426Y-84292357D01*
X139959931Y-84352998D01*
X139904588Y-84448392D01*
X139888200Y-84558784D01*
X139894917Y-84626092D01*
X139921698Y-84681565D01*
X139978490Y-84744446D01*
X139989800Y-84755315D01*
X140091400Y-84851965D01*
X140091400Y-85920800D01*
X139532600Y-85920800D01*
X139532600Y-83773723D01*
X139661385Y-83727983D01*
X139826022Y-83645411D01*
X139953024Y-83529595D01*
X140040185Y-83383704D01*
X140085295Y-83210903D01*
X140091300Y-83112930D01*
X139786600Y-83112930D01*
X139764704Y-83237393D01*
X139705161Y-83339100D01*
X139617195Y-83412254D01*
X139510029Y-83451062D01*
X139392884Y-83449729D01*
X139301616Y-83417666D01*
X139211291Y-83344072D01*
X139150181Y-83238522D01*
X139126363Y-83115253D01*
X139126295Y-83108633D01*
X139149913Y-82998828D01*
X139214281Y-82899752D01*
X139309381Y-82823834D01*
X139380317Y-82793564D01*
X139491609Y-82784431D01*
X139598127Y-82817674D01*
X139689544Y-82885172D01*
X139755529Y-82978807D01*
X139785753Y-83090458D01*
X139786600Y-83112930D01*
X140091300Y-83112930D01*
X140091400Y-83111306D01*
X140088068Y-83006841D01*
X140073988Y-82929593D01*
X140043037Y-82856187D01*
X140008689Y-82795638D01*
X139897670Y-82655283D01*
X139760496Y-82554696D01*
X139604859Y-82495764D01*
X139438450Y-82480373D01*
X139268961Y-82510409D01*
G36*
X136497580Y-87163379D02*
G01*
X136412450Y-87225798D01*
X136353655Y-87315680D01*
X136332200Y-87419400D01*
X136340021Y-87497207D01*
X136370784Y-87558919D01*
X136418560Y-87612440D01*
X136486512Y-87669914D01*
X136550726Y-87694586D01*
X136602710Y-87698027D01*
X136681147Y-87690313D01*
X136745061Y-87672423D01*
X136751300Y-87669318D01*
X136837433Y-87597625D01*
X136882101Y-87498377D01*
X136889871Y-87419400D01*
X136738600Y-87419400D01*
X136720700Y-87496327D01*
X136666459Y-87537908D01*
X136605976Y-87546400D01*
X136540868Y-87529708D01*
X136505379Y-87482900D01*
X136490039Y-87403983D01*
X136513146Y-87338031D01*
X136567701Y-87298298D01*
X136605976Y-87292400D01*
X136686311Y-87309540D01*
X136729733Y-87361481D01*
X136738600Y-87419400D01*
X136889871Y-87419400D01*
X136869379Y-87299313D01*
X136809979Y-87210752D01*
X136714781Y-87156696D01*
X136598030Y-87140000D01*
X136497580Y-87163379D01*
G37*
X136497580Y-87163379D02*
X136412450Y-87225798D01*
X136353655Y-87315680D01*
X136332200Y-87419400D01*
X136340021Y-87497207D01*
X136370784Y-87558919D01*
X136418560Y-87612440D01*
X136486512Y-87669914D01*
X136550726Y-87694586D01*
X136602710Y-87698027D01*
X136681147Y-87690313D01*
X136745061Y-87672423D01*
X136751300Y-87669318D01*
X136837433Y-87597625D01*
X136882101Y-87498377D01*
X136889871Y-87419400D01*
X136738600Y-87419400D01*
X136720700Y-87496327D01*
X136666459Y-87537908D01*
X136605976Y-87546400D01*
X136540868Y-87529708D01*
X136505379Y-87482900D01*
X136490039Y-87403983D01*
X136513146Y-87338031D01*
X136567701Y-87298298D01*
X136605976Y-87292400D01*
X136686311Y-87309540D01*
X136729733Y-87361481D01*
X136738600Y-87419400D01*
X136889871Y-87419400D01*
X136869379Y-87299313D01*
X136809979Y-87210752D01*
X136714781Y-87156696D01*
X136598030Y-87140000D01*
X136497580Y-87163379D01*
G36*
X139206485Y-87089411D02*
G01*
X139002544Y-87090172D01*
X138839756Y-87091676D01*
X138713297Y-87094116D01*
X138618343Y-87097682D01*
X138550071Y-87102567D01*
X138503658Y-87108965D01*
X138474281Y-87117066D01*
X138457115Y-87127063D01*
X138454915Y-87129114D01*
X138444503Y-87144631D01*
X138436041Y-87171514D01*
X138429333Y-87214608D01*
X138424184Y-87278764D01*
X138420400Y-87368827D01*
X138417784Y-87489646D01*
X138416143Y-87646069D01*
X138415282Y-87842943D01*
X138415004Y-88085117D01*
X138415000Y-88121384D01*
X138415721Y-88393883D01*
X138417847Y-88626577D01*
X138421323Y-88817374D01*
X138426093Y-88964182D01*
X138432104Y-89064912D01*
X138439301Y-89117472D01*
X138441294Y-89122869D01*
X138449783Y-89135325D01*
X138463821Y-89145478D01*
X138488242Y-89153564D01*
X138527878Y-89159816D01*
X138587562Y-89164470D01*
X138672126Y-89167762D01*
X138786403Y-89169924D01*
X138935226Y-89171193D01*
X139123427Y-89171804D01*
X139355839Y-89171991D01*
X139452214Y-89172000D01*
X139721625Y-89171561D01*
X139943615Y-89170179D01*
X140121558Y-89167752D01*
X140258826Y-89164178D01*
X140358791Y-89159356D01*
X140424828Y-89153186D01*
X140460307Y-89145565D01*
X140467320Y-89141520D01*
X140475704Y-89118921D01*
X140482569Y-89067221D01*
X140488019Y-88983031D01*
X140492157Y-88862964D01*
X140495086Y-88703631D01*
X140496909Y-88501645D01*
X140497730Y-88253617D01*
X140497800Y-88140034D01*
X140497592Y-87888810D01*
X140496841Y-87683586D01*
X140495358Y-87519564D01*
X140492952Y-87391944D01*
X140489436Y-87295929D01*
X140487423Y-87267000D01*
X140345400Y-87267000D01*
X140345400Y-88126366D01*
X140344908Y-88330486D01*
X140343508Y-88518287D01*
X140341320Y-88683766D01*
X140338462Y-88820920D01*
X140335052Y-88923743D01*
X140331207Y-88986234D01*
X140328139Y-89002994D01*
X140299529Y-89006881D01*
X140226104Y-89010076D01*
X140113845Y-89012508D01*
X139968734Y-89014105D01*
X139796750Y-89014795D01*
X139603877Y-89014507D01*
X139445489Y-89013578D01*
X138580100Y-89006900D01*
X138566734Y-87267000D01*
X140345400Y-87267000D01*
X140487423Y-87267000D01*
X140484619Y-87226720D01*
X140478311Y-87179517D01*
X140470324Y-87149523D01*
X140460468Y-87131938D01*
X140457886Y-87129114D01*
X140442435Y-87118749D01*
X140415654Y-87110315D01*
X140372721Y-87103620D01*
X140308813Y-87098472D01*
X140219106Y-87094679D01*
X140098776Y-87092047D01*
X139943001Y-87090386D01*
X139746957Y-87089503D01*
X139505820Y-87089206D01*
X139456400Y-87089200D01*
X139206485Y-87089411D01*
G37*
X139206485Y-87089411D02*
X139002544Y-87090172D01*
X138839756Y-87091676D01*
X138713297Y-87094116D01*
X138618343Y-87097682D01*
X138550071Y-87102567D01*
X138503658Y-87108965D01*
X138474281Y-87117066D01*
X138457115Y-87127063D01*
X138454915Y-87129114D01*
X138444503Y-87144631D01*
X138436041Y-87171514D01*
X138429333Y-87214608D01*
X138424184Y-87278764D01*
X138420400Y-87368827D01*
X138417784Y-87489646D01*
X138416143Y-87646069D01*
X138415282Y-87842943D01*
X138415004Y-88085117D01*
X138415000Y-88121384D01*
X138415721Y-88393883D01*
X138417847Y-88626577D01*
X138421323Y-88817374D01*
X138426093Y-88964182D01*
X138432104Y-89064912D01*
X138439301Y-89117472D01*
X138441294Y-89122869D01*
X138449783Y-89135325D01*
X138463821Y-89145478D01*
X138488242Y-89153564D01*
X138527878Y-89159816D01*
X138587562Y-89164470D01*
X138672126Y-89167762D01*
X138786403Y-89169924D01*
X138935226Y-89171193D01*
X139123427Y-89171804D01*
X139355839Y-89171991D01*
X139452214Y-89172000D01*
X139721625Y-89171561D01*
X139943615Y-89170179D01*
X140121558Y-89167752D01*
X140258826Y-89164178D01*
X140358791Y-89159356D01*
X140424828Y-89153186D01*
X140460307Y-89145565D01*
X140467320Y-89141520D01*
X140475704Y-89118921D01*
X140482569Y-89067221D01*
X140488019Y-88983031D01*
X140492157Y-88862964D01*
X140495086Y-88703631D01*
X140496909Y-88501645D01*
X140497730Y-88253617D01*
X140497800Y-88140034D01*
X140497592Y-87888810D01*
X140496841Y-87683586D01*
X140495358Y-87519564D01*
X140492952Y-87391944D01*
X140489436Y-87295929D01*
X140487423Y-87267000D01*
X140345400Y-87267000D01*
X140345400Y-88126366D01*
X140344908Y-88330486D01*
X140343508Y-88518287D01*
X140341320Y-88683766D01*
X140338462Y-88820920D01*
X140335052Y-88923743D01*
X140331207Y-88986234D01*
X140328139Y-89002994D01*
X140299529Y-89006881D01*
X140226104Y-89010076D01*
X140113845Y-89012508D01*
X139968734Y-89014105D01*
X139796750Y-89014795D01*
X139603877Y-89014507D01*
X139445489Y-89013578D01*
X138580100Y-89006900D01*
X138566734Y-87267000D01*
X140345400Y-87267000D01*
X140487423Y-87267000D01*
X140484619Y-87226720D01*
X140478311Y-87179517D01*
X140470324Y-87149523D01*
X140460468Y-87131938D01*
X140457886Y-87129114D01*
X140442435Y-87118749D01*
X140415654Y-87110315D01*
X140372721Y-87103620D01*
X140308813Y-87098472D01*
X140219106Y-87094679D01*
X140098776Y-87092047D01*
X139943001Y-87090386D01*
X139746957Y-87089503D01*
X139505820Y-87089206D01*
X139456400Y-87089200D01*
X139206485Y-87089411D01*
G36*
X138073658Y-86719288D02*
G01*
X138039080Y-86738680D01*
X138012002Y-86797081D01*
X138014734Y-86870822D01*
X138045396Y-86935540D01*
X138055051Y-86945563D01*
X138099532Y-86978150D01*
X138143112Y-86982105D01*
X138205450Y-86961408D01*
X138247902Y-86929165D01*
X138262301Y-86869053D01*
X138262600Y-86853798D01*
X138248074Y-86767768D01*
X138202409Y-86720531D01*
X138135600Y-86708200D01*
X138073658Y-86719288D01*
G37*
X138073658Y-86719288D02*
X138039080Y-86738680D01*
X138012002Y-86797081D01*
X138014734Y-86870822D01*
X138045396Y-86935540D01*
X138055051Y-86945563D01*
X138099532Y-86978150D01*
X138143112Y-86982105D01*
X138205450Y-86961408D01*
X138247902Y-86929165D01*
X138262301Y-86869053D01*
X138262600Y-86853798D01*
X138248074Y-86767768D01*
X138202409Y-86720531D01*
X138135600Y-86708200D01*
X138073658Y-86719288D01*
%TD*%
M02*
