%TF.GenerationSoftware,KiCad,Pcbnew,(5.1.9)-1*%
%TF.CreationDate,2021-04-27T12:28:50+01:00*%
%TF.ProjectId,LLC-003,4c4c432d-3030-4332-9e6b-696361645f70,1.0*%
%TF.SameCoordinates,Original*%
%TF.FileFunction,Copper,L2,Bot*%
%TF.FilePolarity,Positive*%
%FSLAX46Y46*%
G04 Gerber Fmt 4.6, Leading zero omitted, Abs format (unit mm)*
G04 Created by KiCad (PCBNEW (5.1.9)-1) date 2021-04-27 12:28:50*
%MOMM*%
%LPD*%
G01*
G04 APERTURE LIST*
%TA.AperFunction,ComponentPad*%
%ADD10O,1.700000X1.700000*%
%TD*%
%TA.AperFunction,ComponentPad*%
%ADD11R,1.700000X1.700000*%
%TD*%
%TA.AperFunction,ComponentPad*%
%ADD12C,0.800000*%
%TD*%
%TA.AperFunction,ComponentPad*%
%ADD13C,6.400000*%
%TD*%
%TA.AperFunction,ViaPad*%
%ADD14C,0.450000*%
%TD*%
%TA.AperFunction,Conductor*%
%ADD15C,0.250000*%
%TD*%
%TA.AperFunction,Conductor*%
%ADD16C,0.400000*%
%TD*%
%TA.AperFunction,Conductor*%
%ADD17C,0.254000*%
%TD*%
%TA.AperFunction,Conductor*%
%ADD18C,0.100000*%
%TD*%
G04 APERTURE END LIST*
D10*
%TO.P,J3,2*%
%TO.N,Net-(D15-Pad2)*%
X160000000Y-91290000D03*
D11*
%TO.P,J3,1*%
%TO.N,GND*%
X160000000Y-88750000D03*
%TD*%
D10*
%TO.P,J2,6*%
%TO.N,/~OUT*%
X146365200Y-70000000D03*
%TO.P,J2,5*%
%TO.N,/B_MUX*%
X143825200Y-70000000D03*
%TO.P,J2,4*%
%TO.N,/A_MUX*%
X141285200Y-70000000D03*
%TO.P,J2,3*%
%TO.N,/~IN_B*%
X138745200Y-70000000D03*
%TO.P,J2,2*%
%TO.N,/~IN_A*%
X136205200Y-70000000D03*
D11*
%TO.P,J2,1*%
%TO.N,GND*%
X133665200Y-70000000D03*
%TD*%
D10*
%TO.P,J1,4*%
%TO.N,VCC*%
X120000000Y-93870000D03*
%TO.P,J1,3*%
%TO.N,/INA*%
X120000000Y-91330000D03*
%TO.P,J1,2*%
%TO.N,/INB*%
X120000000Y-88790000D03*
D11*
%TO.P,J1,1*%
%TO.N,GND*%
X120000000Y-86250000D03*
%TD*%
D12*
%TO.P,H4,1*%
%TO.N,GND*%
X161697056Y-108302944D03*
X160000000Y-107600000D03*
X158302944Y-108302944D03*
X157600000Y-110000000D03*
X158302944Y-111697056D03*
X160000000Y-112400000D03*
X161697056Y-111697056D03*
X162400000Y-110000000D03*
D13*
X160000000Y-110000000D03*
%TD*%
D12*
%TO.P,H3,1*%
%TO.N,GND*%
X161697056Y-68302944D03*
X160000000Y-67600000D03*
X158302944Y-68302944D03*
X157600000Y-70000000D03*
X158302944Y-71697056D03*
X160000000Y-72400000D03*
X161697056Y-71697056D03*
X162400000Y-70000000D03*
D13*
X160000000Y-70000000D03*
%TD*%
D12*
%TO.P,H2,1*%
%TO.N,GND*%
X121697056Y-68302944D03*
X120000000Y-67600000D03*
X118302944Y-68302944D03*
X117600000Y-70000000D03*
X118302944Y-71697056D03*
X120000000Y-72400000D03*
X121697056Y-71697056D03*
X122400000Y-70000000D03*
D13*
X120000000Y-70000000D03*
%TD*%
D12*
%TO.P,H1,1*%
%TO.N,GND*%
X121697056Y-108302944D03*
X120000000Y-107600000D03*
X118302944Y-108302944D03*
X117600000Y-110000000D03*
X118302944Y-111697056D03*
X120000000Y-112400000D03*
X121697056Y-111697056D03*
X122400000Y-110000000D03*
D13*
X120000000Y-110000000D03*
%TD*%
D14*
%TO.N,Net-(D3-Pad2)*%
X131328400Y-95928400D03*
X131328400Y-92220000D03*
X131328400Y-88003600D03*
X131328400Y-84295200D03*
%TO.N,/~IN_A*%
X124572000Y-92220000D03*
X124572000Y-86073194D03*
%TO.N,/A_MUX*%
X142606000Y-81348800D03*
X142188408Y-72558064D03*
X142606000Y-91966000D03*
X142606000Y-99890800D03*
%TO.N,/B_MUX*%
X138694400Y-93693200D03*
X138694400Y-97960400D03*
X138694400Y-81348800D03*
X138694400Y-79215200D03*
%TO.N,GND*%
X126908800Y-79621600D03*
X122590800Y-96893600D03*
X124622800Y-93185200D03*
X129448800Y-96995200D03*
X131328400Y-96893600D03*
X132242800Y-93947200D03*
X132242800Y-89730800D03*
X125588000Y-89680000D03*
X122590800Y-83279200D03*
X129448800Y-83431600D03*
X132242800Y-85971600D03*
X136764000Y-85870000D03*
X136764000Y-81602800D03*
X136814800Y-90086400D03*
X136764000Y-94302800D03*
X138709594Y-98910400D03*
X139558000Y-95369600D03*
X139558000Y-91712000D03*
X139558000Y-87495600D03*
X144384000Y-82314000D03*
X143418800Y-89375200D03*
X143418800Y-93642400D03*
X143418800Y-97300000D03*
X142555200Y-100856000D03*
X146416000Y-99687600D03*
X146365200Y-91762800D03*
X151140400Y-96487200D03*
X154137600Y-100449600D03*
X154188400Y-91305600D03*
X136205200Y-78046800D03*
X138745200Y-78046800D03*
X141285200Y-78046800D03*
X143825200Y-78046800D03*
X146365200Y-78046800D03*
X127772400Y-99687600D03*
%TO.N,VCC*%
X126807200Y-87038400D03*
X126807200Y-91254800D03*
X133512800Y-83380800D03*
X133512800Y-87038400D03*
X133512800Y-91254800D03*
X133512800Y-94963200D03*
X140777200Y-80383600D03*
X140777200Y-84803200D03*
X140777200Y-89070400D03*
X140777200Y-92728000D03*
X140777200Y-96995200D03*
X144739600Y-98925600D03*
X144739600Y-94658400D03*
X144739600Y-91000800D03*
X144739600Y-86733600D03*
X144688800Y-104818400D03*
X156372800Y-89375200D03*
X156372800Y-104818400D03*
X152461200Y-93845600D03*
X152410400Y-104818400D03*
X140828000Y-104818400D03*
X133512800Y-104818400D03*
X126756400Y-104818400D03*
X120000000Y-104818400D03*
X148600400Y-89832400D03*
X148600400Y-97757200D03*
X148600400Y-104818400D03*
X116952000Y-101719600D03*
X116952000Y-78148400D03*
X116952000Y-93845600D03*
%TO.N,Net-(U10-Pad2)*%
X141437600Y-90035600D03*
X141437600Y-85768400D03*
X141437600Y-83126800D03*
%TO.N,Net-(U13-Pad2)*%
X142047200Y-95623600D03*
X142047200Y-87698800D03*
X142047200Y-83482400D03*
%TO.N,Net-(U17-Pad4)*%
X150327600Y-93845600D03*
X150327600Y-91762800D03*
%TO.N,Net-(U18-Pad4)*%
X150327600Y-99636800D03*
X150327600Y-94810800D03*
%TO.N,Net-(D4-Pad2)*%
X130617200Y-83380800D03*
X130617200Y-87038400D03*
X130617400Y-91457800D03*
X130617200Y-94963200D03*
%TO.N,/INA*%
X123810000Y-91356400D03*
X123795200Y-98504400D03*
%TO.N,/INB*%
X123708400Y-81552000D03*
X123810000Y-88410000D03*
%TD*%
D15*
%TO.N,Net-(D3-Pad2)*%
X131328400Y-95928400D02*
X131328400Y-92220000D01*
X131328400Y-92220000D02*
X131328400Y-88003600D01*
X131328400Y-84295200D02*
X131328400Y-88003600D01*
%TO.N,/~IN_A*%
X124572000Y-92220000D02*
X124572000Y-86073194D01*
%TO.N,/A_MUX*%
X142606000Y-72975656D02*
X142188408Y-72558064D01*
X142606000Y-81348800D02*
X142606000Y-72975656D01*
X142606000Y-81348800D02*
X142606000Y-91966000D01*
X142606000Y-91966000D02*
X142606000Y-99890800D01*
%TO.N,/B_MUX*%
X138694400Y-93693200D02*
X138694400Y-97960400D01*
X138694400Y-93693200D02*
X138694400Y-81348800D01*
X138694400Y-79215200D02*
X138694400Y-81348800D01*
D16*
%TO.N,VCC*%
X126807200Y-87038400D02*
X126807200Y-91254800D01*
X126807200Y-91254800D02*
X126807200Y-104767600D01*
X133512800Y-83380800D02*
X133512800Y-87038400D01*
X133512800Y-87038400D02*
X133512800Y-91254800D01*
X133512800Y-91254800D02*
X133512800Y-94963200D01*
X133512800Y-94963200D02*
X133512800Y-104818400D01*
X140777200Y-80383600D02*
X140777200Y-84803200D01*
X140777200Y-84803200D02*
X140777200Y-89070400D01*
X140777200Y-89070400D02*
X140777200Y-92728000D01*
X140777200Y-92728000D02*
X140777200Y-96995200D01*
X140777200Y-104767600D02*
X140828000Y-104818400D01*
X140777200Y-96995200D02*
X140777200Y-104767600D01*
X144739600Y-98925600D02*
X144739600Y-94658400D01*
X144739600Y-94658400D02*
X144739600Y-91000800D01*
X144739600Y-91000800D02*
X144739600Y-86733600D01*
X144739600Y-104767600D02*
X144688800Y-104818400D01*
X144739600Y-98925600D02*
X144739600Y-104767600D01*
X156372800Y-89375200D02*
X156372800Y-104818400D01*
X152461200Y-104767600D02*
X152410400Y-104818400D01*
X152461200Y-93845600D02*
X152461200Y-104767600D01*
X126807200Y-104767600D02*
X126756400Y-104818400D01*
X148600400Y-89832400D02*
X148600400Y-97757200D01*
X148600400Y-97757200D02*
X148600400Y-104818400D01*
X116952000Y-93845600D02*
X116952000Y-78148400D01*
X116952000Y-101719600D02*
X116952000Y-93845600D01*
X120000000Y-104818400D02*
X120000000Y-93870000D01*
D15*
%TO.N,Net-(U10-Pad2)*%
X141437600Y-90035600D02*
X141437600Y-85768400D01*
X141437600Y-85768400D02*
X141437600Y-83126800D01*
%TO.N,Net-(U13-Pad2)*%
X142047200Y-95623600D02*
X142047200Y-87698800D01*
X142047200Y-87698800D02*
X142047200Y-83482400D01*
%TO.N,Net-(U17-Pad4)*%
X150327600Y-93845600D02*
X150327600Y-91762800D01*
%TO.N,Net-(U18-Pad4)*%
X150327600Y-99636800D02*
X150327600Y-94810800D01*
%TO.N,Net-(D4-Pad2)*%
X130617200Y-83380800D02*
X130617200Y-87038400D01*
X130617200Y-91457600D02*
X130617400Y-91457800D01*
X130617200Y-87038400D02*
X130617200Y-91457600D01*
X130617400Y-94963000D02*
X130617200Y-94963200D01*
X130617400Y-91457800D02*
X130617400Y-94963000D01*
%TO.N,/INA*%
X123810000Y-98489600D02*
X123795200Y-98504400D01*
X123810000Y-91356400D02*
X123810000Y-98489600D01*
%TO.N,/INB*%
X123708400Y-88308400D02*
X123810000Y-88410000D01*
X123708400Y-81552000D02*
X123708400Y-88308400D01*
%TD*%
D17*
%TO.N,GND*%
X160768083Y-65731173D02*
X161511891Y-65934656D01*
X162207905Y-66266638D01*
X162834130Y-66716626D01*
X163370777Y-67270403D01*
X163800871Y-67910451D01*
X164110829Y-68616553D01*
X164292065Y-69371457D01*
X164340001Y-70024220D01*
X164340000Y-109970608D01*
X164268827Y-110768083D01*
X164065344Y-111511890D01*
X163733363Y-112207904D01*
X163283374Y-112834130D01*
X162729597Y-113370777D01*
X162089549Y-113800871D01*
X161383447Y-114110829D01*
X160628543Y-114292065D01*
X159975793Y-114340000D01*
X120029392Y-114340000D01*
X119231917Y-114268827D01*
X118488110Y-114065344D01*
X117792096Y-113733363D01*
X117165870Y-113283374D01*
X116629223Y-112729597D01*
X116609927Y-112700881D01*
X117478724Y-112700881D01*
X117838912Y-113190548D01*
X118502882Y-113550849D01*
X119224385Y-113774694D01*
X119975695Y-113853480D01*
X120727938Y-113784178D01*
X121452208Y-113569452D01*
X122120670Y-113217555D01*
X122161088Y-113190548D01*
X122521276Y-112700881D01*
X157478724Y-112700881D01*
X157838912Y-113190548D01*
X158502882Y-113550849D01*
X159224385Y-113774694D01*
X159975695Y-113853480D01*
X160727938Y-113784178D01*
X161452208Y-113569452D01*
X162120670Y-113217555D01*
X162161088Y-113190548D01*
X162521276Y-112700881D01*
X160000000Y-110179605D01*
X157478724Y-112700881D01*
X122521276Y-112700881D01*
X120000000Y-110179605D01*
X117478724Y-112700881D01*
X116609927Y-112700881D01*
X116199129Y-112089549D01*
X115889171Y-111383447D01*
X115707935Y-110628543D01*
X115660000Y-109975793D01*
X115660000Y-109975695D01*
X116146520Y-109975695D01*
X116215822Y-110727938D01*
X116430548Y-111452208D01*
X116782445Y-112120670D01*
X116809452Y-112161088D01*
X117299119Y-112521276D01*
X119820395Y-110000000D01*
X120179605Y-110000000D01*
X122700881Y-112521276D01*
X123190548Y-112161088D01*
X123550849Y-111497118D01*
X123774694Y-110775615D01*
X123853480Y-110024305D01*
X123849002Y-109975695D01*
X156146520Y-109975695D01*
X156215822Y-110727938D01*
X156430548Y-111452208D01*
X156782445Y-112120670D01*
X156809452Y-112161088D01*
X157299119Y-112521276D01*
X159820395Y-110000000D01*
X160179605Y-110000000D01*
X162700881Y-112521276D01*
X163190548Y-112161088D01*
X163550849Y-111497118D01*
X163774694Y-110775615D01*
X163853480Y-110024305D01*
X163784178Y-109272062D01*
X163569452Y-108547792D01*
X163217555Y-107879330D01*
X163190548Y-107838912D01*
X162700881Y-107478724D01*
X160179605Y-110000000D01*
X159820395Y-110000000D01*
X157299119Y-107478724D01*
X156809452Y-107838912D01*
X156449151Y-108502882D01*
X156225306Y-109224385D01*
X156146520Y-109975695D01*
X123849002Y-109975695D01*
X123784178Y-109272062D01*
X123569452Y-108547792D01*
X123217555Y-107879330D01*
X123190548Y-107838912D01*
X122700881Y-107478724D01*
X120179605Y-110000000D01*
X119820395Y-110000000D01*
X117299119Y-107478724D01*
X116809452Y-107838912D01*
X116449151Y-108502882D01*
X116225306Y-109224385D01*
X116146520Y-109975695D01*
X115660000Y-109975695D01*
X115660000Y-107299119D01*
X117478724Y-107299119D01*
X120000000Y-109820395D01*
X122521276Y-107299119D01*
X157478724Y-107299119D01*
X160000000Y-109820395D01*
X162521276Y-107299119D01*
X162161088Y-106809452D01*
X161497118Y-106449151D01*
X160775615Y-106225306D01*
X160024305Y-106146520D01*
X159272062Y-106215822D01*
X158547792Y-106430548D01*
X157879330Y-106782445D01*
X157838912Y-106809452D01*
X157478724Y-107299119D01*
X122521276Y-107299119D01*
X122161088Y-106809452D01*
X121497118Y-106449151D01*
X120775615Y-106225306D01*
X120024305Y-106146520D01*
X119272062Y-106215822D01*
X118547792Y-106430548D01*
X117879330Y-106782445D01*
X117838912Y-106809452D01*
X117478724Y-107299119D01*
X115660000Y-107299119D01*
X115660000Y-78063697D01*
X116092000Y-78063697D01*
X116092000Y-78233103D01*
X116117001Y-78358793D01*
X116117000Y-93635212D01*
X116092000Y-93760897D01*
X116092000Y-93930303D01*
X116117001Y-94055992D01*
X116117000Y-101509212D01*
X116092000Y-101634897D01*
X116092000Y-101804303D01*
X116125049Y-101970453D01*
X116189878Y-102126963D01*
X116283995Y-102267818D01*
X116403782Y-102387605D01*
X116544637Y-102481722D01*
X116701147Y-102546551D01*
X116867297Y-102579600D01*
X117036703Y-102579600D01*
X117202853Y-102546551D01*
X117359363Y-102481722D01*
X117500218Y-102387605D01*
X117620005Y-102267818D01*
X117714122Y-102126963D01*
X117778951Y-101970453D01*
X117812000Y-101804303D01*
X117812000Y-101634897D01*
X117787000Y-101509212D01*
X117787000Y-94055988D01*
X117812000Y-93930303D01*
X117812000Y-93760897D01*
X117787000Y-93635212D01*
X117787000Y-87100000D01*
X118511928Y-87100000D01*
X118524188Y-87224482D01*
X118560498Y-87344180D01*
X118619463Y-87454494D01*
X118698815Y-87551185D01*
X118795506Y-87630537D01*
X118905820Y-87689502D01*
X118978380Y-87711513D01*
X118846525Y-87843368D01*
X118684010Y-88086589D01*
X118572068Y-88356842D01*
X118515000Y-88643740D01*
X118515000Y-88936260D01*
X118572068Y-89223158D01*
X118684010Y-89493411D01*
X118846525Y-89736632D01*
X119053368Y-89943475D01*
X119227760Y-90060000D01*
X119053368Y-90176525D01*
X118846525Y-90383368D01*
X118684010Y-90626589D01*
X118572068Y-90896842D01*
X118515000Y-91183740D01*
X118515000Y-91476260D01*
X118572068Y-91763158D01*
X118684010Y-92033411D01*
X118846525Y-92276632D01*
X119053368Y-92483475D01*
X119227760Y-92600000D01*
X119053368Y-92716525D01*
X118846525Y-92923368D01*
X118684010Y-93166589D01*
X118572068Y-93436842D01*
X118515000Y-93723740D01*
X118515000Y-94016260D01*
X118572068Y-94303158D01*
X118684010Y-94573411D01*
X118846525Y-94816632D01*
X119053368Y-95023475D01*
X119165001Y-95098066D01*
X119165000Y-104608012D01*
X119140000Y-104733697D01*
X119140000Y-104903103D01*
X119173049Y-105069253D01*
X119237878Y-105225763D01*
X119331995Y-105366618D01*
X119451782Y-105486405D01*
X119592637Y-105580522D01*
X119749147Y-105645351D01*
X119915297Y-105678400D01*
X120084703Y-105678400D01*
X120250853Y-105645351D01*
X120407363Y-105580522D01*
X120548218Y-105486405D01*
X120668005Y-105366618D01*
X120762122Y-105225763D01*
X120826951Y-105069253D01*
X120860000Y-104903103D01*
X120860000Y-104733697D01*
X125896400Y-104733697D01*
X125896400Y-104903103D01*
X125929449Y-105069253D01*
X125994278Y-105225763D01*
X126088395Y-105366618D01*
X126208182Y-105486405D01*
X126349037Y-105580522D01*
X126505547Y-105645351D01*
X126671697Y-105678400D01*
X126841103Y-105678400D01*
X127007253Y-105645351D01*
X127163763Y-105580522D01*
X127304618Y-105486405D01*
X127424405Y-105366618D01*
X127518522Y-105225763D01*
X127550954Y-105147465D01*
X127582372Y-105088687D01*
X127630118Y-104931289D01*
X127642200Y-104808619D01*
X127646240Y-104767601D01*
X127642200Y-104726582D01*
X127642200Y-91465188D01*
X127667200Y-91339503D01*
X127667200Y-91170097D01*
X127642200Y-91044412D01*
X127642200Y-87248788D01*
X127667200Y-87123103D01*
X127667200Y-86953697D01*
X127634151Y-86787547D01*
X127569322Y-86631037D01*
X127475205Y-86490182D01*
X127355418Y-86370395D01*
X127214563Y-86276278D01*
X127058053Y-86211449D01*
X126891903Y-86178400D01*
X126722497Y-86178400D01*
X126556347Y-86211449D01*
X126399837Y-86276278D01*
X126258982Y-86370395D01*
X126139195Y-86490182D01*
X126045078Y-86631037D01*
X125980249Y-86787547D01*
X125947200Y-86953697D01*
X125947200Y-87123103D01*
X125972200Y-87248788D01*
X125972201Y-91044408D01*
X125947200Y-91170097D01*
X125947200Y-91339503D01*
X125972200Y-91465188D01*
X125972201Y-104464335D01*
X125929449Y-104567547D01*
X125896400Y-104733697D01*
X120860000Y-104733697D01*
X120835000Y-104608012D01*
X120835000Y-95098065D01*
X120946632Y-95023475D01*
X121153475Y-94816632D01*
X121315990Y-94573411D01*
X121427932Y-94303158D01*
X121485000Y-94016260D01*
X121485000Y-93723740D01*
X121427932Y-93436842D01*
X121315990Y-93166589D01*
X121153475Y-92923368D01*
X120946632Y-92716525D01*
X120772240Y-92600000D01*
X120946632Y-92483475D01*
X121153475Y-92276632D01*
X121315990Y-92033411D01*
X121427932Y-91763158D01*
X121485000Y-91476260D01*
X121485000Y-91183740D01*
X121427932Y-90896842D01*
X121315990Y-90626589D01*
X121153475Y-90383368D01*
X120946632Y-90176525D01*
X120772240Y-90060000D01*
X120946632Y-89943475D01*
X121153475Y-89736632D01*
X121315990Y-89493411D01*
X121427932Y-89223158D01*
X121485000Y-88936260D01*
X121485000Y-88643740D01*
X121427932Y-88356842D01*
X121315990Y-88086589D01*
X121153475Y-87843368D01*
X121021620Y-87711513D01*
X121094180Y-87689502D01*
X121204494Y-87630537D01*
X121301185Y-87551185D01*
X121380537Y-87454494D01*
X121439502Y-87344180D01*
X121475812Y-87224482D01*
X121488072Y-87100000D01*
X121485000Y-86535750D01*
X121326250Y-86377000D01*
X120127000Y-86377000D01*
X120127000Y-86397000D01*
X119873000Y-86397000D01*
X119873000Y-86377000D01*
X118673750Y-86377000D01*
X118515000Y-86535750D01*
X118511928Y-87100000D01*
X117787000Y-87100000D01*
X117787000Y-85400000D01*
X118511928Y-85400000D01*
X118515000Y-85964250D01*
X118673750Y-86123000D01*
X119873000Y-86123000D01*
X119873000Y-84923750D01*
X120127000Y-84923750D01*
X120127000Y-86123000D01*
X121326250Y-86123000D01*
X121485000Y-85964250D01*
X121488072Y-85400000D01*
X121475812Y-85275518D01*
X121439502Y-85155820D01*
X121380537Y-85045506D01*
X121301185Y-84948815D01*
X121204494Y-84869463D01*
X121094180Y-84810498D01*
X120974482Y-84774188D01*
X120850000Y-84761928D01*
X120285750Y-84765000D01*
X120127000Y-84923750D01*
X119873000Y-84923750D01*
X119714250Y-84765000D01*
X119150000Y-84761928D01*
X119025518Y-84774188D01*
X118905820Y-84810498D01*
X118795506Y-84869463D01*
X118698815Y-84948815D01*
X118619463Y-85045506D01*
X118560498Y-85155820D01*
X118524188Y-85275518D01*
X118511928Y-85400000D01*
X117787000Y-85400000D01*
X117787000Y-81467297D01*
X122848400Y-81467297D01*
X122848400Y-81636703D01*
X122881449Y-81802853D01*
X122946278Y-81959363D01*
X122948400Y-81962539D01*
X122948401Y-88271068D01*
X122944724Y-88308400D01*
X122948401Y-88345733D01*
X122950000Y-88361968D01*
X122950000Y-88494703D01*
X122983049Y-88660853D01*
X123047878Y-88817363D01*
X123141995Y-88958218D01*
X123261782Y-89078005D01*
X123402637Y-89172122D01*
X123559147Y-89236951D01*
X123725297Y-89270000D01*
X123812000Y-89270000D01*
X123812000Y-90496400D01*
X123725297Y-90496400D01*
X123559147Y-90529449D01*
X123402637Y-90594278D01*
X123261782Y-90688395D01*
X123141995Y-90808182D01*
X123047878Y-90949037D01*
X122983049Y-91105547D01*
X122950000Y-91271697D01*
X122950000Y-91441103D01*
X122983049Y-91607253D01*
X123047878Y-91763763D01*
X123050000Y-91766939D01*
X123050001Y-98071710D01*
X123033078Y-98097037D01*
X122968249Y-98253547D01*
X122935200Y-98419697D01*
X122935200Y-98589103D01*
X122968249Y-98755253D01*
X123033078Y-98911763D01*
X123127195Y-99052618D01*
X123246982Y-99172405D01*
X123387837Y-99266522D01*
X123544347Y-99331351D01*
X123710497Y-99364400D01*
X123879903Y-99364400D01*
X124046053Y-99331351D01*
X124202563Y-99266522D01*
X124343418Y-99172405D01*
X124463205Y-99052618D01*
X124557322Y-98911763D01*
X124622151Y-98755253D01*
X124655200Y-98589103D01*
X124655200Y-98419697D01*
X124622151Y-98253547D01*
X124570000Y-98127644D01*
X124570000Y-93080000D01*
X124656703Y-93080000D01*
X124822853Y-93046951D01*
X124979363Y-92982122D01*
X125120218Y-92888005D01*
X125240005Y-92768218D01*
X125334122Y-92627363D01*
X125398951Y-92470853D01*
X125432000Y-92304703D01*
X125432000Y-92135297D01*
X125398951Y-91969147D01*
X125334122Y-91812637D01*
X125332000Y-91809461D01*
X125332000Y-86483733D01*
X125334122Y-86480557D01*
X125398951Y-86324047D01*
X125432000Y-86157897D01*
X125432000Y-85988491D01*
X125398951Y-85822341D01*
X125334122Y-85665831D01*
X125240005Y-85524976D01*
X125120218Y-85405189D01*
X124979363Y-85311072D01*
X124822853Y-85246243D01*
X124656703Y-85213194D01*
X124487297Y-85213194D01*
X124468400Y-85216953D01*
X124468400Y-83296097D01*
X129757200Y-83296097D01*
X129757200Y-83465503D01*
X129790249Y-83631653D01*
X129855078Y-83788163D01*
X129857200Y-83791339D01*
X129857201Y-86627860D01*
X129855078Y-86631037D01*
X129790249Y-86787547D01*
X129757200Y-86953697D01*
X129757200Y-87123103D01*
X129790249Y-87289253D01*
X129855078Y-87445763D01*
X129857200Y-87448939D01*
X129857201Y-91047559D01*
X129855278Y-91050437D01*
X129790449Y-91206947D01*
X129757400Y-91373097D01*
X129757400Y-91542503D01*
X129790449Y-91708653D01*
X129855278Y-91865163D01*
X129857400Y-91868339D01*
X129857401Y-94552361D01*
X129855078Y-94555837D01*
X129790249Y-94712347D01*
X129757200Y-94878497D01*
X129757200Y-95047903D01*
X129790249Y-95214053D01*
X129855078Y-95370563D01*
X129949195Y-95511418D01*
X130068982Y-95631205D01*
X130209837Y-95725322D01*
X130366347Y-95790151D01*
X130474761Y-95811716D01*
X130468400Y-95843697D01*
X130468400Y-96013103D01*
X130501449Y-96179253D01*
X130566278Y-96335763D01*
X130660395Y-96476618D01*
X130780182Y-96596405D01*
X130921037Y-96690522D01*
X131077547Y-96755351D01*
X131243697Y-96788400D01*
X131413103Y-96788400D01*
X131579253Y-96755351D01*
X131735763Y-96690522D01*
X131876618Y-96596405D01*
X131996405Y-96476618D01*
X132090522Y-96335763D01*
X132155351Y-96179253D01*
X132188400Y-96013103D01*
X132188400Y-95843697D01*
X132155351Y-95677547D01*
X132090522Y-95521037D01*
X132088400Y-95517861D01*
X132088400Y-92630539D01*
X132090522Y-92627363D01*
X132155351Y-92470853D01*
X132188400Y-92304703D01*
X132188400Y-92135297D01*
X132155351Y-91969147D01*
X132090522Y-91812637D01*
X132088400Y-91809461D01*
X132088400Y-88414139D01*
X132090522Y-88410963D01*
X132155351Y-88254453D01*
X132188400Y-88088303D01*
X132188400Y-87918897D01*
X132155351Y-87752747D01*
X132090522Y-87596237D01*
X132088400Y-87593061D01*
X132088400Y-84705739D01*
X132090522Y-84702563D01*
X132155351Y-84546053D01*
X132188400Y-84379903D01*
X132188400Y-84210497D01*
X132155351Y-84044347D01*
X132090522Y-83887837D01*
X131996405Y-83746982D01*
X131876618Y-83627195D01*
X131735763Y-83533078D01*
X131579253Y-83468249D01*
X131477200Y-83447950D01*
X131477200Y-83296097D01*
X132652800Y-83296097D01*
X132652800Y-83465503D01*
X132677800Y-83591188D01*
X132677801Y-86828008D01*
X132652800Y-86953697D01*
X132652800Y-87123103D01*
X132677800Y-87248788D01*
X132677801Y-91044408D01*
X132652800Y-91170097D01*
X132652800Y-91339503D01*
X132677800Y-91465188D01*
X132677801Y-94752808D01*
X132652800Y-94878497D01*
X132652800Y-95047903D01*
X132677800Y-95173588D01*
X132677801Y-104608008D01*
X132652800Y-104733697D01*
X132652800Y-104903103D01*
X132685849Y-105069253D01*
X132750678Y-105225763D01*
X132844795Y-105366618D01*
X132964582Y-105486405D01*
X133105437Y-105580522D01*
X133261947Y-105645351D01*
X133428097Y-105678400D01*
X133597503Y-105678400D01*
X133763653Y-105645351D01*
X133920163Y-105580522D01*
X134061018Y-105486405D01*
X134180805Y-105366618D01*
X134274922Y-105225763D01*
X134339751Y-105069253D01*
X134372800Y-104903103D01*
X134372800Y-104733697D01*
X134347800Y-104608012D01*
X134347800Y-95173588D01*
X134372800Y-95047903D01*
X134372800Y-94878497D01*
X134347800Y-94752812D01*
X134347800Y-91465188D01*
X134372800Y-91339503D01*
X134372800Y-91170097D01*
X134347800Y-91044412D01*
X134347800Y-87248788D01*
X134372800Y-87123103D01*
X134372800Y-86953697D01*
X134347800Y-86828012D01*
X134347800Y-83591188D01*
X134372800Y-83465503D01*
X134372800Y-83296097D01*
X134339751Y-83129947D01*
X134274922Y-82973437D01*
X134180805Y-82832582D01*
X134061018Y-82712795D01*
X133920163Y-82618678D01*
X133763653Y-82553849D01*
X133597503Y-82520800D01*
X133428097Y-82520800D01*
X133261947Y-82553849D01*
X133105437Y-82618678D01*
X132964582Y-82712795D01*
X132844795Y-82832582D01*
X132750678Y-82973437D01*
X132685849Y-83129947D01*
X132652800Y-83296097D01*
X131477200Y-83296097D01*
X131444151Y-83129947D01*
X131379322Y-82973437D01*
X131285205Y-82832582D01*
X131165418Y-82712795D01*
X131024563Y-82618678D01*
X130868053Y-82553849D01*
X130701903Y-82520800D01*
X130532497Y-82520800D01*
X130366347Y-82553849D01*
X130209837Y-82618678D01*
X130068982Y-82712795D01*
X129949195Y-82832582D01*
X129855078Y-82973437D01*
X129790249Y-83129947D01*
X129757200Y-83296097D01*
X124468400Y-83296097D01*
X124468400Y-81962539D01*
X124470522Y-81959363D01*
X124535351Y-81802853D01*
X124568400Y-81636703D01*
X124568400Y-81467297D01*
X124535351Y-81301147D01*
X124470522Y-81144637D01*
X124376405Y-81003782D01*
X124256618Y-80883995D01*
X124115763Y-80789878D01*
X123959253Y-80725049D01*
X123793103Y-80692000D01*
X123623697Y-80692000D01*
X123457547Y-80725049D01*
X123301037Y-80789878D01*
X123160182Y-80883995D01*
X123040395Y-81003782D01*
X122946278Y-81144637D01*
X122881449Y-81301147D01*
X122848400Y-81467297D01*
X117787000Y-81467297D01*
X117787000Y-79130497D01*
X137834400Y-79130497D01*
X137834400Y-79299903D01*
X137867449Y-79466053D01*
X137932278Y-79622563D01*
X137934400Y-79625739D01*
X137934401Y-80938260D01*
X137932278Y-80941437D01*
X137867449Y-81097947D01*
X137834400Y-81264097D01*
X137834400Y-81433503D01*
X137867449Y-81599653D01*
X137932278Y-81756163D01*
X137934401Y-81759340D01*
X137934400Y-93282661D01*
X137932278Y-93285837D01*
X137867449Y-93442347D01*
X137834400Y-93608497D01*
X137834400Y-93777903D01*
X137867449Y-93944053D01*
X137932278Y-94100563D01*
X137934400Y-94103739D01*
X137934401Y-97549860D01*
X137932278Y-97553037D01*
X137867449Y-97709547D01*
X137834400Y-97875697D01*
X137834400Y-98045103D01*
X137867449Y-98211253D01*
X137932278Y-98367763D01*
X138026395Y-98508618D01*
X138146182Y-98628405D01*
X138287037Y-98722522D01*
X138443547Y-98787351D01*
X138609697Y-98820400D01*
X138779103Y-98820400D01*
X138945253Y-98787351D01*
X139101763Y-98722522D01*
X139242618Y-98628405D01*
X139362405Y-98508618D01*
X139456522Y-98367763D01*
X139521351Y-98211253D01*
X139554400Y-98045103D01*
X139554400Y-97875697D01*
X139521351Y-97709547D01*
X139456522Y-97553037D01*
X139454400Y-97549861D01*
X139454400Y-94103739D01*
X139456522Y-94100563D01*
X139521351Y-93944053D01*
X139554400Y-93777903D01*
X139554400Y-93608497D01*
X139521351Y-93442347D01*
X139456522Y-93285837D01*
X139454400Y-93282661D01*
X139454400Y-81759339D01*
X139456522Y-81756163D01*
X139521351Y-81599653D01*
X139554400Y-81433503D01*
X139554400Y-81264097D01*
X139521351Y-81097947D01*
X139456522Y-80941437D01*
X139454400Y-80938261D01*
X139454400Y-80298897D01*
X139917200Y-80298897D01*
X139917200Y-80468303D01*
X139942200Y-80593988D01*
X139942201Y-84592808D01*
X139917200Y-84718497D01*
X139917200Y-84887903D01*
X139942200Y-85013588D01*
X139942201Y-88860008D01*
X139917200Y-88985697D01*
X139917200Y-89155103D01*
X139942200Y-89280788D01*
X139942201Y-92517608D01*
X139917200Y-92643297D01*
X139917200Y-92812703D01*
X139942200Y-92938388D01*
X139942201Y-96784808D01*
X139917200Y-96910497D01*
X139917200Y-97079903D01*
X139942200Y-97205588D01*
X139942201Y-104726571D01*
X139938160Y-104767600D01*
X139954282Y-104931288D01*
X140002028Y-105088686D01*
X140029182Y-105139487D01*
X140033442Y-105147457D01*
X140065878Y-105225763D01*
X140159995Y-105366618D01*
X140279782Y-105486405D01*
X140420637Y-105580522D01*
X140577147Y-105645351D01*
X140743297Y-105678400D01*
X140912703Y-105678400D01*
X141078853Y-105645351D01*
X141235363Y-105580522D01*
X141376218Y-105486405D01*
X141496005Y-105366618D01*
X141590122Y-105225763D01*
X141654951Y-105069253D01*
X141688000Y-104903103D01*
X141688000Y-104733697D01*
X143828800Y-104733697D01*
X143828800Y-104903103D01*
X143861849Y-105069253D01*
X143926678Y-105225763D01*
X144020795Y-105366618D01*
X144140582Y-105486405D01*
X144281437Y-105580522D01*
X144437947Y-105645351D01*
X144604097Y-105678400D01*
X144773503Y-105678400D01*
X144939653Y-105645351D01*
X145096163Y-105580522D01*
X145237018Y-105486405D01*
X145356805Y-105366618D01*
X145450922Y-105225763D01*
X145483354Y-105147465D01*
X145514772Y-105088687D01*
X145562518Y-104931289D01*
X145574600Y-104808619D01*
X145578640Y-104767601D01*
X145574600Y-104726582D01*
X145574600Y-99135988D01*
X145599600Y-99010303D01*
X145599600Y-98840897D01*
X145574600Y-98715212D01*
X145574600Y-94868788D01*
X145599600Y-94743103D01*
X145599600Y-94573697D01*
X145574600Y-94448012D01*
X145574600Y-91211188D01*
X145599600Y-91085503D01*
X145599600Y-90916097D01*
X145574600Y-90790412D01*
X145574600Y-89747697D01*
X147740400Y-89747697D01*
X147740400Y-89917103D01*
X147765400Y-90042788D01*
X147765401Y-97546808D01*
X147740400Y-97672497D01*
X147740400Y-97841903D01*
X147765400Y-97967588D01*
X147765401Y-104608008D01*
X147740400Y-104733697D01*
X147740400Y-104903103D01*
X147773449Y-105069253D01*
X147838278Y-105225763D01*
X147932395Y-105366618D01*
X148052182Y-105486405D01*
X148193037Y-105580522D01*
X148349547Y-105645351D01*
X148515697Y-105678400D01*
X148685103Y-105678400D01*
X148851253Y-105645351D01*
X149007763Y-105580522D01*
X149148618Y-105486405D01*
X149268405Y-105366618D01*
X149362522Y-105225763D01*
X149427351Y-105069253D01*
X149460400Y-104903103D01*
X149460400Y-104733697D01*
X151550400Y-104733697D01*
X151550400Y-104903103D01*
X151583449Y-105069253D01*
X151648278Y-105225763D01*
X151742395Y-105366618D01*
X151862182Y-105486405D01*
X152003037Y-105580522D01*
X152159547Y-105645351D01*
X152325697Y-105678400D01*
X152495103Y-105678400D01*
X152661253Y-105645351D01*
X152817763Y-105580522D01*
X152958618Y-105486405D01*
X153078405Y-105366618D01*
X153172522Y-105225763D01*
X153204954Y-105147465D01*
X153236372Y-105088687D01*
X153284118Y-104931289D01*
X153296200Y-104808619D01*
X153300240Y-104767601D01*
X153296200Y-104726582D01*
X153296200Y-94055988D01*
X153321200Y-93930303D01*
X153321200Y-93760897D01*
X153288151Y-93594747D01*
X153223322Y-93438237D01*
X153129205Y-93297382D01*
X153009418Y-93177595D01*
X152868563Y-93083478D01*
X152712053Y-93018649D01*
X152545903Y-92985600D01*
X152376497Y-92985600D01*
X152210347Y-93018649D01*
X152053837Y-93083478D01*
X151912982Y-93177595D01*
X151793195Y-93297382D01*
X151699078Y-93438237D01*
X151634249Y-93594747D01*
X151601200Y-93760897D01*
X151601200Y-93930303D01*
X151626200Y-94055988D01*
X151626201Y-104464335D01*
X151583449Y-104567547D01*
X151550400Y-104733697D01*
X149460400Y-104733697D01*
X149435400Y-104608012D01*
X149435400Y-97967588D01*
X149460400Y-97841903D01*
X149460400Y-97672497D01*
X149435400Y-97546812D01*
X149435400Y-91678097D01*
X149467600Y-91678097D01*
X149467600Y-91847503D01*
X149500649Y-92013653D01*
X149565478Y-92170163D01*
X149567601Y-92173340D01*
X149567600Y-93435061D01*
X149565478Y-93438237D01*
X149500649Y-93594747D01*
X149467600Y-93760897D01*
X149467600Y-93930303D01*
X149500649Y-94096453D01*
X149565478Y-94252963D01*
X149615750Y-94328200D01*
X149565478Y-94403437D01*
X149500649Y-94559947D01*
X149467600Y-94726097D01*
X149467600Y-94895503D01*
X149500649Y-95061653D01*
X149565478Y-95218163D01*
X149567601Y-95221340D01*
X149567600Y-99226261D01*
X149565478Y-99229437D01*
X149500649Y-99385947D01*
X149467600Y-99552097D01*
X149467600Y-99721503D01*
X149500649Y-99887653D01*
X149565478Y-100044163D01*
X149659595Y-100185018D01*
X149779382Y-100304805D01*
X149920237Y-100398922D01*
X150076747Y-100463751D01*
X150242897Y-100496800D01*
X150412303Y-100496800D01*
X150578453Y-100463751D01*
X150734963Y-100398922D01*
X150875818Y-100304805D01*
X150995605Y-100185018D01*
X151089722Y-100044163D01*
X151154551Y-99887653D01*
X151187600Y-99721503D01*
X151187600Y-99552097D01*
X151154551Y-99385947D01*
X151089722Y-99229437D01*
X151087600Y-99226261D01*
X151087600Y-95221339D01*
X151089722Y-95218163D01*
X151154551Y-95061653D01*
X151187600Y-94895503D01*
X151187600Y-94726097D01*
X151154551Y-94559947D01*
X151089722Y-94403437D01*
X151039450Y-94328200D01*
X151089722Y-94252963D01*
X151154551Y-94096453D01*
X151187600Y-93930303D01*
X151187600Y-93760897D01*
X151154551Y-93594747D01*
X151089722Y-93438237D01*
X151087600Y-93435061D01*
X151087600Y-92173339D01*
X151089722Y-92170163D01*
X151154551Y-92013653D01*
X151187600Y-91847503D01*
X151187600Y-91678097D01*
X151154551Y-91511947D01*
X151089722Y-91355437D01*
X150995605Y-91214582D01*
X150875818Y-91094795D01*
X150734963Y-91000678D01*
X150578453Y-90935849D01*
X150412303Y-90902800D01*
X150242897Y-90902800D01*
X150076747Y-90935849D01*
X149920237Y-91000678D01*
X149779382Y-91094795D01*
X149659595Y-91214582D01*
X149565478Y-91355437D01*
X149500649Y-91511947D01*
X149467600Y-91678097D01*
X149435400Y-91678097D01*
X149435400Y-90042788D01*
X149460400Y-89917103D01*
X149460400Y-89747697D01*
X149427351Y-89581547D01*
X149362522Y-89425037D01*
X149272625Y-89290497D01*
X155512800Y-89290497D01*
X155512800Y-89459903D01*
X155537800Y-89585588D01*
X155537801Y-104608007D01*
X155512800Y-104733697D01*
X155512800Y-104903103D01*
X155545849Y-105069253D01*
X155610678Y-105225763D01*
X155704795Y-105366618D01*
X155824582Y-105486405D01*
X155965437Y-105580522D01*
X156121947Y-105645351D01*
X156288097Y-105678400D01*
X156457503Y-105678400D01*
X156623653Y-105645351D01*
X156780163Y-105580522D01*
X156921018Y-105486405D01*
X157040805Y-105366618D01*
X157134922Y-105225763D01*
X157199751Y-105069253D01*
X157232800Y-104903103D01*
X157232800Y-104733697D01*
X157207800Y-104608012D01*
X157207800Y-89600000D01*
X158511928Y-89600000D01*
X158524188Y-89724482D01*
X158560498Y-89844180D01*
X158619463Y-89954494D01*
X158698815Y-90051185D01*
X158795506Y-90130537D01*
X158905820Y-90189502D01*
X158978380Y-90211513D01*
X158846525Y-90343368D01*
X158684010Y-90586589D01*
X158572068Y-90856842D01*
X158515000Y-91143740D01*
X158515000Y-91436260D01*
X158572068Y-91723158D01*
X158684010Y-91993411D01*
X158846525Y-92236632D01*
X159053368Y-92443475D01*
X159296589Y-92605990D01*
X159566842Y-92717932D01*
X159853740Y-92775000D01*
X160146260Y-92775000D01*
X160433158Y-92717932D01*
X160703411Y-92605990D01*
X160946632Y-92443475D01*
X161153475Y-92236632D01*
X161315990Y-91993411D01*
X161427932Y-91723158D01*
X161485000Y-91436260D01*
X161485000Y-91143740D01*
X161427932Y-90856842D01*
X161315990Y-90586589D01*
X161153475Y-90343368D01*
X161021620Y-90211513D01*
X161094180Y-90189502D01*
X161204494Y-90130537D01*
X161301185Y-90051185D01*
X161380537Y-89954494D01*
X161439502Y-89844180D01*
X161475812Y-89724482D01*
X161488072Y-89600000D01*
X161485000Y-89035750D01*
X161326250Y-88877000D01*
X160127000Y-88877000D01*
X160127000Y-88897000D01*
X159873000Y-88897000D01*
X159873000Y-88877000D01*
X158673750Y-88877000D01*
X158515000Y-89035750D01*
X158511928Y-89600000D01*
X157207800Y-89600000D01*
X157207800Y-89585588D01*
X157232800Y-89459903D01*
X157232800Y-89290497D01*
X157199751Y-89124347D01*
X157134922Y-88967837D01*
X157040805Y-88826982D01*
X156921018Y-88707195D01*
X156780163Y-88613078D01*
X156623653Y-88548249D01*
X156457503Y-88515200D01*
X156288097Y-88515200D01*
X156121947Y-88548249D01*
X155965437Y-88613078D01*
X155824582Y-88707195D01*
X155704795Y-88826982D01*
X155610678Y-88967837D01*
X155545849Y-89124347D01*
X155512800Y-89290497D01*
X149272625Y-89290497D01*
X149268405Y-89284182D01*
X149148618Y-89164395D01*
X149007763Y-89070278D01*
X148851253Y-89005449D01*
X148685103Y-88972400D01*
X148515697Y-88972400D01*
X148349547Y-89005449D01*
X148193037Y-89070278D01*
X148052182Y-89164395D01*
X147932395Y-89284182D01*
X147838278Y-89425037D01*
X147773449Y-89581547D01*
X147740400Y-89747697D01*
X145574600Y-89747697D01*
X145574600Y-87900000D01*
X158511928Y-87900000D01*
X158515000Y-88464250D01*
X158673750Y-88623000D01*
X159873000Y-88623000D01*
X159873000Y-87423750D01*
X160127000Y-87423750D01*
X160127000Y-88623000D01*
X161326250Y-88623000D01*
X161485000Y-88464250D01*
X161488072Y-87900000D01*
X161475812Y-87775518D01*
X161439502Y-87655820D01*
X161380537Y-87545506D01*
X161301185Y-87448815D01*
X161204494Y-87369463D01*
X161094180Y-87310498D01*
X160974482Y-87274188D01*
X160850000Y-87261928D01*
X160285750Y-87265000D01*
X160127000Y-87423750D01*
X159873000Y-87423750D01*
X159714250Y-87265000D01*
X159150000Y-87261928D01*
X159025518Y-87274188D01*
X158905820Y-87310498D01*
X158795506Y-87369463D01*
X158698815Y-87448815D01*
X158619463Y-87545506D01*
X158560498Y-87655820D01*
X158524188Y-87775518D01*
X158511928Y-87900000D01*
X145574600Y-87900000D01*
X145574600Y-86943988D01*
X145599600Y-86818303D01*
X145599600Y-86648897D01*
X145566551Y-86482747D01*
X145501722Y-86326237D01*
X145407605Y-86185382D01*
X145287818Y-86065595D01*
X145146963Y-85971478D01*
X144990453Y-85906649D01*
X144824303Y-85873600D01*
X144654897Y-85873600D01*
X144488747Y-85906649D01*
X144332237Y-85971478D01*
X144191382Y-86065595D01*
X144071595Y-86185382D01*
X143977478Y-86326237D01*
X143912649Y-86482747D01*
X143879600Y-86648897D01*
X143879600Y-86818303D01*
X143904601Y-86943992D01*
X143904600Y-90790412D01*
X143879600Y-90916097D01*
X143879600Y-91085503D01*
X143904601Y-91211192D01*
X143904600Y-94448012D01*
X143879600Y-94573697D01*
X143879600Y-94743103D01*
X143904601Y-94868792D01*
X143904600Y-98715212D01*
X143879600Y-98840897D01*
X143879600Y-99010303D01*
X143904600Y-99135988D01*
X143904601Y-104464335D01*
X143861849Y-104567547D01*
X143828800Y-104733697D01*
X141688000Y-104733697D01*
X141654951Y-104567547D01*
X141612200Y-104464338D01*
X141612200Y-97205588D01*
X141637200Y-97079903D01*
X141637200Y-96910497D01*
X141612200Y-96784812D01*
X141612200Y-96367255D01*
X141639837Y-96385722D01*
X141796347Y-96450551D01*
X141846001Y-96460428D01*
X141846001Y-99480260D01*
X141843878Y-99483437D01*
X141779049Y-99639947D01*
X141746000Y-99806097D01*
X141746000Y-99975503D01*
X141779049Y-100141653D01*
X141843878Y-100298163D01*
X141937995Y-100439018D01*
X142057782Y-100558805D01*
X142198637Y-100652922D01*
X142355147Y-100717751D01*
X142521297Y-100750800D01*
X142690703Y-100750800D01*
X142856853Y-100717751D01*
X143013363Y-100652922D01*
X143154218Y-100558805D01*
X143274005Y-100439018D01*
X143368122Y-100298163D01*
X143432951Y-100141653D01*
X143466000Y-99975503D01*
X143466000Y-99806097D01*
X143432951Y-99639947D01*
X143368122Y-99483437D01*
X143366000Y-99480261D01*
X143366000Y-92376539D01*
X143368122Y-92373363D01*
X143432951Y-92216853D01*
X143466000Y-92050703D01*
X143466000Y-91881297D01*
X143432951Y-91715147D01*
X143368122Y-91558637D01*
X143366000Y-91555461D01*
X143366000Y-81759339D01*
X143368122Y-81756163D01*
X143432951Y-81599653D01*
X143466000Y-81433503D01*
X143466000Y-81264097D01*
X143432951Y-81097947D01*
X143368122Y-80941437D01*
X143366000Y-80938261D01*
X143366000Y-73012978D01*
X143369676Y-72975655D01*
X143366000Y-72938332D01*
X143366000Y-72938323D01*
X143355003Y-72826670D01*
X143316846Y-72700881D01*
X157478724Y-72700881D01*
X157838912Y-73190548D01*
X158502882Y-73550849D01*
X159224385Y-73774694D01*
X159975695Y-73853480D01*
X160727938Y-73784178D01*
X161452208Y-73569452D01*
X162120670Y-73217555D01*
X162161088Y-73190548D01*
X162521276Y-72700881D01*
X160000000Y-70179605D01*
X157478724Y-72700881D01*
X143316846Y-72700881D01*
X143311546Y-72683409D01*
X143240974Y-72551380D01*
X143146001Y-72435655D01*
X143116997Y-72411852D01*
X143016105Y-72310960D01*
X143015359Y-72307211D01*
X142950530Y-72150701D01*
X142856413Y-72009846D01*
X142736626Y-71890059D01*
X142595771Y-71795942D01*
X142439261Y-71731113D01*
X142273111Y-71698064D01*
X142103705Y-71698064D01*
X141937555Y-71731113D01*
X141781045Y-71795942D01*
X141640190Y-71890059D01*
X141520403Y-72009846D01*
X141426286Y-72150701D01*
X141361457Y-72307211D01*
X141328408Y-72473361D01*
X141328408Y-72642767D01*
X141361457Y-72808917D01*
X141426286Y-72965427D01*
X141520403Y-73106282D01*
X141640190Y-73226069D01*
X141781045Y-73320186D01*
X141846001Y-73347092D01*
X141846000Y-80938261D01*
X141843878Y-80941437D01*
X141779049Y-81097947D01*
X141746000Y-81264097D01*
X141746000Y-81433503D01*
X141779049Y-81599653D01*
X141843878Y-81756163D01*
X141846000Y-81759339D01*
X141846000Y-82365371D01*
X141844963Y-82364678D01*
X141688453Y-82299849D01*
X141612200Y-82284681D01*
X141612200Y-80593988D01*
X141637200Y-80468303D01*
X141637200Y-80298897D01*
X141604151Y-80132747D01*
X141539322Y-79976237D01*
X141445205Y-79835382D01*
X141325418Y-79715595D01*
X141184563Y-79621478D01*
X141028053Y-79556649D01*
X140861903Y-79523600D01*
X140692497Y-79523600D01*
X140526347Y-79556649D01*
X140369837Y-79621478D01*
X140228982Y-79715595D01*
X140109195Y-79835382D01*
X140015078Y-79976237D01*
X139950249Y-80132747D01*
X139917200Y-80298897D01*
X139454400Y-80298897D01*
X139454400Y-79625739D01*
X139456522Y-79622563D01*
X139521351Y-79466053D01*
X139554400Y-79299903D01*
X139554400Y-79130497D01*
X139521351Y-78964347D01*
X139456522Y-78807837D01*
X139362405Y-78666982D01*
X139242618Y-78547195D01*
X139101763Y-78453078D01*
X138945253Y-78388249D01*
X138779103Y-78355200D01*
X138609697Y-78355200D01*
X138443547Y-78388249D01*
X138287037Y-78453078D01*
X138146182Y-78547195D01*
X138026395Y-78666982D01*
X137932278Y-78807837D01*
X137867449Y-78964347D01*
X137834400Y-79130497D01*
X117787000Y-79130497D01*
X117787000Y-78358788D01*
X117812000Y-78233103D01*
X117812000Y-78063697D01*
X117778951Y-77897547D01*
X117714122Y-77741037D01*
X117620005Y-77600182D01*
X117500218Y-77480395D01*
X117359363Y-77386278D01*
X117202853Y-77321449D01*
X117036703Y-77288400D01*
X116867297Y-77288400D01*
X116701147Y-77321449D01*
X116544637Y-77386278D01*
X116403782Y-77480395D01*
X116283995Y-77600182D01*
X116189878Y-77741037D01*
X116125049Y-77897547D01*
X116092000Y-78063697D01*
X115660000Y-78063697D01*
X115660000Y-72700881D01*
X117478724Y-72700881D01*
X117838912Y-73190548D01*
X118502882Y-73550849D01*
X119224385Y-73774694D01*
X119975695Y-73853480D01*
X120727938Y-73784178D01*
X121452208Y-73569452D01*
X122120670Y-73217555D01*
X122161088Y-73190548D01*
X122521276Y-72700881D01*
X120000000Y-70179605D01*
X117478724Y-72700881D01*
X115660000Y-72700881D01*
X115660000Y-70029392D01*
X115664792Y-69975695D01*
X116146520Y-69975695D01*
X116215822Y-70727938D01*
X116430548Y-71452208D01*
X116782445Y-72120670D01*
X116809452Y-72161088D01*
X117299119Y-72521276D01*
X119820395Y-70000000D01*
X120179605Y-70000000D01*
X122700881Y-72521276D01*
X123190548Y-72161088D01*
X123550849Y-71497118D01*
X123751616Y-70850000D01*
X132177128Y-70850000D01*
X132189388Y-70974482D01*
X132225698Y-71094180D01*
X132284663Y-71204494D01*
X132364015Y-71301185D01*
X132460706Y-71380537D01*
X132571020Y-71439502D01*
X132690718Y-71475812D01*
X132815200Y-71488072D01*
X133379450Y-71485000D01*
X133538200Y-71326250D01*
X133538200Y-70127000D01*
X132338950Y-70127000D01*
X132180200Y-70285750D01*
X132177128Y-70850000D01*
X123751616Y-70850000D01*
X123774694Y-70775615D01*
X123853480Y-70024305D01*
X123784178Y-69272062D01*
X123747990Y-69150000D01*
X132177128Y-69150000D01*
X132180200Y-69714250D01*
X132338950Y-69873000D01*
X133538200Y-69873000D01*
X133538200Y-68673750D01*
X133792200Y-68673750D01*
X133792200Y-69873000D01*
X133812200Y-69873000D01*
X133812200Y-70127000D01*
X133792200Y-70127000D01*
X133792200Y-71326250D01*
X133950950Y-71485000D01*
X134515200Y-71488072D01*
X134639682Y-71475812D01*
X134759380Y-71439502D01*
X134869694Y-71380537D01*
X134966385Y-71301185D01*
X135045737Y-71204494D01*
X135104702Y-71094180D01*
X135126713Y-71021620D01*
X135258568Y-71153475D01*
X135501789Y-71315990D01*
X135772042Y-71427932D01*
X136058940Y-71485000D01*
X136351460Y-71485000D01*
X136638358Y-71427932D01*
X136908611Y-71315990D01*
X137151832Y-71153475D01*
X137358675Y-70946632D01*
X137475200Y-70772240D01*
X137591725Y-70946632D01*
X137798568Y-71153475D01*
X138041789Y-71315990D01*
X138312042Y-71427932D01*
X138598940Y-71485000D01*
X138891460Y-71485000D01*
X139178358Y-71427932D01*
X139448611Y-71315990D01*
X139691832Y-71153475D01*
X139898675Y-70946632D01*
X140015200Y-70772240D01*
X140131725Y-70946632D01*
X140338568Y-71153475D01*
X140581789Y-71315990D01*
X140852042Y-71427932D01*
X141138940Y-71485000D01*
X141431460Y-71485000D01*
X141718358Y-71427932D01*
X141988611Y-71315990D01*
X142231832Y-71153475D01*
X142438675Y-70946632D01*
X142555200Y-70772240D01*
X142671725Y-70946632D01*
X142878568Y-71153475D01*
X143121789Y-71315990D01*
X143392042Y-71427932D01*
X143678940Y-71485000D01*
X143971460Y-71485000D01*
X144258358Y-71427932D01*
X144528611Y-71315990D01*
X144771832Y-71153475D01*
X144978675Y-70946632D01*
X145095200Y-70772240D01*
X145211725Y-70946632D01*
X145418568Y-71153475D01*
X145661789Y-71315990D01*
X145932042Y-71427932D01*
X146218940Y-71485000D01*
X146511460Y-71485000D01*
X146798358Y-71427932D01*
X147068611Y-71315990D01*
X147311832Y-71153475D01*
X147518675Y-70946632D01*
X147681190Y-70703411D01*
X147793132Y-70433158D01*
X147850200Y-70146260D01*
X147850200Y-69975695D01*
X156146520Y-69975695D01*
X156215822Y-70727938D01*
X156430548Y-71452208D01*
X156782445Y-72120670D01*
X156809452Y-72161088D01*
X157299119Y-72521276D01*
X159820395Y-70000000D01*
X160179605Y-70000000D01*
X162700881Y-72521276D01*
X163190548Y-72161088D01*
X163550849Y-71497118D01*
X163774694Y-70775615D01*
X163853480Y-70024305D01*
X163784178Y-69272062D01*
X163569452Y-68547792D01*
X163217555Y-67879330D01*
X163190548Y-67838912D01*
X162700881Y-67478724D01*
X160179605Y-70000000D01*
X159820395Y-70000000D01*
X157299119Y-67478724D01*
X156809452Y-67838912D01*
X156449151Y-68502882D01*
X156225306Y-69224385D01*
X156146520Y-69975695D01*
X147850200Y-69975695D01*
X147850200Y-69853740D01*
X147793132Y-69566842D01*
X147681190Y-69296589D01*
X147518675Y-69053368D01*
X147311832Y-68846525D01*
X147068611Y-68684010D01*
X146798358Y-68572068D01*
X146511460Y-68515000D01*
X146218940Y-68515000D01*
X145932042Y-68572068D01*
X145661789Y-68684010D01*
X145418568Y-68846525D01*
X145211725Y-69053368D01*
X145095200Y-69227760D01*
X144978675Y-69053368D01*
X144771832Y-68846525D01*
X144528611Y-68684010D01*
X144258358Y-68572068D01*
X143971460Y-68515000D01*
X143678940Y-68515000D01*
X143392042Y-68572068D01*
X143121789Y-68684010D01*
X142878568Y-68846525D01*
X142671725Y-69053368D01*
X142555200Y-69227760D01*
X142438675Y-69053368D01*
X142231832Y-68846525D01*
X141988611Y-68684010D01*
X141718358Y-68572068D01*
X141431460Y-68515000D01*
X141138940Y-68515000D01*
X140852042Y-68572068D01*
X140581789Y-68684010D01*
X140338568Y-68846525D01*
X140131725Y-69053368D01*
X140015200Y-69227760D01*
X139898675Y-69053368D01*
X139691832Y-68846525D01*
X139448611Y-68684010D01*
X139178358Y-68572068D01*
X138891460Y-68515000D01*
X138598940Y-68515000D01*
X138312042Y-68572068D01*
X138041789Y-68684010D01*
X137798568Y-68846525D01*
X137591725Y-69053368D01*
X137475200Y-69227760D01*
X137358675Y-69053368D01*
X137151832Y-68846525D01*
X136908611Y-68684010D01*
X136638358Y-68572068D01*
X136351460Y-68515000D01*
X136058940Y-68515000D01*
X135772042Y-68572068D01*
X135501789Y-68684010D01*
X135258568Y-68846525D01*
X135126713Y-68978380D01*
X135104702Y-68905820D01*
X135045737Y-68795506D01*
X134966385Y-68698815D01*
X134869694Y-68619463D01*
X134759380Y-68560498D01*
X134639682Y-68524188D01*
X134515200Y-68511928D01*
X133950950Y-68515000D01*
X133792200Y-68673750D01*
X133538200Y-68673750D01*
X133379450Y-68515000D01*
X132815200Y-68511928D01*
X132690718Y-68524188D01*
X132571020Y-68560498D01*
X132460706Y-68619463D01*
X132364015Y-68698815D01*
X132284663Y-68795506D01*
X132225698Y-68905820D01*
X132189388Y-69025518D01*
X132177128Y-69150000D01*
X123747990Y-69150000D01*
X123569452Y-68547792D01*
X123217555Y-67879330D01*
X123190548Y-67838912D01*
X122700881Y-67478724D01*
X120179605Y-70000000D01*
X119820395Y-70000000D01*
X117299119Y-67478724D01*
X116809452Y-67838912D01*
X116449151Y-68502882D01*
X116225306Y-69224385D01*
X116146520Y-69975695D01*
X115664792Y-69975695D01*
X115731173Y-69231917D01*
X115934656Y-68488109D01*
X116266638Y-67792095D01*
X116620876Y-67299119D01*
X117478724Y-67299119D01*
X120000000Y-69820395D01*
X122521276Y-67299119D01*
X157478724Y-67299119D01*
X160000000Y-69820395D01*
X162521276Y-67299119D01*
X162161088Y-66809452D01*
X161497118Y-66449151D01*
X160775615Y-66225306D01*
X160024305Y-66146520D01*
X159272062Y-66215822D01*
X158547792Y-66430548D01*
X157879330Y-66782445D01*
X157838912Y-66809452D01*
X157478724Y-67299119D01*
X122521276Y-67299119D01*
X122161088Y-66809452D01*
X121497118Y-66449151D01*
X120775615Y-66225306D01*
X120024305Y-66146520D01*
X119272062Y-66215822D01*
X118547792Y-66430548D01*
X117879330Y-66782445D01*
X117838912Y-66809452D01*
X117478724Y-67299119D01*
X116620876Y-67299119D01*
X116716626Y-67165870D01*
X117270403Y-66629223D01*
X117910451Y-66199129D01*
X118616553Y-65889171D01*
X119371457Y-65707935D01*
X120024207Y-65660000D01*
X159970608Y-65660000D01*
X160768083Y-65731173D01*
%TA.AperFunction,Conductor*%
D18*
G36*
X160768083Y-65731173D02*
G01*
X161511891Y-65934656D01*
X162207905Y-66266638D01*
X162834130Y-66716626D01*
X163370777Y-67270403D01*
X163800871Y-67910451D01*
X164110829Y-68616553D01*
X164292065Y-69371457D01*
X164340001Y-70024220D01*
X164340000Y-109970608D01*
X164268827Y-110768083D01*
X164065344Y-111511890D01*
X163733363Y-112207904D01*
X163283374Y-112834130D01*
X162729597Y-113370777D01*
X162089549Y-113800871D01*
X161383447Y-114110829D01*
X160628543Y-114292065D01*
X159975793Y-114340000D01*
X120029392Y-114340000D01*
X119231917Y-114268827D01*
X118488110Y-114065344D01*
X117792096Y-113733363D01*
X117165870Y-113283374D01*
X116629223Y-112729597D01*
X116609927Y-112700881D01*
X117478724Y-112700881D01*
X117838912Y-113190548D01*
X118502882Y-113550849D01*
X119224385Y-113774694D01*
X119975695Y-113853480D01*
X120727938Y-113784178D01*
X121452208Y-113569452D01*
X122120670Y-113217555D01*
X122161088Y-113190548D01*
X122521276Y-112700881D01*
X157478724Y-112700881D01*
X157838912Y-113190548D01*
X158502882Y-113550849D01*
X159224385Y-113774694D01*
X159975695Y-113853480D01*
X160727938Y-113784178D01*
X161452208Y-113569452D01*
X162120670Y-113217555D01*
X162161088Y-113190548D01*
X162521276Y-112700881D01*
X160000000Y-110179605D01*
X157478724Y-112700881D01*
X122521276Y-112700881D01*
X120000000Y-110179605D01*
X117478724Y-112700881D01*
X116609927Y-112700881D01*
X116199129Y-112089549D01*
X115889171Y-111383447D01*
X115707935Y-110628543D01*
X115660000Y-109975793D01*
X115660000Y-109975695D01*
X116146520Y-109975695D01*
X116215822Y-110727938D01*
X116430548Y-111452208D01*
X116782445Y-112120670D01*
X116809452Y-112161088D01*
X117299119Y-112521276D01*
X119820395Y-110000000D01*
X120179605Y-110000000D01*
X122700881Y-112521276D01*
X123190548Y-112161088D01*
X123550849Y-111497118D01*
X123774694Y-110775615D01*
X123853480Y-110024305D01*
X123849002Y-109975695D01*
X156146520Y-109975695D01*
X156215822Y-110727938D01*
X156430548Y-111452208D01*
X156782445Y-112120670D01*
X156809452Y-112161088D01*
X157299119Y-112521276D01*
X159820395Y-110000000D01*
X160179605Y-110000000D01*
X162700881Y-112521276D01*
X163190548Y-112161088D01*
X163550849Y-111497118D01*
X163774694Y-110775615D01*
X163853480Y-110024305D01*
X163784178Y-109272062D01*
X163569452Y-108547792D01*
X163217555Y-107879330D01*
X163190548Y-107838912D01*
X162700881Y-107478724D01*
X160179605Y-110000000D01*
X159820395Y-110000000D01*
X157299119Y-107478724D01*
X156809452Y-107838912D01*
X156449151Y-108502882D01*
X156225306Y-109224385D01*
X156146520Y-109975695D01*
X123849002Y-109975695D01*
X123784178Y-109272062D01*
X123569452Y-108547792D01*
X123217555Y-107879330D01*
X123190548Y-107838912D01*
X122700881Y-107478724D01*
X120179605Y-110000000D01*
X119820395Y-110000000D01*
X117299119Y-107478724D01*
X116809452Y-107838912D01*
X116449151Y-108502882D01*
X116225306Y-109224385D01*
X116146520Y-109975695D01*
X115660000Y-109975695D01*
X115660000Y-107299119D01*
X117478724Y-107299119D01*
X120000000Y-109820395D01*
X122521276Y-107299119D01*
X157478724Y-107299119D01*
X160000000Y-109820395D01*
X162521276Y-107299119D01*
X162161088Y-106809452D01*
X161497118Y-106449151D01*
X160775615Y-106225306D01*
X160024305Y-106146520D01*
X159272062Y-106215822D01*
X158547792Y-106430548D01*
X157879330Y-106782445D01*
X157838912Y-106809452D01*
X157478724Y-107299119D01*
X122521276Y-107299119D01*
X122161088Y-106809452D01*
X121497118Y-106449151D01*
X120775615Y-106225306D01*
X120024305Y-106146520D01*
X119272062Y-106215822D01*
X118547792Y-106430548D01*
X117879330Y-106782445D01*
X117838912Y-106809452D01*
X117478724Y-107299119D01*
X115660000Y-107299119D01*
X115660000Y-78063697D01*
X116092000Y-78063697D01*
X116092000Y-78233103D01*
X116117001Y-78358793D01*
X116117000Y-93635212D01*
X116092000Y-93760897D01*
X116092000Y-93930303D01*
X116117001Y-94055992D01*
X116117000Y-101509212D01*
X116092000Y-101634897D01*
X116092000Y-101804303D01*
X116125049Y-101970453D01*
X116189878Y-102126963D01*
X116283995Y-102267818D01*
X116403782Y-102387605D01*
X116544637Y-102481722D01*
X116701147Y-102546551D01*
X116867297Y-102579600D01*
X117036703Y-102579600D01*
X117202853Y-102546551D01*
X117359363Y-102481722D01*
X117500218Y-102387605D01*
X117620005Y-102267818D01*
X117714122Y-102126963D01*
X117778951Y-101970453D01*
X117812000Y-101804303D01*
X117812000Y-101634897D01*
X117787000Y-101509212D01*
X117787000Y-94055988D01*
X117812000Y-93930303D01*
X117812000Y-93760897D01*
X117787000Y-93635212D01*
X117787000Y-87100000D01*
X118511928Y-87100000D01*
X118524188Y-87224482D01*
X118560498Y-87344180D01*
X118619463Y-87454494D01*
X118698815Y-87551185D01*
X118795506Y-87630537D01*
X118905820Y-87689502D01*
X118978380Y-87711513D01*
X118846525Y-87843368D01*
X118684010Y-88086589D01*
X118572068Y-88356842D01*
X118515000Y-88643740D01*
X118515000Y-88936260D01*
X118572068Y-89223158D01*
X118684010Y-89493411D01*
X118846525Y-89736632D01*
X119053368Y-89943475D01*
X119227760Y-90060000D01*
X119053368Y-90176525D01*
X118846525Y-90383368D01*
X118684010Y-90626589D01*
X118572068Y-90896842D01*
X118515000Y-91183740D01*
X118515000Y-91476260D01*
X118572068Y-91763158D01*
X118684010Y-92033411D01*
X118846525Y-92276632D01*
X119053368Y-92483475D01*
X119227760Y-92600000D01*
X119053368Y-92716525D01*
X118846525Y-92923368D01*
X118684010Y-93166589D01*
X118572068Y-93436842D01*
X118515000Y-93723740D01*
X118515000Y-94016260D01*
X118572068Y-94303158D01*
X118684010Y-94573411D01*
X118846525Y-94816632D01*
X119053368Y-95023475D01*
X119165001Y-95098066D01*
X119165000Y-104608012D01*
X119140000Y-104733697D01*
X119140000Y-104903103D01*
X119173049Y-105069253D01*
X119237878Y-105225763D01*
X119331995Y-105366618D01*
X119451782Y-105486405D01*
X119592637Y-105580522D01*
X119749147Y-105645351D01*
X119915297Y-105678400D01*
X120084703Y-105678400D01*
X120250853Y-105645351D01*
X120407363Y-105580522D01*
X120548218Y-105486405D01*
X120668005Y-105366618D01*
X120762122Y-105225763D01*
X120826951Y-105069253D01*
X120860000Y-104903103D01*
X120860000Y-104733697D01*
X125896400Y-104733697D01*
X125896400Y-104903103D01*
X125929449Y-105069253D01*
X125994278Y-105225763D01*
X126088395Y-105366618D01*
X126208182Y-105486405D01*
X126349037Y-105580522D01*
X126505547Y-105645351D01*
X126671697Y-105678400D01*
X126841103Y-105678400D01*
X127007253Y-105645351D01*
X127163763Y-105580522D01*
X127304618Y-105486405D01*
X127424405Y-105366618D01*
X127518522Y-105225763D01*
X127550954Y-105147465D01*
X127582372Y-105088687D01*
X127630118Y-104931289D01*
X127642200Y-104808619D01*
X127646240Y-104767601D01*
X127642200Y-104726582D01*
X127642200Y-91465188D01*
X127667200Y-91339503D01*
X127667200Y-91170097D01*
X127642200Y-91044412D01*
X127642200Y-87248788D01*
X127667200Y-87123103D01*
X127667200Y-86953697D01*
X127634151Y-86787547D01*
X127569322Y-86631037D01*
X127475205Y-86490182D01*
X127355418Y-86370395D01*
X127214563Y-86276278D01*
X127058053Y-86211449D01*
X126891903Y-86178400D01*
X126722497Y-86178400D01*
X126556347Y-86211449D01*
X126399837Y-86276278D01*
X126258982Y-86370395D01*
X126139195Y-86490182D01*
X126045078Y-86631037D01*
X125980249Y-86787547D01*
X125947200Y-86953697D01*
X125947200Y-87123103D01*
X125972200Y-87248788D01*
X125972201Y-91044408D01*
X125947200Y-91170097D01*
X125947200Y-91339503D01*
X125972200Y-91465188D01*
X125972201Y-104464335D01*
X125929449Y-104567547D01*
X125896400Y-104733697D01*
X120860000Y-104733697D01*
X120835000Y-104608012D01*
X120835000Y-95098065D01*
X120946632Y-95023475D01*
X121153475Y-94816632D01*
X121315990Y-94573411D01*
X121427932Y-94303158D01*
X121485000Y-94016260D01*
X121485000Y-93723740D01*
X121427932Y-93436842D01*
X121315990Y-93166589D01*
X121153475Y-92923368D01*
X120946632Y-92716525D01*
X120772240Y-92600000D01*
X120946632Y-92483475D01*
X121153475Y-92276632D01*
X121315990Y-92033411D01*
X121427932Y-91763158D01*
X121485000Y-91476260D01*
X121485000Y-91183740D01*
X121427932Y-90896842D01*
X121315990Y-90626589D01*
X121153475Y-90383368D01*
X120946632Y-90176525D01*
X120772240Y-90060000D01*
X120946632Y-89943475D01*
X121153475Y-89736632D01*
X121315990Y-89493411D01*
X121427932Y-89223158D01*
X121485000Y-88936260D01*
X121485000Y-88643740D01*
X121427932Y-88356842D01*
X121315990Y-88086589D01*
X121153475Y-87843368D01*
X121021620Y-87711513D01*
X121094180Y-87689502D01*
X121204494Y-87630537D01*
X121301185Y-87551185D01*
X121380537Y-87454494D01*
X121439502Y-87344180D01*
X121475812Y-87224482D01*
X121488072Y-87100000D01*
X121485000Y-86535750D01*
X121326250Y-86377000D01*
X120127000Y-86377000D01*
X120127000Y-86397000D01*
X119873000Y-86397000D01*
X119873000Y-86377000D01*
X118673750Y-86377000D01*
X118515000Y-86535750D01*
X118511928Y-87100000D01*
X117787000Y-87100000D01*
X117787000Y-85400000D01*
X118511928Y-85400000D01*
X118515000Y-85964250D01*
X118673750Y-86123000D01*
X119873000Y-86123000D01*
X119873000Y-84923750D01*
X120127000Y-84923750D01*
X120127000Y-86123000D01*
X121326250Y-86123000D01*
X121485000Y-85964250D01*
X121488072Y-85400000D01*
X121475812Y-85275518D01*
X121439502Y-85155820D01*
X121380537Y-85045506D01*
X121301185Y-84948815D01*
X121204494Y-84869463D01*
X121094180Y-84810498D01*
X120974482Y-84774188D01*
X120850000Y-84761928D01*
X120285750Y-84765000D01*
X120127000Y-84923750D01*
X119873000Y-84923750D01*
X119714250Y-84765000D01*
X119150000Y-84761928D01*
X119025518Y-84774188D01*
X118905820Y-84810498D01*
X118795506Y-84869463D01*
X118698815Y-84948815D01*
X118619463Y-85045506D01*
X118560498Y-85155820D01*
X118524188Y-85275518D01*
X118511928Y-85400000D01*
X117787000Y-85400000D01*
X117787000Y-81467297D01*
X122848400Y-81467297D01*
X122848400Y-81636703D01*
X122881449Y-81802853D01*
X122946278Y-81959363D01*
X122948400Y-81962539D01*
X122948401Y-88271068D01*
X122944724Y-88308400D01*
X122948401Y-88345733D01*
X122950000Y-88361968D01*
X122950000Y-88494703D01*
X122983049Y-88660853D01*
X123047878Y-88817363D01*
X123141995Y-88958218D01*
X123261782Y-89078005D01*
X123402637Y-89172122D01*
X123559147Y-89236951D01*
X123725297Y-89270000D01*
X123812000Y-89270000D01*
X123812000Y-90496400D01*
X123725297Y-90496400D01*
X123559147Y-90529449D01*
X123402637Y-90594278D01*
X123261782Y-90688395D01*
X123141995Y-90808182D01*
X123047878Y-90949037D01*
X122983049Y-91105547D01*
X122950000Y-91271697D01*
X122950000Y-91441103D01*
X122983049Y-91607253D01*
X123047878Y-91763763D01*
X123050000Y-91766939D01*
X123050001Y-98071710D01*
X123033078Y-98097037D01*
X122968249Y-98253547D01*
X122935200Y-98419697D01*
X122935200Y-98589103D01*
X122968249Y-98755253D01*
X123033078Y-98911763D01*
X123127195Y-99052618D01*
X123246982Y-99172405D01*
X123387837Y-99266522D01*
X123544347Y-99331351D01*
X123710497Y-99364400D01*
X123879903Y-99364400D01*
X124046053Y-99331351D01*
X124202563Y-99266522D01*
X124343418Y-99172405D01*
X124463205Y-99052618D01*
X124557322Y-98911763D01*
X124622151Y-98755253D01*
X124655200Y-98589103D01*
X124655200Y-98419697D01*
X124622151Y-98253547D01*
X124570000Y-98127644D01*
X124570000Y-93080000D01*
X124656703Y-93080000D01*
X124822853Y-93046951D01*
X124979363Y-92982122D01*
X125120218Y-92888005D01*
X125240005Y-92768218D01*
X125334122Y-92627363D01*
X125398951Y-92470853D01*
X125432000Y-92304703D01*
X125432000Y-92135297D01*
X125398951Y-91969147D01*
X125334122Y-91812637D01*
X125332000Y-91809461D01*
X125332000Y-86483733D01*
X125334122Y-86480557D01*
X125398951Y-86324047D01*
X125432000Y-86157897D01*
X125432000Y-85988491D01*
X125398951Y-85822341D01*
X125334122Y-85665831D01*
X125240005Y-85524976D01*
X125120218Y-85405189D01*
X124979363Y-85311072D01*
X124822853Y-85246243D01*
X124656703Y-85213194D01*
X124487297Y-85213194D01*
X124468400Y-85216953D01*
X124468400Y-83296097D01*
X129757200Y-83296097D01*
X129757200Y-83465503D01*
X129790249Y-83631653D01*
X129855078Y-83788163D01*
X129857200Y-83791339D01*
X129857201Y-86627860D01*
X129855078Y-86631037D01*
X129790249Y-86787547D01*
X129757200Y-86953697D01*
X129757200Y-87123103D01*
X129790249Y-87289253D01*
X129855078Y-87445763D01*
X129857200Y-87448939D01*
X129857201Y-91047559D01*
X129855278Y-91050437D01*
X129790449Y-91206947D01*
X129757400Y-91373097D01*
X129757400Y-91542503D01*
X129790449Y-91708653D01*
X129855278Y-91865163D01*
X129857400Y-91868339D01*
X129857401Y-94552361D01*
X129855078Y-94555837D01*
X129790249Y-94712347D01*
X129757200Y-94878497D01*
X129757200Y-95047903D01*
X129790249Y-95214053D01*
X129855078Y-95370563D01*
X129949195Y-95511418D01*
X130068982Y-95631205D01*
X130209837Y-95725322D01*
X130366347Y-95790151D01*
X130474761Y-95811716D01*
X130468400Y-95843697D01*
X130468400Y-96013103D01*
X130501449Y-96179253D01*
X130566278Y-96335763D01*
X130660395Y-96476618D01*
X130780182Y-96596405D01*
X130921037Y-96690522D01*
X131077547Y-96755351D01*
X131243697Y-96788400D01*
X131413103Y-96788400D01*
X131579253Y-96755351D01*
X131735763Y-96690522D01*
X131876618Y-96596405D01*
X131996405Y-96476618D01*
X132090522Y-96335763D01*
X132155351Y-96179253D01*
X132188400Y-96013103D01*
X132188400Y-95843697D01*
X132155351Y-95677547D01*
X132090522Y-95521037D01*
X132088400Y-95517861D01*
X132088400Y-92630539D01*
X132090522Y-92627363D01*
X132155351Y-92470853D01*
X132188400Y-92304703D01*
X132188400Y-92135297D01*
X132155351Y-91969147D01*
X132090522Y-91812637D01*
X132088400Y-91809461D01*
X132088400Y-88414139D01*
X132090522Y-88410963D01*
X132155351Y-88254453D01*
X132188400Y-88088303D01*
X132188400Y-87918897D01*
X132155351Y-87752747D01*
X132090522Y-87596237D01*
X132088400Y-87593061D01*
X132088400Y-84705739D01*
X132090522Y-84702563D01*
X132155351Y-84546053D01*
X132188400Y-84379903D01*
X132188400Y-84210497D01*
X132155351Y-84044347D01*
X132090522Y-83887837D01*
X131996405Y-83746982D01*
X131876618Y-83627195D01*
X131735763Y-83533078D01*
X131579253Y-83468249D01*
X131477200Y-83447950D01*
X131477200Y-83296097D01*
X132652800Y-83296097D01*
X132652800Y-83465503D01*
X132677800Y-83591188D01*
X132677801Y-86828008D01*
X132652800Y-86953697D01*
X132652800Y-87123103D01*
X132677800Y-87248788D01*
X132677801Y-91044408D01*
X132652800Y-91170097D01*
X132652800Y-91339503D01*
X132677800Y-91465188D01*
X132677801Y-94752808D01*
X132652800Y-94878497D01*
X132652800Y-95047903D01*
X132677800Y-95173588D01*
X132677801Y-104608008D01*
X132652800Y-104733697D01*
X132652800Y-104903103D01*
X132685849Y-105069253D01*
X132750678Y-105225763D01*
X132844795Y-105366618D01*
X132964582Y-105486405D01*
X133105437Y-105580522D01*
X133261947Y-105645351D01*
X133428097Y-105678400D01*
X133597503Y-105678400D01*
X133763653Y-105645351D01*
X133920163Y-105580522D01*
X134061018Y-105486405D01*
X134180805Y-105366618D01*
X134274922Y-105225763D01*
X134339751Y-105069253D01*
X134372800Y-104903103D01*
X134372800Y-104733697D01*
X134347800Y-104608012D01*
X134347800Y-95173588D01*
X134372800Y-95047903D01*
X134372800Y-94878497D01*
X134347800Y-94752812D01*
X134347800Y-91465188D01*
X134372800Y-91339503D01*
X134372800Y-91170097D01*
X134347800Y-91044412D01*
X134347800Y-87248788D01*
X134372800Y-87123103D01*
X134372800Y-86953697D01*
X134347800Y-86828012D01*
X134347800Y-83591188D01*
X134372800Y-83465503D01*
X134372800Y-83296097D01*
X134339751Y-83129947D01*
X134274922Y-82973437D01*
X134180805Y-82832582D01*
X134061018Y-82712795D01*
X133920163Y-82618678D01*
X133763653Y-82553849D01*
X133597503Y-82520800D01*
X133428097Y-82520800D01*
X133261947Y-82553849D01*
X133105437Y-82618678D01*
X132964582Y-82712795D01*
X132844795Y-82832582D01*
X132750678Y-82973437D01*
X132685849Y-83129947D01*
X132652800Y-83296097D01*
X131477200Y-83296097D01*
X131444151Y-83129947D01*
X131379322Y-82973437D01*
X131285205Y-82832582D01*
X131165418Y-82712795D01*
X131024563Y-82618678D01*
X130868053Y-82553849D01*
X130701903Y-82520800D01*
X130532497Y-82520800D01*
X130366347Y-82553849D01*
X130209837Y-82618678D01*
X130068982Y-82712795D01*
X129949195Y-82832582D01*
X129855078Y-82973437D01*
X129790249Y-83129947D01*
X129757200Y-83296097D01*
X124468400Y-83296097D01*
X124468400Y-81962539D01*
X124470522Y-81959363D01*
X124535351Y-81802853D01*
X124568400Y-81636703D01*
X124568400Y-81467297D01*
X124535351Y-81301147D01*
X124470522Y-81144637D01*
X124376405Y-81003782D01*
X124256618Y-80883995D01*
X124115763Y-80789878D01*
X123959253Y-80725049D01*
X123793103Y-80692000D01*
X123623697Y-80692000D01*
X123457547Y-80725049D01*
X123301037Y-80789878D01*
X123160182Y-80883995D01*
X123040395Y-81003782D01*
X122946278Y-81144637D01*
X122881449Y-81301147D01*
X122848400Y-81467297D01*
X117787000Y-81467297D01*
X117787000Y-79130497D01*
X137834400Y-79130497D01*
X137834400Y-79299903D01*
X137867449Y-79466053D01*
X137932278Y-79622563D01*
X137934400Y-79625739D01*
X137934401Y-80938260D01*
X137932278Y-80941437D01*
X137867449Y-81097947D01*
X137834400Y-81264097D01*
X137834400Y-81433503D01*
X137867449Y-81599653D01*
X137932278Y-81756163D01*
X137934401Y-81759340D01*
X137934400Y-93282661D01*
X137932278Y-93285837D01*
X137867449Y-93442347D01*
X137834400Y-93608497D01*
X137834400Y-93777903D01*
X137867449Y-93944053D01*
X137932278Y-94100563D01*
X137934400Y-94103739D01*
X137934401Y-97549860D01*
X137932278Y-97553037D01*
X137867449Y-97709547D01*
X137834400Y-97875697D01*
X137834400Y-98045103D01*
X137867449Y-98211253D01*
X137932278Y-98367763D01*
X138026395Y-98508618D01*
X138146182Y-98628405D01*
X138287037Y-98722522D01*
X138443547Y-98787351D01*
X138609697Y-98820400D01*
X138779103Y-98820400D01*
X138945253Y-98787351D01*
X139101763Y-98722522D01*
X139242618Y-98628405D01*
X139362405Y-98508618D01*
X139456522Y-98367763D01*
X139521351Y-98211253D01*
X139554400Y-98045103D01*
X139554400Y-97875697D01*
X139521351Y-97709547D01*
X139456522Y-97553037D01*
X139454400Y-97549861D01*
X139454400Y-94103739D01*
X139456522Y-94100563D01*
X139521351Y-93944053D01*
X139554400Y-93777903D01*
X139554400Y-93608497D01*
X139521351Y-93442347D01*
X139456522Y-93285837D01*
X139454400Y-93282661D01*
X139454400Y-81759339D01*
X139456522Y-81756163D01*
X139521351Y-81599653D01*
X139554400Y-81433503D01*
X139554400Y-81264097D01*
X139521351Y-81097947D01*
X139456522Y-80941437D01*
X139454400Y-80938261D01*
X139454400Y-80298897D01*
X139917200Y-80298897D01*
X139917200Y-80468303D01*
X139942200Y-80593988D01*
X139942201Y-84592808D01*
X139917200Y-84718497D01*
X139917200Y-84887903D01*
X139942200Y-85013588D01*
X139942201Y-88860008D01*
X139917200Y-88985697D01*
X139917200Y-89155103D01*
X139942200Y-89280788D01*
X139942201Y-92517608D01*
X139917200Y-92643297D01*
X139917200Y-92812703D01*
X139942200Y-92938388D01*
X139942201Y-96784808D01*
X139917200Y-96910497D01*
X139917200Y-97079903D01*
X139942200Y-97205588D01*
X139942201Y-104726571D01*
X139938160Y-104767600D01*
X139954282Y-104931288D01*
X140002028Y-105088686D01*
X140029182Y-105139487D01*
X140033442Y-105147457D01*
X140065878Y-105225763D01*
X140159995Y-105366618D01*
X140279782Y-105486405D01*
X140420637Y-105580522D01*
X140577147Y-105645351D01*
X140743297Y-105678400D01*
X140912703Y-105678400D01*
X141078853Y-105645351D01*
X141235363Y-105580522D01*
X141376218Y-105486405D01*
X141496005Y-105366618D01*
X141590122Y-105225763D01*
X141654951Y-105069253D01*
X141688000Y-104903103D01*
X141688000Y-104733697D01*
X143828800Y-104733697D01*
X143828800Y-104903103D01*
X143861849Y-105069253D01*
X143926678Y-105225763D01*
X144020795Y-105366618D01*
X144140582Y-105486405D01*
X144281437Y-105580522D01*
X144437947Y-105645351D01*
X144604097Y-105678400D01*
X144773503Y-105678400D01*
X144939653Y-105645351D01*
X145096163Y-105580522D01*
X145237018Y-105486405D01*
X145356805Y-105366618D01*
X145450922Y-105225763D01*
X145483354Y-105147465D01*
X145514772Y-105088687D01*
X145562518Y-104931289D01*
X145574600Y-104808619D01*
X145578640Y-104767601D01*
X145574600Y-104726582D01*
X145574600Y-99135988D01*
X145599600Y-99010303D01*
X145599600Y-98840897D01*
X145574600Y-98715212D01*
X145574600Y-94868788D01*
X145599600Y-94743103D01*
X145599600Y-94573697D01*
X145574600Y-94448012D01*
X145574600Y-91211188D01*
X145599600Y-91085503D01*
X145599600Y-90916097D01*
X145574600Y-90790412D01*
X145574600Y-89747697D01*
X147740400Y-89747697D01*
X147740400Y-89917103D01*
X147765400Y-90042788D01*
X147765401Y-97546808D01*
X147740400Y-97672497D01*
X147740400Y-97841903D01*
X147765400Y-97967588D01*
X147765401Y-104608008D01*
X147740400Y-104733697D01*
X147740400Y-104903103D01*
X147773449Y-105069253D01*
X147838278Y-105225763D01*
X147932395Y-105366618D01*
X148052182Y-105486405D01*
X148193037Y-105580522D01*
X148349547Y-105645351D01*
X148515697Y-105678400D01*
X148685103Y-105678400D01*
X148851253Y-105645351D01*
X149007763Y-105580522D01*
X149148618Y-105486405D01*
X149268405Y-105366618D01*
X149362522Y-105225763D01*
X149427351Y-105069253D01*
X149460400Y-104903103D01*
X149460400Y-104733697D01*
X151550400Y-104733697D01*
X151550400Y-104903103D01*
X151583449Y-105069253D01*
X151648278Y-105225763D01*
X151742395Y-105366618D01*
X151862182Y-105486405D01*
X152003037Y-105580522D01*
X152159547Y-105645351D01*
X152325697Y-105678400D01*
X152495103Y-105678400D01*
X152661253Y-105645351D01*
X152817763Y-105580522D01*
X152958618Y-105486405D01*
X153078405Y-105366618D01*
X153172522Y-105225763D01*
X153204954Y-105147465D01*
X153236372Y-105088687D01*
X153284118Y-104931289D01*
X153296200Y-104808619D01*
X153300240Y-104767601D01*
X153296200Y-104726582D01*
X153296200Y-94055988D01*
X153321200Y-93930303D01*
X153321200Y-93760897D01*
X153288151Y-93594747D01*
X153223322Y-93438237D01*
X153129205Y-93297382D01*
X153009418Y-93177595D01*
X152868563Y-93083478D01*
X152712053Y-93018649D01*
X152545903Y-92985600D01*
X152376497Y-92985600D01*
X152210347Y-93018649D01*
X152053837Y-93083478D01*
X151912982Y-93177595D01*
X151793195Y-93297382D01*
X151699078Y-93438237D01*
X151634249Y-93594747D01*
X151601200Y-93760897D01*
X151601200Y-93930303D01*
X151626200Y-94055988D01*
X151626201Y-104464335D01*
X151583449Y-104567547D01*
X151550400Y-104733697D01*
X149460400Y-104733697D01*
X149435400Y-104608012D01*
X149435400Y-97967588D01*
X149460400Y-97841903D01*
X149460400Y-97672497D01*
X149435400Y-97546812D01*
X149435400Y-91678097D01*
X149467600Y-91678097D01*
X149467600Y-91847503D01*
X149500649Y-92013653D01*
X149565478Y-92170163D01*
X149567601Y-92173340D01*
X149567600Y-93435061D01*
X149565478Y-93438237D01*
X149500649Y-93594747D01*
X149467600Y-93760897D01*
X149467600Y-93930303D01*
X149500649Y-94096453D01*
X149565478Y-94252963D01*
X149615750Y-94328200D01*
X149565478Y-94403437D01*
X149500649Y-94559947D01*
X149467600Y-94726097D01*
X149467600Y-94895503D01*
X149500649Y-95061653D01*
X149565478Y-95218163D01*
X149567601Y-95221340D01*
X149567600Y-99226261D01*
X149565478Y-99229437D01*
X149500649Y-99385947D01*
X149467600Y-99552097D01*
X149467600Y-99721503D01*
X149500649Y-99887653D01*
X149565478Y-100044163D01*
X149659595Y-100185018D01*
X149779382Y-100304805D01*
X149920237Y-100398922D01*
X150076747Y-100463751D01*
X150242897Y-100496800D01*
X150412303Y-100496800D01*
X150578453Y-100463751D01*
X150734963Y-100398922D01*
X150875818Y-100304805D01*
X150995605Y-100185018D01*
X151089722Y-100044163D01*
X151154551Y-99887653D01*
X151187600Y-99721503D01*
X151187600Y-99552097D01*
X151154551Y-99385947D01*
X151089722Y-99229437D01*
X151087600Y-99226261D01*
X151087600Y-95221339D01*
X151089722Y-95218163D01*
X151154551Y-95061653D01*
X151187600Y-94895503D01*
X151187600Y-94726097D01*
X151154551Y-94559947D01*
X151089722Y-94403437D01*
X151039450Y-94328200D01*
X151089722Y-94252963D01*
X151154551Y-94096453D01*
X151187600Y-93930303D01*
X151187600Y-93760897D01*
X151154551Y-93594747D01*
X151089722Y-93438237D01*
X151087600Y-93435061D01*
X151087600Y-92173339D01*
X151089722Y-92170163D01*
X151154551Y-92013653D01*
X151187600Y-91847503D01*
X151187600Y-91678097D01*
X151154551Y-91511947D01*
X151089722Y-91355437D01*
X150995605Y-91214582D01*
X150875818Y-91094795D01*
X150734963Y-91000678D01*
X150578453Y-90935849D01*
X150412303Y-90902800D01*
X150242897Y-90902800D01*
X150076747Y-90935849D01*
X149920237Y-91000678D01*
X149779382Y-91094795D01*
X149659595Y-91214582D01*
X149565478Y-91355437D01*
X149500649Y-91511947D01*
X149467600Y-91678097D01*
X149435400Y-91678097D01*
X149435400Y-90042788D01*
X149460400Y-89917103D01*
X149460400Y-89747697D01*
X149427351Y-89581547D01*
X149362522Y-89425037D01*
X149272625Y-89290497D01*
X155512800Y-89290497D01*
X155512800Y-89459903D01*
X155537800Y-89585588D01*
X155537801Y-104608007D01*
X155512800Y-104733697D01*
X155512800Y-104903103D01*
X155545849Y-105069253D01*
X155610678Y-105225763D01*
X155704795Y-105366618D01*
X155824582Y-105486405D01*
X155965437Y-105580522D01*
X156121947Y-105645351D01*
X156288097Y-105678400D01*
X156457503Y-105678400D01*
X156623653Y-105645351D01*
X156780163Y-105580522D01*
X156921018Y-105486405D01*
X157040805Y-105366618D01*
X157134922Y-105225763D01*
X157199751Y-105069253D01*
X157232800Y-104903103D01*
X157232800Y-104733697D01*
X157207800Y-104608012D01*
X157207800Y-89600000D01*
X158511928Y-89600000D01*
X158524188Y-89724482D01*
X158560498Y-89844180D01*
X158619463Y-89954494D01*
X158698815Y-90051185D01*
X158795506Y-90130537D01*
X158905820Y-90189502D01*
X158978380Y-90211513D01*
X158846525Y-90343368D01*
X158684010Y-90586589D01*
X158572068Y-90856842D01*
X158515000Y-91143740D01*
X158515000Y-91436260D01*
X158572068Y-91723158D01*
X158684010Y-91993411D01*
X158846525Y-92236632D01*
X159053368Y-92443475D01*
X159296589Y-92605990D01*
X159566842Y-92717932D01*
X159853740Y-92775000D01*
X160146260Y-92775000D01*
X160433158Y-92717932D01*
X160703411Y-92605990D01*
X160946632Y-92443475D01*
X161153475Y-92236632D01*
X161315990Y-91993411D01*
X161427932Y-91723158D01*
X161485000Y-91436260D01*
X161485000Y-91143740D01*
X161427932Y-90856842D01*
X161315990Y-90586589D01*
X161153475Y-90343368D01*
X161021620Y-90211513D01*
X161094180Y-90189502D01*
X161204494Y-90130537D01*
X161301185Y-90051185D01*
X161380537Y-89954494D01*
X161439502Y-89844180D01*
X161475812Y-89724482D01*
X161488072Y-89600000D01*
X161485000Y-89035750D01*
X161326250Y-88877000D01*
X160127000Y-88877000D01*
X160127000Y-88897000D01*
X159873000Y-88897000D01*
X159873000Y-88877000D01*
X158673750Y-88877000D01*
X158515000Y-89035750D01*
X158511928Y-89600000D01*
X157207800Y-89600000D01*
X157207800Y-89585588D01*
X157232800Y-89459903D01*
X157232800Y-89290497D01*
X157199751Y-89124347D01*
X157134922Y-88967837D01*
X157040805Y-88826982D01*
X156921018Y-88707195D01*
X156780163Y-88613078D01*
X156623653Y-88548249D01*
X156457503Y-88515200D01*
X156288097Y-88515200D01*
X156121947Y-88548249D01*
X155965437Y-88613078D01*
X155824582Y-88707195D01*
X155704795Y-88826982D01*
X155610678Y-88967837D01*
X155545849Y-89124347D01*
X155512800Y-89290497D01*
X149272625Y-89290497D01*
X149268405Y-89284182D01*
X149148618Y-89164395D01*
X149007763Y-89070278D01*
X148851253Y-89005449D01*
X148685103Y-88972400D01*
X148515697Y-88972400D01*
X148349547Y-89005449D01*
X148193037Y-89070278D01*
X148052182Y-89164395D01*
X147932395Y-89284182D01*
X147838278Y-89425037D01*
X147773449Y-89581547D01*
X147740400Y-89747697D01*
X145574600Y-89747697D01*
X145574600Y-87900000D01*
X158511928Y-87900000D01*
X158515000Y-88464250D01*
X158673750Y-88623000D01*
X159873000Y-88623000D01*
X159873000Y-87423750D01*
X160127000Y-87423750D01*
X160127000Y-88623000D01*
X161326250Y-88623000D01*
X161485000Y-88464250D01*
X161488072Y-87900000D01*
X161475812Y-87775518D01*
X161439502Y-87655820D01*
X161380537Y-87545506D01*
X161301185Y-87448815D01*
X161204494Y-87369463D01*
X161094180Y-87310498D01*
X160974482Y-87274188D01*
X160850000Y-87261928D01*
X160285750Y-87265000D01*
X160127000Y-87423750D01*
X159873000Y-87423750D01*
X159714250Y-87265000D01*
X159150000Y-87261928D01*
X159025518Y-87274188D01*
X158905820Y-87310498D01*
X158795506Y-87369463D01*
X158698815Y-87448815D01*
X158619463Y-87545506D01*
X158560498Y-87655820D01*
X158524188Y-87775518D01*
X158511928Y-87900000D01*
X145574600Y-87900000D01*
X145574600Y-86943988D01*
X145599600Y-86818303D01*
X145599600Y-86648897D01*
X145566551Y-86482747D01*
X145501722Y-86326237D01*
X145407605Y-86185382D01*
X145287818Y-86065595D01*
X145146963Y-85971478D01*
X144990453Y-85906649D01*
X144824303Y-85873600D01*
X144654897Y-85873600D01*
X144488747Y-85906649D01*
X144332237Y-85971478D01*
X144191382Y-86065595D01*
X144071595Y-86185382D01*
X143977478Y-86326237D01*
X143912649Y-86482747D01*
X143879600Y-86648897D01*
X143879600Y-86818303D01*
X143904601Y-86943992D01*
X143904600Y-90790412D01*
X143879600Y-90916097D01*
X143879600Y-91085503D01*
X143904601Y-91211192D01*
X143904600Y-94448012D01*
X143879600Y-94573697D01*
X143879600Y-94743103D01*
X143904601Y-94868792D01*
X143904600Y-98715212D01*
X143879600Y-98840897D01*
X143879600Y-99010303D01*
X143904600Y-99135988D01*
X143904601Y-104464335D01*
X143861849Y-104567547D01*
X143828800Y-104733697D01*
X141688000Y-104733697D01*
X141654951Y-104567547D01*
X141612200Y-104464338D01*
X141612200Y-97205588D01*
X141637200Y-97079903D01*
X141637200Y-96910497D01*
X141612200Y-96784812D01*
X141612200Y-96367255D01*
X141639837Y-96385722D01*
X141796347Y-96450551D01*
X141846001Y-96460428D01*
X141846001Y-99480260D01*
X141843878Y-99483437D01*
X141779049Y-99639947D01*
X141746000Y-99806097D01*
X141746000Y-99975503D01*
X141779049Y-100141653D01*
X141843878Y-100298163D01*
X141937995Y-100439018D01*
X142057782Y-100558805D01*
X142198637Y-100652922D01*
X142355147Y-100717751D01*
X142521297Y-100750800D01*
X142690703Y-100750800D01*
X142856853Y-100717751D01*
X143013363Y-100652922D01*
X143154218Y-100558805D01*
X143274005Y-100439018D01*
X143368122Y-100298163D01*
X143432951Y-100141653D01*
X143466000Y-99975503D01*
X143466000Y-99806097D01*
X143432951Y-99639947D01*
X143368122Y-99483437D01*
X143366000Y-99480261D01*
X143366000Y-92376539D01*
X143368122Y-92373363D01*
X143432951Y-92216853D01*
X143466000Y-92050703D01*
X143466000Y-91881297D01*
X143432951Y-91715147D01*
X143368122Y-91558637D01*
X143366000Y-91555461D01*
X143366000Y-81759339D01*
X143368122Y-81756163D01*
X143432951Y-81599653D01*
X143466000Y-81433503D01*
X143466000Y-81264097D01*
X143432951Y-81097947D01*
X143368122Y-80941437D01*
X143366000Y-80938261D01*
X143366000Y-73012978D01*
X143369676Y-72975655D01*
X143366000Y-72938332D01*
X143366000Y-72938323D01*
X143355003Y-72826670D01*
X143316846Y-72700881D01*
X157478724Y-72700881D01*
X157838912Y-73190548D01*
X158502882Y-73550849D01*
X159224385Y-73774694D01*
X159975695Y-73853480D01*
X160727938Y-73784178D01*
X161452208Y-73569452D01*
X162120670Y-73217555D01*
X162161088Y-73190548D01*
X162521276Y-72700881D01*
X160000000Y-70179605D01*
X157478724Y-72700881D01*
X143316846Y-72700881D01*
X143311546Y-72683409D01*
X143240974Y-72551380D01*
X143146001Y-72435655D01*
X143116997Y-72411852D01*
X143016105Y-72310960D01*
X143015359Y-72307211D01*
X142950530Y-72150701D01*
X142856413Y-72009846D01*
X142736626Y-71890059D01*
X142595771Y-71795942D01*
X142439261Y-71731113D01*
X142273111Y-71698064D01*
X142103705Y-71698064D01*
X141937555Y-71731113D01*
X141781045Y-71795942D01*
X141640190Y-71890059D01*
X141520403Y-72009846D01*
X141426286Y-72150701D01*
X141361457Y-72307211D01*
X141328408Y-72473361D01*
X141328408Y-72642767D01*
X141361457Y-72808917D01*
X141426286Y-72965427D01*
X141520403Y-73106282D01*
X141640190Y-73226069D01*
X141781045Y-73320186D01*
X141846001Y-73347092D01*
X141846000Y-80938261D01*
X141843878Y-80941437D01*
X141779049Y-81097947D01*
X141746000Y-81264097D01*
X141746000Y-81433503D01*
X141779049Y-81599653D01*
X141843878Y-81756163D01*
X141846000Y-81759339D01*
X141846000Y-82365371D01*
X141844963Y-82364678D01*
X141688453Y-82299849D01*
X141612200Y-82284681D01*
X141612200Y-80593988D01*
X141637200Y-80468303D01*
X141637200Y-80298897D01*
X141604151Y-80132747D01*
X141539322Y-79976237D01*
X141445205Y-79835382D01*
X141325418Y-79715595D01*
X141184563Y-79621478D01*
X141028053Y-79556649D01*
X140861903Y-79523600D01*
X140692497Y-79523600D01*
X140526347Y-79556649D01*
X140369837Y-79621478D01*
X140228982Y-79715595D01*
X140109195Y-79835382D01*
X140015078Y-79976237D01*
X139950249Y-80132747D01*
X139917200Y-80298897D01*
X139454400Y-80298897D01*
X139454400Y-79625739D01*
X139456522Y-79622563D01*
X139521351Y-79466053D01*
X139554400Y-79299903D01*
X139554400Y-79130497D01*
X139521351Y-78964347D01*
X139456522Y-78807837D01*
X139362405Y-78666982D01*
X139242618Y-78547195D01*
X139101763Y-78453078D01*
X138945253Y-78388249D01*
X138779103Y-78355200D01*
X138609697Y-78355200D01*
X138443547Y-78388249D01*
X138287037Y-78453078D01*
X138146182Y-78547195D01*
X138026395Y-78666982D01*
X137932278Y-78807837D01*
X137867449Y-78964347D01*
X137834400Y-79130497D01*
X117787000Y-79130497D01*
X117787000Y-78358788D01*
X117812000Y-78233103D01*
X117812000Y-78063697D01*
X117778951Y-77897547D01*
X117714122Y-77741037D01*
X117620005Y-77600182D01*
X117500218Y-77480395D01*
X117359363Y-77386278D01*
X117202853Y-77321449D01*
X117036703Y-77288400D01*
X116867297Y-77288400D01*
X116701147Y-77321449D01*
X116544637Y-77386278D01*
X116403782Y-77480395D01*
X116283995Y-77600182D01*
X116189878Y-77741037D01*
X116125049Y-77897547D01*
X116092000Y-78063697D01*
X115660000Y-78063697D01*
X115660000Y-72700881D01*
X117478724Y-72700881D01*
X117838912Y-73190548D01*
X118502882Y-73550849D01*
X119224385Y-73774694D01*
X119975695Y-73853480D01*
X120727938Y-73784178D01*
X121452208Y-73569452D01*
X122120670Y-73217555D01*
X122161088Y-73190548D01*
X122521276Y-72700881D01*
X120000000Y-70179605D01*
X117478724Y-72700881D01*
X115660000Y-72700881D01*
X115660000Y-70029392D01*
X115664792Y-69975695D01*
X116146520Y-69975695D01*
X116215822Y-70727938D01*
X116430548Y-71452208D01*
X116782445Y-72120670D01*
X116809452Y-72161088D01*
X117299119Y-72521276D01*
X119820395Y-70000000D01*
X120179605Y-70000000D01*
X122700881Y-72521276D01*
X123190548Y-72161088D01*
X123550849Y-71497118D01*
X123751616Y-70850000D01*
X132177128Y-70850000D01*
X132189388Y-70974482D01*
X132225698Y-71094180D01*
X132284663Y-71204494D01*
X132364015Y-71301185D01*
X132460706Y-71380537D01*
X132571020Y-71439502D01*
X132690718Y-71475812D01*
X132815200Y-71488072D01*
X133379450Y-71485000D01*
X133538200Y-71326250D01*
X133538200Y-70127000D01*
X132338950Y-70127000D01*
X132180200Y-70285750D01*
X132177128Y-70850000D01*
X123751616Y-70850000D01*
X123774694Y-70775615D01*
X123853480Y-70024305D01*
X123784178Y-69272062D01*
X123747990Y-69150000D01*
X132177128Y-69150000D01*
X132180200Y-69714250D01*
X132338950Y-69873000D01*
X133538200Y-69873000D01*
X133538200Y-68673750D01*
X133792200Y-68673750D01*
X133792200Y-69873000D01*
X133812200Y-69873000D01*
X133812200Y-70127000D01*
X133792200Y-70127000D01*
X133792200Y-71326250D01*
X133950950Y-71485000D01*
X134515200Y-71488072D01*
X134639682Y-71475812D01*
X134759380Y-71439502D01*
X134869694Y-71380537D01*
X134966385Y-71301185D01*
X135045737Y-71204494D01*
X135104702Y-71094180D01*
X135126713Y-71021620D01*
X135258568Y-71153475D01*
X135501789Y-71315990D01*
X135772042Y-71427932D01*
X136058940Y-71485000D01*
X136351460Y-71485000D01*
X136638358Y-71427932D01*
X136908611Y-71315990D01*
X137151832Y-71153475D01*
X137358675Y-70946632D01*
X137475200Y-70772240D01*
X137591725Y-70946632D01*
X137798568Y-71153475D01*
X138041789Y-71315990D01*
X138312042Y-71427932D01*
X138598940Y-71485000D01*
X138891460Y-71485000D01*
X139178358Y-71427932D01*
X139448611Y-71315990D01*
X139691832Y-71153475D01*
X139898675Y-70946632D01*
X140015200Y-70772240D01*
X140131725Y-70946632D01*
X140338568Y-71153475D01*
X140581789Y-71315990D01*
X140852042Y-71427932D01*
X141138940Y-71485000D01*
X141431460Y-71485000D01*
X141718358Y-71427932D01*
X141988611Y-71315990D01*
X142231832Y-71153475D01*
X142438675Y-70946632D01*
X142555200Y-70772240D01*
X142671725Y-70946632D01*
X142878568Y-71153475D01*
X143121789Y-71315990D01*
X143392042Y-71427932D01*
X143678940Y-71485000D01*
X143971460Y-71485000D01*
X144258358Y-71427932D01*
X144528611Y-71315990D01*
X144771832Y-71153475D01*
X144978675Y-70946632D01*
X145095200Y-70772240D01*
X145211725Y-70946632D01*
X145418568Y-71153475D01*
X145661789Y-71315990D01*
X145932042Y-71427932D01*
X146218940Y-71485000D01*
X146511460Y-71485000D01*
X146798358Y-71427932D01*
X147068611Y-71315990D01*
X147311832Y-71153475D01*
X147518675Y-70946632D01*
X147681190Y-70703411D01*
X147793132Y-70433158D01*
X147850200Y-70146260D01*
X147850200Y-69975695D01*
X156146520Y-69975695D01*
X156215822Y-70727938D01*
X156430548Y-71452208D01*
X156782445Y-72120670D01*
X156809452Y-72161088D01*
X157299119Y-72521276D01*
X159820395Y-70000000D01*
X160179605Y-70000000D01*
X162700881Y-72521276D01*
X163190548Y-72161088D01*
X163550849Y-71497118D01*
X163774694Y-70775615D01*
X163853480Y-70024305D01*
X163784178Y-69272062D01*
X163569452Y-68547792D01*
X163217555Y-67879330D01*
X163190548Y-67838912D01*
X162700881Y-67478724D01*
X160179605Y-70000000D01*
X159820395Y-70000000D01*
X157299119Y-67478724D01*
X156809452Y-67838912D01*
X156449151Y-68502882D01*
X156225306Y-69224385D01*
X156146520Y-69975695D01*
X147850200Y-69975695D01*
X147850200Y-69853740D01*
X147793132Y-69566842D01*
X147681190Y-69296589D01*
X147518675Y-69053368D01*
X147311832Y-68846525D01*
X147068611Y-68684010D01*
X146798358Y-68572068D01*
X146511460Y-68515000D01*
X146218940Y-68515000D01*
X145932042Y-68572068D01*
X145661789Y-68684010D01*
X145418568Y-68846525D01*
X145211725Y-69053368D01*
X145095200Y-69227760D01*
X144978675Y-69053368D01*
X144771832Y-68846525D01*
X144528611Y-68684010D01*
X144258358Y-68572068D01*
X143971460Y-68515000D01*
X143678940Y-68515000D01*
X143392042Y-68572068D01*
X143121789Y-68684010D01*
X142878568Y-68846525D01*
X142671725Y-69053368D01*
X142555200Y-69227760D01*
X142438675Y-69053368D01*
X142231832Y-68846525D01*
X141988611Y-68684010D01*
X141718358Y-68572068D01*
X141431460Y-68515000D01*
X141138940Y-68515000D01*
X140852042Y-68572068D01*
X140581789Y-68684010D01*
X140338568Y-68846525D01*
X140131725Y-69053368D01*
X140015200Y-69227760D01*
X139898675Y-69053368D01*
X139691832Y-68846525D01*
X139448611Y-68684010D01*
X139178358Y-68572068D01*
X138891460Y-68515000D01*
X138598940Y-68515000D01*
X138312042Y-68572068D01*
X138041789Y-68684010D01*
X137798568Y-68846525D01*
X137591725Y-69053368D01*
X137475200Y-69227760D01*
X137358675Y-69053368D01*
X137151832Y-68846525D01*
X136908611Y-68684010D01*
X136638358Y-68572068D01*
X136351460Y-68515000D01*
X136058940Y-68515000D01*
X135772042Y-68572068D01*
X135501789Y-68684010D01*
X135258568Y-68846525D01*
X135126713Y-68978380D01*
X135104702Y-68905820D01*
X135045737Y-68795506D01*
X134966385Y-68698815D01*
X134869694Y-68619463D01*
X134759380Y-68560498D01*
X134639682Y-68524188D01*
X134515200Y-68511928D01*
X133950950Y-68515000D01*
X133792200Y-68673750D01*
X133538200Y-68673750D01*
X133379450Y-68515000D01*
X132815200Y-68511928D01*
X132690718Y-68524188D01*
X132571020Y-68560498D01*
X132460706Y-68619463D01*
X132364015Y-68698815D01*
X132284663Y-68795506D01*
X132225698Y-68905820D01*
X132189388Y-69025518D01*
X132177128Y-69150000D01*
X123747990Y-69150000D01*
X123569452Y-68547792D01*
X123217555Y-67879330D01*
X123190548Y-67838912D01*
X122700881Y-67478724D01*
X120179605Y-70000000D01*
X119820395Y-70000000D01*
X117299119Y-67478724D01*
X116809452Y-67838912D01*
X116449151Y-68502882D01*
X116225306Y-69224385D01*
X116146520Y-69975695D01*
X115664792Y-69975695D01*
X115731173Y-69231917D01*
X115934656Y-68488109D01*
X116266638Y-67792095D01*
X116620876Y-67299119D01*
X117478724Y-67299119D01*
X120000000Y-69820395D01*
X122521276Y-67299119D01*
X157478724Y-67299119D01*
X160000000Y-69820395D01*
X162521276Y-67299119D01*
X162161088Y-66809452D01*
X161497118Y-66449151D01*
X160775615Y-66225306D01*
X160024305Y-66146520D01*
X159272062Y-66215822D01*
X158547792Y-66430548D01*
X157879330Y-66782445D01*
X157838912Y-66809452D01*
X157478724Y-67299119D01*
X122521276Y-67299119D01*
X122161088Y-66809452D01*
X121497118Y-66449151D01*
X120775615Y-66225306D01*
X120024305Y-66146520D01*
X119272062Y-66215822D01*
X118547792Y-66430548D01*
X117879330Y-66782445D01*
X117838912Y-66809452D01*
X117478724Y-67299119D01*
X116620876Y-67299119D01*
X116716626Y-67165870D01*
X117270403Y-66629223D01*
X117910451Y-66199129D01*
X118616553Y-65889171D01*
X119371457Y-65707935D01*
X120024207Y-65660000D01*
X159970608Y-65660000D01*
X160768083Y-65731173D01*
G37*
%TD.AperFunction*%
%TD*%
M02*
