%TF.GenerationSoftware,KiCad,Pcbnew,(5.1.9)-1*%
%TF.CreationDate,2021-04-27T12:28:50+01:00*%
%TF.ProjectId,LLC-003,4c4c432d-3030-4332-9e6b-696361645f70,1.0*%
%TF.SameCoordinates,Original*%
%TF.FileFunction,Soldermask,Bot*%
%TF.FilePolarity,Negative*%
%FSLAX46Y46*%
G04 Gerber Fmt 4.6, Leading zero omitted, Abs format (unit mm)*
G04 Created by KiCad (PCBNEW (5.1.9)-1) date 2021-04-27 12:28:50*
%MOMM*%
%LPD*%
G01*
G04 APERTURE LIST*
%ADD10O,1.700000X1.700000*%
%ADD11R,1.700000X1.700000*%
%ADD12C,0.800000*%
%ADD13C,6.400000*%
G04 APERTURE END LIST*
D10*
%TO.C,J3*%
X160000000Y-91290000D03*
D11*
X160000000Y-88750000D03*
%TD*%
D10*
%TO.C,J2*%
X146365200Y-70000000D03*
X143825200Y-70000000D03*
X141285200Y-70000000D03*
X138745200Y-70000000D03*
X136205200Y-70000000D03*
D11*
X133665200Y-70000000D03*
%TD*%
D10*
%TO.C,J1*%
X120000000Y-93870000D03*
X120000000Y-91330000D03*
X120000000Y-88790000D03*
D11*
X120000000Y-86250000D03*
%TD*%
D12*
%TO.C,H4*%
X161697056Y-108302944D03*
X160000000Y-107600000D03*
X158302944Y-108302944D03*
X157600000Y-110000000D03*
X158302944Y-111697056D03*
X160000000Y-112400000D03*
X161697056Y-111697056D03*
X162400000Y-110000000D03*
D13*
X160000000Y-110000000D03*
%TD*%
D12*
%TO.C,H3*%
X161697056Y-68302944D03*
X160000000Y-67600000D03*
X158302944Y-68302944D03*
X157600000Y-70000000D03*
X158302944Y-71697056D03*
X160000000Y-72400000D03*
X161697056Y-71697056D03*
X162400000Y-70000000D03*
D13*
X160000000Y-70000000D03*
%TD*%
D12*
%TO.C,H2*%
X121697056Y-68302944D03*
X120000000Y-67600000D03*
X118302944Y-68302944D03*
X117600000Y-70000000D03*
X118302944Y-71697056D03*
X120000000Y-72400000D03*
X121697056Y-71697056D03*
X122400000Y-70000000D03*
D13*
X120000000Y-70000000D03*
%TD*%
D12*
%TO.C,H1*%
X121697056Y-108302944D03*
X120000000Y-107600000D03*
X118302944Y-108302944D03*
X117600000Y-110000000D03*
X118302944Y-111697056D03*
X120000000Y-112400000D03*
X121697056Y-111697056D03*
X122400000Y-110000000D03*
D13*
X120000000Y-110000000D03*
%TD*%
M02*
