M48
; DRILL file {KiCad (5.1.9)-1} date 04/27/21 12:28:47
; FORMAT={-:-/ absolute / inch / decimal}
; #@! TF.CreationDate,2021-04-27T12:28:47+01:00
; #@! TF.GenerationSoftware,Kicad,Pcbnew,(5.1.9)-1
FMAT,2
INCH
T1C0.0118
T2C0.0197
T3C0.0394
T4C0.1260
%
G90
G05
T1
X4.6044Y-3.0767
X4.6044Y-3.6947
X4.6044Y-4.0047
X4.7244Y-4.1267
X4.8264Y-3.2787
X4.8264Y-3.8147
X4.8704Y-3.2107
X4.8738Y-3.8781
X4.8744Y-3.4807
X4.8744Y-3.5967
X4.9044Y-3.3887
X4.9044Y-3.6307
X4.9064Y-3.6687
X4.9444Y-3.5307
X4.9904Y-4.1267
X4.9924Y-3.4267
X4.9924Y-3.5927
X4.9964Y-3.1347
X5.0304Y-3.9247
X5.0964Y-3.2847
X5.0964Y-3.8187
X5.1424Y-3.2827
X5.1424Y-3.4267
X5.1424Y-3.7387
X5.1424Y-3.6007
X5.1704Y-3.3187
X5.1704Y-3.4647
X5.1704Y-3.6307
X5.1704Y-3.7767
X5.1704Y-3.8147
X5.2064Y-3.3847
X5.2064Y-3.5327
X5.2064Y-3.6987
X5.2564Y-3.2827
X5.2564Y-3.4267
X5.2564Y-3.5927
X5.2564Y-3.7387
X5.2564Y-4.1267
X5.3624Y-3.0727
X5.3844Y-3.2127
X5.3844Y-3.3807
X5.3844Y-3.7127
X5.3864Y-3.5467
X5.4604Y-3.1187
X5.4604Y-3.2027
X5.4604Y-3.6887
X5.4604Y-3.8567
X5.461Y-3.8941
X5.4624Y-3.0727
X5.4944Y-3.4447
X5.4944Y-3.6107
X5.4944Y-3.7547
X5.5424Y-3.1647
X5.5424Y-3.3387
X5.5424Y-3.5067
X5.5424Y-3.6507
X5.5424Y-3.8187
X5.5444Y-4.1267
X5.5624Y-3.0727
X5.5684Y-3.2727
X5.5684Y-3.3767
X5.5684Y-3.5447
X5.5924Y-3.2867
X5.5924Y-3.4527
X5.5924Y-3.7647
X5.598Y-2.8566
X5.6124Y-3.9707
X5.6144Y-3.2027
X5.6144Y-3.6207
X5.6144Y-3.9327
X5.6464Y-3.5187
X5.6464Y-3.6867
X5.6464Y-3.8307
X5.6624Y-3.0727
X5.6844Y-3.2407
X5.6964Y-4.1267
X5.6984Y-3.4147
X5.6984Y-3.5827
X5.6984Y-3.7267
X5.6984Y-3.8947
X5.7624Y-3.0727
X5.7624Y-3.6127
X5.7644Y-3.9247
X5.8504Y-3.5367
X5.8504Y-3.8487
X5.8504Y-4.1267
X5.9184Y-3.6127
X5.9184Y-3.6947
X5.9184Y-3.7327
X5.9184Y-3.9227
X5.9504Y-3.7987
X6.0004Y-4.1267
X6.0024Y-3.6947
X6.0684Y-3.9547
X6.0704Y-3.5947
X6.1564Y-3.5187
X6.1564Y-4.1267
T2
X4.6299Y-2.7559
X4.6299Y-4.3307
X4.6576Y-2.6891
X4.6576Y-2.8227
X4.6576Y-4.2639
X4.6576Y-4.3975
X4.7244Y-2.6614
X4.7244Y-2.8504
X4.7244Y-4.2362
X4.7244Y-4.4252
X4.7912Y-2.6891
X4.7912Y-2.8227
X4.7912Y-4.2639
X4.7912Y-4.3975
X4.8189Y-2.7559
X4.8189Y-4.3307
X6.2047Y-2.7559
X6.2047Y-4.3307
X6.2324Y-2.6891
X6.2324Y-2.8227
X6.2324Y-4.2639
X6.2324Y-4.3975
X6.2992Y-2.6614
X6.2992Y-2.8504
X6.2992Y-4.2362
X6.2992Y-4.4252
X6.366Y-2.6891
X6.366Y-2.8227
X6.366Y-4.2639
X6.366Y-4.3975
X6.3937Y-2.7559
X6.3937Y-4.3307
T3
X4.7244Y-3.3957
X4.7244Y-3.4957
X4.7244Y-3.5957
X4.7244Y-3.6957
X5.2624Y-2.7559
X5.3624Y-2.7559
X5.4624Y-2.7559
X5.5624Y-2.7559
X5.6624Y-2.7559
X5.7624Y-2.7559
X6.2992Y-3.4941
X6.2992Y-3.5941
T4
X4.7244Y-2.7559
X4.7244Y-4.3307
X6.2992Y-2.7559
X6.2992Y-4.3307
T0
M30
